G04 GENERATED BY PULSONIX 10.0 GERBER.DLL 7250*
G04 #@! TF.GenerationSoftware,Pulsonix,Pulsonix,10.0.7250*
G04 #@! TF.CreationDate,2019-09-23T08:44:35--1:00*
G04 #@! TF.Part,Single*
%FSLAX25Y25*%
%LPD*%
%MOIN*%
G04 #@! TF.FileFunction,Copper,L2,Inr*
G04 #@! TF.FilePolarity,Positive*
G04 #@! TA.AperFunction,OtherCopper*
%ADD10C,0.00591*%
G04 #@! TA.AperFunction,ViaPad*
%ADD11C,0.02362X0.00984*%
G04 #@! TA.AperFunction,ComponentPad*
%ADD17C,0.03543X0.01181*%
G04 #@! TD.AperFunction*
%ADD86C,0.00500*%
G04 #@! TA.AperFunction,OtherCopper*
%ADD95C,0.01200*%
%ADD115C,0.00600*%
G04 #@! TD.AperFunction*
%ADD126C,0.05512*%
G04 #@! TA.AperFunction,ComponentPad*
%ADD205C,0.23622X0.12008*%
%ADD212C,0.07874X0.04724*%
X0Y0D02*
D02*
D10*
X2470Y180404D02*
Y2470D01*
X17035*
X16739Y2631*
X16458Y2819*
X16196Y3032*
X15955Y3269*
X15736Y3526*
X15543Y3803*
X15376Y4097*
X15237Y4405*
X15127Y4724*
X15047Y5053*
X14998Y5387*
X14980Y5724*
X14994Y6062*
X15039Y6396*
X15114Y6726*
X15220Y7046*
X15355Y7356*
X15518Y7652*
X15707Y7931*
X15922Y8192*
X16160Y8432*
X16420Y8648*
X16698Y8840*
X16993Y9005*
X17301Y9142*
X17621Y9250*
X17950Y9327*
X18285Y9374*
X18622Y9390*
X18959Y9374*
X19294Y9327*
X19623Y9250*
X19943Y9142*
X20252Y9005*
X20546Y8840*
X20825Y8648*
X21084Y8432*
X21322Y8192*
X21537Y7931*
X21726Y7652*
X21890Y7356*
X22024Y7046*
X22130Y6726*
X22206Y6396*
X22250Y6062*
X22264Y5724*
X22246Y5387*
X22197Y5053*
X22117Y4724*
X22007Y4405*
X21868Y4097*
X21701Y3803*
X21508Y3526*
X21289Y3269*
X21048Y3032*
X20786Y2819*
X20505Y2631*
X20209Y2470*
X391051*
X390754Y2631*
X390474Y2819*
X390212Y3032*
X389970Y3269*
X389752Y3526*
X389559Y3803*
X389392Y4097*
X389253Y4405*
X389143Y4724*
X389063Y5053*
X389014Y5387*
X388996Y5724*
X389010Y6062*
X389054Y6396*
X389130Y6726*
X389235Y7046*
X389370Y7356*
X389533Y7652*
X389723Y7931*
X389938Y8192*
X390176Y8432*
X390435Y8648*
X390714Y8840*
X391008Y9005*
X391317Y9142*
X391637Y9250*
X391966Y9327*
X392301Y9374*
X392638Y9390*
X392975Y9374*
X393310Y9327*
X393638Y9250*
X393959Y9142*
X394267Y9005*
X394562Y8840*
X394840Y8648*
X395100Y8432*
X395338Y8192*
X395552Y7931*
X395742Y7652*
X395905Y7356*
X396040Y7046*
X396146Y6726*
X396221Y6396*
X396266Y6062*
X396279Y5724*
X396262Y5387*
X396212Y5053*
X396133Y4724*
X396023Y4405*
X395884Y4097*
X395717Y3803*
X395523Y3526*
X395305Y3269*
X395064Y3032*
X394802Y2819*
X394521Y2631*
X394224Y2470*
X407766*
Y180404*
X2470*
X2972Y47874D02*
X2988Y48123D01*
X3033Y48369*
X3107Y48607*
X3209Y48835*
X3338Y49048*
X3492Y49245*
X3669Y49421*
X3865Y49575*
X4079Y49704*
X4306Y49807*
X4545Y49881*
X4790Y49926*
X5039Y49941*
X5289Y49926*
X5534Y49881*
X5772Y49807*
X6000Y49704*
X6214Y49575*
X6410Y49421*
X6586Y49245*
X6740Y49048*
X6870Y48835*
X6972Y48607*
X7046Y48369*
X7091Y48123*
X7106Y47874*
X7093Y47638*
X7052Y47404*
X6985Y47177*
X6893Y46959*
X6776Y46753*
X6636Y46562*
X6476Y46388*
X6296Y46233*
X6101Y46100*
X5891Y45990*
X5670Y45906*
X5901Y45816*
X6120Y45699*
X6323Y45557*
X6508Y45391*
X6672Y45205*
X6812Y45000*
X6926Y44780*
X7014Y44548*
X7073Y44307*
X7103Y44061*
Y43813*
X7073Y43567*
X7014Y43326*
X6926Y43094*
X6812Y42874*
X6672Y42669*
X6508Y42482*
X6323Y42317*
X6120Y42175*
X5901Y42058*
X5670Y41969*
X5906Y41876*
X6130Y41756*
X6337Y41609*
X6524Y41438*
X6689Y41245*
X6829Y41033*
X6943Y40806*
X7027Y40566*
X7082Y40319*
X7105Y40066*
X7098Y39812*
X7059Y39561*
X6990Y39317*
X6892Y39083*
X6765Y38862*
X6613Y38659*
X6436Y38477*
X6239Y38317*
X6414Y38162*
X6571Y37989*
X6706Y37799*
X6820Y37596*
X6910Y37380*
X6975Y37156*
X7014Y36926*
X7028Y36693*
X7012Y36444*
X6967Y36198*
X6893Y35960*
X6791Y35732*
X6662Y35519*
X6508Y35322*
X6331Y35146*
X6135Y34992*
X5921Y34863*
X5694Y34760*
X5455Y34686*
X5210Y34641*
X4961Y34626*
X4711Y34641*
X4466Y34686*
X4228Y34760*
X4000Y34863*
X3786Y34992*
X3590Y35146*
X3414Y35322*
X3260Y35519*
X3130Y35732*
X3028Y35960*
X2954Y36198*
X2909Y36444*
X2894Y36693*
X2908Y36938*
X2952Y37180*
X3024Y37415*
X3123Y37640*
X3249Y37851*
X3398Y38046*
X3570Y38222*
X3761Y38376*
X3575Y38541*
X3411Y38727*
X3270Y38932*
X3154Y39152*
X3066Y39384*
X3007Y39625*
X2976Y39872*
X2976Y40120*
X3005Y40367*
X3064Y40609*
X3151Y40841*
X3266Y41062*
X3406Y41267*
X3570Y41454*
X3755Y41619*
X3958Y41762*
X4178Y41879*
X4409Y41969*
X4178Y42058*
X3959Y42175*
X3756Y42317*
X3571Y42483*
X3407Y42669*
X3267Y42874*
X3152Y43094*
X3065Y43326*
X3006Y43567*
X2976Y43813*
Y44061*
X3006Y44307*
X3065Y44548*
X3152Y44780*
X3267Y45000*
X3407Y45205*
X3571Y45392*
X3756Y45557*
X3959Y45699*
X4178Y45816*
X4409Y45906*
X4188Y45991*
X3978Y46100*
X3782Y46233*
X3603Y46388*
X3442Y46562*
X3303Y46753*
X3186Y46959*
X3093Y47177*
X3027Y47404*
X2986Y47638*
X2972Y47874*
Y20315D02*
X2988Y20564D01*
X3033Y20810*
X3107Y21048*
X3209Y21276*
X3338Y21489*
X3492Y21686*
X3669Y21862*
X3865Y22016*
X4079Y22145*
X4306Y22248*
X4545Y22322*
X4790Y22367*
X5039Y22382*
X5289Y22367*
X5534Y22322*
X5772Y22248*
X6000Y22145*
X6214Y22016*
X6410Y21862*
X6586Y21686*
X6740Y21489*
X6870Y21276*
X6972Y21048*
X7046Y20810*
X7091Y20564*
X7106Y20315*
X7093Y20079*
X7052Y19845*
X6985Y19618*
X6893Y19400*
X6776Y19194*
X6636Y19003*
X6476Y18829*
X6296Y18674*
X6101Y18541*
X5891Y18431*
X5670Y18346*
X5901Y18257*
X6120Y18140*
X6323Y17998*
X6508Y17832*
X6672Y17646*
X6812Y17441*
X6926Y17221*
X7014Y16989*
X7073Y16748*
X7103Y16502*
Y16254*
X7073Y16008*
X7014Y15767*
X6926Y15534*
X6812Y15314*
X6672Y15110*
X6508Y14923*
X6323Y14758*
X6120Y14616*
X5901Y14499*
X5670Y14409*
X5891Y14324*
X6100Y14215*
X6296Y14082*
X6476Y13927*
X6636Y13753*
X6776Y13562*
X6893Y13356*
X6985Y13138*
X7052Y12911*
X7093Y12677*
X7106Y12441*
X7091Y12192*
X7046Y11946*
X6972Y11708*
X6870Y11480*
X6740Y11267*
X6586Y11070*
X6410Y10894*
X6214Y10740*
X6000Y10611*
X5772Y10508*
X5534Y10434*
X5289Y10389*
X5039Y10374*
X4790Y10389*
X4545Y10434*
X4306Y10508*
X4079Y10611*
X3865Y10740*
X3669Y10894*
X3492Y11070*
X3338Y11267*
X3209Y11480*
X3107Y11708*
X3033Y11946*
X2988Y12192*
X2972Y12441*
X2986Y12677*
X3027Y12911*
X3093Y13138*
X3186Y13356*
X3303Y13562*
X3442Y13753*
X3603Y13927*
X3782Y14082*
X3978Y14215*
X4188Y14324*
X4409Y14409*
X4178Y14499*
X3959Y14616*
X3756Y14758*
X3571Y14923*
X3407Y15110*
X3267Y15315*
X3152Y15535*
X3065Y15767*
X3006Y16008*
X2976Y16254*
Y16502*
X3006Y16748*
X3065Y16989*
X3152Y17221*
X3267Y17441*
X3407Y17646*
X3571Y17833*
X3756Y17998*
X3959Y18140*
X4178Y18257*
X4409Y18346*
X4188Y18431*
X3978Y18541*
X3782Y18674*
X3603Y18829*
X3442Y19003*
X3303Y19194*
X3186Y19400*
X3093Y19618*
X3027Y19845*
X2986Y20079*
X2972Y20315*
Y32126D02*
X2988Y32375D01*
X3033Y32621*
X3107Y32859*
X3209Y33087*
X3338Y33300*
X3492Y33497*
X3669Y33673*
X3865Y33827*
X4079Y33956*
X4306Y34059*
X4545Y34133*
X4790Y34178*
X5039Y34193*
X5289Y34178*
X5534Y34133*
X5772Y34059*
X6000Y33956*
X6214Y33827*
X6410Y33673*
X6586Y33497*
X6740Y33300*
X6870Y33087*
X6972Y32859*
X7046Y32621*
X7091Y32375*
X7106Y32126*
X7091Y31877*
X7046Y31631*
X6972Y31393*
X6870Y31165*
X6740Y30952*
X6586Y30755*
X6410Y30579*
X6214Y30425*
X6000Y30296*
X5772Y30193*
X5534Y30119*
X5289Y30074*
X5039Y30059*
X4790Y30074*
X4545Y30119*
X4306Y30193*
X4079Y30296*
X3865Y30425*
X3669Y30579*
X3492Y30755*
X3338Y30952*
X3209Y31165*
X3107Y31393*
X3033Y31631*
X2988Y31877*
X2972Y32126*
Y59685D02*
X2988Y59934D01*
X3033Y60180*
X3107Y60418*
X3209Y60646*
X3338Y60859*
X3492Y61056*
X3669Y61232*
X3865Y61386*
X4079Y61515*
X4306Y61618*
X4545Y61692*
X4790Y61737*
X5039Y61752*
X5289Y61737*
X5534Y61692*
X5772Y61618*
X6000Y61515*
X6214Y61386*
X6410Y61232*
X6586Y61056*
X6740Y60859*
X6870Y60646*
X6972Y60418*
X7046Y60180*
X7091Y59934*
X7106Y59685*
X7093Y59449*
X7052Y59215*
X6985Y58988*
X6893Y58770*
X6776Y58564*
X6636Y58373*
X6476Y58199*
X6296Y58044*
X6101Y57911*
X5891Y57801*
X5670Y57717*
X5891Y57632*
X6100Y57522*
X6296Y57389*
X6476Y57234*
X6636Y57060*
X6776Y56869*
X6893Y56663*
X6985Y56445*
X7052Y56218*
X7093Y55984*
X7106Y55748*
X7091Y55499*
X7046Y55253*
X6972Y55015*
X6870Y54787*
X6740Y54574*
X6586Y54377*
X6410Y54201*
X6214Y54047*
X6000Y53918*
X5772Y53815*
X5534Y53741*
X5289Y53696*
X5039Y53681*
X4790Y53696*
X4545Y53741*
X4306Y53815*
X4079Y53918*
X3865Y54047*
X3669Y54201*
X3492Y54377*
X3338Y54574*
X3209Y54787*
X3107Y55015*
X3033Y55253*
X2988Y55499*
X2972Y55748*
X2986Y55984*
X3027Y56218*
X3093Y56445*
X3186Y56663*
X3303Y56869*
X3442Y57060*
X3603Y57234*
X3782Y57389*
X3978Y57522*
X4188Y57632*
X4409Y57717*
X4188Y57802*
X3978Y57911*
X3782Y58044*
X3603Y58199*
X3442Y58373*
X3303Y58564*
X3186Y58770*
X3093Y58988*
X3027Y59215*
X2986Y59449*
X2972Y59685*
Y70512D02*
X2988Y70761D01*
X3033Y71006*
X3107Y71245*
X3209Y71472*
X3338Y71686*
X3492Y71882*
X3669Y72059*
X3865Y72213*
X4079Y72342*
X4306Y72444*
X4545Y72519*
X4790Y72564*
X5039Y72579*
X5289Y72564*
X5534Y72519*
X5772Y72444*
X6000Y72342*
X6214Y72213*
X6410Y72059*
X6586Y71882*
X6740Y71686*
X6870Y71472*
X6972Y71245*
X7046Y71006*
X7091Y70761*
X7106Y70512*
X7091Y70263*
X7046Y70017*
X6972Y69779*
X6870Y69551*
X6740Y69338*
X6586Y69141*
X6410Y68965*
X6214Y68811*
X6000Y68682*
X5772Y68579*
X5534Y68505*
X5289Y68460*
X5039Y68445*
X4790Y68460*
X4545Y68505*
X4306Y68579*
X4079Y68682*
X3865Y68811*
X3669Y68965*
X3492Y69141*
X3338Y69338*
X3209Y69551*
X3107Y69779*
X3033Y70017*
X2988Y70263*
X2972Y70512*
Y79370D02*
X2988Y79619D01*
X3033Y79865*
X3107Y80103*
X3209Y80331*
X3338Y80544*
X3492Y80741*
X3669Y80917*
X3865Y81071*
X4079Y81200*
X4306Y81303*
X4545Y81377*
X4790Y81422*
X5039Y81437*
X5289Y81422*
X5534Y81377*
X5772Y81303*
X6000Y81200*
X6214Y81071*
X6410Y80917*
X6586Y80741*
X6740Y80544*
X6870Y80331*
X6972Y80103*
X7046Y79865*
X7091Y79619*
X7106Y79370*
X7093Y79134*
X7052Y78900*
X6985Y78673*
X6893Y78455*
X6776Y78249*
X6636Y78058*
X6476Y77884*
X6296Y77729*
X6101Y77596*
X5891Y77487*
X5670Y77402*
X5891Y77317*
X6100Y77207*
X6296Y77074*
X6476Y76919*
X6636Y76745*
X6776Y76554*
X6893Y76348*
X6985Y76130*
X7052Y75903*
X7093Y75670*
X7106Y75433*
X7091Y75184*
X7046Y74938*
X6972Y74700*
X6870Y74473*
X6740Y74259*
X6586Y74062*
X6410Y73886*
X6214Y73732*
X6000Y73603*
X5772Y73500*
X5534Y73426*
X5289Y73381*
X5039Y73366*
X4790Y73381*
X4545Y73426*
X4306Y73500*
X4079Y73603*
X3865Y73732*
X3669Y73886*
X3492Y74062*
X3338Y74259*
X3209Y74473*
X3107Y74700*
X3033Y74938*
X2988Y75184*
X2972Y75433*
X2986Y75669*
X3027Y75903*
X3093Y76130*
X3186Y76348*
X3303Y76554*
X3442Y76745*
X3603Y76919*
X3782Y77074*
X3978Y77207*
X4188Y77317*
X4409Y77402*
X4188Y77487*
X3978Y77596*
X3782Y77729*
X3603Y77884*
X3442Y78058*
X3303Y78249*
X3186Y78455*
X3093Y78673*
X3027Y78900*
X2986Y79134*
X2972Y79370*
Y83976D02*
X2988Y84225D01*
X3033Y84471*
X3107Y84709*
X3209Y84936*
X3338Y85150*
X3492Y85346*
X3669Y85523*
X3865Y85677*
X4079Y85806*
X4306Y85909*
X4545Y85983*
X4790Y86028*
X5039Y86043*
X5289Y86028*
X5534Y85983*
X5772Y85909*
X6000Y85806*
X6214Y85677*
X6410Y85523*
X6586Y85346*
X6740Y85150*
X6870Y84936*
X6972Y84709*
X7046Y84471*
X7091Y84225*
X7106Y83976*
X7091Y83727*
X7046Y83481*
X6972Y83243*
X6870Y83015*
X6740Y82802*
X6586Y82605*
X6410Y82429*
X6214Y82275*
X6000Y82146*
X5772Y82043*
X5534Y81969*
X5289Y81924*
X5039Y81909*
X4790Y81924*
X4545Y81969*
X4306Y82043*
X4079Y82146*
X3865Y82275*
X3669Y82429*
X3492Y82605*
X3338Y82802*
X3209Y83015*
X3107Y83243*
X3033Y83481*
X2988Y83727*
X2972Y83976*
X3169Y134488D02*
X3184Y134737D01*
X3229Y134983*
X3304Y135221*
X3406Y135449*
X3535Y135662*
X3689Y135859*
X3866Y136035*
X4062Y136189*
X4276Y136318*
X4503Y136421*
X4742Y136495*
X4987Y136540*
X5236Y136555*
X5485Y136540*
X5731Y136495*
X5969Y136421*
X6197Y136318*
X6410Y136189*
X6607Y136035*
X6783Y135859*
X6937Y135662*
X7066Y135449*
X7169Y135221*
X7243Y134983*
X7288Y134737*
X7303Y134488*
X7290Y134252*
X7249Y134018*
X7182Y133791*
X7090Y133573*
X6973Y133367*
X6833Y133176*
X6673Y133002*
X6493Y132847*
X6297Y132714*
X6088Y132605*
X5866Y132520*
X6098Y132430*
X6317Y132313*
X6520Y132171*
X6705Y132006*
X6868Y131819*
X7009Y131615*
X7123Y131395*
X7211Y131162*
X7270Y130921*
X7299Y130675*
Y130427*
X7270Y130181*
X7211Y129940*
X7123Y129708*
X7009Y129488*
X6868Y129283*
X6705Y129097*
X6520Y128931*
X6317Y128789*
X6098Y128672*
X5866Y128583*
X6087Y128498*
X6297Y128388*
X6493Y128255*
X6673Y128100*
X6833Y127926*
X6973Y127735*
X7090Y127529*
X7182Y127311*
X7249Y127084*
X7290Y126851*
X7303Y126614*
X7288Y126365*
X7243Y126120*
X7169Y125881*
X7066Y125654*
X6937Y125440*
X6783Y125244*
X6607Y125067*
X6410Y124913*
X6197Y124784*
X5969Y124682*
X5731Y124607*
X5485Y124562*
X5236Y124547*
X4987Y124562*
X4742Y124607*
X4503Y124682*
X4276Y124784*
X4062Y124913*
X3866Y125067*
X3689Y125244*
X3535Y125440*
X3406Y125654*
X3304Y125881*
X3229Y126120*
X3184Y126365*
X3169Y126614*
X3183Y126851*
X3223Y127084*
X3290Y127311*
X3383Y127529*
X3500Y127735*
X3639Y127926*
X3800Y128100*
X3979Y128255*
X4175Y128388*
X4385Y128498*
X4606Y128583*
X4375Y128672*
X4156Y128789*
X3952Y128931*
X3768Y129097*
X3604Y129283*
X3464Y129488*
X3349Y129708*
X3262Y129940*
X3203Y130181*
X3173Y130427*
Y130675*
X3203Y130922*
X3262Y131163*
X3349Y131395*
X3464Y131615*
X3604Y131819*
X3768Y132006*
X3953Y132171*
X4156Y132313*
X4375Y132430*
X4606Y132520*
X4385Y132605*
X4175Y132714*
X3979Y132847*
X3800Y133002*
X3639Y133176*
X3500Y133367*
X3383Y133573*
X3290Y133791*
X3223Y134018*
X3183Y134252*
X3169Y134488*
X18622Y144823D02*
X18958Y144807D01*
X19291Y144761*
X19619Y144684*
X19938Y144577*
X20245Y144441*
X20539Y144277*
X20817Y144087*
X21075Y143872*
X21313Y143635*
X21528Y143376*
X21718Y143098*
X21882Y142804*
X22018Y142497*
X22125Y142178*
X22202Y141850*
X22248Y141517*
X22264Y141181*
X22248Y140845*
X22202Y140512*
X22125Y140184*
X22018Y139866*
X21882Y139558*
X21718Y139264*
X21528Y138986*
X21313Y138728*
X21076Y138490*
X20817Y138275*
X20539Y138085*
X20245Y137921*
X19938Y137785*
X19619Y137678*
X19291Y137601*
X18958Y137555*
X18622Y137539*
X18286Y137555*
X17953Y137601*
X17625Y137678*
X17306Y137785*
X16999Y137921*
X16705Y138085*
X16427Y138275*
X16169Y138490*
X15931Y138728*
X15716Y138986*
X15526Y139264*
X15362Y139558*
X15226Y139866*
X15119Y140184*
X15042Y140512*
X14996Y140845*
X14980Y141181*
X14996Y141517*
X15042Y141850*
X15119Y142178*
X15226Y142497*
X15362Y142804*
X15526Y143098*
X15716Y143376*
X15931Y143635*
X16169Y143872*
X16427Y144087*
X16705Y144277*
X16999Y144441*
X17306Y144577*
X17625Y144684*
X17953Y144761*
X18286Y144807*
X18622Y144823*
X45075Y166835D02*
X45166Y166820D01*
X45248Y166778*
X45314Y166713*
X45356Y166631*
X45370Y166539*
Y159539*
X45356Y159448*
X45314Y159366*
X45248Y159300*
X45166Y159259*
X45075Y159244*
X36454*
X36335Y159130*
X36202Y159033*
X36056Y158956*
X35901Y158899*
X35739Y158865*
X35575Y158854*
X31075*
X30910Y158865*
X30749Y158899*
X30594Y158956*
X30448Y159033*
X30314Y159130*
X30195Y159244*
X26075*
X25984Y159259*
X25901Y159300*
X25836Y159366*
X25794Y159448*
X25780Y159539*
Y166539*
X25794Y166631*
X25836Y166713*
X25901Y166778*
X25984Y166820*
X26075Y166835*
X30195*
X30314Y166949*
X30448Y167046*
X30594Y167123*
X30749Y167179*
X30910Y167214*
X31075Y167225*
X35575*
X35739Y167214*
X35901Y167179*
X36056Y167123*
X36202Y167046*
X36336Y166949*
X36454Y166835*
X45075*
X37657Y81024D02*
X37673Y81273D01*
X37718Y81518*
X37792Y81757*
X37894Y81984*
X38023Y82198*
X38177Y82394*
X38354Y82571*
X38550Y82725*
X38764Y82854*
X38991Y82956*
X39230Y83030*
X39475Y83075*
X39724Y83091*
X39974Y83075*
X40219Y83030*
X40457Y82956*
X40685Y82854*
X40899Y82725*
X41095Y82571*
X41271Y82394*
X41425Y82198*
X41555Y81984*
X41657Y81757*
X41731Y81518*
X41776Y81273*
X41791Y81024*
X41776Y80774*
X41731Y80529*
X41657Y80291*
X41555Y80063*
X41425Y79849*
X41271Y79653*
X41095Y79477*
X40899Y79323*
X40685Y79193*
X40457Y79091*
X40219Y79017*
X39974Y78972*
X39724Y78957*
X39475Y78972*
X39230Y79017*
X38991Y79091*
X38764Y79193*
X38550Y79323*
X38354Y79477*
X38177Y79653*
X38023Y79849*
X37894Y80063*
X37792Y80291*
X37718Y80529*
X37673Y80774*
X37657Y81024*
X39075Y72795D02*
X39090Y73044D01*
X39135Y73290*
X39209Y73528*
X39312Y73756*
X39441Y73969*
X39595Y74166*
X39771Y74342*
X39968Y74496*
X40181Y74625*
X40409Y74728*
X40647Y74802*
X40893Y74847*
X41142Y74862*
X41391Y74847*
X41636Y74802*
X41875Y74728*
X42102Y74625*
X42316Y74496*
X42512Y74342*
X42689Y74166*
X42843Y73969*
X42972Y73756*
X43074Y73528*
X43149Y73290*
X43194Y73044*
X43209Y72795*
X43194Y72546*
X43149Y72301*
X43074Y72062*
X42972Y71835*
X42843Y71621*
X42689Y71425*
X42512Y71248*
X42316Y71094*
X42102Y70965*
X41875Y70863*
X41636Y70788*
X41391Y70743*
X41142Y70728*
X40893Y70743*
X40647Y70788*
X40409Y70863*
X40181Y70965*
X39968Y71094*
X39771Y71248*
X39595Y71425*
X39441Y71621*
X39312Y71835*
X39209Y72062*
X39135Y72301*
X39090Y72546*
X39075Y72795*
X43209Y59685D02*
X43224Y59934D01*
X43269Y60180*
X43343Y60418*
X43445Y60646*
X43575Y60859*
X43729Y61056*
X43905Y61232*
X44101Y61386*
X44315Y61515*
X44543Y61618*
X44781Y61692*
X45026Y61737*
X45276Y61752*
X45525Y61737*
X45770Y61692*
X46009Y61618*
X46236Y61515*
X46450Y61386*
X46646Y61232*
X46823Y61056*
X46977Y60859*
X47106Y60646*
X47208Y60418*
X47282Y60180*
X47327Y59934*
X47343Y59685*
X47327Y59436*
X47282Y59190*
X47208Y58952*
X47106Y58724*
X46977Y58511*
X46823Y58314*
X46646Y58138*
X46450Y57984*
X46236Y57855*
X46009Y57752*
X45770Y57678*
X45525Y57633*
X45276Y57618*
X45026Y57633*
X44781Y57678*
X44543Y57752*
X44315Y57855*
X44101Y57984*
X43905Y58138*
X43729Y58314*
X43575Y58511*
X43445Y58724*
X43343Y58952*
X43269Y59190*
X43224Y59436*
X43209Y59685*
X32656Y120757D02*
X32899Y120687D01*
X33133Y120587*
X33352Y120460*
X33554Y120306*
X33736Y120129*
X33894Y119931*
X34027Y119715*
X34133Y119485*
X34210Y119243*
X34256Y118993*
X34272Y118740*
X34257Y118491*
X34212Y118246*
X34137Y118007*
X34035Y117780*
X33906Y117566*
X33752Y117370*
X33575Y117193*
X33379Y117039*
X33165Y116910*
X32938Y116808*
X32699Y116733*
X32454Y116688*
X32205Y116673*
X31956Y116688*
X31710Y116733*
X31472Y116808*
X31244Y116910*
X31031Y117039*
X30834Y117193*
X30658Y117370*
X30504Y117566*
X30375Y117780*
X30272Y118007*
X30198Y118246*
X30153Y118491*
X30138Y118740*
X30152Y118986*
X30196Y119228*
X30268Y119463*
X30368Y119688*
X30494Y119900*
X30644Y120095*
X30816Y120271*
X31007Y120425*
X31216Y120555*
X31439Y120660*
X31204Y120727*
X30979Y120822*
X30766Y120942*
X30569Y121087*
X30391Y121254*
X30233Y121441*
X30099Y121645*
X29990Y121863*
X29907Y122093*
X29852Y122331*
X29825Y122574*
X29828Y122818*
X29859Y123061*
X29918Y123298*
X30005Y123526*
X30119Y123742*
X30257Y123944*
X30418Y124128*
X30599Y124291*
X30798Y124432*
X31013Y124549*
X31240Y124639*
X31007Y124727*
X30786Y124842*
X30581Y124983*
X30394Y125148*
X30228Y125333*
X30086Y125538*
X29969Y125758*
X29880Y125991*
X29819Y126232*
X29788Y126479*
X29787Y126728*
X29815Y126976*
X29874Y127218*
X29961Y127451*
X30075Y127672*
X30215Y127878*
X30379Y128066*
X30564Y128232*
X30768Y128375*
X30988Y128493*
X31220Y128583*
X30999Y128668*
X30789Y128777*
X30593Y128910*
X30414Y129065*
X30253Y129239*
X30114Y129430*
X29997Y129636*
X29904Y129854*
X29838Y130081*
X29797Y130315*
X29783Y130551*
X29799Y130800*
X29844Y131046*
X29918Y131284*
X30020Y131512*
X30149Y131725*
X30303Y131922*
X30480Y132098*
X30676Y132252*
X30890Y132381*
X31117Y132484*
X31356Y132558*
X31601Y132603*
X31850Y132618*
X32100Y132603*
X32345Y132558*
X32583Y132484*
X32811Y132381*
X33025Y132252*
X33221Y132098*
X33397Y131922*
X33551Y131725*
X33681Y131512*
X33783Y131284*
X33857Y131046*
X33902Y130800*
X33917Y130551*
X33904Y130315*
X33863Y130081*
X33796Y129854*
X33704Y129636*
X33587Y129430*
X33447Y129239*
X33287Y129065*
X33107Y128910*
X32912Y128777*
X32702Y128668*
X32481Y128583*
X32711Y128493*
X32929Y128377*
X33132Y128236*
X33316Y128071*
X33480Y127886*
X33620Y127683*
X33735Y127464*
X33822Y127233*
X33882Y126993*
X33913Y126748*
X33914Y126501*
X33886Y126255*
X33829Y126015*
X33743Y125783*
X33630Y125563*
X33492Y125358*
X33330Y125171*
X33148Y125005*
X32946Y124862*
X32729Y124744*
X32500Y124652*
X32738Y124562*
X32963Y124444*
X33172Y124299*
X33361Y124129*
X33528Y123937*
X33671Y123726*
X33786Y123500*
X33873Y123261*
X33929Y123013*
X33955Y122760*
X33950Y122505*
X33913Y122254*
X33846Y122009*
X33749Y121773*
X33624Y121552*
X33472Y121348*
X33297Y121163*
X33100Y121002*
X32886Y120866*
X32656Y120757*
X30138Y48937D02*
X30153Y49186D01*
X30198Y49432*
X30272Y49670*
X30375Y49898*
X30504Y50111*
X30658Y50308*
X30834Y50484*
X31031Y50638*
X31244Y50767*
X31472Y50870*
X31710Y50944*
X31956Y50989*
X32205Y51004*
X32454Y50989*
X32699Y50944*
X32938Y50870*
X33165Y50767*
X33379Y50638*
X33575Y50484*
X33752Y50308*
X33906Y50111*
X34035Y49898*
X34137Y49670*
X34212Y49432*
X34257Y49186*
X34272Y48937*
X34257Y48688*
X34212Y48442*
X34137Y48204*
X34035Y47976*
X33906Y47763*
X33752Y47566*
X33575Y47390*
X33379Y47236*
X33165Y47107*
X32938Y47004*
X32699Y46930*
X32454Y46885*
X32205Y46870*
X31956Y46885*
X31710Y46930*
X31472Y47004*
X31244Y47107*
X31031Y47236*
X30834Y47390*
X30658Y47566*
X30504Y47763*
X30375Y47976*
X30272Y48204*
X30198Y48442*
X30153Y48688*
X30138Y48937*
Y72795D02*
X30153Y73044D01*
X30198Y73290*
X30272Y73528*
X30375Y73756*
X30504Y73969*
X30658Y74166*
X30834Y74342*
X31031Y74496*
X31244Y74625*
X31472Y74728*
X31710Y74802*
X31956Y74847*
X32205Y74862*
X32454Y74847*
X32699Y74802*
X32938Y74728*
X33165Y74625*
X33379Y74496*
X33575Y74342*
X33752Y74166*
X33906Y73969*
X34035Y73756*
X34137Y73528*
X34212Y73290*
X34257Y73044*
X34272Y72795*
X34257Y72546*
X34212Y72301*
X34137Y72062*
X34035Y71835*
X33906Y71621*
X33752Y71425*
X33575Y71248*
X33379Y71094*
X33165Y70965*
X32938Y70863*
X32699Y70788*
X32454Y70743*
X32205Y70728*
X31956Y70743*
X31710Y70788*
X31472Y70863*
X31244Y70965*
X31031Y71094*
X30834Y71248*
X30658Y71425*
X30504Y71621*
X30375Y71835*
X30272Y72062*
X30198Y72301*
X30153Y72546*
X30138Y72795*
Y110866D02*
X30153Y111115D01*
X30198Y111361*
X30272Y111599*
X30375Y111827*
X30504Y112040*
X30658Y112237*
X30834Y112413*
X31031Y112567*
X31244Y112696*
X31472Y112799*
X31710Y112873*
X31956Y112918*
X32205Y112933*
X32454Y112918*
X32699Y112873*
X32938Y112799*
X33165Y112696*
X33379Y112567*
X33575Y112413*
X33752Y112237*
X33906Y112040*
X34035Y111827*
X34137Y111599*
X34212Y111361*
X34257Y111115*
X34272Y110866*
X34258Y110630*
X34218Y110396*
X34151Y110169*
X34058Y109951*
X33941Y109745*
X33802Y109554*
X33641Y109380*
X33462Y109225*
X33266Y109092*
X33056Y108983*
X32835Y108898*
X33056Y108813*
X33266Y108703*
X33462Y108570*
X33641Y108415*
X33802Y108241*
X33941Y108050*
X34058Y107844*
X34151Y107626*
X34218Y107399*
X34258Y107166*
X34272Y106929*
X34257Y106680*
X34212Y106434*
X34137Y106196*
X34035Y105969*
X33906Y105755*
X33752Y105559*
X33575Y105382*
X33379Y105228*
X33165Y105099*
X32938Y104997*
X32699Y104922*
X32454Y104877*
X32205Y104862*
X31956Y104877*
X31710Y104922*
X31472Y104997*
X31244Y105099*
X31031Y105228*
X30834Y105382*
X30658Y105559*
X30504Y105755*
X30375Y105969*
X30272Y106196*
X30198Y106434*
X30153Y106680*
X30138Y106929*
X30151Y107166*
X30192Y107399*
X30259Y107626*
X30351Y107844*
X30468Y108050*
X30608Y108241*
X30768Y108415*
X30948Y108570*
X31144Y108703*
X31353Y108813*
X31574Y108898*
X31353Y108983*
X31144Y109092*
X30948Y109225*
X30768Y109380*
X30608Y109554*
X30468Y109745*
X30351Y109951*
X30259Y110169*
X30192Y110396*
X30151Y110630*
X30138Y110866*
X45374Y75433D02*
X45389Y75682D01*
X45434Y75928*
X45508Y76166*
X45611Y76394*
X45740Y76607*
X45894Y76804*
X46070Y76980*
X46267Y77134*
X46480Y77263*
X46708Y77366*
X46946Y77440*
X47192Y77485*
X47441Y77500*
X47690Y77485*
X47936Y77440*
X48174Y77366*
X48401Y77263*
X48615Y77134*
X48812Y76980*
X48988Y76804*
X49142Y76607*
X49271Y76394*
X49374Y76166*
X49448Y75928*
X49493Y75682*
X49508Y75433*
X49493Y75184*
X49448Y74938*
X49374Y74700*
X49271Y74473*
X49142Y74259*
X48988Y74062*
X48812Y73886*
X48615Y73732*
X48401Y73603*
X48174Y73500*
X47936Y73426*
X47690Y73381*
X47441Y73366*
X47192Y73381*
X46946Y73426*
X46708Y73500*
X46480Y73603*
X46267Y73732*
X46070Y73886*
X45894Y74062*
X45740Y74259*
X45611Y74473*
X45508Y74700*
X45434Y74938*
X45389Y75184*
X45374Y75433*
X47067Y83976D02*
X47082Y84225D01*
X47127Y84471*
X47201Y84709*
X47304Y84936*
X47433Y85150*
X47587Y85346*
X47763Y85523*
X47960Y85677*
X48173Y85806*
X48401Y85909*
X48639Y85983*
X48885Y86028*
X49134Y86043*
X49383Y86028*
X49629Y85983*
X49867Y85909*
X50094Y85806*
X50308Y85677*
X50504Y85523*
X50681Y85346*
X50835Y85150*
X50964Y84936*
X51066Y84709*
X51141Y84471*
X51186Y84225*
X51201Y83976*
X51186Y83727*
X51141Y83481*
X51066Y83243*
X50964Y83015*
X50835Y82802*
X50681Y82605*
X50504Y82429*
X50308Y82275*
X50094Y82146*
X49867Y82043*
X49629Y81969*
X49383Y81924*
X49134Y81909*
X48885Y81924*
X48639Y81969*
X48401Y82043*
X48173Y82146*
X47960Y82275*
X47763Y82429*
X47587Y82605*
X47433Y82802*
X47304Y83015*
X47201Y83243*
X47127Y83481*
X47082Y83727*
X47067Y83976*
X51831Y57441D02*
X51846Y57690D01*
X51891Y57936*
X51965Y58174*
X52068Y58401*
X52197Y58615*
X52351Y58812*
X52527Y58988*
X52724Y59142*
X52937Y59271*
X53165Y59374*
X53403Y59448*
X53649Y59493*
X53898Y59508*
X54147Y59493*
X54392Y59448*
X54631Y59374*
X54858Y59271*
X55072Y59142*
X55268Y58988*
X55445Y58812*
X55599Y58615*
X55728Y58401*
X55830Y58174*
X55905Y57936*
X55950Y57690*
X55965Y57441*
X55950Y57192*
X55905Y56946*
X55830Y56708*
X55728Y56480*
X55599Y56267*
X55445Y56070*
X55268Y55894*
X55072Y55740*
X54858Y55611*
X54631Y55508*
X54392Y55434*
X54147Y55389*
X53898Y55374*
X53649Y55389*
X53403Y55434*
X53165Y55508*
X52937Y55611*
X52724Y55740*
X52527Y55894*
X52351Y56070*
X52197Y56267*
X52068Y56480*
X51965Y56708*
X51891Y56946*
X51846Y57192*
X51831Y57441*
X56476Y73740D02*
X56491Y73989D01*
X56536Y74235*
X56611Y74473*
X56713Y74700*
X56842Y74914*
X56996Y75111*
X57173Y75287*
X57369Y75441*
X57583Y75570*
X57810Y75673*
X58049Y75747*
X58294Y75792*
X58543Y75807*
X58792Y75792*
X59038Y75747*
X59276Y75673*
X59504Y75570*
X59717Y75441*
X59914Y75287*
X60090Y75111*
X60244Y74914*
X60373Y74700*
X60476Y74473*
X60550Y74235*
X60595Y73989*
X60610Y73740*
X60595Y73491*
X60550Y73245*
X60476Y73007*
X60373Y72779*
X60244Y72566*
X60090Y72369*
X59914Y72193*
X59717Y72039*
X59504Y71910*
X59276Y71807*
X59038Y71733*
X58792Y71688*
X58543Y71673*
X58294Y71688*
X58049Y71733*
X57810Y71807*
X57583Y71910*
X57369Y72039*
X57173Y72193*
X56996Y72369*
X56842Y72566*
X56713Y72779*
X56611Y73007*
X56536Y73245*
X56491Y73491*
X56476Y73740*
X60728Y42283D02*
X60743Y42533D01*
X60788Y42778*
X60863Y43016*
X60965Y43244*
X61094Y43458*
X61248Y43654*
X61425Y43831*
X61621Y43984*
X61835Y44114*
X62062Y44216*
X62301Y44290*
X62546Y44335*
X62795Y44350*
X63044Y44335*
X63290Y44290*
X63528Y44216*
X63756Y44114*
X63969Y43984*
X64166Y43831*
X64342Y43654*
X64496Y43458*
X64625Y43244*
X64728Y43016*
X64802Y42778*
X64847Y42533*
X64862Y42283*
X64847Y42034*
X64802Y41789*
X64728Y41551*
X64625Y41323*
X64496Y41109*
X64342Y40913*
X64166Y40736*
X63969Y40582*
X63756Y40453*
X63528Y40351*
X63290Y40277*
X63044Y40232*
X62795Y40217*
X62546Y40232*
X62301Y40277*
X62062Y40351*
X61835Y40453*
X61621Y40582*
X61425Y40736*
X61248Y40913*
X61094Y41109*
X60965Y41323*
X60863Y41551*
X60788Y41789*
X60743Y42034*
X60728Y42283*
X61555Y114803D02*
X61570Y115052D01*
X61615Y115298*
X61689Y115536*
X61792Y115764*
X61921Y115977*
X62075Y116174*
X62251Y116350*
X62448Y116504*
X62661Y116633*
X62889Y116736*
X63127Y116810*
X63373Y116855*
X63622Y116870*
X63871Y116855*
X64117Y116810*
X64355Y116736*
X64583Y116633*
X64796Y116504*
X64993Y116350*
X65169Y116174*
X65323Y115977*
X65452Y115764*
X65555Y115536*
X65629Y115298*
X65674Y115052*
X65689Y114803*
X65674Y114554*
X65629Y114309*
X65555Y114070*
X65452Y113843*
X65323Y113629*
X65169Y113433*
X64993Y113256*
X64796Y113102*
X64583Y112973*
X64355Y112871*
X64117Y112796*
X63871Y112751*
X63622Y112736*
X63373Y112751*
X63127Y112796*
X62889Y112871*
X62661Y112973*
X62448Y113102*
X62251Y113256*
X62075Y113433*
X61921Y113629*
X61792Y113843*
X61689Y114070*
X61615Y114309*
X61570Y114554*
X61555Y114803*
X76594Y57441D02*
X76610Y57690D01*
X76655Y57936*
X76729Y58174*
X76831Y58401*
X76960Y58615*
X77114Y58812*
X77291Y58988*
X77487Y59142*
X77701Y59271*
X77928Y59374*
X78167Y59448*
X78412Y59493*
X78661Y59508*
X78911Y59493*
X79156Y59448*
X79394Y59374*
X79622Y59271*
X79836Y59142*
X80032Y58988*
X80209Y58812*
X80362Y58615*
X80492Y58401*
X80594Y58174*
X80668Y57936*
X80713Y57690*
X80728Y57441*
X80713Y57192*
X80668Y56946*
X80594Y56708*
X80492Y56480*
X80362Y56267*
X80209Y56070*
X80032Y55894*
X79836Y55740*
X79622Y55611*
X79394Y55508*
X79156Y55434*
X78911Y55389*
X78661Y55374*
X78412Y55389*
X78167Y55434*
X77928Y55508*
X77701Y55611*
X77487Y55740*
X77291Y55894*
X77114Y56070*
X76960Y56267*
X76831Y56480*
X76729Y56708*
X76655Y56946*
X76610Y57192*
X76594Y57441*
X96043Y40669D02*
X96058Y40918D01*
X96103Y41164*
X96178Y41402*
X96280Y41630*
X96409Y41843*
X96563Y42040*
X96740Y42216*
X96936Y42370*
X97150Y42499*
X97377Y42602*
X97616Y42676*
X97861Y42721*
X98110Y42736*
X98359Y42721*
X98605Y42676*
X98843Y42602*
X99071Y42499*
X99284Y42370*
X99481Y42216*
X99657Y42040*
X99811Y41843*
X99940Y41630*
X100043Y41402*
X100117Y41164*
X100162Y40918*
X100177Y40669*
X100163Y40424*
X100119Y40182*
X100047Y39948*
X99948Y39723*
X99823Y39512*
X99673Y39317*
X99502Y39141*
X99310Y38986*
X99102Y38856*
X98880Y38751*
X98647Y38673*
X98407Y38624*
X98162Y38603*
X97916Y38611*
X97674Y38649*
X97437Y38715*
X97210Y38809*
X96996Y38929*
X96797Y39073*
X96617Y39240*
X96634Y38992*
X96621Y38744*
X96578Y38499*
X96506Y38261*
X96406Y38033*
X96279Y37819*
X96128Y37622*
X95954Y37444*
X95760Y37288*
X95548Y37157*
X95323Y37053*
X95086Y36976*
X94842Y36928*
X94594Y36910*
X94346Y36921*
X94101Y36963*
X93862Y37033*
X93634Y37132*
X93419Y37257*
X93221Y37408*
X93042Y37581*
X92886Y37774*
X92753Y37985*
X92647Y38210*
X92420Y38096*
X92180Y38012*
X91931Y37958*
X91678Y37934*
X91423Y37942*
X91172Y37981*
X90927Y38051*
X90693Y38150*
X90472Y38277*
X90269Y38430*
X90087Y38608*
X89927Y38806*
X89793Y39022*
X89687Y39253*
X89610Y39496*
X89563Y39746*
X89547Y40000*
X89562Y40248*
X89607Y40492*
X89680Y40729*
X89781Y40955*
X89909Y41168*
X90061Y41364*
X90235Y41540*
X90430Y41694*
X90641Y41824*
X90867Y41927*
X91103Y42003*
X91346Y42049*
X91594Y42067*
X91842Y42054*
X92086Y42012*
X92324Y41941*
X92551Y41842*
X92765Y41717*
X92962Y41567*
X93140Y41394*
X93296Y41201*
X93428Y40991*
X93534Y40767*
X93757Y40878*
X93993Y40962*
X94237Y41017*
X94485Y41042*
X94735Y41036*
X94982Y41001*
X95224Y40936*
X95456Y40843*
X95674Y40722*
X95877Y40575*
X96060Y40405*
X96048Y40537*
X96043Y40669*
X99429Y88976D02*
X99444Y89226D01*
X99489Y89471*
X99563Y89709*
X99666Y89937*
X99795Y90151*
X99949Y90347*
X100125Y90523*
X100322Y90677*
X100536Y90807*
X100763Y90909*
X101001Y90983*
X101247Y91028*
X101496Y91043*
X101745Y91028*
X101991Y90983*
X102229Y90909*
X102457Y90807*
X102670Y90677*
X102867Y90523*
X103043Y90347*
X103197Y90151*
X103326Y89937*
X103429Y89709*
X103503Y89471*
X103548Y89226*
X103563Y88976*
X103548Y88727*
X103503Y88482*
X103429Y88243*
X103326Y88016*
X103197Y87802*
X103043Y87606*
X102867Y87429*
X102670Y87275*
X102457Y87146*
X102229Y87044*
X101991Y86970*
X101745Y86925*
X101496Y86909*
X101247Y86925*
X101001Y86970*
X100763Y87044*
X100536Y87146*
X100322Y87275*
X100125Y87429*
X99949Y87606*
X99795Y87802*
X99666Y88016*
X99563Y88243*
X99489Y88482*
X99444Y88727*
X99429Y88976*
X101713Y96693D02*
X101728Y96942D01*
X101773Y97188*
X101847Y97426*
X101949Y97653*
X102079Y97867*
X102232Y98064*
X102409Y98240*
X102605Y98394*
X102819Y98523*
X103047Y98626*
X103285Y98700*
X103530Y98745*
X103780Y98760*
X104029Y98745*
X104274Y98700*
X104512Y98626*
X104740Y98523*
X104954Y98394*
X105150Y98240*
X105327Y98064*
X105481Y97867*
X105610Y97653*
X105712Y97426*
X105786Y97188*
X105831Y96942*
X105846Y96693*
X105831Y96444*
X105786Y96198*
X105712Y95960*
X105610Y95732*
X105481Y95519*
X105327Y95322*
X105150Y95146*
X104954Y94992*
X104740Y94863*
X104512Y94760*
X104274Y94686*
X104029Y94641*
X103780Y94626*
X103530Y94641*
X103285Y94686*
X103047Y94760*
X102819Y94863*
X102605Y94992*
X102409Y95146*
X102232Y95322*
X102079Y95519*
X101949Y95732*
X101847Y95960*
X101773Y96198*
X101728Y96444*
X101713Y96693*
X114114Y84055D02*
X114129Y84304D01*
X114174Y84550*
X114249Y84788*
X114351Y85016*
X114480Y85229*
X114634Y85426*
X114811Y85602*
X115007Y85756*
X115221Y85885*
X115448Y85988*
X115686Y86062*
X115932Y86107*
X116181Y86122*
X116430Y86107*
X116676Y86062*
X116914Y85988*
X117142Y85885*
X117355Y85756*
X117552Y85602*
X117728Y85426*
X117882Y85229*
X118011Y85016*
X118114Y84788*
X118188Y84550*
X118233Y84304*
X118248Y84055*
X118233Y83806*
X118188Y83560*
X118114Y83322*
X118011Y83095*
X117882Y82881*
X117728Y82685*
X117552Y82508*
X117355Y82354*
X117142Y82225*
X116914Y82123*
X116676Y82048*
X116430Y82003*
X116181Y81988*
X115932Y82003*
X115686Y82048*
X115448Y82123*
X115221Y82225*
X115007Y82354*
X114811Y82508*
X114634Y82685*
X114480Y82881*
X114351Y83095*
X114249Y83322*
X114174Y83560*
X114129Y83806*
X114114Y84055*
X125492Y71220D02*
X125507Y71470D01*
X125552Y71715*
X125626Y71953*
X125729Y72181*
X125858Y72395*
X126012Y72591*
X126188Y72768*
X126385Y72921*
X126599Y73051*
X126826Y73153*
X127064Y73227*
X127310Y73272*
X127559Y73287*
X127808Y73272*
X128054Y73227*
X128292Y73153*
X128520Y73051*
X128733Y72921*
X128930Y72768*
X129106Y72591*
X129260Y72395*
X129389Y72181*
X129492Y71953*
X129566Y71715*
X129611Y71470*
X129626Y71220*
X129611Y70971*
X129566Y70726*
X129492Y70488*
X129389Y70260*
X129260Y70046*
X129106Y69850*
X128930Y69673*
X128733Y69519*
X128520Y69390*
X128292Y69288*
X128054Y69214*
X127808Y69169*
X127559Y69154*
X127310Y69169*
X127064Y69214*
X126826Y69288*
X126599Y69390*
X126385Y69519*
X126188Y69673*
X126012Y69850*
X125858Y70046*
X125729Y70260*
X125626Y70488*
X125552Y70726*
X125507Y70971*
X125492Y71220*
X129350Y56102D02*
X129365Y56351D01*
X129410Y56597*
X129485Y56835*
X129587Y57063*
X129716Y57276*
X129870Y57473*
X130047Y57649*
X130243Y57803*
X130457Y57933*
X130684Y58035*
X130923Y58109*
X131168Y58154*
X131417Y58169*
X131666Y58154*
X131912Y58109*
X132150Y58035*
X132378Y57933*
X132591Y57803*
X132788Y57649*
X132964Y57473*
X133118Y57276*
X133247Y57063*
X133350Y56835*
X133424Y56597*
X133469Y56351*
X133484Y56102*
X133469Y55853*
X133424Y55608*
X133350Y55369*
X133247Y55142*
X133118Y54928*
X132964Y54732*
X132788Y54555*
X132591Y54401*
X132378Y54272*
X132150Y54170*
X131912Y54096*
X131666Y54051*
X131417Y54035*
X131168Y54051*
X130923Y54096*
X130684Y54170*
X130457Y54272*
X130243Y54401*
X130047Y54555*
X129870Y54732*
X129716Y54928*
X129587Y55142*
X129485Y55369*
X129410Y55608*
X129365Y55853*
X129350Y56102*
X168130Y16378D02*
X168145Y16627D01*
X168190Y16873*
X168264Y17111*
X168367Y17339*
X168496Y17552*
X168650Y17749*
X168826Y17925*
X169023Y18079*
X169236Y18208*
X169464Y18311*
X169702Y18385*
X169948Y18430*
X170197Y18445*
X170446Y18430*
X170691Y18385*
X170930Y18311*
X171157Y18208*
X171371Y18079*
X171567Y17925*
X171744Y17749*
X171898Y17552*
X172027Y17339*
X172129Y17111*
X172204Y16873*
X172249Y16627*
X172264Y16378*
X172249Y16129*
X172204Y15883*
X172129Y15645*
X172027Y15417*
X171898Y15204*
X171744Y15007*
X171567Y14831*
X171371Y14677*
X171157Y14548*
X170930Y14445*
X170691Y14371*
X170446Y14326*
X170197Y14311*
X169948Y14326*
X169702Y14371*
X169464Y14445*
X169236Y14548*
X169023Y14677*
X168826Y14831*
X168650Y15007*
X168496Y15204*
X168367Y15417*
X168264Y15645*
X168190Y15883*
X168145Y16129*
X168130Y16378*
X171161Y71220D02*
X171176Y71470D01*
X171221Y71715*
X171296Y71953*
X171398Y72181*
X171527Y72395*
X171681Y72591*
X171858Y72768*
X172054Y72921*
X172268Y73051*
X172495Y73153*
X172734Y73227*
X172979Y73272*
X173228Y73287*
X173477Y73272*
X173723Y73227*
X173961Y73153*
X174189Y73051*
X174402Y72921*
X174599Y72768*
X174775Y72591*
X174929Y72395*
X175059Y72181*
X175161Y71953*
X175235Y71715*
X175280Y71470*
X175295Y71220*
X175280Y70971*
X175235Y70726*
X175161Y70488*
X175059Y70260*
X174929Y70046*
X174775Y69850*
X174599Y69673*
X174402Y69519*
X174189Y69390*
X173961Y69288*
X173723Y69214*
X173477Y69169*
X173228Y69154*
X172979Y69169*
X172734Y69214*
X172495Y69288*
X172268Y69390*
X172054Y69519*
X171858Y69673*
X171681Y69850*
X171527Y70046*
X171398Y70260*
X171296Y70488*
X171221Y70726*
X171176Y70971*
X171161Y71220*
X179807Y161024D02*
X179822Y161657D01*
X179868Y162289*
X179945Y162917*
X180051Y163542*
X180188Y164160*
X180354Y164771*
X180550Y165374*
X180775Y165966*
X181028Y166547*
X181308Y167114*
X181616Y167668*
X181950Y168206*
X182310Y168727*
X182695Y169231*
X183103Y169715*
X183535Y170179*
X183988Y170621*
X184462Y171041*
X184956Y171438*
X185468Y171810*
X185998Y172157*
X186544Y172478*
X187105Y172772*
X187679Y173039*
X188266Y173278*
X188863Y173488*
X189470Y173670*
X190085Y173821*
X190707Y173943*
X191334Y174034*
X191964Y174095*
X192597Y174126*
X193230*
X193863Y174095*
X194493Y174034*
X195120Y173943*
X195741Y173821*
X196356Y173670*
X196963Y173488*
X197561Y173278*
X198147Y173039*
X198722Y172772*
X199283Y172478*
X199829Y172157*
X200358Y171810*
X200871Y171438*
X201365Y171041*
X201839Y170621*
X202292Y170179*
X202723Y169715*
X203132Y169231*
X203516Y168727*
X203876Y168206*
X204210Y167668*
X204518Y167115*
X204799Y166547*
X205052Y165966*
X205277Y165374*
X205472Y164771*
X205639Y164160*
X205775Y163542*
X205882Y162918*
X205958Y162289*
X206004Y161657*
X206020Y161024*
X206004Y160390*
X205959Y159759*
X205882Y159130*
X205776Y158506*
X205639Y157887*
X205472Y157276*
X205277Y156674*
X205052Y156081*
X204799Y155501*
X204518Y154933*
X204211Y154379*
X203876Y153841*
X203517Y153320*
X203132Y152817*
X202724Y152333*
X202292Y151869*
X201839Y151426*
X201365Y151006*
X200871Y150610*
X200359Y150237*
X199829Y149890*
X199283Y149569*
X198722Y149275*
X198148Y149008*
X197561Y148769*
X196963Y148559*
X196357Y148378*
X195742Y148226*
X195120Y148104*
X194493Y148013*
X193863Y147952*
X193230Y147921*
X192597*
X191964Y147952*
X191334Y148013*
X190707Y148104*
X190085Y148226*
X189470Y148378*
X188863Y148559*
X188266Y148769*
X187679Y149008*
X187105Y149275*
X186544Y149569*
X185998Y149890*
X185468Y150237*
X184956Y150610*
X184462Y151006*
X183988Y151426*
X183535Y151869*
X183103Y152332*
X182695Y152817*
X182310Y153320*
X181951Y153841*
X181616Y154379*
X181308Y154933*
X181028Y155500*
X180775Y156081*
X180550Y156673*
X180354Y157276*
X180188Y157887*
X180051Y158505*
X179945Y159130*
X179868Y159758*
X179822Y160390*
X179807Y161024*
X335630Y74483D02*
X335876Y74530D01*
X336126Y74547*
X336377Y74534*
X336624Y74490*
X336864Y74417*
X337093Y74315*
X337308Y74187*
X337506Y74033*
X337684Y73856*
X337840Y73659*
X337970Y73445*
X338073Y73216*
X338148Y72977*
X338194Y72730*
X338209Y72480*
X338193Y72230*
X338148Y71983*
X338073Y71744*
X337970Y71516*
X337839Y71301*
X337684Y71104*
X337506Y70928*
X337308Y70774*
X337093Y70645*
X336864Y70544*
X336624Y70470*
X336377Y70427*
X336126Y70413*
X335876Y70431*
X335630Y70478*
Y29528*
X335615Y29343*
X335572Y29163*
X335501Y28991*
X335404Y28833*
X335284Y28692*
X335143Y28572*
X334985Y28475*
X334814Y28404*
X334634Y28361*
X334449Y28346*
X322567*
X322809Y28298*
X323044Y28221*
X323267Y28117*
X323477Y27987*
X323669Y27833*
X323842Y27657*
X323993Y27461*
X324119Y27249*
X324219Y27024*
X324292Y26788*
X324336Y26545*
X324350Y26299*
X324335Y26050*
X324290Y25804*
X324216Y25566*
X324114Y25339*
X323984Y25125*
X323831Y24929*
X323654Y24752*
X323458Y24598*
X323244Y24469*
X323016Y24366*
X322778Y24292*
X322533Y24247*
X322283Y24232*
X322034Y24247*
X321789Y24292*
X321551Y24366*
X321323Y24469*
X321109Y24598*
X320913Y24752*
X320736Y24929*
X320582Y25125*
X320453Y25339*
X320351Y25566*
X320277Y25804*
X320232Y26050*
X320217Y26299*
X320231Y26545*
X320275Y26788*
X320348Y27024*
X320448Y27249*
X320574Y27461*
X320725Y27657*
X320898Y27833*
X321090Y27987*
X321300Y28117*
X321523Y28221*
X321758Y28298*
X322000Y28346*
X205118*
X204933Y28361*
X204753Y28404*
X204582Y28475*
X204424Y28572*
X204283Y28692*
X204163Y28833*
X204066Y28991*
X203995Y29163*
X203952Y29343*
X203937Y29528*
Y88899*
X203952Y89090*
X203997Y89276*
X204072Y89452*
X204174Y89614*
X204301Y89757*
X204450Y89878*
X204395Y90086*
X204362Y90298*
X204350Y90512*
X204362Y90726*
X204395Y90938*
X204450Y91145*
X204301Y91266*
X204174Y91409*
X204072Y91571*
X203997Y91747*
X203952Y91933*
X203937Y92124*
Y123622*
X203952Y123807*
X203995Y123987*
X204066Y124158*
X204163Y124316*
X204283Y124457*
X204424Y124578*
X204582Y124674*
X204753Y124745*
X204933Y124789*
X205118Y124803*
X334449*
X334634Y124789*
X334814Y124745*
X334985Y124674*
X335143Y124578*
X335284Y124457*
X335404Y124316*
X335501Y124158*
X335572Y123987*
X335615Y123807*
X335630Y123622*
Y74483*
X334350Y9606D02*
X334365Y9855D01*
X334410Y10101*
X334485Y10339*
X334587Y10567*
X334716Y10780*
X334870Y10977*
X335047Y11153*
X335243Y11307*
X335457Y11436*
X335684Y11539*
X335923Y11613*
X336168Y11658*
X336417Y11673*
X336666Y11658*
X336912Y11613*
X337150Y11539*
X337378Y11436*
X337591Y11307*
X337788Y11153*
X337964Y10977*
X338118Y10780*
X338247Y10567*
X338350Y10339*
X338424Y10101*
X338469Y9855*
X338484Y9606*
X338469Y9357*
X338424Y9112*
X338350Y8873*
X338247Y8646*
X338118Y8432*
X337964Y8236*
X337788Y8059*
X337591Y7905*
X337378Y7776*
X337150Y7674*
X336912Y7599*
X336666Y7554*
X336417Y7539*
X336168Y7554*
X335923Y7599*
X335684Y7674*
X335457Y7776*
X335243Y7905*
X335047Y8059*
X334870Y8236*
X334716Y8432*
X334587Y8646*
X334485Y8873*
X334410Y9112*
X334365Y9357*
X334350Y9606*
X282539Y24252D02*
X282554Y24501D01*
X282599Y24747*
X282674Y24985*
X282776Y25213*
X282905Y25426*
X283059Y25623*
X283236Y25799*
X283432Y25953*
X283646Y26082*
X283873Y26185*
X284112Y26259*
X284357Y26304*
X284606Y26319*
X284855Y26304*
X285101Y26259*
X285339Y26185*
X285567Y26082*
X285780Y25953*
X285977Y25799*
X286153Y25623*
X286307Y25426*
X286436Y25213*
X286539Y24985*
X286613Y24747*
X286658Y24501*
X286673Y24252*
X286658Y24003*
X286613Y23757*
X286539Y23519*
X286436Y23291*
X286307Y23078*
X286153Y22881*
X285977Y22705*
X285780Y22551*
X285567Y22422*
X285339Y22319*
X285101Y22245*
X284855Y22200*
X284606Y22185*
X284357Y22200*
X284112Y22245*
X283873Y22319*
X283646Y22422*
X283432Y22551*
X283236Y22705*
X283059Y22881*
X282905Y23078*
X282776Y23291*
X282674Y23519*
X282599Y23757*
X282554Y24003*
X282539Y24252*
X287736Y20315D02*
X287751Y20564D01*
X287796Y20810*
X287871Y21048*
X287973Y21276*
X288102Y21489*
X288256Y21686*
X288433Y21862*
X288629Y22016*
X288843Y22145*
X289070Y22248*
X289309Y22322*
X289554Y22367*
X289803Y22382*
X290052Y22367*
X290298Y22322*
X290536Y22248*
X290764Y22145*
X290977Y22016*
X291174Y21862*
X291350Y21686*
X291504Y21489*
X291633Y21276*
X291736Y21048*
X291810Y20810*
X291855Y20564*
X291870Y20315*
X291855Y20066*
X291810Y19820*
X291736Y19582*
X291633Y19354*
X291504Y19141*
X291350Y18944*
X291174Y18768*
X290977Y18614*
X290764Y18485*
X290536Y18382*
X290298Y18308*
X290052Y18263*
X289803Y18248*
X289554Y18263*
X289309Y18308*
X289070Y18382*
X288843Y18485*
X288629Y18614*
X288433Y18768*
X288256Y18944*
X288102Y19141*
X287973Y19354*
X287871Y19582*
X287796Y19820*
X287751Y20066*
X287736Y20315*
X207461Y137402D02*
X207476Y137651D01*
X207521Y137896*
X207595Y138135*
X207697Y138362*
X207827Y138576*
X207980Y138772*
X208157Y138949*
X208353Y139103*
X208567Y139232*
X208795Y139334*
X209033Y139408*
X209278Y139453*
X209528Y139469*
X209777Y139453*
X210022Y139408*
X210261Y139334*
X210488Y139232*
X210702Y139103*
X210898Y138949*
X211075Y138772*
X211229Y138576*
X211358Y138362*
X211460Y138135*
X211534Y137896*
X211579Y137651*
X211594Y137402*
X211579Y137152*
X211534Y136907*
X211460Y136669*
X211358Y136441*
X211229Y136227*
X211075Y136031*
X210898Y135854*
X210702Y135701*
X210488Y135571*
X210261Y135469*
X210022Y135395*
X209777Y135350*
X209528Y135335*
X209278Y135350*
X209033Y135395*
X208795Y135469*
X208567Y135571*
X208353Y135701*
X208157Y135854*
X207980Y136031*
X207827Y136227*
X207697Y136441*
X207595Y136669*
X207521Y136907*
X207476Y137152*
X207461Y137402*
X287805Y163680D02*
X288022Y164018D01*
X288264Y164338*
X288530Y164638*
X288818Y164918*
X289127Y165174*
X289455Y165406*
X289799Y165613*
X290158Y165792*
X290530Y165943*
X290913Y166065*
X291303Y166158*
X291700Y166220*
X292100Y166252*
X292501Y166253*
X292902Y166223*
X293299Y166162*
X293690Y166072*
X294073Y165951*
X294445Y165802*
X294805Y165624*
X295151Y165420*
X295479Y165189*
X295789Y164934*
X296079Y164656*
X296346Y164357*
X296590Y164038*
X296808Y163701*
X297000Y163348*
X297165Y162982*
X297301Y162605*
X297407Y162217*
X297484Y161823*
X297530Y161425*
X297545Y161024*
X297530Y160622*
X297484Y160224*
X297407Y159830*
X297301Y159443*
X297165Y159065*
X297000Y158699*
X296808Y158346*
X296590Y158009*
X296346Y157690*
X296079Y157391*
X295789Y157113*
X295479Y156858*
X295151Y156628*
X294805Y156423*
X294445Y156245*
X294073Y156096*
X293690Y155976*
X293299Y155885*
X292902Y155825*
X292501Y155795*
X292100Y155796*
X291700Y155827*
X291303Y155890*
X290913Y155982*
X290530Y156104*
X290158Y156256*
X289799Y156435*
X289455Y156641*
X289127Y156873*
X288818Y157129*
X288530Y157409*
X288264Y157709*
X288022Y158030*
X287805Y158367*
X287588Y158029*
X287345Y157708*
X287078Y157407*
X286789Y157127*
X286479Y156870*
X286151Y156638*
X285805Y156432*
X285445Y156253*
X285072Y156102*
X284689Y155980*
X284297Y155888*
X283900Y155826*
X283498Y155795*
X283096*
X282695Y155826*
X282297Y155888*
X281906Y155980*
X281522Y156102*
X281149Y156253*
X280789Y156432*
X280444Y156638*
X280115Y156870*
X279805Y157127*
X279516Y157407*
X279250Y157708*
X279007Y158029*
X278789Y158367*
X278572Y158029*
X278329Y157708*
X278062Y157407*
X277773Y157127*
X277464Y156870*
X277135Y156638*
X276790Y156432*
X276429Y156253*
X276056Y156102*
X275673Y155980*
X275281Y155888*
X274884Y155826*
X274483Y155795*
X274080*
X273679Y155826*
X273282Y155888*
X272890Y155980*
X272507Y156102*
X272134Y156253*
X271773Y156432*
X271428Y156638*
X271099Y156870*
X270790Y157127*
X270501Y157407*
X270234Y157708*
X269991Y158029*
X269774Y158367*
X269556Y158029*
X269313Y157708*
X269047Y157407*
X268758Y157127*
X268448Y156870*
X268119Y156638*
X267774Y156432*
X267414Y156253*
X267041Y156102*
X266657Y155980*
X266266Y155888*
X265868Y155826*
X265467Y155795*
X265065*
X264663Y155826*
X264266Y155888*
X263874Y155980*
X263491Y156102*
X263118Y156253*
X262758Y156432*
X262412Y156638*
X262084Y156870*
X261774Y157127*
X261485Y157407*
X261218Y157708*
X260975Y158029*
X260758Y158367*
X260540Y158029*
X260298Y157708*
X260031Y157407*
X259742Y157127*
X259432Y156870*
X259104Y156638*
X258758Y156432*
X258398Y156253*
X258025Y156102*
X257642Y155980*
X257250Y155888*
X256852Y155826*
X256451Y155795*
X256049*
X255648Y155826*
X255250Y155888*
X254859Y155980*
X254475Y156102*
X254102Y156253*
X253742Y156432*
X253396Y156638*
X253068Y156870*
X252758Y157127*
X252469Y157407*
X252202Y157708*
X251960Y158029*
X251742Y158367*
X251525Y158029*
X251282Y157708*
X251015Y157407*
X250726Y157127*
X250416Y156870*
X250088Y156638*
X249742Y156432*
X249382Y156253*
X249009Y156102*
X248626Y155980*
X248234Y155888*
X247837Y155826*
X247435Y155795*
X247033*
X246632Y155826*
X246234Y155888*
X245843Y155980*
X245459Y156102*
X245086Y156253*
X244726Y156432*
X244381Y156638*
X244052Y156870*
X243742Y157127*
X243453Y157407*
X243187Y157708*
X242944Y158029*
X242726Y158367*
X242509Y158029*
X242266Y157708*
X241999Y157407*
X241710Y157127*
X241401Y156870*
X241072Y156638*
X240727Y156432*
X240366Y156253*
X239993Y156102*
X239610Y155980*
X239218Y155888*
X238821Y155826*
X238420Y155795*
X238017*
X237616Y155826*
X237219Y155888*
X236827Y155980*
X236444Y156102*
X236071Y156253*
X235710Y156432*
X235365Y156638*
X235036Y156870*
X234727Y157127*
X234438Y157407*
X234171Y157708*
X233928Y158029*
X233711Y158367*
X233493Y158029*
X233250Y157708*
X232984Y157407*
X232695Y157127*
X232385Y156870*
X232056Y156638*
X231711Y156432*
X231351Y156253*
X230978Y156102*
X230594Y155980*
X230203Y155888*
X229805Y155826*
X229404Y155795*
X229002*
X228600Y155826*
X228203Y155888*
X227811Y155980*
X227428Y156102*
X227055Y156253*
X226695Y156432*
X226349Y156638*
X226021Y156870*
X225711Y157127*
X225422Y157407*
X225155Y157708*
X224912Y158029*
X224695Y158367*
X224478Y158030*
X224236Y157709*
X223970Y157409*
X223682Y157129*
X223373Y156873*
X223045Y156641*
X222701Y156435*
X222342Y156256*
X221970Y156104*
X221587Y155982*
X221197Y155890*
X220800Y155827*
X220400Y155796*
X219999Y155795*
X219598Y155825*
X219201Y155885*
X218810Y155976*
X218427Y156096*
X218055Y156245*
X217695Y156423*
X217349Y156628*
X217021Y156858*
X216711Y157113*
X216421Y157391*
X216154Y157691*
X215910Y158010*
X215692Y158346*
X215500Y158699*
X215335Y159065*
X215199Y159443*
X215093Y159830*
X215016Y160224*
X214970Y160623*
X214955Y161024*
X214970Y161425*
X215016Y161824*
X215093Y162218*
X215199Y162605*
X215335Y162982*
X215500Y163349*
X215692Y163701*
X215910Y164038*
X216154Y164357*
X216421Y164656*
X216711Y164934*
X217021Y165189*
X217349Y165420*
X217695Y165624*
X218055Y165802*
X218427Y165951*
X218810Y166072*
X219201Y166162*
X219598Y166223*
X219999Y166253*
X220400Y166252*
X220800Y166220*
X221197Y166158*
X221587Y166065*
X221970Y165943*
X222342Y165792*
X222701Y165612*
X223045Y165406*
X223373Y165174*
X223682Y164918*
X223970Y164638*
X224236Y164338*
X224478Y164018*
X224695Y163680*
X224912Y164018*
X225155Y164339*
X225422Y164640*
X225711Y164920*
X226021Y165177*
X226349Y165409*
X226695Y165616*
X227055Y165795*
X227428Y165946*
X227811Y166067*
X228203Y166159*
X228600Y166221*
X229002Y166252*
X229404*
X229805Y166221*
X230203Y166159*
X230594Y166067*
X230978Y165946*
X231351Y165795*
X231711Y165616*
X232056Y165409*
X232385Y165177*
X232695Y164920*
X232984Y164641*
X233250Y164339*
X233493Y164018*
X233711Y163680*
X233928Y164018*
X234171Y164339*
X234438Y164640*
X234727Y164920*
X235036Y165177*
X235365Y165409*
X235710Y165616*
X236071Y165795*
X236444Y165946*
X236827Y166067*
X237219Y166159*
X237616Y166221*
X238017Y166252*
X238420*
X238821Y166221*
X239218Y166159*
X239610Y166067*
X239993Y165946*
X240366Y165795*
X240727Y165616*
X241072Y165409*
X241401Y165177*
X241710Y164920*
X241999Y164641*
X242266Y164339*
X242509Y164018*
X242726Y163680*
X242944Y164018*
X243187Y164339*
X243453Y164640*
X243742Y164920*
X244052Y165177*
X244381Y165409*
X244726Y165616*
X245086Y165795*
X245459Y165946*
X245843Y166067*
X246234Y166159*
X246632Y166221*
X247033Y166252*
X247435*
X247837Y166221*
X248234Y166159*
X248626Y166067*
X249009Y165946*
X249382Y165795*
X249742Y165616*
X250088Y165409*
X250416Y165177*
X250726Y164920*
X251015Y164641*
X251282Y164339*
X251525Y164018*
X251742Y163680*
X251960Y164018*
X252202Y164339*
X252469Y164640*
X252758Y164920*
X253068Y165177*
X253396Y165409*
X253742Y165616*
X254102Y165795*
X254475Y165946*
X254858Y166067*
X255250Y166159*
X255648Y166221*
X256049Y166252*
X256451*
X256852Y166221*
X257250Y166159*
X257641Y166067*
X258025Y165946*
X258398Y165795*
X258758Y165616*
X259104Y165409*
X259432Y165177*
X259742Y164920*
X260031Y164641*
X260298Y164339*
X260540Y164018*
X260758Y163680*
X260975Y164018*
X261218Y164339*
X261485Y164640*
X261774Y164920*
X262084Y165177*
X262412Y165409*
X262758Y165616*
X263118Y165795*
X263491Y165946*
X263874Y166067*
X264266Y166159*
X264663Y166221*
X265065Y166252*
X265467*
X265868Y166221*
X266266Y166159*
X266657Y166067*
X267041Y165946*
X267414Y165795*
X267774Y165616*
X268119Y165409*
X268448Y165177*
X268758Y164920*
X269047Y164641*
X269313Y164339*
X269556Y164018*
X269774Y163680*
X269991Y164018*
X270234Y164339*
X270501Y164640*
X270790Y164920*
X271099Y165177*
X271428Y165409*
X271773Y165616*
X272134Y165795*
X272507Y165946*
X272890Y166067*
X273282Y166159*
X273679Y166221*
X274080Y166252*
X274483*
X274884Y166221*
X275281Y166159*
X275673Y166067*
X276056Y165946*
X276429Y165795*
X276790Y165616*
X277135Y165409*
X277464Y165177*
X277773Y164920*
X278062Y164641*
X278329Y164339*
X278572Y164018*
X278789Y163680*
X279007Y164018*
X279250Y164339*
X279516Y164640*
X279805Y164920*
X280115Y165177*
X280444Y165409*
X280789Y165616*
X281149Y165795*
X281522Y165946*
X281906Y166067*
X282297Y166159*
X282695Y166221*
X283096Y166252*
X283498*
X283900Y166221*
X284297Y166159*
X284689Y166067*
X285072Y165946*
X285445Y165795*
X285805Y165616*
X286151Y165409*
X286479Y165177*
X286789Y164920*
X287078Y164641*
X287345Y164339*
X287588Y164018*
X287805Y163680*
X292313Y152738D02*
X292463Y153090D01*
X292641Y153429*
X292845Y153753*
X293074Y154060*
X293326Y154347*
X293601Y154614*
X293895Y154858*
X294209Y155078*
X294538Y155272*
X294882Y155440*
X295239Y155580*
X295605Y155691*
X295979Y155772*
X296358Y155824*
X296740Y155846*
X297123Y155837*
X297503Y155798*
X297880Y155729*
X298250Y155630*
X298610Y155502*
X298960Y155346*
X299296Y155163*
X299616Y154954*
X299919Y154720*
X300202Y154462*
X300464Y154183*
X300704Y153885*
X300918Y153568*
X301107Y153235*
X301269Y152888*
X301403Y152529*
X301508Y152161*
X301583Y151786*
X301629Y151406*
X301644Y151024*
X301629Y150641*
X301583Y150261*
X301508Y149886*
X301403Y149518*
X301269Y149159*
X301107Y148813*
X300918Y148480*
X300704Y148163*
X300465Y147864*
X300203Y147585*
X299919Y147328*
X299616Y147094*
X299296Y146884*
X298960Y146701*
X298610Y146545*
X298250Y146417*
X297880Y146319*
X297504Y146249*
X297123Y146210*
X296740Y146201*
X296358Y146223*
X295979Y146275*
X295605Y146357*
X295239Y146468*
X294882Y146607*
X294538Y146775*
X294209Y146969*
X293895Y147189*
X293601Y147433*
X293326Y147700*
X293074Y147988*
X292845Y148294*
X292641Y148618*
X292463Y148957*
X292313Y149309*
X292161Y148952*
X291980Y148609*
X291772Y148281*
X291539Y147971*
X291281Y147681*
X291001Y147412*
X290701Y147167*
X290381Y146946*
X290045Y146752*
X289694Y146586*
X289331Y146449*
X288958Y146341*
X288578Y146263*
X288193Y146216*
X287805Y146201*
X287417Y146216*
X287032Y146263*
X286652Y146341*
X286279Y146449*
X285916Y146586*
X285565Y146752*
X285229Y146946*
X284910Y147167*
X284609Y147412*
X284329Y147681*
X284071Y147971*
X283838Y148281*
X283630Y148609*
X283450Y148952*
X283297Y149309*
X283145Y148952*
X282964Y148609*
X282756Y148281*
X282523Y147971*
X282266Y147681*
X281986Y147412*
X281685Y147167*
X281365Y146946*
X281029Y146752*
X280678Y146586*
X280316Y146449*
X279943Y146341*
X279562Y146263*
X279177Y146216*
X278789Y146201*
X278402Y146216*
X278016Y146263*
X277636Y146341*
X277263Y146449*
X276900Y146586*
X276550Y146752*
X276213Y146946*
X275894Y147167*
X275593Y147412*
X275313Y147681*
X275056Y147971*
X274822Y148281*
X274615Y148609*
X274434Y148952*
X274281Y149309*
X274129Y148952*
X273948Y148609*
X273741Y148281*
X273507Y147971*
X273250Y147681*
X272970Y147412*
X272669Y147167*
X272350Y146946*
X272013Y146752*
X271663Y146586*
X271300Y146449*
X270927Y146341*
X270547Y146263*
X270161Y146216*
X269774Y146201*
X269386Y146216*
X269001Y146263*
X268620Y146341*
X268247Y146449*
X267885Y146586*
X267534Y146752*
X267198Y146946*
X266878Y147167*
X266577Y147412*
X266297Y147681*
X266040Y147971*
X265807Y148281*
X265599Y148609*
X265418Y148952*
X265266Y149309*
X265113Y148952*
X264933Y148609*
X264725Y148281*
X264492Y147971*
X264234Y147681*
X263954Y147412*
X263653Y147167*
X263334Y146946*
X262998Y146752*
X262647Y146586*
X262284Y146449*
X261911Y146341*
X261531Y146263*
X261146Y146216*
X260758Y146201*
X260370Y146216*
X259985Y146263*
X259605Y146341*
X259232Y146449*
X258869Y146586*
X258518Y146752*
X258182Y146946*
X257862Y147167*
X257562Y147412*
X257282Y147681*
X257024Y147971*
X256791Y148281*
X256583Y148609*
X256402Y148952*
X256250Y149309*
X256098Y148952*
X255917Y148609*
X255709Y148281*
X255476Y147971*
X255218Y147681*
X254938Y147412*
X254638Y147167*
X254318Y146946*
X253982Y146752*
X253631Y146586*
X253268Y146449*
X252895Y146341*
X252515Y146263*
X252130Y146216*
X251742Y146201*
X251354Y146216*
X250969Y146263*
X250589Y146341*
X250216Y146449*
X249853Y146586*
X249502Y146752*
X249166Y146946*
X248847Y147167*
X248546Y147412*
X248266Y147681*
X248008Y147971*
X247775Y148281*
X247567Y148609*
X247387Y148952*
X247234Y149309*
X247082Y148952*
X246901Y148609*
X246694Y148281*
X246460Y147971*
X246203Y147681*
X245923Y147412*
X245622Y147167*
X245302Y146946*
X244966Y146752*
X244615Y146586*
X244253Y146449*
X243880Y146341*
X243499Y146263*
X243114Y146216*
X242726Y146201*
X242339Y146216*
X241953Y146263*
X241573Y146341*
X241200Y146449*
X240837Y146586*
X240487Y146752*
X240150Y146946*
X239831Y147167*
X239530Y147412*
X239250Y147681*
X238993Y147971*
X238759Y148281*
X238552Y148609*
X238371Y148952*
X238219Y149309*
X238066Y148952*
X237885Y148609*
X237678Y148281*
X237444Y147971*
X237187Y147681*
X236907Y147412*
X236606Y147167*
X236287Y146946*
X235950Y146752*
X235600Y146586*
X235237Y146449*
X234864Y146341*
X234484Y146263*
X234098Y146216*
X233711Y146201*
X233323Y146216*
X232938Y146263*
X232557Y146341*
X232184Y146449*
X231822Y146586*
X231471Y146752*
X231135Y146946*
X230815Y147167*
X230514Y147412*
X230234Y147681*
X229977Y147971*
X229744Y148281*
X229536Y148609*
X229355Y148952*
X229203Y149309*
X229053Y148957*
X228875Y148618*
X228671Y148294*
X228442Y147988*
X228190Y147700*
X227915Y147433*
X227620Y147189*
X227307Y146969*
X226977Y146775*
X226633Y146607*
X226277Y146468*
X225911Y146357*
X225537Y146275*
X225158Y146223*
X224776Y146201*
X224393Y146210*
X224012Y146249*
X223636Y146318*
X223266Y146417*
X222905Y146545*
X222556Y146701*
X222220Y146884*
X221899Y147094*
X221597Y147328*
X221313Y147585*
X221051Y147864*
X220812Y148163*
X220598Y148480*
X220409Y148813*
X220247Y149159*
X220113Y149518*
X220008Y149886*
X219933Y150261*
X219887Y150641*
X219872Y151024*
X219887Y151406*
X219933Y151786*
X220008Y152161*
X220113Y152529*
X220247Y152888*
X220409Y153235*
X220598Y153568*
X220812Y153884*
X221051Y154183*
X221313Y154462*
X221597Y154720*
X221899Y154954*
X222220Y155163*
X222556Y155346*
X222905Y155502*
X223266Y155630*
X223636Y155729*
X224012Y155798*
X224393Y155837*
X224776Y155846*
X225158Y155824*
X225537Y155772*
X225911Y155691*
X226277Y155580*
X226633Y155440*
X226977Y155272*
X227307Y155078*
X227620Y154858*
X227915Y154614*
X228190Y154347*
X228442Y154060*
X228671Y153753*
X228875Y153429*
X229053Y153090*
X229203Y152738*
X229355Y153095*
X229536Y153438*
X229744Y153766*
X229977Y154076*
X230234Y154367*
X230514Y154635*
X230815Y154881*
X231135Y155101*
X231471Y155295*
X231822Y155461*
X232184Y155599*
X232557Y155707*
X232938Y155784*
X233323Y155831*
X233711Y155846*
X234098Y155831*
X234484Y155784*
X234864Y155707*
X235237Y155599*
X235600Y155461*
X235950Y155295*
X236287Y155101*
X236606Y154881*
X236907Y154635*
X237187Y154367*
X237444Y154076*
X237678Y153766*
X237885Y153438*
X238066Y153095*
X238219Y152738*
X238371Y153095*
X238552Y153438*
X238759Y153766*
X238993Y154076*
X239250Y154367*
X239530Y154635*
X239831Y154881*
X240150Y155101*
X240487Y155295*
X240837Y155461*
X241200Y155599*
X241573Y155707*
X241953Y155784*
X242339Y155831*
X242726Y155846*
X243114Y155831*
X243499Y155784*
X243880Y155707*
X244253Y155599*
X244615Y155461*
X244966Y155295*
X245302Y155101*
X245622Y154881*
X245923Y154635*
X246203Y154367*
X246460Y154076*
X246693Y153766*
X246901Y153438*
X247082Y153095*
X247234Y152738*
X247387Y153095*
X247567Y153438*
X247775Y153766*
X248008Y154076*
X248266Y154367*
X248546Y154635*
X248847Y154881*
X249166Y155101*
X249502Y155295*
X249853Y155461*
X250216Y155599*
X250589Y155707*
X250969Y155784*
X251354Y155831*
X251742Y155846*
X252130Y155831*
X252515Y155784*
X252895Y155707*
X253268Y155599*
X253631Y155461*
X253982Y155295*
X254318Y155101*
X254638Y154881*
X254938Y154635*
X255218Y154367*
X255476Y154076*
X255709Y153766*
X255917Y153438*
X256098Y153095*
X256250Y152738*
X256402Y153095*
X256583Y153438*
X256791Y153766*
X257024Y154076*
X257282Y154367*
X257562Y154635*
X257862Y154881*
X258182Y155101*
X258518Y155295*
X258869Y155461*
X259232Y155599*
X259605Y155707*
X259985Y155784*
X260370Y155831*
X260758Y155846*
X261146Y155831*
X261531Y155784*
X261911Y155707*
X262284Y155599*
X262647Y155461*
X262998Y155295*
X263334Y155101*
X263653Y154881*
X263954Y154635*
X264234Y154367*
X264492Y154076*
X264725Y153766*
X264933Y153438*
X265113Y153095*
X265266Y152738*
X265418Y153095*
X265599Y153438*
X265806Y153766*
X266040Y154076*
X266297Y154367*
X266577Y154635*
X266878Y154881*
X267198Y155101*
X267534Y155295*
X267885Y155461*
X268247Y155599*
X268620Y155707*
X269001Y155784*
X269386Y155831*
X269774Y155846*
X270161Y155831*
X270547Y155784*
X270927Y155707*
X271300Y155599*
X271663Y155461*
X272013Y155295*
X272350Y155101*
X272669Y154881*
X272970Y154635*
X273250Y154367*
X273507Y154076*
X273741Y153766*
X273948Y153438*
X274129Y153095*
X274281Y152738*
X274434Y153095*
X274615Y153438*
X274822Y153766*
X275056Y154076*
X275313Y154367*
X275593Y154635*
X275894Y154881*
X276213Y155101*
X276550Y155295*
X276900Y155461*
X277263Y155599*
X277636Y155707*
X278016Y155784*
X278402Y155831*
X278789Y155846*
X279177Y155831*
X279562Y155784*
X279943Y155707*
X280316Y155599*
X280678Y155461*
X281029Y155295*
X281365Y155101*
X281685Y154881*
X281986Y154635*
X282266Y154367*
X282523Y154076*
X282756Y153766*
X282964Y153438*
X283145Y153095*
X283297Y152738*
X283450Y153095*
X283630Y153438*
X283838Y153766*
X284071Y154076*
X284329Y154367*
X284609Y154635*
X284910Y154881*
X285229Y155101*
X285565Y155295*
X285916Y155461*
X286279Y155599*
X286652Y155707*
X287032Y155784*
X287417Y155831*
X287805Y155846*
X288193Y155831*
X288578Y155784*
X288958Y155707*
X289331Y155599*
X289694Y155461*
X290045Y155295*
X290381Y155101*
X290701Y154881*
X291001Y154635*
X291281Y154367*
X291539Y154076*
X291772Y153766*
X291980Y153438*
X292161Y153095*
X292313Y152738*
X283297Y172738D02*
X283447Y173090D01*
X283625Y173429*
X283829Y173753*
X284058Y174060*
X284310Y174347*
X284585Y174614*
X284880Y174858*
X285193Y175078*
X285523Y175272*
X285867Y175440*
X286223Y175580*
X286589Y175691*
X286963Y175772*
X287342Y175824*
X287724Y175846*
X288107Y175837*
X288488Y175798*
X288864Y175729*
X289234Y175630*
X289595Y175502*
X289944Y175346*
X290280Y175163*
X290601Y174954*
X290903Y174720*
X291187Y174462*
X291449Y174183*
X291688Y173885*
X291902Y173568*
X292091Y173235*
X292253Y172888*
X292387Y172529*
X292492Y172161*
X292567Y171786*
X292613Y171406*
X292628Y171024*
X292613Y170641*
X292567Y170261*
X292492Y169886*
X292387Y169518*
X292253Y169159*
X292091Y168813*
X291902Y168480*
X291688Y168163*
X291449Y167864*
X291187Y167585*
X290903Y167328*
X290601Y167094*
X290280Y166884*
X289944Y166701*
X289595Y166545*
X289234Y166417*
X288864Y166319*
X288488Y166249*
X288107Y166210*
X287724Y166201*
X287342Y166223*
X286963Y166275*
X286589Y166357*
X286223Y166468*
X285867Y166607*
X285523Y166775*
X285193Y166969*
X284880Y167189*
X284585Y167433*
X284310Y167700*
X284058Y167988*
X283829Y168294*
X283625Y168618*
X283447Y168957*
X283297Y169309*
X283145Y168952*
X282964Y168609*
X282756Y168281*
X282523Y167971*
X282266Y167681*
X281986Y167412*
X281685Y167167*
X281365Y166946*
X281029Y166752*
X280678Y166586*
X280316Y166449*
X279943Y166341*
X279562Y166263*
X279177Y166216*
X278789Y166201*
X278402Y166216*
X278016Y166263*
X277636Y166341*
X277263Y166449*
X276900Y166586*
X276550Y166752*
X276213Y166946*
X275894Y167167*
X275593Y167412*
X275313Y167681*
X275056Y167971*
X274822Y168281*
X274615Y168609*
X274434Y168952*
X274281Y169309*
X274129Y168952*
X273948Y168609*
X273741Y168281*
X273507Y167971*
X273250Y167681*
X272970Y167412*
X272669Y167167*
X272350Y166946*
X272013Y166752*
X271663Y166586*
X271300Y166449*
X270927Y166341*
X270547Y166263*
X270161Y166216*
X269774Y166201*
X269386Y166216*
X269001Y166263*
X268620Y166341*
X268247Y166449*
X267885Y166586*
X267534Y166752*
X267198Y166946*
X266878Y167167*
X266577Y167412*
X266297Y167681*
X266040Y167971*
X265807Y168281*
X265599Y168609*
X265418Y168952*
X265266Y169309*
X265113Y168952*
X264933Y168609*
X264725Y168281*
X264492Y167971*
X264234Y167681*
X263954Y167412*
X263653Y167167*
X263334Y166946*
X262998Y166752*
X262647Y166586*
X262284Y166449*
X261911Y166341*
X261531Y166263*
X261146Y166216*
X260758Y166201*
X260370Y166216*
X259985Y166263*
X259605Y166341*
X259232Y166449*
X258869Y166586*
X258518Y166752*
X258182Y166946*
X257862Y167167*
X257562Y167412*
X257282Y167681*
X257024Y167971*
X256791Y168281*
X256583Y168609*
X256402Y168952*
X256250Y169309*
X256098Y168952*
X255917Y168609*
X255709Y168281*
X255476Y167971*
X255218Y167681*
X254938Y167412*
X254638Y167167*
X254318Y166946*
X253982Y166752*
X253631Y166586*
X253268Y166449*
X252895Y166341*
X252515Y166263*
X252130Y166216*
X251742Y166201*
X251354Y166216*
X250969Y166263*
X250589Y166341*
X250216Y166449*
X249853Y166586*
X249502Y166752*
X249166Y166946*
X248847Y167167*
X248546Y167412*
X248266Y167681*
X248008Y167971*
X247775Y168281*
X247567Y168609*
X247387Y168952*
X247234Y169309*
X247082Y168952*
X246901Y168609*
X246694Y168281*
X246460Y167971*
X246203Y167681*
X245923Y167412*
X245622Y167167*
X245302Y166946*
X244966Y166752*
X244615Y166586*
X244253Y166449*
X243880Y166341*
X243499Y166263*
X243114Y166216*
X242726Y166201*
X242339Y166216*
X241953Y166263*
X241573Y166341*
X241200Y166449*
X240837Y166586*
X240487Y166752*
X240150Y166946*
X239831Y167167*
X239530Y167412*
X239250Y167681*
X238993Y167971*
X238759Y168281*
X238552Y168609*
X238371Y168952*
X238219Y169309*
X238066Y168952*
X237885Y168609*
X237678Y168281*
X237444Y167971*
X237187Y167681*
X236907Y167412*
X236606Y167167*
X236287Y166946*
X235950Y166752*
X235600Y166586*
X235237Y166449*
X234864Y166341*
X234484Y166263*
X234098Y166216*
X233711Y166201*
X233323Y166216*
X232938Y166263*
X232557Y166341*
X232184Y166449*
X231822Y166586*
X231471Y166752*
X231135Y166946*
X230815Y167167*
X230514Y167412*
X230234Y167681*
X229977Y167971*
X229744Y168281*
X229536Y168609*
X229355Y168952*
X229203Y169309*
X229053Y168957*
X228875Y168618*
X228671Y168294*
X228442Y167988*
X228190Y167700*
X227915Y167433*
X227620Y167189*
X227307Y166969*
X226977Y166775*
X226633Y166607*
X226277Y166468*
X225911Y166357*
X225537Y166275*
X225158Y166223*
X224776Y166201*
X224393Y166210*
X224012Y166249*
X223636Y166318*
X223266Y166417*
X222905Y166545*
X222556Y166701*
X222220Y166884*
X221899Y167094*
X221597Y167328*
X221313Y167585*
X221051Y167864*
X220812Y168163*
X220598Y168480*
X220409Y168813*
X220247Y169159*
X220113Y169518*
X220008Y169886*
X219933Y170261*
X219887Y170641*
X219872Y171024*
X219887Y171406*
X219933Y171786*
X220008Y172161*
X220113Y172529*
X220247Y172888*
X220409Y173235*
X220598Y173568*
X220812Y173884*
X221051Y174183*
X221313Y174462*
X221597Y174720*
X221899Y174954*
X222220Y175163*
X222556Y175346*
X222905Y175502*
X223266Y175630*
X223636Y175729*
X224012Y175798*
X224393Y175837*
X224776Y175846*
X225158Y175824*
X225537Y175772*
X225911Y175691*
X226277Y175580*
X226633Y175440*
X226977Y175272*
X227307Y175078*
X227620Y174858*
X227915Y174614*
X228190Y174347*
X228442Y174060*
X228671Y173753*
X228875Y173429*
X229053Y173090*
X229203Y172738*
X229355Y173095*
X229536Y173438*
X229744Y173766*
X229977Y174076*
X230234Y174367*
X230514Y174635*
X230815Y174881*
X231135Y175101*
X231471Y175295*
X231822Y175461*
X232184Y175599*
X232557Y175707*
X232938Y175784*
X233323Y175831*
X233711Y175846*
X234098Y175831*
X234484Y175784*
X234864Y175707*
X235237Y175599*
X235600Y175461*
X235950Y175295*
X236287Y175101*
X236606Y174881*
X236907Y174635*
X237187Y174367*
X237444Y174076*
X237678Y173766*
X237885Y173438*
X238066Y173095*
X238219Y172738*
X238371Y173095*
X238552Y173438*
X238759Y173766*
X238993Y174076*
X239250Y174367*
X239530Y174635*
X239831Y174881*
X240150Y175101*
X240487Y175295*
X240837Y175461*
X241200Y175599*
X241573Y175707*
X241953Y175784*
X242339Y175831*
X242726Y175846*
X243114Y175831*
X243499Y175784*
X243880Y175707*
X244253Y175599*
X244615Y175461*
X244966Y175295*
X245302Y175101*
X245622Y174881*
X245923Y174635*
X246203Y174367*
X246460Y174076*
X246693Y173766*
X246901Y173438*
X247082Y173095*
X247234Y172738*
X247387Y173095*
X247567Y173438*
X247775Y173766*
X248008Y174076*
X248266Y174367*
X248546Y174635*
X248847Y174881*
X249166Y175101*
X249502Y175295*
X249853Y175461*
X250216Y175599*
X250589Y175707*
X250969Y175784*
X251354Y175831*
X251742Y175846*
X252130Y175831*
X252515Y175784*
X252895Y175707*
X253268Y175599*
X253631Y175461*
X253982Y175295*
X254318Y175101*
X254638Y174881*
X254938Y174635*
X255218Y174367*
X255476Y174076*
X255709Y173766*
X255917Y173438*
X256098Y173095*
X256250Y172738*
X256402Y173095*
X256583Y173438*
X256791Y173766*
X257024Y174076*
X257282Y174367*
X257562Y174635*
X257862Y174881*
X258182Y175101*
X258518Y175295*
X258869Y175461*
X259232Y175599*
X259605Y175707*
X259985Y175784*
X260370Y175831*
X260758Y175846*
X261146Y175831*
X261531Y175784*
X261911Y175707*
X262284Y175599*
X262647Y175461*
X262998Y175295*
X263334Y175101*
X263653Y174881*
X263954Y174635*
X264234Y174367*
X264492Y174076*
X264725Y173766*
X264933Y173438*
X265113Y173095*
X265266Y172738*
X265418Y173095*
X265599Y173438*
X265806Y173766*
X266040Y174076*
X266297Y174367*
X266577Y174635*
X266878Y174881*
X267198Y175101*
X267534Y175295*
X267885Y175461*
X268247Y175599*
X268620Y175707*
X269001Y175784*
X269386Y175831*
X269774Y175846*
X270161Y175831*
X270547Y175784*
X270927Y175707*
X271300Y175599*
X271663Y175461*
X272013Y175295*
X272350Y175101*
X272669Y174881*
X272970Y174635*
X273250Y174367*
X273507Y174076*
X273741Y173766*
X273948Y173438*
X274129Y173095*
X274281Y172738*
X274434Y173095*
X274615Y173438*
X274822Y173766*
X275056Y174076*
X275313Y174367*
X275593Y174635*
X275894Y174881*
X276213Y175101*
X276550Y175295*
X276900Y175461*
X277263Y175599*
X277636Y175707*
X278016Y175784*
X278402Y175831*
X278789Y175846*
X279177Y175831*
X279562Y175784*
X279943Y175707*
X280316Y175599*
X280678Y175461*
X281029Y175295*
X281365Y175101*
X281685Y174881*
X281986Y174635*
X282266Y174367*
X282523Y174076*
X282756Y173766*
X282964Y173438*
X283145Y173095*
X283297Y172738*
X310988Y161024D02*
X311004Y161657D01*
X311049Y162289*
X311126Y162917*
X311232Y163542*
X311369Y164160*
X311535Y164771*
X311731Y165374*
X311956Y165966*
X312209Y166547*
X312489Y167114*
X312797Y167668*
X313132Y168206*
X313491Y168727*
X313876Y169231*
X314284Y169715*
X314716Y170179*
X315169Y170621*
X315643Y171041*
X316137Y171438*
X316649Y171810*
X317179Y172157*
X317725Y172478*
X318286Y172772*
X318860Y173039*
X319447Y173278*
X320044Y173488*
X320651Y173670*
X321266Y173821*
X321888Y173943*
X322515Y174034*
X323145Y174095*
X323778Y174126*
X324411*
X325044Y174095*
X325674Y174034*
X326301Y173943*
X326922Y173821*
X327537Y173670*
X328144Y173488*
X328742Y173278*
X329329Y173039*
X329903Y172772*
X330464Y172478*
X331010Y172157*
X331540Y171810*
X332052Y171438*
X332546Y171041*
X333020Y170621*
X333473Y170179*
X333905Y169715*
X334313Y169231*
X334698Y168727*
X335057Y168206*
X335392Y167668*
X335699Y167115*
X335980Y166547*
X336233Y165966*
X336458Y165374*
X336653Y164771*
X336820Y164160*
X336957Y163542*
X337063Y162918*
X337140Y162289*
X337185Y161657*
X337201Y161024*
X337185Y160390*
X337140Y159759*
X337063Y159130*
X336957Y158506*
X336820Y157887*
X336654Y157276*
X336458Y156674*
X336233Y156081*
X335980Y155501*
X335699Y154933*
X335392Y154379*
X335057Y153841*
X334698Y153320*
X334313Y152817*
X333905Y152333*
X333473Y151869*
X333020Y151426*
X332546Y151006*
X332052Y150610*
X331540Y150237*
X331010Y149890*
X330464Y149569*
X329903Y149275*
X329329Y149008*
X328742Y148769*
X328145Y148559*
X327538Y148378*
X326923Y148226*
X326301Y148104*
X325674Y148013*
X325044Y147952*
X324411Y147921*
X323778*
X323145Y147952*
X322515Y148013*
X321888Y148104*
X321266Y148226*
X320651Y148378*
X320045Y148559*
X319447Y148769*
X318860Y149008*
X318286Y149275*
X317725Y149569*
X317179Y149890*
X316649Y150237*
X316137Y150610*
X315643Y151006*
X315169Y151426*
X314716Y151869*
X314284Y152332*
X313876Y152817*
X313491Y153320*
X313132Y153841*
X312797Y154379*
X312490Y154933*
X312209Y155500*
X311956Y156081*
X311731Y156673*
X311536Y157276*
X311369Y157887*
X311232Y158505*
X311126Y159130*
X311049Y159758*
X311004Y160390*
X310988Y161024*
X338209Y90906D02*
X338224Y91155D01*
X338269Y91400*
X338343Y91638*
X338445Y91866*
X338575Y92080*
X338729Y92276*
X338905Y92453*
X339101Y92607*
X339315Y92736*
X339543Y92838*
X339781Y92912*
X340026Y92957*
X340276Y92972*
X340525Y92957*
X340770Y92912*
X341009Y92838*
X341236Y92736*
X341450Y92607*
X341646Y92453*
X341823Y92276*
X341977Y92080*
X342106Y91866*
X342208Y91638*
X342282Y91400*
X342327Y91155*
X342343Y90906*
X342327Y90656*
X342282Y90411*
X342208Y90173*
X342106Y89945*
X341977Y89731*
X341823Y89535*
X341646Y89358*
X341450Y89204*
X341236Y89075*
X341009Y88973*
X340770Y88899*
X340525Y88854*
X340276Y88839*
X340026Y88854*
X339781Y88899*
X339543Y88973*
X339315Y89075*
X339101Y89204*
X338905Y89358*
X338729Y89535*
X338575Y89731*
X338445Y89945*
X338343Y90173*
X338269Y90411*
X338224Y90656*
X338209Y90906*
X392638Y144823D02*
X392974Y144807D01*
X393307Y144761*
X393634Y144684*
X393953Y144577*
X394261Y144441*
X394555Y144277*
X394832Y144087*
X395091Y143872*
X395329Y143635*
X395544Y143376*
X395734Y143098*
X395898Y142804*
X396034Y142497*
X396141Y142178*
X396218Y141850*
X396264Y141517*
X396280Y141181*
X396264Y140845*
X396218Y140512*
X396141Y140184*
X396034Y139866*
X395898Y139558*
X395734Y139264*
X395544Y138986*
X395329Y138728*
X395091Y138490*
X394832Y138275*
X394555Y138085*
X394261Y137921*
X393953Y137785*
X393634Y137678*
X393307Y137601*
X392974Y137555*
X392638Y137539*
X392302Y137555*
X391969Y137601*
X391641Y137678*
X391322Y137785*
X391015Y137921*
X390721Y138085*
X390443Y138275*
X390184Y138490*
X389946Y138728*
X389732Y138986*
X389541Y139264*
X389378Y139558*
X389242Y139866*
X389135Y140184*
X389058Y140512*
X389012Y140845*
X388996Y141181*
X389012Y141517*
X389058Y141850*
X389135Y142178*
X389242Y142497*
X389378Y142804*
X389542Y143098*
X389732Y143376*
X389946Y143635*
X390184Y143872*
X390443Y144087*
X390721Y144277*
X391014Y144441*
X391322Y144577*
X391641Y144684*
X391969Y144761*
X392302Y144807*
X392638Y144823*
X2470Y2648D02*
X16711D01*
X20533D02*
X390727D01*
X394549D02*
X407766D01*
X2470Y3239D02*
X15983D01*
X21261D02*
X389999D01*
X395277D02*
X407766D01*
X2470Y3829D02*
X15527D01*
X21717D02*
X389543D01*
X395733D02*
X407766D01*
X2470Y4420D02*
X15231D01*
X22013D02*
X389247D01*
X396029D02*
X407766D01*
X2470Y5010D02*
X15056D01*
X22188D02*
X389072D01*
X396204D02*
X407766D01*
X2470Y5601D02*
X14983D01*
X22261D02*
X388999D01*
X396277D02*
X407766D01*
X2470Y6191D02*
X15007D01*
X22237D02*
X389023D01*
X396252D02*
X407766D01*
X2470Y6782D02*
X15130D01*
X22114D02*
X389146D01*
X396130D02*
X407766D01*
X2470Y7372D02*
X15363D01*
X21881D02*
X389378D01*
X395897D02*
X407766D01*
X2470Y7963D02*
X15731D01*
X21513D02*
X335164D01*
X337671D02*
X389747D01*
X395529D02*
X407766D01*
X2470Y8554D02*
X16300D01*
X20944D02*
X334639D01*
X338196D02*
X390316D01*
X394960D02*
X407766D01*
X2470Y9144D02*
X17307D01*
X19937D02*
X334403D01*
X338432D02*
X391323D01*
X393953D02*
X407766D01*
X2470Y9735D02*
X334354D01*
X338480D02*
X407766D01*
X2470Y10325D02*
X334479D01*
X338355D02*
X407766D01*
X2470Y10916D02*
X3644D01*
X6434D02*
X334818D01*
X338017D02*
X407766D01*
X2470Y11506D02*
X3196D01*
X6883D02*
X335604D01*
X337231D02*
X407766D01*
X2470Y12097D02*
X3001D01*
X7077D02*
X407766D01*
X2470Y12687D02*
X2987D01*
X7092D02*
X407766D01*
X2470Y13278D02*
X3149D01*
X6929D02*
X407766D01*
X2470Y13869D02*
X3545D01*
X6534D02*
X407766D01*
X2470Y14459D02*
X4271D01*
X5808D02*
X169429D01*
X170965D02*
X407766D01*
X2470Y15050D02*
X3456D01*
X6623D02*
X168613D01*
X171780D02*
X407766D01*
X2470Y15640D02*
X3109D01*
X6970D02*
X168266D01*
X172128D02*
X407766D01*
X2470Y16231D02*
X2978D01*
X7101D02*
X168135D01*
X172259D02*
X407766D01*
X2470Y16821D02*
X3021D01*
X7058D02*
X168178D01*
X172216D02*
X407766D01*
X2470Y17412D02*
X3250D01*
X6829D02*
X168407D01*
X171987D02*
X407766D01*
X2470Y18002D02*
X3761D01*
X6317D02*
X168919D01*
X171475D02*
X407766D01*
X2470Y18593D02*
X3896D01*
X6183D02*
X288660D01*
X290946D02*
X407766D01*
X2470Y19183D02*
X3310D01*
X6769D02*
X288073D01*
X291533D02*
X407766D01*
X2470Y19774D02*
X3044D01*
X7034D02*
X287808D01*
X291798D02*
X407766D01*
X2470Y20365D02*
X2973D01*
X7106D02*
X287737D01*
X291869D02*
X407766D01*
X2470Y20955D02*
X3074D01*
X7005D02*
X287838D01*
X291768D02*
X407766D01*
X2470Y21546D02*
X3379D01*
X6700D02*
X288143D01*
X291464D02*
X407766D01*
X2470Y22136D02*
X4062D01*
X6017D02*
X288826D01*
X290781D02*
X407766D01*
X2470Y22727D02*
X283211D01*
X286001D02*
X407766D01*
X2470Y23317D02*
X282763D01*
X286450D02*
X407766D01*
X2470Y23908D02*
X282568D01*
X286644D02*
X407766D01*
X2470Y24498D02*
X282554D01*
X286658D02*
X321269D01*
X323298D02*
X407766D01*
X2470Y25089D02*
X282716D01*
X286496D02*
X320608D01*
X323959D02*
X407766D01*
X2470Y25680D02*
X283112D01*
X286101D02*
X320312D01*
X324255D02*
X407766D01*
X2470Y26270D02*
X284160D01*
X285053D02*
X320217D01*
X324350D02*
X407766D01*
X2470Y26861D02*
X320294D01*
X324273D02*
X407766D01*
X2470Y27451D02*
X320567D01*
X324000D02*
X407766D01*
X2470Y28042D02*
X321172D01*
X323395D02*
X407766D01*
X2470Y28632D02*
X204348D01*
X335219D02*
X407766D01*
X2470Y29223D02*
X203977D01*
X335590D02*
X407766D01*
X2470Y29813D02*
X203937D01*
X335630D02*
X407766D01*
X2470Y30404D02*
X3896D01*
X6183D02*
X203937D01*
X335630D02*
X407766D01*
X2470Y30994D02*
X3310D01*
X6769D02*
X203937D01*
X335630D02*
X407766D01*
X2470Y31585D02*
X3044D01*
X7034D02*
X203937D01*
X335630D02*
X407766D01*
X2470Y32176D02*
X2973D01*
X7106D02*
X203937D01*
X335630D02*
X407766D01*
X2470Y32766D02*
X3074D01*
X7005D02*
X203937D01*
X335630D02*
X407766D01*
X2470Y33357D02*
X3379D01*
X6700D02*
X203937D01*
X335630D02*
X407766D01*
X2470Y33947D02*
X4062D01*
X6017D02*
X203937D01*
X335630D02*
X407766D01*
X2470Y34538D02*
X203937D01*
X335630D02*
X407766D01*
X2470Y35128D02*
X3610D01*
X6311D02*
X203937D01*
X335630D02*
X407766D01*
X2470Y35719D02*
X3138D01*
X6784D02*
X203937D01*
X335630D02*
X407766D01*
X2470Y36309D02*
X2930D01*
X6992D02*
X203937D01*
X335630D02*
X407766D01*
X2470Y36900D02*
X2904D01*
X7017D02*
X203937D01*
X335630D02*
X407766D01*
X2470Y37491D02*
X3054D01*
X6867D02*
X93130D01*
X96004D02*
X203937D01*
X335630D02*
X407766D01*
X2470Y38081D02*
X3429D01*
X6492D02*
X90846D01*
X92382D02*
X92704D01*
X96430D02*
X203937D01*
X335630D02*
X407766D01*
X2470Y38672D02*
X3456D01*
X6623D02*
X90031D01*
X96611D02*
X97580D01*
X98641D02*
X203937D01*
X335630D02*
X407766D01*
X2470Y39262D02*
X3109D01*
X6970D02*
X89683D01*
X99624D02*
X203937D01*
X335630D02*
X407766D01*
X2470Y39853D02*
X2978D01*
X7101D02*
X89552D01*
X100009D02*
X203937D01*
X335630D02*
X407766D01*
X2470Y40443D02*
X3021D01*
X7058D02*
X61854D01*
X63737D02*
X89595D01*
X96023D02*
X96056D01*
X100165D02*
X203937D01*
X335630D02*
X407766D01*
X2470Y41034D02*
X3250D01*
X6829D02*
X61149D01*
X64442D02*
X89824D01*
X93404D02*
X94369D01*
X94764D02*
X96076D01*
X100145D02*
X203937D01*
X335630D02*
X407766D01*
X2470Y41624D02*
X3761D01*
X6317D02*
X60836D01*
X64754D02*
X90336D01*
X92892D02*
X96277D01*
X99943D02*
X203937D01*
X335630D02*
X407766D01*
X2470Y42215D02*
X3896D01*
X6183D02*
X60729D01*
X64861D02*
X96738D01*
X99482D02*
X203937D01*
X335630D02*
X407766D01*
X2470Y42806D02*
X3310D01*
X6769D02*
X60795D01*
X64795D02*
X203937D01*
X335630D02*
X407766D01*
X2470Y43396D02*
X3044D01*
X7034D02*
X61053D01*
X64537D02*
X203937D01*
X335630D02*
X407766D01*
X2470Y43987D02*
X2973D01*
X7106D02*
X61624D01*
X63966D02*
X203937D01*
X335630D02*
X407766D01*
X2470Y44577D02*
X3074D01*
X7005D02*
X203937D01*
X335630D02*
X407766D01*
X2470Y45168D02*
X3379D01*
X6700D02*
X203937D01*
X335630D02*
X407766D01*
X2470Y45758D02*
X4062D01*
X6017D02*
X203937D01*
X335630D02*
X407766D01*
X2470Y46349D02*
X3644D01*
X6434D02*
X203937D01*
X335630D02*
X407766D01*
X2470Y46939D02*
X3196D01*
X6883D02*
X31674D01*
X32735D02*
X203937D01*
X335630D02*
X407766D01*
X2470Y47530D02*
X3001D01*
X7077D02*
X30691D01*
X33719D02*
X203937D01*
X335630D02*
X407766D01*
X2470Y48120D02*
X2987D01*
X7092D02*
X30306D01*
X34104D02*
X203937D01*
X335630D02*
X407766D01*
X2470Y48711D02*
X3149D01*
X6929D02*
X30150D01*
X34259D02*
X203937D01*
X335630D02*
X407766D01*
X2470Y49302D02*
X3545D01*
X6534D02*
X30170D01*
X34239D02*
X203937D01*
X335630D02*
X407766D01*
X2470Y49892D02*
X4593D01*
X5486D02*
X30372D01*
X34038D02*
X203937D01*
X335630D02*
X407766D01*
X2470Y50483D02*
X30832D01*
X33577D02*
X203937D01*
X335630D02*
X407766D01*
X2470Y51073D02*
X203937D01*
X335630D02*
X407766D01*
X2470Y51664D02*
X203937D01*
X335630D02*
X407766D01*
X2470Y52254D02*
X203937D01*
X335630D02*
X407766D01*
X2470Y52845D02*
X203937D01*
X335630D02*
X407766D01*
X2470Y53435D02*
X203937D01*
X335630D02*
X407766D01*
X2470Y54026D02*
X3896D01*
X6183D02*
X203937D01*
X335630D02*
X407766D01*
X2470Y54617D02*
X3310D01*
X6769D02*
X129980D01*
X132854D02*
X203937D01*
X335630D02*
X407766D01*
X2470Y55207D02*
X3044D01*
X7034D02*
X129554D01*
X133280D02*
X203937D01*
X335630D02*
X407766D01*
X2470Y55798D02*
X2973D01*
X7106D02*
X52644D01*
X55152D02*
X77408D01*
X79915D02*
X129373D01*
X133462D02*
X203937D01*
X335630D02*
X407766D01*
X2470Y56388D02*
X3074D01*
X7005D02*
X52119D01*
X55677D02*
X76883D01*
X80440D02*
X129370D01*
X133464D02*
X203937D01*
X335630D02*
X407766D01*
X2470Y56979D02*
X3379D01*
X6700D02*
X51883D01*
X55912D02*
X76647D01*
X80676D02*
X129545D01*
X133289D02*
X203937D01*
X335630D02*
X407766D01*
X2470Y57569D02*
X4062D01*
X6017D02*
X51835D01*
X55961D02*
X76598D01*
X80724D02*
X129961D01*
X132873D02*
X203937D01*
X335630D02*
X407766D01*
X2470Y58160D02*
X3644D01*
X6434D02*
X43881D01*
X46671D02*
X51960D01*
X55836D02*
X76724D01*
X80599D02*
X131220D01*
X131615D02*
X203937D01*
X335630D02*
X407766D01*
X2470Y58750D02*
X3196D01*
X6883D02*
X43432D01*
X47119D02*
X52299D01*
X55497D02*
X77062D01*
X80261D02*
X203937D01*
X335630D02*
X407766D01*
X2470Y59341D02*
X3001D01*
X7077D02*
X43238D01*
X47314D02*
X53084D01*
X54712D02*
X77848D01*
X79475D02*
X203937D01*
X335630D02*
X407766D01*
X2470Y59931D02*
X2987D01*
X7092D02*
X43223D01*
X47328D02*
X203937D01*
X335630D02*
X407766D01*
X2470Y60522D02*
X3149D01*
X6929D02*
X43386D01*
X47165D02*
X203937D01*
X335630D02*
X407766D01*
X2470Y61113D02*
X3545D01*
X6534D02*
X43781D01*
X46770D02*
X203937D01*
X335630D02*
X407766D01*
X2470Y61703D02*
X4593D01*
X5486D02*
X44829D01*
X45722D02*
X203937D01*
X335630D02*
X407766D01*
X2470Y62294D02*
X203937D01*
X335630D02*
X407766D01*
X2470Y62884D02*
X203937D01*
X335630D02*
X407766D01*
X2470Y63475D02*
X203937D01*
X335630D02*
X407766D01*
X2470Y64065D02*
X203937D01*
X335630D02*
X407766D01*
X2470Y64656D02*
X203937D01*
X335630D02*
X407766D01*
X2470Y65246D02*
X203937D01*
X335630D02*
X407766D01*
X2470Y65837D02*
X203937D01*
X335630D02*
X407766D01*
X2470Y66428D02*
X203937D01*
X335630D02*
X407766D01*
X2470Y67018D02*
X203937D01*
X335630D02*
X407766D01*
X2470Y67609D02*
X203937D01*
X335630D02*
X407766D01*
X2470Y68199D02*
X203937D01*
X335630D02*
X407766D01*
X2470Y68790D02*
X3896D01*
X6183D02*
X203937D01*
X335630D02*
X407766D01*
X2470Y69380D02*
X3310D01*
X6769D02*
X126618D01*
X128500D02*
X172287D01*
X174170D02*
X203937D01*
X335630D02*
X407766D01*
X2470Y69971D02*
X3044D01*
X7034D02*
X125913D01*
X129205D02*
X171582D01*
X174875D02*
X203937D01*
X335630D02*
X407766D01*
X2470Y70561D02*
X2973D01*
X7106D02*
X125600D01*
X129518D02*
X171269D01*
X175187D02*
X203937D01*
X336910D02*
X407766D01*
X2470Y71152D02*
X3074D01*
X7005D02*
X30951D01*
X33458D02*
X39888D01*
X42395D02*
X125493D01*
X129625D02*
X171163D01*
X175294D02*
X203937D01*
X337725D02*
X407766D01*
X2470Y71743D02*
X3379D01*
X6700D02*
X30426D01*
X33983D02*
X39363D01*
X42920D02*
X58012D01*
X59075D02*
X125559D01*
X129559D02*
X171228D01*
X175228D02*
X203937D01*
X338072D02*
X407766D01*
X2470Y72333D02*
X4062D01*
X6017D02*
X30190D01*
X34219D02*
X39127D01*
X43156D02*
X57029D01*
X60058D02*
X125817D01*
X129301D02*
X171486D01*
X174970D02*
X203937D01*
X338203D02*
X407766D01*
X2470Y72924D02*
X30142D01*
X34268D02*
X39079D01*
X43205D02*
X56644D01*
X60442D02*
X126388D01*
X128730D02*
X172057D01*
X174399D02*
X203937D01*
X338161D02*
X407766D01*
X2470Y73514D02*
X4271D01*
X5808D02*
X30267D01*
X34143D02*
X39204D01*
X43080D02*
X46673D01*
X48209D02*
X56489D01*
X60598D02*
X203937D01*
X337932D02*
X407766D01*
X2470Y74105D02*
X3456D01*
X6623D02*
X30606D01*
X33804D02*
X39543D01*
X42741D02*
X45857D01*
X49025D02*
X56509D01*
X60578D02*
X203937D01*
X337420D02*
X407766D01*
X2470Y74695D02*
X3109D01*
X6970D02*
X31391D01*
X33018D02*
X40328D01*
X41955D02*
X45510D01*
X49372D02*
X56710D01*
X60376D02*
X203937D01*
X335630D02*
X407766D01*
X2470Y75286D02*
X2978D01*
X7101D02*
X45379D01*
X49503D02*
X57171D01*
X59915D02*
X203937D01*
X335630D02*
X407766D01*
X2470Y75876D02*
X3021D01*
X7058D02*
X45422D01*
X49460D02*
X203937D01*
X335630D02*
X407766D01*
X2470Y76467D02*
X3250D01*
X6829D02*
X45651D01*
X49231D02*
X203937D01*
X335630D02*
X407766D01*
X2470Y77057D02*
X3761D01*
X6317D02*
X46163D01*
X48719D02*
X203937D01*
X335630D02*
X407766D01*
X2470Y77648D02*
X3896D01*
X6183D02*
X203937D01*
X335630D02*
X407766D01*
X2470Y78239D02*
X3310D01*
X6769D02*
X203937D01*
X335630D02*
X407766D01*
X2470Y78829D02*
X3044D01*
X7034D02*
X203937D01*
X335630D02*
X407766D01*
X2470Y79420D02*
X2973D01*
X7106D02*
X38421D01*
X41028D02*
X203937D01*
X335630D02*
X407766D01*
X2470Y80010D02*
X3074D01*
X7005D02*
X37923D01*
X41526D02*
X203937D01*
X335630D02*
X407766D01*
X2470Y80601D02*
X3379D01*
X6700D02*
X37701D01*
X41748D02*
X203937D01*
X335630D02*
X407766D01*
X2470Y81191D02*
X4062D01*
X6017D02*
X37664D01*
X41785D02*
X203937D01*
X335630D02*
X407766D01*
X2470Y81782D02*
X37802D01*
X41647D02*
X203937D01*
X335630D02*
X407766D01*
X2470Y82372D02*
X3735D01*
X6344D02*
X38158D01*
X41291D02*
X47830D01*
X50438D02*
X114981D01*
X117381D02*
X203937D01*
X335630D02*
X407766D01*
X2470Y82963D02*
X3238D01*
X6841D02*
X39010D01*
X40439D02*
X47332D01*
X50936D02*
X114426D01*
X117936D02*
X203937D01*
X335630D02*
X407766D01*
X2470Y83554D02*
X3016D01*
X7063D02*
X47111D01*
X51157D02*
X114176D01*
X118186D02*
X203937D01*
X335630D02*
X407766D01*
X2470Y84144D02*
X2979D01*
X7099D02*
X47074D01*
X51194D02*
X114116D01*
X118246D02*
X203937D01*
X335630D02*
X407766D01*
X2470Y84735D02*
X3117D01*
X6962D02*
X47211D01*
X51056D02*
X114229D01*
X118133D02*
X203937D01*
X335630D02*
X407766D01*
X2470Y85325D02*
X3474D01*
X6605D02*
X47568D01*
X50700D02*
X114550D01*
X117812D02*
X203937D01*
X335630D02*
X407766D01*
X2470Y85916D02*
X4326D01*
X5753D02*
X48420D01*
X49847D02*
X115281D01*
X117081D02*
X203937D01*
X335630D02*
X407766D01*
X2470Y86506D02*
X203937D01*
X335630D02*
X407766D01*
X2470Y87097D02*
X100636D01*
X102356D02*
X203937D01*
X335630D02*
X407766D01*
X2470Y87687D02*
X99880D01*
X103112D02*
X203937D01*
X335630D02*
X407766D01*
X2470Y88278D02*
X99551D01*
X103441D02*
X203937D01*
X335630D02*
X407766D01*
X2470Y88869D02*
X99432D01*
X103560D02*
X203937D01*
X335630D02*
X339925D01*
X340626D02*
X407766D01*
X2470Y89459D02*
X99486D01*
X103506D02*
X204075D01*
X335630D02*
X338799D01*
X341752D02*
X407766D01*
X2470Y90050D02*
X99730D01*
X103263D02*
X204403D01*
X335630D02*
X338394D01*
X342157D02*
X407766D01*
X2470Y90640D02*
X100270D01*
X102722D02*
X204354D01*
X335630D02*
X338226D01*
X342325D02*
X407766D01*
X2470Y91231D02*
X204340D01*
X335630D02*
X338234D01*
X342317D02*
X407766D01*
X2470Y91821D02*
X203975D01*
X335630D02*
X338423D01*
X342129D02*
X407766D01*
X2470Y92412D02*
X203937D01*
X335630D02*
X338860D01*
X341691D02*
X407766D01*
X2470Y93002D02*
X203937D01*
X335630D02*
X407766D01*
X2470Y93593D02*
X203937D01*
X335630D02*
X407766D01*
X2470Y94183D02*
X203937D01*
X335630D02*
X407766D01*
X2470Y94774D02*
X103011D01*
X104548D02*
X203937D01*
X335630D02*
X407766D01*
X2470Y95365D02*
X102196D01*
X105363D02*
X203937D01*
X335630D02*
X407766D01*
X2470Y95955D02*
X101849D01*
X105710D02*
X203937D01*
X335630D02*
X407766D01*
X2470Y96546D02*
X101718D01*
X105841D02*
X203937D01*
X335630D02*
X407766D01*
X2470Y97136D02*
X101761D01*
X105798D02*
X203937D01*
X335630D02*
X407766D01*
X2470Y97727D02*
X101990D01*
X105569D02*
X203937D01*
X335630D02*
X407766D01*
X2470Y98317D02*
X102501D01*
X105058D02*
X203937D01*
X335630D02*
X407766D01*
X2470Y98908D02*
X203937D01*
X335630D02*
X407766D01*
X2470Y99498D02*
X203937D01*
X335630D02*
X407766D01*
X2470Y100089D02*
X203937D01*
X335630D02*
X407766D01*
X2470Y100680D02*
X203937D01*
X335630D02*
X407766D01*
X2470Y101270D02*
X203937D01*
X335630D02*
X407766D01*
X2470Y101861D02*
X203937D01*
X335630D02*
X407766D01*
X2470Y102451D02*
X203937D01*
X335630D02*
X407766D01*
X2470Y103042D02*
X203937D01*
X335630D02*
X407766D01*
X2470Y103632D02*
X203937D01*
X335630D02*
X407766D01*
X2470Y104223D02*
X203937D01*
X335630D02*
X407766D01*
X2470Y104813D02*
X203937D01*
X335630D02*
X407766D01*
X2470Y105404D02*
X30810D01*
X33600D02*
X203937D01*
X335630D02*
X407766D01*
X2470Y105994D02*
X30361D01*
X34048D02*
X203937D01*
X335630D02*
X407766D01*
X2470Y106585D02*
X30167D01*
X34243D02*
X203937D01*
X335630D02*
X407766D01*
X2470Y107176D02*
X30153D01*
X34257D02*
X203937D01*
X335630D02*
X407766D01*
X2470Y107766D02*
X30315D01*
X34095D02*
X203937D01*
X335630D02*
X407766D01*
X2470Y108357D02*
X30710D01*
X33699D02*
X203937D01*
X335630D02*
X407766D01*
X2470Y108947D02*
X31437D01*
X32973D02*
X203937D01*
X335630D02*
X407766D01*
X2470Y109538D02*
X30621D01*
X33788D02*
X203937D01*
X335630D02*
X407766D01*
X2470Y110128D02*
X30274D01*
X34135D02*
X203937D01*
X335630D02*
X407766D01*
X2470Y110719D02*
X30143D01*
X34266D02*
X203937D01*
X335630D02*
X407766D01*
X2470Y111309D02*
X30186D01*
X34224D02*
X203937D01*
X335630D02*
X407766D01*
X2470Y111900D02*
X30415D01*
X33995D02*
X203937D01*
X335630D02*
X407766D01*
X2470Y112491D02*
X30927D01*
X33483D02*
X203937D01*
X335630D02*
X407766D01*
X2470Y113081D02*
X62479D01*
X64765D02*
X203937D01*
X335630D02*
X407766D01*
X2470Y113672D02*
X61892D01*
X65352D02*
X203937D01*
X335630D02*
X407766D01*
X2470Y114262D02*
X61627D01*
X65617D02*
X203937D01*
X335630D02*
X407766D01*
X2470Y114853D02*
X61556D01*
X65688D02*
X203937D01*
X335630D02*
X407766D01*
X2470Y115443D02*
X61657D01*
X65587D02*
X203937D01*
X335630D02*
X407766D01*
X2470Y116034D02*
X61961D01*
X65283D02*
X203937D01*
X335630D02*
X407766D01*
X2470Y116624D02*
X62645D01*
X64599D02*
X203937D01*
X335630D02*
X407766D01*
X2470Y117215D02*
X30810D01*
X33600D02*
X203937D01*
X335630D02*
X407766D01*
X2470Y117806D02*
X30361D01*
X34048D02*
X203937D01*
X335630D02*
X407766D01*
X2470Y118396D02*
X30167D01*
X34243D02*
X203937D01*
X335630D02*
X407766D01*
X2470Y118987D02*
X30153D01*
X34257D02*
X203937D01*
X335630D02*
X407766D01*
X2470Y119577D02*
X30315D01*
X34095D02*
X203937D01*
X335630D02*
X407766D01*
X2470Y120168D02*
X30710D01*
X33699D02*
X203937D01*
X335630D02*
X407766D01*
X2470Y120758D02*
X31122D01*
X32658D02*
X203937D01*
X335630D02*
X407766D01*
X2470Y121349D02*
X30306D01*
X33473D02*
X203937D01*
X335630D02*
X407766D01*
X2470Y121939D02*
X29959D01*
X33821D02*
X203937D01*
X335630D02*
X407766D01*
X2470Y122530D02*
X29828D01*
X33951D02*
X203937D01*
X335630D02*
X407766D01*
X2470Y123120D02*
X29871D01*
X33909D02*
X203937D01*
X335630D02*
X407766D01*
X2470Y123711D02*
X30100D01*
X33680D02*
X203940D01*
X335627D02*
X407766D01*
X2470Y124302D02*
X30612D01*
X33168D02*
X204152D01*
X335415D02*
X407766D01*
X2470Y124892D02*
X4093D01*
X6379D02*
X30707D01*
X32994D02*
X407766D01*
X2470Y125483D02*
X3506D01*
X6966D02*
X30121D01*
X33580D02*
X407766D01*
X2470Y126073D02*
X3241D01*
X7231D02*
X29856D01*
X33845D02*
X407766D01*
X2470Y126664D02*
X3170D01*
X7303D02*
X29784D01*
X33917D02*
X407766D01*
X2470Y127254D02*
X3271D01*
X7202D02*
X29885D01*
X33816D02*
X407766D01*
X2470Y127845D02*
X3576D01*
X6897D02*
X30190D01*
X33511D02*
X407766D01*
X2470Y128435D02*
X4259D01*
X6214D02*
X30873D01*
X32828D02*
X407766D01*
X2470Y129026D02*
X3841D01*
X6631D02*
X30455D01*
X33245D02*
X407766D01*
X2470Y129617D02*
X3393D01*
X7080D02*
X30007D01*
X33694D02*
X407766D01*
X2470Y130207D02*
X3198D01*
X7274D02*
X29812D01*
X33888D02*
X407766D01*
X2470Y130798D02*
X3184D01*
X7288D02*
X29798D01*
X33903D02*
X407766D01*
X2470Y131388D02*
X3346D01*
X7126D02*
X29961D01*
X33740D02*
X407766D01*
X2470Y131979D02*
X3741D01*
X6731D02*
X30356D01*
X33345D02*
X407766D01*
X2470Y132569D02*
X4468D01*
X6004D02*
X31404D01*
X32297D02*
X407766D01*
X2470Y133160D02*
X3653D01*
X6820D02*
X407766D01*
X2470Y133750D02*
X3305D01*
X7167D02*
X407766D01*
X2470Y134341D02*
X3175D01*
X7298D02*
X407766D01*
X2470Y134931D02*
X3217D01*
X7255D02*
X407766D01*
X2470Y135522D02*
X3446D01*
X7026D02*
X208668D01*
X210388D02*
X407766D01*
X2470Y136113D02*
X3958D01*
X6514D02*
X207912D01*
X211143D02*
X407766D01*
X2470Y136703D02*
X207582D01*
X211473D02*
X407766D01*
X2470Y137294D02*
X207463D01*
X211592D02*
X407766D01*
X2470Y137884D02*
X17075D01*
X20169D02*
X207518D01*
X211537D02*
X391091D01*
X394185D02*
X407766D01*
X2470Y138475D02*
X16185D01*
X21059D02*
X207761D01*
X211294D02*
X390201D01*
X395075D02*
X407766D01*
X2470Y139065D02*
X15658D01*
X21586D02*
X208301D01*
X210754D02*
X389674D01*
X395602D02*
X407766D01*
X2470Y139656D02*
X15315D01*
X21929D02*
X389331D01*
X395945D02*
X407766D01*
X2470Y140246D02*
X15102D01*
X22142D02*
X389118D01*
X396158D02*
X407766D01*
X2470Y140837D02*
X14997D01*
X22247D02*
X389012D01*
X396263D02*
X407766D01*
X2470Y141428D02*
X14989D01*
X22255D02*
X389004D01*
X396271D02*
X407766D01*
X2470Y142018D02*
X15078D01*
X22166D02*
X389094D01*
X396182D02*
X407766D01*
X2470Y142609D02*
X15272D01*
X21972D02*
X389288D01*
X395988D02*
X407766D01*
X2470Y143199D02*
X15591D01*
X21653D02*
X389606D01*
X395669D02*
X407766D01*
X2470Y143790D02*
X16081D01*
X21163D02*
X390097D01*
X395179D02*
X407766D01*
X2470Y144380D02*
X16882D01*
X20362D02*
X390898D01*
X394378D02*
X407766D01*
X2470Y144971D02*
X407766D01*
X2470Y145561D02*
X407766D01*
X2470Y146152D02*
X407766D01*
X2470Y146743D02*
X222474D01*
X226916D02*
X231490D01*
X235931D02*
X240506D01*
X244947D02*
X249521D01*
X253963D02*
X258537D01*
X262979D02*
X267553D01*
X271994D02*
X276569D01*
X281010D02*
X285584D01*
X290026D02*
X294600D01*
X299042D02*
X407766D01*
X2470Y147333D02*
X221590D01*
X227800D02*
X230606D01*
X236815D02*
X239622D01*
X245831D02*
X248637D01*
X254847D02*
X257653D01*
X263863D02*
X266669D01*
X272878D02*
X275685D01*
X281894D02*
X284700D01*
X290910D02*
X293716D01*
X299926D02*
X407766D01*
X2470Y147924D02*
X192507D01*
X193320D02*
X221000D01*
X228389D02*
X230016D01*
X237405D02*
X239032D01*
X246421D02*
X248048D01*
X255437D02*
X257063D01*
X264452D02*
X266079D01*
X273468D02*
X275095D01*
X282484D02*
X284111D01*
X291500D02*
X293126D01*
X300515D02*
X323688D01*
X324501D02*
X407766D01*
X2470Y148514D02*
X189003D01*
X196823D02*
X220576D01*
X228813D02*
X229592D01*
X237829D02*
X238608D01*
X246845D02*
X247624D01*
X255861D02*
X256639D01*
X264876D02*
X265655D01*
X273892D02*
X274671D01*
X282908D02*
X283687D01*
X291924D02*
X292702D01*
X300939D02*
X320184D01*
X328005D02*
X407766D01*
X2470Y149105D02*
X187462D01*
X198365D02*
X220270D01*
X229120D02*
X229286D01*
X238135D02*
X238302D01*
X247151D02*
X247317D01*
X256167D02*
X256333D01*
X265183D02*
X265349D01*
X274198D02*
X274365D01*
X283214D02*
X283380D01*
X292230D02*
X292396D01*
X301246D02*
X318643D01*
X329546D02*
X407766D01*
X2470Y149695D02*
X186322D01*
X199505D02*
X220059D01*
X301457D02*
X317503D01*
X330686D02*
X407766D01*
X2470Y150286D02*
X185398D01*
X200428D02*
X219929D01*
X301587D02*
X316580D01*
X331609D02*
X407766D01*
X2470Y150876D02*
X184618D01*
X201208D02*
X219874D01*
X301641D02*
X315799D01*
X332390D02*
X407766D01*
X2470Y151467D02*
X183944D01*
X201882D02*
X219892D01*
X301623D02*
X315125D01*
X333064D02*
X407766D01*
X2470Y152057D02*
X183354D01*
X202473D02*
X219984D01*
X301532D02*
X314535D01*
X333654D02*
X407766D01*
X2470Y152648D02*
X182832D01*
X202994D02*
X220154D01*
X301362D02*
X314014D01*
X334175D02*
X407766D01*
X2470Y153239D02*
X182370D01*
X203457D02*
X220411D01*
X228979D02*
X229426D01*
X237995D02*
X238442D01*
X247011D02*
X247458D01*
X256026D02*
X256474D01*
X265042D02*
X265489D01*
X274058D02*
X274505D01*
X283074D02*
X283521D01*
X292089D02*
X292537D01*
X301105D02*
X313551D01*
X334638D02*
X407766D01*
X2470Y153829D02*
X181958D01*
X203869D02*
X220772D01*
X228618D02*
X229788D01*
X237634D02*
X238804D01*
X246649D02*
X247819D01*
X255665D02*
X256835D01*
X264681D02*
X265851D01*
X273696D02*
X274866D01*
X282712D02*
X283882D01*
X291728D02*
X292898D01*
X300744D02*
X313139D01*
X335050D02*
X407766D01*
X2470Y154420D02*
X181592D01*
X204234D02*
X221270D01*
X228119D02*
X230286D01*
X237135D02*
X239302D01*
X246151D02*
X248318D01*
X255167D02*
X257333D01*
X264182D02*
X266349D01*
X273198D02*
X275365D01*
X282214D02*
X284381D01*
X291230D02*
X293396D01*
X300245D02*
X312774D01*
X335415D02*
X407766D01*
X2470Y155010D02*
X181268D01*
X204559D02*
X221981D01*
X227409D02*
X230996D01*
X236425D02*
X240012D01*
X245441D02*
X249028D01*
X254456D02*
X258044D01*
X263472D02*
X267059D01*
X272488D02*
X276075D01*
X281504D02*
X285091D01*
X290519D02*
X294107D01*
X299535D02*
X312449D01*
X335740D02*
X407766D01*
X2470Y155601D02*
X180982D01*
X204845D02*
X223175D01*
X226215D02*
X232191D01*
X235230D02*
X241207D01*
X244246D02*
X250223D01*
X253262D02*
X259238D01*
X262277D02*
X268254D01*
X271293D02*
X277270D01*
X280309D02*
X286286D01*
X289325D02*
X295301D01*
X298341D02*
X312163D01*
X336026D02*
X407766D01*
X2470Y156191D02*
X180730D01*
X205096D02*
X218181D01*
X222193D02*
X227196D01*
X231209D02*
X236212D01*
X240225D02*
X245228D01*
X249241D02*
X254244D01*
X258256D02*
X263259D01*
X267272D02*
X272275D01*
X276288D02*
X281291D01*
X285304D02*
X290307D01*
X294319D02*
X311912D01*
X336277D02*
X407766D01*
X2470Y156782D02*
X180512D01*
X205314D02*
X217124D01*
X223250D02*
X226139D01*
X232266D02*
X235155D01*
X241282D02*
X244171D01*
X250298D02*
X253187D01*
X259313D02*
X262202D01*
X268329D02*
X271218D01*
X277345D02*
X280234D01*
X286361D02*
X289250D01*
X295376D02*
X311694D01*
X336495D02*
X407766D01*
X2470Y157372D02*
X180326D01*
X205501D02*
X216439D01*
X223935D02*
X225455D01*
X232951D02*
X234471D01*
X241966D02*
X243486D01*
X250982D02*
X252502D01*
X259998D02*
X261518D01*
X269014D02*
X270534D01*
X278029D02*
X279549D01*
X287045D02*
X288565D01*
X296061D02*
X311507D01*
X336682D02*
X407766D01*
X2470Y157963D02*
X180169D01*
X205657D02*
X215943D01*
X224431D02*
X224959D01*
X233446D02*
X233975D01*
X242462D02*
X242991D01*
X251478D02*
X252006D01*
X260494D02*
X261022D01*
X269509D02*
X270038D01*
X278525D02*
X279054D01*
X287541D02*
X288069D01*
X296557D02*
X311351D01*
X336838D02*
X407766D01*
X2470Y158554D02*
X180042D01*
X205785D02*
X215574D01*
X296926D02*
X311223D01*
X336966D02*
X407766D01*
X2470Y159144D02*
X30297D01*
X36352D02*
X179943D01*
X205884D02*
X215304D01*
X297196D02*
X311124D01*
X337065D02*
X407766D01*
X2470Y159735D02*
X25780D01*
X45370D02*
X179871D01*
X205956D02*
X215116D01*
X297384D02*
X311052D01*
X337137D02*
X407766D01*
X2470Y160325D02*
X25780D01*
X45370D02*
X179826D01*
X206001D02*
X215002D01*
X297498D02*
X311007D01*
X337182D02*
X407766D01*
X2470Y160916D02*
X25780D01*
X45370D02*
X179808D01*
X206019D02*
X214956D01*
X297544D02*
X310989D01*
X337200D02*
X407766D01*
X2470Y161506D02*
X25780D01*
X45370D02*
X179816D01*
X206011D02*
X214977D01*
X297523D02*
X310997D01*
X337192D02*
X407766D01*
X2470Y162097D02*
X25780D01*
X45370D02*
X179851D01*
X205976D02*
X215066D01*
X297434D02*
X311032D01*
X337157D02*
X407766D01*
X2470Y162687D02*
X25780D01*
X45370D02*
X179913D01*
X205914D02*
X215226D01*
X297274D02*
X311094D01*
X337095D02*
X407766D01*
X2470Y163278D02*
X25780D01*
X45370D02*
X180002D01*
X205824D02*
X215465D01*
X297035D02*
X311184D01*
X337005D02*
X407766D01*
X2470Y163869D02*
X25780D01*
X45370D02*
X180120D01*
X205707D02*
X215796D01*
X224578D02*
X224811D01*
X233594D02*
X233827D01*
X242610D02*
X242843D01*
X251626D02*
X251859D01*
X260641D02*
X260874D01*
X269657D02*
X269890D01*
X278673D02*
X278906D01*
X287689D02*
X287922D01*
X296704D02*
X311301D01*
X336888D02*
X407766D01*
X2470Y164459D02*
X25780D01*
X45370D02*
X180265D01*
X205561D02*
X216241D01*
X224133D02*
X225256D01*
X233149D02*
X234272D01*
X242165D02*
X243288D01*
X251181D02*
X252304D01*
X260196D02*
X261319D01*
X269212D02*
X270335D01*
X278228D02*
X279351D01*
X287244D02*
X288367D01*
X296259D02*
X311446D01*
X336743D02*
X407766D01*
X2470Y165050D02*
X25780D01*
X45370D02*
X180441D01*
X205386D02*
X216845D01*
X223529D02*
X225861D01*
X232545D02*
X234877D01*
X241560D02*
X243892D01*
X250576D02*
X252908D01*
X259592D02*
X261924D01*
X268608D02*
X270940D01*
X277623D02*
X279955D01*
X286639D02*
X288971D01*
X295655D02*
X311622D01*
X336567D02*
X407766D01*
X2470Y165640D02*
X25780D01*
X45370D02*
X180647D01*
X205180D02*
X217724D01*
X222650D02*
X226740D01*
X231665D02*
X235756D01*
X240681D02*
X244772D01*
X249697D02*
X253787D01*
X258713D02*
X262803D01*
X267728D02*
X271819D01*
X276744D02*
X280835D01*
X285760D02*
X289850D01*
X294776D02*
X311828D01*
X336361D02*
X407766D01*
X2470Y166231D02*
X25780D01*
X45370D02*
X180886D01*
X204941D02*
X219674D01*
X220700D02*
X224159D01*
X225231D02*
X228690D01*
X229716D02*
X233174D01*
X234247D02*
X237706D01*
X238731D02*
X242190D01*
X243263D02*
X246721D01*
X247747D02*
X251206D01*
X252279D02*
X255737D01*
X256763D02*
X260221D01*
X261294D02*
X264753D01*
X265779D02*
X269237D01*
X270310D02*
X273769D01*
X274794D02*
X278253D01*
X279326D02*
X282784D01*
X283810D02*
X287269D01*
X288341D02*
X291800D01*
X292826D02*
X312067D01*
X336122D02*
X407766D01*
X2470Y166821D02*
X25987D01*
X45163D02*
X181159D01*
X204668D02*
X222328D01*
X227061D02*
X231344D01*
X236077D02*
X240360D01*
X245093D02*
X249376D01*
X254109D02*
X258391D01*
X263124D02*
X267407D01*
X272140D02*
X276423D01*
X281156D02*
X285439D01*
X290172D02*
X312340D01*
X335849D02*
X407766D01*
X2470Y167412D02*
X181469D01*
X204357D02*
X221499D01*
X227891D02*
X230515D01*
X236907D02*
X239530D01*
X245922D02*
X248546D01*
X254938D02*
X257562D01*
X263954D02*
X266578D01*
X272970D02*
X275593D01*
X281985D02*
X284609D01*
X291001D02*
X312650D01*
X335539D02*
X407766D01*
X2470Y168002D02*
X181820D01*
X204007D02*
X220936D01*
X228454D02*
X229951D01*
X237470D02*
X238967D01*
X246486D02*
X247983D01*
X255501D02*
X256999D01*
X264517D02*
X266014D01*
X273533D02*
X275030D01*
X282549D02*
X284046D01*
X291564D02*
X313001D01*
X335188D02*
X407766D01*
X2470Y168593D02*
X182214D01*
X203613D02*
X220529D01*
X228860D02*
X229545D01*
X237876D02*
X238561D01*
X246892D02*
X247577D01*
X255908D02*
X256592D01*
X264923D02*
X265608D01*
X273939D02*
X274624D01*
X282955D02*
X283640D01*
X291971D02*
X313395D01*
X334794D02*
X407766D01*
X2470Y169183D02*
X182657D01*
X203170D02*
X220237D01*
X229153D02*
X229253D01*
X238169D02*
X238268D01*
X247184D02*
X247284D01*
X256200D02*
X256300D01*
X265216D02*
X265316D01*
X274232D02*
X274331D01*
X283247D02*
X283347D01*
X292263D02*
X313838D01*
X334351D02*
X407766D01*
X2470Y169774D02*
X183156D01*
X202671D02*
X220037D01*
X292463D02*
X314337D01*
X333852D02*
X407766D01*
X2470Y170365D02*
X183720D01*
X202107D02*
X219917D01*
X292583D02*
X314901D01*
X333288D02*
X407766D01*
X2470Y170955D02*
X184361D01*
X201466D02*
X219873D01*
X292627D02*
X315542D01*
X332647D02*
X407766D01*
X2470Y171546D02*
X185099D01*
X200728D02*
X219900D01*
X292600D02*
X316280D01*
X331909D02*
X407766D01*
X2470Y172136D02*
X185965D01*
X199862D02*
X220002D01*
X292498D02*
X317146D01*
X331043D02*
X407766D01*
X2470Y172727D02*
X187013D01*
X198814D02*
X220183D01*
X292317D02*
X318194D01*
X329995D02*
X407766D01*
X2470Y173317D02*
X188370D01*
X197456D02*
X220452D01*
X228937D02*
X229468D01*
X237953D02*
X238484D01*
X246969D02*
X247500D01*
X255985D02*
X256515D01*
X265000D02*
X265531D01*
X274016D02*
X274547D01*
X283032D02*
X283563D01*
X292048D02*
X319551D01*
X328638D02*
X407766D01*
X2470Y173908D02*
X190511D01*
X195316D02*
X220830D01*
X228560D02*
X229845D01*
X237576D02*
X238861D01*
X246592D02*
X247877D01*
X255607D02*
X256893D01*
X264623D02*
X265908D01*
X273639D02*
X274924D01*
X282655D02*
X283940D01*
X291670D02*
X321692D01*
X326497D02*
X407766D01*
X2470Y174498D02*
X221350D01*
X228039D02*
X230366D01*
X237055D02*
X239382D01*
X246071D02*
X248398D01*
X255087D02*
X257413D01*
X264102D02*
X266429D01*
X273118D02*
X275445D01*
X282134D02*
X284461D01*
X291150D02*
X407766D01*
X2470Y175089D02*
X222100D01*
X227290D02*
X231116D01*
X236305D02*
X240132D01*
X245321D02*
X249147D01*
X254337D02*
X258163D01*
X263353D02*
X267179D01*
X272368D02*
X276195D01*
X281384D02*
X285210D01*
X290400D02*
X407766D01*
X2470Y175680D02*
X223437D01*
X225953D02*
X232453D01*
X234969D02*
X241469D01*
X243984D02*
X250484D01*
X253000D02*
X259500D01*
X262016D02*
X268516D01*
X271031D02*
X277531D01*
X280047D02*
X286547D01*
X289063D02*
X407766D01*
X2470Y176270D02*
X407766D01*
X2470Y176861D02*
X407766D01*
X2470Y177451D02*
X407766D01*
X2470Y178042D02*
X407766D01*
X2470Y178632D02*
X407766D01*
X2470Y179223D02*
X407766D01*
X2470Y179813D02*
X407766D01*
X205118Y88904D02*
Y29528D01*
X334449*
Y71294*
X334317Y71510*
X334212Y71739*
X334136Y71980*
X334090Y72228*
X334075Y72480*
X334090Y72732*
X334136Y72981*
X334212Y73221*
X334317Y73451*
X334449Y73666*
Y123622*
X205118*
Y92119*
X205317Y92262*
X205532Y92379*
X205759Y92471*
X205995Y92535*
X206237Y92571*
X206481Y92578*
X206725Y92556*
X206964Y92505*
X207196Y92426*
X207417Y92321*
X207624Y92190*
X207814Y92036*
X207984Y91860*
X208132Y91666*
X208257Y91455*
X208355Y91231*
X208427Y90997*
X208470Y90756*
X208484Y90512*
X208470Y90268*
X208427Y90027*
X208355Y89793*
X208257Y89569*
X208132Y89358*
X207984Y89163*
X207814Y88988*
X207624Y88833*
X207417Y88703*
X207196Y88597*
X206964Y88519*
X206725Y88468*
X206481Y88446*
X206237Y88453*
X205995Y88489*
X205759Y88553*
X205532Y88644*
X205317Y88762*
X205118Y88904*
X208878Y105925D02*
X208893Y106174D01*
X208938Y106420*
X209012Y106658*
X209115Y106886*
X209244Y107099*
X209398Y107296*
X209574Y107472*
X209771Y107626*
X209984Y107755*
X210212Y107858*
X210450Y107932*
X210696Y107977*
X210945Y107992*
X211194Y107977*
X211440Y107932*
X211678Y107858*
X211905Y107755*
X212119Y107626*
X212315Y107472*
X212492Y107296*
X212646Y107099*
X212775Y106886*
X212877Y106658*
X212952Y106420*
X212997Y106174*
X213012Y105925*
X212997Y105676*
X212952Y105431*
X212877Y105192*
X212775Y104965*
X212646Y104751*
X212492Y104555*
X212315Y104378*
X212119Y104224*
X211905Y104095*
X211678Y103993*
X211440Y103918*
X211194Y103873*
X210945Y103858*
X210696Y103873*
X210450Y103918*
X210212Y103993*
X209984Y104095*
X209771Y104224*
X209574Y104378*
X209398Y104555*
X209244Y104751*
X209115Y104965*
X209012Y105192*
X208938Y105431*
X208893Y105676*
X208878Y105925*
X217343Y101614D02*
X217358Y101863D01*
X217403Y102109*
X217477Y102347*
X217579Y102575*
X217708Y102788*
X217862Y102985*
X218039Y103161*
X218235Y103315*
X218449Y103444*
X218677Y103547*
X218915Y103621*
X219160Y103666*
X219409Y103681*
X219659Y103666*
X219904Y103621*
X220142Y103547*
X220370Y103444*
X220584Y103315*
X220780Y103161*
X220957Y102985*
X221111Y102788*
X221240Y102575*
X221342Y102347*
X221416Y102109*
X221461Y101863*
X221476Y101614*
X221461Y101365*
X221416Y101120*
X221342Y100881*
X221240Y100654*
X221111Y100440*
X220957Y100244*
X220780Y100067*
X220584Y99913*
X220370Y99784*
X220142Y99682*
X219904Y99607*
X219659Y99562*
X219409Y99547*
X219160Y99562*
X218915Y99607*
X218677Y99682*
X218449Y99784*
X218235Y99913*
X218039Y100067*
X217862Y100244*
X217708Y100440*
X217579Y100654*
X217477Y100881*
X217403Y101120*
X217358Y101365*
X217343Y101614*
X217854Y36693D02*
X217869Y36942D01*
X217914Y37188*
X217989Y37426*
X218091Y37653*
X218220Y37867*
X218374Y38064*
X218551Y38240*
X218747Y38394*
X218961Y38523*
X219188Y38626*
X219427Y38700*
X219672Y38745*
X219921Y38760*
X220170Y38745*
X220416Y38700*
X220654Y38626*
X220882Y38523*
X221095Y38394*
X221292Y38240*
X221468Y38064*
X221622Y37867*
X221751Y37653*
X221854Y37426*
X221928Y37188*
X221973Y36942*
X221988Y36693*
X221973Y36444*
X221928Y36198*
X221854Y35960*
X221751Y35732*
X221622Y35519*
X221468Y35322*
X221292Y35146*
X221095Y34992*
X220882Y34863*
X220654Y34760*
X220416Y34686*
X220170Y34641*
X219921Y34626*
X219672Y34641*
X219427Y34686*
X219188Y34760*
X218961Y34863*
X218747Y34992*
X218551Y35146*
X218374Y35322*
X218220Y35519*
X218091Y35732*
X217989Y35960*
X217914Y36198*
X217869Y36444*
X217854Y36693*
X217343Y110276D02*
X217358Y110525D01*
X217403Y110770*
X217477Y111009*
X217579Y111236*
X217708Y111450*
X217862Y111646*
X218039Y111823*
X218235Y111977*
X218449Y112106*
X218677Y112208*
X218915Y112282*
X219160Y112327*
X219409Y112343*
X219659Y112327*
X219904Y112282*
X220142Y112208*
X220370Y112106*
X220584Y111977*
X220780Y111823*
X220957Y111646*
X221111Y111450*
X221240Y111236*
X221342Y111009*
X221416Y110770*
X221461Y110525*
X221476Y110276*
X221461Y110026*
X221416Y109781*
X221342Y109543*
X221240Y109315*
X221111Y109101*
X220957Y108905*
X220780Y108729*
X220584Y108575*
X220370Y108445*
X220142Y108343*
X219904Y108269*
X219659Y108224*
X219409Y108209*
X219160Y108224*
X218915Y108269*
X218677Y108343*
X218449Y108445*
X218235Y108575*
X218039Y108729*
X217862Y108905*
X217708Y109101*
X217579Y109315*
X217477Y109543*
X217403Y109781*
X217358Y110026*
X217343Y110276*
X222382Y38386D02*
X222397Y38635D01*
X222442Y38880*
X222516Y39119*
X222619Y39346*
X222748Y39560*
X222902Y39756*
X223078Y39933*
X223275Y40087*
X223488Y40216*
X223716Y40318*
X223954Y40393*
X224200Y40438*
X224449Y40453*
X224698Y40438*
X224943Y40393*
X225182Y40318*
X225409Y40216*
X225623Y40087*
X225819Y39933*
X225996Y39756*
X226150Y39560*
X226279Y39346*
X226381Y39119*
X226456Y38880*
X226501Y38635*
X226516Y38386*
X226501Y38137*
X226456Y37891*
X226381Y37653*
X226279Y37425*
X226150Y37212*
X225996Y37015*
X225819Y36839*
X225623Y36685*
X225409Y36556*
X225182Y36453*
X224943Y36379*
X224698Y36334*
X224449Y36319*
X224200Y36334*
X223954Y36379*
X223716Y36453*
X223488Y36556*
X223275Y36685*
X223078Y36839*
X222902Y37015*
X222748Y37212*
X222619Y37425*
X222516Y37653*
X222442Y37891*
X222397Y38137*
X222382Y38386*
X222618Y68937D02*
X222633Y69186D01*
X222678Y69432*
X222752Y69670*
X222855Y69898*
X222984Y70111*
X223138Y70308*
X223314Y70484*
X223511Y70638*
X223724Y70767*
X223952Y70870*
X224190Y70944*
X224436Y70989*
X224685Y71004*
X224934Y70989*
X225180Y70944*
X225418Y70870*
X225646Y70767*
X225859Y70638*
X226056Y70484*
X226232Y70308*
X226386Y70111*
X226515Y69898*
X226618Y69670*
X226692Y69432*
X226737Y69186*
X226752Y68937*
X226737Y68688*
X226692Y68442*
X226618Y68204*
X226515Y67976*
X226386Y67763*
X226232Y67566*
X226056Y67390*
X225859Y67236*
X225646Y67107*
X225418Y67004*
X225180Y66930*
X224934Y66885*
X224685Y66870*
X224436Y66885*
X224190Y66930*
X223952Y67004*
X223724Y67107*
X223511Y67236*
X223314Y67390*
X223138Y67566*
X222984Y67763*
X222855Y67976*
X222752Y68204*
X222678Y68442*
X222633Y68688*
X222618Y68937*
X225610Y105925D02*
X225625Y106174D01*
X225670Y106420*
X225745Y106658*
X225847Y106886*
X225976Y107099*
X226130Y107296*
X226307Y107472*
X226503Y107626*
X226717Y107755*
X226944Y107858*
X227183Y107932*
X227428Y107977*
X227677Y107992*
X227926Y107977*
X228172Y107932*
X228410Y107858*
X228638Y107755*
X228851Y107626*
X229048Y107472*
X229224Y107296*
X229378Y107099*
X229507Y106886*
X229610Y106658*
X229684Y106420*
X229729Y106174*
X229744Y105925*
X229729Y105676*
X229684Y105431*
X229610Y105192*
X229507Y104965*
X229378Y104751*
X229224Y104555*
X229048Y104378*
X228851Y104224*
X228638Y104095*
X228410Y103993*
X228172Y103918*
X227926Y103873*
X227677Y103858*
X227428Y103873*
X227183Y103918*
X226944Y103993*
X226717Y104095*
X226503Y104224*
X226307Y104378*
X226130Y104555*
X225976Y104751*
X225847Y104965*
X225745Y105192*
X225670Y105431*
X225625Y105676*
X225610Y105925*
X241555Y40669D02*
X241570Y40918D01*
X241615Y41164*
X241689Y41402*
X241792Y41630*
X241921Y41843*
X242075Y42040*
X242251Y42216*
X242448Y42370*
X242661Y42499*
X242889Y42602*
X243127Y42676*
X243373Y42721*
X243622Y42736*
X243871Y42721*
X244117Y42676*
X244355Y42602*
X244583Y42499*
X244796Y42370*
X244993Y42216*
X245169Y42040*
X245323Y41843*
X245452Y41630*
X245555Y41402*
X245629Y41164*
X245674Y40918*
X245689Y40669*
X245674Y40420*
X245629Y40175*
X245555Y39936*
X245452Y39709*
X245323Y39495*
X245169Y39299*
X244993Y39122*
X244796Y38968*
X244583Y38839*
X244355Y38737*
X244117Y38662*
X243871Y38617*
X243622Y38602*
X243373Y38617*
X243127Y38662*
X242889Y38737*
X242661Y38839*
X242448Y38968*
X242251Y39122*
X242075Y39299*
X241921Y39495*
X241792Y39709*
X241689Y39936*
X241615Y40175*
X241570Y40420*
X241555Y40669*
X241791Y60945D02*
X241806Y61194D01*
X241851Y61440*
X241926Y61678*
X242028Y61905*
X242157Y62119*
X242311Y62315*
X242488Y62492*
X242684Y62646*
X242898Y62775*
X243125Y62877*
X243364Y62952*
X243609Y62997*
X243858Y63012*
X244107Y62997*
X244353Y62952*
X244591Y62877*
X244819Y62775*
X245032Y62646*
X245229Y62492*
X245405Y62315*
X245559Y62119*
X245688Y61905*
X245791Y61678*
X245865Y61440*
X245910Y61194*
X245925Y60945*
X245910Y60696*
X245865Y60450*
X245791Y60212*
X245688Y59984*
X245559Y59771*
X245405Y59574*
X245229Y59398*
X245032Y59244*
X244819Y59115*
X244591Y59012*
X244353Y58938*
X244107Y58893*
X243858Y58878*
X243609Y58893*
X243364Y58938*
X243125Y59012*
X242898Y59115*
X242684Y59244*
X242488Y59398*
X242311Y59574*
X242157Y59771*
X242028Y59984*
X241926Y60212*
X241851Y60450*
X241806Y60696*
X241791Y60945*
X250295Y38740D02*
X250310Y38989D01*
X250355Y39235*
X250430Y39473*
X250532Y39701*
X250661Y39914*
X250815Y40111*
X250992Y40287*
X251188Y40441*
X251402Y40570*
X251629Y40673*
X251868Y40747*
X252113Y40792*
X252362Y40807*
X252611Y40792*
X252857Y40747*
X253095Y40673*
X253323Y40570*
X253536Y40441*
X253733Y40287*
X253909Y40111*
X254063Y39914*
X254192Y39701*
X254295Y39473*
X254369Y39235*
X254414Y38989*
X254429Y38740*
X254414Y38492*
X254370Y38248*
X254296Y38011*
X254195Y37785*
X254067Y37572*
X253915Y37376*
X253740Y37200*
X253546Y37046*
X253334Y36916*
X253109Y36813*
X252872Y36737*
X252628Y36690*
X252381Y36673*
X252133Y36686*
X252146Y36457*
X252131Y36208*
X252086Y35962*
X252011Y35724*
X251909Y35496*
X251780Y35283*
X251626Y35086*
X251449Y34910*
X251253Y34756*
X251039Y34627*
X250812Y34524*
X250573Y34450*
X250328Y34405*
X250079Y34390*
X249830Y34405*
X249584Y34450*
X249346Y34524*
X249118Y34627*
X248905Y34756*
X248708Y34910*
X248532Y35086*
X248378Y35283*
X248249Y35496*
X248146Y35724*
X248072Y35962*
X248027Y36208*
X248012Y36457*
X248027Y36704*
X248071Y36949*
X248145Y37186*
X248246Y37412*
X248374Y37625*
X248526Y37821*
X248701Y37997*
X248895Y38151*
X249107Y38281*
X249332Y38384*
X249569Y38460*
X249813Y38506*
X250060Y38524*
X250308Y38511*
X250295Y38740*
X249783Y68524D02*
X249799Y68773D01*
X249844Y69018*
X249918Y69257*
X250020Y69484*
X250149Y69698*
X250303Y69894*
X250480Y70071*
X250676Y70225*
X250890Y70354*
X251117Y70456*
X251356Y70530*
X251601Y70575*
X251850Y70591*
X252100Y70575*
X252345Y70530*
X252583Y70456*
X252811Y70354*
X253025Y70225*
X253221Y70071*
X253397Y69894*
X253551Y69698*
X253681Y69484*
X253783Y69257*
X253857Y69018*
X253902Y68773*
X253917Y68524*
X253902Y68274*
X253857Y68029*
X253783Y67791*
X253681Y67563*
X253551Y67349*
X253397Y67153*
X253221Y66977*
X253025Y66823*
X252811Y66693*
X252583Y66591*
X252345Y66517*
X252100Y66472*
X251850Y66457*
X251601Y66472*
X251356Y66517*
X251117Y66591*
X250890Y66693*
X250676Y66823*
X250480Y66977*
X250303Y67153*
X250149Y67349*
X250020Y67563*
X249918Y67791*
X249844Y68029*
X249799Y68274*
X249783Y68524*
X266358Y59094D02*
X266373Y59344D01*
X266418Y59589*
X266493Y59827*
X266595Y60055*
X266724Y60269*
X266878Y60465*
X267055Y60642*
X267251Y60796*
X267465Y60925*
X267692Y61027*
X267931Y61101*
X268176Y61146*
X268425Y61161*
X268674Y61146*
X268920Y61101*
X269158Y61027*
X269386Y60925*
X269599Y60796*
X269796Y60642*
X269972Y60465*
X270126Y60269*
X270255Y60055*
X270358Y59827*
X270432Y59589*
X270477Y59344*
X270492Y59094*
X270477Y58845*
X270432Y58600*
X270358Y58362*
X270255Y58134*
X270126Y57920*
X269972Y57724*
X269796Y57547*
X269599Y57393*
X269386Y57264*
X269158Y57162*
X268920Y57088*
X268674Y57043*
X268425Y57028*
X268176Y57043*
X267931Y57088*
X267692Y57162*
X267465Y57264*
X267251Y57393*
X267055Y57547*
X266878Y57724*
X266724Y57920*
X266595Y58134*
X266493Y58362*
X266418Y58600*
X266373Y58845*
X266358Y59094*
X269114Y88228D02*
X269129Y88477D01*
X269174Y88723*
X269249Y88961*
X269351Y89189*
X269480Y89402*
X269634Y89599*
X269811Y89775*
X270007Y89929*
X270221Y90059*
X270448Y90161*
X270686Y90235*
X270932Y90280*
X271181Y90295*
X271430Y90280*
X271676Y90235*
X271914Y90161*
X272142Y90059*
X272355Y89929*
X272552Y89775*
X272728Y89599*
X272882Y89402*
X273011Y89189*
X273114Y88961*
X273188Y88723*
X273233Y88477*
X273248Y88228*
X273233Y87979*
X273188Y87734*
X273114Y87495*
X273011Y87268*
X272882Y87054*
X272728Y86858*
X272552Y86681*
X272355Y86527*
X272142Y86398*
X271914Y86296*
X271676Y86221*
X271430Y86176*
X271181Y86161*
X270932Y86176*
X270686Y86221*
X270448Y86296*
X270221Y86398*
X270007Y86527*
X269811Y86681*
X269634Y86858*
X269480Y87054*
X269351Y87268*
X269249Y87495*
X269174Y87734*
X269129Y87979*
X269114Y88228*
X271673Y66260D02*
X271688Y66509D01*
X271733Y66754*
X271808Y66993*
X271910Y67220*
X272039Y67434*
X272193Y67630*
X272370Y67807*
X272566Y67961*
X272780Y68090*
X273007Y68192*
X273246Y68267*
X273491Y68312*
X273740Y68327*
X273989Y68312*
X274235Y68267*
X274473Y68192*
X274701Y68090*
X274914Y67961*
X275111Y67807*
X275287Y67630*
X275441Y67434*
X275570Y67220*
X275673Y66993*
X275747Y66754*
X275792Y66509*
X275807Y66260*
X275792Y66011*
X275747Y65765*
X275673Y65527*
X275570Y65299*
X275441Y65086*
X275287Y64889*
X275111Y64713*
X274914Y64559*
X274701Y64430*
X274473Y64327*
X274235Y64253*
X273989Y64208*
X273740Y64193*
X273491Y64208*
X273246Y64253*
X273007Y64327*
X272780Y64430*
X272566Y64559*
X272370Y64713*
X272193Y64889*
X272039Y65086*
X271910Y65299*
X271808Y65527*
X271733Y65765*
X271688Y66011*
X271673Y66260*
X276240Y71063D02*
X276255Y71312D01*
X276300Y71558*
X276374Y71796*
X276477Y72024*
X276606Y72237*
X276760Y72434*
X276936Y72610*
X277133Y72764*
X277347Y72893*
X277574Y72996*
X277812Y73070*
X278058Y73115*
X278307Y73130*
X278556Y73115*
X278802Y73070*
X279040Y72996*
X279268Y72893*
X279481Y72764*
X279678Y72610*
X279854Y72434*
X280008Y72237*
X280137Y72024*
X280240Y71796*
X280314Y71558*
X280359Y71312*
X280374Y71063*
X280359Y70814*
X280314Y70568*
X280240Y70330*
X280137Y70102*
X280008Y69889*
X279854Y69692*
X279678Y69516*
X279481Y69362*
X279268Y69233*
X279040Y69130*
X278802Y69056*
X278556Y69011*
X278307Y68996*
X278058Y69011*
X277812Y69056*
X277574Y69130*
X277347Y69233*
X277133Y69362*
X276936Y69516*
X276760Y69692*
X276606Y69889*
X276477Y70102*
X276374Y70330*
X276300Y70568*
X276255Y70814*
X276240Y71063*
X277579Y65984D02*
X277594Y66233D01*
X277639Y66479*
X277713Y66717*
X277816Y66945*
X277945Y67158*
X278099Y67355*
X278275Y67531*
X278472Y67685*
X278685Y67814*
X278913Y67917*
X279151Y67991*
X279397Y68036*
X279646Y68051*
X279895Y68036*
X280140Y67991*
X280379Y67917*
X280606Y67814*
X280820Y67685*
X281016Y67531*
X281193Y67355*
X281347Y67158*
X281476Y66945*
X281578Y66717*
X281653Y66479*
X281698Y66233*
X281713Y65984*
X281698Y65735*
X281653Y65490*
X281578Y65251*
X281476Y65024*
X281347Y64810*
X281193Y64614*
X281016Y64437*
X280820Y64283*
X280606Y64154*
X280379Y64052*
X280140Y63977*
X279895Y63932*
X279646Y63917*
X279397Y63932*
X279151Y63977*
X278913Y64052*
X278685Y64154*
X278472Y64283*
X278275Y64437*
X278099Y64614*
X277945Y64810*
X277816Y65024*
X277713Y65251*
X277639Y65490*
X277594Y65735*
X277579Y65984*
X279547Y92756D02*
X279562Y93005D01*
X279607Y93251*
X279682Y93489*
X279784Y93716*
X279913Y93930*
X280067Y94126*
X280244Y94303*
X280440Y94457*
X280654Y94586*
X280881Y94689*
X281120Y94763*
X281365Y94808*
X281614Y94823*
X281863Y94808*
X282109Y94763*
X282347Y94689*
X282575Y94586*
X282788Y94457*
X282985Y94303*
X283161Y94126*
X283315Y93930*
X283444Y93716*
X283547Y93489*
X283621Y93251*
X283666Y93005*
X283681Y92756*
X283666Y92507*
X283621Y92261*
X283547Y92023*
X283444Y91795*
X283315Y91582*
X283161Y91385*
X282985Y91209*
X282788Y91055*
X282575Y90926*
X282347Y90823*
X282109Y90749*
X281863Y90704*
X281614Y90689*
X281365Y90704*
X281120Y90749*
X280881Y90823*
X280654Y90926*
X280440Y91055*
X280244Y91209*
X280067Y91385*
X279913Y91582*
X279784Y91795*
X279682Y92023*
X279607Y92261*
X279562Y92507*
X279547Y92756*
X282539Y65984D02*
X282554Y66233D01*
X282599Y66479*
X282674Y66717*
X282776Y66945*
X282905Y67158*
X283059Y67355*
X283236Y67531*
X283432Y67685*
X283646Y67814*
X283873Y67917*
X284112Y67991*
X284357Y68036*
X284606Y68051*
X284855Y68036*
X285101Y67991*
X285339Y67917*
X285567Y67814*
X285780Y67685*
X285977Y67531*
X286153Y67355*
X286307Y67158*
X286436Y66945*
X286539Y66717*
X286613Y66479*
X286658Y66233*
X286673Y65984*
X286658Y65735*
X286613Y65490*
X286539Y65251*
X286436Y65024*
X286307Y64810*
X286153Y64614*
X285977Y64437*
X285780Y64283*
X285567Y64154*
X285339Y64052*
X285101Y63977*
X284855Y63932*
X284606Y63917*
X284357Y63932*
X284112Y63977*
X283873Y64052*
X283646Y64154*
X283432Y64283*
X283236Y64437*
X283059Y64614*
X282905Y64810*
X282776Y65024*
X282674Y65251*
X282599Y65490*
X282554Y65735*
X282539Y65984*
X281516Y99528D02*
X281531Y99777D01*
X281576Y100022*
X281650Y100261*
X281753Y100488*
X281882Y100702*
X282036Y100898*
X282212Y101075*
X282409Y101229*
X282622Y101358*
X282850Y101460*
X283088Y101534*
X283334Y101579*
X283583Y101594*
X283832Y101579*
X284077Y101534*
X284316Y101460*
X284543Y101358*
X284757Y101229*
X284953Y101075*
X285130Y100898*
X285284Y100702*
X285413Y100488*
X285515Y100261*
X285590Y100022*
X285635Y99777*
X285650Y99528*
X285635Y99278*
X285590Y99033*
X285515Y98795*
X285413Y98567*
X285284Y98353*
X285130Y98157*
X284953Y97980*
X284757Y97827*
X284543Y97697*
X284316Y97595*
X284077Y97521*
X283832Y97476*
X283583Y97461*
X283334Y97476*
X283088Y97521*
X282850Y97595*
X282622Y97697*
X282409Y97827*
X282212Y97980*
X282036Y98157*
X281882Y98353*
X281753Y98567*
X281650Y98795*
X281576Y99033*
X281531Y99278*
X281516Y99528*
X285453Y71063D02*
X285468Y71312D01*
X285513Y71558*
X285587Y71796*
X285690Y72024*
X285819Y72237*
X285973Y72434*
X286149Y72610*
X286346Y72764*
X286559Y72893*
X286787Y72996*
X287025Y73070*
X287271Y73115*
X287520Y73130*
X287769Y73115*
X288014Y73070*
X288253Y72996*
X288480Y72893*
X288694Y72764*
X288890Y72610*
X289067Y72434*
X289221Y72237*
X289350Y72024*
X289452Y71796*
X289527Y71558*
X289572Y71312*
X289587Y71063*
X289572Y70814*
X289527Y70568*
X289452Y70330*
X289350Y70102*
X289221Y69889*
X289067Y69692*
X288890Y69516*
X288694Y69362*
X288480Y69233*
X288253Y69130*
X288014Y69056*
X287769Y69011*
X287520Y68996*
X287271Y69011*
X287025Y69056*
X286787Y69130*
X286559Y69233*
X286346Y69362*
X286149Y69516*
X285973Y69692*
X285819Y69889*
X285690Y70102*
X285587Y70330*
X285513Y70568*
X285468Y70814*
X285453Y71063*
X287736Y75039D02*
X287751Y75289D01*
X287796Y75534*
X287871Y75772*
X287973Y76000*
X288102Y76214*
X288256Y76410*
X288433Y76586*
X288629Y76740*
X288843Y76870*
X289070Y76972*
X289309Y77046*
X289554Y77091*
X289803Y77106*
X290052Y77091*
X290298Y77046*
X290536Y76972*
X290764Y76870*
X290977Y76740*
X291174Y76586*
X291350Y76410*
X291504Y76214*
X291633Y76000*
X291736Y75772*
X291810Y75534*
X291855Y75289*
X291870Y75039*
X291855Y74790*
X291810Y74545*
X291736Y74306*
X291633Y74079*
X291504Y73865*
X291350Y73669*
X291174Y73492*
X290977Y73338*
X290764Y73209*
X290536Y73107*
X290298Y73033*
X290052Y72988*
X289803Y72972*
X289554Y72988*
X289309Y73033*
X289070Y73107*
X288843Y73209*
X288629Y73338*
X288433Y73492*
X288256Y73669*
X288102Y73865*
X287973Y74079*
X287871Y74306*
X287796Y74545*
X287751Y74790*
X287736Y75039*
X290295Y82913D02*
X290310Y83163D01*
X290355Y83408*
X290430Y83646*
X290532Y83874*
X290661Y84088*
X290815Y84284*
X290992Y84460*
X291188Y84614*
X291402Y84744*
X291629Y84846*
X291868Y84920*
X292113Y84965*
X292362Y84980*
X292611Y84965*
X292857Y84920*
X293095Y84846*
X293323Y84744*
X293536Y84614*
X293733Y84460*
X293909Y84284*
X294063Y84088*
X294192Y83874*
X294295Y83646*
X294369Y83408*
X294414Y83163*
X294429Y82913*
X294414Y82664*
X294369Y82419*
X294295Y82180*
X294192Y81953*
X294063Y81739*
X293909Y81543*
X293733Y81366*
X293536Y81212*
X293323Y81083*
X293095Y80981*
X292857Y80907*
X292611Y80862*
X292362Y80846*
X292113Y80862*
X291868Y80907*
X291629Y80981*
X291402Y81083*
X291188Y81212*
X290992Y81366*
X290815Y81543*
X290661Y81739*
X290532Y81953*
X290430Y82180*
X290355Y82419*
X290310Y82664*
X290295Y82913*
X296641Y90040D02*
X296869Y90142D01*
X297107Y90216*
X297352Y90261*
X297601Y90276*
X297850Y90260*
X298095Y90215*
X298333Y90141*
X298561Y90038*
X298774Y89909*
X298970Y89755*
X299146Y89578*
X299300Y89382*
X299429Y89169*
X299531Y88941*
X299605Y88703*
X299650Y88458*
X299665Y88209*
X299650Y87960*
X299605Y87714*
X299531Y87476*
X299429Y87248*
X299299Y87035*
X299146Y86838*
X298969Y86662*
X298773Y86508*
X298559Y86379*
X298331Y86276*
X298093Y86202*
X297848Y86157*
X297598Y86142*
X297349Y86157*
X297104Y86202*
X296865Y86276*
X296638Y86379*
X296424Y86508*
X296228Y86662*
X296051Y86838*
X295897Y87035*
X295768Y87248*
X295666Y87476*
X295592Y87714*
X295547Y87960*
X295531Y88209*
X295544Y88431*
X295579Y88651*
X295639Y88866*
X295721Y89074*
X295494Y88972*
X295255Y88898*
X295010Y88853*
X294761Y88839*
X294512Y88854*
X294267Y88899*
X294029Y88974*
X293802Y89076*
X293588Y89205*
X293392Y89359*
X293216Y89536*
X293062Y89732*
X292933Y89946*
X292831Y90173*
X292757Y90411*
X292712Y90656*
X292697Y90906*
X292712Y91155*
X292757Y91400*
X292831Y91638*
X292934Y91866*
X293063Y92080*
X293217Y92276*
X293393Y92453*
X293590Y92607*
X293803Y92736*
X294031Y92838*
X294269Y92912*
X294515Y92957*
X294764Y92972*
X295013Y92957*
X295258Y92912*
X295497Y92838*
X295724Y92736*
X295938Y92607*
X296134Y92453*
X296311Y92276*
X296465Y92080*
X296594Y91866*
X296696Y91638*
X296771Y91400*
X296816Y91155*
X296831Y90906*
X296819Y90683*
X296783Y90463*
X296723Y90248*
X296641Y90040*
X294626Y72756D02*
X294641Y73005D01*
X294686Y73251*
X294760Y73489*
X294863Y73716*
X294992Y73930*
X295146Y74126*
X295322Y74303*
X295519Y74457*
X295732Y74586*
X295960Y74689*
X296198Y74763*
X296444Y74808*
X296693Y74823*
X296942Y74808*
X297188Y74763*
X297426Y74689*
X297653Y74586*
X297867Y74457*
X298064Y74303*
X298240Y74126*
X298394Y73930*
X298523Y73716*
X298626Y73489*
X298700Y73251*
X298745Y73005*
X298760Y72756*
X298745Y72507*
X298700Y72261*
X298626Y72023*
X298523Y71795*
X298394Y71582*
X298240Y71385*
X298064Y71209*
X297867Y71055*
X297653Y70926*
X297426Y70823*
X297188Y70749*
X296942Y70704*
X296693Y70689*
X296444Y70704*
X296198Y70749*
X295960Y70823*
X295732Y70926*
X295519Y71055*
X295322Y71209*
X295146Y71385*
X294992Y71582*
X294863Y71795*
X294760Y72023*
X294686Y72261*
X294641Y72507*
X294626Y72756*
X309744Y103563D02*
X309759Y103812D01*
X309804Y104058*
X309878Y104296*
X309981Y104524*
X310110Y104737*
X310264Y104934*
X310440Y105110*
X310637Y105264*
X310850Y105393*
X311078Y105496*
X311316Y105570*
X311562Y105615*
X311811Y105630*
X312060Y105615*
X312306Y105570*
X312544Y105496*
X312772Y105393*
X312985Y105264*
X313182Y105110*
X313358Y104934*
X313512Y104737*
X313641Y104524*
X313744Y104296*
X313818Y104058*
X313863Y103812*
X313878Y103563*
X313863Y103314*
X313818Y103068*
X313744Y102830*
X313641Y102602*
X313512Y102389*
X313358Y102192*
X313182Y102016*
X312985Y101862*
X312772Y101733*
X312544Y101630*
X312306Y101556*
X312060Y101511*
X311811Y101496*
X311562Y101511*
X311316Y101556*
X311078Y101630*
X310850Y101733*
X310637Y101862*
X310440Y102016*
X310264Y102192*
X310110Y102389*
X309981Y102602*
X309878Y102830*
X309804Y103068*
X309759Y103314*
X309744Y103563*
X310925Y75866D02*
X310940Y76115D01*
X310985Y76361*
X311060Y76599*
X311162Y76827*
X311291Y77040*
X311445Y77237*
X311622Y77413*
X311818Y77567*
X312032Y77696*
X312259Y77799*
X312497Y77873*
X312743Y77918*
X312992Y77933*
X313241Y77918*
X313487Y77873*
X313725Y77799*
X313953Y77696*
X314166Y77567*
X314363Y77413*
X314539Y77237*
X314693Y77040*
X314822Y76827*
X314925Y76599*
X314999Y76361*
X315044Y76115*
X315059Y75866*
X315044Y75617*
X314999Y75371*
X314925Y75133*
X314822Y74906*
X314693Y74692*
X314539Y74496*
X314363Y74319*
X314166Y74165*
X313953Y74036*
X313725Y73934*
X313487Y73859*
X313241Y73814*
X312992Y73799*
X312743Y73814*
X312497Y73859*
X312259Y73934*
X312032Y74036*
X311818Y74165*
X311622Y74319*
X311445Y74496*
X311291Y74692*
X311162Y74906*
X311060Y75133*
X310985Y75371*
X310940Y75617*
X310925Y75866*
X312815Y82913D02*
X312830Y83163D01*
X312875Y83408*
X312949Y83646*
X313052Y83874*
X313181Y84088*
X313335Y84284*
X313511Y84460*
X313708Y84614*
X313921Y84744*
X314149Y84846*
X314387Y84920*
X314633Y84965*
X314882Y84980*
X315131Y84965*
X315377Y84920*
X315615Y84846*
X315842Y84744*
X316056Y84614*
X316252Y84460*
X316429Y84284*
X316583Y84088*
X316712Y83874*
X316814Y83646*
X316889Y83408*
X316934Y83163*
X316949Y82913*
X316934Y82664*
X316889Y82419*
X316814Y82180*
X316712Y81953*
X316583Y81739*
X316429Y81543*
X316252Y81366*
X316056Y81212*
X315842Y81083*
X315615Y80981*
X315377Y80907*
X315131Y80862*
X314882Y80846*
X314633Y80862*
X314387Y80907*
X314149Y80981*
X313921Y81083*
X313708Y81212*
X313511Y81366*
X313335Y81543*
X313181Y81739*
X313052Y81953*
X312949Y82180*
X312875Y82419*
X312830Y82664*
X312815Y82913*
X316004Y46299D02*
X316019Y46548D01*
X316064Y46794*
X316138Y47032*
X316241Y47260*
X316370Y47473*
X316524Y47670*
X316700Y47846*
X316897Y48000*
X317110Y48129*
X317338Y48232*
X317576Y48306*
X317822Y48351*
X318071Y48366*
X318320Y48351*
X318566Y48306*
X318804Y48232*
X319031Y48129*
X319245Y48000*
X319441Y47846*
X319618Y47670*
X319772Y47473*
X319901Y47260*
X320003Y47032*
X320078Y46794*
X320123Y46548*
X320138Y46299*
X320123Y46050*
X320078Y45805*
X320003Y45566*
X319901Y45339*
X319772Y45125*
X319618Y44929*
X319441Y44752*
X319245Y44598*
X319031Y44469*
X318804Y44367*
X318566Y44292*
X318320Y44247*
X318071Y44232*
X317822Y44247*
X317576Y44292*
X317338Y44367*
X317110Y44469*
X316897Y44598*
X316700Y44752*
X316524Y44929*
X316370Y45125*
X316241Y45339*
X316138Y45566*
X316064Y45805*
X316019Y46050*
X316004Y46299*
X320256Y33189D02*
X320271Y33438D01*
X320316Y33684*
X320390Y33922*
X320493Y34150*
X320622Y34363*
X320776Y34560*
X320952Y34736*
X321149Y34890*
X321362Y35019*
X321590Y35122*
X321828Y35196*
X322074Y35241*
X322323Y35256*
X322572Y35241*
X322817Y35196*
X323056Y35122*
X323283Y35019*
X323497Y34890*
X323693Y34736*
X323870Y34560*
X324024Y34363*
X324153Y34150*
X324255Y33922*
X324330Y33684*
X324375Y33438*
X324390Y33189*
X324375Y32940*
X324330Y32694*
X324255Y32456*
X324153Y32229*
X324024Y32015*
X323870Y31819*
X323693Y31642*
X323497Y31488*
X323283Y31359*
X323056Y31256*
X322817Y31182*
X322572Y31137*
X322323Y31122*
X322074Y31137*
X321828Y31182*
X321590Y31256*
X321362Y31359*
X321149Y31488*
X320952Y31642*
X320776Y31819*
X320622Y32015*
X320493Y32229*
X320390Y32456*
X320316Y32694*
X320271Y32940*
X320256Y33189*
X325650Y119311D02*
X325665Y119560D01*
X325710Y119806*
X325784Y120044*
X325886Y120272*
X326016Y120485*
X326169Y120682*
X326346Y120858*
X326542Y121012*
X326756Y121141*
X326984Y121244*
X327222Y121318*
X327467Y121363*
X327717Y121378*
X327966Y121363*
X328211Y121318*
X328449Y121244*
X328677Y121141*
X328891Y121012*
X329087Y120858*
X329264Y120682*
X329418Y120485*
X329547Y120272*
X329649Y120044*
X329723Y119806*
X329768Y119560*
X329783Y119311*
X329768Y119062*
X329723Y118816*
X329649Y118578*
X329547Y118350*
X329418Y118137*
X329264Y117940*
X329087Y117764*
X328891Y117610*
X328677Y117481*
X328449Y117378*
X328211Y117304*
X327966Y117259*
X327717Y117244*
X327467Y117259*
X327222Y117304*
X326984Y117378*
X326756Y117481*
X326542Y117610*
X326346Y117764*
X326169Y117940*
X326016Y118137*
X325886Y118350*
X325784Y118578*
X325710Y118816*
X325665Y119062*
X325650Y119311*
X205118Y29849D02*
X334449D01*
X205118Y30440D02*
X334449D01*
X205118Y31030D02*
X334449D01*
X205118Y31621D02*
X320976D01*
X323669D02*
X334449D01*
X205118Y32211D02*
X320502D01*
X324144D02*
X334449D01*
X205118Y32802D02*
X320292D01*
X324353D02*
X334449D01*
X205118Y33392D02*
X320266D01*
X324380D02*
X334449D01*
X205118Y33983D02*
X320414D01*
X324231D02*
X334449D01*
X205118Y34574D02*
X249227D01*
X250931D02*
X320788D01*
X323858D02*
X334449D01*
X205118Y35164D02*
X218530D01*
X221312D02*
X248466D01*
X251692D02*
X321713D01*
X322932D02*
X334449D01*
X205118Y35755D02*
X218080D01*
X221763D02*
X248135D01*
X252023D02*
X334449D01*
X205118Y36345D02*
X217884D01*
X221959D02*
X224120D01*
X224777D02*
X248015D01*
X252143D02*
X334449D01*
X205118Y36936D02*
X217869D01*
X221974D02*
X222976D01*
X225922D02*
X248068D01*
X253370D02*
X334449D01*
X205118Y37526D02*
X218030D01*
X221813D02*
X222569D01*
X226329D02*
X248310D01*
X254035D02*
X334449D01*
X205118Y38117D02*
X218423D01*
X221419D02*
X222399D01*
X226498D02*
X248847D01*
X254333D02*
X334449D01*
X205118Y38707D02*
X219459D01*
X220384D02*
X222407D01*
X226491D02*
X242972D01*
X244273D02*
X250296D01*
X254429D02*
X334449D01*
X205118Y39298D02*
X222594D01*
X226304D02*
X242076D01*
X245169D02*
X250372D01*
X254352D02*
X334449D01*
X205118Y39889D02*
X223030D01*
X225868D02*
X241708D01*
X245536D02*
X250644D01*
X254081D02*
X334449D01*
X205118Y40479D02*
X241564D01*
X245680D02*
X251245D01*
X253480D02*
X334449D01*
X205118Y41070D02*
X241594D01*
X245650D02*
X334449D01*
X205118Y41660D02*
X241808D01*
X245436D02*
X334449D01*
X205118Y42251D02*
X242291D01*
X244953D02*
X334449D01*
X205118Y42841D02*
X334449D01*
X205118Y43432D02*
X334449D01*
X205118Y44022D02*
X334449D01*
X205118Y44613D02*
X316876D01*
X319266D02*
X334449D01*
X205118Y45203D02*
X316318D01*
X319823D02*
X334449D01*
X205118Y45794D02*
X316067D01*
X320075D02*
X334449D01*
X205118Y46385D02*
X316006D01*
X320136D02*
X334449D01*
X205118Y46975D02*
X316118D01*
X320024D02*
X334449D01*
X205118Y47566D02*
X316437D01*
X319704D02*
X334449D01*
X205118Y48156D02*
X317163D01*
X318978D02*
X334449D01*
X205118Y48747D02*
X334449D01*
X205118Y49337D02*
X334449D01*
X205118Y49928D02*
X334449D01*
X205118Y50518D02*
X334449D01*
X205118Y51109D02*
X334449D01*
X205118Y51700D02*
X334449D01*
X205118Y52290D02*
X334449D01*
X205118Y52881D02*
X334449D01*
X205118Y53471D02*
X334449D01*
X205118Y54062D02*
X334449D01*
X205118Y54652D02*
X334449D01*
X205118Y55243D02*
X334449D01*
X205118Y55833D02*
X334449D01*
X205118Y56424D02*
X334449D01*
X205118Y57014D02*
X334449D01*
X205118Y57605D02*
X266992D01*
X269858D02*
X334449D01*
X205118Y58196D02*
X266564D01*
X270286D02*
X334449D01*
X205118Y58786D02*
X266381D01*
X270469D02*
X334449D01*
X205118Y59377D02*
X242512D01*
X245205D02*
X266378D01*
X270473D02*
X334449D01*
X205118Y59967D02*
X242037D01*
X245679D02*
X266552D01*
X270299D02*
X334449D01*
X205118Y60558D02*
X241828D01*
X245889D02*
X266965D01*
X269885D02*
X334449D01*
X205118Y61148D02*
X241801D01*
X245915D02*
X268193D01*
X268657D02*
X334449D01*
X205118Y61739D02*
X241950D01*
X245767D02*
X334449D01*
X205118Y62329D02*
X242324D01*
X245393D02*
X334449D01*
X205118Y62920D02*
X243249D01*
X244467D02*
X334449D01*
X205118Y63511D02*
X334449D01*
X205118Y64101D02*
X278794D01*
X280498D02*
X283754D01*
X285458D02*
X334449D01*
X205118Y64692D02*
X272394D01*
X275087D02*
X278033D01*
X281259D02*
X282993D01*
X286219D02*
X334449D01*
X205118Y65282D02*
X271919D01*
X275561D02*
X277702D01*
X281590D02*
X282662D01*
X286550D02*
X334449D01*
X205118Y65873D02*
X271710D01*
X275771D02*
X277582D01*
X281710D02*
X282542D01*
X286670D02*
X334449D01*
X205118Y66463D02*
X251685D01*
X252016D02*
X271683D01*
X275797D02*
X277635D01*
X281656D02*
X282596D01*
X286617D02*
X334449D01*
X205118Y67054D02*
X223833D01*
X225537D02*
X250397D01*
X253304D02*
X271832D01*
X275649D02*
X277877D01*
X281414D02*
X282838D01*
X286375D02*
X334449D01*
X205118Y67644D02*
X223072D01*
X226298D02*
X249980D01*
X253721D02*
X272206D01*
X275275D02*
X278414D01*
X280877D02*
X283375D01*
X285838D02*
X334449D01*
X205118Y68235D02*
X222741D01*
X226629D02*
X249804D01*
X253897D02*
X273131D01*
X274349D02*
X334449D01*
X205118Y68826D02*
X222621D01*
X226749D02*
X249806D01*
X253895D02*
X334449D01*
X205118Y69416D02*
X222674D01*
X226696D02*
X249986D01*
X253715D02*
X277058D01*
X279556D02*
X286271D01*
X288769D02*
X334449D01*
X205118Y70007D02*
X222916D01*
X226454D02*
X250411D01*
X253290D02*
X276531D01*
X280084D02*
X285743D01*
X289296D02*
X334449D01*
X205118Y70597D02*
X223454D01*
X225916D02*
X276293D01*
X280321D02*
X285506D01*
X289533D02*
X334449D01*
X205118Y71188D02*
X276244D01*
X280370D02*
X285457D01*
X289583D02*
X295346D01*
X298039D02*
X334449D01*
X205118Y71778D02*
X276368D01*
X280246D02*
X285580D01*
X289459D02*
X294872D01*
X298514D02*
X334198D01*
X205118Y72369D02*
X276705D01*
X279909D02*
X285917D01*
X289122D02*
X294663D01*
X298723D02*
X334078D01*
X205118Y72959D02*
X277485D01*
X279129D02*
X286698D01*
X288342D02*
X294636D01*
X298750D02*
X334131D01*
X205118Y73550D02*
X288370D01*
X291236D02*
X294785D01*
X298601D02*
X334373D01*
X205118Y74140D02*
X287942D01*
X291664D02*
X295158D01*
X298228D02*
X311854D01*
X314130D02*
X334449D01*
X205118Y74731D02*
X287759D01*
X291847D02*
X296084D01*
X297302D02*
X311265D01*
X314719D02*
X334449D01*
X205118Y75322D02*
X287756D01*
X291851D02*
X310998D01*
X314986D02*
X334449D01*
X205118Y75912D02*
X287930D01*
X291677D02*
X310926D01*
X315059D02*
X334449D01*
X205118Y76503D02*
X288343D01*
X291263D02*
X311026D01*
X314959D02*
X334449D01*
X205118Y77093D02*
X289571D01*
X290035D02*
X311329D01*
X314655D02*
X334449D01*
X205118Y77684D02*
X312008D01*
X313976D02*
X334449D01*
X205118Y78274D02*
X334449D01*
X205118Y78865D02*
X334449D01*
X205118Y79455D02*
X334449D01*
X205118Y80046D02*
X334449D01*
X205118Y80637D02*
X334449D01*
X205118Y81227D02*
X291167D01*
X293557D02*
X313687D01*
X316077D02*
X334449D01*
X205118Y81818D02*
X290610D01*
X294115D02*
X313129D01*
X316634D02*
X334449D01*
X205118Y82408D02*
X290358D01*
X294366D02*
X312878D01*
X316886D02*
X334449D01*
X205118Y82999D02*
X290297D01*
X294427D02*
X312817D01*
X316947D02*
X334449D01*
X205118Y83589D02*
X290409D01*
X294316D02*
X312929D01*
X316835D02*
X334449D01*
X205118Y84180D02*
X290729D01*
X293996D02*
X313248D01*
X316515D02*
X334449D01*
X205118Y84770D02*
X291455D01*
X293270D02*
X313974D01*
X315789D02*
X334449D01*
X205118Y85361D02*
X334449D01*
X205118Y85951D02*
X334449D01*
X205118Y86542D02*
X269986D01*
X272376D02*
X296376D01*
X298821D02*
X334449D01*
X205118Y87133D02*
X269429D01*
X272934D02*
X295834D01*
X299363D02*
X334449D01*
X205118Y87723D02*
X269177D01*
X273185D02*
X295589D01*
X299608D02*
X334449D01*
X205118Y88314D02*
X269116D01*
X273246D02*
X295534D01*
X299663D02*
X334449D01*
X207717Y88904D02*
X269228D01*
X273134D02*
X294247D01*
X295281D02*
X295652D01*
X299545D02*
X334449D01*
X208217Y89495D02*
X269548D01*
X272815D02*
X293253D01*
X299216D02*
X334449D01*
X208440Y90085D02*
X270274D01*
X272089D02*
X292867D01*
X296661D02*
X296732D01*
X298465D02*
X334449D01*
X208478Y90676D02*
X292710D01*
X296818D02*
X334449D01*
X208342Y91266D02*
X280181D01*
X283047D02*
X292729D01*
X296799D02*
X334449D01*
X207987Y91857D02*
X279753D01*
X283475D02*
X292929D01*
X296599D02*
X334449D01*
X205118Y92448D02*
X205693D01*
X207142D02*
X279570D01*
X283658D02*
X293387D01*
X296140D02*
X334449D01*
X205118Y93038D02*
X279567D01*
X283662D02*
X334449D01*
X205118Y93629D02*
X279741D01*
X283488D02*
X334449D01*
X205118Y94219D02*
X280154D01*
X283074D02*
X334449D01*
X205118Y94810D02*
X281382D01*
X281846D02*
X334449D01*
X205118Y95400D02*
X334449D01*
X205118Y95991D02*
X334449D01*
X205118Y96581D02*
X334449D01*
X205118Y97172D02*
X334449D01*
X205118Y97763D02*
X282507D01*
X284658D02*
X334449D01*
X205118Y98353D02*
X281882D01*
X285284D02*
X334449D01*
X205118Y98944D02*
X281600D01*
X285565D02*
X334449D01*
X205118Y99534D02*
X281516D01*
X285650D02*
X334449D01*
X205118Y100125D02*
X217976D01*
X220843D02*
X281604D01*
X285561D02*
X334449D01*
X205118Y100715D02*
X217548D01*
X221271D02*
X281891D01*
X285274D02*
X334449D01*
X205118Y101306D02*
X217366D01*
X221453D02*
X282529D01*
X284636D02*
X334449D01*
X205118Y101896D02*
X217362D01*
X221457D02*
X310589D01*
X313034D02*
X334449D01*
X205118Y102487D02*
X217536D01*
X221283D02*
X310046D01*
X313576D02*
X334449D01*
X205118Y103077D02*
X217950D01*
X220869D02*
X309802D01*
X313820D02*
X334449D01*
X205118Y103668D02*
X219177D01*
X219642D02*
X309747D01*
X313875D02*
X334449D01*
X205118Y104259D02*
X209722D01*
X212167D02*
X226455D01*
X228900D02*
X309865D01*
X313757D02*
X334449D01*
X205118Y104849D02*
X209180D01*
X212710D02*
X225912D01*
X229442D02*
X310193D01*
X313429D02*
X334449D01*
X205118Y105440D02*
X208936D01*
X212954D02*
X225668D01*
X229686D02*
X310945D01*
X312677D02*
X334449D01*
X205118Y106030D02*
X208881D01*
X213009D02*
X225613D01*
X229741D02*
X334449D01*
X205118Y106621D02*
X208999D01*
X212891D02*
X225731D01*
X229624D02*
X334449D01*
X205118Y107211D02*
X209327D01*
X212563D02*
X226059D01*
X229295D02*
X334449D01*
X205118Y107802D02*
X210079D01*
X211811D02*
X226811D01*
X228543D02*
X334449D01*
X205118Y108392D02*
X218557D01*
X220261D02*
X334449D01*
X205118Y108983D02*
X217797D01*
X221022D02*
X334449D01*
X205118Y109574D02*
X217465D01*
X221354D02*
X334449D01*
X205118Y110164D02*
X217346D01*
X221473D02*
X334449D01*
X205118Y110755D02*
X217399D01*
X221420D02*
X334449D01*
X205118Y111345D02*
X217641D01*
X221178D02*
X334449D01*
X205118Y111936D02*
X218178D01*
X220641D02*
X334449D01*
X205118Y112526D02*
X334449D01*
X205118Y113117D02*
X334449D01*
X205118Y113707D02*
X334449D01*
X205118Y114298D02*
X334449D01*
X205118Y114889D02*
X334449D01*
X205118Y115479D02*
X334449D01*
X205118Y116070D02*
X334449D01*
X205118Y116660D02*
X334449D01*
X205118Y117251D02*
X327551D01*
X327882D02*
X334449D01*
X205118Y117841D02*
X326263D01*
X329170D02*
X334449D01*
X205118Y118432D02*
X325846D01*
X329587D02*
X334449D01*
X205118Y119022D02*
X325670D01*
X329763D02*
X334449D01*
X205118Y119613D02*
X325672D01*
X329761D02*
X334449D01*
X205118Y120203D02*
X325852D01*
X329581D02*
X334449D01*
X205118Y120794D02*
X326277D01*
X329156D02*
X334449D01*
X205118Y121385D02*
X334449D01*
X205118Y121975D02*
X334449D01*
X205118Y122566D02*
X334449D01*
X205118Y123156D02*
X334449D01*
D02*
D11*
X4921Y28189D03*
X4961Y36693D03*
X5039Y12441D03*
Y16378D03*
Y20315D03*
Y32126D03*
Y40000D03*
Y43937D03*
Y47874D03*
Y55748D03*
Y59685D03*
Y70512D03*
Y75433D03*
Y79370D03*
Y83976D03*
X5236Y63622D03*
Y118740D03*
Y122677D03*
Y126614D03*
Y130551D03*
Y134488D03*
X5276Y110866D03*
X31811Y134488D03*
X31850Y126614D03*
Y130551D03*
X31890Y122677D03*
X31929Y79370D03*
Y87244D03*
X32087Y43937D03*
X32205Y48937D03*
Y72795D03*
Y106929D03*
Y110866D03*
Y118740D03*
X39724Y81024D03*
X41142Y72795D03*
X45276Y59685D03*
X47441Y75433D03*
X49134Y83976D03*
X53898Y57441D03*
X58543Y73740D03*
Y91654D03*
Y94213D03*
X58583Y96772D03*
X58622Y99331D03*
X62795Y42283D03*
X63622Y114803D03*
X73937Y76299D03*
Y99331D03*
X78661Y57441D03*
X91614Y40000D03*
X94567Y38976D03*
X98110Y40669D03*
X101496Y88976D03*
X103780Y96693D03*
X116181Y84055D03*
X127559Y71220D03*
X131417Y56102D03*
X170197Y16378D03*
X173228Y71220D03*
X206417Y90512D03*
X209528Y137402D03*
X210945Y105925D03*
X219409Y101614D03*
Y110276D03*
X219921Y36693D03*
X223976Y137441D03*
X224449Y38386D03*
X224685Y68937D03*
X227677Y105925D03*
X234606D03*
X236890Y68524D03*
X243031Y101535D03*
Y110315D03*
X243622Y40669D03*
X243858Y60945D03*
X250079Y36457D03*
X251220Y105925D03*
X251850Y68524D03*
X252362Y38740D03*
X258780Y57913D03*
X268425Y59094D03*
X268740Y103563D03*
X270709Y71417D03*
X271181Y88228D03*
X272402Y112028D03*
X273740Y66260D03*
X275709Y93110D03*
X278307Y71063D03*
X279646Y65984D03*
X281614Y92756D03*
X283583Y99528D03*
X284606Y24252D03*
Y65984D03*
X285551Y92638D03*
X287520Y71063D03*
X289488Y92638D03*
X289803Y20315D03*
Y75039D03*
X291811Y87815D03*
X291969Y79941D03*
X292362Y82913D03*
X293819Y22441D03*
Y36969D03*
X294409Y66102D03*
X294764Y90906D03*
X296693Y72756D03*
X297598Y88209D03*
X298346Y85157D03*
X298445Y113012D03*
X302087Y103760D03*
X305945Y26201D03*
Y41752D03*
X305984Y34075D03*
X306181Y18524D03*
X311811Y103563D03*
X311850Y111437D03*
X312992Y75866D03*
X313071Y79646D03*
X314882Y82913D03*
X318071Y46299D03*
X322283Y26299D03*
X322323Y33189D03*
X326969Y88604D03*
X327717Y119311D03*
X332480Y120984D03*
X336142Y72480D03*
X336417Y9606D03*
X340276Y90906D03*
X379331Y59685D03*
X405984Y71496D03*
D02*
D17*
X53858Y63799D03*
X78661D03*
D02*
D86*
X34428Y161422D02*
X32075Y161422D01*
X34134Y163481*
X34428Y164069*
X34134Y164657*
X33545Y164951*
X32663*
X32075Y164657*
D02*
D95*
X181118Y161024D02*
X179807D01*
X192913Y149228D02*
Y147917D01*
Y172819D02*
Y174130D01*
X204709Y161024D02*
X206020D01*
X216296D02*
X214955D01*
X220187Y157133D02*
Y155791D01*
Y164915D02*
Y166256D01*
X229203Y157133D02*
Y155791D01*
Y164915D02*
Y166256D01*
X238219Y157133D02*
Y155791D01*
Y164915D02*
Y166256D01*
X247234Y157133D02*
Y155791D01*
Y164915D02*
Y166256D01*
X256250Y157133D02*
Y155791D01*
Y164915D02*
Y166256D01*
X265266Y157133D02*
Y155791D01*
Y164915D02*
Y166256D01*
X274281Y157133D02*
Y155791D01*
Y164915D02*
Y166256D01*
X283297Y157133D02*
Y155791D01*
Y164915D02*
Y166256D01*
X292313Y157133D02*
Y155791D01*
Y164915D02*
Y166256D01*
X296204Y161024D02*
X297545D01*
X312299D02*
X310988D01*
X324094Y149228D02*
Y147917D01*
Y172819D02*
Y174130D01*
X335890Y161024D02*
X337201D01*
D02*
D115*
X35575Y160039D02*
Y166039D01*
X31075*
Y160039*
X35575*
D02*
D126*
X18622Y5748D03*
Y141181D03*
X392638Y5748D03*
Y141181D03*
D02*
D205*
X192913Y161024D03*
X324094D03*
D02*
D212*
X220187D03*
X224695Y151024D03*
Y171024D03*
X229203Y161024D03*
X233711Y151024D03*
Y171024D03*
X238219Y161024D03*
X242726Y151024D03*
Y171024D03*
X247234Y161024D03*
X251742Y151024D03*
Y171024D03*
X256250Y161024D03*
X260758Y151024D03*
Y171024D03*
X265266Y161024D03*
X269774Y151024D03*
Y171024D03*
X274281Y161024D03*
X278789Y151024D03*
Y171024D03*
X283297Y161024D03*
X287805Y151024D03*
Y171024D03*
X292313Y161024D03*
X296821Y151024D03*
X0Y0D02*
M02*
