G04 GENERATED BY PULSONIX 10.0 GERBER.DLL 7250*
G04 #@! TF.GenerationSoftware,Pulsonix,Pulsonix,10.0.7250*
G04 #@! TF.CreationDate,2019-09-23T08:44:35--1:00*
G04 #@! TF.Part,Single*
%FSLAX25Y25*%
%LPD*%
%MOIN*%
G04 #@! TF.FileFunction,Copper,L3,Inr*
G04 #@! TF.FilePolarity,Positive*
G04 #@! TA.AperFunction,OtherCopper*
%ADD10C,0.00591*%
G04 #@! TA.AperFunction,ViaPad*
%ADD11C,0.02362X0.00984*%
G04 #@! TA.AperFunction,ComponentPad*
%ADD17C,0.03543X0.01181*%
G04 #@! TD.AperFunction*
%ADD86C,0.00500*%
G04 #@! TA.AperFunction,OtherCopper*
%ADD95C,0.01200*%
%ADD115C,0.00600*%
G04 #@! TD.AperFunction*
%ADD126C,0.05512*%
G04 #@! TA.AperFunction,ComponentPad*
%ADD205C,0.23622X0.12008*%
%ADD212C,0.07874X0.04724*%
X0Y0D02*
D02*
D10*
X2470Y180404D02*
Y2470D01*
X17035*
X16739Y2631*
X16458Y2819*
X16196Y3032*
X15955Y3269*
X15736Y3526*
X15543Y3803*
X15376Y4097*
X15237Y4405*
X15127Y4724*
X15047Y5053*
X14998Y5387*
X14980Y5724*
X14994Y6062*
X15039Y6396*
X15114Y6726*
X15220Y7046*
X15355Y7356*
X15518Y7652*
X15707Y7931*
X15922Y8192*
X16160Y8432*
X16420Y8648*
X16698Y8840*
X16993Y9005*
X17301Y9142*
X17621Y9250*
X17950Y9327*
X18285Y9374*
X18622Y9390*
X18959Y9374*
X19294Y9327*
X19623Y9250*
X19943Y9142*
X20252Y9005*
X20546Y8840*
X20825Y8648*
X21084Y8432*
X21322Y8192*
X21537Y7931*
X21726Y7652*
X21890Y7356*
X22024Y7046*
X22130Y6726*
X22206Y6396*
X22250Y6062*
X22264Y5724*
X22246Y5387*
X22197Y5053*
X22117Y4724*
X22007Y4405*
X21868Y4097*
X21701Y3803*
X21508Y3526*
X21289Y3269*
X21048Y3032*
X20786Y2819*
X20505Y2631*
X20209Y2470*
X391051*
X390754Y2631*
X390474Y2819*
X390212Y3032*
X389970Y3269*
X389752Y3526*
X389559Y3803*
X389392Y4097*
X389253Y4405*
X389143Y4724*
X389063Y5053*
X389014Y5387*
X388996Y5724*
X389010Y6062*
X389054Y6396*
X389130Y6726*
X389235Y7046*
X389370Y7356*
X389533Y7652*
X389723Y7931*
X389938Y8192*
X390176Y8432*
X390435Y8648*
X390714Y8840*
X391008Y9005*
X391317Y9142*
X391637Y9250*
X391966Y9327*
X392301Y9374*
X392638Y9390*
X392975Y9374*
X393310Y9327*
X393638Y9250*
X393959Y9142*
X394267Y9005*
X394562Y8840*
X394840Y8648*
X395100Y8432*
X395338Y8192*
X395552Y7931*
X395742Y7652*
X395905Y7356*
X396040Y7046*
X396146Y6726*
X396221Y6396*
X396266Y6062*
X396279Y5724*
X396262Y5387*
X396212Y5053*
X396133Y4724*
X396023Y4405*
X395884Y4097*
X395717Y3803*
X395523Y3526*
X395305Y3269*
X395064Y3032*
X394802Y2819*
X394521Y2631*
X394224Y2470*
X407766*
Y70449*
X407630Y70245*
X407470Y70059*
X407289Y69893*
X407091Y69750*
X406876Y69631*
X406649Y69539*
X406413Y69474*
X406170Y69438*
X405926Y69430*
X405681Y69451*
X405441Y69502*
X405209Y69580*
X404988Y69685*
X404781Y69816*
X404590Y69970*
X404419Y70146*
X404271Y70341*
X404146Y70552*
X404047Y70776*
X403975Y71010*
X403932Y71251*
X403917Y71496*
X403932Y71741*
X403975Y71982*
X404047Y72216*
X404146Y72441*
X404270Y72652*
X404419Y72846*
X404590Y73022*
X404781Y73176*
X404988Y73307*
X405209Y73412*
X405441Y73490*
X405681Y73541*
X405925Y73562*
X406170Y73555*
X406413Y73518*
X406649Y73453*
X406876Y73361*
X407091Y73242*
X407289Y73099*
X407470Y72933*
X407630Y72747*
X407766Y72543*
Y180404*
X2470*
X2972Y32126D02*
X2988Y32375D01*
X3033Y32621*
X3107Y32859*
X3209Y33087*
X3338Y33300*
X3492Y33497*
X3669Y33673*
X3865Y33827*
X4079Y33956*
X4306Y34059*
X4545Y34133*
X4790Y34178*
X5039Y34193*
X5289Y34178*
X5534Y34133*
X5772Y34059*
X6000Y33956*
X6214Y33827*
X6410Y33673*
X6586Y33497*
X6740Y33300*
X6870Y33087*
X6972Y32859*
X7046Y32621*
X7091Y32375*
X7106Y32126*
X7092Y31884*
X7049Y31645*
X6979Y31412*
X6882Y31190*
X6760Y30980*
X6614Y30787*
X6446Y30611*
X6259Y30457*
X6055Y30326*
X5836Y30219*
X5607Y30139*
X5842Y30040*
X6062Y29912*
X6266Y29759*
X6448Y29582*
X6608Y29384*
X6742Y29167*
X6849Y28936*
X6926Y28693*
X6973Y28443*
X6988Y28189*
X6973Y27940*
X6928Y27694*
X6854Y27456*
X6751Y27228*
X6622Y27015*
X6468Y26818*
X6292Y26642*
X6095Y26488*
X5882Y26359*
X5654Y26256*
X5416Y26182*
X5170Y26137*
X4921Y26122*
X4672Y26137*
X4427Y26182*
X4188Y26256*
X3961Y26359*
X3747Y26488*
X3551Y26642*
X3374Y26818*
X3220Y27015*
X3091Y27228*
X2989Y27456*
X2914Y27694*
X2869Y27940*
X2854Y28189*
X2869Y28431*
X2911Y28670*
X2981Y28902*
X3078Y29125*
X3201Y29335*
X3347Y29528*
X3515Y29704*
X3702Y29858*
X3906Y29989*
X4124Y30096*
X4353Y30176*
X4119Y30275*
X3898Y30403*
X3695Y30556*
X3512Y30733*
X3353Y30931*
X3219Y31148*
X3112Y31379*
X3035Y31622*
X2988Y31872*
X2972Y32126*
Y20315D02*
X2988Y20564D01*
X3033Y20810*
X3107Y21048*
X3209Y21276*
X3338Y21489*
X3492Y21686*
X3669Y21862*
X3865Y22016*
X4079Y22145*
X4306Y22248*
X4545Y22322*
X4790Y22367*
X5039Y22382*
X5289Y22367*
X5534Y22322*
X5772Y22248*
X6000Y22145*
X6214Y22016*
X6410Y21862*
X6586Y21686*
X6740Y21489*
X6870Y21276*
X6972Y21048*
X7046Y20810*
X7091Y20564*
X7106Y20315*
X7093Y20079*
X7052Y19845*
X6985Y19618*
X6893Y19400*
X6776Y19194*
X6636Y19003*
X6476Y18829*
X6296Y18674*
X6101Y18541*
X5891Y18431*
X5670Y18346*
X5901Y18257*
X6120Y18140*
X6323Y17998*
X6508Y17832*
X6672Y17646*
X6812Y17441*
X6926Y17221*
X7014Y16989*
X7073Y16748*
X7103Y16502*
Y16254*
X7073Y16008*
X7014Y15767*
X6926Y15534*
X6812Y15314*
X6672Y15110*
X6508Y14923*
X6323Y14758*
X6120Y14616*
X5901Y14499*
X5670Y14409*
X5891Y14324*
X6100Y14215*
X6296Y14082*
X6476Y13927*
X6636Y13753*
X6776Y13562*
X6893Y13356*
X6985Y13138*
X7052Y12911*
X7093Y12677*
X7106Y12441*
X7091Y12192*
X7046Y11946*
X6972Y11708*
X6870Y11480*
X6740Y11267*
X6586Y11070*
X6410Y10894*
X6214Y10740*
X6000Y10611*
X5772Y10508*
X5534Y10434*
X5289Y10389*
X5039Y10374*
X4790Y10389*
X4545Y10434*
X4306Y10508*
X4079Y10611*
X3865Y10740*
X3669Y10894*
X3492Y11070*
X3338Y11267*
X3209Y11480*
X3107Y11708*
X3033Y11946*
X2988Y12192*
X2972Y12441*
X2986Y12677*
X3027Y12911*
X3093Y13138*
X3186Y13356*
X3303Y13562*
X3442Y13753*
X3603Y13927*
X3782Y14082*
X3978Y14215*
X4188Y14324*
X4409Y14409*
X4178Y14499*
X3959Y14616*
X3756Y14758*
X3571Y14923*
X3407Y15110*
X3267Y15315*
X3152Y15535*
X3065Y15767*
X3006Y16008*
X2976Y16254*
Y16502*
X3006Y16748*
X3065Y16989*
X3152Y17221*
X3267Y17441*
X3407Y17646*
X3571Y17833*
X3756Y17998*
X3959Y18140*
X4178Y18257*
X4409Y18346*
X4188Y18431*
X3978Y18541*
X3782Y18674*
X3603Y18829*
X3442Y19003*
X3303Y19194*
X3186Y19400*
X3093Y19618*
X3027Y19845*
X2986Y20079*
X2972Y20315*
Y47874D02*
X2988Y48123D01*
X3033Y48369*
X3107Y48607*
X3209Y48835*
X3338Y49048*
X3492Y49245*
X3669Y49421*
X3865Y49575*
X4079Y49704*
X4306Y49807*
X4545Y49881*
X4790Y49926*
X5039Y49941*
X5289Y49926*
X5534Y49881*
X5772Y49807*
X6000Y49704*
X6214Y49575*
X6410Y49421*
X6586Y49245*
X6740Y49048*
X6870Y48835*
X6972Y48607*
X7046Y48369*
X7091Y48123*
X7106Y47874*
X7093Y47638*
X7052Y47404*
X6985Y47177*
X6893Y46959*
X6776Y46753*
X6636Y46562*
X6476Y46388*
X6296Y46233*
X6101Y46100*
X5891Y45990*
X5670Y45906*
X5901Y45816*
X6120Y45699*
X6323Y45557*
X6508Y45391*
X6672Y45205*
X6812Y45000*
X6926Y44780*
X7014Y44548*
X7073Y44307*
X7103Y44061*
Y43813*
X7073Y43567*
X7014Y43326*
X6926Y43094*
X6812Y42874*
X6672Y42669*
X6508Y42482*
X6323Y42317*
X6120Y42175*
X5901Y42058*
X5670Y41969*
X5906Y41876*
X6130Y41756*
X6337Y41609*
X6524Y41438*
X6689Y41245*
X6829Y41033*
X6943Y40806*
X7027Y40566*
X7082Y40319*
X7105Y40066*
X7098Y39812*
X7059Y39561*
X6990Y39317*
X6892Y39083*
X6765Y38862*
X6613Y38659*
X6436Y38477*
X6239Y38317*
X6414Y38162*
X6571Y37989*
X6706Y37799*
X6820Y37596*
X6910Y37380*
X6975Y37156*
X7014Y36926*
X7028Y36693*
X7012Y36444*
X6967Y36198*
X6893Y35960*
X6791Y35732*
X6662Y35519*
X6508Y35322*
X6331Y35146*
X6135Y34992*
X5921Y34863*
X5694Y34760*
X5455Y34686*
X5210Y34641*
X4961Y34626*
X4711Y34641*
X4466Y34686*
X4228Y34760*
X4000Y34863*
X3786Y34992*
X3590Y35146*
X3414Y35322*
X3260Y35519*
X3130Y35732*
X3028Y35960*
X2954Y36198*
X2909Y36444*
X2894Y36693*
X2908Y36938*
X2952Y37180*
X3024Y37415*
X3123Y37640*
X3249Y37851*
X3398Y38046*
X3570Y38222*
X3761Y38376*
X3575Y38541*
X3411Y38727*
X3270Y38932*
X3154Y39152*
X3066Y39384*
X3007Y39625*
X2976Y39872*
X2976Y40120*
X3005Y40367*
X3064Y40609*
X3151Y40841*
X3266Y41062*
X3406Y41267*
X3570Y41454*
X3755Y41619*
X3958Y41762*
X4178Y41879*
X4409Y41969*
X4178Y42058*
X3959Y42175*
X3756Y42317*
X3571Y42483*
X3407Y42669*
X3267Y42874*
X3152Y43094*
X3065Y43326*
X3006Y43567*
X2976Y43813*
Y44061*
X3006Y44307*
X3065Y44548*
X3152Y44780*
X3267Y45000*
X3407Y45205*
X3571Y45392*
X3756Y45557*
X3959Y45699*
X4178Y45816*
X4409Y45906*
X4188Y45991*
X3978Y46100*
X3782Y46233*
X3603Y46388*
X3442Y46562*
X3303Y46753*
X3186Y46959*
X3093Y47177*
X3027Y47404*
X2986Y47638*
X2972Y47874*
X3169Y63622D02*
X3184Y63871D01*
X3229Y64117*
X3304Y64355*
X3406Y64583*
X3535Y64796*
X3689Y64993*
X3866Y65169*
X4062Y65323*
X4276Y65452*
X4503Y65555*
X4742Y65629*
X4987Y65674*
X5236Y65689*
X5485Y65674*
X5731Y65629*
X5969Y65555*
X6197Y65452*
X6410Y65323*
X6607Y65169*
X6783Y64993*
X6937Y64796*
X7066Y64583*
X7169Y64355*
X7243Y64117*
X7288Y63871*
X7303Y63622*
X7288Y63376*
X7244Y63133*
X7172Y62897*
X7071Y62671*
X6945Y62459*
X6794Y62264*
X6621Y62087*
X6428Y61933*
X6218Y61803*
X5994Y61699*
X5760Y61622*
X5982Y61524*
X6192Y61401*
X6386Y61253*
X6561Y61084*
X6715Y60895*
X6846Y60690*
X6951Y60470*
X7030Y60240*
X7082Y60002*
X7105Y59759*
X7099Y59516*
X7065Y59275*
X7003Y59039*
X6913Y58813*
X6798Y58598*
X6658Y58399*
X6495Y58218*
X6312Y58057*
X6112Y57918*
X5897Y57804*
X5670Y57717*
X5891Y57632*
X6100Y57522*
X6296Y57389*
X6476Y57234*
X6636Y57060*
X6776Y56869*
X6893Y56663*
X6985Y56445*
X7052Y56218*
X7093Y55984*
X7106Y55748*
X7091Y55499*
X7046Y55253*
X6972Y55015*
X6870Y54787*
X6740Y54574*
X6586Y54377*
X6410Y54201*
X6214Y54047*
X6000Y53918*
X5772Y53815*
X5534Y53741*
X5289Y53696*
X5039Y53681*
X4790Y53696*
X4545Y53741*
X4306Y53815*
X4079Y53918*
X3865Y54047*
X3669Y54201*
X3492Y54377*
X3338Y54574*
X3209Y54787*
X3107Y55015*
X3033Y55253*
X2988Y55499*
X2972Y55748*
X2986Y55984*
X3027Y56218*
X3093Y56445*
X3186Y56663*
X3303Y56869*
X3442Y57060*
X3603Y57234*
X3782Y57389*
X3978Y57522*
X4188Y57632*
X4409Y57717*
X4173Y57808*
X3950Y57929*
X3743Y58075*
X3556Y58246*
X3391Y58438*
X3251Y58649*
X3137Y58876*
X3053Y59114*
X2998Y59362*
X2974Y59614*
X2980Y59867*
X3018Y60118*
X3086Y60362*
X3184Y60596*
X3309Y60816*
X3461Y61019*
X3636Y61202*
X3832Y61363*
X4046Y61498*
X4275Y61606*
X4516Y61685*
X4287Y61786*
X4071Y61915*
X3873Y62069*
X3695Y62245*
X3539Y62442*
X3409Y62657*
X3305Y62885*
X3230Y63125*
X3185Y63372*
X3169Y63622*
X2972Y70512D02*
X2988Y70761D01*
X3033Y71006*
X3107Y71245*
X3209Y71472*
X3338Y71686*
X3492Y71882*
X3669Y72059*
X3865Y72213*
X4079Y72342*
X4306Y72444*
X4545Y72519*
X4790Y72564*
X5039Y72579*
X5289Y72564*
X5534Y72519*
X5772Y72444*
X6000Y72342*
X6214Y72213*
X6410Y72059*
X6586Y71882*
X6740Y71686*
X6870Y71472*
X6972Y71245*
X7046Y71006*
X7091Y70761*
X7106Y70512*
X7091Y70263*
X7046Y70017*
X6972Y69779*
X6870Y69551*
X6740Y69338*
X6586Y69141*
X6410Y68965*
X6214Y68811*
X6000Y68682*
X5772Y68579*
X5534Y68505*
X5289Y68460*
X5039Y68445*
X4790Y68460*
X4545Y68505*
X4306Y68579*
X4079Y68682*
X3865Y68811*
X3669Y68965*
X3492Y69141*
X3338Y69338*
X3209Y69551*
X3107Y69779*
X3033Y70017*
X2988Y70263*
X2972Y70512*
Y79370D02*
X2988Y79619D01*
X3033Y79865*
X3107Y80103*
X3209Y80331*
X3338Y80544*
X3492Y80741*
X3669Y80917*
X3865Y81071*
X4079Y81200*
X4306Y81303*
X4545Y81377*
X4790Y81422*
X5039Y81437*
X5289Y81422*
X5534Y81377*
X5772Y81303*
X6000Y81200*
X6214Y81071*
X6410Y80917*
X6586Y80741*
X6740Y80544*
X6870Y80331*
X6972Y80103*
X7046Y79865*
X7091Y79619*
X7106Y79370*
X7093Y79134*
X7052Y78900*
X6985Y78673*
X6893Y78455*
X6776Y78249*
X6636Y78058*
X6476Y77884*
X6296Y77729*
X6101Y77596*
X5891Y77487*
X5670Y77402*
X5891Y77317*
X6100Y77207*
X6296Y77074*
X6476Y76919*
X6636Y76745*
X6776Y76554*
X6893Y76348*
X6985Y76130*
X7052Y75903*
X7093Y75670*
X7106Y75433*
X7091Y75184*
X7046Y74938*
X6972Y74700*
X6870Y74473*
X6740Y74259*
X6586Y74062*
X6410Y73886*
X6214Y73732*
X6000Y73603*
X5772Y73500*
X5534Y73426*
X5289Y73381*
X5039Y73366*
X4790Y73381*
X4545Y73426*
X4306Y73500*
X4079Y73603*
X3865Y73732*
X3669Y73886*
X3492Y74062*
X3338Y74259*
X3209Y74473*
X3107Y74700*
X3033Y74938*
X2988Y75184*
X2972Y75433*
X2986Y75669*
X3027Y75903*
X3093Y76130*
X3186Y76348*
X3303Y76554*
X3442Y76745*
X3603Y76919*
X3782Y77074*
X3978Y77207*
X4188Y77317*
X4409Y77402*
X4188Y77487*
X3978Y77596*
X3782Y77729*
X3603Y77884*
X3442Y78058*
X3303Y78249*
X3186Y78455*
X3093Y78673*
X3027Y78900*
X2986Y79134*
X2972Y79370*
Y83976D02*
X2988Y84225D01*
X3033Y84471*
X3107Y84709*
X3209Y84936*
X3338Y85150*
X3492Y85346*
X3669Y85523*
X3865Y85677*
X4079Y85806*
X4306Y85909*
X4545Y85983*
X4790Y86028*
X5039Y86043*
X5289Y86028*
X5534Y85983*
X5772Y85909*
X6000Y85806*
X6214Y85677*
X6410Y85523*
X6586Y85346*
X6740Y85150*
X6870Y84936*
X6972Y84709*
X7046Y84471*
X7091Y84225*
X7106Y83976*
X7091Y83727*
X7046Y83481*
X6972Y83243*
X6870Y83015*
X6740Y82802*
X6586Y82605*
X6410Y82429*
X6214Y82275*
X6000Y82146*
X5772Y82043*
X5534Y81969*
X5289Y81924*
X5039Y81909*
X4790Y81924*
X4545Y81969*
X4306Y82043*
X4079Y82146*
X3865Y82275*
X3669Y82429*
X3492Y82605*
X3338Y82802*
X3209Y83015*
X3107Y83243*
X3033Y83481*
X2988Y83727*
X2972Y83976*
X3169Y122677D02*
X3184Y122926D01*
X3229Y123172*
X3304Y123410*
X3406Y123638*
X3535Y123851*
X3689Y124048*
X3866Y124224*
X4062Y124378*
X4276Y124507*
X4503Y124610*
X4742Y124684*
X4987Y124729*
X5236Y124744*
X5485Y124729*
X5731Y124684*
X5969Y124610*
X6197Y124507*
X6410Y124378*
X6607Y124224*
X6783Y124048*
X6937Y123851*
X7066Y123638*
X7169Y123410*
X7243Y123172*
X7288Y122926*
X7303Y122677*
X7290Y122441*
X7249Y122207*
X7182Y121980*
X7090Y121762*
X6973Y121556*
X6833Y121365*
X6673Y121191*
X6493Y121036*
X6297Y120903*
X6088Y120794*
X5866Y120709*
X6087Y120624*
X6297Y120514*
X6493Y120381*
X6673Y120226*
X6833Y120052*
X6973Y119861*
X7090Y119655*
X7182Y119437*
X7249Y119210*
X7290Y118977*
X7303Y118740*
X7288Y118491*
X7243Y118246*
X7169Y118007*
X7066Y117780*
X6937Y117566*
X6783Y117370*
X6607Y117193*
X6410Y117039*
X6197Y116910*
X5969Y116808*
X5731Y116733*
X5485Y116688*
X5236Y116673*
X4987Y116688*
X4742Y116733*
X4503Y116808*
X4276Y116910*
X4062Y117039*
X3866Y117193*
X3689Y117370*
X3535Y117566*
X3406Y117780*
X3304Y118007*
X3229Y118246*
X3184Y118491*
X3169Y118740*
X3183Y118977*
X3223Y119210*
X3290Y119437*
X3383Y119655*
X3500Y119861*
X3639Y120052*
X3800Y120226*
X3979Y120381*
X4175Y120514*
X4385Y120624*
X4606Y120709*
X4385Y120794*
X4175Y120903*
X3979Y121036*
X3800Y121191*
X3639Y121365*
X3500Y121556*
X3383Y121762*
X3290Y121980*
X3223Y122207*
X3183Y122441*
X3169Y122677*
X3209Y110866D02*
X3224Y111115D01*
X3269Y111361*
X3343Y111599*
X3445Y111827*
X3575Y112040*
X3729Y112237*
X3905Y112413*
X4101Y112567*
X4315Y112696*
X4543Y112799*
X4781Y112873*
X5026Y112918*
X5276Y112933*
X5525Y112918*
X5770Y112873*
X6009Y112799*
X6236Y112696*
X6450Y112567*
X6646Y112413*
X6823Y112237*
X6977Y112040*
X7106Y111827*
X7208Y111599*
X7282Y111361*
X7327Y111115*
X7343Y110866*
X7327Y110617*
X7282Y110371*
X7208Y110133*
X7106Y109906*
X6977Y109692*
X6823Y109496*
X6646Y109319*
X6450Y109165*
X6236Y109036*
X6009Y108934*
X5770Y108859*
X5525Y108814*
X5276Y108799*
X5026Y108814*
X4781Y108859*
X4543Y108934*
X4315Y109036*
X4101Y109165*
X3905Y109319*
X3729Y109496*
X3575Y109692*
X3445Y109906*
X3343Y110133*
X3269Y110371*
X3224Y110617*
X3209Y110866*
X18622Y144823D02*
X18958Y144807D01*
X19291Y144761*
X19619Y144684*
X19938Y144577*
X20245Y144441*
X20539Y144277*
X20817Y144087*
X21075Y143872*
X21313Y143635*
X21528Y143376*
X21718Y143098*
X21882Y142804*
X22018Y142497*
X22125Y142178*
X22202Y141850*
X22248Y141517*
X22264Y141181*
X22248Y140845*
X22202Y140512*
X22125Y140184*
X22018Y139866*
X21882Y139558*
X21718Y139264*
X21528Y138986*
X21313Y138728*
X21076Y138490*
X20817Y138275*
X20539Y138085*
X20245Y137921*
X19938Y137785*
X19619Y137678*
X19291Y137601*
X18958Y137555*
X18622Y137539*
X18286Y137555*
X17953Y137601*
X17625Y137678*
X17306Y137785*
X16999Y137921*
X16705Y138085*
X16427Y138275*
X16169Y138490*
X15931Y138728*
X15716Y138986*
X15526Y139264*
X15362Y139558*
X15226Y139866*
X15119Y140184*
X15042Y140512*
X14996Y140845*
X14980Y141181*
X14996Y141517*
X15042Y141850*
X15119Y142178*
X15226Y142497*
X15362Y142804*
X15526Y143098*
X15716Y143376*
X15931Y143635*
X16169Y143872*
X16427Y144087*
X16705Y144277*
X16999Y144441*
X17306Y144577*
X17625Y144684*
X17953Y144761*
X18286Y144807*
X18622Y144823*
X45075Y166835D02*
X45166Y166820D01*
X45248Y166778*
X45314Y166713*
X45356Y166631*
X45370Y166539*
Y159539*
X45356Y159448*
X45314Y159366*
X45248Y159300*
X45166Y159259*
X45075Y159244*
X40954*
X40835Y159130*
X40702Y159033*
X40556Y158956*
X40401Y158899*
X40239Y158865*
X40075Y158854*
X35575*
X35410Y158865*
X35249Y158899*
X35094Y158956*
X34948Y159033*
X34814Y159130*
X34695Y159244*
X26075*
X25984Y159259*
X25901Y159300*
X25836Y159366*
X25794Y159448*
X25780Y159539*
Y166539*
X25794Y166631*
X25836Y166713*
X25901Y166778*
X25984Y166820*
X26075Y166835*
X34695*
X34814Y166949*
X34948Y167046*
X35094Y167123*
X35249Y167179*
X35410Y167214*
X35575Y167225*
X40075*
X40239Y167214*
X40401Y167179*
X40556Y167123*
X40702Y167046*
X40836Y166949*
X40954Y166835*
X45075*
X37657Y81024D02*
X37673Y81273D01*
X37718Y81518*
X37792Y81757*
X37894Y81984*
X38023Y82198*
X38177Y82394*
X38354Y82571*
X38550Y82725*
X38764Y82854*
X38991Y82956*
X39230Y83030*
X39475Y83075*
X39724Y83091*
X39974Y83075*
X40219Y83030*
X40457Y82956*
X40685Y82854*
X40899Y82725*
X41095Y82571*
X41271Y82394*
X41425Y82198*
X41555Y81984*
X41657Y81757*
X41731Y81518*
X41776Y81273*
X41791Y81024*
X41776Y80774*
X41731Y80529*
X41657Y80291*
X41555Y80063*
X41425Y79849*
X41271Y79653*
X41095Y79477*
X40899Y79323*
X40685Y79193*
X40457Y79091*
X40219Y79017*
X39974Y78972*
X39724Y78957*
X39475Y78972*
X39230Y79017*
X38991Y79091*
X38764Y79193*
X38550Y79323*
X38354Y79477*
X38177Y79653*
X38023Y79849*
X37894Y80063*
X37792Y80291*
X37718Y80529*
X37673Y80774*
X37657Y81024*
X39075Y72795D02*
X39090Y73044D01*
X39135Y73290*
X39209Y73528*
X39312Y73756*
X39441Y73969*
X39595Y74166*
X39771Y74342*
X39968Y74496*
X40181Y74625*
X40409Y74728*
X40647Y74802*
X40893Y74847*
X41142Y74862*
X41391Y74847*
X41636Y74802*
X41875Y74728*
X42102Y74625*
X42316Y74496*
X42512Y74342*
X42689Y74166*
X42843Y73969*
X42972Y73756*
X43074Y73528*
X43149Y73290*
X43194Y73044*
X43209Y72795*
X43194Y72546*
X43149Y72301*
X43074Y72062*
X42972Y71835*
X42843Y71621*
X42689Y71425*
X42512Y71248*
X42316Y71094*
X42102Y70965*
X41875Y70863*
X41636Y70788*
X41391Y70743*
X41142Y70728*
X40893Y70743*
X40647Y70788*
X40409Y70863*
X40181Y70965*
X39968Y71094*
X39771Y71248*
X39595Y71425*
X39441Y71621*
X39312Y71835*
X39209Y72062*
X39135Y72301*
X39090Y72546*
X39075Y72795*
X43209Y59685D02*
X43224Y59934D01*
X43269Y60180*
X43343Y60418*
X43445Y60646*
X43575Y60859*
X43729Y61056*
X43905Y61232*
X44101Y61386*
X44315Y61515*
X44543Y61618*
X44781Y61692*
X45026Y61737*
X45276Y61752*
X45525Y61737*
X45770Y61692*
X46009Y61618*
X46236Y61515*
X46450Y61386*
X46646Y61232*
X46823Y61056*
X46977Y60859*
X47106Y60646*
X47208Y60418*
X47282Y60180*
X47327Y59934*
X47343Y59685*
X47327Y59436*
X47282Y59190*
X47208Y58952*
X47106Y58724*
X46977Y58511*
X46823Y58314*
X46646Y58138*
X46450Y57984*
X46236Y57855*
X46009Y57752*
X45770Y57678*
X45525Y57633*
X45276Y57618*
X45026Y57633*
X44781Y57678*
X44543Y57752*
X44315Y57855*
X44101Y57984*
X43905Y58138*
X43729Y58314*
X43575Y58511*
X43445Y58724*
X43343Y58952*
X43269Y59190*
X43224Y59436*
X43209Y59685*
X29744Y134488D02*
X29759Y134737D01*
X29804Y134983*
X29878Y135221*
X29981Y135449*
X30110Y135662*
X30264Y135859*
X30440Y136035*
X30637Y136189*
X30850Y136318*
X31078Y136421*
X31316Y136495*
X31562Y136540*
X31811Y136555*
X32060Y136540*
X32306Y136495*
X32544Y136421*
X32772Y136318*
X32985Y136189*
X33182Y136035*
X33358Y135859*
X33512Y135662*
X33641Y135449*
X33744Y135221*
X33818Y134983*
X33863Y134737*
X33878Y134488*
X33863Y134239*
X33818Y133994*
X33744Y133755*
X33641Y133528*
X33512Y133314*
X33358Y133118*
X33182Y132941*
X32985Y132787*
X32772Y132658*
X32544Y132556*
X32306Y132481*
X32060Y132436*
X31811Y132421*
X31562Y132436*
X31316Y132481*
X31078Y132556*
X30850Y132658*
X30637Y132787*
X30440Y132941*
X30264Y133118*
X30110Y133314*
X29981Y133528*
X29878Y133755*
X29804Y133994*
X29759Y134239*
X29744Y134488*
X29862Y79370D02*
X29877Y79619D01*
X29922Y79865*
X29997Y80103*
X30099Y80331*
X30228Y80544*
X30382Y80741*
X30559Y80917*
X30755Y81071*
X30969Y81200*
X31196Y81303*
X31434Y81377*
X31680Y81422*
X31929Y81437*
X32178Y81422*
X32424Y81377*
X32662Y81303*
X32890Y81200*
X33103Y81071*
X33300Y80917*
X33476Y80741*
X33630Y80544*
X33759Y80331*
X33862Y80103*
X33936Y79865*
X33981Y79619*
X33996Y79370*
X33981Y79121*
X33936Y78875*
X33862Y78637*
X33759Y78410*
X33630Y78196*
X33476Y77999*
X33300Y77823*
X33103Y77669*
X32890Y77540*
X32662Y77437*
X32424Y77363*
X32178Y77318*
X31929Y77303*
X31680Y77318*
X31434Y77363*
X31196Y77437*
X30969Y77540*
X30755Y77669*
X30559Y77823*
X30382Y77999*
X30228Y78196*
X30099Y78410*
X29997Y78637*
X29922Y78875*
X29877Y79121*
X29862Y79370*
X30020Y43937D02*
X30035Y44186D01*
X30080Y44432*
X30154Y44670*
X30256Y44898*
X30386Y45111*
X30540Y45308*
X30716Y45484*
X30912Y45638*
X31126Y45767*
X31354Y45870*
X31592Y45944*
X31837Y45989*
X32087Y46004*
X32336Y45989*
X32581Y45944*
X32820Y45870*
X33047Y45767*
X33261Y45638*
X33457Y45484*
X33634Y45308*
X33788Y45111*
X33917Y44898*
X34019Y44670*
X34093Y44432*
X34138Y44186*
X34154Y43937*
X34138Y43688*
X34093Y43442*
X34019Y43204*
X33917Y42976*
X33788Y42763*
X33634Y42566*
X33457Y42390*
X33261Y42236*
X33047Y42107*
X32820Y42004*
X32581Y41930*
X32336Y41885*
X32087Y41870*
X31837Y41885*
X31592Y41930*
X31354Y42004*
X31126Y42107*
X30912Y42236*
X30716Y42390*
X30540Y42566*
X30386Y42763*
X30256Y42976*
X30154Y43204*
X30080Y43442*
X30035Y43688*
X30020Y43937*
X30138Y48937D02*
X30153Y49186D01*
X30198Y49432*
X30272Y49670*
X30375Y49898*
X30504Y50111*
X30658Y50308*
X30834Y50484*
X31031Y50638*
X31244Y50767*
X31472Y50870*
X31710Y50944*
X31956Y50989*
X32205Y51004*
X32454Y50989*
X32699Y50944*
X32938Y50870*
X33165Y50767*
X33379Y50638*
X33575Y50484*
X33752Y50308*
X33906Y50111*
X34035Y49898*
X34137Y49670*
X34212Y49432*
X34257Y49186*
X34272Y48937*
X34257Y48688*
X34212Y48442*
X34137Y48204*
X34035Y47976*
X33906Y47763*
X33752Y47566*
X33575Y47390*
X33379Y47236*
X33165Y47107*
X32938Y47004*
X32699Y46930*
X32454Y46885*
X32205Y46870*
X31956Y46885*
X31710Y46930*
X31472Y47004*
X31244Y47107*
X31031Y47236*
X30834Y47390*
X30658Y47566*
X30504Y47763*
X30375Y47976*
X30272Y48204*
X30198Y48442*
X30153Y48688*
X30138Y48937*
Y72795D02*
X30153Y73044D01*
X30198Y73290*
X30272Y73528*
X30375Y73756*
X30504Y73969*
X30658Y74166*
X30834Y74342*
X31031Y74496*
X31244Y74625*
X31472Y74728*
X31710Y74802*
X31956Y74847*
X32205Y74862*
X32454Y74847*
X32699Y74802*
X32938Y74728*
X33165Y74625*
X33379Y74496*
X33575Y74342*
X33752Y74166*
X33906Y73969*
X34035Y73756*
X34137Y73528*
X34212Y73290*
X34257Y73044*
X34272Y72795*
X34257Y72546*
X34212Y72301*
X34137Y72062*
X34035Y71835*
X33906Y71621*
X33752Y71425*
X33575Y71248*
X33379Y71094*
X33165Y70965*
X32938Y70863*
X32699Y70788*
X32454Y70743*
X32205Y70728*
X31956Y70743*
X31710Y70788*
X31472Y70863*
X31244Y70965*
X31031Y71094*
X30834Y71248*
X30658Y71425*
X30504Y71621*
X30375Y71835*
X30272Y72062*
X30198Y72301*
X30153Y72546*
X30138Y72795*
X29862Y87244D02*
X29877Y87493D01*
X29922Y87739*
X29997Y87977*
X30099Y88205*
X30228Y88418*
X30382Y88615*
X30559Y88791*
X30755Y88945*
X30969Y89074*
X31196Y89177*
X31434Y89251*
X31680Y89296*
X31929Y89311*
X32178Y89296*
X32424Y89251*
X32662Y89177*
X32890Y89074*
X33103Y88945*
X33300Y88791*
X33476Y88615*
X33630Y88418*
X33759Y88205*
X33862Y87977*
X33936Y87739*
X33981Y87493*
X33996Y87244*
X33981Y86995*
X33936Y86749*
X33862Y86511*
X33759Y86284*
X33630Y86070*
X33476Y85874*
X33300Y85697*
X33103Y85543*
X32890Y85414*
X32662Y85311*
X32424Y85237*
X32178Y85192*
X31929Y85177*
X31680Y85192*
X31434Y85237*
X31196Y85311*
X30969Y85414*
X30755Y85543*
X30559Y85697*
X30382Y85874*
X30228Y86070*
X30099Y86284*
X29997Y86511*
X29922Y86749*
X29877Y86995*
X29862Y87244*
X30138Y110866D02*
X30153Y111115D01*
X30198Y111361*
X30272Y111599*
X30375Y111827*
X30504Y112040*
X30658Y112237*
X30834Y112413*
X31031Y112567*
X31244Y112696*
X31472Y112799*
X31710Y112873*
X31956Y112918*
X32205Y112933*
X32454Y112918*
X32699Y112873*
X32938Y112799*
X33165Y112696*
X33379Y112567*
X33575Y112413*
X33752Y112237*
X33906Y112040*
X34035Y111827*
X34137Y111599*
X34212Y111361*
X34257Y111115*
X34272Y110866*
X34258Y110630*
X34218Y110396*
X34151Y110169*
X34058Y109951*
X33941Y109745*
X33802Y109554*
X33641Y109380*
X33462Y109225*
X33266Y109092*
X33056Y108983*
X32835Y108898*
X33056Y108813*
X33266Y108703*
X33462Y108570*
X33641Y108415*
X33802Y108241*
X33941Y108050*
X34058Y107844*
X34151Y107626*
X34218Y107399*
X34258Y107166*
X34272Y106929*
X34257Y106680*
X34212Y106434*
X34137Y106196*
X34035Y105969*
X33906Y105755*
X33752Y105559*
X33575Y105382*
X33379Y105228*
X33165Y105099*
X32938Y104997*
X32699Y104922*
X32454Y104877*
X32205Y104862*
X31956Y104877*
X31710Y104922*
X31472Y104997*
X31244Y105099*
X31031Y105228*
X30834Y105382*
X30658Y105559*
X30504Y105755*
X30375Y105969*
X30272Y106196*
X30198Y106434*
X30153Y106680*
X30138Y106929*
X30151Y107166*
X30192Y107399*
X30259Y107626*
X30351Y107844*
X30468Y108050*
X30608Y108241*
X30768Y108415*
X30948Y108570*
X31144Y108703*
X31353Y108813*
X31574Y108898*
X31353Y108983*
X31144Y109092*
X30948Y109225*
X30768Y109380*
X30608Y109554*
X30468Y109745*
X30351Y109951*
X30259Y110169*
X30192Y110396*
X30151Y110630*
X30138Y110866*
Y118740D02*
X30153Y118989D01*
X30198Y119235*
X30272Y119473*
X30375Y119701*
X30504Y119914*
X30658Y120111*
X30834Y120287*
X31031Y120441*
X31244Y120570*
X31472Y120673*
X31710Y120747*
X31956Y120792*
X32205Y120807*
X32454Y120792*
X32699Y120747*
X32938Y120673*
X33165Y120570*
X33379Y120441*
X33575Y120287*
X33752Y120111*
X33906Y119914*
X34035Y119701*
X34137Y119473*
X34212Y119235*
X34257Y118989*
X34272Y118740*
X34257Y118491*
X34212Y118246*
X34137Y118007*
X34035Y117780*
X33906Y117566*
X33752Y117370*
X33575Y117193*
X33379Y117039*
X33165Y116910*
X32938Y116808*
X32699Y116733*
X32454Y116688*
X32205Y116673*
X31956Y116688*
X31710Y116733*
X31472Y116808*
X31244Y116910*
X31031Y117039*
X30834Y117193*
X30658Y117370*
X30504Y117566*
X30375Y117780*
X30272Y118007*
X30198Y118246*
X30153Y118491*
X30138Y118740*
X45374Y75433D02*
X45389Y75682D01*
X45434Y75928*
X45508Y76166*
X45611Y76394*
X45740Y76607*
X45894Y76804*
X46070Y76980*
X46267Y77134*
X46480Y77263*
X46708Y77366*
X46946Y77440*
X47192Y77485*
X47441Y77500*
X47690Y77485*
X47936Y77440*
X48174Y77366*
X48401Y77263*
X48615Y77134*
X48812Y76980*
X48988Y76804*
X49142Y76607*
X49271Y76394*
X49374Y76166*
X49448Y75928*
X49493Y75682*
X49508Y75433*
X49493Y75184*
X49448Y74938*
X49374Y74700*
X49271Y74473*
X49142Y74259*
X48988Y74062*
X48812Y73886*
X48615Y73732*
X48401Y73603*
X48174Y73500*
X47936Y73426*
X47690Y73381*
X47441Y73366*
X47192Y73381*
X46946Y73426*
X46708Y73500*
X46480Y73603*
X46267Y73732*
X46070Y73886*
X45894Y74062*
X45740Y74259*
X45611Y74473*
X45508Y74700*
X45434Y74938*
X45389Y75184*
X45374Y75433*
X47067Y83976D02*
X47082Y84225D01*
X47127Y84471*
X47201Y84709*
X47304Y84936*
X47433Y85150*
X47587Y85346*
X47763Y85523*
X47960Y85677*
X48173Y85806*
X48401Y85909*
X48639Y85983*
X48885Y86028*
X49134Y86043*
X49383Y86028*
X49629Y85983*
X49867Y85909*
X50094Y85806*
X50308Y85677*
X50504Y85523*
X50681Y85346*
X50835Y85150*
X50964Y84936*
X51066Y84709*
X51141Y84471*
X51186Y84225*
X51201Y83976*
X51186Y83727*
X51141Y83481*
X51066Y83243*
X50964Y83015*
X50835Y82802*
X50681Y82605*
X50504Y82429*
X50308Y82275*
X50094Y82146*
X49867Y82043*
X49629Y81969*
X49383Y81924*
X49134Y81909*
X48885Y81924*
X48639Y81969*
X48401Y82043*
X48173Y82146*
X47960Y82275*
X47763Y82429*
X47587Y82605*
X47433Y82802*
X47304Y83015*
X47201Y83243*
X47127Y83481*
X47082Y83727*
X47067Y83976*
X53858Y66457D02*
X54136Y66442D01*
X54411Y66399*
X54679Y66327*
X54939Y66227*
X55187Y66101*
X55420Y65949*
X55636Y65774*
X55833Y65577*
X56008Y65361*
X56160Y65128*
X56286Y64880*
X56386Y64620*
X56458Y64352*
X56501Y64077*
X56516Y63799*
X56501Y63521*
X56458Y63247*
X56386Y62978*
X56286Y62718*
X56160Y62470*
X56008Y62237*
X55833Y62021*
X55636Y61824*
X55420Y61649*
X55187Y61498*
X54939Y61371*
X54679Y61272*
X54411Y61200*
X54136Y61156*
X53858Y61142*
X53580Y61156*
X53306Y61200*
X53037Y61272*
X52777Y61371*
X52530Y61498*
X52296Y61649*
X52080Y61824*
X51883Y62021*
X51708Y62237*
X51557Y62470*
X51431Y62718*
X51331Y62978*
X51259Y63247*
X51215Y63521*
X51201Y63799*
X51215Y64077*
X51259Y64352*
X51331Y64620*
X51431Y64880*
X51557Y65128*
X51708Y65361*
X51883Y65577*
X52080Y65774*
X52296Y65949*
X52530Y66101*
X52777Y66227*
X53037Y66327*
X53306Y66399*
X53580Y66442*
X53858Y66457*
X56555Y99331D02*
X56570Y99580D01*
X56615Y99826*
X56689Y100064*
X56792Y100291*
X56921Y100505*
X57075Y100701*
X57251Y100878*
X57448Y101032*
X57661Y101161*
X57889Y101264*
X58127Y101338*
X58373Y101383*
X58622Y101398*
X58871Y101383*
X59117Y101338*
X59355Y101264*
X59583Y101161*
X59796Y101032*
X59993Y100878*
X60169Y100701*
X60323Y100505*
X60452Y100291*
X60555Y100064*
X60629Y99826*
X60674Y99580*
X60689Y99331*
X60676Y99096*
X60636Y98864*
X60570Y98639*
X60478Y98422*
X60363Y98217*
X60225Y98026*
X60365Y97818*
X60479Y97595*
X60564Y97359*
X60621Y97115*
X60647Y96865*
X60644Y96615*
X60609Y96366*
X60545Y96124*
X60453Y95891*
X60332Y95671*
X60186Y95467*
X60324Y95262*
X60437Y95041*
X60523Y94809*
X60580Y94567*
X60607Y94321*
X60606Y94073*
X60574Y93827*
X60513Y93587*
X60424Y93356*
X60308Y93137*
X60167Y92933*
X60299Y92745*
X60409Y92544*
X60496Y92331*
X60559Y92110*
X60597Y91883*
X60610Y91654*
X60595Y91405*
X60550Y91159*
X60476Y90921*
X60373Y90693*
X60244Y90480*
X60090Y90283*
X59914Y90107*
X59717Y89953*
X59504Y89824*
X59276Y89721*
X59038Y89647*
X58792Y89602*
X58543Y89587*
X58294Y89602*
X58049Y89647*
X57810Y89721*
X57583Y89824*
X57369Y89953*
X57173Y90107*
X56996Y90283*
X56842Y90480*
X56713Y90693*
X56611Y90921*
X56536Y91159*
X56491Y91405*
X56476Y91654*
X56489Y91883*
X56527Y92110*
X56590Y92331*
X56678Y92544*
X56788Y92745*
X56920Y92933*
X56776Y93142*
X56658Y93366*
X56568Y93604*
X56508Y93850*
X56479Y94102*
X56481Y94356*
X56514Y94607*
X56578Y94853*
X56671Y95089*
X56792Y95311*
X56940Y95517*
X56800Y95726*
X56687Y95949*
X56601Y96185*
X56544Y96429*
X56518Y96678*
X56522Y96929*
X56556Y97177*
X56620Y97420*
X56713Y97653*
X56833Y97873*
X56979Y98076*
X56853Y98262*
X56747Y98460*
X56664Y98669*
X56604Y98885*
X56567Y99107*
X56555Y99331*
X60728Y42283D02*
X60743Y42533D01*
X60788Y42778*
X60863Y43016*
X60965Y43244*
X61094Y43458*
X61248Y43654*
X61425Y43831*
X61621Y43984*
X61835Y44114*
X62062Y44216*
X62301Y44290*
X62546Y44335*
X62795Y44350*
X63044Y44335*
X63290Y44290*
X63528Y44216*
X63756Y44114*
X63969Y43984*
X64166Y43831*
X64342Y43654*
X64496Y43458*
X64625Y43244*
X64728Y43016*
X64802Y42778*
X64847Y42533*
X64862Y42283*
X64847Y42034*
X64802Y41789*
X64728Y41551*
X64625Y41323*
X64496Y41109*
X64342Y40913*
X64166Y40736*
X63969Y40582*
X63756Y40453*
X63528Y40351*
X63290Y40277*
X63044Y40232*
X62795Y40217*
X62546Y40232*
X62301Y40277*
X62062Y40351*
X61835Y40453*
X61621Y40582*
X61425Y40736*
X61248Y40913*
X61094Y41109*
X60965Y41323*
X60863Y41551*
X60788Y41789*
X60743Y42034*
X60728Y42283*
X61555Y114803D02*
X61570Y115052D01*
X61615Y115298*
X61689Y115536*
X61792Y115764*
X61921Y115977*
X62075Y116174*
X62251Y116350*
X62448Y116504*
X62661Y116633*
X62889Y116736*
X63127Y116810*
X63373Y116855*
X63622Y116870*
X63871Y116855*
X64117Y116810*
X64355Y116736*
X64583Y116633*
X64796Y116504*
X64993Y116350*
X65169Y116174*
X65323Y115977*
X65452Y115764*
X65555Y115536*
X65629Y115298*
X65674Y115052*
X65689Y114803*
X65674Y114554*
X65629Y114309*
X65555Y114070*
X65452Y113843*
X65323Y113629*
X65169Y113433*
X64993Y113256*
X64796Y113102*
X64583Y112973*
X64355Y112871*
X64117Y112796*
X63871Y112751*
X63622Y112736*
X63373Y112751*
X63127Y112796*
X62889Y112871*
X62661Y112973*
X62448Y113102*
X62251Y113256*
X62075Y113433*
X61921Y113629*
X61792Y113843*
X61689Y114070*
X61615Y114309*
X61570Y114554*
X61555Y114803*
X71870Y76299D02*
X71885Y76548D01*
X71930Y76794*
X72004Y77032*
X72107Y77259*
X72236Y77473*
X72390Y77669*
X72566Y77846*
X72763Y78000*
X72976Y78129*
X73204Y78231*
X73442Y78306*
X73688Y78351*
X73937Y78366*
X74186Y78351*
X74432Y78306*
X74670Y78231*
X74898Y78129*
X75111Y78000*
X75308Y77846*
X75484Y77669*
X75638Y77473*
X75767Y77259*
X75870Y77032*
X75944Y76794*
X75989Y76548*
X76004Y76299*
X75989Y76050*
X75944Y75804*
X75870Y75566*
X75767Y75338*
X75638Y75125*
X75484Y74928*
X75308Y74752*
X75111Y74598*
X74898Y74469*
X74670Y74366*
X74432Y74292*
X74186Y74247*
X73937Y74232*
X73688Y74247*
X73442Y74292*
X73204Y74366*
X72976Y74469*
X72763Y74598*
X72566Y74752*
X72390Y74928*
X72236Y75125*
X72107Y75338*
X72004Y75566*
X71930Y75804*
X71885Y76050*
X71870Y76299*
X78661Y66457D02*
X78939Y66442D01*
X79214Y66399*
X79483Y66327*
X79742Y66227*
X79990Y66101*
X80223Y65949*
X80440Y65774*
X80636Y65577*
X80811Y65361*
X80963Y65128*
X81089Y64880*
X81189Y64620*
X81261Y64352*
X81304Y64077*
X81319Y63799*
X81304Y63521*
X81261Y63247*
X81189Y62978*
X81089Y62718*
X80963Y62470*
X80811Y62237*
X80636Y62021*
X80440Y61824*
X80223Y61649*
X79990Y61498*
X79742Y61371*
X79483Y61272*
X79214Y61200*
X78939Y61156*
X78661Y61142*
X78384Y61156*
X78109Y61200*
X77840Y61272*
X77581Y61371*
X77333Y61498*
X77099Y61649*
X76883Y61824*
X76687Y62021*
X76511Y62237*
X76360Y62470*
X76234Y62718*
X76134Y62978*
X76062Y63247*
X76019Y63521*
X76004Y63799*
X76019Y64077*
X76062Y64352*
X76134Y64620*
X76234Y64880*
X76360Y65128*
X76511Y65361*
X76687Y65577*
X76883Y65774*
X77099Y65949*
X77333Y66101*
X77581Y66227*
X77840Y66327*
X78109Y66399*
X78384Y66442*
X78661Y66457*
X71870Y99331D02*
X71885Y99580D01*
X71930Y99826*
X72004Y100064*
X72107Y100291*
X72236Y100505*
X72390Y100701*
X72566Y100878*
X72763Y101032*
X72976Y101161*
X73204Y101264*
X73442Y101338*
X73688Y101383*
X73937Y101398*
X74186Y101383*
X74432Y101338*
X74670Y101264*
X74898Y101161*
X75111Y101032*
X75308Y100878*
X75484Y100701*
X75638Y100505*
X75767Y100291*
X75870Y100064*
X75944Y99826*
X75989Y99580*
X76004Y99331*
X75989Y99082*
X75944Y98836*
X75870Y98598*
X75767Y98370*
X75638Y98157*
X75484Y97960*
X75308Y97784*
X75111Y97630*
X74898Y97501*
X74670Y97398*
X74432Y97324*
X74186Y97279*
X73937Y97264*
X73688Y97279*
X73442Y97324*
X73204Y97398*
X72976Y97501*
X72763Y97630*
X72566Y97784*
X72390Y97960*
X72236Y98157*
X72107Y98370*
X72004Y98598*
X71930Y98836*
X71885Y99082*
X71870Y99331*
X96043Y40669D02*
X96058Y40918D01*
X96103Y41164*
X96178Y41402*
X96280Y41630*
X96409Y41843*
X96563Y42040*
X96740Y42216*
X96936Y42370*
X97150Y42499*
X97377Y42602*
X97616Y42676*
X97861Y42721*
X98110Y42736*
X98359Y42721*
X98605Y42676*
X98843Y42602*
X99071Y42499*
X99284Y42370*
X99481Y42216*
X99657Y42040*
X99811Y41843*
X99940Y41630*
X100043Y41402*
X100117Y41164*
X100162Y40918*
X100177Y40669*
X100163Y40424*
X100119Y40182*
X100047Y39948*
X99948Y39723*
X99823Y39512*
X99673Y39317*
X99502Y39141*
X99310Y38986*
X99102Y38856*
X98880Y38751*
X98647Y38673*
X98407Y38624*
X98162Y38603*
X97916Y38611*
X97674Y38649*
X97437Y38715*
X97210Y38809*
X96996Y38929*
X96797Y39073*
X96617Y39240*
X96634Y38992*
X96621Y38744*
X96578Y38499*
X96506Y38261*
X96406Y38033*
X96279Y37819*
X96128Y37622*
X95954Y37444*
X95760Y37288*
X95548Y37157*
X95323Y37053*
X95086Y36976*
X94842Y36928*
X94594Y36910*
X94346Y36921*
X94101Y36963*
X93862Y37033*
X93634Y37132*
X93419Y37257*
X93221Y37408*
X93042Y37581*
X92886Y37774*
X92753Y37985*
X92647Y38210*
X92420Y38096*
X92180Y38012*
X91931Y37958*
X91678Y37934*
X91423Y37942*
X91172Y37981*
X90927Y38051*
X90693Y38150*
X90472Y38277*
X90269Y38430*
X90087Y38608*
X89927Y38806*
X89793Y39022*
X89687Y39253*
X89610Y39496*
X89563Y39746*
X89547Y40000*
X89562Y40248*
X89607Y40492*
X89680Y40729*
X89781Y40955*
X89909Y41168*
X90061Y41364*
X90235Y41540*
X90430Y41694*
X90641Y41824*
X90867Y41927*
X91103Y42003*
X91346Y42049*
X91594Y42067*
X91842Y42054*
X92086Y42012*
X92324Y41941*
X92551Y41842*
X92765Y41717*
X92962Y41567*
X93140Y41394*
X93296Y41201*
X93428Y40991*
X93534Y40767*
X93757Y40878*
X93993Y40962*
X94237Y41017*
X94485Y41042*
X94735Y41036*
X94982Y41001*
X95224Y40936*
X95456Y40843*
X95674Y40722*
X95877Y40575*
X96060Y40405*
X96048Y40537*
X96043Y40669*
X99429Y88976D02*
X99444Y89226D01*
X99489Y89471*
X99563Y89709*
X99666Y89937*
X99795Y90151*
X99949Y90347*
X100125Y90523*
X100322Y90677*
X100536Y90807*
X100763Y90909*
X101001Y90983*
X101247Y91028*
X101496Y91043*
X101745Y91028*
X101991Y90983*
X102229Y90909*
X102457Y90807*
X102670Y90677*
X102867Y90523*
X103043Y90347*
X103197Y90151*
X103326Y89937*
X103429Y89709*
X103503Y89471*
X103548Y89226*
X103563Y88976*
X103548Y88727*
X103503Y88482*
X103429Y88243*
X103326Y88016*
X103197Y87802*
X103043Y87606*
X102867Y87429*
X102670Y87275*
X102457Y87146*
X102229Y87044*
X101991Y86970*
X101745Y86925*
X101496Y86909*
X101247Y86925*
X101001Y86970*
X100763Y87044*
X100536Y87146*
X100322Y87275*
X100125Y87429*
X99949Y87606*
X99795Y87802*
X99666Y88016*
X99563Y88243*
X99489Y88482*
X99444Y88727*
X99429Y88976*
X101713Y96693D02*
X101728Y96942D01*
X101773Y97188*
X101847Y97426*
X101949Y97653*
X102079Y97867*
X102232Y98064*
X102409Y98240*
X102605Y98394*
X102819Y98523*
X103047Y98626*
X103285Y98700*
X103530Y98745*
X103780Y98760*
X104029Y98745*
X104274Y98700*
X104512Y98626*
X104740Y98523*
X104954Y98394*
X105150Y98240*
X105327Y98064*
X105481Y97867*
X105610Y97653*
X105712Y97426*
X105786Y97188*
X105831Y96942*
X105846Y96693*
X105831Y96444*
X105786Y96198*
X105712Y95960*
X105610Y95732*
X105481Y95519*
X105327Y95322*
X105150Y95146*
X104954Y94992*
X104740Y94863*
X104512Y94760*
X104274Y94686*
X104029Y94641*
X103780Y94626*
X103530Y94641*
X103285Y94686*
X103047Y94760*
X102819Y94863*
X102605Y94992*
X102409Y95146*
X102232Y95322*
X102079Y95519*
X101949Y95732*
X101847Y95960*
X101773Y96198*
X101728Y96444*
X101713Y96693*
X114114Y84055D02*
X114129Y84304D01*
X114174Y84550*
X114249Y84788*
X114351Y85016*
X114480Y85229*
X114634Y85426*
X114811Y85602*
X115007Y85756*
X115221Y85885*
X115448Y85988*
X115686Y86062*
X115932Y86107*
X116181Y86122*
X116430Y86107*
X116676Y86062*
X116914Y85988*
X117142Y85885*
X117355Y85756*
X117552Y85602*
X117728Y85426*
X117882Y85229*
X118011Y85016*
X118114Y84788*
X118188Y84550*
X118233Y84304*
X118248Y84055*
X118233Y83806*
X118188Y83560*
X118114Y83322*
X118011Y83095*
X117882Y82881*
X117728Y82685*
X117552Y82508*
X117355Y82354*
X117142Y82225*
X116914Y82123*
X116676Y82048*
X116430Y82003*
X116181Y81988*
X115932Y82003*
X115686Y82048*
X115448Y82123*
X115221Y82225*
X115007Y82354*
X114811Y82508*
X114634Y82685*
X114480Y82881*
X114351Y83095*
X114249Y83322*
X114174Y83560*
X114129Y83806*
X114114Y84055*
X125492Y71220D02*
X125507Y71470D01*
X125552Y71715*
X125626Y71953*
X125729Y72181*
X125858Y72395*
X126012Y72591*
X126188Y72768*
X126385Y72921*
X126599Y73051*
X126826Y73153*
X127064Y73227*
X127310Y73272*
X127559Y73287*
X127808Y73272*
X128054Y73227*
X128292Y73153*
X128520Y73051*
X128733Y72921*
X128930Y72768*
X129106Y72591*
X129260Y72395*
X129389Y72181*
X129492Y71953*
X129566Y71715*
X129611Y71470*
X129626Y71220*
X129611Y70971*
X129566Y70726*
X129492Y70488*
X129389Y70260*
X129260Y70046*
X129106Y69850*
X128930Y69673*
X128733Y69519*
X128520Y69390*
X128292Y69288*
X128054Y69214*
X127808Y69169*
X127559Y69154*
X127310Y69169*
X127064Y69214*
X126826Y69288*
X126599Y69390*
X126385Y69519*
X126188Y69673*
X126012Y69850*
X125858Y70046*
X125729Y70260*
X125626Y70488*
X125552Y70726*
X125507Y70971*
X125492Y71220*
X129350Y56102D02*
X129365Y56351D01*
X129410Y56597*
X129485Y56835*
X129587Y57063*
X129716Y57276*
X129870Y57473*
X130047Y57649*
X130243Y57803*
X130457Y57933*
X130684Y58035*
X130923Y58109*
X131168Y58154*
X131417Y58169*
X131666Y58154*
X131912Y58109*
X132150Y58035*
X132378Y57933*
X132591Y57803*
X132788Y57649*
X132964Y57473*
X133118Y57276*
X133247Y57063*
X133350Y56835*
X133424Y56597*
X133469Y56351*
X133484Y56102*
X133469Y55853*
X133424Y55608*
X133350Y55369*
X133247Y55142*
X133118Y54928*
X132964Y54732*
X132788Y54555*
X132591Y54401*
X132378Y54272*
X132150Y54170*
X131912Y54096*
X131666Y54051*
X131417Y54035*
X131168Y54051*
X130923Y54096*
X130684Y54170*
X130457Y54272*
X130243Y54401*
X130047Y54555*
X129870Y54732*
X129716Y54928*
X129587Y55142*
X129485Y55369*
X129410Y55608*
X129365Y55853*
X129350Y56102*
X168130Y16378D02*
X168145Y16627D01*
X168190Y16873*
X168264Y17111*
X168367Y17339*
X168496Y17552*
X168650Y17749*
X168826Y17925*
X169023Y18079*
X169236Y18208*
X169464Y18311*
X169702Y18385*
X169948Y18430*
X170197Y18445*
X170446Y18430*
X170691Y18385*
X170930Y18311*
X171157Y18208*
X171371Y18079*
X171567Y17925*
X171744Y17749*
X171898Y17552*
X172027Y17339*
X172129Y17111*
X172204Y16873*
X172249Y16627*
X172264Y16378*
X172249Y16129*
X172204Y15883*
X172129Y15645*
X172027Y15417*
X171898Y15204*
X171744Y15007*
X171567Y14831*
X171371Y14677*
X171157Y14548*
X170930Y14445*
X170691Y14371*
X170446Y14326*
X170197Y14311*
X169948Y14326*
X169702Y14371*
X169464Y14445*
X169236Y14548*
X169023Y14677*
X168826Y14831*
X168650Y15007*
X168496Y15204*
X168367Y15417*
X168264Y15645*
X168190Y15883*
X168145Y16129*
X168130Y16378*
X171161Y71220D02*
X171176Y71470D01*
X171221Y71715*
X171296Y71953*
X171398Y72181*
X171527Y72395*
X171681Y72591*
X171858Y72768*
X172054Y72921*
X172268Y73051*
X172495Y73153*
X172734Y73227*
X172979Y73272*
X173228Y73287*
X173477Y73272*
X173723Y73227*
X173961Y73153*
X174189Y73051*
X174402Y72921*
X174599Y72768*
X174775Y72591*
X174929Y72395*
X175059Y72181*
X175161Y71953*
X175235Y71715*
X175280Y71470*
X175295Y71220*
X175280Y70971*
X175235Y70726*
X175161Y70488*
X175059Y70260*
X174929Y70046*
X174775Y69850*
X174599Y69673*
X174402Y69519*
X174189Y69390*
X173961Y69288*
X173723Y69214*
X173477Y69169*
X173228Y69154*
X172979Y69169*
X172734Y69214*
X172495Y69288*
X172268Y69390*
X172054Y69519*
X171858Y69673*
X171681Y69850*
X171527Y70046*
X171398Y70260*
X171296Y70488*
X171221Y70726*
X171176Y70971*
X171161Y71220*
X180217Y161024D02*
X180232Y161647D01*
X180278Y162268*
X180354Y162887*
X180460Y163501*
X180597Y164109*
X180763Y164709*
X180959Y165301*
X181183Y165882*
X181436Y166452*
X181716Y167009*
X182023Y167551*
X182356Y168078*
X182715Y168587*
X183099Y169078*
X183506Y169550*
X183935Y170002*
X184387Y170431*
X184859Y170838*
X185350Y171222*
X185859Y171581*
X186386Y171914*
X186928Y172221*
X187485Y172501*
X188055Y172754*
X188636Y172978*
X189228Y173174*
X189828Y173340*
X190436Y173476*
X191050Y173583*
X191669Y173659*
X192290Y173705*
X192913Y173720*
X193536Y173705*
X194158Y173659*
X194776Y173583*
X195390Y173476*
X195998Y173340*
X196599Y173174*
X197191Y172978*
X197772Y172754*
X198342Y172501*
X198899Y172221*
X199441Y171914*
X199967Y171581*
X200477Y171222*
X200968Y170838*
X201440Y170431*
X201891Y170002*
X202321Y169550*
X202728Y169078*
X203112Y168587*
X203470Y168078*
X203804Y167551*
X204111Y167009*
X204391Y166452*
X204644Y165882*
X204868Y165301*
X205064Y164709*
X205230Y164109*
X205366Y163501*
X205473Y162887*
X205549Y162268*
X205595Y161647*
X205610Y161024*
X205595Y160401*
X205549Y159779*
X205473Y159161*
X205366Y158547*
X205230Y157939*
X205064Y157338*
X204868Y156746*
X204644Y156165*
X204391Y155595*
X204111Y155038*
X203804Y154496*
X203470Y153970*
X203112Y153460*
X202728Y152969*
X202321Y152497*
X201891Y152046*
X201440Y151616*
X200968Y151209*
X200477Y150825*
X199967Y150467*
X199441Y150133*
X198899Y149826*
X198342Y149546*
X197772Y149293*
X197191Y149069*
X196599Y148874*
X195998Y148707*
X195390Y148571*
X194776Y148464*
X194158Y148388*
X193536Y148342*
X192913Y148327*
X192290Y148342*
X191669Y148388*
X191050Y148464*
X190436Y148571*
X189828Y148707*
X189228Y148874*
X188636Y149069*
X188055Y149293*
X187485Y149546*
X186928Y149826*
X186386Y150133*
X185859Y150467*
X185350Y150825*
X184859Y151209*
X184387Y151616*
X183935Y152046*
X183506Y152497*
X183099Y152969*
X182715Y153460*
X182356Y153970*
X182023Y154496*
X181716Y155038*
X181436Y155595*
X181183Y156165*
X180959Y156746*
X180763Y157338*
X180597Y157939*
X180460Y158547*
X180354Y159161*
X180278Y159779*
X180232Y160401*
X180217Y161024*
X335630Y74483D02*
X335876Y74530D01*
X336126Y74547*
X336377Y74534*
X336624Y74490*
X336864Y74417*
X337093Y74315*
X337308Y74187*
X337506Y74033*
X337684Y73856*
X337840Y73659*
X337970Y73445*
X338073Y73216*
X338148Y72977*
X338194Y72730*
X338209Y72480*
X338193Y72230*
X338148Y71983*
X338073Y71744*
X337970Y71516*
X337839Y71301*
X337684Y71104*
X337506Y70928*
X337308Y70774*
X337093Y70645*
X336864Y70544*
X336624Y70470*
X336377Y70427*
X336126Y70413*
X335876Y70431*
X335630Y70478*
Y29528*
X335615Y29343*
X335572Y29163*
X335501Y28991*
X335404Y28833*
X335284Y28692*
X335143Y28572*
X334985Y28475*
X334814Y28404*
X334634Y28361*
X334449Y28346*
X206299*
X206114Y28361*
X205934Y28404*
X205763Y28475*
X205605Y28572*
X205464Y28692*
X205344Y28833*
X205247Y28991*
X205176Y29163*
X205133Y29343*
X205118Y29528*
Y88448*
X205126Y88585*
X205150Y88719*
X205188Y88850*
X205003Y89004*
X204837Y89179*
X204693Y89372*
X204572Y89581*
X204476Y89802*
X204406Y90033*
X204364Y90271*
X204350Y90512*
X204364Y90753*
X204406Y90990*
X204476Y91221*
X204572Y91442*
X204693Y91651*
X204837Y91844*
X205003Y92019*
X205188Y92174*
X205150Y92305*
X205126Y92439*
X205118Y92575*
Y123622*
X205133Y123807*
X205176Y123987*
X205247Y124158*
X205344Y124316*
X205464Y124457*
X205605Y124578*
X205763Y124674*
X205934Y124745*
X206114Y124789*
X206299Y124803*
X334449*
X334634Y124789*
X334814Y124745*
X334985Y124674*
X335143Y124578*
X335284Y124457*
X335404Y124316*
X335501Y124158*
X335572Y123987*
X335615Y123807*
X335630Y123622*
Y121614*
X335618Y121449*
X335583Y121286*
X335526Y121131*
X335448Y120984*
X335526Y120838*
X335583Y120682*
X335618Y120520*
X335630Y120354*
Y74483*
X282539Y24252D02*
X282554Y24501D01*
X282599Y24747*
X282674Y24985*
X282776Y25213*
X282905Y25426*
X283059Y25623*
X283236Y25799*
X283432Y25953*
X283646Y26082*
X283873Y26185*
X284112Y26259*
X284357Y26304*
X284606Y26319*
X284855Y26304*
X285101Y26259*
X285339Y26185*
X285567Y26082*
X285780Y25953*
X285977Y25799*
X286153Y25623*
X286307Y25426*
X286436Y25213*
X286539Y24985*
X286613Y24747*
X286658Y24501*
X286673Y24252*
X286658Y24003*
X286613Y23757*
X286539Y23519*
X286436Y23291*
X286307Y23078*
X286153Y22881*
X285977Y22705*
X285780Y22551*
X285567Y22422*
X285339Y22319*
X285101Y22245*
X284855Y22200*
X284606Y22185*
X284357Y22200*
X284112Y22245*
X283873Y22319*
X283646Y22422*
X283432Y22551*
X283236Y22705*
X283059Y22881*
X282905Y23078*
X282776Y23291*
X282674Y23519*
X282599Y23757*
X282554Y24003*
X282539Y24252*
X287736Y20315D02*
X287751Y20564D01*
X287796Y20810*
X287871Y21048*
X287973Y21276*
X288102Y21489*
X288256Y21686*
X288433Y21862*
X288629Y22016*
X288843Y22145*
X289070Y22248*
X289309Y22322*
X289554Y22367*
X289803Y22382*
X290052Y22367*
X290298Y22322*
X290536Y22248*
X290764Y22145*
X290977Y22016*
X291174Y21862*
X291350Y21686*
X291504Y21489*
X291633Y21276*
X291736Y21048*
X291810Y20810*
X291855Y20564*
X291870Y20315*
X291855Y20066*
X291810Y19820*
X291736Y19582*
X291633Y19354*
X291504Y19141*
X291350Y18944*
X291174Y18768*
X290977Y18614*
X290764Y18485*
X290536Y18382*
X290298Y18308*
X290052Y18263*
X289803Y18248*
X289554Y18263*
X289309Y18308*
X289070Y18382*
X288843Y18485*
X288629Y18614*
X288433Y18768*
X288256Y18944*
X288102Y19141*
X287973Y19354*
X287871Y19582*
X287796Y19820*
X287751Y20066*
X287736Y20315*
X291752Y22441D02*
X291767Y22690D01*
X291812Y22936*
X291886Y23174*
X291989Y23401*
X292118Y23615*
X292272Y23812*
X292448Y23988*
X292645Y24142*
X292858Y24271*
X293086Y24374*
X293324Y24448*
X293570Y24493*
X293819Y24508*
X294068Y24493*
X294314Y24448*
X294552Y24374*
X294779Y24271*
X294993Y24142*
X295189Y23988*
X295366Y23812*
X295520Y23615*
X295649Y23401*
X295751Y23174*
X295826Y22936*
X295871Y22690*
X295886Y22441*
X295871Y22192*
X295826Y21946*
X295751Y21708*
X295649Y21480*
X295520Y21267*
X295366Y21070*
X295189Y20894*
X294993Y20740*
X294779Y20611*
X294552Y20508*
X294314Y20434*
X294068Y20389*
X293819Y20374*
X293570Y20389*
X293324Y20434*
X293086Y20508*
X292858Y20611*
X292645Y20740*
X292448Y20894*
X292272Y21070*
X292118Y21267*
X291989Y21480*
X291886Y21708*
X291812Y21946*
X291767Y22192*
X291752Y22441*
X303878Y26201D02*
X303893Y26450D01*
X303938Y26695*
X304012Y26934*
X304115Y27161*
X304244Y27375*
X304398Y27571*
X304574Y27748*
X304771Y27902*
X304984Y28031*
X305212Y28133*
X305450Y28208*
X305696Y28253*
X305945Y28268*
X306194Y28253*
X306440Y28208*
X306678Y28133*
X306905Y28031*
X307119Y27902*
X307315Y27748*
X307492Y27571*
X307646Y27375*
X307775Y27161*
X307877Y26934*
X307952Y26695*
X307997Y26450*
X308012Y26201*
X307997Y25952*
X307952Y25706*
X307877Y25468*
X307775Y25240*
X307646Y25027*
X307492Y24830*
X307315Y24654*
X307119Y24500*
X306905Y24371*
X306678Y24268*
X306440Y24194*
X306194Y24149*
X305945Y24134*
X305696Y24149*
X305450Y24194*
X305212Y24268*
X304984Y24371*
X304771Y24500*
X304574Y24654*
X304398Y24830*
X304244Y25027*
X304115Y25240*
X304012Y25468*
X303938Y25706*
X303893Y25952*
X303878Y26201*
X304114Y18524D02*
X304129Y18773D01*
X304174Y19018*
X304249Y19257*
X304351Y19484*
X304480Y19698*
X304634Y19894*
X304811Y20071*
X305007Y20225*
X305221Y20354*
X305448Y20456*
X305686Y20530*
X305932Y20575*
X306181Y20591*
X306430Y20575*
X306676Y20530*
X306914Y20456*
X307142Y20354*
X307355Y20225*
X307552Y20071*
X307728Y19894*
X307882Y19698*
X308011Y19484*
X308114Y19257*
X308188Y19018*
X308233Y18773*
X308248Y18524*
X308233Y18274*
X308188Y18029*
X308114Y17791*
X308011Y17563*
X307882Y17349*
X307728Y17153*
X307552Y16977*
X307355Y16823*
X307142Y16693*
X306914Y16591*
X306676Y16517*
X306430Y16472*
X306181Y16457*
X305932Y16472*
X305686Y16517*
X305448Y16591*
X305221Y16693*
X305007Y16823*
X304811Y16977*
X304634Y17153*
X304480Y17349*
X304351Y17563*
X304249Y17791*
X304174Y18029*
X304129Y18274*
X304114Y18524*
X334350Y9606D02*
X334365Y9855D01*
X334410Y10101*
X334485Y10339*
X334587Y10567*
X334716Y10780*
X334870Y10977*
X335047Y11153*
X335243Y11307*
X335457Y11436*
X335684Y11539*
X335923Y11613*
X336168Y11658*
X336417Y11673*
X336666Y11658*
X336912Y11613*
X337150Y11539*
X337378Y11436*
X337591Y11307*
X337788Y11153*
X337964Y10977*
X338118Y10780*
X338247Y10567*
X338350Y10339*
X338424Y10101*
X338469Y9855*
X338484Y9606*
X338469Y9357*
X338424Y9112*
X338350Y8873*
X338247Y8646*
X338118Y8432*
X337964Y8236*
X337788Y8059*
X337591Y7905*
X337378Y7776*
X337150Y7674*
X336912Y7599*
X336666Y7554*
X336417Y7539*
X336168Y7554*
X335923Y7599*
X335684Y7674*
X335457Y7776*
X335243Y7905*
X335047Y8059*
X334870Y8236*
X334716Y8432*
X334587Y8646*
X334485Y8873*
X334410Y9112*
X334365Y9357*
X334350Y9606*
X207461Y137402D02*
X207476Y137651D01*
X207521Y137896*
X207595Y138135*
X207697Y138362*
X207827Y138576*
X207980Y138772*
X208157Y138949*
X208353Y139103*
X208567Y139232*
X208795Y139334*
X209033Y139408*
X209278Y139453*
X209528Y139469*
X209777Y139453*
X210022Y139408*
X210261Y139334*
X210488Y139232*
X210702Y139103*
X210898Y138949*
X211075Y138772*
X211229Y138576*
X211358Y138362*
X211460Y138135*
X211534Y137896*
X211579Y137651*
X211594Y137402*
X211579Y137152*
X211534Y136907*
X211460Y136669*
X211358Y136441*
X211229Y136227*
X211075Y136031*
X210898Y135854*
X210702Y135701*
X210488Y135571*
X210261Y135469*
X210022Y135395*
X209777Y135350*
X209528Y135335*
X209278Y135350*
X209033Y135395*
X208795Y135469*
X208567Y135571*
X208353Y135701*
X208157Y135854*
X207980Y136031*
X207827Y136227*
X207697Y136441*
X207595Y136669*
X207521Y136907*
X207476Y137152*
X207461Y137402*
X287805Y162738D02*
X287955Y163090D01*
X288133Y163429*
X288337Y163753*
X288566Y164060*
X288818Y164347*
X289093Y164614*
X289387Y164858*
X289701Y165078*
X290030Y165272*
X290374Y165440*
X290731Y165580*
X291097Y165691*
X291471Y165772*
X291850Y165824*
X292232Y165846*
X292615Y165837*
X292996Y165798*
X293372Y165729*
X293742Y165630*
X294102Y165502*
X294452Y165346*
X294788Y165163*
X295108Y164954*
X295411Y164720*
X295695Y164462*
X295957Y164183*
X296196Y163885*
X296410Y163568*
X296599Y163235*
X296761Y162888*
X296895Y162529*
X297000Y162161*
X297075Y161786*
X297121Y161406*
X297136Y161024*
X297121Y160641*
X297075Y160261*
X297000Y159886*
X296895Y159518*
X296761Y159159*
X296599Y158813*
X296410Y158480*
X296196Y158163*
X295957Y157864*
X295695Y157585*
X295411Y157328*
X295109Y157094*
X294788Y156884*
X294452Y156701*
X294103Y156545*
X293742Y156417*
X293372Y156319*
X292996Y156249*
X292615Y156210*
X292232Y156201*
X291850Y156223*
X291471Y156275*
X291097Y156357*
X290731Y156468*
X290375Y156607*
X290031Y156775*
X289701Y156969*
X289388Y157189*
X289093Y157433*
X288818Y157700*
X288566Y157988*
X288337Y158294*
X288133Y158618*
X287955Y158957*
X287805Y159309*
X287653Y158952*
X287472Y158609*
X287264Y158281*
X287031Y157971*
X286773Y157681*
X286493Y157412*
X286193Y157167*
X285873Y156946*
X285537Y156752*
X285186Y156586*
X284823Y156449*
X284451Y156341*
X284070Y156263*
X283685Y156216*
X283297Y156201*
X282909Y156216*
X282524Y156263*
X282144Y156341*
X281771Y156449*
X281408Y156586*
X281058Y156752*
X280721Y156946*
X280402Y157167*
X280101Y157412*
X279821Y157681*
X279564Y157971*
X279330Y158281*
X279122Y158609*
X278942Y158952*
X278789Y159309*
X278637Y158952*
X278456Y158609*
X278249Y158281*
X278015Y157971*
X277758Y157681*
X277478Y157412*
X277177Y157167*
X276857Y156946*
X276521Y156752*
X276171Y156586*
X275808Y156449*
X275435Y156341*
X275055Y156263*
X274669Y156216*
X274281Y156201*
X273894Y156216*
X273508Y156263*
X273128Y156341*
X272755Y156449*
X272392Y156586*
X272042Y156752*
X271706Y156946*
X271386Y157167*
X271085Y157412*
X270805Y157681*
X270548Y157971*
X270314Y158281*
X270107Y158609*
X269926Y158952*
X269774Y159309*
X269621Y158952*
X269441Y158609*
X269233Y158281*
X268999Y157971*
X268742Y157681*
X268462Y157412*
X268161Y157167*
X267842Y156946*
X267505Y156752*
X267155Y156586*
X266792Y156449*
X266419Y156341*
X266039Y156263*
X265654Y156216*
X265266Y156201*
X264878Y156216*
X264493Y156263*
X264112Y156341*
X263740Y156449*
X263377Y156586*
X263026Y156752*
X262690Y156946*
X262370Y157167*
X262070Y157412*
X261790Y157681*
X261532Y157971*
X261299Y158281*
X261091Y158609*
X260910Y158952*
X260758Y159309*
X260605Y158952*
X260425Y158609*
X260217Y158281*
X259984Y157971*
X259726Y157681*
X259446Y157412*
X259145Y157167*
X258826Y156946*
X258490Y156752*
X258139Y156586*
X257776Y156449*
X257403Y156341*
X257023Y156263*
X256638Y156216*
X256250Y156201*
X255862Y156216*
X255477Y156263*
X255097Y156341*
X254724Y156449*
X254361Y156586*
X254010Y156752*
X253674Y156946*
X253355Y157167*
X253054Y157412*
X252774Y157681*
X252516Y157971*
X252283Y158281*
X252075Y158609*
X251895Y158952*
X251742Y159309*
X251590Y158952*
X251409Y158609*
X251201Y158281*
X250968Y157971*
X250710Y157681*
X250430Y157412*
X250130Y157167*
X249810Y156946*
X249474Y156752*
X249123Y156586*
X248760Y156449*
X248388Y156341*
X248007Y156263*
X247622Y156216*
X247234Y156201*
X246846Y156216*
X246461Y156263*
X246081Y156341*
X245708Y156449*
X245345Y156586*
X244995Y156752*
X244658Y156946*
X244339Y157167*
X244038Y157412*
X243758Y157681*
X243501Y157971*
X243267Y158281*
X243059Y158609*
X242879Y158952*
X242726Y159309*
X242574Y158952*
X242393Y158609*
X242186Y158281*
X241952Y157971*
X241695Y157681*
X241415Y157412*
X241114Y157167*
X240794Y156946*
X240458Y156752*
X240108Y156586*
X239745Y156449*
X239372Y156341*
X238992Y156263*
X238606Y156216*
X238219Y156201*
X237831Y156216*
X237445Y156263*
X237065Y156341*
X236692Y156449*
X236329Y156586*
X235979Y156752*
X235643Y156946*
X235323Y157167*
X235022Y157412*
X234742Y157681*
X234485Y157971*
X234251Y158281*
X234044Y158609*
X233863Y158952*
X233711Y159309*
X233558Y158952*
X233378Y158609*
X233170Y158281*
X232936Y157971*
X232679Y157681*
X232399Y157412*
X232098Y157167*
X231779Y156946*
X231442Y156752*
X231092Y156586*
X230729Y156449*
X230356Y156341*
X229976Y156263*
X229591Y156216*
X229203Y156201*
X228815Y156216*
X228430Y156263*
X228049Y156341*
X227677Y156449*
X227314Y156586*
X226963Y156752*
X226627Y156946*
X226307Y157167*
X226007Y157412*
X225727Y157681*
X225469Y157971*
X225236Y158281*
X225028Y158609*
X224847Y158952*
X224695Y159309*
X224545Y158957*
X224367Y158618*
X224163Y158294*
X223934Y157988*
X223682Y157700*
X223407Y157433*
X223113Y157189*
X222799Y156969*
X222470Y156775*
X222126Y156607*
X221769Y156468*
X221403Y156357*
X221029Y156275*
X220650Y156223*
X220268Y156201*
X219885Y156210*
X219504Y156249*
X219128Y156318*
X218758Y156417*
X218398Y156545*
X218048Y156701*
X217712Y156884*
X217392Y157094*
X217089Y157328*
X216805Y157585*
X216543Y157864*
X216304Y158163*
X216090Y158480*
X215901Y158813*
X215739Y159159*
X215605Y159518*
X215500Y159886*
X215425Y160261*
X215379Y160641*
X215364Y161024*
X215379Y161406*
X215425Y161786*
X215500Y162161*
X215605Y162529*
X215739Y162888*
X215901Y163235*
X216090Y163568*
X216304Y163884*
X216543Y164183*
X216805Y164462*
X217089Y164720*
X217391Y164954*
X217712Y165163*
X218048Y165346*
X218397Y165502*
X218758Y165630*
X219128Y165729*
X219504Y165798*
X219885Y165837*
X220268Y165846*
X220650Y165824*
X221029Y165772*
X221403Y165691*
X221769Y165580*
X222125Y165440*
X222469Y165272*
X222799Y165078*
X223112Y164858*
X223407Y164614*
X223682Y164347*
X223934Y164060*
X224163Y163753*
X224367Y163429*
X224545Y163090*
X224695Y162738*
X224847Y163095*
X225028Y163438*
X225236Y163766*
X225469Y164076*
X225727Y164367*
X226007Y164635*
X226307Y164881*
X226627Y165101*
X226963Y165295*
X227314Y165461*
X227677Y165599*
X228049Y165707*
X228430Y165784*
X228815Y165831*
X229203Y165846*
X229591Y165831*
X229976Y165784*
X230356Y165707*
X230729Y165599*
X231092Y165461*
X231442Y165295*
X231779Y165101*
X232098Y164881*
X232399Y164635*
X232679Y164367*
X232936Y164076*
X233170Y163766*
X233378Y163438*
X233558Y163095*
X233711Y162738*
X233863Y163095*
X234044Y163438*
X234251Y163766*
X234485Y164076*
X234742Y164367*
X235022Y164635*
X235323Y164881*
X235643Y165101*
X235979Y165295*
X236329Y165461*
X236692Y165599*
X237065Y165707*
X237445Y165784*
X237831Y165831*
X238219Y165846*
X238606Y165831*
X238992Y165784*
X239372Y165707*
X239745Y165599*
X240108Y165461*
X240458Y165295*
X240794Y165101*
X241114Y164881*
X241415Y164635*
X241695Y164367*
X241952Y164076*
X242186Y163766*
X242393Y163438*
X242574Y163095*
X242726Y162738*
X242879Y163095*
X243059Y163438*
X243267Y163766*
X243501Y164076*
X243758Y164367*
X244038Y164635*
X244339Y164881*
X244658Y165101*
X244995Y165295*
X245345Y165461*
X245708Y165599*
X246081Y165707*
X246461Y165784*
X246846Y165831*
X247234Y165846*
X247622Y165831*
X248007Y165784*
X248388Y165707*
X248760Y165599*
X249123Y165461*
X249474Y165295*
X249810Y165101*
X250130Y164881*
X250430Y164635*
X250710Y164367*
X250968Y164076*
X251201Y163766*
X251409Y163438*
X251590Y163095*
X251742Y162738*
X251895Y163095*
X252075Y163438*
X252283Y163766*
X252516Y164076*
X252774Y164367*
X253054Y164635*
X253355Y164881*
X253674Y165101*
X254010Y165295*
X254361Y165461*
X254724Y165599*
X255097Y165707*
X255477Y165784*
X255862Y165831*
X256250Y165846*
X256638Y165831*
X257023Y165784*
X257403Y165707*
X257776Y165599*
X258139Y165461*
X258490Y165295*
X258826Y165101*
X259145Y164881*
X259446Y164635*
X259726Y164367*
X259984Y164076*
X260217Y163766*
X260425Y163438*
X260605Y163095*
X260758Y162738*
X260910Y163095*
X261091Y163438*
X261299Y163766*
X261532Y164076*
X261790Y164367*
X262070Y164635*
X262370Y164881*
X262690Y165101*
X263026Y165295*
X263377Y165461*
X263740Y165599*
X264112Y165707*
X264493Y165784*
X264878Y165831*
X265266Y165846*
X265654Y165831*
X266039Y165784*
X266419Y165707*
X266792Y165599*
X267155Y165461*
X267505Y165295*
X267842Y165101*
X268161Y164881*
X268462Y164635*
X268742Y164367*
X268999Y164076*
X269233Y163766*
X269441Y163438*
X269621Y163095*
X269774Y162738*
X269926Y163095*
X270107Y163438*
X270314Y163766*
X270548Y164076*
X270805Y164367*
X271085Y164635*
X271386Y164881*
X271706Y165101*
X272042Y165295*
X272392Y165461*
X272755Y165599*
X273128Y165707*
X273508Y165784*
X273894Y165831*
X274281Y165846*
X274669Y165831*
X275055Y165784*
X275435Y165707*
X275808Y165599*
X276171Y165461*
X276521Y165295*
X276857Y165101*
X277177Y164881*
X277478Y164635*
X277758Y164367*
X278015Y164076*
X278249Y163766*
X278456Y163438*
X278637Y163095*
X278789Y162738*
X278942Y163095*
X279122Y163438*
X279330Y163766*
X279564Y164076*
X279821Y164367*
X280101Y164635*
X280402Y164881*
X280721Y165101*
X281058Y165295*
X281408Y165461*
X281771Y165599*
X282144Y165707*
X282524Y165784*
X282909Y165831*
X283297Y165846*
X283685Y165831*
X284070Y165784*
X284451Y165707*
X284823Y165599*
X285186Y165461*
X285537Y165295*
X285873Y165101*
X286193Y164881*
X286493Y164635*
X286773Y164367*
X287031Y164076*
X287264Y163766*
X287472Y163438*
X287653Y163095*
X287805Y162738*
X292313Y152738D02*
X292463Y153090D01*
X292641Y153429*
X292845Y153753*
X293074Y154060*
X293326Y154347*
X293601Y154614*
X293895Y154858*
X294209Y155078*
X294538Y155272*
X294882Y155440*
X295239Y155580*
X295605Y155691*
X295979Y155772*
X296358Y155824*
X296740Y155846*
X297123Y155837*
X297503Y155798*
X297880Y155729*
X298250Y155630*
X298610Y155502*
X298960Y155346*
X299296Y155163*
X299616Y154954*
X299919Y154720*
X300202Y154462*
X300464Y154183*
X300704Y153885*
X300918Y153568*
X301107Y153235*
X301269Y152888*
X301403Y152529*
X301508Y152161*
X301583Y151786*
X301629Y151406*
X301644Y151024*
X301629Y150641*
X301583Y150261*
X301508Y149886*
X301403Y149518*
X301269Y149159*
X301107Y148813*
X300918Y148480*
X300704Y148163*
X300465Y147864*
X300203Y147585*
X299919Y147328*
X299616Y147094*
X299296Y146884*
X298960Y146701*
X298610Y146545*
X298250Y146417*
X297880Y146319*
X297504Y146249*
X297123Y146210*
X296740Y146201*
X296358Y146223*
X295979Y146275*
X295605Y146357*
X295239Y146468*
X294882Y146607*
X294538Y146775*
X294209Y146969*
X293895Y147189*
X293601Y147433*
X293326Y147700*
X293074Y147988*
X292845Y148294*
X292641Y148618*
X292463Y148957*
X292313Y149309*
X292161Y148952*
X291980Y148609*
X291772Y148281*
X291539Y147971*
X291281Y147681*
X291001Y147412*
X290701Y147167*
X290381Y146946*
X290045Y146752*
X289694Y146586*
X289331Y146449*
X288958Y146341*
X288578Y146263*
X288193Y146216*
X287805Y146201*
X287417Y146216*
X287032Y146263*
X286652Y146341*
X286279Y146449*
X285916Y146586*
X285565Y146752*
X285229Y146946*
X284910Y147167*
X284609Y147412*
X284329Y147681*
X284071Y147971*
X283838Y148281*
X283630Y148609*
X283450Y148952*
X283297Y149309*
X283145Y148952*
X282964Y148609*
X282756Y148281*
X282523Y147971*
X282266Y147681*
X281986Y147412*
X281685Y147167*
X281365Y146946*
X281029Y146752*
X280678Y146586*
X280316Y146449*
X279943Y146341*
X279562Y146263*
X279177Y146216*
X278789Y146201*
X278402Y146216*
X278016Y146263*
X277636Y146341*
X277263Y146449*
X276900Y146586*
X276550Y146752*
X276213Y146946*
X275894Y147167*
X275593Y147412*
X275313Y147681*
X275056Y147971*
X274822Y148281*
X274615Y148609*
X274434Y148952*
X274281Y149309*
X274129Y148952*
X273948Y148609*
X273741Y148281*
X273507Y147971*
X273250Y147681*
X272970Y147412*
X272669Y147167*
X272350Y146946*
X272013Y146752*
X271663Y146586*
X271300Y146449*
X270927Y146341*
X270547Y146263*
X270161Y146216*
X269774Y146201*
X269386Y146216*
X269001Y146263*
X268620Y146341*
X268247Y146449*
X267885Y146586*
X267534Y146752*
X267198Y146946*
X266878Y147167*
X266577Y147412*
X266297Y147681*
X266040Y147971*
X265807Y148281*
X265599Y148609*
X265418Y148952*
X265266Y149309*
X265113Y148952*
X264933Y148609*
X264725Y148281*
X264492Y147971*
X264234Y147681*
X263954Y147412*
X263653Y147167*
X263334Y146946*
X262998Y146752*
X262647Y146586*
X262284Y146449*
X261911Y146341*
X261531Y146263*
X261146Y146216*
X260758Y146201*
X260370Y146216*
X259985Y146263*
X259605Y146341*
X259232Y146449*
X258869Y146586*
X258518Y146752*
X258182Y146946*
X257862Y147167*
X257562Y147412*
X257282Y147681*
X257024Y147971*
X256791Y148281*
X256583Y148609*
X256402Y148952*
X256250Y149309*
X256098Y148952*
X255917Y148609*
X255709Y148281*
X255476Y147971*
X255218Y147681*
X254938Y147412*
X254638Y147167*
X254318Y146946*
X253982Y146752*
X253631Y146586*
X253268Y146449*
X252895Y146341*
X252515Y146263*
X252130Y146216*
X251742Y146201*
X251354Y146216*
X250969Y146263*
X250589Y146341*
X250216Y146449*
X249853Y146586*
X249502Y146752*
X249166Y146946*
X248847Y147167*
X248546Y147412*
X248266Y147681*
X248008Y147971*
X247775Y148281*
X247567Y148609*
X247387Y148952*
X247234Y149309*
X247082Y148952*
X246901Y148609*
X246694Y148281*
X246460Y147971*
X246203Y147681*
X245923Y147412*
X245622Y147167*
X245302Y146946*
X244966Y146752*
X244615Y146586*
X244253Y146449*
X243880Y146341*
X243499Y146263*
X243114Y146216*
X242726Y146201*
X242339Y146216*
X241953Y146263*
X241573Y146341*
X241200Y146449*
X240837Y146586*
X240487Y146752*
X240150Y146946*
X239831Y147167*
X239530Y147412*
X239250Y147681*
X238993Y147971*
X238759Y148281*
X238552Y148609*
X238371Y148952*
X238219Y149309*
X238066Y148952*
X237885Y148609*
X237678Y148281*
X237444Y147971*
X237187Y147681*
X236907Y147412*
X236606Y147167*
X236287Y146946*
X235950Y146752*
X235600Y146586*
X235237Y146449*
X234864Y146341*
X234484Y146263*
X234098Y146216*
X233711Y146201*
X233323Y146216*
X232938Y146263*
X232557Y146341*
X232184Y146449*
X231822Y146586*
X231471Y146752*
X231135Y146946*
X230815Y147167*
X230514Y147412*
X230234Y147681*
X229977Y147971*
X229744Y148281*
X229536Y148609*
X229355Y148952*
X229203Y149309*
X229053Y148957*
X228875Y148618*
X228671Y148294*
X228442Y147988*
X228190Y147700*
X227915Y147433*
X227620Y147189*
X227307Y146969*
X226977Y146775*
X226633Y146607*
X226277Y146468*
X225911Y146357*
X225537Y146275*
X225158Y146223*
X224776Y146201*
X224393Y146210*
X224012Y146249*
X223636Y146318*
X223266Y146417*
X222905Y146545*
X222556Y146701*
X222220Y146884*
X221899Y147094*
X221597Y147328*
X221313Y147585*
X221051Y147864*
X220812Y148163*
X220598Y148480*
X220409Y148813*
X220247Y149159*
X220113Y149518*
X220008Y149886*
X219933Y150261*
X219887Y150641*
X219872Y151024*
X219887Y151406*
X219933Y151786*
X220008Y152161*
X220113Y152529*
X220247Y152888*
X220409Y153235*
X220598Y153568*
X220812Y153884*
X221051Y154183*
X221313Y154462*
X221597Y154720*
X221899Y154954*
X222220Y155163*
X222556Y155346*
X222905Y155502*
X223266Y155630*
X223636Y155729*
X224012Y155798*
X224393Y155837*
X224776Y155846*
X225158Y155824*
X225537Y155772*
X225911Y155691*
X226277Y155580*
X226633Y155440*
X226977Y155272*
X227307Y155078*
X227620Y154858*
X227915Y154614*
X228190Y154347*
X228442Y154060*
X228671Y153753*
X228875Y153429*
X229053Y153090*
X229203Y152738*
X229355Y153095*
X229536Y153438*
X229744Y153766*
X229977Y154076*
X230234Y154367*
X230514Y154635*
X230815Y154881*
X231135Y155101*
X231471Y155295*
X231822Y155461*
X232184Y155599*
X232557Y155707*
X232938Y155784*
X233323Y155831*
X233711Y155846*
X234098Y155831*
X234484Y155784*
X234864Y155707*
X235237Y155599*
X235600Y155461*
X235950Y155295*
X236287Y155101*
X236606Y154881*
X236907Y154635*
X237187Y154367*
X237444Y154076*
X237678Y153766*
X237885Y153438*
X238066Y153095*
X238219Y152738*
X238371Y153095*
X238552Y153438*
X238759Y153766*
X238993Y154076*
X239250Y154367*
X239530Y154635*
X239831Y154881*
X240150Y155101*
X240487Y155295*
X240837Y155461*
X241200Y155599*
X241573Y155707*
X241953Y155784*
X242339Y155831*
X242726Y155846*
X243114Y155831*
X243499Y155784*
X243880Y155707*
X244253Y155599*
X244615Y155461*
X244966Y155295*
X245302Y155101*
X245622Y154881*
X245923Y154635*
X246203Y154367*
X246460Y154076*
X246693Y153766*
X246901Y153438*
X247082Y153095*
X247234Y152738*
X247387Y153095*
X247567Y153438*
X247775Y153766*
X248008Y154076*
X248266Y154367*
X248546Y154635*
X248847Y154881*
X249166Y155101*
X249502Y155295*
X249853Y155461*
X250216Y155599*
X250589Y155707*
X250969Y155784*
X251354Y155831*
X251742Y155846*
X252130Y155831*
X252515Y155784*
X252895Y155707*
X253268Y155599*
X253631Y155461*
X253982Y155295*
X254318Y155101*
X254638Y154881*
X254938Y154635*
X255218Y154367*
X255476Y154076*
X255709Y153766*
X255917Y153438*
X256098Y153095*
X256250Y152738*
X256402Y153095*
X256583Y153438*
X256791Y153766*
X257024Y154076*
X257282Y154367*
X257562Y154635*
X257862Y154881*
X258182Y155101*
X258518Y155295*
X258869Y155461*
X259232Y155599*
X259605Y155707*
X259985Y155784*
X260370Y155831*
X260758Y155846*
X261146Y155831*
X261531Y155784*
X261911Y155707*
X262284Y155599*
X262647Y155461*
X262998Y155295*
X263334Y155101*
X263653Y154881*
X263954Y154635*
X264234Y154367*
X264492Y154076*
X264725Y153766*
X264933Y153438*
X265113Y153095*
X265266Y152738*
X265418Y153095*
X265599Y153438*
X265806Y153766*
X266040Y154076*
X266297Y154367*
X266577Y154635*
X266878Y154881*
X267198Y155101*
X267534Y155295*
X267885Y155461*
X268247Y155599*
X268620Y155707*
X269001Y155784*
X269386Y155831*
X269774Y155846*
X270161Y155831*
X270547Y155784*
X270927Y155707*
X271300Y155599*
X271663Y155461*
X272013Y155295*
X272350Y155101*
X272669Y154881*
X272970Y154635*
X273250Y154367*
X273507Y154076*
X273741Y153766*
X273948Y153438*
X274129Y153095*
X274281Y152738*
X274434Y153095*
X274615Y153438*
X274822Y153766*
X275056Y154076*
X275313Y154367*
X275593Y154635*
X275894Y154881*
X276213Y155101*
X276550Y155295*
X276900Y155461*
X277263Y155599*
X277636Y155707*
X278016Y155784*
X278402Y155831*
X278789Y155846*
X279177Y155831*
X279562Y155784*
X279943Y155707*
X280316Y155599*
X280678Y155461*
X281029Y155295*
X281365Y155101*
X281685Y154881*
X281986Y154635*
X282266Y154367*
X282523Y154076*
X282756Y153766*
X282964Y153438*
X283145Y153095*
X283297Y152738*
X283450Y153095*
X283630Y153438*
X283838Y153766*
X284071Y154076*
X284329Y154367*
X284609Y154635*
X284910Y154881*
X285229Y155101*
X285565Y155295*
X285916Y155461*
X286279Y155599*
X286652Y155707*
X287032Y155784*
X287417Y155831*
X287805Y155846*
X288193Y155831*
X288578Y155784*
X288958Y155707*
X289331Y155599*
X289694Y155461*
X290045Y155295*
X290381Y155101*
X290701Y154881*
X291001Y154635*
X291281Y154367*
X291539Y154076*
X291772Y153766*
X291980Y153438*
X292161Y153095*
X292313Y152738*
X221909Y137441D02*
X221925Y137690D01*
X221970Y137936*
X222044Y138174*
X222146Y138401*
X222275Y138615*
X222429Y138812*
X222606Y138988*
X222802Y139142*
X223016Y139271*
X223243Y139374*
X223482Y139448*
X223727Y139493*
X223976Y139508*
X224226Y139493*
X224471Y139448*
X224709Y139374*
X224937Y139271*
X225151Y139142*
X225347Y138988*
X225523Y138812*
X225677Y138615*
X225807Y138401*
X225909Y138174*
X225983Y137936*
X226028Y137690*
X226043Y137441*
X226028Y137192*
X225983Y136946*
X225909Y136708*
X225807Y136480*
X225677Y136267*
X225523Y136070*
X225347Y135894*
X225151Y135740*
X224937Y135611*
X224709Y135508*
X224471Y135434*
X224226Y135389*
X223976Y135374*
X223727Y135389*
X223482Y135434*
X223243Y135508*
X223016Y135611*
X222802Y135740*
X222606Y135894*
X222429Y136070*
X222275Y136267*
X222146Y136480*
X222044Y136708*
X221970Y136946*
X221925Y137192*
X221909Y137441*
X283526Y173247D02*
X283719Y173585D01*
X283938Y173906*
X284183Y174208*
X284452Y174490*
X284742Y174749*
X285052Y174984*
X285380Y175193*
X285724Y175374*
X286081Y175528*
X286450Y175652*
X286828Y175746*
X287211Y175810*
X287599Y175842*
X287988Y175843*
X288376Y175813*
X288760Y175751*
X289138Y175659*
X289507Y175536*
X289865Y175384*
X290210Y175204*
X290539Y174997*
X290850Y174764*
X291142Y174506*
X291411Y174226*
X291658Y173925*
X291879Y173605*
X292074Y173268*
X292241Y172917*
X292379Y172553*
X292487Y172180*
X292565Y171798*
X292612Y171412*
X292628Y171024*
X292612Y170635*
X292565Y170249*
X292487Y169868*
X292379Y169494*
X292241Y169131*
X292074Y168779*
X291879Y168442*
X291658Y168123*
X291411Y167821*
X291142Y167541*
X290850Y167284*
X290539Y167050*
X290210Y166843*
X289865Y166663*
X289507Y166511*
X289138Y166389*
X288760Y166296*
X288376Y166235*
X287988Y166204*
X287599Y166205*
X287211Y166237*
X286828Y166301*
X286450Y166395*
X286081Y166519*
X285724Y166673*
X285380Y166855*
X285052Y167064*
X284742Y167298*
X284452Y167557*
X284183Y167839*
X283938Y168141*
X283719Y168462*
X283526Y168800*
X283344Y168449*
X283137Y168113*
X282906Y167794*
X282650Y167492*
X282373Y167211*
X282076Y166952*
X281759Y166716*
X281426Y166504*
X281078Y166318*
X280717Y166159*
X280345Y166028*
X279964Y165925*
X279576Y165851*
X279184Y165806*
X278789Y165791*
X278395Y165806*
X278003Y165851*
X277615Y165925*
X277234Y166028*
X276862Y166159*
X276501Y166318*
X276152Y166504*
X275819Y166716*
X275503Y166952*
X275205Y167211*
X274928Y167492*
X274673Y167794*
X274441Y168113*
X274234Y168449*
X274053Y168800*
X273864Y168468*
X273648Y168152*
X273409Y167854*
X273146Y167576*
X272863Y167320*
X272560Y167087*
X272239Y166879*
X271903Y166697*
X271554Y166541*
X271193Y166415*
X270824Y166317*
X270448Y166248*
X270068Y166210*
X269686Y166202*
X269304Y166224*
X268925Y166276*
X268552Y166358*
X268186Y166470*
X267831Y166610*
X267487Y166777*
X267158Y166972*
X266846Y167191*
X266551Y167435*
X266277Y167702*
X266025Y167989*
X265797Y168296*
X265593Y168619*
X265416Y168958*
X265266Y169309*
X265113Y168952*
X264933Y168609*
X264725Y168281*
X264492Y167971*
X264234Y167681*
X263954Y167412*
X263653Y167167*
X263334Y166946*
X262998Y166752*
X262647Y166586*
X262284Y166449*
X261911Y166341*
X261531Y166263*
X261146Y166216*
X260758Y166201*
X260370Y166216*
X259985Y166263*
X259605Y166341*
X259232Y166449*
X258869Y166586*
X258518Y166752*
X258182Y166946*
X257862Y167167*
X257562Y167412*
X257282Y167681*
X257024Y167971*
X256791Y168281*
X256583Y168609*
X256402Y168952*
X256250Y169309*
X256098Y168952*
X255917Y168609*
X255709Y168281*
X255476Y167971*
X255218Y167681*
X254938Y167412*
X254638Y167167*
X254318Y166946*
X253982Y166752*
X253631Y166586*
X253268Y166449*
X252895Y166341*
X252515Y166263*
X252130Y166216*
X251742Y166201*
X251354Y166216*
X250969Y166263*
X250589Y166341*
X250216Y166449*
X249853Y166586*
X249502Y166752*
X249166Y166946*
X248847Y167167*
X248546Y167412*
X248266Y167681*
X248008Y167971*
X247775Y168281*
X247567Y168609*
X247387Y168952*
X247234Y169309*
X247082Y168952*
X246901Y168609*
X246694Y168281*
X246460Y167971*
X246203Y167681*
X245923Y167412*
X245622Y167167*
X245302Y166946*
X244966Y166752*
X244615Y166586*
X244253Y166449*
X243880Y166341*
X243499Y166263*
X243114Y166216*
X242726Y166201*
X242339Y166216*
X241953Y166263*
X241573Y166341*
X241200Y166449*
X240837Y166586*
X240487Y166752*
X240150Y166946*
X239831Y167167*
X239530Y167412*
X239250Y167681*
X238993Y167971*
X238759Y168281*
X238552Y168609*
X238371Y168952*
X238219Y169309*
X238066Y168952*
X237885Y168609*
X237678Y168281*
X237444Y167971*
X237187Y167681*
X236907Y167412*
X236606Y167167*
X236287Y166946*
X235950Y166752*
X235600Y166586*
X235237Y166449*
X234864Y166341*
X234484Y166263*
X234098Y166216*
X233711Y166201*
X233323Y166216*
X232938Y166263*
X232557Y166341*
X232184Y166449*
X231822Y166586*
X231471Y166752*
X231135Y166946*
X230815Y167167*
X230514Y167412*
X230234Y167681*
X229977Y167971*
X229744Y168281*
X229536Y168609*
X229355Y168952*
X229203Y169309*
X229053Y168957*
X228875Y168618*
X228671Y168294*
X228442Y167988*
X228190Y167700*
X227915Y167433*
X227620Y167189*
X227307Y166969*
X226977Y166775*
X226633Y166607*
X226277Y166468*
X225911Y166357*
X225537Y166275*
X225158Y166223*
X224776Y166201*
X224393Y166210*
X224012Y166249*
X223636Y166318*
X223266Y166417*
X222905Y166545*
X222556Y166701*
X222220Y166884*
X221899Y167094*
X221597Y167328*
X221313Y167585*
X221051Y167864*
X220812Y168163*
X220598Y168480*
X220409Y168813*
X220247Y169159*
X220113Y169518*
X220008Y169886*
X219933Y170261*
X219887Y170641*
X219872Y171024*
X219887Y171406*
X219933Y171786*
X220008Y172161*
X220113Y172529*
X220247Y172888*
X220409Y173235*
X220598Y173568*
X220812Y173884*
X221051Y174183*
X221313Y174462*
X221597Y174720*
X221899Y174954*
X222220Y175163*
X222556Y175346*
X222905Y175502*
X223266Y175630*
X223636Y175729*
X224012Y175798*
X224393Y175837*
X224776Y175846*
X225158Y175824*
X225537Y175772*
X225911Y175691*
X226277Y175580*
X226633Y175440*
X226977Y175272*
X227307Y175078*
X227620Y174858*
X227915Y174614*
X228190Y174347*
X228442Y174060*
X228671Y173753*
X228875Y173429*
X229053Y173090*
X229203Y172738*
X229355Y173095*
X229536Y173438*
X229744Y173766*
X229977Y174076*
X230234Y174367*
X230514Y174635*
X230815Y174881*
X231135Y175101*
X231471Y175295*
X231822Y175461*
X232184Y175599*
X232557Y175707*
X232938Y175784*
X233323Y175831*
X233711Y175846*
X234098Y175831*
X234484Y175784*
X234864Y175707*
X235237Y175599*
X235600Y175461*
X235950Y175295*
X236287Y175101*
X236606Y174881*
X236907Y174635*
X237187Y174367*
X237444Y174076*
X237678Y173766*
X237885Y173438*
X238066Y173095*
X238219Y172738*
X238371Y173095*
X238552Y173438*
X238759Y173766*
X238993Y174076*
X239250Y174367*
X239530Y174635*
X239831Y174881*
X240150Y175101*
X240487Y175295*
X240837Y175461*
X241200Y175599*
X241573Y175707*
X241953Y175784*
X242339Y175831*
X242726Y175846*
X243114Y175831*
X243499Y175784*
X243880Y175707*
X244253Y175599*
X244615Y175461*
X244966Y175295*
X245302Y175101*
X245622Y174881*
X245923Y174635*
X246203Y174367*
X246460Y174076*
X246693Y173766*
X246901Y173438*
X247082Y173095*
X247234Y172738*
X247387Y173095*
X247567Y173438*
X247775Y173766*
X248008Y174076*
X248266Y174367*
X248546Y174635*
X248847Y174881*
X249166Y175101*
X249502Y175295*
X249853Y175461*
X250216Y175599*
X250589Y175707*
X250969Y175784*
X251354Y175831*
X251742Y175846*
X252130Y175831*
X252515Y175784*
X252895Y175707*
X253268Y175599*
X253631Y175461*
X253982Y175295*
X254318Y175101*
X254638Y174881*
X254938Y174635*
X255218Y174367*
X255476Y174076*
X255709Y173766*
X255917Y173438*
X256098Y173095*
X256250Y172738*
X256402Y173095*
X256583Y173438*
X256791Y173766*
X257024Y174076*
X257282Y174367*
X257562Y174635*
X257862Y174881*
X258182Y175101*
X258518Y175295*
X258869Y175461*
X259232Y175599*
X259605Y175707*
X259985Y175784*
X260370Y175831*
X260758Y175846*
X261146Y175831*
X261531Y175784*
X261911Y175707*
X262284Y175599*
X262647Y175461*
X262998Y175295*
X263334Y175101*
X263653Y174881*
X263954Y174635*
X264234Y174367*
X264492Y174076*
X264725Y173766*
X264933Y173438*
X265113Y173095*
X265266Y172738*
X265416Y173090*
X265593Y173428*
X265796Y173752*
X266025Y174058*
X266277Y174345*
X266551Y174612*
X266845Y174856*
X267158Y175076*
X267487Y175270*
X267831Y175438*
X268186Y175578*
X268552Y175689*
X268925Y175771*
X269304Y175823*
X269685Y175846*
X270068Y175837*
X270448Y175799*
X270824Y175731*
X271193Y175633*
X271554Y175506*
X271903Y175351*
X272239Y175169*
X272560Y174960*
X272863Y174727*
X273146Y174471*
X273409Y174193*
X273648Y173895*
X273864Y173579*
X274053Y173247*
X274234Y173598*
X274441Y173934*
X274673Y174254*
X274928Y174555*
X275205Y174836*
X275503Y175095*
X275819Y175331*
X276152Y175543*
X276501Y175729*
X276862Y175888*
X277234Y176019*
X277615Y176122*
X278003Y176196*
X278395Y176241*
X278789Y176256*
X279184Y176241*
X279576Y176196*
X279964Y176122*
X280345Y176019*
X280717Y175888*
X281078Y175729*
X281426Y175543*
X281759Y175331*
X282076Y175095*
X282373Y174836*
X282650Y174555*
X282906Y174254*
X283137Y173934*
X283344Y173598*
X283526Y173247*
X311398Y161024D02*
X311413Y161647D01*
X311459Y162268*
X311535Y162887*
X311642Y163501*
X311778Y164109*
X311944Y164709*
X312140Y165301*
X312364Y165882*
X312617Y166452*
X312897Y167009*
X313204Y167551*
X313537Y168078*
X313896Y168587*
X314280Y169078*
X314687Y169550*
X315116Y170002*
X315568Y170431*
X316040Y170838*
X316531Y171222*
X317041Y171581*
X317567Y171914*
X318109Y172221*
X318666Y172501*
X319236Y172754*
X319817Y172978*
X320409Y173174*
X321009Y173340*
X321617Y173476*
X322231Y173583*
X322850Y173659*
X323471Y173705*
X324094Y173720*
X324717Y173705*
X325339Y173659*
X325957Y173583*
X326571Y173476*
X327180Y173340*
X327780Y173174*
X328372Y172978*
X328953Y172754*
X329523Y172501*
X330080Y172221*
X330622Y171914*
X331148Y171581*
X331658Y171222*
X332149Y170838*
X332621Y170431*
X333072Y170002*
X333502Y169550*
X333909Y169078*
X334293Y168587*
X334652Y168078*
X334985Y167551*
X335292Y167009*
X335572Y166452*
X335825Y165882*
X336049Y165301*
X336245Y164709*
X336411Y164109*
X336547Y163501*
X336654Y162887*
X336730Y162268*
X336776Y161647*
X336791Y161024*
X336776Y160401*
X336730Y159779*
X336654Y159161*
X336547Y158547*
X336411Y157939*
X336245Y157338*
X336049Y156746*
X335825Y156165*
X335572Y155595*
X335292Y155038*
X334985Y154496*
X334652Y153970*
X334293Y153460*
X333909Y152969*
X333502Y152497*
X333072Y152046*
X332621Y151616*
X332149Y151209*
X331658Y150825*
X331148Y150467*
X330622Y150133*
X330080Y149826*
X329523Y149546*
X328953Y149293*
X328372Y149069*
X327780Y148874*
X327180Y148707*
X326571Y148571*
X325957Y148464*
X325339Y148388*
X324717Y148342*
X324094Y148327*
X323471Y148342*
X322850Y148388*
X322231Y148464*
X321617Y148571*
X321009Y148707*
X320409Y148874*
X319817Y149069*
X319236Y149293*
X318666Y149546*
X318109Y149826*
X317567Y150133*
X317041Y150467*
X316531Y150825*
X316040Y151209*
X315568Y151616*
X315116Y152046*
X314687Y152497*
X314280Y152969*
X313896Y153460*
X313537Y153970*
X313204Y154496*
X312897Y155038*
X312617Y155595*
X312364Y156165*
X312140Y156746*
X311944Y157338*
X311778Y157939*
X311642Y158547*
X311535Y159161*
X311459Y159779*
X311413Y160401*
X311398Y161024*
X338209Y90906D02*
X338224Y91155D01*
X338269Y91400*
X338343Y91638*
X338445Y91866*
X338575Y92080*
X338729Y92276*
X338905Y92453*
X339101Y92607*
X339315Y92736*
X339543Y92838*
X339781Y92912*
X340026Y92957*
X340276Y92972*
X340525Y92957*
X340770Y92912*
X341009Y92838*
X341236Y92736*
X341450Y92607*
X341646Y92453*
X341823Y92276*
X341977Y92080*
X342106Y91866*
X342208Y91638*
X342282Y91400*
X342327Y91155*
X342343Y90906*
X342327Y90656*
X342282Y90411*
X342208Y90173*
X342106Y89945*
X341977Y89731*
X341823Y89535*
X341646Y89358*
X341450Y89204*
X341236Y89075*
X341009Y88973*
X340770Y88899*
X340525Y88854*
X340276Y88839*
X340026Y88854*
X339781Y88899*
X339543Y88973*
X339315Y89075*
X339101Y89204*
X338905Y89358*
X338729Y89535*
X338575Y89731*
X338445Y89945*
X338343Y90173*
X338269Y90411*
X338224Y90656*
X338209Y90906*
X377264Y59685D02*
X377279Y59934D01*
X377324Y60180*
X377398Y60418*
X377501Y60646*
X377630Y60859*
X377784Y61056*
X377960Y61232*
X378157Y61386*
X378370Y61515*
X378598Y61618*
X378836Y61692*
X379082Y61737*
X379331Y61752*
X379580Y61737*
X379825Y61692*
X380064Y61618*
X380291Y61515*
X380505Y61386*
X380701Y61232*
X380878Y61056*
X381032Y60859*
X381161Y60646*
X381263Y60418*
X381338Y60180*
X381383Y59934*
X381398Y59685*
X381383Y59436*
X381338Y59190*
X381263Y58952*
X381161Y58724*
X381032Y58511*
X380878Y58314*
X380701Y58138*
X380505Y57984*
X380291Y57855*
X380064Y57752*
X379825Y57678*
X379580Y57633*
X379331Y57618*
X379082Y57633*
X378836Y57678*
X378598Y57752*
X378370Y57855*
X378157Y57984*
X377960Y58138*
X377784Y58314*
X377630Y58511*
X377501Y58724*
X377398Y58952*
X377324Y59190*
X377279Y59436*
X377264Y59685*
X392638Y144823D02*
X392974Y144807D01*
X393307Y144761*
X393634Y144684*
X393953Y144577*
X394261Y144441*
X394555Y144277*
X394832Y144087*
X395091Y143872*
X395329Y143635*
X395544Y143376*
X395734Y143098*
X395898Y142804*
X396034Y142497*
X396141Y142178*
X396218Y141850*
X396264Y141517*
X396280Y141181*
X396264Y140845*
X396218Y140512*
X396141Y140184*
X396034Y139866*
X395898Y139558*
X395734Y139264*
X395544Y138986*
X395329Y138728*
X395091Y138490*
X394832Y138275*
X394555Y138085*
X394261Y137921*
X393953Y137785*
X393634Y137678*
X393307Y137601*
X392974Y137555*
X392638Y137539*
X392302Y137555*
X391969Y137601*
X391641Y137678*
X391322Y137785*
X391015Y137921*
X390721Y138085*
X390443Y138275*
X390184Y138490*
X389946Y138728*
X389732Y138986*
X389541Y139264*
X389378Y139558*
X389242Y139866*
X389135Y140184*
X389058Y140512*
X389012Y140845*
X388996Y141181*
X389012Y141517*
X389058Y141850*
X389135Y142178*
X389242Y142497*
X389378Y142804*
X389542Y143098*
X389732Y143376*
X389946Y143635*
X390184Y143872*
X390443Y144087*
X390721Y144277*
X391014Y144441*
X391322Y144577*
X391641Y144684*
X391969Y144761*
X392302Y144807*
X392638Y144823*
X2470Y2648D02*
X16711D01*
X20533D02*
X390727D01*
X394549D02*
X407766D01*
X2470Y3239D02*
X15983D01*
X21261D02*
X389999D01*
X395277D02*
X407766D01*
X2470Y3829D02*
X15527D01*
X21717D02*
X389543D01*
X395733D02*
X407766D01*
X2470Y4420D02*
X15231D01*
X22013D02*
X389247D01*
X396029D02*
X407766D01*
X2470Y5010D02*
X15056D01*
X22188D02*
X389072D01*
X396204D02*
X407766D01*
X2470Y5601D02*
X14983D01*
X22261D02*
X388999D01*
X396277D02*
X407766D01*
X2470Y6191D02*
X15007D01*
X22237D02*
X389023D01*
X396252D02*
X407766D01*
X2470Y6782D02*
X15130D01*
X22114D02*
X389146D01*
X396130D02*
X407766D01*
X2470Y7372D02*
X15363D01*
X21881D02*
X389378D01*
X395897D02*
X407766D01*
X2470Y7963D02*
X15731D01*
X21513D02*
X335164D01*
X337671D02*
X389747D01*
X395529D02*
X407766D01*
X2470Y8554D02*
X16300D01*
X20944D02*
X334639D01*
X338196D02*
X390316D01*
X394960D02*
X407766D01*
X2470Y9144D02*
X17307D01*
X19937D02*
X334403D01*
X338432D02*
X391323D01*
X393953D02*
X407766D01*
X2470Y9735D02*
X334354D01*
X338480D02*
X407766D01*
X2470Y10325D02*
X334479D01*
X338355D02*
X407766D01*
X2470Y10916D02*
X3644D01*
X6434D02*
X334818D01*
X338017D02*
X407766D01*
X2470Y11506D02*
X3196D01*
X6883D02*
X335604D01*
X337231D02*
X407766D01*
X2470Y12097D02*
X3001D01*
X7077D02*
X407766D01*
X2470Y12687D02*
X2987D01*
X7092D02*
X407766D01*
X2470Y13278D02*
X3149D01*
X6929D02*
X407766D01*
X2470Y13869D02*
X3545D01*
X6534D02*
X407766D01*
X2470Y14459D02*
X4271D01*
X5808D02*
X169429D01*
X170965D02*
X407766D01*
X2470Y15050D02*
X3456D01*
X6623D02*
X168613D01*
X171780D02*
X407766D01*
X2470Y15640D02*
X3109D01*
X6970D02*
X168266D01*
X172128D02*
X407766D01*
X2470Y16231D02*
X2978D01*
X7101D02*
X168135D01*
X172259D02*
X407766D01*
X2470Y16821D02*
X3021D01*
X7058D02*
X168178D01*
X172216D02*
X305009D01*
X307353D02*
X407766D01*
X2470Y17412D02*
X3250D01*
X6829D02*
X168407D01*
X171987D02*
X304439D01*
X307924D02*
X407766D01*
X2470Y18002D02*
X3761D01*
X6317D02*
X168919D01*
X171475D02*
X304181D01*
X308181D02*
X407766D01*
X2470Y18593D02*
X3896D01*
X6183D02*
X288660D01*
X290946D02*
X304115D01*
X308247D02*
X407766D01*
X2470Y19183D02*
X3310D01*
X6769D02*
X288073D01*
X291533D02*
X304222D01*
X308140D02*
X407766D01*
X2470Y19774D02*
X3044D01*
X7034D02*
X287808D01*
X291798D02*
X304535D01*
X307827D02*
X407766D01*
X2470Y20365D02*
X2973D01*
X7106D02*
X287737D01*
X291869D02*
X305241D01*
X307121D02*
X407766D01*
X2470Y20955D02*
X3074D01*
X7005D02*
X287838D01*
X291768D02*
X292382D01*
X295256D02*
X407766D01*
X2470Y21546D02*
X3379D01*
X6700D02*
X288143D01*
X291464D02*
X291956D01*
X295682D02*
X407766D01*
X2470Y22136D02*
X4062D01*
X6017D02*
X288826D01*
X290781D02*
X291775D01*
X295863D02*
X407766D01*
X2470Y22727D02*
X283211D01*
X286001D02*
X291772D01*
X295866D02*
X407766D01*
X2470Y23317D02*
X282763D01*
X286450D02*
X291947D01*
X295691D02*
X407766D01*
X2470Y23908D02*
X282568D01*
X286644D02*
X292363D01*
X295275D02*
X407766D01*
X2470Y24498D02*
X282554D01*
X286658D02*
X293621D01*
X294016D02*
X304773D01*
X307117D02*
X407766D01*
X2470Y25089D02*
X282716D01*
X286496D02*
X304202D01*
X307687D02*
X407766D01*
X2470Y25680D02*
X283112D01*
X286101D02*
X303945D01*
X307945D02*
X407766D01*
X2470Y26270D02*
X4153D01*
X5689D02*
X284160D01*
X285053D02*
X303879D01*
X308011D02*
X407766D01*
X2470Y26861D02*
X3338D01*
X6505D02*
X303986D01*
X307904D02*
X407766D01*
X2470Y27451D02*
X2991D01*
X6852D02*
X304299D01*
X307591D02*
X407766D01*
X2470Y28042D02*
X2860D01*
X6983D02*
X305005D01*
X306885D02*
X407766D01*
X2470Y28632D02*
X2902D01*
X6940D02*
X205529D01*
X335219D02*
X407766D01*
X2470Y29223D02*
X3131D01*
X6711D02*
X205158D01*
X335590D02*
X407766D01*
X2470Y29813D02*
X3643D01*
X6199D02*
X205118D01*
X335630D02*
X407766D01*
X2470Y30404D02*
X3896D01*
X6183D02*
X205118D01*
X335630D02*
X407766D01*
X2470Y30994D02*
X3310D01*
X6769D02*
X205118D01*
X335630D02*
X407766D01*
X2470Y31585D02*
X3044D01*
X7034D02*
X205118D01*
X335630D02*
X407766D01*
X2470Y32176D02*
X2973D01*
X7106D02*
X205118D01*
X335630D02*
X407766D01*
X2470Y32766D02*
X3074D01*
X7005D02*
X205118D01*
X335630D02*
X407766D01*
X2470Y33357D02*
X3379D01*
X6700D02*
X205118D01*
X335630D02*
X407766D01*
X2470Y33947D02*
X4062D01*
X6017D02*
X205118D01*
X335630D02*
X407766D01*
X2470Y34538D02*
X205118D01*
X335630D02*
X407766D01*
X2470Y35128D02*
X3610D01*
X6311D02*
X205118D01*
X335630D02*
X407766D01*
X2470Y35719D02*
X3138D01*
X6784D02*
X205118D01*
X335630D02*
X407766D01*
X2470Y36309D02*
X2930D01*
X6992D02*
X205118D01*
X335630D02*
X407766D01*
X2470Y36900D02*
X2904D01*
X7017D02*
X205118D01*
X335630D02*
X407766D01*
X2470Y37491D02*
X3054D01*
X6867D02*
X93130D01*
X96004D02*
X205118D01*
X335630D02*
X407766D01*
X2470Y38081D02*
X3429D01*
X6492D02*
X90846D01*
X92382D02*
X92704D01*
X96430D02*
X205118D01*
X335630D02*
X407766D01*
X2470Y38672D02*
X3456D01*
X6623D02*
X90031D01*
X96611D02*
X97580D01*
X98641D02*
X205118D01*
X335630D02*
X407766D01*
X2470Y39262D02*
X3109D01*
X6970D02*
X89683D01*
X99624D02*
X205118D01*
X335630D02*
X407766D01*
X2470Y39853D02*
X2978D01*
X7101D02*
X89552D01*
X100009D02*
X205118D01*
X335630D02*
X407766D01*
X2470Y40443D02*
X3021D01*
X7058D02*
X61854D01*
X63737D02*
X89595D01*
X96023D02*
X96056D01*
X100165D02*
X205118D01*
X335630D02*
X407766D01*
X2470Y41034D02*
X3250D01*
X6829D02*
X61149D01*
X64442D02*
X89824D01*
X93404D02*
X94369D01*
X94764D02*
X96076D01*
X100145D02*
X205118D01*
X335630D02*
X407766D01*
X2470Y41624D02*
X3761D01*
X6317D02*
X60836D01*
X64754D02*
X90336D01*
X92892D02*
X96277D01*
X99943D02*
X205118D01*
X335630D02*
X407766D01*
X2470Y42215D02*
X3896D01*
X6183D02*
X30943D01*
X33230D02*
X60729D01*
X64861D02*
X96738D01*
X99482D02*
X205118D01*
X335630D02*
X407766D01*
X2470Y42806D02*
X3310D01*
X6769D02*
X30357D01*
X33816D02*
X60795D01*
X64795D02*
X205118D01*
X335630D02*
X407766D01*
X2470Y43396D02*
X3044D01*
X7034D02*
X30092D01*
X34081D02*
X61053D01*
X64537D02*
X205118D01*
X335630D02*
X407766D01*
X2470Y43987D02*
X2973D01*
X7106D02*
X30020D01*
X34153D02*
X61624D01*
X63966D02*
X205118D01*
X335630D02*
X407766D01*
X2470Y44577D02*
X3074D01*
X7005D02*
X30121D01*
X34052D02*
X205118D01*
X335630D02*
X407766D01*
X2470Y45168D02*
X3379D01*
X6700D02*
X30426D01*
X33747D02*
X205118D01*
X335630D02*
X407766D01*
X2470Y45758D02*
X4062D01*
X6017D02*
X31109D01*
X33064D02*
X205118D01*
X335630D02*
X407766D01*
X2470Y46349D02*
X3644D01*
X6434D02*
X205118D01*
X335630D02*
X407766D01*
X2470Y46939D02*
X3196D01*
X6883D02*
X31674D01*
X32735D02*
X205118D01*
X335630D02*
X407766D01*
X2470Y47530D02*
X3001D01*
X7077D02*
X30691D01*
X33719D02*
X205118D01*
X335630D02*
X407766D01*
X2470Y48120D02*
X2987D01*
X7092D02*
X30306D01*
X34104D02*
X205118D01*
X335630D02*
X407766D01*
X2470Y48711D02*
X3149D01*
X6929D02*
X30150D01*
X34259D02*
X205118D01*
X335630D02*
X407766D01*
X2470Y49302D02*
X3545D01*
X6534D02*
X30170D01*
X34239D02*
X205118D01*
X335630D02*
X407766D01*
X2470Y49892D02*
X4593D01*
X5486D02*
X30372D01*
X34038D02*
X205118D01*
X335630D02*
X407766D01*
X2470Y50483D02*
X30832D01*
X33577D02*
X205118D01*
X335630D02*
X407766D01*
X2470Y51073D02*
X205118D01*
X335630D02*
X407766D01*
X2470Y51664D02*
X205118D01*
X335630D02*
X407766D01*
X2470Y52254D02*
X205118D01*
X335630D02*
X407766D01*
X2470Y52845D02*
X205118D01*
X335630D02*
X407766D01*
X2470Y53435D02*
X205118D01*
X335630D02*
X407766D01*
X2470Y54026D02*
X3896D01*
X6183D02*
X205118D01*
X335630D02*
X407766D01*
X2470Y54617D02*
X3310D01*
X6769D02*
X129980D01*
X132854D02*
X205118D01*
X335630D02*
X407766D01*
X2470Y55207D02*
X3044D01*
X7034D02*
X129554D01*
X133280D02*
X205118D01*
X335630D02*
X407766D01*
X2470Y55798D02*
X2973D01*
X7106D02*
X129373D01*
X133462D02*
X205118D01*
X335630D02*
X407766D01*
X2470Y56388D02*
X3074D01*
X7005D02*
X129370D01*
X133464D02*
X205118D01*
X335630D02*
X407766D01*
X2470Y56979D02*
X3379D01*
X6700D02*
X129545D01*
X133289D02*
X205118D01*
X335630D02*
X407766D01*
X2470Y57569D02*
X4062D01*
X6017D02*
X129961D01*
X132873D02*
X205118D01*
X335630D02*
X407766D01*
X2470Y58160D02*
X3644D01*
X6434D02*
X43881D01*
X46671D02*
X131220D01*
X131615D02*
X205118D01*
X335630D02*
X377936D01*
X380726D02*
X407766D01*
X2470Y58750D02*
X3196D01*
X6883D02*
X43432D01*
X47119D02*
X205118D01*
X335630D02*
X377487D01*
X381174D02*
X407766D01*
X2470Y59341D02*
X3001D01*
X7077D02*
X43238D01*
X47314D02*
X205118D01*
X335630D02*
X377293D01*
X381369D02*
X407766D01*
X2470Y59931D02*
X2987D01*
X7092D02*
X43223D01*
X47328D02*
X205118D01*
X335630D02*
X377279D01*
X381383D02*
X407766D01*
X2470Y60522D02*
X3149D01*
X6929D02*
X43386D01*
X47165D02*
X205118D01*
X335630D02*
X377441D01*
X381221D02*
X407766D01*
X2470Y61113D02*
X3545D01*
X6534D02*
X43781D01*
X46770D02*
X205118D01*
X335630D02*
X377836D01*
X380825D02*
X407766D01*
X2470Y61703D02*
X4468D01*
X6004D02*
X44829D01*
X45722D02*
X52225D01*
X55492D02*
X77028D01*
X80295D02*
X205118D01*
X335630D02*
X378884D01*
X379777D02*
X407766D01*
X2470Y62294D02*
X3653D01*
X6820D02*
X51668D01*
X56048D02*
X76472D01*
X80851D02*
X205118D01*
X335630D02*
X407766D01*
X2470Y62884D02*
X3305D01*
X7167D02*
X51363D01*
X56353D02*
X76166D01*
X81156D02*
X205118D01*
X335630D02*
X407766D01*
X2470Y63475D02*
X3175D01*
X7298D02*
X51221D01*
X56496D02*
X76024D01*
X81299D02*
X205118D01*
X335630D02*
X407766D01*
X2470Y64065D02*
X3217D01*
X7255D02*
X51214D01*
X56502D02*
X76017D01*
X81306D02*
X205118D01*
X335630D02*
X407766D01*
X2470Y64656D02*
X3446D01*
X7026D02*
X51343D01*
X56374D02*
X76146D01*
X81177D02*
X205118D01*
X335630D02*
X407766D01*
X2470Y65246D02*
X3958D01*
X6514D02*
X51629D01*
X56087D02*
X76433D01*
X80890D02*
X205118D01*
X335630D02*
X407766D01*
X2470Y65837D02*
X52153D01*
X55564D02*
X76956D01*
X80367D02*
X205118D01*
X335630D02*
X407766D01*
X2470Y66428D02*
X53466D01*
X54251D02*
X78269D01*
X79054D02*
X205118D01*
X335630D02*
X407766D01*
X2470Y67018D02*
X205118D01*
X335630D02*
X407766D01*
X2470Y67609D02*
X205118D01*
X335630D02*
X407766D01*
X2470Y68199D02*
X205118D01*
X335630D02*
X407766D01*
X2470Y68790D02*
X3896D01*
X6183D02*
X205118D01*
X335630D02*
X407766D01*
X2470Y69380D02*
X3310D01*
X6769D02*
X126618D01*
X128500D02*
X172287D01*
X174170D02*
X205118D01*
X335630D02*
X407766D01*
X2470Y69971D02*
X3044D01*
X7034D02*
X125913D01*
X129205D02*
X171582D01*
X174875D02*
X205118D01*
X335630D02*
X404589D01*
X407379D02*
X407766D01*
X2470Y70561D02*
X2973D01*
X7106D02*
X125600D01*
X129518D02*
X171269D01*
X175187D02*
X205118D01*
X336910D02*
X404141D01*
X2470Y71152D02*
X3074D01*
X7005D02*
X30951D01*
X33458D02*
X39888D01*
X42395D02*
X125493D01*
X129625D02*
X171163D01*
X175294D02*
X205118D01*
X337725D02*
X403946D01*
X2470Y71743D02*
X3379D01*
X6700D02*
X30426D01*
X33983D02*
X39363D01*
X42920D02*
X125559D01*
X129559D02*
X171228D01*
X175228D02*
X205118D01*
X338072D02*
X403932D01*
X2470Y72333D02*
X4062D01*
X6017D02*
X30190D01*
X34219D02*
X39127D01*
X43156D02*
X125817D01*
X129301D02*
X171486D01*
X174970D02*
X205118D01*
X338203D02*
X404094D01*
X2470Y72924D02*
X30142D01*
X34268D02*
X39079D01*
X43205D02*
X126388D01*
X128730D02*
X172057D01*
X174399D02*
X205118D01*
X338161D02*
X404490D01*
X407479D02*
X407766D01*
X2470Y73514D02*
X4271D01*
X5808D02*
X30267D01*
X34143D02*
X39204D01*
X43080D02*
X46673D01*
X48209D02*
X205118D01*
X337932D02*
X405538D01*
X406431D02*
X407766D01*
X2470Y74105D02*
X3456D01*
X6623D02*
X30606D01*
X33804D02*
X39543D01*
X42741D02*
X45857D01*
X49025D02*
X205118D01*
X337420D02*
X407766D01*
X2470Y74695D02*
X3109D01*
X6970D02*
X31391D01*
X33018D02*
X40328D01*
X41955D02*
X45510D01*
X49372D02*
X72633D01*
X75241D02*
X205118D01*
X335630D02*
X407766D01*
X2470Y75286D02*
X2978D01*
X7101D02*
X45379D01*
X49503D02*
X72135D01*
X75739D02*
X205118D01*
X335630D02*
X407766D01*
X2470Y75876D02*
X3021D01*
X7058D02*
X45422D01*
X49460D02*
X71914D01*
X75960D02*
X205118D01*
X335630D02*
X407766D01*
X2470Y76467D02*
X3250D01*
X6829D02*
X45651D01*
X49231D02*
X71877D01*
X75997D02*
X205118D01*
X335630D02*
X407766D01*
X2470Y77057D02*
X3761D01*
X6317D02*
X46163D01*
X48719D02*
X72014D01*
X75860D02*
X205118D01*
X335630D02*
X407766D01*
X2470Y77648D02*
X3896D01*
X6183D02*
X30786D01*
X33072D02*
X72371D01*
X75503D02*
X205118D01*
X335630D02*
X407766D01*
X2470Y78239D02*
X3310D01*
X6769D02*
X30199D01*
X33659D02*
X73223D01*
X74651D02*
X205118D01*
X335630D02*
X407766D01*
X2470Y78829D02*
X3044D01*
X7034D02*
X29934D01*
X33924D02*
X205118D01*
X335630D02*
X407766D01*
X2470Y79420D02*
X2973D01*
X7106D02*
X29863D01*
X33995D02*
X38421D01*
X41028D02*
X205118D01*
X335630D02*
X407766D01*
X2470Y80010D02*
X3074D01*
X7005D02*
X29964D01*
X33894D02*
X37923D01*
X41526D02*
X205118D01*
X335630D02*
X407766D01*
X2470Y80601D02*
X3379D01*
X6700D02*
X30269D01*
X33590D02*
X37701D01*
X41748D02*
X205118D01*
X335630D02*
X407766D01*
X2470Y81191D02*
X4062D01*
X6017D02*
X30952D01*
X32906D02*
X37664D01*
X41785D02*
X205118D01*
X335630D02*
X407766D01*
X2470Y81782D02*
X37802D01*
X41647D02*
X205118D01*
X335630D02*
X407766D01*
X2470Y82372D02*
X3735D01*
X6344D02*
X38158D01*
X41291D02*
X47830D01*
X50438D02*
X114981D01*
X117381D02*
X205118D01*
X335630D02*
X407766D01*
X2470Y82963D02*
X3238D01*
X6841D02*
X39010D01*
X40439D02*
X47332D01*
X50936D02*
X114426D01*
X117936D02*
X205118D01*
X335630D02*
X407766D01*
X2470Y83554D02*
X3016D01*
X7063D02*
X47111D01*
X51157D02*
X114176D01*
X118186D02*
X205118D01*
X335630D02*
X407766D01*
X2470Y84144D02*
X2979D01*
X7099D02*
X47074D01*
X51194D02*
X114116D01*
X118246D02*
X205118D01*
X335630D02*
X407766D01*
X2470Y84735D02*
X3117D01*
X6962D02*
X47211D01*
X51056D02*
X114229D01*
X118133D02*
X205118D01*
X335630D02*
X407766D01*
X2470Y85325D02*
X3474D01*
X6605D02*
X31161D01*
X32697D02*
X47568D01*
X50700D02*
X114550D01*
X117812D02*
X205118D01*
X335630D02*
X407766D01*
X2470Y85916D02*
X4326D01*
X5753D02*
X30346D01*
X33513D02*
X48420D01*
X49847D02*
X115281D01*
X117081D02*
X205118D01*
X335630D02*
X407766D01*
X2470Y86506D02*
X29998D01*
X33860D02*
X205118D01*
X335630D02*
X407766D01*
X2470Y87097D02*
X29867D01*
X33991D02*
X100636D01*
X102356D02*
X205118D01*
X335630D02*
X407766D01*
X2470Y87687D02*
X29910D01*
X33948D02*
X99880D01*
X103112D02*
X205118D01*
X335630D02*
X407766D01*
X2470Y88278D02*
X30139D01*
X33719D02*
X99551D01*
X103441D02*
X205118D01*
X335630D02*
X407766D01*
X2470Y88869D02*
X30651D01*
X33207D02*
X99432D01*
X103560D02*
X205164D01*
X335630D02*
X339925D01*
X340626D02*
X407766D01*
X2470Y89459D02*
X99486D01*
X103506D02*
X204639D01*
X335630D02*
X338799D01*
X341752D02*
X407766D01*
X2470Y90050D02*
X57240D01*
X59847D02*
X99730D01*
X103263D02*
X204403D01*
X335630D02*
X338394D01*
X342157D02*
X407766D01*
X2470Y90640D02*
X56742D01*
X60345D02*
X100270D01*
X102722D02*
X204354D01*
X335630D02*
X338226D01*
X342325D02*
X407766D01*
X2470Y91231D02*
X56520D01*
X60566D02*
X204479D01*
X335630D02*
X338234D01*
X342317D02*
X407766D01*
X2470Y91821D02*
X56483D01*
X60603D02*
X204818D01*
X335630D02*
X338423D01*
X342129D02*
X407766D01*
X2470Y92412D02*
X56620D01*
X60466D02*
X205129D01*
X335630D02*
X338860D01*
X341691D02*
X407766D01*
X2470Y93002D02*
X56868D01*
X60219D02*
X205118D01*
X335630D02*
X407766D01*
X2470Y93593D02*
X56572D01*
X60515D02*
X205118D01*
X335630D02*
X407766D01*
X2470Y94183D02*
X56477D01*
X60610D02*
X205118D01*
X335630D02*
X407766D01*
X2470Y94774D02*
X56554D01*
X60533D02*
X103011D01*
X104548D02*
X205118D01*
X335630D02*
X407766D01*
X2470Y95365D02*
X56827D01*
X60260D02*
X102196D01*
X105363D02*
X205118D01*
X335630D02*
X407766D01*
X2470Y95955D02*
X56684D01*
X60481D02*
X101849D01*
X105710D02*
X205118D01*
X335630D02*
X407766D01*
X2470Y96546D02*
X56528D01*
X60637D02*
X101718D01*
X105841D02*
X205118D01*
X335630D02*
X407766D01*
X2470Y97136D02*
X56548D01*
X60617D02*
X101761D01*
X105798D02*
X205118D01*
X335630D02*
X407766D01*
X2470Y97727D02*
X56750D01*
X60416D02*
X72634D01*
X75240D02*
X101990D01*
X105569D02*
X205118D01*
X335630D02*
X407766D01*
X2470Y98317D02*
X56821D01*
X60423D02*
X72136D01*
X75738D02*
X102501D01*
X105058D02*
X205118D01*
X335630D02*
X407766D01*
X2470Y98908D02*
X56599D01*
X60645D02*
X71914D01*
X75960D02*
X205118D01*
X335630D02*
X407766D01*
X2470Y99498D02*
X56562D01*
X60682D02*
X71877D01*
X75997D02*
X205118D01*
X335630D02*
X407766D01*
X2470Y100089D02*
X56699D01*
X60545D02*
X72014D01*
X75860D02*
X205118D01*
X335630D02*
X407766D01*
X2470Y100680D02*
X57056D01*
X60188D02*
X72371D01*
X75503D02*
X205118D01*
X335630D02*
X407766D01*
X2470Y101270D02*
X57907D01*
X59337D02*
X73222D01*
X74652D02*
X205118D01*
X335630D02*
X407766D01*
X2470Y101861D02*
X205118D01*
X335630D02*
X407766D01*
X2470Y102451D02*
X205118D01*
X335630D02*
X407766D01*
X2470Y103042D02*
X205118D01*
X335630D02*
X407766D01*
X2470Y103632D02*
X205118D01*
X335630D02*
X407766D01*
X2470Y104223D02*
X205118D01*
X335630D02*
X407766D01*
X2470Y104813D02*
X205118D01*
X335630D02*
X407766D01*
X2470Y105404D02*
X30810D01*
X33600D02*
X205118D01*
X335630D02*
X407766D01*
X2470Y105994D02*
X30361D01*
X34048D02*
X205118D01*
X335630D02*
X407766D01*
X2470Y106585D02*
X30167D01*
X34243D02*
X205118D01*
X335630D02*
X407766D01*
X2470Y107176D02*
X30153D01*
X34257D02*
X205118D01*
X335630D02*
X407766D01*
X2470Y107766D02*
X30315D01*
X34095D02*
X205118D01*
X335630D02*
X407766D01*
X2470Y108357D02*
X30710D01*
X33699D02*
X205118D01*
X335630D02*
X407766D01*
X2470Y108947D02*
X4507D01*
X6044D02*
X31437D01*
X32973D02*
X205118D01*
X335630D02*
X407766D01*
X2470Y109538D02*
X3692D01*
X6859D02*
X30621D01*
X33788D02*
X205118D01*
X335630D02*
X407766D01*
X2470Y110128D02*
X3345D01*
X7206D02*
X30274D01*
X34135D02*
X205118D01*
X335630D02*
X407766D01*
X2470Y110719D02*
X3214D01*
X7337D02*
X30143D01*
X34266D02*
X205118D01*
X335630D02*
X407766D01*
X2470Y111309D02*
X3257D01*
X7294D02*
X30186D01*
X34224D02*
X205118D01*
X335630D02*
X407766D01*
X2470Y111900D02*
X3486D01*
X7065D02*
X30415D01*
X33995D02*
X205118D01*
X335630D02*
X407766D01*
X2470Y112491D02*
X3998D01*
X6554D02*
X30927D01*
X33483D02*
X205118D01*
X335630D02*
X407766D01*
X2470Y113081D02*
X62479D01*
X64765D02*
X205118D01*
X335630D02*
X407766D01*
X2470Y113672D02*
X61892D01*
X65352D02*
X205118D01*
X335630D02*
X407766D01*
X2470Y114262D02*
X61627D01*
X65617D02*
X205118D01*
X335630D02*
X407766D01*
X2470Y114853D02*
X61556D01*
X65688D02*
X205118D01*
X335630D02*
X407766D01*
X2470Y115443D02*
X61657D01*
X65587D02*
X205118D01*
X335630D02*
X407766D01*
X2470Y116034D02*
X61961D01*
X65283D02*
X205118D01*
X335630D02*
X407766D01*
X2470Y116624D02*
X62645D01*
X64599D02*
X205118D01*
X335630D02*
X407766D01*
X2470Y117215D02*
X3841D01*
X6631D02*
X30810D01*
X33600D02*
X205118D01*
X335630D02*
X407766D01*
X2470Y117806D02*
X3393D01*
X7080D02*
X30361D01*
X34048D02*
X205118D01*
X335630D02*
X407766D01*
X2470Y118396D02*
X3198D01*
X7274D02*
X30167D01*
X34243D02*
X205118D01*
X335630D02*
X407766D01*
X2470Y118987D02*
X3184D01*
X7288D02*
X30153D01*
X34257D02*
X205118D01*
X335630D02*
X407766D01*
X2470Y119577D02*
X3346D01*
X7126D02*
X30315D01*
X34095D02*
X205118D01*
X335630D02*
X407766D01*
X2470Y120168D02*
X3741D01*
X6731D02*
X30710D01*
X33699D02*
X205118D01*
X335630D02*
X407766D01*
X2470Y120758D02*
X4468D01*
X6004D02*
X31758D01*
X32651D02*
X205118D01*
X335559D02*
X407766D01*
X2470Y121349D02*
X3653D01*
X6820D02*
X205118D01*
X335600D02*
X407766D01*
X2470Y121939D02*
X3305D01*
X7167D02*
X205118D01*
X335630D02*
X407766D01*
X2470Y122530D02*
X3175D01*
X7298D02*
X205118D01*
X335630D02*
X407766D01*
X2470Y123120D02*
X3217D01*
X7255D02*
X205118D01*
X335630D02*
X407766D01*
X2470Y123711D02*
X3446D01*
X7026D02*
X205121D01*
X335627D02*
X407766D01*
X2470Y124302D02*
X3958D01*
X6514D02*
X205333D01*
X335415D02*
X407766D01*
X2470Y124892D02*
X407766D01*
X2470Y125483D02*
X407766D01*
X2470Y126073D02*
X407766D01*
X2470Y126664D02*
X407766D01*
X2470Y127254D02*
X407766D01*
X2470Y127845D02*
X407766D01*
X2470Y128435D02*
X407766D01*
X2470Y129026D02*
X407766D01*
X2470Y129617D02*
X407766D01*
X2470Y130207D02*
X407766D01*
X2470Y130798D02*
X407766D01*
X2470Y131388D02*
X407766D01*
X2470Y131979D02*
X407766D01*
X2470Y132569D02*
X31043D01*
X32579D02*
X407766D01*
X2470Y133160D02*
X30227D01*
X33395D02*
X407766D01*
X2470Y133750D02*
X29880D01*
X33742D02*
X407766D01*
X2470Y134341D02*
X29749D01*
X33873D02*
X407766D01*
X2470Y134931D02*
X29792D01*
X33830D02*
X407766D01*
X2470Y135522D02*
X30021D01*
X33601D02*
X208668D01*
X210388D02*
X223208D01*
X224745D02*
X407766D01*
X2470Y136113D02*
X30533D01*
X33089D02*
X207912D01*
X211143D02*
X222393D01*
X225560D02*
X407766D01*
X2470Y136703D02*
X207582D01*
X211473D02*
X222046D01*
X225907D02*
X407766D01*
X2470Y137294D02*
X207463D01*
X211592D02*
X221915D01*
X226038D02*
X407766D01*
X2470Y137884D02*
X17075D01*
X20169D02*
X207518D01*
X211537D02*
X221958D01*
X225995D02*
X391091D01*
X394185D02*
X407766D01*
X2470Y138475D02*
X16185D01*
X21059D02*
X207761D01*
X211294D02*
X222187D01*
X225766D02*
X390201D01*
X395075D02*
X407766D01*
X2470Y139065D02*
X15658D01*
X21586D02*
X208301D01*
X210754D02*
X222698D01*
X225254D02*
X389674D01*
X395602D02*
X407766D01*
X2470Y139656D02*
X15315D01*
X21929D02*
X389331D01*
X395945D02*
X407766D01*
X2470Y140246D02*
X15102D01*
X22142D02*
X389118D01*
X396158D02*
X407766D01*
X2470Y140837D02*
X14997D01*
X22247D02*
X389012D01*
X396263D02*
X407766D01*
X2470Y141428D02*
X14989D01*
X22255D02*
X389004D01*
X396271D02*
X407766D01*
X2470Y142018D02*
X15078D01*
X22166D02*
X389094D01*
X396182D02*
X407766D01*
X2470Y142609D02*
X15272D01*
X21972D02*
X389288D01*
X395988D02*
X407766D01*
X2470Y143199D02*
X15591D01*
X21653D02*
X389606D01*
X395669D02*
X407766D01*
X2470Y143790D02*
X16081D01*
X21163D02*
X390097D01*
X395179D02*
X407766D01*
X2470Y144380D02*
X16882D01*
X20362D02*
X390898D01*
X394378D02*
X407766D01*
X2470Y144971D02*
X407766D01*
X2470Y145561D02*
X407766D01*
X2470Y146152D02*
X407766D01*
X2470Y146743D02*
X222474D01*
X226916D02*
X231490D01*
X235931D02*
X240506D01*
X244947D02*
X249521D01*
X253963D02*
X258537D01*
X262979D02*
X267553D01*
X271994D02*
X276569D01*
X281010D02*
X285584D01*
X290026D02*
X294600D01*
X299042D02*
X407766D01*
X2470Y147333D02*
X221590D01*
X227800D02*
X230606D01*
X236815D02*
X239622D01*
X245831D02*
X248637D01*
X254847D02*
X257653D01*
X263863D02*
X266669D01*
X272878D02*
X275685D01*
X281894D02*
X284700D01*
X290910D02*
X293716D01*
X299926D02*
X407766D01*
X2470Y147924D02*
X221000D01*
X228389D02*
X230016D01*
X237405D02*
X239032D01*
X246421D02*
X248048D01*
X255437D02*
X257063D01*
X264452D02*
X266079D01*
X273468D02*
X275095D01*
X282484D02*
X284111D01*
X291500D02*
X293126D01*
X300515D02*
X407766D01*
X2470Y148514D02*
X190740D01*
X195087D02*
X220576D01*
X228813D02*
X229592D01*
X237829D02*
X238608D01*
X246845D02*
X247624D01*
X255861D02*
X256639D01*
X264876D02*
X265655D01*
X273892D02*
X274671D01*
X282908D02*
X283687D01*
X291924D02*
X292702D01*
X300939D02*
X321921D01*
X326268D02*
X407766D01*
X2470Y149105D02*
X188537D01*
X197289D02*
X220270D01*
X229120D02*
X229286D01*
X238135D02*
X238302D01*
X247151D02*
X247317D01*
X256167D02*
X256333D01*
X265183D02*
X265349D01*
X274198D02*
X274365D01*
X283214D02*
X283380D01*
X292230D02*
X292396D01*
X301246D02*
X319718D01*
X328471D02*
X407766D01*
X2470Y149695D02*
X187179D01*
X198647D02*
X220059D01*
X301457D02*
X318361D01*
X329828D02*
X407766D01*
X2470Y150286D02*
X186138D01*
X199689D02*
X219929D01*
X301587D02*
X317319D01*
X330870D02*
X407766D01*
X2470Y150876D02*
X185282D01*
X200545D02*
X219874D01*
X301641D02*
X316463D01*
X331726D02*
X407766D01*
X2470Y151467D02*
X184554D01*
X201273D02*
X219892D01*
X301623D02*
X315735D01*
X332454D02*
X407766D01*
X2470Y152057D02*
X183924D01*
X201903D02*
X219984D01*
X301532D02*
X315105D01*
X333084D02*
X407766D01*
X2470Y152648D02*
X183371D01*
X202456D02*
X220154D01*
X301362D02*
X314552D01*
X333637D02*
X407766D01*
X2470Y153239D02*
X182883D01*
X202944D02*
X220411D01*
X228979D02*
X229426D01*
X237995D02*
X238442D01*
X247011D02*
X247458D01*
X256026D02*
X256474D01*
X265042D02*
X265489D01*
X274058D02*
X274505D01*
X283074D02*
X283521D01*
X292089D02*
X292537D01*
X301105D02*
X314064D01*
X334125D02*
X407766D01*
X2470Y153829D02*
X182452D01*
X203375D02*
X220772D01*
X228618D02*
X229788D01*
X237634D02*
X238804D01*
X246649D02*
X247819D01*
X255665D02*
X256835D01*
X264681D02*
X265851D01*
X273696D02*
X274866D01*
X282712D02*
X283882D01*
X291728D02*
X292898D01*
X300744D02*
X313633D01*
X334556D02*
X407766D01*
X2470Y154420D02*
X182069D01*
X203758D02*
X221270D01*
X228119D02*
X230286D01*
X237135D02*
X239302D01*
X246151D02*
X248318D01*
X255167D02*
X257333D01*
X264182D02*
X266349D01*
X273198D02*
X275365D01*
X282214D02*
X284381D01*
X291230D02*
X293396D01*
X300245D02*
X313250D01*
X334939D02*
X407766D01*
X2470Y155010D02*
X181731D01*
X204096D02*
X221981D01*
X227409D02*
X230996D01*
X236425D02*
X240012D01*
X245441D02*
X249028D01*
X254456D02*
X258044D01*
X263472D02*
X267059D01*
X272488D02*
X276075D01*
X281504D02*
X285091D01*
X290519D02*
X294107D01*
X299535D02*
X312912D01*
X335277D02*
X407766D01*
X2470Y155601D02*
X181433D01*
X204394D02*
X223175D01*
X226215D02*
X232191D01*
X235230D02*
X241207D01*
X244246D02*
X250223D01*
X253262D02*
X259238D01*
X262277D02*
X268254D01*
X271293D02*
X277270D01*
X280309D02*
X286286D01*
X289325D02*
X295301D01*
X298341D02*
X312614D01*
X335575D02*
X407766D01*
X2470Y156191D02*
X181172D01*
X204655D02*
X312353D01*
X335836D02*
X407766D01*
X2470Y156782D02*
X180946D01*
X204881D02*
X217892D01*
X222482D02*
X226908D01*
X231498D02*
X235923D01*
X240514D02*
X244939D01*
X249529D02*
X253955D01*
X258545D02*
X262971D01*
X267561D02*
X271986D01*
X276577D02*
X281002D01*
X285592D02*
X290018D01*
X294608D02*
X312127D01*
X336062D02*
X407766D01*
X2470Y157372D02*
X180753D01*
X205074D02*
X217036D01*
X223338D02*
X226052D01*
X232354D02*
X235068D01*
X241369D02*
X244083D01*
X250385D02*
X253099D01*
X259401D02*
X262115D01*
X268417D02*
X271131D01*
X277432D02*
X280146D01*
X286448D02*
X289162D01*
X295464D02*
X311934D01*
X336255D02*
X407766D01*
X2470Y157963D02*
X180591D01*
X205236D02*
X216460D01*
X223914D02*
X225476D01*
X232930D02*
X234491D01*
X241946D02*
X243507D01*
X250961D02*
X252523D01*
X259977D02*
X261539D01*
X268993D02*
X270554D01*
X278009D02*
X279570D01*
X287024D02*
X288586D01*
X296040D02*
X311772D01*
X336417D02*
X407766D01*
X2470Y158554D02*
X180459D01*
X205368D02*
X216045D01*
X224329D02*
X225060D01*
X233345D02*
X234076D01*
X242361D02*
X243092D01*
X251377D02*
X252108D01*
X260392D02*
X261123D01*
X269408D02*
X270139D01*
X278424D02*
X279155D01*
X287440D02*
X288171D01*
X296455D02*
X311640D01*
X336549D02*
X407766D01*
X2470Y159144D02*
X34797D01*
X40852D02*
X180356D01*
X205470D02*
X215745D01*
X224629D02*
X224761D01*
X233644D02*
X233777D01*
X242660D02*
X242793D01*
X251676D02*
X251808D01*
X260692D02*
X260824D01*
X269707D02*
X269840D01*
X278723D02*
X278856D01*
X287739D02*
X287871D01*
X296755D02*
X311538D01*
X336651D02*
X407766D01*
X2470Y159735D02*
X25780D01*
X45370D02*
X180282D01*
X205545D02*
X215540D01*
X296960D02*
X311463D01*
X336726D02*
X407766D01*
X2470Y160325D02*
X25780D01*
X45370D02*
X180236D01*
X205591D02*
X215415D01*
X297085D02*
X311417D01*
X336772D02*
X407766D01*
X2470Y160916D02*
X25780D01*
X45370D02*
X180217D01*
X205610D02*
X215365D01*
X297135D02*
X311398D01*
X336791D02*
X407766D01*
X2470Y161506D02*
X25780D01*
X45370D02*
X180226D01*
X205601D02*
X215388D01*
X297112D02*
X311407D01*
X336782D02*
X407766D01*
X2470Y162097D02*
X25780D01*
X45370D02*
X180262D01*
X205565D02*
X215485D01*
X297015D02*
X311443D01*
X336746D02*
X407766D01*
X2470Y162687D02*
X25780D01*
X45370D02*
X180326D01*
X205501D02*
X215660D01*
X296840D02*
X311507D01*
X336682D02*
X407766D01*
X2470Y163278D02*
X25780D01*
X45370D02*
X180418D01*
X205409D02*
X215923D01*
X224451D02*
X224939D01*
X233466D02*
X233955D01*
X242482D02*
X242971D01*
X251498D02*
X251986D01*
X260514D02*
X261002D01*
X269529D02*
X270018D01*
X278545D02*
X279034D01*
X287561D02*
X288049D01*
X296577D02*
X311599D01*
X336590D02*
X407766D01*
X2470Y163869D02*
X25780D01*
X45370D02*
X180539D01*
X205287D02*
X216293D01*
X224081D02*
X225308D01*
X233097D02*
X234324D01*
X242113D02*
X243340D01*
X251129D02*
X252356D01*
X260144D02*
X261371D01*
X269160D02*
X270387D01*
X278176D02*
X279403D01*
X287192D02*
X288419D01*
X296207D02*
X311720D01*
X336469D02*
X407766D01*
X2470Y164459D02*
X25780D01*
X45370D02*
X180690D01*
X205137D02*
X216802D01*
X223572D02*
X225818D01*
X232588D02*
X234834D01*
X241603D02*
X243849D01*
X250619D02*
X252865D01*
X259635D02*
X261881D01*
X268651D02*
X270897D01*
X277666D02*
X279912D01*
X286682D02*
X288928D01*
X295698D02*
X311871D01*
X336318D02*
X407766D01*
X2470Y165050D02*
X25780D01*
X45370D02*
X180872D01*
X204955D02*
X217532D01*
X222842D02*
X226547D01*
X231858D02*
X235563D01*
X240874D02*
X244579D01*
X249890D02*
X253595D01*
X258905D02*
X262610D01*
X267921D02*
X271626D01*
X276937D02*
X280642D01*
X285953D02*
X289658D01*
X294968D02*
X312053D01*
X336136D02*
X407766D01*
X2470Y165640D02*
X25780D01*
X45370D02*
X181086D01*
X204741D02*
X218792D01*
X221582D02*
X227807D01*
X230598D02*
X236823D01*
X239614D02*
X245839D01*
X248630D02*
X254855D01*
X257645D02*
X263870D01*
X266661D02*
X272886D01*
X275677D02*
X281902D01*
X284693D02*
X290918D01*
X293708D02*
X312267D01*
X335922D02*
X407766D01*
X2470Y166231D02*
X25780D01*
X45370D02*
X181333D01*
X204493D02*
X224159D01*
X225231D02*
X233174D01*
X234247D02*
X242190D01*
X243263D02*
X251206D01*
X252279D02*
X260221D01*
X261294D02*
X269237D01*
X270310D02*
X276691D01*
X280888D02*
X287269D01*
X288342D02*
X312514D01*
X335674D02*
X407766D01*
X2470Y166821D02*
X25987D01*
X45163D02*
X181617D01*
X204209D02*
X222328D01*
X227061D02*
X231344D01*
X236077D02*
X240360D01*
X245093D02*
X249376D01*
X254109D02*
X258391D01*
X263124D02*
X267407D01*
X272140D02*
X275672D01*
X281907D02*
X285439D01*
X290172D02*
X312799D01*
X335390D02*
X407766D01*
X2470Y167412D02*
X181941D01*
X203886D02*
X221499D01*
X227891D02*
X230515D01*
X236907D02*
X239530D01*
X245922D02*
X248546D01*
X254938D02*
X257562D01*
X263954D02*
X266578D01*
X272970D02*
X275004D01*
X282575D02*
X284609D01*
X291001D02*
X313122D01*
X335067D02*
X407766D01*
X2470Y168002D02*
X182306D01*
X203520D02*
X220936D01*
X228454D02*
X229951D01*
X237470D02*
X238967D01*
X246486D02*
X247983D01*
X255501D02*
X256999D01*
X264517D02*
X266014D01*
X273533D02*
X274518D01*
X283061D02*
X284046D01*
X291564D02*
X313488D01*
X334701D02*
X407766D01*
X2470Y168593D02*
X182719D01*
X203107D02*
X220529D01*
X228860D02*
X229545D01*
X237876D02*
X238561D01*
X246892D02*
X247577D01*
X255908D02*
X256592D01*
X264923D02*
X265608D01*
X273939D02*
X274156D01*
X283423D02*
X283640D01*
X291971D02*
X313901D01*
X334288D02*
X407766D01*
X2470Y169183D02*
X183186D01*
X202641D02*
X220237D01*
X229153D02*
X229253D01*
X238169D02*
X238268D01*
X247184D02*
X247284D01*
X256200D02*
X256300D01*
X265216D02*
X265316D01*
X292263D02*
X314367D01*
X333822D02*
X407766D01*
X2470Y169774D02*
X183713D01*
X202113D02*
X220037D01*
X292463D02*
X314894D01*
X333295D02*
X407766D01*
X2470Y170365D02*
X184314D01*
X201513D02*
X219917D01*
X292583D02*
X315495D01*
X332694D02*
X407766D01*
X2470Y170955D02*
X185003D01*
X200824D02*
X219873D01*
X292627D02*
X316184D01*
X332005D02*
X407766D01*
X2470Y171546D02*
X185807D01*
X200019D02*
X219900D01*
X292600D02*
X316988D01*
X331201D02*
X407766D01*
X2470Y172136D02*
X186772D01*
X199055D02*
X220002D01*
X292498D02*
X317953D01*
X330236D02*
X407766D01*
X2470Y172727D02*
X187989D01*
X197837D02*
X220183D01*
X292317D02*
X319170D01*
X329019D02*
X407766D01*
X2470Y173317D02*
X189739D01*
X196087D02*
X220452D01*
X228937D02*
X229468D01*
X237953D02*
X238484D01*
X246969D02*
X247500D01*
X255985D02*
X256515D01*
X265000D02*
X265531D01*
X274016D02*
X274087D01*
X283492D02*
X283563D01*
X292048D02*
X320920D01*
X327269D02*
X407766D01*
X2470Y173908D02*
X220830D01*
X228560D02*
X229845D01*
X237576D02*
X238861D01*
X246592D02*
X247877D01*
X255607D02*
X256893D01*
X264623D02*
X265908D01*
X273639D02*
X274424D01*
X283155D02*
X283940D01*
X291670D02*
X407766D01*
X2470Y174498D02*
X221350D01*
X228039D02*
X230366D01*
X237055D02*
X239382D01*
X246071D02*
X248398D01*
X255087D02*
X257413D01*
X264102D02*
X266429D01*
X273118D02*
X274878D01*
X282701D02*
X284461D01*
X291150D02*
X407766D01*
X2470Y175089D02*
X222100D01*
X227290D02*
X231116D01*
X236305D02*
X240132D01*
X245321D02*
X249147D01*
X254337D02*
X258163D01*
X263353D02*
X267179D01*
X272368D02*
X275496D01*
X282083D02*
X285210D01*
X290400D02*
X407766D01*
X2470Y175680D02*
X223437D01*
X225953D02*
X232453D01*
X234969D02*
X241469D01*
X243984D02*
X250484D01*
X253000D02*
X259500D01*
X262016D02*
X268516D01*
X271032D02*
X276402D01*
X281177D02*
X286547D01*
X289063D02*
X407766D01*
X2470Y176270D02*
X407766D01*
X2470Y176861D02*
X407766D01*
X2470Y177451D02*
X407766D01*
X2470Y178042D02*
X407766D01*
X2470Y178632D02*
X407766D01*
X2470Y179223D02*
X407766D01*
X2470Y179813D02*
X407766D01*
X206299Y88448D02*
Y29528D01*
X334449*
Y71294*
X334317Y71510*
X334212Y71739*
X334136Y71980*
X334090Y72228*
X334075Y72480*
X334090Y72732*
X334136Y72981*
X334212Y73221*
X334317Y73451*
X334449Y73666*
Y120354*
X334357Y120117*
X334236Y119893*
X334089Y119686*
X333917Y119498*
X333724Y119333*
X333511Y119193*
X333284Y119080*
X333044Y118996*
X332795Y118941*
X332542Y118918*
X332288Y118926*
X332036Y118966*
X331792Y119035*
X331558Y119135*
X331337Y119262*
X331135Y119415*
X330952Y119592*
X330793Y119791*
X330659Y120007*
X330553Y120238*
X330476Y120480*
X330429Y120730*
X330413Y120984*
X330429Y121238*
X330476Y121488*
X330553Y121730*
X330659Y121961*
X330793Y122178*
X330952Y122376*
X331135Y122553*
X331337Y122706*
X331558Y122834*
X331792Y122933*
X332036Y123003*
X332288Y123042*
X332542Y123050*
X332795Y123027*
X333044Y122973*
X333283Y122889*
X333511Y122776*
X333723Y122636*
X333917Y122470*
X334089Y122283*
X334236Y122075*
X334356Y121852*
X334449Y121614*
Y123622*
X206299*
Y92575*
X206539Y92575*
X206778Y92547*
X207012Y92491*
X207237Y92409*
X207452Y92301*
X207653Y92169*
X207837Y92014*
X208001Y91840*
X208145Y91647*
X208265Y91439*
X208360Y91218*
X208429Y90988*
X208470Y90752*
X208484Y90512*
X208470Y90272*
X208429Y90035*
X208360Y89805*
X208265Y89585*
X208145Y89377*
X208001Y89184*
X207836Y89009*
X207653Y88855*
X207452Y88722*
X207237Y88615*
X207012Y88532*
X206778Y88477*
X206539Y88449*
X206299Y88448*
X217854Y36693D02*
X217869Y36942D01*
X217914Y37188*
X217989Y37426*
X218091Y37653*
X218220Y37867*
X218374Y38064*
X218551Y38240*
X218747Y38394*
X218961Y38523*
X219188Y38626*
X219427Y38700*
X219672Y38745*
X219921Y38760*
X220170Y38745*
X220416Y38700*
X220654Y38626*
X220882Y38523*
X221095Y38394*
X221292Y38240*
X221468Y38064*
X221622Y37867*
X221751Y37653*
X221854Y37426*
X221928Y37188*
X221973Y36942*
X221988Y36693*
X221973Y36444*
X221928Y36198*
X221854Y35960*
X221751Y35732*
X221622Y35519*
X221468Y35322*
X221292Y35146*
X221095Y34992*
X220882Y34863*
X220654Y34760*
X220416Y34686*
X220170Y34641*
X219921Y34626*
X219672Y34641*
X219427Y34686*
X219188Y34760*
X218961Y34863*
X218747Y34992*
X218551Y35146*
X218374Y35322*
X218220Y35519*
X218091Y35732*
X217989Y35960*
X217914Y36198*
X217869Y36444*
X217854Y36693*
X222382Y38386D02*
X222397Y38635D01*
X222442Y38880*
X222516Y39119*
X222619Y39346*
X222748Y39560*
X222902Y39756*
X223078Y39933*
X223275Y40087*
X223488Y40216*
X223716Y40318*
X223954Y40393*
X224200Y40438*
X224449Y40453*
X224698Y40438*
X224943Y40393*
X225182Y40318*
X225409Y40216*
X225623Y40087*
X225819Y39933*
X225996Y39756*
X226150Y39560*
X226279Y39346*
X226381Y39119*
X226456Y38880*
X226501Y38635*
X226516Y38386*
X226501Y38137*
X226456Y37891*
X226381Y37653*
X226279Y37425*
X226150Y37212*
X225996Y37015*
X225819Y36839*
X225623Y36685*
X225409Y36556*
X225182Y36453*
X224943Y36379*
X224698Y36334*
X224449Y36319*
X224200Y36334*
X223954Y36379*
X223716Y36453*
X223488Y36556*
X223275Y36685*
X223078Y36839*
X222902Y37015*
X222748Y37212*
X222619Y37425*
X222516Y37653*
X222442Y37891*
X222397Y38137*
X222382Y38386*
X222618Y68937D02*
X222633Y69186D01*
X222678Y69432*
X222752Y69670*
X222855Y69898*
X222984Y70111*
X223138Y70308*
X223314Y70484*
X223511Y70638*
X223724Y70767*
X223952Y70870*
X224190Y70944*
X224436Y70989*
X224685Y71004*
X224934Y70989*
X225180Y70944*
X225418Y70870*
X225646Y70767*
X225859Y70638*
X226056Y70484*
X226232Y70308*
X226386Y70111*
X226515Y69898*
X226618Y69670*
X226692Y69432*
X226737Y69186*
X226752Y68937*
X226737Y68688*
X226692Y68442*
X226618Y68204*
X226515Y67976*
X226386Y67763*
X226232Y67566*
X226056Y67390*
X225859Y67236*
X225646Y67107*
X225418Y67004*
X225180Y66930*
X224934Y66885*
X224685Y66870*
X224436Y66885*
X224190Y66930*
X223952Y67004*
X223724Y67107*
X223511Y67236*
X223314Y67390*
X223138Y67566*
X222984Y67763*
X222855Y67976*
X222752Y68204*
X222678Y68442*
X222633Y68688*
X222618Y68937*
X232539Y105925D02*
X232554Y106174D01*
X232599Y106420*
X232674Y106658*
X232776Y106886*
X232905Y107099*
X233059Y107296*
X233236Y107472*
X233432Y107626*
X233646Y107755*
X233873Y107858*
X234112Y107932*
X234357Y107977*
X234606Y107992*
X234855Y107977*
X235101Y107932*
X235339Y107858*
X235567Y107755*
X235780Y107626*
X235977Y107472*
X236153Y107296*
X236307Y107099*
X236436Y106886*
X236539Y106658*
X236613Y106420*
X236658Y106174*
X236673Y105925*
X236658Y105676*
X236613Y105431*
X236539Y105192*
X236436Y104965*
X236307Y104751*
X236153Y104555*
X235977Y104378*
X235780Y104224*
X235567Y104095*
X235339Y103993*
X235101Y103918*
X234855Y103873*
X234606Y103858*
X234357Y103873*
X234112Y103918*
X233873Y103993*
X233646Y104095*
X233432Y104224*
X233236Y104378*
X233059Y104555*
X232905Y104751*
X232776Y104965*
X232674Y105192*
X232599Y105431*
X232554Y105676*
X232539Y105925*
X234823Y68524D02*
X234838Y68773D01*
X234883Y69018*
X234957Y69257*
X235060Y69484*
X235189Y69698*
X235343Y69894*
X235519Y70071*
X235716Y70225*
X235929Y70354*
X236157Y70456*
X236395Y70530*
X236641Y70575*
X236890Y70591*
X237139Y70575*
X237384Y70530*
X237623Y70456*
X237850Y70354*
X238064Y70225*
X238260Y70071*
X238437Y69894*
X238591Y69698*
X238720Y69484*
X238822Y69257*
X238897Y69018*
X238942Y68773*
X238957Y68524*
X238942Y68274*
X238897Y68029*
X238822Y67791*
X238720Y67563*
X238591Y67349*
X238437Y67153*
X238260Y66977*
X238064Y66823*
X237850Y66693*
X237623Y66591*
X237384Y66517*
X237139Y66472*
X236890Y66457*
X236641Y66472*
X236395Y66517*
X236157Y66591*
X235929Y66693*
X235716Y66823*
X235519Y66977*
X235343Y67153*
X235189Y67349*
X235060Y67563*
X234957Y67791*
X234883Y68029*
X234838Y68274*
X234823Y68524*
X240965Y101535D02*
X240980Y101785D01*
X241025Y102030*
X241099Y102268*
X241201Y102496*
X241330Y102710*
X241484Y102906*
X241661Y103083*
X241857Y103236*
X242071Y103366*
X242299Y103468*
X242537Y103542*
X242782Y103587*
X243031Y103602*
X243281Y103587*
X243526Y103542*
X243764Y103468*
X243992Y103366*
X244206Y103236*
X244402Y103083*
X244579Y102906*
X244732Y102710*
X244862Y102496*
X244964Y102268*
X245038Y102030*
X245083Y101785*
X245098Y101535*
X245083Y101286*
X245038Y101041*
X244964Y100802*
X244862Y100575*
X244732Y100361*
X244579Y100165*
X244402Y99988*
X244206Y99834*
X243992Y99705*
X243764Y99603*
X243526Y99529*
X243281Y99484*
X243031Y99469*
X242782Y99484*
X242537Y99529*
X242299Y99603*
X242071Y99705*
X241857Y99834*
X241661Y99988*
X241484Y100165*
X241330Y100361*
X241201Y100575*
X241099Y100802*
X241025Y101041*
X240980Y101286*
X240965Y101535*
X241555Y40669D02*
X241570Y40918D01*
X241615Y41164*
X241689Y41402*
X241792Y41630*
X241921Y41843*
X242075Y42040*
X242251Y42216*
X242448Y42370*
X242661Y42499*
X242889Y42602*
X243127Y42676*
X243373Y42721*
X243622Y42736*
X243871Y42721*
X244117Y42676*
X244355Y42602*
X244583Y42499*
X244796Y42370*
X244993Y42216*
X245169Y42040*
X245323Y41843*
X245452Y41630*
X245555Y41402*
X245629Y41164*
X245674Y40918*
X245689Y40669*
X245674Y40420*
X245629Y40175*
X245555Y39936*
X245452Y39709*
X245323Y39495*
X245169Y39299*
X244993Y39122*
X244796Y38968*
X244583Y38839*
X244355Y38737*
X244117Y38662*
X243871Y38617*
X243622Y38602*
X243373Y38617*
X243127Y38662*
X242889Y38737*
X242661Y38839*
X242448Y38968*
X242251Y39122*
X242075Y39299*
X241921Y39495*
X241792Y39709*
X241689Y39936*
X241615Y40175*
X241570Y40420*
X241555Y40669*
X241791Y60945D02*
X241806Y61194D01*
X241851Y61440*
X241926Y61678*
X242028Y61905*
X242157Y62119*
X242311Y62315*
X242488Y62492*
X242684Y62646*
X242898Y62775*
X243125Y62877*
X243364Y62952*
X243609Y62997*
X243858Y63012*
X244107Y62997*
X244353Y62952*
X244591Y62877*
X244819Y62775*
X245032Y62646*
X245229Y62492*
X245405Y62315*
X245559Y62119*
X245688Y61905*
X245791Y61678*
X245865Y61440*
X245910Y61194*
X245925Y60945*
X245910Y60696*
X245865Y60450*
X245791Y60212*
X245688Y59984*
X245559Y59771*
X245405Y59574*
X245229Y59398*
X245032Y59244*
X244819Y59115*
X244591Y59012*
X244353Y58938*
X244107Y58893*
X243858Y58878*
X243609Y58893*
X243364Y58938*
X243125Y59012*
X242898Y59115*
X242684Y59244*
X242488Y59398*
X242311Y59574*
X242157Y59771*
X242028Y59984*
X241926Y60212*
X241851Y60450*
X241806Y60696*
X241791Y60945*
X240965Y110315D02*
X240980Y110564D01*
X241025Y110810*
X241099Y111048*
X241201Y111276*
X241330Y111489*
X241484Y111686*
X241661Y111862*
X241857Y112016*
X242071Y112145*
X242299Y112248*
X242537Y112322*
X242782Y112367*
X243031Y112382*
X243281Y112367*
X243526Y112322*
X243764Y112248*
X243992Y112145*
X244206Y112016*
X244402Y111862*
X244579Y111686*
X244732Y111489*
X244862Y111276*
X244964Y111048*
X245038Y110810*
X245083Y110564*
X245098Y110315*
X245083Y110066*
X245038Y109820*
X244964Y109582*
X244862Y109354*
X244732Y109141*
X244579Y108944*
X244402Y108768*
X244206Y108614*
X243992Y108485*
X243764Y108382*
X243526Y108308*
X243281Y108263*
X243031Y108248*
X242782Y108263*
X242537Y108308*
X242299Y108382*
X242071Y108485*
X241857Y108614*
X241661Y108768*
X241484Y108944*
X241330Y109141*
X241201Y109354*
X241099Y109582*
X241025Y109820*
X240980Y110066*
X240965Y110315*
X250295Y38740D02*
X250310Y38989D01*
X250355Y39235*
X250430Y39473*
X250532Y39701*
X250661Y39914*
X250815Y40111*
X250992Y40287*
X251188Y40441*
X251402Y40570*
X251629Y40673*
X251868Y40747*
X252113Y40792*
X252362Y40807*
X252611Y40792*
X252857Y40747*
X253095Y40673*
X253323Y40570*
X253536Y40441*
X253733Y40287*
X253909Y40111*
X254063Y39914*
X254192Y39701*
X254295Y39473*
X254369Y39235*
X254414Y38989*
X254429Y38740*
X254414Y38492*
X254370Y38248*
X254296Y38011*
X254195Y37785*
X254067Y37572*
X253915Y37376*
X253740Y37200*
X253546Y37046*
X253334Y36916*
X253109Y36813*
X252872Y36737*
X252628Y36690*
X252381Y36673*
X252133Y36686*
X252146Y36457*
X252131Y36208*
X252086Y35962*
X252011Y35724*
X251909Y35496*
X251780Y35283*
X251626Y35086*
X251449Y34910*
X251253Y34756*
X251039Y34627*
X250812Y34524*
X250573Y34450*
X250328Y34405*
X250079Y34390*
X249830Y34405*
X249584Y34450*
X249346Y34524*
X249118Y34627*
X248905Y34756*
X248708Y34910*
X248532Y35086*
X248378Y35283*
X248249Y35496*
X248146Y35724*
X248072Y35962*
X248027Y36208*
X248012Y36457*
X248027Y36704*
X248071Y36949*
X248145Y37186*
X248246Y37412*
X248374Y37625*
X248526Y37821*
X248701Y37997*
X248895Y38151*
X249107Y38281*
X249332Y38384*
X249569Y38460*
X249813Y38506*
X250060Y38524*
X250308Y38511*
X250295Y38740*
X249154Y105925D02*
X249169Y106174D01*
X249214Y106420*
X249288Y106658*
X249390Y106886*
X249519Y107099*
X249673Y107296*
X249850Y107472*
X250046Y107626*
X250260Y107755*
X250488Y107858*
X250726Y107932*
X250971Y107977*
X251220Y107992*
X251470Y107977*
X251715Y107932*
X251953Y107858*
X252181Y107755*
X252395Y107626*
X252591Y107472*
X252768Y107296*
X252921Y107099*
X253051Y106886*
X253153Y106658*
X253227Y106420*
X253272Y106174*
X253287Y105925*
X253272Y105676*
X253227Y105431*
X253153Y105192*
X253051Y104965*
X252921Y104751*
X252768Y104555*
X252591Y104378*
X252395Y104224*
X252181Y104095*
X251953Y103993*
X251715Y103918*
X251470Y103873*
X251220Y103858*
X250971Y103873*
X250726Y103918*
X250488Y103993*
X250260Y104095*
X250046Y104224*
X249850Y104378*
X249673Y104555*
X249519Y104751*
X249390Y104965*
X249288Y105192*
X249214Y105431*
X249169Y105676*
X249154Y105925*
X256713Y57913D02*
X256728Y58163D01*
X256773Y58408*
X256847Y58646*
X256949Y58874*
X257079Y59088*
X257232Y59284*
X257409Y59460*
X257605Y59614*
X257819Y59744*
X258047Y59846*
X258285Y59920*
X258530Y59965*
X258780Y59980*
X259029Y59965*
X259274Y59920*
X259512Y59846*
X259740Y59744*
X259954Y59614*
X260150Y59460*
X260327Y59284*
X260481Y59088*
X260610Y58874*
X260712Y58646*
X260786Y58408*
X260831Y58163*
X260846Y57913*
X260831Y57664*
X260786Y57419*
X260712Y57180*
X260610Y56953*
X260481Y56739*
X260327Y56543*
X260150Y56366*
X259954Y56212*
X259740Y56083*
X259512Y55981*
X259274Y55907*
X259029Y55862*
X258780Y55846*
X258530Y55862*
X258285Y55907*
X258047Y55981*
X257819Y56083*
X257605Y56212*
X257409Y56366*
X257232Y56543*
X257079Y56739*
X256949Y56953*
X256847Y57180*
X256773Y57419*
X256728Y57664*
X256713Y57913*
X266358Y59094D02*
X266373Y59344D01*
X266418Y59589*
X266493Y59827*
X266595Y60055*
X266724Y60269*
X266878Y60465*
X267055Y60642*
X267251Y60796*
X267465Y60925*
X267692Y61027*
X267931Y61101*
X268176Y61146*
X268425Y61161*
X268674Y61146*
X268920Y61101*
X269158Y61027*
X269386Y60925*
X269599Y60796*
X269796Y60642*
X269972Y60465*
X270126Y60269*
X270255Y60055*
X270358Y59827*
X270432Y59589*
X270477Y59344*
X270492Y59094*
X270477Y58845*
X270432Y58600*
X270358Y58362*
X270255Y58134*
X270126Y57920*
X269972Y57724*
X269796Y57547*
X269599Y57393*
X269386Y57264*
X269158Y57162*
X268920Y57088*
X268674Y57043*
X268425Y57028*
X268176Y57043*
X267931Y57088*
X267692Y57162*
X267465Y57264*
X267251Y57393*
X267055Y57547*
X266878Y57724*
X266724Y57920*
X266595Y58134*
X266493Y58362*
X266418Y58600*
X266373Y58845*
X266358Y59094*
X266673Y103563D02*
X266688Y103812D01*
X266733Y104058*
X266808Y104296*
X266910Y104524*
X267039Y104737*
X267193Y104934*
X267370Y105110*
X267566Y105264*
X267780Y105393*
X268007Y105496*
X268246Y105570*
X268491Y105615*
X268740Y105630*
X268989Y105615*
X269235Y105570*
X269473Y105496*
X269701Y105393*
X269914Y105264*
X270111Y105110*
X270287Y104934*
X270441Y104737*
X270570Y104524*
X270673Y104296*
X270747Y104058*
X270792Y103812*
X270807Y103563*
X270792Y103314*
X270747Y103068*
X270673Y102830*
X270570Y102602*
X270441Y102389*
X270287Y102192*
X270111Y102016*
X269914Y101862*
X269701Y101733*
X269473Y101630*
X269235Y101556*
X268989Y101511*
X268740Y101496*
X268491Y101511*
X268246Y101556*
X268007Y101630*
X267780Y101733*
X267566Y101862*
X267370Y102016*
X267193Y102192*
X267039Y102389*
X266910Y102602*
X266808Y102830*
X266733Y103068*
X266688Y103314*
X266673Y103563*
X268642Y71417D02*
X268657Y71666D01*
X268702Y71912*
X268776Y72150*
X268879Y72378*
X269008Y72591*
X269162Y72788*
X269338Y72964*
X269535Y73118*
X269748Y73247*
X269976Y73350*
X270214Y73424*
X270460Y73469*
X270709Y73484*
X270958Y73469*
X271203Y73424*
X271442Y73350*
X271669Y73247*
X271883Y73118*
X272079Y72964*
X272256Y72788*
X272410Y72591*
X272539Y72378*
X272641Y72150*
X272716Y71912*
X272761Y71666*
X272776Y71417*
X272761Y71168*
X272716Y70923*
X272641Y70684*
X272539Y70457*
X272410Y70243*
X272256Y70047*
X272079Y69870*
X271883Y69716*
X271669Y69587*
X271442Y69485*
X271203Y69410*
X270958Y69365*
X270709Y69350*
X270460Y69365*
X270214Y69410*
X269976Y69485*
X269748Y69587*
X269535Y69716*
X269338Y69870*
X269162Y70047*
X269008Y70243*
X268879Y70457*
X268776Y70684*
X268702Y70923*
X268657Y71168*
X268642Y71417*
X269114Y88228D02*
X269129Y88477D01*
X269174Y88723*
X269249Y88961*
X269351Y89189*
X269480Y89402*
X269634Y89599*
X269811Y89775*
X270007Y89929*
X270221Y90059*
X270448Y90161*
X270686Y90235*
X270932Y90280*
X271181Y90295*
X271430Y90280*
X271676Y90235*
X271914Y90161*
X272142Y90059*
X272355Y89929*
X272552Y89775*
X272728Y89599*
X272882Y89402*
X273011Y89189*
X273114Y88961*
X273188Y88723*
X273233Y88477*
X273248Y88228*
X273233Y87979*
X273188Y87734*
X273114Y87495*
X273011Y87268*
X272882Y87054*
X272728Y86858*
X272552Y86681*
X272355Y86527*
X272142Y86398*
X271914Y86296*
X271676Y86221*
X271430Y86176*
X271181Y86161*
X270932Y86176*
X270686Y86221*
X270448Y86296*
X270221Y86398*
X270007Y86527*
X269811Y86681*
X269634Y86858*
X269480Y87054*
X269351Y87268*
X269249Y87495*
X269174Y87734*
X269129Y87979*
X269114Y88228*
X270335Y112028D02*
X270350Y112277D01*
X270395Y112522*
X270469Y112761*
X270571Y112988*
X270701Y113202*
X270854Y113398*
X271031Y113575*
X271227Y113729*
X271441Y113858*
X271669Y113960*
X271907Y114034*
X272152Y114079*
X272402Y114094*
X272651Y114079*
X272896Y114034*
X273135Y113960*
X273362Y113858*
X273576Y113729*
X273772Y113575*
X273949Y113398*
X274103Y113202*
X274232Y112988*
X274334Y112761*
X274408Y112522*
X274453Y112277*
X274469Y112028*
X274453Y111778*
X274408Y111533*
X274334Y111295*
X274232Y111067*
X274103Y110853*
X273949Y110657*
X273772Y110480*
X273576Y110327*
X273362Y110197*
X273135Y110095*
X272896Y110021*
X272651Y109976*
X272402Y109961*
X272152Y109976*
X271907Y110021*
X271669Y110095*
X271441Y110197*
X271227Y110327*
X271031Y110480*
X270854Y110657*
X270701Y110853*
X270571Y111067*
X270469Y111295*
X270395Y111533*
X270350Y111778*
X270335Y112028*
X273642Y93110D02*
X273657Y93359D01*
X273702Y93605*
X273776Y93843*
X273879Y94071*
X274008Y94284*
X274162Y94481*
X274338Y94657*
X274535Y94811*
X274748Y94940*
X274976Y95043*
X275214Y95117*
X275460Y95162*
X275709Y95177*
X275958Y95162*
X276203Y95117*
X276442Y95043*
X276669Y94940*
X276883Y94811*
X277079Y94657*
X277256Y94481*
X277410Y94284*
X277539Y94071*
X277641Y93843*
X277716Y93605*
X277761Y93359*
X277776Y93110*
X277761Y92861*
X277716Y92616*
X277641Y92377*
X277539Y92150*
X277410Y91936*
X277256Y91740*
X277079Y91563*
X276883Y91409*
X276669Y91280*
X276442Y91178*
X276203Y91103*
X275958Y91058*
X275709Y91043*
X275460Y91058*
X275214Y91103*
X274976Y91178*
X274748Y91280*
X274535Y91409*
X274338Y91563*
X274162Y91740*
X274008Y91936*
X273879Y92150*
X273776Y92377*
X273702Y92616*
X273657Y92861*
X273642Y93110*
X276240Y71063D02*
X276255Y71312D01*
X276300Y71558*
X276374Y71796*
X276477Y72024*
X276606Y72237*
X276760Y72434*
X276936Y72610*
X277133Y72764*
X277347Y72893*
X277574Y72996*
X277812Y73070*
X278058Y73115*
X278307Y73130*
X278556Y73115*
X278802Y73070*
X279040Y72996*
X279268Y72893*
X279481Y72764*
X279678Y72610*
X279854Y72434*
X280008Y72237*
X280137Y72024*
X280240Y71796*
X280314Y71558*
X280359Y71312*
X280374Y71063*
X280359Y70814*
X280314Y70568*
X280240Y70330*
X280137Y70102*
X280008Y69889*
X279854Y69692*
X279678Y69516*
X279481Y69362*
X279268Y69233*
X279040Y69130*
X278802Y69056*
X278556Y69011*
X278307Y68996*
X278058Y69011*
X277812Y69056*
X277574Y69130*
X277347Y69233*
X277133Y69362*
X276936Y69516*
X276760Y69692*
X276606Y69889*
X276477Y70102*
X276374Y70330*
X276300Y70568*
X276255Y70814*
X276240Y71063*
X277579Y65984D02*
X277594Y66233D01*
X277639Y66479*
X277713Y66717*
X277816Y66945*
X277945Y67158*
X278099Y67355*
X278275Y67531*
X278472Y67685*
X278685Y67814*
X278913Y67917*
X279151Y67991*
X279397Y68036*
X279646Y68051*
X279895Y68036*
X280140Y67991*
X280379Y67917*
X280606Y67814*
X280820Y67685*
X281016Y67531*
X281193Y67355*
X281347Y67158*
X281476Y66945*
X281578Y66717*
X281653Y66479*
X281698Y66233*
X281713Y65984*
X281698Y65735*
X281653Y65490*
X281578Y65251*
X281476Y65024*
X281347Y64810*
X281193Y64614*
X281016Y64437*
X280820Y64283*
X280606Y64154*
X280379Y64052*
X280140Y63977*
X279895Y63932*
X279646Y63917*
X279397Y63932*
X279151Y63977*
X278913Y64052*
X278685Y64154*
X278472Y64283*
X278275Y64437*
X278099Y64614*
X277945Y64810*
X277816Y65024*
X277713Y65251*
X277639Y65490*
X277594Y65735*
X277579Y65984*
X282539D02*
X282554Y66233D01*
X282599Y66479*
X282674Y66717*
X282776Y66945*
X282905Y67158*
X283059Y67355*
X283236Y67531*
X283432Y67685*
X283646Y67814*
X283873Y67917*
X284112Y67991*
X284357Y68036*
X284606Y68051*
X284855Y68036*
X285101Y67991*
X285339Y67917*
X285567Y67814*
X285780Y67685*
X285977Y67531*
X286153Y67355*
X286307Y67158*
X286436Y66945*
X286539Y66717*
X286613Y66479*
X286658Y66233*
X286673Y65984*
X286658Y65735*
X286613Y65490*
X286539Y65251*
X286436Y65024*
X286307Y64810*
X286153Y64614*
X285977Y64437*
X285780Y64283*
X285567Y64154*
X285339Y64052*
X285101Y63977*
X284855Y63932*
X284606Y63917*
X284357Y63932*
X284112Y63977*
X283873Y64052*
X283646Y64154*
X283432Y64283*
X283236Y64437*
X283059Y64614*
X282905Y64810*
X282776Y65024*
X282674Y65251*
X282599Y65490*
X282554Y65735*
X282539Y65984*
X287520Y93268D02*
X287612Y93505D01*
X287733Y93729*
X287880Y93936*
X288052Y94124*
X288245Y94289*
X288457Y94429*
X288685Y94542*
X288925Y94627*
X289173Y94681*
X289427Y94704*
X289681Y94696*
X289932Y94657*
X290177Y94587*
X290411Y94487*
X290631Y94360*
X290834Y94207*
X291016Y94030*
X291176Y93831*
X291310Y93615*
X291416Y93384*
X291493Y93142*
X291540Y92892*
X291555Y92638*
X291539Y92384*
X291493Y92134*
X291416Y91892*
X291310Y91661*
X291176Y91444*
X291016Y91246*
X290834Y91069*
X290631Y90916*
X290411Y90788*
X290177Y90689*
X289932Y90619*
X289681Y90580*
X289427Y90572*
X289174Y90595*
X288925Y90649*
X288685Y90733*
X288457Y90846*
X288245Y90986*
X288052Y91152*
X287880Y91339*
X287733Y91547*
X287612Y91770*
X287520Y92008*
X287427Y91771*
X287307Y91547*
X287159Y91339*
X286988Y91152*
X286794Y90987*
X286582Y90846*
X286354Y90733*
X286114Y90649*
X285866Y90595*
X285613Y90572*
X285358Y90580*
X285107Y90619*
X284863Y90689*
X284628Y90788*
X284408Y90916*
X284205Y91069*
X284023Y91246*
X283864Y91444*
X283730Y91661*
X283624Y91892*
X283546Y92134*
X283500Y92384*
X283484Y92638*
X283500Y92892*
X283547Y93142*
X283624Y93384*
X283730Y93615*
X283864Y93831*
X284023Y94029*
X284205Y94207*
X284408Y94360*
X284628Y94487*
X284863Y94587*
X285107Y94656*
X285358Y94696*
X285613Y94704*
X285866Y94681*
X286114Y94627*
X286354Y94542*
X286582Y94429*
X286794Y94289*
X286988Y94124*
X287159Y93936*
X287307Y93729*
X287427Y93505*
X287520Y93268*
X287736Y75039D02*
X287751Y75289D01*
X287796Y75534*
X287871Y75772*
X287973Y76000*
X288102Y76214*
X288256Y76410*
X288433Y76586*
X288629Y76740*
X288843Y76870*
X289070Y76972*
X289309Y77046*
X289554Y77091*
X289803Y77106*
X290052Y77091*
X290298Y77046*
X290536Y76972*
X290764Y76870*
X290977Y76740*
X291174Y76586*
X291350Y76410*
X291504Y76214*
X291633Y76000*
X291736Y75772*
X291810Y75534*
X291855Y75289*
X291870Y75039*
X291855Y74790*
X291810Y74545*
X291736Y74306*
X291633Y74079*
X291504Y73865*
X291350Y73669*
X291174Y73492*
X290977Y73338*
X290764Y73209*
X290536Y73107*
X290298Y73033*
X290052Y72988*
X289803Y72972*
X289554Y72988*
X289309Y73033*
X289070Y73107*
X288843Y73209*
X288629Y73338*
X288433Y73492*
X288256Y73669*
X288102Y73865*
X287973Y74079*
X287871Y74306*
X287796Y74545*
X287751Y74790*
X287736Y75039*
X291752Y36969D02*
X291767Y37218D01*
X291812Y37463*
X291886Y37701*
X291989Y37929*
X292118Y38143*
X292272Y38339*
X292448Y38516*
X292645Y38670*
X292858Y38799*
X293086Y38901*
X293324Y38975*
X293570Y39020*
X293819Y39035*
X294068Y39020*
X294314Y38975*
X294552Y38901*
X294779Y38799*
X294993Y38670*
X295189Y38516*
X295366Y38339*
X295520Y38143*
X295649Y37929*
X295751Y37701*
X295826Y37463*
X295871Y37218*
X295886Y36969*
X295871Y36719*
X295826Y36474*
X295751Y36236*
X295649Y36008*
X295520Y35794*
X295366Y35598*
X295189Y35421*
X294993Y35267*
X294779Y35138*
X294552Y35036*
X294314Y34962*
X294068Y34917*
X293819Y34902*
X293570Y34917*
X293324Y34962*
X293086Y35036*
X292858Y35138*
X292645Y35267*
X292448Y35421*
X292272Y35598*
X292118Y35794*
X291989Y36008*
X291886Y36236*
X291812Y36474*
X291767Y36719*
X291752Y36969*
X289744Y87815D02*
X289759Y88064D01*
X289804Y88310*
X289878Y88548*
X289981Y88776*
X290110Y88989*
X290264Y89186*
X290440Y89362*
X290637Y89516*
X290850Y89645*
X291078Y89748*
X291316Y89822*
X291562Y89867*
X291811Y89882*
X292060Y89867*
X292306Y89822*
X292544Y89748*
X292772Y89645*
X292985Y89516*
X293182Y89362*
X293358Y89186*
X293512Y88989*
X293641Y88776*
X293744Y88548*
X293818Y88310*
X293863Y88064*
X293878Y87815*
X293863Y87566*
X293818Y87320*
X293744Y87082*
X293641Y86854*
X293512Y86641*
X293358Y86444*
X293182Y86268*
X292985Y86114*
X292772Y85985*
X292544Y85882*
X292306Y85808*
X292060Y85763*
X291811Y85748*
X291562Y85763*
X291316Y85808*
X291078Y85882*
X290850Y85985*
X290637Y86114*
X290440Y86268*
X290264Y86444*
X290110Y86641*
X289981Y86854*
X289878Y87082*
X289804Y87320*
X289759Y87566*
X289744Y87815*
X290295Y82913D02*
X290310Y83163D01*
X290355Y83408*
X290430Y83646*
X290532Y83874*
X290661Y84088*
X290815Y84284*
X290992Y84460*
X291188Y84614*
X291402Y84744*
X291629Y84846*
X291868Y84920*
X292113Y84965*
X292362Y84980*
X292611Y84965*
X292857Y84920*
X293095Y84846*
X293323Y84744*
X293536Y84614*
X293733Y84460*
X293909Y84284*
X294063Y84088*
X294192Y83874*
X294295Y83646*
X294369Y83408*
X294414Y83163*
X294429Y82913*
X294415Y82670*
X294372Y82431*
X294301Y82197*
X294204Y81974*
X294080Y81764*
X293933Y81570*
X293764Y81395*
X293576Y81240*
X293713Y81050*
X293827Y80846*
X293917Y80630*
X293983Y80405*
X294022Y80175*
X294035Y79941*
X294020Y79692*
X293975Y79446*
X293901Y79208*
X293799Y78980*
X293670Y78767*
X293516Y78570*
X293339Y78394*
X293143Y78240*
X292929Y78111*
X292701Y78008*
X292463Y77934*
X292218Y77889*
X291969Y77874*
X291719Y77889*
X291474Y77934*
X291236Y78008*
X291008Y78111*
X290794Y78240*
X290598Y78394*
X290421Y78570*
X290267Y78767*
X290138Y78980*
X290036Y79208*
X289962Y79446*
X289917Y79692*
X289902Y79941*
X289916Y80184*
X289959Y80424*
X290030Y80657*
X290127Y80880*
X290250Y81090*
X290398Y81284*
X290566Y81460*
X290755Y81614*
X290618Y81804*
X290504Y82008*
X290414Y82224*
X290348Y82449*
X290309Y82680*
X290295Y82913*
X292343Y66102D02*
X292358Y66351D01*
X292403Y66597*
X292477Y66835*
X292579Y67063*
X292708Y67276*
X292862Y67473*
X293039Y67649*
X293235Y67803*
X293449Y67933*
X293676Y68035*
X293915Y68109*
X294160Y68154*
X294409Y68169*
X294659Y68154*
X294904Y68109*
X295142Y68035*
X295370Y67933*
X295584Y67803*
X295780Y67649*
X295957Y67473*
X296110Y67276*
X296240Y67063*
X296342Y66835*
X296416Y66597*
X296461Y66351*
X296476Y66102*
X296461Y65853*
X296416Y65608*
X296342Y65369*
X296240Y65142*
X296110Y64928*
X295957Y64732*
X295780Y64555*
X295584Y64401*
X295370Y64272*
X295142Y64170*
X294904Y64096*
X294659Y64051*
X294409Y64035*
X294160Y64051*
X293915Y64096*
X293676Y64170*
X293449Y64272*
X293235Y64401*
X293039Y64555*
X292862Y64732*
X292708Y64928*
X292579Y65142*
X292477Y65369*
X292403Y65608*
X292358Y65853*
X292343Y66102*
X285453Y71063D02*
X285468Y71312D01*
X285513Y71558*
X285587Y71796*
X285690Y72024*
X285819Y72237*
X285973Y72434*
X286149Y72610*
X286346Y72764*
X286559Y72893*
X286787Y72996*
X287025Y73070*
X287271Y73115*
X287520Y73130*
X287769Y73115*
X288014Y73070*
X288253Y72996*
X288480Y72893*
X288694Y72764*
X288890Y72610*
X289067Y72434*
X289221Y72237*
X289350Y72024*
X289452Y71796*
X289527Y71558*
X289572Y71312*
X289587Y71063*
X289572Y70814*
X289527Y70568*
X289452Y70330*
X289350Y70102*
X289221Y69889*
X289067Y69692*
X288890Y69516*
X288694Y69362*
X288480Y69233*
X288253Y69130*
X288014Y69056*
X287769Y69011*
X287520Y68996*
X287271Y69011*
X287025Y69056*
X286787Y69130*
X286559Y69233*
X286346Y69362*
X286149Y69516*
X285973Y69692*
X285819Y69889*
X285690Y70102*
X285587Y70330*
X285513Y70568*
X285468Y70814*
X285453Y71063*
X292697Y90906D02*
X292712Y91155D01*
X292757Y91400*
X292831Y91638*
X292934Y91866*
X293063Y92080*
X293217Y92276*
X293393Y92453*
X293590Y92607*
X293803Y92736*
X294031Y92838*
X294269Y92912*
X294515Y92957*
X294764Y92972*
X295013Y92957*
X295258Y92912*
X295497Y92838*
X295724Y92736*
X295938Y92607*
X296134Y92453*
X296311Y92276*
X296465Y92080*
X296594Y91866*
X296696Y91638*
X296771Y91400*
X296816Y91155*
X296831Y90906*
X296816Y90656*
X296771Y90411*
X296696Y90173*
X296594Y89945*
X296465Y89731*
X296311Y89535*
X296134Y89358*
X295938Y89204*
X295724Y89075*
X295497Y88973*
X295258Y88899*
X295013Y88854*
X294764Y88839*
X294515Y88854*
X294269Y88899*
X294031Y88973*
X293803Y89075*
X293590Y89204*
X293393Y89358*
X293217Y89535*
X293063Y89731*
X292934Y89945*
X292831Y90173*
X292757Y90411*
X292712Y90656*
X292697Y90906*
X294626Y72756D02*
X294641Y73005D01*
X294686Y73251*
X294760Y73489*
X294863Y73716*
X294992Y73930*
X295146Y74126*
X295322Y74303*
X295519Y74457*
X295732Y74586*
X295960Y74689*
X296198Y74763*
X296444Y74808*
X296693Y74823*
X296942Y74808*
X297188Y74763*
X297426Y74689*
X297653Y74586*
X297867Y74457*
X298064Y74303*
X298240Y74126*
X298394Y73930*
X298523Y73716*
X298626Y73489*
X298700Y73251*
X298745Y73005*
X298760Y72756*
X298745Y72507*
X298700Y72261*
X298626Y72023*
X298523Y71795*
X298394Y71582*
X298240Y71385*
X298064Y71209*
X297867Y71055*
X297653Y70926*
X297426Y70823*
X297188Y70749*
X296942Y70704*
X296693Y70689*
X296444Y70704*
X296198Y70749*
X295960Y70823*
X295732Y70926*
X295519Y71055*
X295322Y71209*
X295146Y71385*
X294992Y71582*
X294863Y71795*
X294760Y72023*
X294686Y72261*
X294641Y72507*
X294626Y72756*
X296280Y85157D02*
X296295Y85407D01*
X296340Y85652*
X296414Y85890*
X296516Y86118*
X296645Y86332*
X296799Y86528*
X296976Y86705*
X297172Y86859*
X297386Y86988*
X297614Y87090*
X297852Y87164*
X298097Y87209*
X298346Y87224*
X298596Y87209*
X298841Y87164*
X299079Y87090*
X299307Y86988*
X299521Y86859*
X299717Y86705*
X299894Y86528*
X300047Y86332*
X300177Y86118*
X300279Y85890*
X300353Y85652*
X300398Y85407*
X300413Y85157*
X300398Y84908*
X300353Y84663*
X300279Y84425*
X300177Y84197*
X300047Y83983*
X299894Y83787*
X299717Y83610*
X299521Y83456*
X299307Y83327*
X299079Y83225*
X298841Y83151*
X298596Y83106*
X298346Y83091*
X298097Y83106*
X297852Y83151*
X297614Y83225*
X297386Y83327*
X297172Y83456*
X296976Y83610*
X296799Y83787*
X296645Y83983*
X296516Y84197*
X296414Y84425*
X296340Y84663*
X296295Y84908*
X296280Y85157*
X296378Y113012D02*
X296393Y113261D01*
X296438Y113506*
X296512Y113745*
X296615Y113972*
X296744Y114186*
X296898Y114382*
X297074Y114559*
X297271Y114713*
X297484Y114842*
X297712Y114944*
X297950Y115019*
X298196Y115064*
X298445Y115079*
X298694Y115064*
X298940Y115019*
X299178Y114944*
X299406Y114842*
X299619Y114713*
X299816Y114559*
X299992Y114382*
X300146Y114186*
X300275Y113972*
X300378Y113745*
X300452Y113506*
X300497Y113261*
X300512Y113012*
X300497Y112763*
X300452Y112517*
X300378Y112279*
X300275Y112051*
X300146Y111838*
X299992Y111641*
X299816Y111465*
X299619Y111311*
X299406Y111182*
X299178Y111079*
X298940Y111005*
X298694Y110960*
X298445Y110945*
X298196Y110960*
X297950Y111005*
X297712Y111079*
X297484Y111182*
X297271Y111311*
X297074Y111465*
X296898Y111641*
X296744Y111838*
X296615Y112051*
X296512Y112279*
X296438Y112517*
X296393Y112763*
X296378Y113012*
X300020Y103760D02*
X300035Y104009D01*
X300080Y104254*
X300154Y104493*
X300256Y104720*
X300386Y104934*
X300540Y105130*
X300716Y105307*
X300912Y105461*
X301126Y105590*
X301354Y105692*
X301592Y105767*
X301837Y105812*
X302087Y105827*
X302336Y105812*
X302581Y105767*
X302820Y105692*
X303047Y105590*
X303261Y105461*
X303457Y105307*
X303634Y105130*
X303788Y104934*
X303917Y104720*
X304019Y104493*
X304093Y104254*
X304138Y104009*
X304154Y103760*
X304138Y103511*
X304093Y103265*
X304019Y103027*
X303917Y102799*
X303788Y102586*
X303634Y102389*
X303457Y102213*
X303261Y102059*
X303047Y101930*
X302820Y101827*
X302581Y101753*
X302336Y101708*
X302087Y101693*
X301837Y101708*
X301592Y101753*
X301354Y101827*
X301126Y101930*
X300912Y102059*
X300716Y102213*
X300540Y102389*
X300386Y102586*
X300256Y102799*
X300154Y103027*
X300080Y103265*
X300035Y103511*
X300020Y103760*
X303878Y41752D02*
X303893Y42001D01*
X303938Y42247*
X304012Y42485*
X304115Y42713*
X304244Y42926*
X304398Y43123*
X304574Y43299*
X304771Y43453*
X304984Y43582*
X305212Y43685*
X305450Y43759*
X305696Y43804*
X305945Y43819*
X306194Y43804*
X306440Y43759*
X306678Y43685*
X306905Y43582*
X307119Y43453*
X307315Y43299*
X307492Y43123*
X307646Y42926*
X307775Y42713*
X307877Y42485*
X307952Y42247*
X307997Y42001*
X308012Y41752*
X307997Y41503*
X307952Y41257*
X307877Y41019*
X307775Y40791*
X307646Y40578*
X307492Y40381*
X307315Y40205*
X307119Y40051*
X306905Y39922*
X306678Y39819*
X306440Y39745*
X306194Y39700*
X305945Y39685*
X305696Y39700*
X305450Y39745*
X305212Y39819*
X304984Y39922*
X304771Y40051*
X304574Y40205*
X304398Y40381*
X304244Y40578*
X304115Y40791*
X304012Y41019*
X303938Y41257*
X303893Y41503*
X303878Y41752*
X303917Y34075D02*
X303932Y34324D01*
X303977Y34569*
X304052Y34808*
X304154Y35035*
X304283Y35249*
X304437Y35445*
X304614Y35622*
X304810Y35776*
X305024Y35905*
X305251Y36007*
X305490Y36082*
X305735Y36127*
X305984Y36142*
X306233Y36127*
X306479Y36082*
X306717Y36007*
X306945Y35905*
X307158Y35776*
X307355Y35622*
X307531Y35445*
X307685Y35249*
X307814Y35035*
X307917Y34808*
X307991Y34569*
X308036Y34324*
X308051Y34075*
X308036Y33826*
X307991Y33580*
X307917Y33342*
X307814Y33114*
X307685Y32901*
X307531Y32704*
X307355Y32528*
X307158Y32374*
X306945Y32245*
X306717Y32142*
X306479Y32068*
X306233Y32023*
X305984Y32008*
X305735Y32023*
X305490Y32068*
X305251Y32142*
X305024Y32245*
X304810Y32374*
X304614Y32528*
X304437Y32704*
X304283Y32901*
X304154Y33114*
X304052Y33342*
X303977Y33580*
X303932Y33826*
X303917Y34075*
X309783Y111437D02*
X309799Y111686D01*
X309844Y111932*
X309918Y112170*
X310020Y112398*
X310149Y112611*
X310303Y112808*
X310480Y112984*
X310676Y113138*
X310890Y113267*
X311117Y113370*
X311356Y113444*
X311601Y113489*
X311850Y113504*
X312100Y113489*
X312345Y113444*
X312583Y113370*
X312811Y113267*
X313025Y113138*
X313221Y112984*
X313397Y112808*
X313551Y112611*
X313681Y112398*
X313783Y112170*
X313857Y111932*
X313902Y111686*
X313917Y111437*
X313902Y111188*
X313857Y110942*
X313783Y110704*
X313681Y110476*
X313551Y110263*
X313397Y110066*
X313221Y109890*
X313025Y109736*
X312811Y109607*
X312583Y109504*
X312345Y109430*
X312100Y109385*
X311850Y109370*
X311601Y109385*
X311356Y109430*
X311117Y109504*
X310890Y109607*
X310676Y109736*
X310480Y109890*
X310303Y110066*
X310149Y110263*
X310020Y110476*
X309918Y110704*
X309844Y110942*
X309799Y111188*
X309783Y111437*
X312815Y82913D02*
X312830Y83163D01*
X312875Y83408*
X312949Y83646*
X313052Y83874*
X313181Y84088*
X313335Y84284*
X313511Y84460*
X313708Y84614*
X313921Y84744*
X314149Y84846*
X314387Y84920*
X314633Y84965*
X314882Y84980*
X315131Y84965*
X315377Y84920*
X315615Y84846*
X315842Y84744*
X316056Y84614*
X316252Y84460*
X316429Y84284*
X316583Y84088*
X316712Y83874*
X316814Y83646*
X316889Y83408*
X316934Y83163*
X316949Y82913*
X316935Y82673*
X316893Y82435*
X316823Y82204*
X316728Y81983*
X316607Y81774*
X316462Y81581*
X316296Y81406*
X316111Y81251*
X315909Y81120*
X315693Y81012*
X315466Y80931*
X315231Y80876*
X314991Y80849*
X314750Y80851*
X314882Y80641*
X314988Y80418*
X315067Y80183*
X315117Y79940*
X315137Y79694*
X315128Y79446*
X315090Y79202*
X315022Y78964*
X314927Y78735*
X314804Y78520*
X314658Y78321*
X314488Y78141*
X314298Y77982*
X314090Y77847*
X313868Y77738*
X314074Y77627*
X314266Y77494*
X314442Y77339*
X314599Y77166*
X314736Y76976*
X314850Y76771*
X314941Y76555*
X315006Y76331*
X315046Y76100*
X315059Y75866*
X315044Y75617*
X314999Y75371*
X314925Y75133*
X314822Y74906*
X314693Y74692*
X314539Y74496*
X314363Y74319*
X314166Y74165*
X313953Y74036*
X313725Y73934*
X313487Y73859*
X313241Y73814*
X312992Y73799*
X312743Y73814*
X312497Y73859*
X312259Y73934*
X312032Y74036*
X311818Y74165*
X311622Y74319*
X311445Y74496*
X311291Y74692*
X311162Y74906*
X311060Y75133*
X310985Y75371*
X310940Y75617*
X310925Y75866*
X310939Y76108*
X310982Y76347*
X311052Y76580*
X311149Y76802*
X311272Y77012*
X311418Y77206*
X311586Y77381*
X311773Y77535*
X311977Y77667*
X312195Y77773*
X311977Y77892*
X311774Y78036*
X311590Y78203*
X311428Y78391*
X311289Y78598*
X311176Y78819*
X311091Y79053*
X311034Y79295*
X311007Y79542*
X311009Y79790*
X311041Y80037*
X311103Y80278*
X311193Y80509*
X311310Y80729*
X311453Y80932*
X311619Y81117*
X311806Y81281*
X312012Y81421*
X312233Y81535*
X312465Y81622*
X312707Y81680*
X312954Y81709*
X313203Y81708*
X313087Y81889*
X312990Y82080*
X312914Y82280*
X312859Y82488*
X312826Y82699*
X312815Y82913*
X324902Y88604D02*
X324917Y88853D01*
X324962Y89098*
X325036Y89336*
X325138Y89564*
X325267Y89778*
X325421Y89974*
X325598Y90151*
X325794Y90305*
X326008Y90434*
X326236Y90536*
X326474Y90610*
X326719Y90655*
X326969Y90670*
X327218Y90655*
X327463Y90610*
X327701Y90536*
X327929Y90434*
X328143Y90305*
X328339Y90151*
X328516Y89974*
X328670Y89778*
X328799Y89564*
X328901Y89336*
X328975Y89098*
X329020Y88853*
X329035Y88604*
X329020Y88354*
X328975Y88109*
X328901Y87871*
X328799Y87643*
X328670Y87429*
X328516Y87233*
X328339Y87056*
X328143Y86902*
X327929Y86773*
X327701Y86671*
X327463Y86597*
X327218Y86552*
X326969Y86537*
X326719Y86552*
X326474Y86597*
X326236Y86671*
X326008Y86773*
X325794Y86902*
X325598Y87056*
X325421Y87233*
X325267Y87429*
X325138Y87643*
X325036Y87871*
X324962Y88109*
X324917Y88354*
X324902Y88604*
X206299Y29984D02*
X334449D01*
X206299Y30574D02*
X334449D01*
X206299Y31165D02*
X334449D01*
X206299Y31755D02*
X334449D01*
X206299Y32346D02*
X304851D01*
X307117D02*
X334449D01*
X206299Y32936D02*
X304259D01*
X307709D02*
X334449D01*
X206299Y33527D02*
X303991D01*
X307977D02*
X334449D01*
X206299Y34118D02*
X303918D01*
X308051D02*
X334449D01*
X206299Y34708D02*
X219344D01*
X220498D02*
X248977D01*
X251181D02*
X304017D01*
X307952D02*
X334449D01*
X206299Y35299D02*
X218395D01*
X221447D02*
X248367D01*
X251791D02*
X292601D01*
X295037D02*
X304319D01*
X307650D02*
X334449D01*
X206299Y35889D02*
X218017D01*
X221826D02*
X248091D01*
X252066D02*
X292056D01*
X295582D02*
X304994D01*
X306974D02*
X334449D01*
X206299Y36480D02*
X217865D01*
X221977D02*
X223649D01*
X225248D02*
X248012D01*
X252146D02*
X291811D01*
X295827D02*
X334449D01*
X206299Y37070D02*
X217889D01*
X221953D02*
X222855D01*
X226043D02*
X248105D01*
X253580D02*
X291754D01*
X295883D02*
X334449D01*
X206299Y37661D02*
X218095D01*
X221748D02*
X222513D01*
X226384D02*
X248399D01*
X254125D02*
X291871D01*
X295766D02*
X334449D01*
X206299Y38251D02*
X218564D01*
X221279D02*
X222386D01*
X226511D02*
X249053D01*
X254371D02*
X292198D01*
X295439D02*
X334449D01*
X206299Y38842D02*
X222433D01*
X226465D02*
X242656D01*
X244588D02*
X250298D01*
X254427D02*
X292946D01*
X294692D02*
X334449D01*
X206299Y39433D02*
X222666D01*
X226231D02*
X241966D01*
X245278D02*
X250415D01*
X254310D02*
X334449D01*
X206299Y40023D02*
X223187D01*
X225710D02*
X241659D01*
X245585D02*
X250742D01*
X253983D02*
X304812D01*
X307078D02*
X334449D01*
X206299Y40614D02*
X241556D01*
X245688D02*
X251489D01*
X253235D02*
X304220D01*
X307670D02*
X334449D01*
X206299Y41204D02*
X241626D01*
X245619D02*
X303952D01*
X307938D02*
X334449D01*
X206299Y41795D02*
X241888D01*
X245356D02*
X303878D01*
X308011D02*
X334449D01*
X206299Y42385D02*
X242470D01*
X244774D02*
X303977D01*
X307912D02*
X334449D01*
X206299Y42976D02*
X304279D01*
X307611D02*
X334449D01*
X206299Y43566D02*
X304955D01*
X306935D02*
X334449D01*
X206299Y44157D02*
X334449D01*
X206299Y44747D02*
X334449D01*
X206299Y45338D02*
X334449D01*
X206299Y45929D02*
X334449D01*
X206299Y46519D02*
X334449D01*
X206299Y47110D02*
X334449D01*
X206299Y47700D02*
X334449D01*
X206299Y48291D02*
X334449D01*
X206299Y48881D02*
X334449D01*
X206299Y49472D02*
X334449D01*
X206299Y50062D02*
X334449D01*
X206299Y50653D02*
X334449D01*
X206299Y51244D02*
X334449D01*
X206299Y51834D02*
X334449D01*
X206299Y52425D02*
X334449D01*
X206299Y53015D02*
X334449D01*
X206299Y53606D02*
X334449D01*
X206299Y54196D02*
X334449D01*
X206299Y54787D02*
X334449D01*
X206299Y55377D02*
X334449D01*
X206299Y55968D02*
X258081D01*
X259478D02*
X334449D01*
X206299Y56559D02*
X257219D01*
X260340D02*
X334449D01*
X206299Y57149D02*
X256859D01*
X260700D02*
X267727D01*
X269123D02*
X334449D01*
X206299Y57740D02*
X256720D01*
X260839D02*
X266864D01*
X269986D02*
X334449D01*
X206299Y58330D02*
X256755D01*
X260804D02*
X266505D01*
X270346D02*
X334449D01*
X206299Y58921D02*
X243440D01*
X244276D02*
X256975D01*
X260584D02*
X266366D01*
X270485D02*
X334449D01*
X206299Y59511D02*
X242369D01*
X245347D02*
X257468D01*
X260091D02*
X266401D01*
X270450D02*
X334449D01*
X206299Y60102D02*
X241971D01*
X245745D02*
X266620D01*
X270230D02*
X334449D01*
X206299Y60692D02*
X241807D01*
X245910D02*
X267114D01*
X269736D02*
X334449D01*
X206299Y61283D02*
X241819D01*
X245897D02*
X334449D01*
X206299Y61873D02*
X242012D01*
X245705D02*
X334449D01*
X206299Y62464D02*
X242457D01*
X245260D02*
X334449D01*
X206299Y63055D02*
X334449D01*
X206299Y63645D02*
X334449D01*
X206299Y64236D02*
X278544D01*
X280748D02*
X283504D01*
X285708D02*
X293522D01*
X295297D02*
X334449D01*
X206299Y64826D02*
X277934D01*
X281358D02*
X282894D01*
X286318D02*
X292784D01*
X296035D02*
X334449D01*
X206299Y65417D02*
X277658D01*
X281633D02*
X282619D01*
X286594D02*
X292460D01*
X296359D02*
X334449D01*
X206299Y66007D02*
X277579D01*
X281712D02*
X282539D01*
X286673D02*
X292345D01*
X296474D02*
X334449D01*
X206299Y66598D02*
X236139D01*
X237641D02*
X277672D01*
X281619D02*
X282633D01*
X286580D02*
X292403D01*
X296416D02*
X334449D01*
X206299Y67188D02*
X223583D01*
X225787D02*
X235312D01*
X238468D02*
X277966D01*
X281326D02*
X282926D01*
X286286D02*
X292651D01*
X296168D02*
X334449D01*
X206299Y67779D02*
X222973D01*
X226397D02*
X234962D01*
X238818D02*
X278620D01*
X280671D02*
X283581D01*
X285632D02*
X293201D01*
X295618D02*
X334449D01*
X206299Y68370D02*
X222698D01*
X226673D02*
X234829D01*
X238951D02*
X334449D01*
X206299Y68960D02*
X222618D01*
X226752D02*
X234869D01*
X238910D02*
X334449D01*
X206299Y69551D02*
X222711D01*
X226659D02*
X235096D01*
X238684D02*
X269821D01*
X271596D02*
X276898D01*
X279716D02*
X286111D01*
X288929D02*
X334449D01*
X206299Y70141D02*
X223005D01*
X226365D02*
X235603D01*
X238176D02*
X269083D01*
X272335D02*
X276457D01*
X280157D02*
X285670D01*
X289370D02*
X334449D01*
X206299Y70732D02*
X223660D01*
X225710D02*
X268759D01*
X272659D02*
X276267D01*
X280347D02*
X285479D01*
X289560D02*
X296275D01*
X297111D02*
X334449D01*
X206299Y71322D02*
X268644D01*
X272773D02*
X276256D01*
X280358D02*
X285469D01*
X289570D02*
X295204D01*
X298182D02*
X334430D01*
X206299Y71913D02*
X268702D01*
X272715D02*
X276423D01*
X280191D02*
X285636D01*
X289404D02*
X294806D01*
X298580D02*
X334154D01*
X206299Y72503D02*
X268950D01*
X272467D02*
X276825D01*
X279789D02*
X286037D01*
X289002D02*
X294641D01*
X298744D02*
X334075D01*
X206299Y73094D02*
X269500D01*
X271917D02*
X277923D01*
X278691D02*
X287136D01*
X287904D02*
X289105D01*
X290501D02*
X294654D01*
X298732D02*
X334168D01*
X206299Y73684D02*
X288242D01*
X291364D02*
X294846D01*
X298540D02*
X334449D01*
X206299Y74275D02*
X287883D01*
X291724D02*
X295291D01*
X298094D02*
X311673D01*
X314311D02*
X334449D01*
X206299Y74866D02*
X287744D01*
X291863D02*
X311184D01*
X314801D02*
X334449D01*
X206299Y75456D02*
X287779D01*
X291828D02*
X310966D01*
X315018D02*
X334449D01*
X206299Y76047D02*
X287998D01*
X291608D02*
X310933D01*
X315051D02*
X334449D01*
X206299Y76637D02*
X288492D01*
X291114D02*
X311074D01*
X314910D02*
X334449D01*
X206299Y77228D02*
X311437D01*
X314547D02*
X334449D01*
X206299Y77818D02*
X312105D01*
X314037D02*
X334449D01*
X206299Y78409D02*
X290581D01*
X293356D02*
X311415D01*
X314727D02*
X334449D01*
X206299Y78999D02*
X290128D01*
X293809D02*
X311108D01*
X315034D02*
X334449D01*
X206299Y79590D02*
X289932D01*
X294005D02*
X311005D01*
X315137D02*
X334449D01*
X206299Y80181D02*
X289916D01*
X294021D02*
X311074D01*
X315067D02*
X334449D01*
X206299Y80771D02*
X290076D01*
X293861D02*
X311337D01*
X314804D02*
X334449D01*
X206299Y81362D02*
X290467D01*
X293728D02*
X311919D01*
X316247D02*
X334449D01*
X206299Y81952D02*
X290532D01*
X294192D02*
X313052D01*
X316712D02*
X334449D01*
X206299Y82543D02*
X290329D01*
X294396D02*
X312848D01*
X316915D02*
X334449D01*
X206299Y83133D02*
X290307D01*
X294417D02*
X297928D01*
X298765D02*
X312827D01*
X316937D02*
X334449D01*
X206299Y83724D02*
X290461D01*
X294264D02*
X296858D01*
X299835D02*
X312980D01*
X316783D02*
X334449D01*
X206299Y84314D02*
X290843D01*
X293882D02*
X296459D01*
X300234D02*
X313362D01*
X316402D02*
X334449D01*
X206299Y84905D02*
X291809D01*
X292915D02*
X296295D01*
X300398D02*
X314329D01*
X315435D02*
X334449D01*
X206299Y85496D02*
X296307D01*
X300386D02*
X334449D01*
X206299Y86086D02*
X290678D01*
X292944D02*
X296500D01*
X300193D02*
X334449D01*
X206299Y86677D02*
X269816D01*
X272546D02*
X290086D01*
X293536D02*
X296945D01*
X299748D02*
X326221D01*
X327716D02*
X334449D01*
X206299Y87267D02*
X269351D01*
X273011D02*
X289818D01*
X293804D02*
X325392D01*
X328545D02*
X334449D01*
X206299Y87858D02*
X269148D01*
X273215D02*
X289745D01*
X293878D02*
X325041D01*
X328896D02*
X334449D01*
X206535Y88448D02*
X269126D01*
X273236D02*
X289844D01*
X293779D02*
X324907D01*
X329030D02*
X334449D01*
X207867Y89039D02*
X269280D01*
X273083D02*
X290145D01*
X293477D02*
X293876D01*
X295651D02*
X324948D01*
X328989D02*
X334449D01*
X208286Y89629D02*
X269661D01*
X272701D02*
X290821D01*
X292801D02*
X293138D01*
X296390D02*
X325174D01*
X328763D02*
X334449D01*
X208464Y90220D02*
X270628D01*
X271734D02*
X292814D01*
X296714D02*
X325680D01*
X328257D02*
X334449D01*
X208463Y90810D02*
X284585D01*
X286517D02*
X288522D01*
X290454D02*
X292699D01*
X296829D02*
X334449D01*
X208283Y91401D02*
X274546D01*
X276871D02*
X283895D01*
X287207D02*
X287832D01*
X291144D02*
X292757D01*
X296770D02*
X334449D01*
X207860Y91992D02*
X273971D01*
X277447D02*
X283588D01*
X287514D02*
X287525D01*
X291451D02*
X293005D01*
X296522D02*
X334449D01*
X206299Y92582D02*
X273710D01*
X277707D02*
X283485D01*
X291554D02*
X293555D01*
X295973D02*
X334449D01*
X206299Y93173D02*
X273643D01*
X277775D02*
X283555D01*
X291485D02*
X334449D01*
X206299Y93763D02*
X273748D01*
X277670D02*
X283818D01*
X287285D02*
X287755D01*
X291222D02*
X334449D01*
X206299Y94354D02*
X274058D01*
X277360D02*
X284399D01*
X286703D02*
X288336D01*
X290640D02*
X334449D01*
X206299Y94944D02*
X274756D01*
X276662D02*
X334449D01*
X206299Y95535D02*
X334449D01*
X206299Y96125D02*
X334449D01*
X206299Y96716D02*
X334449D01*
X206299Y97307D02*
X334449D01*
X206299Y97897D02*
X334449D01*
X206299Y98488D02*
X334449D01*
X206299Y99078D02*
X334449D01*
X206299Y99669D02*
X242144D01*
X243919D02*
X334449D01*
X206299Y100259D02*
X241406D01*
X244657D02*
X334449D01*
X206299Y100850D02*
X241082D01*
X244981D02*
X334449D01*
X206299Y101440D02*
X240967D01*
X245096D02*
X334449D01*
X206299Y102031D02*
X241025D01*
X245038D02*
X267353D01*
X270128D02*
X300954D01*
X303219D02*
X334449D01*
X206299Y102621D02*
X241273D01*
X244790D02*
X266900D01*
X270580D02*
X300361D01*
X303812D02*
X334449D01*
X206299Y103212D02*
X241823D01*
X244240D02*
X266703D01*
X270777D02*
X300094D01*
X304080D02*
X334449D01*
X206299Y103803D02*
X266687D01*
X270793D02*
X300020D01*
X304153D02*
X334449D01*
X206299Y104393D02*
X233219D01*
X235994D02*
X249833D01*
X252608D02*
X266847D01*
X270633D02*
X300119D01*
X304054D02*
X334449D01*
X206299Y104984D02*
X232766D01*
X236446D02*
X249380D01*
X253061D02*
X267239D01*
X270241D02*
X300421D01*
X303752D02*
X334449D01*
X206299Y105574D02*
X232569D01*
X236643D02*
X249184D01*
X253257D02*
X268264D01*
X269217D02*
X301097D01*
X303077D02*
X334449D01*
X206299Y106165D02*
X232553D01*
X236659D02*
X249167D01*
X253273D02*
X334449D01*
X206299Y106755D02*
X232713D01*
X236499D02*
X249328D01*
X253113D02*
X334449D01*
X206299Y107346D02*
X233105D01*
X236108D02*
X249719D01*
X252722D02*
X334449D01*
X206299Y107936D02*
X234130D01*
X235083D02*
X250744D01*
X251697D02*
X334449D01*
X206299Y108527D02*
X241994D01*
X244068D02*
X334449D01*
X206299Y109118D02*
X241347D01*
X244716D02*
X334449D01*
X206299Y109708D02*
X241056D01*
X245007D02*
X310718D01*
X312983D02*
X334449D01*
X206299Y110299D02*
X240965D01*
X245098D02*
X271269D01*
X273534D02*
X310125D01*
X313576D02*
X334449D01*
X206299Y110889D02*
X241046D01*
X245017D02*
X270676D01*
X274127D02*
X309857D01*
X313843D02*
X334449D01*
X206299Y111480D02*
X241324D01*
X244739D02*
X270409D01*
X274395D02*
X297058D01*
X299832D02*
X309784D01*
X313917D02*
X334449D01*
X206299Y112070D02*
X241940D01*
X244123D02*
X270335D01*
X274468D02*
X296605D01*
X300285D02*
X309883D01*
X313818D02*
X334449D01*
X206299Y112661D02*
X270434D01*
X274369D02*
X296408D01*
X300482D02*
X310185D01*
X313516D02*
X334449D01*
X206299Y113251D02*
X270736D01*
X274067D02*
X296392D01*
X300498D02*
X310860D01*
X312840D02*
X334449D01*
X206299Y113842D02*
X271412D01*
X273392D02*
X296552D01*
X300338D02*
X334449D01*
X206299Y114433D02*
X296944D01*
X299946D02*
X334449D01*
X206299Y115023D02*
X297969D01*
X298921D02*
X334449D01*
X206299Y115614D02*
X334449D01*
X206299Y116204D02*
X334449D01*
X206299Y116795D02*
X334449D01*
X206299Y117385D02*
X334449D01*
X206299Y117976D02*
X334449D01*
X206299Y118566D02*
X334449D01*
X206299Y119157D02*
X331514D01*
X333446D02*
X334449D01*
X206299Y119747D02*
X330824D01*
X334136D02*
X334449D01*
X206299Y120338D02*
X330517D01*
X334444D02*
X334449D01*
X206299Y120929D02*
X330414D01*
X206299Y121519D02*
X330484D01*
X206299Y122110D02*
X330747D01*
X334214D02*
X334449D01*
X206299Y122700D02*
X331328D01*
X333633D02*
X334449D01*
X206299Y123291D02*
X334449D01*
D02*
D11*
X4921Y28189D03*
X4961Y36693D03*
X5039Y12441D03*
Y16378D03*
Y20315D03*
Y32126D03*
Y40000D03*
Y43937D03*
Y47874D03*
Y55748D03*
Y59685D03*
Y70512D03*
Y75433D03*
Y79370D03*
Y83976D03*
X5236Y63622D03*
Y118740D03*
Y122677D03*
Y126614D03*
Y130551D03*
Y134488D03*
X5276Y110866D03*
X31811Y134488D03*
X31850Y126614D03*
Y130551D03*
X31890Y122677D03*
X31929Y79370D03*
Y87244D03*
X32087Y43937D03*
X32205Y48937D03*
Y72795D03*
Y106929D03*
Y110866D03*
Y118740D03*
X39724Y81024D03*
X41142Y72795D03*
X45276Y59685D03*
X47441Y75433D03*
X49134Y83976D03*
X53898Y57441D03*
X58543Y73740D03*
Y91654D03*
Y94213D03*
X58583Y96772D03*
X58622Y99331D03*
X62795Y42283D03*
X63622Y114803D03*
X73937Y76299D03*
Y99331D03*
X78661Y57441D03*
X91614Y40000D03*
X94567Y38976D03*
X98110Y40669D03*
X101496Y88976D03*
X103780Y96693D03*
X116181Y84055D03*
X127559Y71220D03*
X131417Y56102D03*
X170197Y16378D03*
X173228Y71220D03*
X206417Y90512D03*
X209528Y137402D03*
X210945Y105925D03*
X219409Y101614D03*
Y110276D03*
X219921Y36693D03*
X223976Y137441D03*
X224449Y38386D03*
X224685Y68937D03*
X227677Y105925D03*
X234606D03*
X236890Y68524D03*
X243031Y101535D03*
Y110315D03*
X243622Y40669D03*
X243858Y60945D03*
X250079Y36457D03*
X251220Y105925D03*
X251850Y68524D03*
X252362Y38740D03*
X258780Y57913D03*
X268425Y59094D03*
X268740Y103563D03*
X270709Y71417D03*
X271181Y88228D03*
X272402Y112028D03*
X273740Y66260D03*
X275709Y93110D03*
X278307Y71063D03*
X279646Y65984D03*
X281614Y92756D03*
X283583Y99528D03*
X284606Y24252D03*
Y65984D03*
X285551Y92638D03*
X287520Y71063D03*
X289488Y92638D03*
X289803Y20315D03*
Y75039D03*
X291811Y87815D03*
X291969Y79941D03*
X292362Y82913D03*
X293819Y22441D03*
Y36969D03*
X294409Y66102D03*
X294764Y90906D03*
X296693Y72756D03*
X297598Y88209D03*
X298346Y85157D03*
X298445Y113012D03*
X302087Y103760D03*
X305945Y26201D03*
Y41752D03*
X305984Y34075D03*
X306181Y18524D03*
X311811Y103563D03*
X311850Y111437D03*
X312992Y75866D03*
X313071Y79646D03*
X314882Y82913D03*
X318071Y46299D03*
X322283Y26299D03*
X322323Y33189D03*
X326969Y88604D03*
X327717Y119311D03*
X332480Y120984D03*
X336142Y72480D03*
X336417Y9606D03*
X340276Y90906D03*
X379331Y59685D03*
X405984Y71496D03*
D02*
D17*
X53858Y63799D03*
X78661D03*
D02*
D86*
X36869Y161716D02*
X37457Y161422D01*
X38045*
X38634Y161716*
X38928Y162304*
X38634Y162892*
X38045Y163186*
X37457*
X38045D02*
X38634Y163481D01*
X38928Y164069*
X38634Y164657*
X38045Y164951*
X37457*
X36869Y164657*
D02*
D95*
X278789Y167133D02*
Y165791D01*
Y174915D02*
Y176256D01*
D02*
D115*
X40075Y160039D02*
Y166039D01*
X35575*
Y160039*
X40075*
D02*
D126*
X18622Y5748D03*
Y141181D03*
X392638Y5748D03*
Y141181D03*
D02*
D205*
X192913Y161024D03*
X324094D03*
D02*
D212*
X220187D03*
X224695Y151024D03*
Y171024D03*
X229203Y161024D03*
X233711Y151024D03*
Y171024D03*
X238219Y161024D03*
X242726Y151024D03*
Y171024D03*
X247234Y161024D03*
X251742Y151024D03*
Y171024D03*
X256250Y161024D03*
X260758Y151024D03*
Y171024D03*
X265266Y161024D03*
X269774Y151024D03*
Y171024D03*
X274281Y161024D03*
X278789Y151024D03*
Y171024D03*
X283297Y161024D03*
X287805Y151024D03*
Y171024D03*
X292313Y161024D03*
X296821Y151024D03*
X0Y0D02*
M02*
