G04 GENERATED BY PULSONIX 10.0 GERBER.DLL 7250*
G04 #@! TF.GenerationSoftware,Pulsonix,Pulsonix,10.0.7250*
G04 #@! TF.CreationDate,2019-09-23T08:44:44--1:00*
G04 #@! TF.Part,Single*
%FSLAX25Y25*%
%LPD*%
%MOIN*%
G04 #@! TF.FileFunction,Legend,Bot*
G04 #@! TF.FilePolarity,Positive*
%ADD86C,0.00500*%
G04 #@! TA.AperFunction,NonMaterial*
%ADD89C,0.00500*%
%ADD92C,0.00787*%
G04 #@! TD.AperFunction*
%ADD93C,0.00492*%
G04 #@! TA.AperFunction,Profile*
%ADD117C,0.01200*%
G04 #@! TA.AperFunction,NonMaterial*
%ADD119C,0.00001*%
X0Y0D02*
D02*
D86*
X32101Y936D02*
X31806Y1230D01*
X31512Y1819*
X31806Y2407*
X32101Y2701*
X35042*
Y3289*
Y2701D02*
X35042Y1524D01*
X31512Y4924D02*
X31512Y6101D01*
Y5513D02*
X35042Y5513D01*
X34453Y4924*
X47455Y58483D02*
X47161Y58189D01*
X46867Y57601*
Y56719*
X47161Y56130*
X47455Y55836*
X48043Y55542*
X49220*
X49808Y55836*
X50102Y56130*
X50396Y56719*
Y57601*
X50102Y58189*
X49808Y58483*
X47161Y59886D02*
X46867Y60474D01*
Y61063*
X47161Y61651*
X47749Y61945*
X48337Y61651*
X48631Y61063*
Y60474*
Y61063D02*
X48925Y61651D01*
X49514Y61945*
X50102Y61651*
X50396Y61063*
Y60474*
X50102Y59886*
X69094Y67994D02*
X69094Y65347D01*
X68800Y64759*
X68212Y64465*
X67036*
X66447Y64759*
X66153Y65347*
Y67994*
X62692Y64465D02*
X65044Y64465D01*
X62986Y66524*
X62692Y67112*
X62986Y67700*
X63574Y67994*
X64456*
X65044Y67700*
X82691Y58680D02*
X82397Y58386D01*
X82103Y57798*
Y56915*
X82397Y56327*
X82691Y56033*
X83279Y55739*
X84456*
X85044Y56033*
X85338Y56327*
X85632Y56915*
Y57798*
X85338Y58386*
X85044Y58680*
X82103Y61260D02*
X85632Y61260D01*
X83279Y59789*
Y62142*
X108119Y71650D02*
X108119Y75179D01*
X106060*
X105472Y74885*
X105178Y74297*
X105472Y73709*
X106060Y73415*
X108119*
X106060D02*
X105178Y71650D01*
X103481D02*
X102305Y71650D01*
X102893D02*
X102893Y75179D01*
X103481Y74591*
X108316Y79130D02*
X108316Y82660D01*
X106257*
X105669Y82366*
X105375Y81777*
X105669Y81189*
X106257Y80895*
X108316*
X106257D02*
X105375Y79130D01*
X101913D02*
X104266Y79130D01*
X102207Y81189*
X101913Y81777*
X102207Y82366*
X102796Y82660*
X103678*
X104266Y82366*
X108513Y86808D02*
X108513Y90337D01*
X106454*
X105866Y90043*
X105572Y89455*
X105866Y88866*
X106454Y88572*
X108513*
X106454D02*
X105572Y86808D01*
X104169Y87102D02*
X103581Y86808D01*
X102992*
X102404Y87102*
X102110Y87690*
X102404Y88278*
X102992Y88572*
X103581*
X102992D02*
X102404Y88866D01*
X102110Y89455*
X102404Y90043*
X102992Y90337*
X103581*
X104169Y90043*
X107677Y95371D02*
X107677Y98900D01*
X105618*
X105030Y98606*
X104736Y98018*
X105030Y97429*
X105618Y97135*
X107677*
X105618D02*
X104736Y95371D01*
X103627D02*
X101274Y98900D01*
X103627*
X209891Y139353D02*
X209891Y135823D01*
X206950*
X203488D02*
X205841Y135823D01*
X203782Y137882*
X203488Y138470*
X203782Y139059*
X204370Y139353*
X205253*
X205841Y139059*
X213516Y114778D02*
X213810Y114484D01*
X214398Y114190*
X215280*
X215869Y114484*
X216163Y114778*
X216457Y115366*
Y116543*
X216163Y117131*
X215869Y117425*
X215280Y117719*
X214398*
X213810Y117425*
X213516Y117131*
X211819Y114190D02*
X210642Y114190D01*
X211230D02*
X211230Y117719D01*
X211819Y117131*
X209007Y114484D02*
X208419Y114190D01*
X207536*
X206948Y114484*
X206654Y115072*
Y115366*
X206948Y115954*
X207536Y116249*
X209007*
Y117719*
X206654*
X245976Y73459D02*
X246270Y73165D01*
X246859Y72871*
X247741*
X248329Y73165*
X248623Y73459*
X248917Y74047*
Y75223*
X248623Y75812*
X248329Y76106*
X247741Y76400*
X246859*
X246270Y76106*
X245976Y75812*
X244279Y72871D02*
X243103Y72871D01*
X243691D02*
X243691Y76400D01*
X244279Y75812*
X241173Y73165D02*
X240585Y72871D01*
X239997*
X239409Y73165*
X239114Y73753*
Y75518*
X239409Y76106*
X239997Y76400*
X240585*
X241173Y76106*
X241467Y75518*
Y73753*
X241173Y73165*
X239409Y76106*
X263715Y59831D02*
X263421Y59537D01*
X263126Y58949*
Y58066*
X263421Y57478*
X263715Y57184*
X264303Y56890*
X265479*
X266068Y57184*
X266362Y57478*
X266656Y58066*
Y58949*
X266362Y59537*
X266068Y59831*
X263126Y61528D02*
X263126Y62704D01*
Y62116D02*
X266656Y62116D01*
X266068Y61528*
X264009Y64340D02*
X264597Y64634D01*
X264891Y65222*
Y65810*
X264597Y66399*
X264009Y66693*
X263421Y66399*
X263126Y65810*
Y65222*
X263421Y64634*
X264009Y64340*
X264891*
X265774Y64634*
X266362Y65222*
X266656Y65810*
X270442Y96079D02*
X270442Y99609D01*
X268383*
X267795Y99314*
X267501Y98726*
X267795Y98138*
X268383Y97844*
X270442*
X268383D02*
X267501Y96079D01*
X266392Y96962D02*
X266098Y97550D01*
X265510Y97844*
X264922*
X264333Y97550*
X264039Y96962*
X264333Y96373*
X264922Y96079*
X265510*
X266098Y96373*
X266392Y96962*
Y97844*
X266098Y98726*
X265510Y99314*
X264922Y99609*
X289766Y26802D02*
X286237Y26802D01*
Y29743*
Y32323D02*
X289766Y32323D01*
X287413Y30852*
Y33205*
X295965Y117359D02*
X295965Y120888D01*
X293906*
X293318Y120594*
X293024Y120006*
X293318Y119418*
X293906Y119123*
X295965*
X293906D02*
X293024Y117359D01*
X291915Y117653D02*
X291326Y117359D01*
X290444*
X289856Y117653*
X289562Y118241*
Y118535*
X289856Y119123*
X290444Y119418*
X291915*
Y120888*
X289562*
X300769Y24817D02*
X301063Y24523D01*
X301651Y24229*
X302533*
X303122Y24523*
X303416Y24817*
X303710Y25405*
Y26582*
X303416Y27170*
X303122Y27464*
X302533Y27758*
X301651*
X301063Y27464*
X300769Y27170*
X299072Y24229D02*
X297895Y24229D01*
X298483D02*
X298483Y27758D01*
X299072Y27170*
X303328Y33085D02*
X303622Y32791D01*
X304210Y32497*
X305092*
X305681Y32791*
X305975Y33085*
X306269Y33673*
Y34849*
X305975Y35438*
X305681Y35732*
X305092Y36026*
X304210*
X303622Y35732*
X303328Y35438*
X299866Y32497D02*
X302219Y32497D01*
X300160Y34555*
X299866Y35144*
X300160Y35732*
X300748Y36026*
X301631*
X302219Y35732*
X308268Y105804D02*
X308268Y109333D01*
X306209*
X305621Y109039*
X305327Y108451*
X305621Y107862*
X306209Y107568*
X308268*
X306209D02*
X305327Y105804D01*
X302747D02*
X302747Y109333D01*
X304218Y106980*
X301865*
X313308Y11530D02*
X313602Y11236D01*
X314190Y10941*
X315073*
X315661Y11236*
X315955Y11530*
X316249Y12118*
Y13294*
X315955Y13883*
X315661Y14177*
X315073Y14471*
X314190*
X313602Y14177*
X313308Y13883*
X312199Y11824D02*
X311905Y12412D01*
X311317Y12706*
X310729*
X310140Y12412*
X309846Y11824*
X310140Y11236*
X310729Y10941*
X311317*
X311905Y11236*
X312199Y11824*
Y12706*
X311905Y13588*
X311317Y14177*
X310729Y14471*
X314942Y46667D02*
X315236Y46373D01*
X315824Y46079*
X316707*
X317295Y46373*
X317589Y46667*
X317883Y47256*
Y48432*
X317589Y49020*
X317295Y49314*
X316707Y49609*
X315824*
X315236Y49314*
X314942Y49020*
X313833Y46373D02*
X313245Y46079D01*
X312362*
X311774Y46373*
X311480Y46962*
Y47256*
X311774Y47844*
X312362Y48138*
X313833*
Y49609*
X311480*
X309859Y69912D02*
X313388Y69912D01*
Y71971*
X313094Y72559*
X312506Y72853*
X311918Y72559*
X311623Y71971*
Y69912*
Y71971D02*
X309859Y72853D01*
Y74845D02*
X310153Y75433D01*
X310741Y76021*
X311623Y76315*
X312506*
X313094Y76021*
X313388Y75433*
Y74845*
X313094Y74256*
X312506Y73962*
X311918Y74256*
X311623Y74845*
Y75433*
X311918Y76021*
X312506Y76315*
X333499Y110053D02*
X333794Y109759D01*
X334382Y109465*
X335264*
X335852Y109759*
X336146Y110053*
X336441Y110641*
Y111818*
X336146Y112406*
X335852Y112700*
X335264Y112994*
X334382*
X333794Y112700*
X333499Y112406*
X331802Y109465D02*
X330626Y109465D01*
X331214D02*
X331214Y112994D01*
X331802Y112406*
X326638Y109465D02*
X328991Y109465D01*
X326932Y111524*
X326638Y112112*
X326932Y112700*
X327520Y112994*
X328402*
X328991Y112700*
X330829Y129764D02*
X327300Y129764D01*
Y132705*
X327594Y134108D02*
X327300Y134696D01*
Y135284*
X327594Y135872*
X328182Y136167*
X328770Y135872*
X329064Y135284*
Y134696*
Y135284D02*
X329359Y135872D01*
X329947Y136167*
X330535Y135872*
X330829Y135284*
Y134696*
X330535Y134108*
X335750Y24842D02*
X332221Y24842D01*
Y27784*
Y29481D02*
X332221Y30657D01*
Y30069D02*
X335750Y30069D01*
X335162Y29481*
X332480Y93979D02*
X332480Y91332D01*
X332186Y90743*
X331598Y90449*
X330421*
X329833Y90743*
X329539Y91332*
Y93979*
X328136Y90743D02*
X327548Y90449D01*
X326960*
X326371Y90743*
X326077Y91332*
X326371Y91920*
X326960Y92214*
X327548*
X326960D02*
X326371Y92508D01*
X326077Y93096*
X326371Y93685*
X326960Y93979*
X327548*
X328136Y93685*
X332677Y101867D02*
X332677Y105396D01*
X330618*
X330030Y105102*
X329736Y104514*
X330030Y103925*
X330618Y103631*
X332677*
X330618D02*
X329736Y101867D01*
X327745Y103631D02*
X327157Y103631D01*
X326568Y103925*
X326274Y104514*
X326568Y105102*
X327157Y105396*
X327745*
X328333Y105102*
X328627Y104514*
X328333Y103925*
X327745Y103631*
X328333Y103337*
X328627Y102749*
X328333Y102161*
X327745Y101867*
X327157*
X326568Y102161*
X326274Y102749*
X326568Y103337*
X327157Y103631*
X337216Y117809D02*
X337510Y117515D01*
X338099Y117221*
X338981*
X339569Y117515*
X339863Y117809*
X340157Y118397*
Y119574*
X339863Y120162*
X339569Y120456*
X338981Y120750*
X338099*
X337510Y120456*
X337216Y120162*
X335519Y117221D02*
X334343Y117221D01*
X334931D02*
X334931Y120750D01*
X335519Y120162*
X332413Y117515D02*
X331825Y117221D01*
X331237*
X330649Y117515*
X330355Y118103*
X330649Y118692*
X331237Y118986*
X331825*
X331237D02*
X330649Y119280D01*
X330355Y119868*
X330649Y120456*
X331237Y120750*
X331825*
X332413Y120456*
X406116Y936D02*
X405822Y1230D01*
X405528Y1819*
X405822Y2407*
X406116Y2701*
X409057*
Y3289*
Y2701D02*
X409057Y1524D01*
X405528Y6689D02*
X405528Y4336D01*
X407587Y6395*
X408175Y6689*
X408763Y6395*
X409057Y5807*
Y4924*
X408763Y4336*
D02*
D89*
X56595Y67780D02*
Y59818D01*
X51121*
Y67780*
X56595*
X59945Y70685D02*
X59826Y70699D01*
X59714Y70742*
X59616Y70810*
X59537Y70899*
X59481Y71005*
X59452Y71121*
Y71241*
X59481Y71357*
X59537Y71463*
X59616Y71552*
X59714Y71620*
X59826Y71662*
X59945Y71677*
X60064Y71662*
X60175Y71620*
X60274Y71552*
X60353Y71463*
X60409Y71357*
X60437Y71241*
Y71121*
X60409Y71005*
X60353Y70899*
X60274Y70810*
X60175Y70742*
X60064Y70699*
X59945Y70685*
X59449Y71185D02*
X60441D01*
X73071Y70473D02*
Y100039D01*
X59449*
Y70473*
X64784*
Y71949*
X67736*
Y70473*
X73071*
X81398Y67780D02*
Y59818D01*
X75924*
Y67780*
X81398*
X88086Y76973D02*
X100102D01*
Y70665*
X88086*
Y76973*
Y84453D02*
X100102D01*
Y78145*
X88086*
Y84453*
Y92130D02*
X100102D01*
Y85822*
X88086*
Y92130*
X100024Y93519D02*
X88008D01*
Y99827*
X100024*
Y93519*
X210921Y140556D02*
X222937D01*
Y134248*
X210921*
Y140556*
X218622Y107500D02*
X217244D01*
Y104350*
X218622*
Y111043D02*
X219672D01*
X219436Y110450*
X219229Y109845*
X219051Y109231*
X218905Y108610*
X218789Y107981*
X218704Y107348*
X218651Y106711*
X218629Y106073*
X218638Y105434*
X218679Y104796*
X218752Y104161*
X218855Y103531*
X218990Y102906*
X219155Y102289*
X219350Y101681*
X219575Y101083*
X219829Y100496*
X220112Y99923*
X220423Y99365*
X220760Y98823*
X221124Y98298*
X221514Y97791*
X221928Y97305*
X222365Y96839*
X222825Y96395*
X223307Y95975*
X223808Y95579*
X224328Y95208*
X224866Y94863*
X225420Y94545*
X225989Y94255*
X226572Y93993*
X227167Y93760*
X227773Y93557*
X228388Y93384*
X229011Y93241*
X229640Y93129*
X230274Y93049*
X230911Y93000*
X231549Y92982*
X232188Y92995*
X232826Y93040*
X233460Y93117*
X234090Y93224*
X234713Y93363*
X235330Y93532*
X235937Y93731*
X236533Y93960*
X237118Y94218*
X237689Y94505*
X238245Y94819*
X238785Y95160*
X239308Y95528*
X239812Y95920*
X240296Y96338*
X240759Y96778*
X241199Y97241*
X241616Y97725*
X242009Y98229*
X242377Y98751*
X242718Y99291*
X243033Y99848*
X243319Y100419*
X243577Y101003*
X243806Y101600*
X244006Y102207*
X244175Y102823*
X244313Y103447*
X244421Y104076*
X244497Y104711*
X244543Y105348*
X244556Y105987*
X244539Y106625*
X244489Y107263*
X244409Y107896*
X244297Y108525*
X244155Y109148*
X243981Y109763*
X243778Y110369*
X243546Y110964*
X243284Y111547*
X242994Y112116*
X242676Y112671*
X242331Y113208*
X241960Y113729*
X241564Y114230*
X241144Y114711*
X240700Y115171*
X240235Y115609*
X239748Y116023*
X239242Y116413*
X238717Y116777*
X238174Y117115*
X237616Y117425*
X237043Y117708*
X236457Y117962*
X235859Y118188*
X235251Y118383*
X234633Y118548*
X234009Y118683*
X233378Y118786*
X232743Y118859*
X232106Y118900*
X231467Y118909*
X230828Y118887*
X230192Y118834*
X229558Y118749*
X228930Y118633*
X228308Y118487*
X227694Y118310*
X227090Y118103*
X226496Y117866*
Y118917*
X224296*
X224195Y118904*
X224100Y118865*
X224018Y118802*
X218737Y113521*
X218675Y113439*
X218636Y113344*
X218622Y113242*
Y98608*
X218636Y98506*
X218675Y98412*
X218737Y98330*
X224018Y93048*
X224100Y92986*
X224195Y92946*
X224297Y92933*
X244212*
X244314Y92947*
X244409Y92986*
X244491Y93049*
X244554Y93130*
X244593Y93225*
X244606Y93327*
Y111043*
X226496Y92933D02*
Y93984D01*
X227090Y93748*
X227694Y93541*
X228308Y93364*
X228930Y93217*
X229559Y93101*
X230192Y93017*
X230829Y92963*
X231467Y92941*
X232106Y92951*
X232744Y92992*
X233378Y93064*
X234009Y93168*
X234633Y93302*
X235251Y93468*
X235859Y93663*
X236457Y93888*
X237043Y94142*
X237616Y94425*
X238174Y94736*
X238717Y95074*
X239242Y95438*
X239748Y95828*
X240235Y96242*
X240700Y96679*
X241144Y97139*
X241564Y97620*
X241960Y98122*
X242331Y98642*
X242676Y99180*
X242994Y99734*
X243284Y100303*
X243546Y100886*
X243778Y101481*
X243981Y102087*
X244154Y102702*
X244297Y103325*
X244409Y103954*
X244489Y104588*
X244538Y105225*
X244556Y105864*
X244543Y106502*
X244497Y107140*
X244421Y107774*
X244313Y108404*
X244175Y109028*
X244005Y109644*
X243806Y110251*
X243577Y110847*
X243319Y111432*
X243033Y112003*
X242718Y112559*
X242377Y113099*
X242009Y113622*
X241616Y114126*
X241199Y114610*
X240759Y115072*
X240296Y115513*
X239812Y115930*
X239308Y116323*
X238785Y116690*
X238245Y117032*
X237689Y117346*
X237118Y117632*
X236533Y117890*
X235937Y118119*
X235330Y118318*
X234713Y118487*
X234090Y118626*
X233460Y118734*
X232826Y118810*
X232188Y118855*
X231549Y118869*
X230911Y118851*
X230274Y118801*
X229640Y118721*
X229011Y118609*
X228388Y118466*
X227773Y118293*
X227167Y118090*
X226572Y117857*
X225989Y117595*
X225420Y117305*
X224866Y116987*
X224328Y116642*
X223808Y116271*
X223307Y115875*
X222825Y115455*
X222366Y115011*
X221928Y114546*
X221514Y114059*
X221125Y113553*
X220760Y113028*
X220423Y112485*
X220112Y111927*
X219829Y111354*
X219575Y110768*
X219350Y110170*
X219155Y109561*
X218990Y108944*
X218855Y108320*
X218752Y107689*
X218679Y107054*
X218638Y106417*
X218629Y105778*
X218651Y105139*
X218704Y104503*
X218789Y103869*
X218905Y103241*
X219052Y102619*
X219229Y102005*
X219436Y101401*
X219672Y100807*
X218622*
X226496Y118917D02*
X244212D01*
X244314Y118904*
X244409Y118864*
X244491Y118802*
X244554Y118720*
X244593Y118625*
X244606Y118523*
Y111043*
X243555*
X243792Y110450*
X243999Y109845*
X244176Y109231*
X244323Y108609*
X244438Y107981*
X244523Y107348*
X244576Y106711*
X244598Y106073*
X244589Y105434*
X244548Y104796*
X244475Y104161*
X244372Y103531*
X244237Y102906*
X244072Y102289*
X243877Y101681*
X243652Y101083*
X243397Y100496*
X243114Y99924*
X242804Y99365*
X242466Y98823*
X242102Y98298*
X241712Y97792*
X241298Y97305*
X240860Y96839*
X240400Y96396*
X239919Y95976*
X239418Y95580*
X238898Y95209*
X238360Y94864*
X237805Y94546*
X237236Y94256*
X236653Y93994*
X236058Y93761*
X235452Y93558*
X234837Y93385*
X234215Y93243*
X233586Y93131*
X232952Y93050*
X232315Y93001*
X231676Y92984*
X231037Y92997*
X230400Y93042*
X229766Y93119*
X229136Y93227*
X228512Y93365*
X227896Y93534*
X227289Y93734*
X226692Y93963*
X226108Y94221*
X225537Y94507*
X224981Y94822*
X224440Y95163*
X223918Y95531*
X223414Y95923*
X222930Y96341*
X222467Y96781*
X222027Y97244*
X221610Y97728*
X221217Y98232*
X220849Y98755*
X220508Y99295*
X220194Y99851*
X219907Y100422*
X219649Y101007*
X219421Y101603*
X219221Y102210*
X219052Y102826*
X218914Y103450*
X218806Y104080*
X218730Y104714*
X218685Y105352*
X218671Y105990*
X218689Y106629*
X218738Y107266*
X218819Y107900*
X218931Y108529*
X219073Y109152*
X219246Y109767*
X219450Y110373*
X219682Y110968*
X219944Y111550*
X220235Y112120*
X220553Y112674*
X220897Y113212*
X221268Y113732*
X221665Y114233*
X222085Y114714*
X222528Y115174*
X222994Y115612*
X223481Y116026*
X223987Y116415*
X224512Y116779*
X225055Y117117*
X225613Y117428*
X226186Y117710*
X226772Y117965*
X227370Y118190*
X227978Y118385*
X228596Y118550*
X229220Y118684*
X229851Y118788*
X230485Y118860*
X231123Y118901*
X231762Y118911*
X232400Y118889*
X233037Y118835*
X233670Y118750*
X234299Y118635*
X234921Y118488*
X235535Y118311*
X236139Y118104*
X236732Y117867*
Y118917*
X231614Y93523D02*
X230996Y93539D01*
X230380Y93585*
X229766Y93662*
X229157Y93769*
X228554Y93907*
X227959Y94074*
X227373Y94271*
X226797Y94497*
X226233Y94751*
X225683Y95033*
X225148Y95343*
X224628Y95678*
X224126Y96039*
X223643Y96425*
X223179Y96834*
X222736Y97266*
X222316Y97719*
X221918Y98193*
X221545Y98686*
X221196Y99196*
X220874Y99724*
X220578Y100267*
X220310Y100824*
X220070Y101394*
X219858Y101975*
X219676Y102566*
X219523Y103165*
X219401Y103772*
X219309Y104383*
X219247Y104998*
X219216Y105616*
Y106234*
X219247Y106852*
X219309Y107467*
X219401Y108079*
X219523Y108685*
X219676Y109284*
X219858Y109875*
X220070Y110456*
X220310Y111026*
X220578Y111583*
X220874Y112126*
X221196Y112654*
X221545Y113165*
X221918Y113658*
X222316Y114131*
X222736Y114585*
X223179Y115016*
X223643Y115426*
X224126Y115811*
X224628Y116172*
X225148Y116508*
X225683Y116817*
X226233Y117099*
X226797Y117353*
X227373Y117579*
X227959Y117776*
X228554Y117944*
X229157Y118081*
X229766Y118189*
X230380Y118265*
X230996Y118312*
X231614Y118327*
Y93523D02*
X232233Y93539D01*
X232849Y93585*
X233463Y93662*
X234072Y93769*
X234675Y93907*
X235270Y94074*
X235856Y94271*
X236432Y94497*
X236996Y94751*
X237546Y95033*
X238081Y95343*
X238601Y95678*
X239103Y96039*
X239586Y96425*
X240050Y96834*
X240493Y97266*
X240913Y97719*
X241311Y98193*
X241684Y98686*
X242032Y99196*
X242355Y99724*
X242651Y100267*
X242919Y100824*
X243159Y101394*
X243371Y101975*
X243553Y102566*
X243706Y103165*
X243828Y103772*
X243920Y104383*
X243982Y104998*
X244013Y105616*
Y106234*
X243982Y106852*
X243920Y107467*
X243828Y108079*
X243706Y108685*
X243553Y109284*
X243371Y109875*
X243159Y110456*
X242919Y111026*
X242651Y111583*
X242355Y112126*
X242033Y112654*
X241684Y113165*
X241311Y113658*
X240913Y114131*
X240493Y114585*
X240050Y115016*
X239586Y115426*
X239103Y115811*
X238601Y116172*
X238081Y116508*
X237546Y116817*
X236996Y117099*
X236432Y117353*
X235856Y117579*
X235270Y117776*
X234675Y117944*
X234072Y118081*
X233463Y118189*
X232849Y118265*
X232233Y118312*
X231614Y118327*
Y94311D02*
X231017Y94327D01*
X230420Y94373*
X229827Y94450*
X229239Y94557*
X228657Y94694*
X228082Y94861*
X227518Y95058*
X226964Y95283*
X226422Y95537*
X225894Y95818*
X225381Y96126*
X224885Y96459*
X224407Y96818*
X223947Y97202*
X223509Y97608*
X223091Y98036*
X222696Y98485*
X222325Y98954*
X221979Y99442*
X221658Y99946*
X221363Y100467*
X221096Y101002*
X220856Y101550*
X220645Y102110*
X220463Y102679*
X220311Y103258*
X220189Y103843*
X220097Y104434*
X220035Y105029*
X220004Y105626*
Y106224*
X220035Y106822*
X220097Y107417*
X220189Y108007*
X220311Y108593*
X220463Y109171*
X220645Y109741*
X220856Y110301*
X221096Y110849*
X221363Y111384*
X221658Y111904*
X221979Y112409*
X222325Y112896*
X222696Y113365*
X223091Y113814*
X223509Y114243*
X223948Y114649*
X224407Y115032*
X224885Y115391*
X225381Y115725*
X225894Y116033*
X226422Y116314*
X226964Y116567*
X227518Y116793*
X228083Y116989*
X228657Y117156*
X229239Y117294*
X229827Y117401*
X230421Y117478*
X231017Y117524*
X231614Y117539*
Y118327D02*
Y117539D01*
X232212Y117524*
X232809Y117478*
X233402Y117401*
X233990Y117294*
X234572Y117156*
X235146Y116989*
X235711Y116793*
X236265Y116567*
X236807Y116314*
X237335Y116033*
X237848Y115725*
X238344Y115391*
X238822Y115032*
X239282Y114649*
X239720Y114243*
X240138Y113814*
X240533Y113365*
X240904Y112896*
X241250Y112409*
X241571Y111904*
X241866Y111383*
X242133Y110849*
X242373Y110300*
X242584Y109741*
X242766Y109171*
X242918Y108593*
X243040Y108007*
X243132Y107416*
X243194Y106821*
X243225Y106224*
Y105626*
X243194Y105029*
X243132Y104434*
X243040Y103843*
X242918Y103257*
X242766Y102679*
X242584Y102109*
X242373Y101550*
X242133Y101002*
X241866Y100467*
X241571Y99946*
X241250Y99442*
X240904Y98954*
X240533Y98485*
X240138Y98036*
X239720Y97608*
X239281Y97201*
X238822Y96818*
X238344Y96459*
X237848Y96125*
X237335Y95818*
X236807Y95536*
X236265Y95283*
X235711Y95058*
X235146Y94861*
X234572Y94694*
X233990Y94557*
X233402Y94449*
X232808Y94373*
X232212Y94327*
X231614Y94311*
Y93523*
X238507Y96578D02*
X238539Y115249D01*
X239013Y114877*
X239467Y114481*
X239900Y114063*
X240310Y113622*
X240697Y113161*
X241060Y112680*
X241397Y112181*
X241708Y111665*
X241991Y111134*
X242247Y110589*
X242475Y110031*
X242673Y109462*
X242841Y108884*
X242979Y108298*
X243087Y107705*
X243164Y107108*
X243209Y106508*
X243224Y105906*
X243207Y105304*
X243160Y104703*
X243081Y104106*
X242971Y103514*
X242831Y102928*
X242661Y102351*
X242461Y101783*
X242231Y101226*
X241974Y100682*
X241688Y100151*
X241375Y99637*
X241036Y99139*
X240672Y98659*
X240284Y98199*
X239872Y97760*
X239438Y97343*
X238982Y96948*
X238507Y96578*
X244606Y100807D02*
X243555D01*
X243792Y101401*
X243999Y102005*
X244176Y102619*
X244323Y103241*
X244438Y103869*
X244523Y104503*
X244576Y105139*
X244598Y105778*
X244589Y106417*
X244548Y107054*
X244475Y107689*
X244372Y108320*
X244237Y108944*
X244072Y109561*
X243877Y110170*
X243652Y110768*
X243397Y111354*
X243114Y111927*
X242804Y112485*
X242466Y113027*
X242102Y113552*
X241712Y114059*
X241298Y114545*
X240860Y115011*
X240400Y115454*
X239919Y115875*
X239418Y116271*
X238898Y116642*
X238360Y116986*
X237805Y117304*
X237236Y117594*
X236653Y117856*
X236058Y118089*
X235452Y118292*
X234837Y118465*
X234215Y118608*
X233586Y118719*
X232952Y118800*
X232315Y118849*
X231676Y118867*
X231037Y118853*
X230400Y118808*
X229766Y118731*
X229136Y118624*
X228512Y118485*
X227896Y118316*
X227289Y118117*
X226692Y117888*
X226108Y117630*
X225537Y117343*
X224981Y117029*
X224440Y116687*
X223918Y116320*
X223414Y115927*
X222930Y115510*
X222467Y115069*
X222027Y114606*
X221610Y114122*
X221217Y113618*
X220849Y113096*
X220508Y112556*
X220194Y111999*
X219907Y111428*
X219649Y110844*
X219421Y110247*
X219221Y109640*
X219052Y109024*
X218914Y108400*
X218806Y107770*
X218730Y107136*
X218685Y106499*
X218671Y105860*
X218689Y105221*
X218738Y104584*
X218819Y103951*
X218931Y103321*
X219073Y102699*
X219246Y102084*
X219450Y101478*
X219682Y100883*
X219944Y100300*
X220235Y99731*
X220553Y99177*
X220897Y98639*
X221268Y98119*
X221665Y97617*
X222085Y97136*
X222528Y96676*
X222994Y96239*
X223481Y95825*
X223987Y95435*
X224512Y95071*
X225055Y94733*
X225613Y94423*
X226186Y94140*
X226772Y93886*
X227370Y93661*
X227978Y93466*
X228596Y93300*
X229220Y93166*
X229851Y93063*
X230485Y92990*
X231123Y92949*
X231762Y92940*
X232400Y92962*
X233037Y93015*
X233670Y93100*
X234299Y93216*
X234921Y93362*
X235535Y93540*
X236139Y93747*
X236732Y93983*
Y92933*
X244606Y107500D02*
X245984D01*
Y104350*
X244606*
X250024Y65370D02*
X238008D01*
Y71678*
X250024*
Y65370*
X255626Y58972D02*
Y70988D01*
X261934*
Y58972*
X255626*
X270094Y106717D02*
X282110D01*
Y100409*
X270094*
Y106717*
X290665Y23736D02*
Y35752D01*
X296973*
Y23736*
X290665*
X297071Y109858D02*
X285055D01*
Y116166*
X297071*
Y109858*
X301008Y100606D02*
X288992D01*
Y106914*
X301008*
Y100606*
X307496Y37229D02*
X319512D01*
Y30921*
X307496*
Y37229*
X307693Y21678D02*
X319709D01*
Y15370*
X307693*
Y21678*
Y29355D02*
X319709D01*
Y23047*
X307693*
Y29355*
Y44906D02*
X319709D01*
Y38598*
X307693*
Y44906*
X311934Y89099D02*
Y77083D01*
X305626*
Y89099*
X311934*
X313205Y114591D02*
X325221D01*
Y108283*
X313205*
Y114591*
X319799Y128657D02*
Y140673D01*
X326107*
Y128657*
X319799*
X320871Y98210D02*
Y86478D01*
X315629*
Y98210*
X320871*
X324720Y23736D02*
Y35752D01*
X331028*
Y23736*
X324720*
X325221Y100409D02*
X313205D01*
Y106717*
X325221*
Y100409*
X325417Y116157D02*
X313401D01*
Y122465*
X325417*
Y116157*
D02*
D92*
X295835Y66602D02*
X295820Y66488D01*
X295776Y66382*
X295705Y66291*
X295614Y66221*
X295508Y66176*
X295394Y66161*
X295280Y66176*
X295173Y66221*
X295082Y66291*
X295012Y66382*
X294968Y66488*
X294953Y66602*
X294968Y66716*
X295012Y66823*
X295082Y66914*
X295173Y66984*
X295280Y67028*
X295394Y67043*
X295508Y67028*
X295614Y66984*
X295705Y66914*
X295776Y66823*
X295820Y66716*
X295835Y66602*
X294953D02*
X295835D01*
X297756Y92539D02*
X271378D01*
Y66161*
X296969*
X297756Y66949*
Y92539*
D02*
D93*
X304724Y65563D02*
X304724Y62957D01*
X304435Y62378*
X303856Y62089*
X302698*
X302119Y62378*
X301830Y62957*
Y65563*
X300159Y62089D02*
X299001Y62089D01*
X299580D02*
X299580Y65563D01*
X300159Y64984*
D02*
D117*
X0Y182874D02*
X410236D01*
Y0*
X0*
Y182874*
D02*
D119*
X6713Y9685D02*
Y2795D01*
Y144134D02*
Y137244D01*
X7191Y11850D02*
Y13031D01*
Y15787D02*
Y16969D01*
Y19724D02*
Y20906D01*
Y23661D02*
Y24843D01*
Y27598D02*
Y28780D01*
Y31535D02*
Y32717D01*
Y35472D02*
Y36654D01*
Y39409D02*
Y40591D01*
Y43346D02*
Y44528D01*
Y47283D02*
Y48465D01*
Y51220D02*
Y52402D01*
Y55157D02*
Y56339D01*
Y59094D02*
Y60276D01*
Y63031D02*
Y64213D01*
Y66969D02*
Y68150D01*
Y70906D02*
Y72087D01*
Y74843D02*
Y76024D01*
Y78780D02*
Y79961D01*
Y82717D02*
Y83898D01*
Y86654D02*
Y87835D01*
Y90591D02*
Y91772D01*
Y94528D02*
Y95709D01*
Y98465D02*
Y99646D01*
Y102402D02*
Y103583D01*
Y106339D02*
Y107520D01*
Y110276D02*
Y111457D01*
Y114213D02*
Y115394D01*
Y118150D02*
Y119331D01*
Y122087D02*
Y123268D01*
Y126024D02*
Y127205D01*
Y129961D02*
Y131142D01*
Y133898D02*
Y135079D01*
X11043Y5748D02*
X12676D01*
X11831Y10472D02*
Y136457D01*
Y10472D02*
X12815D01*
X11831Y11850D02*
X7191D01*
X11831Y13031D02*
X7191D01*
X11831Y15787D02*
X7191D01*
X11831Y16969D02*
X7191D01*
X11831Y19724D02*
X7191D01*
X11831Y20906D02*
X7191D01*
X11831Y23661D02*
X7191D01*
X11831Y24843D02*
X7191D01*
X11831Y27598D02*
X7191D01*
X11831Y28780D02*
X7191D01*
X11831Y31535D02*
X7191D01*
X11831Y32717D02*
X7191D01*
X11831Y35472D02*
X7191D01*
X11831Y36654D02*
X7191D01*
X11831Y39409D02*
X7191D01*
X11831Y40591D02*
X7191D01*
X11831Y43346D02*
X7191D01*
X11831Y44528D02*
X7191D01*
X11831Y47283D02*
X7191D01*
X11831Y48465D02*
X7191D01*
X11831Y51220D02*
X7191D01*
X11831Y52402D02*
X7191D01*
X11831Y55157D02*
X7191D01*
X11831Y56339D02*
X7191D01*
X11831Y59094D02*
X7191D01*
X11831Y60276D02*
X7191D01*
X11831Y63031D02*
X7191D01*
X11831Y64213D02*
X7191D01*
X11831Y66969D02*
X7191D01*
X11831Y68150D02*
X7191D01*
X11831Y70906D02*
X7191D01*
X11831Y72087D02*
X7191D01*
X11831Y74843D02*
X7191D01*
X11831Y76024D02*
X7191D01*
X11831Y78780D02*
X7191D01*
X11831Y79961D02*
X7191D01*
X11831Y82717D02*
X7191D01*
X11831Y83898D02*
X7191D01*
X11831Y86654D02*
X7191D01*
X11831Y87835D02*
X7191D01*
X11831Y90591D02*
X7191D01*
X11831Y91772D02*
X7191D01*
X11831Y94528D02*
X7191D01*
X11831Y95709D02*
X7191D01*
X11831Y98465D02*
X7191D01*
X11831Y99646D02*
X7191D01*
X11831Y102402D02*
X7191D01*
X11831Y103583D02*
X7191D01*
X11831Y106339D02*
X7191D01*
X11831Y107520D02*
X7191D01*
X11831Y110276D02*
X7191D01*
X11831Y111457D02*
X7191D01*
X11831Y114213D02*
X7191D01*
X11831Y115394D02*
X7191D01*
X11831Y118150D02*
X7191D01*
X11831Y119331D02*
X7191D01*
X11831Y122087D02*
X7191D01*
X11831Y123268D02*
X7191D01*
X11831Y126024D02*
X7191D01*
X11831Y127205D02*
X7191D01*
X11831Y129961D02*
X7191D01*
X11831Y131142D02*
X7191D01*
X11831Y133898D02*
X7191D01*
X11831Y135079D02*
X7191D01*
X12484Y3150D02*
X11043Y5748D01*
X12676D02*
X12805Y5472D01*
X14123*
X12815Y10472D02*
Y136457D01*
X11831*
X12815D02*
X13858D01*
X12874Y8268D02*
Y10472D01*
Y9685D02*
X6713D01*
X12874Y136457D02*
Y138661D01*
Y137244D02*
X6713D01*
X12874Y138661D02*
X12888Y138904D01*
X12928Y139143*
X12996Y139377*
X13088Y139601*
X13206Y139813*
X13346Y140011*
X13508Y140193*
X13689Y140354*
X13887Y140495*
X14100Y140612*
X14324Y140705*
X14558Y140772*
X14797Y140813*
X15039Y140827*
X13110Y4818D02*
X13458Y4071D01*
X13813Y4818*
X13110*
X13858Y8268D02*
X12874D01*
X13858D02*
Y10472D01*
X12815*
X13858Y136457D02*
Y138661D01*
X12874*
X13858D02*
X13873Y138846D01*
X13916Y139026*
X13987Y139198*
X14084Y139356*
X14204Y139497*
X14345Y139617*
X14503Y139714*
X14674Y139785*
X14855Y139828*
X15039Y139843*
X14123Y5472D02*
X14254Y5748D01*
X15887*
X14447Y3150D02*
X12484D01*
X15039Y6102D02*
X14797Y6116D01*
X14558Y6157*
X14324Y6224*
X14100Y6317*
X13887Y6434*
X13689Y6575*
X13508Y6737*
X13346Y6918*
X13206Y7116*
X13088Y7328*
X12996Y7553*
X12928Y7786*
X12888Y8025*
X12874Y8268*
X15039Y7087D02*
Y6102D01*
Y7087D02*
X14855Y7101D01*
X14674Y7144*
X14503Y7215*
X14345Y7312*
X14204Y7433*
X14084Y7574*
X13987Y7732*
X13916Y7903*
X13873Y8083*
X13858Y8268*
X15039Y139843D02*
Y140827D01*
Y139843D02*
X15118D01*
X15039Y140827D02*
X15906D01*
X15118Y7087D02*
Y139843D01*
Y7087D02*
X15906Y6299D01*
X15118Y7087D02*
X15039D01*
X15887Y5748D02*
X14447Y3150D01*
X15906Y6102D02*
X15039D01*
X15906D02*
Y6299D01*
Y140630*
Y8898D02*
X21339D01*
X15906Y140630D02*
Y140827D01*
Y140630D02*
X15118Y139843D01*
X15969Y3150D02*
Y5748D01*
X17398*
X16258Y11575D02*
Y13307D01*
Y11575D02*
X15906D01*
X16258Y13307D02*
X15906D01*
X16258Y15512D02*
Y17244D01*
Y15512D02*
X15906D01*
X16258Y17244D02*
X15906D01*
X16258Y19449D02*
Y21181D01*
Y19449D02*
X15906D01*
X16258Y21181D02*
X15906D01*
X16258Y23386D02*
Y25118D01*
Y23386D02*
X15906D01*
X16258Y25118D02*
X15906D01*
X16258Y27323D02*
Y29055D01*
Y27323D02*
X15906D01*
X16258Y29055D02*
X15906D01*
X16258Y31260D02*
Y32992D01*
Y31260D02*
X15906D01*
X16258Y32992D02*
X15906D01*
X16258Y35197D02*
Y36929D01*
Y35197D02*
X15906D01*
X16258Y36929D02*
X15906D01*
X16258Y39134D02*
Y40866D01*
Y39134D02*
X15906D01*
X16258Y40866D02*
X15906D01*
X16258Y43071D02*
Y44803D01*
Y43071D02*
X15906D01*
X16258Y44803D02*
X15906D01*
X16258Y47008D02*
Y48740D01*
Y47008D02*
X15906D01*
X16258Y48740D02*
X15906D01*
X16258Y50945D02*
Y52677D01*
Y50945D02*
X15906D01*
X16258Y52677D02*
X15906D01*
X16258Y54882D02*
Y56614D01*
Y54882D02*
X15906D01*
X16258Y56614D02*
X15906D01*
X16258Y58819D02*
Y60551D01*
Y58819D02*
X15906D01*
X16258Y60551D02*
X15906D01*
X16258Y62756D02*
Y64488D01*
Y62756D02*
X15906D01*
X16258Y64488D02*
X15906D01*
X16258Y66693D02*
Y68425D01*
Y66693D02*
X15906D01*
X16258Y68425D02*
X15906D01*
X16258Y70630D02*
Y72362D01*
Y70630D02*
X15906D01*
X16258Y72362D02*
X15906D01*
X16258Y74567D02*
Y76299D01*
Y74567D02*
X15906D01*
X16258Y76299D02*
X15906D01*
X16258Y78504D02*
Y80236D01*
Y78504D02*
X15906D01*
X16258Y80236D02*
X15906D01*
X16258Y82441D02*
Y84173D01*
Y82441D02*
X15906D01*
X16258Y84173D02*
X15906D01*
X16258Y86378D02*
Y88110D01*
Y86378D02*
X15906D01*
X16258Y88110D02*
X15906D01*
X16258Y90315D02*
Y92047D01*
Y90315D02*
X15906D01*
X16258Y92047D02*
X15906D01*
X16258Y94252D02*
Y95984D01*
Y94252D02*
X15906D01*
X16258Y95984D02*
X15906D01*
X16258Y98189D02*
Y99921D01*
Y98189D02*
X15906D01*
X16258Y99921D02*
X15906D01*
X16258Y102126D02*
Y103858D01*
Y102126D02*
X15906D01*
X16258Y103858D02*
X15906D01*
X16258Y106063D02*
Y107795D01*
Y106063D02*
X15906D01*
X16258Y107795D02*
X15906D01*
X16258Y110000D02*
Y111732D01*
Y110000D02*
X15906D01*
X16258Y111732D02*
X15906D01*
X16258Y113937D02*
Y115669D01*
Y113937D02*
X15906D01*
X16258Y115669D02*
X15906D01*
X16258Y117874D02*
Y119606D01*
Y117874D02*
X15906D01*
X16258Y119606D02*
X15906D01*
X16258Y121811D02*
Y123543D01*
Y121811D02*
X15906D01*
X16258Y123543D02*
X15906D01*
X16258Y125748D02*
Y127480D01*
Y125748D02*
X15906D01*
X16258Y127480D02*
X15906D01*
X16258Y129685D02*
Y131417D01*
Y129685D02*
X15906D01*
X16258Y131417D02*
X15906D01*
X16258Y133622D02*
Y135354D01*
Y133622D02*
X15906D01*
X16258Y135354D02*
X15906D01*
X16980Y11575D02*
Y13307D01*
Y11575D02*
X16258D01*
X16980Y13307D02*
X16258D01*
X16980Y15512D02*
Y17244D01*
Y15512D02*
X16258D01*
X16980Y17244D02*
X16258D01*
X16980Y19449D02*
Y21181D01*
Y19449D02*
X16258D01*
X16980Y21181D02*
X16258D01*
X16980Y23386D02*
Y25118D01*
Y23386D02*
X16258D01*
X16980Y25118D02*
X16258D01*
X16980Y27323D02*
Y29055D01*
Y27323D02*
X16258D01*
X16980Y29055D02*
X16258D01*
X16980Y31260D02*
Y32992D01*
Y31260D02*
X16258D01*
X16980Y32992D02*
X16258D01*
X16980Y35197D02*
Y36929D01*
Y35197D02*
X16258D01*
X16980Y36929D02*
X16258D01*
X16980Y39134D02*
Y40866D01*
Y39134D02*
X16258D01*
X16980Y40866D02*
X16258D01*
X16980Y43071D02*
Y44803D01*
Y43071D02*
X16258D01*
X16980Y44803D02*
X16258D01*
X16980Y47008D02*
Y48740D01*
Y47008D02*
X16258D01*
X16980Y48740D02*
X16258D01*
X16980Y50945D02*
Y52677D01*
Y50945D02*
X16258D01*
X16980Y52677D02*
X16258D01*
X16980Y54882D02*
Y56614D01*
Y54882D02*
X16258D01*
X16980Y56614D02*
X16258D01*
X16980Y58819D02*
Y60551D01*
Y58819D02*
X16258D01*
X16980Y60551D02*
X16258D01*
X16980Y62756D02*
Y64488D01*
Y62756D02*
X16258D01*
X16980Y64488D02*
X16258D01*
X16980Y66693D02*
Y68425D01*
Y66693D02*
X16258D01*
X16980Y68425D02*
X16258D01*
X16980Y70630D02*
Y72362D01*
Y70630D02*
X16258D01*
X16980Y72362D02*
X16258D01*
X16980Y74567D02*
Y76299D01*
Y74567D02*
X16258D01*
X16980Y76299D02*
X16258D01*
X16980Y78504D02*
Y80236D01*
Y78504D02*
X16258D01*
X16980Y80236D02*
X16258D01*
X16980Y82441D02*
Y84173D01*
Y82441D02*
X16258D01*
X16980Y84173D02*
X16258D01*
X16980Y86378D02*
Y88110D01*
Y86378D02*
X16258D01*
X16980Y88110D02*
X16258D01*
X16980Y90315D02*
Y92047D01*
Y90315D02*
X16258D01*
X16980Y92047D02*
X16258D01*
X16980Y94252D02*
Y95984D01*
Y94252D02*
X16258D01*
X16980Y95984D02*
X16258D01*
X16980Y98189D02*
Y99921D01*
Y98189D02*
X16258D01*
X16980Y99921D02*
X16258D01*
X16980Y102126D02*
Y103858D01*
Y102126D02*
X16258D01*
X16980Y103858D02*
X16258D01*
X16980Y106063D02*
Y107795D01*
Y106063D02*
X16258D01*
X16980Y107795D02*
X16258D01*
X16980Y110000D02*
Y111732D01*
Y110000D02*
X16258D01*
X16980Y111732D02*
X16258D01*
X16980Y113937D02*
Y115669D01*
Y113937D02*
X16258D01*
X16980Y115669D02*
X16258D01*
X16980Y117874D02*
Y119606D01*
Y117874D02*
X16258D01*
X16980Y119606D02*
X16258D01*
X16980Y121811D02*
Y123543D01*
Y121811D02*
X16258D01*
X16980Y123543D02*
X16258D01*
X16980Y125748D02*
Y127480D01*
Y125748D02*
X16258D01*
X16980Y127480D02*
X16258D01*
X16980Y129685D02*
Y131417D01*
Y129685D02*
X16258D01*
X16980Y131417D02*
X16258D01*
X16980Y133622D02*
Y135354D01*
Y133622D02*
X16258D01*
X16980Y135354D02*
X16258D01*
X17062Y8898D02*
Y11575D01*
Y13307D02*
Y15512D01*
Y17244D02*
Y19449D01*
Y21181D02*
Y23386D01*
Y25118D02*
Y27323D01*
Y29055D02*
Y31260D01*
Y32992D02*
Y35197D01*
Y36929D02*
Y39134D01*
Y40866D02*
Y43071D01*
Y44803D02*
Y47008D01*
Y48740D02*
Y50945D01*
Y52677D02*
Y54882D01*
Y56614D02*
Y58819D01*
Y60551D02*
Y62756D01*
Y64488D02*
Y66693D01*
Y68425D02*
Y70630D01*
Y72362D02*
Y74567D01*
Y76299D02*
Y78504D01*
Y80236D02*
Y82441D01*
Y84173D02*
Y86378D01*
Y88110D02*
Y90315D01*
Y92047D02*
Y94252D01*
Y95984D02*
Y98189D01*
Y99921D02*
Y102126D01*
Y103858D02*
Y106063D01*
Y107795D02*
Y110000D01*
Y111732D02*
Y113937D01*
Y115669D02*
Y117874D01*
Y119606D02*
Y121811D01*
Y123543D02*
Y125748D01*
Y127480D02*
Y129685D01*
Y131417D02*
Y133622D01*
Y135354D02*
Y138031D01*
X17398Y4071D02*
X18107Y5748D01*
X17398D02*
Y4071D01*
X17441Y11575D02*
Y13307D01*
Y11575D02*
X16980D01*
X17441Y13307D02*
X16980D01*
X17441Y15512D02*
Y17244D01*
Y15512D02*
X16980D01*
X17441Y17244D02*
X16980D01*
X17441Y19449D02*
Y21181D01*
Y19449D02*
X16980D01*
X17441Y21181D02*
X16980D01*
X17441Y23386D02*
Y25118D01*
Y23386D02*
X16980D01*
X17441Y25118D02*
X16980D01*
X17441Y27323D02*
Y29055D01*
Y27323D02*
X16980D01*
X17441Y29055D02*
X16980D01*
X17441Y31260D02*
Y32992D01*
Y31260D02*
X16980D01*
X17441Y32992D02*
X16980D01*
X17441Y35197D02*
Y36929D01*
Y35197D02*
X16980D01*
X17441Y36929D02*
X16980D01*
X17441Y39134D02*
Y40866D01*
Y39134D02*
X16980D01*
X17441Y40866D02*
X16980D01*
X17441Y43071D02*
Y44803D01*
Y43071D02*
X16980D01*
X17441Y44803D02*
X16980D01*
X17441Y47008D02*
Y48740D01*
Y47008D02*
X16980D01*
X17441Y48740D02*
X16980D01*
X17441Y50945D02*
Y52677D01*
Y50945D02*
X16980D01*
X17441Y52677D02*
X16980D01*
X17441Y54882D02*
Y56614D01*
Y54882D02*
X16980D01*
X17441Y56614D02*
X16980D01*
X17441Y58819D02*
Y60551D01*
Y58819D02*
X16980D01*
X17441Y60551D02*
X16980D01*
X17441Y62756D02*
Y64488D01*
Y62756D02*
X16980D01*
X17441Y64488D02*
X16980D01*
X17441Y66693D02*
Y68425D01*
Y66693D02*
X16980D01*
X17441Y68425D02*
X16980D01*
X17441Y70630D02*
Y72362D01*
Y70630D02*
X16980D01*
X17441Y72362D02*
X16980D01*
X17441Y74567D02*
Y76299D01*
Y74567D02*
X16980D01*
X17441Y76299D02*
X16980D01*
X17441Y78504D02*
Y80236D01*
Y78504D02*
X16980D01*
X17441Y80236D02*
X16980D01*
X17441Y82441D02*
Y84173D01*
Y82441D02*
X16980D01*
X17441Y84173D02*
X16980D01*
X17441Y86378D02*
Y88110D01*
Y86378D02*
X16980D01*
X17441Y88110D02*
X16980D01*
X17441Y90315D02*
Y92047D01*
Y90315D02*
X16980D01*
X17441Y92047D02*
X16980D01*
X17441Y94252D02*
Y95984D01*
Y94252D02*
X16980D01*
X17441Y95984D02*
X16980D01*
X17441Y98189D02*
Y99921D01*
Y98189D02*
X16980D01*
X17441Y99921D02*
X16980D01*
X17441Y102126D02*
Y103858D01*
Y102126D02*
X16980D01*
X17441Y103858D02*
X16980D01*
X17441Y106063D02*
Y107795D01*
Y106063D02*
X16980D01*
X17441Y107795D02*
X16980D01*
X17441Y110000D02*
Y111732D01*
Y110000D02*
X16980D01*
X17441Y111732D02*
X16980D01*
X17441Y113937D02*
Y115669D01*
Y113937D02*
X16980D01*
X17441Y115669D02*
X16980D01*
X17441Y117874D02*
Y119606D01*
Y117874D02*
X16980D01*
X17441Y119606D02*
X16980D01*
X17441Y121811D02*
Y123543D01*
Y121811D02*
X16980D01*
X17441Y123543D02*
X16980D01*
X17441Y125748D02*
Y127480D01*
Y125748D02*
X16980D01*
X17441Y127480D02*
X16980D01*
X17441Y129685D02*
Y131417D01*
Y129685D02*
X16980D01*
X17441Y131417D02*
X16980D01*
X17441Y133622D02*
Y135354D01*
Y133622D02*
X16980D01*
X17441Y135354D02*
X16980D01*
X18107Y5748D02*
X19434D01*
X18227Y3150D02*
X15969D01*
X18770Y4493D02*
X18227Y3150D01*
X19313D02*
X18770Y4493D01*
X19434Y5748D02*
X20143Y4071D01*
Y5748*
X21572*
X20182Y8898D02*
Y138031D01*
X21339Y6102D02*
X15906D01*
X21339Y6299D02*
X22126Y7087D01*
X21339Y6299D02*
Y6102D01*
Y138031D02*
X15906D01*
X21339Y140630D02*
Y6299D01*
Y140827D02*
X22205D01*
X21339D02*
X15906D01*
X21339D02*
Y140630D01*
X21572Y3150D02*
X19313D01*
X21572Y5748D02*
Y3150D01*
X21961D02*
Y5748D01*
X23397*
X22126Y139843D02*
Y7087D01*
Y139843D02*
X21339Y140630D01*
X22126Y139843D02*
X22205D01*
Y6102D02*
X21339D01*
X22205Y7087D02*
Y6102D01*
Y7087D02*
X22126D01*
X22205Y139843D02*
Y140827D01*
Y139843D02*
X22389Y139828D01*
X22570Y139785*
X22741Y139714*
X22899Y139617*
X23040Y139497*
X23160Y139356*
X23257Y139198*
X23328Y139026*
X23371Y138846*
X23386Y138661*
X22205Y140827D02*
X22447Y140813D01*
X22687Y140772*
X22920Y140705*
X23144Y140612*
X23357Y140495*
X23555Y140354*
X23736Y140193*
X23898Y140011*
X24038Y139813*
X24156Y139601*
X24249Y139377*
X24316Y139143*
X24356Y138904*
X24370Y138661*
X23386Y8268D02*
X24370D01*
X23386D02*
X23371Y8083D01*
X23328Y7903*
X23257Y7731*
X23160Y7573*
X23040Y7433*
X22899Y7312*
X22741Y7215*
X22570Y7144*
X22389Y7101*
X22205Y7087*
X23386Y10472D02*
Y8268D01*
Y136457D02*
X24429D01*
X23386Y138661D02*
X24370D01*
X23386D02*
Y136457D01*
X23397Y3878D02*
X24602D01*
X23397Y4264D02*
Y3878D01*
Y4989D02*
X24602D01*
X23397Y5748D02*
Y4989D01*
X24370Y8268D02*
X24356Y8025D01*
X24316Y7786*
X24249Y7553*
X24156Y7328*
X24038Y7116*
X23898Y6918*
X23736Y6737*
X23555Y6575*
X23357Y6434*
X23144Y6317*
X22920Y6224*
X22687Y6157*
X22447Y6116*
X22205Y6102*
X24370Y10472D02*
Y8268D01*
Y138661D02*
Y136457D01*
X24429Y10472D02*
X25413D01*
X24429D02*
X23386D01*
X24429Y136457D02*
Y10472D01*
X24602Y3150D02*
X21961D01*
X24602D02*
X25071Y3169D01*
X24602Y4264D02*
X24676Y4250D01*
X24738Y4208*
X24780Y4145*
X24795Y4071*
X24780Y3997*
X24738Y3934*
X24676Y3893*
X24602Y3878*
Y4264D02*
X23397D01*
X24602Y4989D02*
X26331Y4071D01*
X25068Y4970D02*
X24602Y4989D01*
X25214Y3185D02*
X25673Y3285D01*
X25413Y136457D02*
Y10472D01*
Y136457D02*
X24429D01*
X25674Y4854D02*
X25214Y4954D01*
X25915Y3389D02*
X26109Y3529D01*
X26106Y4613D02*
X25917Y4750D01*
X26202Y3636D02*
X26331Y4071D01*
X24602Y3150*
X26331Y4071D02*
X26200Y4507D01*
X30053Y11850D02*
Y13031D01*
Y11850D02*
X25413D01*
X30053Y13031D02*
X25413D01*
X30053Y15787D02*
Y16969D01*
Y15787D02*
X25413D01*
X30053Y16969D02*
X25413D01*
X30053Y19724D02*
Y20906D01*
Y19724D02*
X25413D01*
X30053Y20906D02*
X25413D01*
X30053Y23661D02*
Y24843D01*
Y23661D02*
X25413D01*
X30053Y24843D02*
X25413D01*
X30053Y27598D02*
Y28780D01*
Y27598D02*
X25413D01*
X30053Y28780D02*
X25413D01*
X30053Y31535D02*
Y32717D01*
Y31535D02*
X25413D01*
X30053Y32717D02*
X25413D01*
X30053Y35472D02*
Y36654D01*
Y35472D02*
X25413D01*
X30053Y36654D02*
X25413D01*
X30053Y39409D02*
Y40591D01*
Y39409D02*
X25413D01*
X30053Y40591D02*
X25413D01*
X30053Y43346D02*
Y44528D01*
Y43346D02*
X25413D01*
X30053Y44528D02*
X25413D01*
X30053Y47283D02*
Y48465D01*
Y47283D02*
X25413D01*
X30053Y48465D02*
X25413D01*
X30053Y51220D02*
Y52402D01*
Y51220D02*
X25413D01*
X30053Y52402D02*
X25413D01*
X30053Y55157D02*
Y56339D01*
Y55157D02*
X25413D01*
X30053Y56339D02*
X25413D01*
X30053Y59094D02*
Y60276D01*
Y59094D02*
X25413D01*
X30053Y60276D02*
X25413D01*
X30053Y63031D02*
Y64213D01*
Y63031D02*
X25413D01*
X30053Y64213D02*
X25413D01*
X30053Y66969D02*
Y68150D01*
Y66969D02*
X25413D01*
X30053Y68150D02*
X25413D01*
X30053Y70906D02*
Y72087D01*
Y70906D02*
X25413D01*
X30053Y72087D02*
X25413D01*
X30053Y74843D02*
Y76024D01*
Y74843D02*
X25413D01*
X30053Y76024D02*
X25413D01*
X30053Y78780D02*
Y79961D01*
Y78780D02*
X25413D01*
X30053Y79961D02*
X25413D01*
X30053Y82717D02*
Y83898D01*
Y82717D02*
X25413D01*
X30053Y83898D02*
X25413D01*
X30053Y86654D02*
Y87835D01*
Y86654D02*
X25413D01*
X30053Y87835D02*
X25413D01*
X30053Y90591D02*
Y91772D01*
Y90591D02*
X25413D01*
X30053Y91772D02*
X25413D01*
X30053Y94528D02*
Y95709D01*
Y94528D02*
X25413D01*
X30053Y95709D02*
X25413D01*
X30053Y98465D02*
Y99646D01*
Y98465D02*
X25413D01*
X30053Y99646D02*
X25413D01*
X30053Y102402D02*
Y103583D01*
Y102402D02*
X25413D01*
X30053Y103583D02*
X25413D01*
X30053Y106339D02*
Y107520D01*
Y106339D02*
X25413D01*
X30053Y107520D02*
X25413D01*
X30053Y110276D02*
Y111457D01*
Y110276D02*
X25413D01*
X30053Y111457D02*
X25413D01*
X30053Y114213D02*
Y115394D01*
Y114213D02*
X25413D01*
X30053Y115394D02*
X25413D01*
X30053Y118150D02*
Y119331D01*
Y118150D02*
X25413D01*
X30053Y119331D02*
X25413D01*
X30053Y122087D02*
Y123268D01*
Y122087D02*
X25413D01*
X30053Y123268D02*
X25413D01*
X30053Y126024D02*
Y127205D01*
Y126024D02*
X25413D01*
X30053Y127205D02*
X25413D01*
X30053Y129961D02*
Y131142D01*
Y129961D02*
X25413D01*
X30053Y131142D02*
X25413D01*
X30053Y133898D02*
Y135079D01*
Y133898D02*
X25413D01*
X30053Y135079D02*
X25413D01*
X30531Y2795D02*
X6713D01*
X30531Y9685D02*
X24370D01*
X30531D02*
Y2795D01*
Y137244D02*
X24370D01*
X30531Y144134D02*
X6713D01*
X30531D02*
Y137244D01*
X181473Y142471D02*
Y204282D01*
X186201*
X181473D02*
Y205857D01*
X186591*
X182291D02*
Y223574D01*
X187689*
X183865Y224755D02*
X183655Y224741D01*
X183448Y224701*
X183248Y224634*
X183058Y224542*
X182881Y224426*
X182721Y224289*
X182579Y224133*
X182459Y223959*
X182362Y223772*
X182291Y223574*
X183865Y224755D02*
X202309D01*
X184393Y224742D02*
X184373Y224741D01*
X185607Y159873D02*
Y161841D01*
X188587*
X185838Y224730D02*
X185597Y224741D01*
X186198Y157825D02*
X186198Y159873D01*
X186198Y157825D02*
X186213Y157365D01*
X186259Y156907*
X186336Y156453*
X186442Y156005*
X186579Y155565*
X186744Y155136*
X186938Y154718*
X187159Y154314*
X187407Y153926*
X187680Y153556*
X187978Y153204*
X188298Y152873*
X188639Y152564*
X189001Y152279*
X189380Y152018*
X189776Y151783*
X190187Y151576*
X190611Y151396*
X191046Y151245*
X191490Y151123*
X191941Y151032*
X192398Y150970*
X192857Y150939*
X193318*
X193777Y150970*
X194233Y151032*
X194685Y151123*
X195129Y151245*
X195564Y151396*
X195988Y151576*
X196398Y151783*
X196795Y152018*
X197174Y152279*
X197536Y152564*
X197877Y152873*
X198197Y153204*
X198495Y153555*
X198768Y153926*
X199015Y154314*
X199237Y154718*
X199431Y155136*
X199596Y155565*
X199732Y156005*
X199839Y156453*
X199916Y156907*
X199962Y157365*
X199977Y157825*
X186198Y161841D02*
X186201Y204282D01*
X186591D02*
Y205857D01*
Y204282D02*
X186201D01*
X186591Y205857D02*
X330686D01*
X187143Y161841D02*
Y167607D01*
X187689Y205857D02*
Y223574D01*
X198486*
X188587Y159873D02*
Y161841D01*
Y159873D02*
X185607D01*
X188587Y161841D02*
X188954D01*
Y159873D02*
Y161841D01*
Y159873D02*
X188587D01*
X188954Y161841D02*
X190135D01*
Y159873D02*
X188954D01*
X190135D02*
X190528D01*
X190135Y161841D02*
Y159873D01*
Y161841D02*
X190528D01*
Y164400*
Y161841D02*
Y159873D01*
X195646D02*
Y161841D01*
X196040*
X195646Y164400D02*
X195631Y164677D01*
X195587Y164950*
X195512Y165217*
X195410Y165475*
X195280Y165720*
X195125Y165949*
X194945Y166160*
X194744Y166351*
X194524Y166518*
X194286Y166661*
X194035Y166777*
X193772Y166866*
X193501Y166926*
X193226Y166955*
X192949*
X192673Y166926*
X192403Y166866*
X192140Y166777*
X191889Y166661*
X191651Y166518*
X191431Y166351*
X191230Y166160*
X191050Y165949*
X190895Y165720*
X190765Y165475*
X190662Y165217*
X190588Y164950*
X190544Y164677*
X190528Y164400*
X195646D02*
Y161841D01*
X196040Y159873D02*
Y161841D01*
Y159873D02*
X195646D01*
X196040Y161841D02*
X197221D01*
Y159873D02*
Y161841D01*
Y159873D02*
X196040D01*
X197221Y161841D02*
X197588D01*
Y159873D02*
Y161841D01*
Y159873D02*
X197221D01*
X197588Y161841D02*
X200568D01*
X198486Y223574D02*
Y205857D01*
Y223574D02*
X203884D01*
X199032Y161841D02*
Y167607D01*
X199977Y159873D02*
Y157825D01*
Y164125D02*
X199962Y164583D01*
X199916Y165040*
X199840Y165492*
X199734Y165938*
X199599Y166377*
X199434Y166805*
X199242Y167221*
X199022Y167624*
X198776Y168011*
X198505Y168381*
X198210Y168732*
X197892Y169063*
X197553Y169372*
X197194Y169657*
X196816Y169918*
X196423Y170153*
X196014Y170362*
X195592Y170543*
X195160Y170695*
X194718Y170819*
X194269Y170912*
X193815Y170976*
X193357Y171009*
X192898Y171012*
X192440Y170984*
X191985Y170926*
X191535Y170837*
X191092Y170719*
X190658Y170572*
X190234Y170396*
X189823Y170192*
X189427Y169961*
X189046Y169705*
X188684Y169424*
X188341Y169119*
X188019Y168792*
X187720Y168444*
X187444Y168078*
X187194Y167693*
X186969Y167293*
X186772Y166879*
X186603Y166453*
X186462Y166016*
X186351Y165571*
X186270Y165120*
X186219Y164664*
X186198Y164205*
X199977Y204282D02*
X186591D01*
X199977D02*
Y161841D01*
X200568Y159873D02*
X197588D01*
X200568Y161841D02*
Y159873D01*
X201464Y224748D02*
X201463D01*
X201976Y224734D02*
X201782Y224742D01*
X202529Y224674D02*
X202420Y224692D01*
X203033Y224528D02*
X202976Y224551D01*
X203884Y205857D02*
Y223574D01*
X203812Y223772*
X203715Y223959*
X203595Y224133*
X203454Y224289*
X203294Y224426*
X203117Y224542*
X202927Y224634*
X202727Y224701*
X202520Y224741*
X202309Y224755*
X205725Y142471D02*
Y191881D01*
Y142471D02*
X181473D01*
X205725D02*
X311552D01*
X205725Y191881D02*
X311552D01*
X207359Y207825D02*
Y226723D01*
Y207825D02*
X205391Y205857D01*
X207359Y226723D02*
X207503D01*
Y207825D02*
Y226723D01*
Y207825D02*
X207359D01*
X207503D02*
X205564Y205857D01*
X207503Y226723D02*
X210529D01*
X207503D02*
X207502D01*
X207503D02*
X207359D01*
X208934Y229873D02*
Y229778D01*
Y229873D02*
X209053D01*
X207503Y226723*
X209053Y229873D02*
X212080D01*
X210529Y207825D02*
Y226723D01*
Y207825D02*
X207503D01*
X210529D02*
X208591Y205857D01*
X210529Y226723D02*
X212080Y229873D01*
Y226723*
Y229873D02*
X219835D01*
X216808D02*
X209053D01*
X218973Y159676D02*
X221335D01*
X218973D02*
Y162038D01*
X219367*
Y160070*
X219835Y207825D02*
X210529D01*
X219835D02*
Y205857D01*
Y207825D02*
Y226723D01*
X297442*
X219835D02*
X210529D01*
X219835Y229873D02*
X297443D01*
X219835D02*
Y226723D01*
X220942Y160070D02*
X219367D01*
X220942Y162038D02*
Y160070D01*
X221335Y159676D02*
Y162038D01*
X220942*
X223481Y149676D02*
Y152038D01*
X223875*
X223481Y169676D02*
Y172038D01*
X223875*
Y150070D02*
X225450D01*
X223875Y152038D02*
Y150070D01*
Y170070D02*
X225450D01*
X223875Y172038D02*
Y170070D01*
X225450Y150070D02*
Y152038D01*
X225843*
X225450Y170070D02*
Y172038D01*
X225843*
Y149676D02*
X223481D01*
X225843Y152038D02*
Y149676D01*
Y169676D02*
X223481D01*
X225843Y172038D02*
Y169676D01*
X225961Y212156D02*
Y220030D01*
X233048*
X227989Y159676D02*
Y162038D01*
X228383*
Y160070D02*
X229957D01*
X228383Y162038D02*
Y160070D01*
X229957D02*
Y162038D01*
X230351*
Y159676D02*
X227989D01*
X230351Y162038D02*
Y159676D01*
X232497Y149676D02*
Y152038D01*
X232891*
X232497Y169676D02*
Y172038D01*
X232891*
Y150070D02*
X234465D01*
X232891Y152038D02*
Y150070D01*
Y170070D02*
X234465D01*
X232891Y172038D02*
Y170070D01*
X233048Y212156D02*
X225961D01*
X233048Y220030D02*
Y212156D01*
X234465Y150070D02*
Y152038D01*
X234859*
X234465Y170070D02*
Y172038D01*
X234859*
Y149676D02*
X232497D01*
X234859Y152038D02*
Y149676D01*
Y169676D02*
X232497D01*
X234859Y172038D02*
Y169676D01*
X237005Y159676D02*
Y162038D01*
X237398*
Y160070D02*
X238973D01*
X237398Y162038D02*
Y160070D01*
X238973D02*
Y162038D01*
X239367*
Y159676D02*
X237005D01*
X239367Y162038D02*
Y159676D01*
X240528Y212156D02*
Y220030D01*
X247615*
X241513Y149676D02*
Y152038D01*
X241906*
X241513Y169676D02*
Y172038D01*
X241906*
Y150070D02*
X243481D01*
X241906Y152038D02*
Y150070D01*
Y170070D02*
X243481D01*
X241906Y172038D02*
Y170070D01*
X243481Y150070D02*
Y152038D01*
X243875*
X243481Y170070D02*
Y172038D01*
X243875*
Y149676D02*
X241513D01*
X243875Y152038D02*
Y149676D01*
Y169676D02*
X241513D01*
X243875Y172038D02*
Y169676D01*
X246020Y159676D02*
Y162038D01*
X246414*
Y160070D02*
X247989D01*
X246414Y162038D02*
Y160070D01*
X247615Y212156D02*
X240528D01*
X247615Y220030D02*
Y212156D01*
X247989Y160070D02*
Y162038D01*
X248383*
Y159676D02*
X246020D01*
X248383Y162038D02*
Y159676D01*
X250528Y149676D02*
Y152038D01*
X250922*
X250528Y169676D02*
Y172038D01*
X250922*
Y150070D02*
X252497D01*
X250922Y152038D02*
Y150070D01*
Y170070D02*
X252497D01*
X250922Y172038D02*
Y170070D01*
X252497Y150070D02*
Y152038D01*
X252891*
X252497Y170070D02*
Y172038D01*
X252891*
Y149676D02*
X250528D01*
X252891Y152038D02*
Y149676D01*
Y169676D02*
X250528D01*
X252891Y172038D02*
Y169676D01*
X255036Y159676D02*
Y162038D01*
X255430*
X255095Y212156D02*
Y220030D01*
X262182*
X255430Y160070D02*
X257005D01*
X255430Y162038D02*
Y160070D01*
X257005D02*
Y162038D01*
X257398*
Y159676D02*
X255036D01*
X257398Y162038D02*
Y159676D01*
X259544Y149676D02*
Y152038D01*
X259938*
X259544Y169676D02*
Y172038D01*
X259938*
Y150070D02*
X261513D01*
X259938Y152038D02*
Y150070D01*
Y170070D02*
X261513D01*
X259938Y172038D02*
Y170070D01*
X261513Y150070D02*
Y152038D01*
X261906*
X261513Y170070D02*
Y172038D01*
X261906*
Y149676D02*
X259544D01*
X261906Y152038D02*
Y149676D01*
Y169676D02*
X259544D01*
X261906Y172038D02*
Y169676D01*
X262182Y212156D02*
X255095D01*
X262182Y220030D02*
Y212156D01*
X264052Y159676D02*
Y162038D01*
X264446*
Y160070D02*
X266020D01*
X264446Y162038D02*
Y160070D01*
X266020D02*
Y162038D01*
X266414*
Y159676D02*
X264052D01*
X266414Y162038D02*
Y159676D01*
X268560Y149676D02*
Y152038D01*
X268954*
X268560Y169676D02*
Y172038D01*
X268954*
Y150070D02*
X270528D01*
X268954Y152038D02*
Y150070D01*
Y170070D02*
X270528D01*
X268954Y172038D02*
Y170070D01*
X269662Y212156D02*
Y220030D01*
X276749*
X270528Y150070D02*
Y152038D01*
X270922*
X270528Y170070D02*
Y172038D01*
X270922*
Y149676D02*
X268560D01*
X270922Y152038D02*
Y149676D01*
Y169676D02*
X268560D01*
X270922Y172038D02*
Y169676D01*
X273068Y159676D02*
Y162038D01*
X273461*
Y160070D02*
X275036D01*
X273461Y162038D02*
Y160070D01*
X275036D02*
Y162038D01*
X275430*
Y159676D02*
X273068D01*
X275430Y162038D02*
Y159676D01*
X276749Y212156D02*
X269662D01*
X276749Y220030D02*
Y212156D01*
X277576Y149676D02*
Y152038D01*
X277969*
X277576Y169676D02*
Y172038D01*
X277969*
Y150070D02*
X279544D01*
X277969Y152038D02*
Y150070D01*
Y170070D02*
X279544D01*
X277969Y172038D02*
Y170070D01*
X279544Y150070D02*
Y152038D01*
X279938*
X279544Y170070D02*
Y172038D01*
X279938*
Y149676D02*
X277576D01*
X279938Y152038D02*
Y149676D01*
Y169676D02*
X277576D01*
X279938Y172038D02*
Y169676D01*
X282083Y159676D02*
Y162038D01*
X282477*
Y160070D02*
X284052D01*
X282477Y162038D02*
Y160070D01*
X284052D02*
Y162038D01*
X284446*
X284229Y212156D02*
Y220030D01*
X291316*
X284446Y159676D02*
X282083D01*
X284446Y162038D02*
Y159676D01*
X286591Y149676D02*
Y152038D01*
X286985*
X286591Y169676D02*
Y172038D01*
X286985*
Y150070D02*
X288560D01*
X286985Y152038D02*
Y150070D01*
Y170070D02*
X288560D01*
X286985Y172038D02*
Y170070D01*
X288560Y150070D02*
Y152038D01*
X288954*
X288560Y170070D02*
Y172038D01*
X288954*
Y149676D02*
X286591D01*
X288954Y152038D02*
Y149676D01*
Y169676D02*
X286591D01*
X288954Y172038D02*
Y169676D01*
X291099Y159676D02*
Y162038D01*
X291493*
X291316Y212156D02*
X284229D01*
X291316Y220030D02*
Y212156D01*
X291493Y160070D02*
X293068D01*
X291493Y162038D02*
Y160070D01*
X293068D02*
Y162038D01*
X293461*
Y159676D02*
X291099D01*
X293461Y162038D02*
Y159676D01*
X295607Y149676D02*
Y152038D01*
X296001*
Y150070D02*
X297576D01*
X296001Y152038D02*
Y150070D01*
X297443Y207825D02*
X306748D01*
X297443D02*
Y205857D01*
Y207825D02*
X219835D01*
X297443Y226723D02*
Y207825D01*
Y226723D02*
Y229873D01*
Y226723*
Y229873D02*
X305197D01*
X297576Y150070D02*
Y152038D01*
X297969*
Y149676D02*
X295607D01*
X297969Y152038D02*
Y149676D01*
X305197Y229873D02*
Y226723D01*
Y229873D02*
X306748Y226723D01*
X305197Y229873D02*
X308224D01*
X306748Y207825D02*
Y226723D01*
X309775*
X306748D02*
X297442D01*
X308224Y229873D02*
X300469D01*
X308224D02*
X308343D01*
Y229778*
X308686Y205857D02*
X306748Y207825D01*
X309775Y226723D02*
X309775D01*
Y207825D02*
Y226723D01*
Y207825D02*
X306748D01*
X309775D02*
X311713Y205857D01*
X309775Y226723D02*
X308224Y229873D01*
X309918Y207825D02*
Y226723D01*
Y207825D02*
X309918Y207081D01*
X309918Y207825D02*
X309775D01*
X309918Y226723D02*
X309775D01*
X311552Y191881D02*
Y142471D01*
X313393Y205857D02*
Y223574D01*
X318791*
X314968Y224755D02*
X314757Y224741D01*
X314550Y224701*
X314350Y224634*
X314160Y224542*
X313983Y224426*
X313823Y224289*
X313682Y224133*
X313562Y223959*
X313465Y223772*
X313393Y223574*
X314968Y224755D02*
X333412D01*
X315495Y224742D02*
X315475Y224741D01*
X316709Y159873D02*
Y161841D01*
X319689*
X316940Y224730D02*
X316699Y224741D01*
X317300Y157825D02*
X317315Y157365D01*
X317361Y156907*
X317438Y156453*
X317545Y156005*
X317681Y155565*
X317847Y155136*
X318041Y154718*
X318262Y154314*
X318510Y153926*
X318783Y153556*
X319080Y153204*
X319400Y152873*
X319742Y152564*
X320103Y152279*
X320482Y152018*
X320879Y151783*
X321290Y151576*
X321714Y151396*
X322148Y151245*
X322593Y151123*
X323044Y151032*
X323500Y150970*
X323960Y150939*
X324420*
X324879Y150970*
X325336Y151032*
X325787Y151123*
X326231Y151245*
X326666Y151396*
X327090Y151576*
X327501Y151783*
X327897Y152018*
X328277Y152279*
X328638Y152564*
X328979Y152873*
X329300Y153204*
X329597Y153555*
X329870Y153926*
X330118Y154314*
X330339Y154718*
X330533Y155136*
X330698Y155565*
X330835Y156005*
X330942Y156453*
X331018Y156907*
X331064Y157365*
X331080Y157825*
X317300D02*
Y159873D01*
Y161841D02*
Y204282D01*
X318245Y167607D02*
Y161841D01*
X318791Y205857D02*
Y223574D01*
X329588*
X319689Y159873D02*
Y161841D01*
Y159873D02*
X316709D01*
X319689Y161841D02*
X320056D01*
Y159873D02*
Y161841D01*
Y159873D02*
X319689D01*
X320056Y161841D02*
X321237D01*
Y159873D02*
Y161841D01*
Y159873D02*
X320056D01*
X321237Y161841D02*
X321631D01*
Y159873D02*
X321237D01*
X321631Y161841D02*
Y164400D01*
Y161841D02*
Y159873D01*
X326749D02*
Y161841D01*
Y164400D02*
Y161841D01*
Y164400D02*
X326734Y164677D01*
X326689Y164950*
X326615Y165217*
X326512Y165475*
X326382Y165720*
X326227Y165949*
X326048Y166160*
X325846Y166351*
X325626Y166518*
X325388Y166661*
X325137Y166777*
X324874Y166866*
X324604Y166926*
X324328Y166955*
X324051*
X323776Y166926*
X323505Y166866*
X323243Y166777*
X322991Y166661*
X322754Y166518*
X322533Y166351*
X322332Y166160*
X322153Y165949*
X321997Y165720*
X321867Y165475*
X321765Y165217*
X321691Y164950*
X321646Y164677*
X321631Y164400*
X327143Y159873D02*
Y161841D01*
Y159873D02*
X326749D01*
X327143Y161841D02*
X328324D01*
X327143D02*
X326749D01*
X328324Y159873D02*
X327143D01*
X328324Y161841D02*
Y159873D01*
Y161841D02*
X328690D01*
Y159873D02*
X328324D01*
X328690Y161841D02*
Y159873D01*
Y161841D02*
X331670D01*
X329588Y223574D02*
Y205857D01*
Y223574D02*
X334987D01*
X330135Y161841D02*
Y167607D01*
X330686Y204282D02*
X317300D01*
X330686Y205857D02*
Y204282D01*
Y205857D02*
X335804D01*
X331076Y204282D02*
X330686D01*
X331076D02*
X335804D01*
X331080Y157825D02*
Y159873D01*
Y161841D02*
Y204282D01*
Y164125D02*
X331064Y164585D01*
X331018Y165043*
X330941Y165497*
X330835Y165945*
X330698Y166385*
X330533Y166814*
X330339Y167232*
X330118Y167636*
X329870Y168024*
X329597Y168395*
X329300Y168746*
X328979Y169077*
X328638Y169386*
X328277Y169671*
X327897Y169932*
X327501Y170167*
X327090Y170374*
X326666Y170554*
X326231Y170705*
X325787Y170827*
X325336Y170919*
X324879Y170980*
X324420Y171011*
X323960*
X323500Y170980*
X323044Y170919*
X322593Y170827*
X322149Y170705*
X321714Y170554*
X321290Y170374*
X320879Y170167*
X320483Y169932*
X320103Y169671*
X319742Y169386*
X319400Y169077*
X319080Y168746*
X318783Y168395*
X318509Y168024*
X318262Y167636*
X318040Y167232*
X317847Y166814*
X317681Y166385*
X317545Y165945*
X317438Y165497*
X317361Y165043*
X317315Y164585*
X317300Y164125*
X331670Y159873D02*
X328690D01*
X331670Y161841D02*
Y159873D01*
X332566Y224748D02*
X332565D01*
X333079Y224734D02*
X332884Y224742D01*
X333631Y224674D02*
X333522Y224692D01*
X334135Y224528D02*
X334078Y224551D01*
X334987Y205857D02*
Y223574D01*
X334915Y223772*
X334818Y223959*
X334698Y224133*
X334556Y224289*
X334396Y224426*
X334220Y224542*
X334030Y224634*
X333829Y224701*
X333622Y224741*
X333412Y224755*
X335804Y142471D02*
X311552D01*
X335804Y204282D02*
Y205857D01*
Y204282D02*
Y142471D01*
X380728Y9685D02*
Y2795D01*
Y144134D02*
Y137244D01*
X381207Y11850D02*
Y13031D01*
Y15787D02*
Y16969D01*
Y19724D02*
Y20906D01*
Y23661D02*
Y24843D01*
Y27598D02*
Y28780D01*
Y31535D02*
Y32717D01*
Y35472D02*
Y36654D01*
Y39409D02*
Y40591D01*
Y43346D02*
Y44528D01*
Y47283D02*
Y48465D01*
Y51220D02*
Y52402D01*
Y55157D02*
Y56339D01*
Y59094D02*
Y60276D01*
Y63031D02*
Y64213D01*
Y66969D02*
Y68150D01*
Y70906D02*
Y72087D01*
Y74843D02*
Y76024D01*
Y78780D02*
Y79961D01*
Y82717D02*
Y83898D01*
Y86654D02*
Y87835D01*
Y90591D02*
Y91772D01*
Y94528D02*
Y95709D01*
Y98465D02*
Y99646D01*
Y102402D02*
Y103583D01*
Y106339D02*
Y107520D01*
Y110276D02*
Y111457D01*
Y114213D02*
Y115394D01*
Y118150D02*
Y119331D01*
Y122087D02*
Y123268D01*
Y126024D02*
Y127205D01*
Y129961D02*
Y131142D01*
Y133898D02*
Y135079D01*
X385059Y5748D02*
X386692D01*
X385846Y10472D02*
Y136457D01*
Y10472D02*
X386831D01*
X385846Y11850D02*
X381207D01*
X385846Y13031D02*
X381207D01*
X385846Y15787D02*
X381207D01*
X385846Y16969D02*
X381207D01*
X385846Y19724D02*
X381207D01*
X385846Y20906D02*
X381207D01*
X385846Y23661D02*
X381207D01*
X385846Y24843D02*
X381207D01*
X385846Y27598D02*
X381207D01*
X385846Y28780D02*
X381207D01*
X385846Y31535D02*
X381207D01*
X385846Y32717D02*
X381207D01*
X385846Y35472D02*
X381207D01*
X385846Y36654D02*
X381207D01*
X385846Y39409D02*
X381207D01*
X385846Y40591D02*
X381207D01*
X385846Y43346D02*
X381207D01*
X385846Y44528D02*
X381207D01*
X385846Y47283D02*
X381207D01*
X385846Y48465D02*
X381207D01*
X385846Y51220D02*
X381207D01*
X385846Y52402D02*
X381207D01*
X385846Y55157D02*
X381207D01*
X385846Y56339D02*
X381207D01*
X385846Y59094D02*
X381207D01*
X385846Y60276D02*
X381207D01*
X385846Y63031D02*
X381207D01*
X385846Y64213D02*
X381207D01*
X385846Y66969D02*
X381207D01*
X385846Y68150D02*
X381207D01*
X385846Y70906D02*
X381207D01*
X385846Y72087D02*
X381207D01*
X385846Y74843D02*
X381207D01*
X385846Y76024D02*
X381207D01*
X385846Y78780D02*
X381207D01*
X385846Y79961D02*
X381207D01*
X385846Y82717D02*
X381207D01*
X385846Y83898D02*
X381207D01*
X385846Y86654D02*
X381207D01*
X385846Y87835D02*
X381207D01*
X385846Y90591D02*
X381207D01*
X385846Y91772D02*
X381207D01*
X385846Y94528D02*
X381207D01*
X385846Y95709D02*
X381207D01*
X385846Y98465D02*
X381207D01*
X385846Y99646D02*
X381207D01*
X385846Y102402D02*
X381207D01*
X385846Y103583D02*
X381207D01*
X385846Y106339D02*
X381207D01*
X385846Y107520D02*
X381207D01*
X385846Y110276D02*
X381207D01*
X385846Y111457D02*
X381207D01*
X385846Y114213D02*
X381207D01*
X385846Y115394D02*
X381207D01*
X385846Y118150D02*
X381207D01*
X385846Y119331D02*
X381207D01*
X385846Y122087D02*
X381207D01*
X385846Y123268D02*
X381207D01*
X385846Y126024D02*
X381207D01*
X385846Y127205D02*
X381207D01*
X385846Y129961D02*
X381207D01*
X385846Y131142D02*
X381207D01*
X385846Y133898D02*
X381207D01*
X385846Y135079D02*
X381207D01*
X386499Y3150D02*
X385059Y5748D01*
X386692D02*
X386821Y5472D01*
X388139*
X386831Y10472D02*
Y136457D01*
X385846*
X386831D02*
X387874D01*
X386890Y8268D02*
Y10472D01*
Y9685D02*
X380728D01*
X386890Y136457D02*
Y138661D01*
Y137244D02*
X380728D01*
X386890Y138661D02*
X386903Y138904D01*
X386944Y139143*
X387011Y139377*
X387104Y139601*
X387222Y139813*
X387362Y140011*
X387524Y140193*
X387705Y140354*
X387903Y140495*
X388116Y140612*
X388340Y140705*
X388573Y140772*
X388813Y140813*
X389055Y140827*
X387126Y4818D02*
X387474Y4071D01*
X387828Y4818*
X387126*
X387874Y8268D02*
X386890D01*
X387874D02*
Y10472D01*
X386831*
X387874Y136457D02*
Y138661D01*
X386890*
X387874D02*
X387889Y138846D01*
X387932Y139026*
X388003Y139198*
X388100Y139356*
X388220Y139497*
X388361Y139617*
X388519Y139714*
X388690Y139785*
X388870Y139828*
X389055Y139843*
X388139Y5472D02*
X388270Y5748D01*
X389903*
X388463Y3150D02*
X386499D01*
X389055Y6102D02*
X388813Y6116D01*
X388573Y6157*
X388340Y6224*
X388116Y6317*
X387903Y6434*
X387705Y6575*
X387524Y6737*
X387362Y6918*
X387222Y7116*
X387104Y7328*
X387011Y7553*
X386944Y7786*
X386903Y8025*
X386890Y8268*
X389055Y7087D02*
Y6102D01*
Y7087D02*
X388870Y7101D01*
X388690Y7144*
X388519Y7215*
X388361Y7312*
X388220Y7433*
X388100Y7574*
X388003Y7732*
X387932Y7903*
X387889Y8083*
X387874Y8268*
X389055Y139843D02*
Y140827D01*
Y139843D02*
X389134D01*
X389055Y140827D02*
X389921D01*
X389134Y7087D02*
Y139843D01*
Y7087D02*
X389921Y6299D01*
X389134Y7087D02*
X389055D01*
X389903Y5748D02*
X388463Y3150D01*
X389921Y6102D02*
X389055D01*
X389921D02*
Y6299D01*
Y140630*
Y8898D02*
X395354D01*
X389921Y140630D02*
Y140827D01*
Y140630D02*
X389134Y139843D01*
X389985Y3150D02*
Y5748D01*
X391414*
X390274Y11575D02*
Y13307D01*
Y11575D02*
X389921D01*
X390274Y13307D02*
X389921D01*
X390274Y15512D02*
Y17244D01*
Y15512D02*
X389921D01*
X390274Y17244D02*
X389921D01*
X390274Y19449D02*
Y21181D01*
Y19449D02*
X389921D01*
X390274Y21181D02*
X389921D01*
X390274Y23386D02*
Y25118D01*
Y23386D02*
X389921D01*
X390274Y25118D02*
X389921D01*
X390274Y27323D02*
Y29055D01*
Y27323D02*
X389921D01*
X390274Y29055D02*
X389921D01*
X390274Y31260D02*
Y32992D01*
Y31260D02*
X389921D01*
X390274Y32992D02*
X389921D01*
X390274Y35197D02*
Y36929D01*
Y35197D02*
X389921D01*
X390274Y36929D02*
X389921D01*
X390274Y39134D02*
Y40866D01*
Y39134D02*
X389921D01*
X390274Y40866D02*
X389921D01*
X390274Y43071D02*
Y44803D01*
Y43071D02*
X389921D01*
X390274Y44803D02*
X389921D01*
X390274Y47008D02*
Y48740D01*
Y47008D02*
X389921D01*
X390274Y48740D02*
X389921D01*
X390274Y50945D02*
Y52677D01*
Y50945D02*
X389921D01*
X390274Y52677D02*
X389921D01*
X390274Y54882D02*
Y56614D01*
Y54882D02*
X389921D01*
X390274Y56614D02*
X389921D01*
X390274Y58819D02*
Y60551D01*
Y58819D02*
X389921D01*
X390274Y60551D02*
X389921D01*
X390274Y62756D02*
Y64488D01*
Y62756D02*
X389921D01*
X390274Y64488D02*
X389921D01*
X390274Y66693D02*
Y68425D01*
Y66693D02*
X389921D01*
X390274Y68425D02*
X389921D01*
X390274Y70630D02*
Y72362D01*
Y70630D02*
X389921D01*
X390274Y72362D02*
X389921D01*
X390274Y74567D02*
Y76299D01*
Y74567D02*
X389921D01*
X390274Y76299D02*
X389921D01*
X390274Y78504D02*
Y80236D01*
Y78504D02*
X389921D01*
X390274Y80236D02*
X389921D01*
X390274Y82441D02*
Y84173D01*
Y82441D02*
X389921D01*
X390274Y84173D02*
X389921D01*
X390274Y86378D02*
Y88110D01*
Y86378D02*
X389921D01*
X390274Y88110D02*
X389921D01*
X390274Y90315D02*
Y92047D01*
Y90315D02*
X389921D01*
X390274Y92047D02*
X389921D01*
X390274Y94252D02*
Y95984D01*
Y94252D02*
X389921D01*
X390274Y95984D02*
X389921D01*
X390274Y98189D02*
Y99921D01*
Y98189D02*
X389921D01*
X390274Y99921D02*
X389921D01*
X390274Y102126D02*
Y103858D01*
Y102126D02*
X389921D01*
X390274Y103858D02*
X389921D01*
X390274Y106063D02*
Y107795D01*
Y106063D02*
X389921D01*
X390274Y107795D02*
X389921D01*
X390274Y110000D02*
Y111732D01*
Y110000D02*
X389921D01*
X390274Y111732D02*
X389921D01*
X390274Y113937D02*
Y115669D01*
Y113937D02*
X389921D01*
X390274Y115669D02*
X389921D01*
X390274Y117874D02*
Y119606D01*
Y117874D02*
X389921D01*
X390274Y119606D02*
X389921D01*
X390274Y121811D02*
Y123543D01*
Y121811D02*
X389921D01*
X390274Y123543D02*
X389921D01*
X390274Y125748D02*
Y127480D01*
Y125748D02*
X389921D01*
X390274Y127480D02*
X389921D01*
X390274Y129685D02*
Y131417D01*
Y129685D02*
X389921D01*
X390274Y131417D02*
X389921D01*
X390274Y133622D02*
Y135354D01*
Y133622D02*
X389921D01*
X390274Y135354D02*
X389921D01*
X390996Y11575D02*
Y13307D01*
Y11575D02*
X390274D01*
X390996Y13307D02*
X390274D01*
X390996Y15512D02*
Y17244D01*
Y15512D02*
X390274D01*
X390996Y17244D02*
X390274D01*
X390996Y19449D02*
Y21181D01*
Y19449D02*
X390274D01*
X390996Y21181D02*
X390274D01*
X390996Y23386D02*
Y25118D01*
Y23386D02*
X390274D01*
X390996Y25118D02*
X390274D01*
X390996Y27323D02*
Y29055D01*
Y27323D02*
X390274D01*
X390996Y29055D02*
X390274D01*
X390996Y31260D02*
Y32992D01*
Y31260D02*
X390274D01*
X390996Y32992D02*
X390274D01*
X390996Y35197D02*
Y36929D01*
Y35197D02*
X390274D01*
X390996Y36929D02*
X390274D01*
X390996Y39134D02*
Y40866D01*
Y39134D02*
X390274D01*
X390996Y40866D02*
X390274D01*
X390996Y43071D02*
Y44803D01*
Y43071D02*
X390274D01*
X390996Y44803D02*
X390274D01*
X390996Y47008D02*
Y48740D01*
Y47008D02*
X390274D01*
X390996Y48740D02*
X390274D01*
X390996Y50945D02*
Y52677D01*
Y50945D02*
X390274D01*
X390996Y52677D02*
X390274D01*
X390996Y54882D02*
Y56614D01*
Y54882D02*
X390274D01*
X390996Y56614D02*
X390274D01*
X390996Y58819D02*
Y60551D01*
Y58819D02*
X390274D01*
X390996Y60551D02*
X390274D01*
X390996Y62756D02*
Y64488D01*
Y62756D02*
X390274D01*
X390996Y64488D02*
X390274D01*
X390996Y66693D02*
Y68425D01*
Y66693D02*
X390274D01*
X390996Y68425D02*
X390274D01*
X390996Y70630D02*
Y72362D01*
Y70630D02*
X390274D01*
X390996Y72362D02*
X390274D01*
X390996Y74567D02*
Y76299D01*
Y74567D02*
X390274D01*
X390996Y76299D02*
X390274D01*
X390996Y78504D02*
Y80236D01*
Y78504D02*
X390274D01*
X390996Y80236D02*
X390274D01*
X390996Y82441D02*
Y84173D01*
Y82441D02*
X390274D01*
X390996Y84173D02*
X390274D01*
X390996Y86378D02*
Y88110D01*
Y86378D02*
X390274D01*
X390996Y88110D02*
X390274D01*
X390996Y90315D02*
Y92047D01*
Y90315D02*
X390274D01*
X390996Y92047D02*
X390274D01*
X390996Y94252D02*
Y95984D01*
Y94252D02*
X390274D01*
X390996Y95984D02*
X390274D01*
X390996Y98189D02*
Y99921D01*
Y98189D02*
X390274D01*
X390996Y99921D02*
X390274D01*
X390996Y102126D02*
Y103858D01*
Y102126D02*
X390274D01*
X390996Y103858D02*
X390274D01*
X390996Y106063D02*
Y107795D01*
Y106063D02*
X390274D01*
X390996Y107795D02*
X390274D01*
X390996Y110000D02*
Y111732D01*
Y110000D02*
X390274D01*
X390996Y111732D02*
X390274D01*
X390996Y113937D02*
Y115669D01*
Y113937D02*
X390274D01*
X390996Y115669D02*
X390274D01*
X390996Y117874D02*
Y119606D01*
Y117874D02*
X390274D01*
X390996Y119606D02*
X390274D01*
X390996Y121811D02*
Y123543D01*
Y121811D02*
X390274D01*
X390996Y123543D02*
X390274D01*
X390996Y125748D02*
Y127480D01*
Y125748D02*
X390274D01*
X390996Y127480D02*
X390274D01*
X390996Y129685D02*
Y131417D01*
Y129685D02*
X390274D01*
X390996Y131417D02*
X390274D01*
X390996Y133622D02*
Y135354D01*
Y133622D02*
X390274D01*
X390996Y135354D02*
X390274D01*
X391077Y8898D02*
Y11575D01*
Y13307D02*
Y15512D01*
Y17244D02*
Y19449D01*
Y21181D02*
Y23386D01*
Y25118D02*
Y27323D01*
Y29055D02*
Y31260D01*
Y32992D02*
Y35197D01*
Y36929D02*
Y39134D01*
Y40866D02*
Y43071D01*
Y44803D02*
Y47008D01*
Y48740D02*
Y50945D01*
Y52677D02*
Y54882D01*
Y56614D02*
Y58819D01*
Y60551D02*
Y62756D01*
Y64488D02*
Y66693D01*
Y68425D02*
Y70630D01*
Y72362D02*
Y74567D01*
Y76299D02*
Y78504D01*
Y80236D02*
Y82441D01*
Y84173D02*
Y86378D01*
Y88110D02*
Y90315D01*
Y92047D02*
Y94252D01*
Y95984D02*
Y98189D01*
Y99921D02*
Y102126D01*
Y103858D02*
Y106063D01*
Y107795D02*
Y110000D01*
Y111732D02*
Y113937D01*
Y115669D02*
Y117874D01*
Y119606D02*
Y121811D01*
Y123543D02*
Y125748D01*
Y127480D02*
Y129685D01*
Y131417D02*
Y133622D01*
Y135354D02*
Y138031D01*
X391414Y4071D02*
X392123Y5748D01*
X391414D02*
Y4071D01*
X391457Y11575D02*
Y13307D01*
Y11575D02*
X390996D01*
X391457Y13307D02*
X390996D01*
X391457Y15512D02*
Y17244D01*
Y15512D02*
X390996D01*
X391457Y17244D02*
X390996D01*
X391457Y19449D02*
Y21181D01*
Y19449D02*
X390996D01*
X391457Y21181D02*
X390996D01*
X391457Y23386D02*
Y25118D01*
Y23386D02*
X390996D01*
X391457Y25118D02*
X390996D01*
X391457Y27323D02*
Y29055D01*
Y27323D02*
X390996D01*
X391457Y29055D02*
X390996D01*
X391457Y31260D02*
Y32992D01*
Y31260D02*
X390996D01*
X391457Y32992D02*
X390996D01*
X391457Y35197D02*
Y36929D01*
Y35197D02*
X390996D01*
X391457Y36929D02*
X390996D01*
X391457Y39134D02*
Y40866D01*
Y39134D02*
X390996D01*
X391457Y40866D02*
X390996D01*
X391457Y43071D02*
Y44803D01*
Y43071D02*
X390996D01*
X391457Y44803D02*
X390996D01*
X391457Y47008D02*
Y48740D01*
Y47008D02*
X390996D01*
X391457Y48740D02*
X390996D01*
X391457Y50945D02*
Y52677D01*
Y50945D02*
X390996D01*
X391457Y52677D02*
X390996D01*
X391457Y54882D02*
Y56614D01*
Y54882D02*
X390996D01*
X391457Y56614D02*
X390996D01*
X391457Y58819D02*
Y60551D01*
Y58819D02*
X390996D01*
X391457Y60551D02*
X390996D01*
X391457Y62756D02*
Y64488D01*
Y62756D02*
X390996D01*
X391457Y64488D02*
X390996D01*
X391457Y66693D02*
Y68425D01*
Y66693D02*
X390996D01*
X391457Y68425D02*
X390996D01*
X391457Y70630D02*
Y72362D01*
Y70630D02*
X390996D01*
X391457Y72362D02*
X390996D01*
X391457Y74567D02*
Y76299D01*
Y74567D02*
X390996D01*
X391457Y76299D02*
X390996D01*
X391457Y78504D02*
Y80236D01*
Y78504D02*
X390996D01*
X391457Y80236D02*
X390996D01*
X391457Y82441D02*
Y84173D01*
Y82441D02*
X390996D01*
X391457Y84173D02*
X390996D01*
X391457Y86378D02*
Y88110D01*
Y86378D02*
X390996D01*
X391457Y88110D02*
X390996D01*
X391457Y90315D02*
Y92047D01*
Y90315D02*
X390996D01*
X391457Y92047D02*
X390996D01*
X391457Y94252D02*
Y95984D01*
Y94252D02*
X390996D01*
X391457Y95984D02*
X390996D01*
X391457Y98189D02*
Y99921D01*
Y98189D02*
X390996D01*
X391457Y99921D02*
X390996D01*
X391457Y102126D02*
Y103858D01*
Y102126D02*
X390996D01*
X391457Y103858D02*
X390996D01*
X391457Y106063D02*
Y107795D01*
Y106063D02*
X390996D01*
X391457Y107795D02*
X390996D01*
X391457Y110000D02*
Y111732D01*
Y110000D02*
X390996D01*
X391457Y111732D02*
X390996D01*
X391457Y113937D02*
Y115669D01*
Y113937D02*
X390996D01*
X391457Y115669D02*
X390996D01*
X391457Y117874D02*
Y119606D01*
Y117874D02*
X390996D01*
X391457Y119606D02*
X390996D01*
X391457Y121811D02*
Y123543D01*
Y121811D02*
X390996D01*
X391457Y123543D02*
X390996D01*
X391457Y125748D02*
Y127480D01*
Y125748D02*
X390996D01*
X391457Y127480D02*
X390996D01*
X391457Y129685D02*
Y131417D01*
Y129685D02*
X390996D01*
X391457Y131417D02*
X390996D01*
X391457Y133622D02*
Y135354D01*
Y133622D02*
X390996D01*
X391457Y135354D02*
X390996D01*
X392123Y5748D02*
X393449D01*
X392243Y3150D02*
X389985D01*
X392786Y4493D02*
X392243Y3150D01*
X393329D02*
X392786Y4493D01*
X393449Y5748D02*
X394158Y4071D01*
Y5748*
X395587*
X394198Y8898D02*
Y138031D01*
X395354Y6102D02*
X389921D01*
X395354Y6299D02*
X396142Y7087D01*
X395354Y6299D02*
Y6102D01*
Y138031D02*
X389921D01*
X395354Y140630D02*
Y6299D01*
Y140827D02*
X396220D01*
X395354D02*
X389921D01*
X395354D02*
Y140630D01*
X395587Y3150D02*
X393329D01*
X395587Y5748D02*
Y3150D01*
X395977D02*
Y5748D01*
X397413*
X396142Y139843D02*
Y7087D01*
Y139843D02*
X395354Y140630D01*
X396142Y139843D02*
X396220D01*
Y6102D02*
X395354D01*
X396220Y7087D02*
Y6102D01*
Y7087D02*
X396142D01*
X396220Y139843D02*
Y140827D01*
Y139843D02*
X396405Y139828D01*
X396585Y139785*
X396757Y139714*
X396915Y139617*
X397056Y139497*
X397176Y139356*
X397273Y139198*
X397344Y139026*
X397387Y138846*
X397402Y138661*
X396220Y140827D02*
X396463Y140813D01*
X396702Y140772*
X396936Y140705*
X397160Y140612*
X397373Y140495*
X397571Y140354*
X397752Y140193*
X397913Y140011*
X398054Y139813*
X398171Y139601*
X398264Y139377*
X398332Y139143*
X398372Y138904*
X398386Y138661*
X397402Y8268D02*
X398386D01*
X397402D02*
X397387Y8083D01*
X397344Y7903*
X397273Y7731*
X397176Y7573*
X397056Y7433*
X396915Y7312*
X396757Y7215*
X396585Y7144*
X396405Y7101*
X396220Y7087*
X397402Y10472D02*
Y8268D01*
Y136457D02*
X398445D01*
X397402Y138661D02*
X398386D01*
X397402D02*
Y136457D01*
X397413Y3878D02*
X398617D01*
X397413Y4264D02*
Y3878D01*
Y4989D02*
X398617D01*
X397413Y5748D02*
Y4989D01*
X398386Y8268D02*
X398372Y8025D01*
X398332Y7786*
X398264Y7553*
X398171Y7328*
X398054Y7116*
X397913Y6918*
X397752Y6737*
X397571Y6575*
X397373Y6434*
X397160Y6317*
X396936Y6224*
X396702Y6157*
X396463Y6116*
X396220Y6102*
X398386Y10472D02*
Y8268D01*
Y138661D02*
Y136457D01*
X398445Y10472D02*
X399429D01*
X398445D02*
X397402D01*
X398445Y136457D02*
Y10472D01*
X398617Y3150D02*
X395977D01*
X398617D02*
X399087Y3169D01*
X398617Y4264D02*
X398691Y4250D01*
X398754Y4208*
X398796Y4145*
X398811Y4071*
X398796Y3997*
X398754Y3934*
X398691Y3893*
X398617Y3878*
Y4264D02*
X397413D01*
X398617Y4989D02*
X400346Y4071D01*
X399084Y4970D02*
X398617Y4989D01*
X399230Y3185D02*
X399689Y3285D01*
X399429Y136457D02*
Y10472D01*
Y136457D02*
X398445D01*
X399689Y4854D02*
X399229Y4954D01*
X399931Y3389D02*
X400124Y3529D01*
X400122Y4613D02*
X399933Y4750D01*
X400218Y3636D02*
X400346Y4071D01*
X398617Y3150*
X400346Y4071D02*
X400216Y4507D01*
X404069Y11850D02*
Y13031D01*
Y11850D02*
X399429D01*
X404069Y13031D02*
X399429D01*
X404069Y15787D02*
Y16969D01*
Y15787D02*
X399429D01*
X404069Y16969D02*
X399429D01*
X404069Y19724D02*
Y20906D01*
Y19724D02*
X399429D01*
X404069Y20906D02*
X399429D01*
X404069Y23661D02*
Y24843D01*
Y23661D02*
X399429D01*
X404069Y24843D02*
X399429D01*
X404069Y27598D02*
Y28780D01*
Y27598D02*
X399429D01*
X404069Y28780D02*
X399429D01*
X404069Y31535D02*
Y32717D01*
Y31535D02*
X399429D01*
X404069Y32717D02*
X399429D01*
X404069Y35472D02*
Y36654D01*
Y35472D02*
X399429D01*
X404069Y36654D02*
X399429D01*
X404069Y39409D02*
Y40591D01*
Y39409D02*
X399429D01*
X404069Y40591D02*
X399429D01*
X404069Y43346D02*
Y44528D01*
Y43346D02*
X399429D01*
X404069Y44528D02*
X399429D01*
X404069Y47283D02*
Y48465D01*
Y47283D02*
X399429D01*
X404069Y48465D02*
X399429D01*
X404069Y51220D02*
Y52402D01*
Y51220D02*
X399429D01*
X404069Y52402D02*
X399429D01*
X404069Y55157D02*
Y56339D01*
Y55157D02*
X399429D01*
X404069Y56339D02*
X399429D01*
X404069Y59094D02*
Y60276D01*
Y59094D02*
X399429D01*
X404069Y60276D02*
X399429D01*
X404069Y63031D02*
Y64213D01*
Y63031D02*
X399429D01*
X404069Y64213D02*
X399429D01*
X404069Y66969D02*
Y68150D01*
Y66969D02*
X399429D01*
X404069Y68150D02*
X399429D01*
X404069Y70906D02*
Y72087D01*
Y70906D02*
X399429D01*
X404069Y72087D02*
X399429D01*
X404069Y74843D02*
Y76024D01*
Y74843D02*
X399429D01*
X404069Y76024D02*
X399429D01*
X404069Y78780D02*
Y79961D01*
Y78780D02*
X399429D01*
X404069Y79961D02*
X399429D01*
X404069Y82717D02*
Y83898D01*
Y82717D02*
X399429D01*
X404069Y83898D02*
X399429D01*
X404069Y86654D02*
Y87835D01*
Y86654D02*
X399429D01*
X404069Y87835D02*
X399429D01*
X404069Y90591D02*
Y91772D01*
Y90591D02*
X399429D01*
X404069Y91772D02*
X399429D01*
X404069Y94528D02*
Y95709D01*
Y94528D02*
X399429D01*
X404069Y95709D02*
X399429D01*
X404069Y98465D02*
Y99646D01*
Y98465D02*
X399429D01*
X404069Y99646D02*
X399429D01*
X404069Y102402D02*
Y103583D01*
Y102402D02*
X399429D01*
X404069Y103583D02*
X399429D01*
X404069Y106339D02*
Y107520D01*
Y106339D02*
X399429D01*
X404069Y107520D02*
X399429D01*
X404069Y110276D02*
Y111457D01*
Y110276D02*
X399429D01*
X404069Y111457D02*
X399429D01*
X404069Y114213D02*
Y115394D01*
Y114213D02*
X399429D01*
X404069Y115394D02*
X399429D01*
X404069Y118150D02*
Y119331D01*
Y118150D02*
X399429D01*
X404069Y119331D02*
X399429D01*
X404069Y122087D02*
Y123268D01*
Y122087D02*
X399429D01*
X404069Y123268D02*
X399429D01*
X404069Y126024D02*
Y127205D01*
Y126024D02*
X399429D01*
X404069Y127205D02*
X399429D01*
X404069Y129961D02*
Y131142D01*
Y129961D02*
X399429D01*
X404069Y131142D02*
X399429D01*
X404069Y133898D02*
Y135079D01*
Y133898D02*
X399429D01*
X404069Y135079D02*
X399429D01*
X404547Y2795D02*
X380728D01*
X404547Y9685D02*
X398386D01*
X404547D02*
Y2795D01*
Y137244D02*
X398386D01*
X404547Y144134D02*
X380728D01*
X404547D02*
Y137244D01*
X0Y0D02*
M02*
