M48
FMAT,1
INCH
T01C00.00984
T02C00.01181
T03C00.04724
T04C00.12008
%
G81
M70
T01
X4921Y28189
X4961Y36693
X5039Y12441
X5039Y16378
X5039Y20315
X5039Y32126
X5039Y40000
X5039Y43937
X5039Y47874
X5039Y55748
X5039Y59685
X5039Y70512
X5039Y75433
X5039Y79370
X5039Y83976
X5236Y63622
X5236Y118740
X5236Y122677
X5236Y126614
X5236Y130551
X5236Y134488
X5276Y110866
X31811Y134488
X31850Y126614
X31850Y130551
X31890Y122677
X31929Y79370
X31929Y87244
X32087Y43937
X32205Y48937
X32205Y72795
X32205Y106929
X32205Y110866
X32205Y118740
X39724Y81024
X41142Y72795
X45276Y59685
X47441Y75433
X49134Y83976
X53898Y57441
X58543Y73740
X58543Y91654
X58543Y94213
X58583Y96772
X58622Y99331
X62795Y42283
X63622Y114803
X73937Y76299
X73937Y99331
X78661Y57441
X91614Y40000
X94567Y38976
X98110Y40669
X101496Y88976
X103780Y96693
X116181Y84055
X127559Y71220
X131417Y56102
X170197Y16378
X173228Y71220
X206417Y90512
X209528Y137402
X210945Y105925
X219409Y101614
X219409Y110276
X219921Y36693
X223976Y137441
X224449Y38386
X224685Y68937
X227677Y105925
X234606Y105925
X236890Y68524
X243031Y101535
X243031Y110315
X243622Y40669
X243858Y60945
X250079Y36457
X251220Y105925
X251850Y68524
X252362Y38740
X258780Y57913
X268425Y59094
X268740Y103563
X270709Y71417
X271181Y88228
X272402Y112028
X273740Y66260
X275709Y93110
X278307Y71063
X279646Y65984
X281614Y92756
X283583Y99528
X284606Y24252
X284606Y65984
X285551Y92638
X287520Y71063
X289488Y92638
X289803Y20315
X289803Y75039
X291811Y87815
X291969Y79941
X292362Y82913
X293819Y22441
X293819Y36969
X294409Y66102
X294764Y90906
X296693Y72756
X297598Y88209
X298346Y85157
X298445Y113012
X302087Y103760
X305945Y26201
X305945Y41752
X305984Y34075
X306181Y18524
X311811Y103563
X311850Y111437
X312992Y75866
X313071Y79646
X314882Y82913
X318071Y46299
X322283Y26299
X322323Y33189
X326969Y88604
X327717Y119311
X332480Y120984
X336142Y72480
X336417Y9606
X340276Y90906
X379331Y59685
X405984Y71496
T02
X53858Y63799
X78661Y63799
T03
X220187Y161024
X224695Y151024
X224695Y171024
X229203Y161024
X233711Y151024
X233711Y171024
X238219Y161024
X242726Y151024
X242726Y171024
X247234Y161024
X251742Y151024
X251742Y171024
X256250Y161024
X260758Y151024
X260758Y171024
X265266Y161024
X269774Y151024
X269774Y171024
X274281Y161024
X278789Y151024
X278789Y171024
X283297Y161024
X287805Y151024
X287805Y171024
X292313Y161024
X296821Y151024
T04
X192913Y161024
X324094Y161024
M30
