  0
SECTION
  2
HEADER
  9
$ACADVER
  1
AC1014
  9
$EXTMIN
 10
-384.467
 20
-16.200
  9
$EXTMAX
 10
67.483
 20
21.350
  9
$LIMMIN
 10
-384.467
 20
-16.200
  9
$LIMMAX
 10
67.483
 20
21.350
  9
$HANDSEED
  5
7FFFFFFF
  0
ENDSEC
  0
SECTION
  2
TABLES
  0
TABLE
  2
VPORT
  5
1
 100
AcDbSymbolTable
 70
2
  0
ENDTAB
  0
TABLE
  2
DIMSTYLE
  5
2
 100
AcDbSymbolTable
 70
2
  0
ENDTAB
  0
TABLE
  2
APPID
  5
3
 100
AcDbSymbolTable
 70
2
  0
APPID
  5
4
 100
AcDbSymbolTableRecord
 100
AcDbRegAppTableRecord
  2
ACAD
 70
0
  0
ENDTAB
  0
TABLE
  2
UCS
  5
5
 100
AcDbSymbolTable
 70
2
  0
ENDTAB
  0
TABLE
  2
BLOCK_RECORD
  5
6
 100
AcDbSymbolTable
 70
2
  0
BLOCK_RECORD
  5
7
 100
AcDbSymbolTableRecord
 100
AcDbBlockTableRecord
  2
*MODEL_SPACE
  0
BLOCK_RECORD
  5
8
 100
AcDbSymbolTableRecord
 100
AcDbBlockTableRecord
  2
*PAPER_SPACE
  0
BLOCK_RECORD
  5
9
 100
AcDbSymbolTableRecord
 100
AcDbBlockTableRecord
  2
_HOLE
  0
ENDTAB
  0
TABLE
  2
VIEW
  5
A
 100
AcDbSymbolTable
 70
2
  0
ENDTAB
  0
TABLE
  2
LTYPE
  5
B
 100
AcDbSymbolTable
 70
2
  0
LTYPE
  5
C
 100
AcDbSymbolTableRecord
 100
AcDbLinetypeTableRecord
  2
BYBLOCK
 70
0
  3

 72
    65
 73
     0
 40
0.00000
  0
LTYPE
  5
D
 100
AcDbSymbolTableRecord
 100
AcDbLinetypeTableRecord
  2
BYLAYER
 70
0
  3

 72
    65
 73
     0
 40
0.00000
  0
LTYPE
  5
E
 100
AcDbSymbolTableRecord
 100
AcDbLinetypeTableRecord
  2
DOTTED
 70
     0
  3
Dotted
 72
    65
 73
     2
 40
0.914
 49
0.305
 74
     0
 49
-0.610
 74
     0
  0
LTYPE
  5
F
 100
AcDbSymbolTableRecord
 100
AcDbLinetypeTableRecord
  2
DASHED
 70
     0
  3
Short Dashed
 72
    65
 73
     2
 40
1.219
 49
0.610
 74
     0
 49
-0.610
 74
     0
  0
ENDTAB
  0
TABLE
  2
LAYER
  5
10
 100
AcDbSymbolTable
 70
2
  0
LAYER
  5
11
 100
AcDbSymbolTableRecord
 100
AcDbLayerTableRecord
  2
0
 70
    64
 62
     7
  6
CONTINUOUS
  0
LAYER
  5
12
 100
AcDbSymbolTableRecord
 100
AcDbLayerTableRecord
  2
CUTOUTS
 70
    64
 62
     1
  6
CONTINUOUS
  0
LAYER
  5
13
 100
AcDbSymbolTableRecord
 100
AcDbLayerTableRecord
  2
_THROUGH_HOLE_
 70
    64
 62
     2
  6
CONTINUOUS
  0
LAYER
  5
14
 100
AcDbSymbolTableRecord
 100
AcDbLayerTableRecord
  2
_BOARD
 70
    64
 62
    252
  6
CONTINUOUS
  0
LAYER
  5
15
 100
AcDbSymbolTableRecord
 100
AcDbLayerTableRecord
  2
_DRILL
 70
    64
 62
    251
  6
CONTINUOUS
  0
LAYER
  5
16
 100
AcDbSymbolTableRecord
 100
AcDbLayerTableRecord
  2
_THROUGH_HOLE_DRILL_DRAWING_
 70
    64
 62
    255
  6
CONTINUOUS
  0
ENDTAB
  0
TABLE
  2
STYLE
  5
17
 100
AcDbSymbolTable
 70
2
  0
ENDTAB
  0
ENDSEC
  0
SECTION
  2
BLOCKS
  0
BLOCK
  5
18
 100
AcDbEntity
  8
0
 100
AcDbBlockBegin
  2
*MODEL_SPACE
 10
0.00000
 20
0.00000
 30
0.00000
  3
*MODEL_SPACE
  1

  0
ENDBLK
  5
19
 100
AcDbEntity
  8
0
 100
AcDbBlockEnd
  0
BLOCK
  5
1A
 100
AcDbEntity
  8
0
 100
AcDbBlockBegin
  2
*PAPER_SPACE
 10
0.00000
 20
0.00000
 30
0.00000
  3
*PAPER_SPACE
  1

  0
ENDBLK
  5
1B
 100
AcDbEntity
  8
0
 100
AcDbBlockEnd
  0
BLOCK
  5
1C
 100
AcDbEntity
  8
0
 100
AcDbBlockBegin
  2
_HOLE
 70
    64
 10
0.000
 20
0.000
  0
POLYLINE
  5
1D
 100
AcDbEntity
  8
0
 100
AcDb2dPolyline
 66
     1
 10
0.000
 20
0.000
 70
     1
 40
0.50000
 41
0.50000
  0
VERTEX
  5
1E
 100
AcDbEntity
  8
0
 100
AcDbVertex
 100
AcDb2dVertex
 10
0.00000
 20
0.25000
 40
0.50000
 41
0.50000
 42
1.00000
  0
VERTEX
  5
1F
 100
AcDbEntity
  8
0
 100
AcDbVertex
 100
AcDb2dVertex
 10
0.00000
 20
-0.25000
 40
0.50000
 41
0.50000
 42
1.00000
  0
SEQEND
  5
20
 100
AcDbEntity
  8
0
  0
ENDBLK
  5
21
 100
AcDbEntity
  8
0
 100
AcDbBlockEnd
  0
ENDSEC
  0
SECTION
  2
ENTITIES
  0
POLYLINE
  5
22
 100
AcDbEntity
  8
_BOARD
 100
AcDb2dPolyline
 66
     1
 10
0.000
 20
0.000
 70
     1
 40
0.000
 41
0.000
  0
VERTEX
  5
23
 100
AcDbEntity
  8
_BOARD
 100
AcDbVertex
 100
AcDb2dVertex
 10
-315.150
 20
-10.500
 40
0.000
 41
0.000
 42
1.00000
  0
VERTEX
  5
24
 100
AcDbEntity
  8
_BOARD
 100
AcDbVertex
 100
AcDb2dVertex
 10
-315.150
 20
-10.500
  0
VERTEX
  5
25
 100
AcDbEntity
  8
_BOARD
 100
AcDbVertex
 100
AcDb2dVertex
 10
-315.150
 20
-10.500
  0
VERTEX
  5
26
 100
AcDbEntity
  8
_BOARD
 100
AcDbVertex
 100
AcDb2dVertex
 10
-315.150
 20
-10.500
 40
0.000
 41
0.000
  0
VERTEX
  5
27
 100
AcDbEntity
  8
_BOARD
 100
AcDbVertex
 100
AcDb2dVertex
 10
-315.150
 20
-12.000
 40
0.000
 41
0.000
  0
VERTEX
  5
28
 100
AcDbEntity
  8
_BOARD
 100
AcDbVertex
 100
AcDb2dVertex
 10
-315.150
 20
-12.000
 40
0.000
 41
0.000
 42
1.00000
  0
VERTEX
  5
29
 100
AcDbEntity
  8
_BOARD
 100
AcDbVertex
 100
AcDb2dVertex
 10
-315.150
 20
-12.000
  0
VERTEX
  5
2A
 100
AcDbEntity
  8
_BOARD
 100
AcDbVertex
 100
AcDb2dVertex
 10
-315.150
 20
-12.000
 40
0.000
 41
0.000
 42
1.00000
  0
VERTEX
  5
2B
 100
AcDbEntity
  8
_BOARD
 100
AcDbVertex
 100
AcDb2dVertex
 10
-315.150
 20
-12.000
  0
VERTEX
  5
2C
 100
AcDbEntity
  8
_BOARD
 100
AcDbVertex
 100
AcDb2dVertex
 10
-315.150
 20
-12.000
  0
VERTEX
  5
2D
 100
AcDbEntity
  8
_BOARD
 100
AcDbVertex
 100
AcDb2dVertex
 10
-315.150
 20
-12.000
 40
0.000
 41
0.000
  0
VERTEX
  5
2E
 100
AcDbEntity
  8
_BOARD
 100
AcDbVertex
 100
AcDb2dVertex
 10
-246.400
 20
-12.000
 40
0.000
 41
0.000
  0
VERTEX
  5
2F
 100
AcDbEntity
  8
_BOARD
 100
AcDbVertex
 100
AcDb2dVertex
 10
-246.400
 20
-12.000
 40
0.000
 41
0.000
 42
1.00000
  0
VERTEX
  5
30
 100
AcDbEntity
  8
_BOARD
 100
AcDbVertex
 100
AcDb2dVertex
 10
-246.400
 20
-12.000
  0
VERTEX
  5
31
 100
AcDbEntity
  8
_BOARD
 100
AcDbVertex
 100
AcDb2dVertex
 10
-246.400
 20
-12.000
 40
0.000
 41
0.000
 42
1.00000
  0
VERTEX
  5
32
 100
AcDbEntity
  8
_BOARD
 100
AcDbVertex
 100
AcDb2dVertex
 10
-246.400
 20
-12.000
  0
VERTEX
  5
33
 100
AcDbEntity
  8
_BOARD
 100
AcDbVertex
 100
AcDb2dVertex
 10
-246.400
 20
-12.000
  0
VERTEX
  5
34
 100
AcDbEntity
  8
_BOARD
 100
AcDbVertex
 100
AcDb2dVertex
 10
-246.400
 20
-12.000
 40
0.000
 41
0.000
  0
VERTEX
  5
35
 100
AcDbEntity
  8
_BOARD
 100
AcDbVertex
 100
AcDb2dVertex
 10
-246.400
 20
-10.500
 40
0.000
 41
0.000
  0
VERTEX
  5
36
 100
AcDbEntity
  8
_BOARD
 100
AcDbVertex
 100
AcDb2dVertex
 10
-246.400
 20
-10.500
 40
0.000
 41
0.000
 42
1.00000
  0
VERTEX
  5
37
 100
AcDbEntity
  8
_BOARD
 100
AcDbVertex
 100
AcDb2dVertex
 10
-246.400
 20
-10.500
  0
VERTEX
  5
38
 100
AcDbEntity
  8
_BOARD
 100
AcDbVertex
 100
AcDb2dVertex
 10
-246.400
 20
-10.500
 40
0.000
 41
0.000
 42
-1.00000
  0
VERTEX
  5
39
 100
AcDbEntity
  8
_BOARD
 100
AcDbVertex
 100
AcDb2dVertex
 10
-246.400
 20
-10.500
  0
VERTEX
  5
3A
 100
AcDbEntity
  8
_BOARD
 100
AcDbVertex
 100
AcDb2dVertex
 10
-246.400
 20
-10.500
  0
VERTEX
  5
3B
 100
AcDbEntity
  8
_BOARD
 100
AcDbVertex
 100
AcDb2dVertex
 10
-246.400
 20
-10.500
 40
0.000
 41
0.000
 42
-1.00000
  0
VERTEX
  5
3C
 100
AcDbEntity
  8
_BOARD
 100
AcDbVertex
 100
AcDb2dVertex
 10
-242.900
 20
-10.500
 40
0.000
 41
0.000
  0
VERTEX
  5
3D
 100
AcDbEntity
  8
_BOARD
 100
AcDbVertex
 100
AcDb2dVertex
 10
-242.900
 20
-10.500
 40
0.000
 41
0.000
 42
-1.00000
  0
VERTEX
  5
3E
 100
AcDbEntity
  8
_BOARD
 100
AcDbVertex
 100
AcDb2dVertex
 10
-242.900
 20
-10.500
  0
VERTEX
  5
3F
 100
AcDbEntity
  8
_BOARD
 100
AcDbVertex
 100
AcDb2dVertex
 10
-242.900
 20
-10.500
 40
0.000
 41
0.000
 42
1.00000
  0
VERTEX
  5
40
 100
AcDbEntity
  8
_BOARD
 100
AcDbVertex
 100
AcDb2dVertex
 10
-242.900
 20
-10.500
  0
VERTEX
  5
41
 100
AcDbEntity
  8
_BOARD
 100
AcDbVertex
 100
AcDb2dVertex
 10
-242.900
 20
-10.500
  0
VERTEX
  5
42
 100
AcDbEntity
  8
_BOARD
 100
AcDbVertex
 100
AcDb2dVertex
 10
-242.900
 20
-10.500
 40
0.000
 41
0.000
  0
VERTEX
  5
43
 100
AcDbEntity
  8
_BOARD
 100
AcDbVertex
 100
AcDb2dVertex
 10
-242.900
 20
-12.000
 40
0.000
 41
0.000
  0
VERTEX
  5
44
 100
AcDbEntity
  8
_BOARD
 100
AcDbVertex
 100
AcDb2dVertex
 10
-242.900
 20
-12.000
 40
0.000
 41
0.000
 42
1.00000
  0
VERTEX
  5
45
 100
AcDbEntity
  8
_BOARD
 100
AcDbVertex
 100
AcDb2dVertex
 10
-242.900
 20
-12.000
  0
VERTEX
  5
46
 100
AcDbEntity
  8
_BOARD
 100
AcDbVertex
 100
AcDb2dVertex
 10
-242.900
 20
-12.000
 40
0.000
 41
0.000
 42
1.00000
  0
VERTEX
  5
47
 100
AcDbEntity
  8
_BOARD
 100
AcDbVertex
 100
AcDb2dVertex
 10
-242.900
 20
-12.000
  0
VERTEX
  5
48
 100
AcDbEntity
  8
_BOARD
 100
AcDbVertex
 100
AcDb2dVertex
 10
-242.900
 20
-12.000
  0
VERTEX
  5
49
 100
AcDbEntity
  8
_BOARD
 100
AcDbVertex
 100
AcDb2dVertex
 10
-242.900
 20
-12.000
 40
0.000
 41
0.000
  0
VERTEX
  5
4A
 100
AcDbEntity
  8
_BOARD
 100
AcDbVertex
 100
AcDb2dVertex
 10
-134.400
 20
-12.000
 40
0.000
 41
0.000
  0
VERTEX
  5
4B
 100
AcDbEntity
  8
_BOARD
 100
AcDbVertex
 100
AcDb2dVertex
 10
-134.400
 20
-12.000
 40
0.000
 41
0.000
 42
1.00000
  0
VERTEX
  5
4C
 100
AcDbEntity
  8
_BOARD
 100
AcDbVertex
 100
AcDb2dVertex
 10
-134.400
 20
-12.000
  0
VERTEX
  5
4D
 100
AcDbEntity
  8
_BOARD
 100
AcDbVertex
 100
AcDb2dVertex
 10
-134.400
 20
-12.000
 40
0.000
 41
0.000
 42
1.00000
  0
VERTEX
  5
4E
 100
AcDbEntity
  8
_BOARD
 100
AcDbVertex
 100
AcDb2dVertex
 10
-134.400
 20
-12.000
  0
VERTEX
  5
4F
 100
AcDbEntity
  8
_BOARD
 100
AcDbVertex
 100
AcDb2dVertex
 10
-134.400
 20
-12.000
  0
VERTEX
  5
50
 100
AcDbEntity
  8
_BOARD
 100
AcDbVertex
 100
AcDb2dVertex
 10
-134.400
 20
-12.000
 40
0.000
 41
0.000
  0
VERTEX
  5
51
 100
AcDbEntity
  8
_BOARD
 100
AcDbVertex
 100
AcDb2dVertex
 10
-134.400
 20
-10.500
 40
0.000
 41
0.000
  0
VERTEX
  5
52
 100
AcDbEntity
  8
_BOARD
 100
AcDbVertex
 100
AcDb2dVertex
 10
-134.400
 20
-10.500
 40
0.000
 41
0.000
 42
1.00000
  0
VERTEX
  5
53
 100
AcDbEntity
  8
_BOARD
 100
AcDbVertex
 100
AcDb2dVertex
 10
-134.400
 20
-10.500
  0
VERTEX
  5
54
 100
AcDbEntity
  8
_BOARD
 100
AcDbVertex
 100
AcDb2dVertex
 10
-134.400
 20
-10.500
 40
0.000
 41
0.000
 42
-1.00000
  0
VERTEX
  5
55
 100
AcDbEntity
  8
_BOARD
 100
AcDbVertex
 100
AcDb2dVertex
 10
-134.400
 20
-10.500
  0
VERTEX
  5
56
 100
AcDbEntity
  8
_BOARD
 100
AcDbVertex
 100
AcDb2dVertex
 10
-134.400
 20
-10.500
  0
VERTEX
  5
57
 100
AcDbEntity
  8
_BOARD
 100
AcDbVertex
 100
AcDb2dVertex
 10
-134.400
 20
-10.500
 40
0.000
 41
0.000
 42
-1.00000
  0
VERTEX
  5
58
 100
AcDbEntity
  8
_BOARD
 100
AcDbVertex
 100
AcDb2dVertex
 10
-130.900
 20
-10.500
 40
0.000
 41
0.000
  0
VERTEX
  5
59
 100
AcDbEntity
  8
_BOARD
 100
AcDbVertex
 100
AcDb2dVertex
 10
-130.900
 20
-10.500
 40
0.000
 41
0.000
 42
-1.00000
  0
VERTEX
  5
5A
 100
AcDbEntity
  8
_BOARD
 100
AcDbVertex
 100
AcDb2dVertex
 10
-130.900
 20
-10.500
  0
VERTEX
  5
5B
 100
AcDbEntity
  8
_BOARD
 100
AcDbVertex
 100
AcDb2dVertex
 10
-130.900
 20
-10.500
 40
0.000
 41
0.000
 42
1.00000
  0
VERTEX
  5
5C
 100
AcDbEntity
  8
_BOARD
 100
AcDbVertex
 100
AcDb2dVertex
 10
-130.900
 20
-10.500
  0
VERTEX
  5
5D
 100
AcDbEntity
  8
_BOARD
 100
AcDbVertex
 100
AcDb2dVertex
 10
-130.900
 20
-10.500
  0
VERTEX
  5
5E
 100
AcDbEntity
  8
_BOARD
 100
AcDbVertex
 100
AcDb2dVertex
 10
-130.900
 20
-10.500
 40
0.000
 41
0.000
  0
VERTEX
  5
5F
 100
AcDbEntity
  8
_BOARD
 100
AcDbVertex
 100
AcDb2dVertex
 10
-130.900
 20
-12.000
 40
0.000
 41
0.000
  0
VERTEX
  5
60
 100
AcDbEntity
  8
_BOARD
 100
AcDbVertex
 100
AcDb2dVertex
 10
-130.900
 20
-12.000
 40
0.000
 41
0.000
 42
1.00000
  0
VERTEX
  5
61
 100
AcDbEntity
  8
_BOARD
 100
AcDbVertex
 100
AcDb2dVertex
 10
-130.900
 20
-12.000
  0
VERTEX
  5
62
 100
AcDbEntity
  8
_BOARD
 100
AcDbVertex
 100
AcDb2dVertex
 10
-130.900
 20
-12.000
 40
0.000
 41
0.000
 42
1.00000
  0
VERTEX
  5
63
 100
AcDbEntity
  8
_BOARD
 100
AcDbVertex
 100
AcDb2dVertex
 10
-130.900
 20
-12.000
  0
VERTEX
  5
64
 100
AcDbEntity
  8
_BOARD
 100
AcDbVertex
 100
AcDb2dVertex
 10
-130.900
 20
-12.000
  0
VERTEX
  5
65
 100
AcDbEntity
  8
_BOARD
 100
AcDbVertex
 100
AcDb2dVertex
 10
-130.900
 20
-12.000
 40
0.000
 41
0.000
  0
VERTEX
  5
66
 100
AcDbEntity
  8
_BOARD
 100
AcDbVertex
 100
AcDb2dVertex
 10
-52.900
 20
-12.000
 40
0.000
 41
0.000
  0
VERTEX
  5
67
 100
AcDbEntity
  8
_BOARD
 100
AcDbVertex
 100
AcDb2dVertex
 10
-52.900
 20
-12.000
 40
0.000
 41
0.000
 42
1.00000
  0
VERTEX
  5
68
 100
AcDbEntity
  8
_BOARD
 100
AcDbVertex
 100
AcDb2dVertex
 10
-52.900
 20
-12.000
  0
VERTEX
  5
69
 100
AcDbEntity
  8
_BOARD
 100
AcDbVertex
 100
AcDb2dVertex
 10
-52.900
 20
-12.000
 40
0.000
 41
0.000
 42
1.00000
  0
VERTEX
  5
6A
 100
AcDbEntity
  8
_BOARD
 100
AcDbVertex
 100
AcDb2dVertex
 10
-52.900
 20
-12.000
  0
VERTEX
  5
6B
 100
AcDbEntity
  8
_BOARD
 100
AcDbVertex
 100
AcDb2dVertex
 10
-52.900
 20
-12.000
  0
VERTEX
  5
6C
 100
AcDbEntity
  8
_BOARD
 100
AcDbVertex
 100
AcDb2dVertex
 10
-52.900
 20
-12.000
 40
0.000
 41
0.000
  0
VERTEX
  5
6D
 100
AcDbEntity
  8
_BOARD
 100
AcDbVertex
 100
AcDb2dVertex
 10
-52.900
 20
-10.500
 40
0.000
 41
0.000
  0
VERTEX
  5
6E
 100
AcDbEntity
  8
_BOARD
 100
AcDbVertex
 100
AcDb2dVertex
 10
-52.900
 20
-10.500
 40
0.000
 41
0.000
 42
1.00000
  0
VERTEX
  5
6F
 100
AcDbEntity
  8
_BOARD
 100
AcDbVertex
 100
AcDb2dVertex
 10
-52.900
 20
-10.500
  0
VERTEX
  5
70
 100
AcDbEntity
  8
_BOARD
 100
AcDbVertex
 100
AcDb2dVertex
 10
-52.900
 20
-10.500
 40
0.000
 41
0.000
 42
-1.00000
  0
VERTEX
  5
71
 100
AcDbEntity
  8
_BOARD
 100
AcDbVertex
 100
AcDb2dVertex
 10
-52.900
 20
-10.500
  0
VERTEX
  5
72
 100
AcDbEntity
  8
_BOARD
 100
AcDbVertex
 100
AcDb2dVertex
 10
-52.900
 20
-10.500
  0
VERTEX
  5
73
 100
AcDbEntity
  8
_BOARD
 100
AcDbVertex
 100
AcDb2dVertex
 10
-52.900
 20
-10.500
 40
0.000
 41
0.000
 42
-1.00000
  0
VERTEX
  5
74
 100
AcDbEntity
  8
_BOARD
 100
AcDbVertex
 100
AcDb2dVertex
 10
-49.400
 20
-10.500
 40
0.000
 41
0.000
  0
VERTEX
  5
75
 100
AcDbEntity
  8
_BOARD
 100
AcDbVertex
 100
AcDb2dVertex
 10
-49.400
 20
-10.500
 40
0.000
 41
0.000
 42
-1.00000
  0
VERTEX
  5
76
 100
AcDbEntity
  8
_BOARD
 100
AcDbVertex
 100
AcDb2dVertex
 10
-49.400
 20
-10.500
  0
VERTEX
  5
77
 100
AcDbEntity
  8
_BOARD
 100
AcDbVertex
 100
AcDb2dVertex
 10
-49.400
 20
-10.500
 40
0.000
 41
0.000
 42
1.00000
  0
VERTEX
  5
78
 100
AcDbEntity
  8
_BOARD
 100
AcDbVertex
 100
AcDb2dVertex
 10
-49.400
 20
-10.500
  0
VERTEX
  5
79
 100
AcDbEntity
  8
_BOARD
 100
AcDbVertex
 100
AcDb2dVertex
 10
-49.400
 20
-10.500
  0
VERTEX
  5
7A
 100
AcDbEntity
  8
_BOARD
 100
AcDbVertex
 100
AcDb2dVertex
 10
-49.400
 20
-10.500
 40
0.000
 41
0.000
  0
VERTEX
  5
7B
 100
AcDbEntity
  8
_BOARD
 100
AcDbVertex
 100
AcDb2dVertex
 10
-49.400
 20
-12.000
 40
0.000
 41
0.000
  0
VERTEX
  5
7C
 100
AcDbEntity
  8
_BOARD
 100
AcDbVertex
 100
AcDb2dVertex
 10
-49.400
 20
-12.000
 40
0.000
 41
0.000
 42
1.00000
  0
VERTEX
  5
7D
 100
AcDbEntity
  8
_BOARD
 100
AcDbVertex
 100
AcDb2dVertex
 10
-49.400
 20
-12.000
  0
VERTEX
  5
7E
 100
AcDbEntity
  8
_BOARD
 100
AcDbVertex
 100
AcDb2dVertex
 10
-49.400
 20
-12.000
 40
0.000
 41
0.000
 42
1.00000
  0
VERTEX
  5
7F
 100
AcDbEntity
  8
_BOARD
 100
AcDbVertex
 100
AcDb2dVertex
 10
-49.400
 20
-12.000
  0
VERTEX
  5
80
 100
AcDbEntity
  8
_BOARD
 100
AcDbVertex
 100
AcDb2dVertex
 10
-49.400
 20
-12.000
  0
VERTEX
  5
81
 100
AcDbEntity
  8
_BOARD
 100
AcDbVertex
 100
AcDb2dVertex
 10
-49.400
 20
-12.000
 40
0.000
 41
0.000
  0
VERTEX
  5
82
 100
AcDbEntity
  8
_BOARD
 100
AcDbVertex
 100
AcDb2dVertex
 10
55.350
 20
-12.000
 40
0.000
 41
0.000
  0
VERTEX
  5
83
 100
AcDbEntity
  8
_BOARD
 100
AcDbVertex
 100
AcDb2dVertex
 10
55.350
 20
-12.000
 40
0.000
 41
0.000
 42
1.00000
  0
VERTEX
  5
84
 100
AcDbEntity
  8
_BOARD
 100
AcDbVertex
 100
AcDb2dVertex
 10
55.350
 20
-12.000
  0
VERTEX
  5
85
 100
AcDbEntity
  8
_BOARD
 100
AcDbVertex
 100
AcDb2dVertex
 10
55.350
 20
-12.000
 40
0.000
 41
0.000
 42
1.00000
  0
VERTEX
  5
86
 100
AcDbEntity
  8
_BOARD
 100
AcDbVertex
 100
AcDb2dVertex
 10
55.350
 20
-12.000
  0
VERTEX
  5
87
 100
AcDbEntity
  8
_BOARD
 100
AcDbVertex
 100
AcDb2dVertex
 10
55.350
 20
-12.000
  0
VERTEX
  5
88
 100
AcDbEntity
  8
_BOARD
 100
AcDbVertex
 100
AcDb2dVertex
 10
55.350
 20
-12.000
 40
0.000
 41
0.000
  0
VERTEX
  5
89
 100
AcDbEntity
  8
_BOARD
 100
AcDbVertex
 100
AcDb2dVertex
 10
55.350
 20
-10.500
 40
0.000
 41
0.000
  0
VERTEX
  5
8A
 100
AcDbEntity
  8
_BOARD
 100
AcDbVertex
 100
AcDb2dVertex
 10
55.350
 20
-10.500
 40
0.000
 41
0.000
 42
1.00000
  0
VERTEX
  5
8B
 100
AcDbEntity
  8
_BOARD
 100
AcDbVertex
 100
AcDb2dVertex
 10
55.350
 20
-10.500
  0
VERTEX
  5
8C
 100
AcDbEntity
  8
_BOARD
 100
AcDbVertex
 100
AcDb2dVertex
 10
55.350
 20
-10.500
 40
0.000
 41
0.000
 42
-1.00000
  0
VERTEX
  5
8D
 100
AcDbEntity
  8
_BOARD
 100
AcDbVertex
 100
AcDb2dVertex
 10
55.350
 20
-10.500
  0
VERTEX
  5
8E
 100
AcDbEntity
  8
_BOARD
 100
AcDbVertex
 100
AcDb2dVertex
 10
55.350
 20
-10.500
  0
VERTEX
  5
8F
 100
AcDbEntity
  8
_BOARD
 100
AcDbVertex
 100
AcDb2dVertex
 10
55.350
 20
-10.500
 40
0.000
 41
0.000
 42
-1.00000
  0
VERTEX
  5
90
 100
AcDbEntity
  8
_BOARD
 100
AcDbVertex
 100
AcDb2dVertex
 10
58.850
 20
-10.500
 40
0.000
 41
0.000
  0
VERTEX
  5
91
 100
AcDbEntity
  8
_BOARD
 100
AcDbVertex
 100
AcDb2dVertex
 10
58.850
 20
-10.500
 40
0.000
 41
0.000
 42
-1.00000
  0
VERTEX
  5
92
 100
AcDbEntity
  8
_BOARD
 100
AcDbVertex
 100
AcDb2dVertex
 10
58.850
 20
-10.500
  0
VERTEX
  5
93
 100
AcDbEntity
  8
_BOARD
 100
AcDbVertex
 100
AcDb2dVertex
 10
58.850
 20
-10.500
 40
0.000
 41
0.000
 42
1.00000
  0
VERTEX
  5
94
 100
AcDbEntity
  8
_BOARD
 100
AcDbVertex
 100
AcDb2dVertex
 10
58.850
 20
-10.500
  0
VERTEX
  5
95
 100
AcDbEntity
  8
_BOARD
 100
AcDbVertex
 100
AcDb2dVertex
 10
58.850
 20
-10.500
  0
VERTEX
  5
96
 100
AcDbEntity
  8
_BOARD
 100
AcDbVertex
 100
AcDb2dVertex
 10
58.850
 20
-10.500
 40
0.000
 41
0.000
  0
VERTEX
  5
97
 100
AcDbEntity
  8
_BOARD
 100
AcDbVertex
 100
AcDb2dVertex
 10
58.850
 20
-12.000
 40
0.000
 41
0.000
  0
VERTEX
  5
98
 100
AcDbEntity
  8
_BOARD
 100
AcDbVertex
 100
AcDb2dVertex
 10
58.850
 20
-12.000
 40
0.000
 41
0.000
 42
1.00000
  0
VERTEX
  5
99
 100
AcDbEntity
  8
_BOARD
 100
AcDbVertex
 100
AcDb2dVertex
 10
58.850
 20
-12.000
  0
VERTEX
  5
9A
 100
AcDbEntity
  8
_BOARD
 100
AcDbVertex
 100
AcDb2dVertex
 10
58.850
 20
-12.000
 40
0.000
 41
0.000
 42
1.00000
  0
VERTEX
  5
9B
 100
AcDbEntity
  8
_BOARD
 100
AcDbVertex
 100
AcDb2dVertex
 10
58.850
 20
-12.000
  0
VERTEX
  5
9C
 100
AcDbEntity
  8
_BOARD
 100
AcDbVertex
 100
AcDb2dVertex
 10
58.850
 20
-12.000
  0
VERTEX
  5
9D
 100
AcDbEntity
  8
_BOARD
 100
AcDbVertex
 100
AcDb2dVertex
 10
58.850
 20
-12.000
 40
0.000
 41
0.000
  0
VERTEX
  5
9E
 100
AcDbEntity
  8
_BOARD
 100
AcDbVertex
 100
AcDb2dVertex
 10
63.586
 20
-12.000
 40
0.000
 41
0.000
  0
VERTEX
  5
9F
 100
AcDbEntity
  8
_BOARD
 100
AcDbVertex
 100
AcDb2dVertex
 10
63.586
 20
-12.000
 40
0.000
 41
0.000
 42
1.00000
  0
VERTEX
  5
A0
 100
AcDbEntity
  8
_BOARD
 100
AcDbVertex
 100
AcDb2dVertex
 10
63.586
 20
-12.000
  0
VERTEX
  5
A1
 100
AcDbEntity
  8
_BOARD
 100
AcDbVertex
 100
AcDb2dVertex
 10
63.586
 20
-12.000
 40
0.000
 41
0.000
 42
1.00000
  0
VERTEX
  5
A2
 100
AcDbEntity
  8
_BOARD
 100
AcDbVertex
 100
AcDb2dVertex
 10
63.586
 20
-12.000
  0
VERTEX
  5
A3
 100
AcDbEntity
  8
_BOARD
 100
AcDbVertex
 100
AcDb2dVertex
 10
63.586
 20
-12.000
  0
VERTEX
  5
A4
 100
AcDbEntity
  8
_BOARD
 100
AcDbVertex
 100
AcDb2dVertex
 10
63.586
 20
-12.000
 40
0.000
 41
0.000
 42
0.19891
  0
VERTEX
  5
A5
 100
AcDbEntity
  8
_BOARD
 100
AcDbVertex
 100
AcDb2dVertex
 10
64.293
 20
-11.707
 40
0.000
 41
0.000
  0
VERTEX
  5
A6
 100
AcDbEntity
  8
_BOARD
 100
AcDbVertex
 100
AcDb2dVertex
 10
64.293
 20
-11.707
 40
0.000
 41
0.000
 42
1.00000
  0
VERTEX
  5
A7
 100
AcDbEntity
  8
_BOARD
 100
AcDbVertex
 100
AcDb2dVertex
 10
64.293
 20
-11.707
  0
VERTEX
  5
A8
 100
AcDbEntity
  8
_BOARD
 100
AcDbVertex
 100
AcDb2dVertex
 10
64.293
 20
-11.707
 40
0.000
 41
0.000
 42
1.00000
  0
VERTEX
  5
A9
 100
AcDbEntity
  8
_BOARD
 100
AcDbVertex
 100
AcDb2dVertex
 10
64.293
 20
-11.707
  0
VERTEX
  5
AA
 100
AcDbEntity
  8
_BOARD
 100
AcDbVertex
 100
AcDb2dVertex
 10
64.293
 20
-11.707
  0
VERTEX
  5
AB
 100
AcDbEntity
  8
_BOARD
 100
AcDbVertex
 100
AcDb2dVertex
 10
64.293
 20
-11.707
 40
0.000
 41
0.000
  0
VERTEX
  5
AC
 100
AcDbEntity
  8
_BOARD
 100
AcDbVertex
 100
AcDb2dVertex
 10
66.207
 20
-9.793
 40
0.000
 41
0.000
  0
VERTEX
  5
AD
 100
AcDbEntity
  8
_BOARD
 100
AcDbVertex
 100
AcDb2dVertex
 10
66.207
 20
-9.793
 40
0.000
 41
0.000
 42
1.00000
  0
VERTEX
  5
AE
 100
AcDbEntity
  8
_BOARD
 100
AcDbVertex
 100
AcDb2dVertex
 10
66.207
 20
-9.793
  0
VERTEX
  5
AF
 100
AcDbEntity
  8
_BOARD
 100
AcDbVertex
 100
AcDb2dVertex
 10
66.207
 20
-9.793
 40
0.000
 41
0.000
 42
1.00000
  0
VERTEX
  5
B0
 100
AcDbEntity
  8
_BOARD
 100
AcDbVertex
 100
AcDb2dVertex
 10
66.207
 20
-9.793
  0
VERTEX
  5
B1
 100
AcDbEntity
  8
_BOARD
 100
AcDbVertex
 100
AcDb2dVertex
 10
66.207
 20
-9.793
  0
VERTEX
  5
B2
 100
AcDbEntity
  8
_BOARD
 100
AcDbVertex
 100
AcDb2dVertex
 10
66.207
 20
-9.793
 40
0.000
 41
0.000
 42
0.19891
  0
VERTEX
  5
B3
 100
AcDbEntity
  8
_BOARD
 100
AcDbVertex
 100
AcDb2dVertex
 10
66.500
 20
-9.086
 40
0.000
 41
0.000
  0
VERTEX
  5
B4
 100
AcDbEntity
  8
_BOARD
 100
AcDbVertex
 100
AcDb2dVertex
 10
66.500
 20
-9.086
 40
0.000
 41
0.000
 42
1.00000
  0
VERTEX
  5
B5
 100
AcDbEntity
  8
_BOARD
 100
AcDbVertex
 100
AcDb2dVertex
 10
66.500
 20
-9.086
  0
VERTEX
  5
B6
 100
AcDbEntity
  8
_BOARD
 100
AcDbVertex
 100
AcDb2dVertex
 10
66.500
 20
-9.086
 40
0.000
 41
0.000
 42
1.00000
  0
VERTEX
  5
B7
 100
AcDbEntity
  8
_BOARD
 100
AcDbVertex
 100
AcDb2dVertex
 10
66.500
 20
-9.086
  0
VERTEX
  5
B8
 100
AcDbEntity
  8
_BOARD
 100
AcDbVertex
 100
AcDb2dVertex
 10
66.500
 20
-9.086
  0
VERTEX
  5
B9
 100
AcDbEntity
  8
_BOARD
 100
AcDbVertex
 100
AcDb2dVertex
 10
66.500
 20
-9.086
 40
0.000
 41
0.000
  0
VERTEX
  5
BA
 100
AcDbEntity
  8
_BOARD
 100
AcDbVertex
 100
AcDb2dVertex
 10
66.500
 20
13.500
 40
0.000
 41
0.000
  0
VERTEX
  5
BB
 100
AcDbEntity
  8
_BOARD
 100
AcDbVertex
 100
AcDb2dVertex
 10
66.500
 20
13.500
 40
0.000
 41
0.000
 42
1.00000
  0
VERTEX
  5
BC
 100
AcDbEntity
  8
_BOARD
 100
AcDbVertex
 100
AcDb2dVertex
 10
66.500
 20
13.500
  0
VERTEX
  5
BD
 100
AcDbEntity
  8
_BOARD
 100
AcDbVertex
 100
AcDb2dVertex
 10
66.500
 20
13.500
 40
0.000
 41
0.000
 42
1.00000
  0
VERTEX
  5
BE
 100
AcDbEntity
  8
_BOARD
 100
AcDbVertex
 100
AcDb2dVertex
 10
66.500
 20
13.500
  0
VERTEX
  5
BF
 100
AcDbEntity
  8
_BOARD
 100
AcDbVertex
 100
AcDb2dVertex
 10
66.500
 20
13.500
  0
VERTEX
  5
C0
 100
AcDbEntity
  8
_BOARD
 100
AcDbVertex
 100
AcDb2dVertex
 10
66.500
 20
13.500
 40
0.000
 41
0.000
 42
0.41421
  0
VERTEX
  5
C1
 100
AcDbEntity
  8
_BOARD
 100
AcDbVertex
 100
AcDb2dVertex
 10
64.000
 20
16.000
 40
0.000
 41
0.000
  0
VERTEX
  5
C2
 100
AcDbEntity
  8
_BOARD
 100
AcDbVertex
 100
AcDb2dVertex
 10
64.000
 20
16.000
 40
0.000
 41
0.000
 42
1.00000
  0
VERTEX
  5
C3
 100
AcDbEntity
  8
_BOARD
 100
AcDbVertex
 100
AcDb2dVertex
 10
64.000
 20
16.000
  0
VERTEX
  5
C4
 100
AcDbEntity
  8
_BOARD
 100
AcDbVertex
 100
AcDb2dVertex
 10
64.000
 20
16.000
 40
0.000
 41
0.000
 42
1.00000
  0
VERTEX
  5
C5
 100
AcDbEntity
  8
_BOARD
 100
AcDbVertex
 100
AcDb2dVertex
 10
64.000
 20
16.000
  0
VERTEX
  5
C6
 100
AcDbEntity
  8
_BOARD
 100
AcDbVertex
 100
AcDb2dVertex
 10
64.000
 20
16.000
  0
VERTEX
  5
C7
 100
AcDbEntity
  8
_BOARD
 100
AcDbVertex
 100
AcDb2dVertex
 10
64.000
 20
16.000
 40
0.000
 41
0.000
  0
VERTEX
  5
C8
 100
AcDbEntity
  8
_BOARD
 100
AcDbVertex
 100
AcDb2dVertex
 10
-380.992
 20
16.000
 40
0.000
 41
0.000
  0
VERTEX
  5
C9
 100
AcDbEntity
  8
_BOARD
 100
AcDbVertex
 100
AcDb2dVertex
 10
-380.992
 20
16.000
 40
0.000
 41
0.000
 42
1.00000
  0
VERTEX
  5
CA
 100
AcDbEntity
  8
_BOARD
 100
AcDbVertex
 100
AcDb2dVertex
 10
-380.992
 20
16.000
  0
VERTEX
  5
CB
 100
AcDbEntity
  8
_BOARD
 100
AcDbVertex
 100
AcDb2dVertex
 10
-380.992
 20
16.000
 40
0.000
 41
0.000
 42
1.00000
  0
VERTEX
  5
CC
 100
AcDbEntity
  8
_BOARD
 100
AcDbVertex
 100
AcDb2dVertex
 10
-380.992
 20
16.000
  0
VERTEX
  5
CD
 100
AcDbEntity
  8
_BOARD
 100
AcDbVertex
 100
AcDb2dVertex
 10
-380.992
 20
16.000
  0
VERTEX
  5
CE
 100
AcDbEntity
  8
_BOARD
 100
AcDbVertex
 100
AcDb2dVertex
 10
-380.992
 20
16.000
 40
0.000
 41
0.000
 42
0.41421
  0
VERTEX
  5
CF
 100
AcDbEntity
  8
_BOARD
 100
AcDbVertex
 100
AcDb2dVertex
 10
-383.492
 20
13.500
 40
0.000
 41
0.000
  0
VERTEX
  5
D0
 100
AcDbEntity
  8
_BOARD
 100
AcDbVertex
 100
AcDb2dVertex
 10
-383.492
 20
13.500
 40
0.000
 41
0.000
 42
1.00000
  0
VERTEX
  5
D1
 100
AcDbEntity
  8
_BOARD
 100
AcDbVertex
 100
AcDb2dVertex
 10
-383.492
 20
13.500
  0
VERTEX
  5
D2
 100
AcDbEntity
  8
_BOARD
 100
AcDbVertex
 100
AcDb2dVertex
 10
-383.492
 20
13.500
 40
0.000
 41
0.000
 42
1.00000
  0
VERTEX
  5
D3
 100
AcDbEntity
  8
_BOARD
 100
AcDbVertex
 100
AcDb2dVertex
 10
-383.492
 20
13.500
  0
VERTEX
  5
D4
 100
AcDbEntity
  8
_BOARD
 100
AcDbVertex
 100
AcDb2dVertex
 10
-383.492
 20
13.500
  0
VERTEX
  5
D5
 100
AcDbEntity
  8
_BOARD
 100
AcDbVertex
 100
AcDb2dVertex
 10
-383.492
 20
13.500
 40
0.000
 41
0.000
  0
VERTEX
  5
D6
 100
AcDbEntity
  8
_BOARD
 100
AcDbVertex
 100
AcDb2dVertex
 10
-383.492
 20
-5.725
 40
0.000
 41
0.000
  0
VERTEX
  5
D7
 100
AcDbEntity
  8
_BOARD
 100
AcDbVertex
 100
AcDb2dVertex
 10
-383.492
 20
-5.725
 40
0.000
 41
0.000
 42
1.00000
  0
VERTEX
  5
D8
 100
AcDbEntity
  8
_BOARD
 100
AcDbVertex
 100
AcDb2dVertex
 10
-383.492
 20
-5.725
  0
VERTEX
  5
D9
 100
AcDbEntity
  8
_BOARD
 100
AcDbVertex
 100
AcDb2dVertex
 10
-383.492
 20
-5.725
 40
0.000
 41
0.000
 42
1.00000
  0
VERTEX
  5
DA
 100
AcDbEntity
  8
_BOARD
 100
AcDbVertex
 100
AcDb2dVertex
 10
-383.492
 20
-5.725
  0
VERTEX
  5
DB
 100
AcDbEntity
  8
_BOARD
 100
AcDbVertex
 100
AcDb2dVertex
 10
-383.492
 20
-5.725
  0
VERTEX
  5
DC
 100
AcDbEntity
  8
_BOARD
 100
AcDbVertex
 100
AcDb2dVertex
 10
-383.492
 20
-5.725
 40
0.000
 41
0.000
 42
0.41421
  0
VERTEX
  5
DD
 100
AcDbEntity
  8
_BOARD
 100
AcDbVertex
 100
AcDb2dVertex
 10
-382.492
 20
-6.725
 40
0.000
 41
0.000
  0
VERTEX
  5
DE
 100
AcDbEntity
  8
_BOARD
 100
AcDbVertex
 100
AcDb2dVertex
 10
-382.492
 20
-6.725
 40
0.000
 41
0.000
 42
1.00000
  0
VERTEX
  5
DF
 100
AcDbEntity
  8
_BOARD
 100
AcDbVertex
 100
AcDb2dVertex
 10
-382.492
 20
-6.725
  0
VERTEX
  5
E0
 100
AcDbEntity
  8
_BOARD
 100
AcDbVertex
 100
AcDb2dVertex
 10
-382.492
 20
-6.725
 40
0.000
 41
0.000
 42
1.00000
  0
VERTEX
  5
E1
 100
AcDbEntity
  8
_BOARD
 100
AcDbVertex
 100
AcDb2dVertex
 10
-382.492
 20
-6.725
  0
VERTEX
  5
E2
 100
AcDbEntity
  8
_BOARD
 100
AcDbVertex
 100
AcDb2dVertex
 10
-382.492
 20
-6.725
  0
VERTEX
  5
E3
 100
AcDbEntity
  8
_BOARD
 100
AcDbVertex
 100
AcDb2dVertex
 10
-382.492
 20
-6.725
 40
0.000
 41
0.000
  0
VERTEX
  5
E4
 100
AcDbEntity
  8
_BOARD
 100
AcDbVertex
 100
AcDb2dVertex
 10
-379.492
 20
-6.725
 40
0.000
 41
0.000
  0
VERTEX
  5
E5
 100
AcDbEntity
  8
_BOARD
 100
AcDbVertex
 100
AcDb2dVertex
 10
-379.492
 20
-6.725
 40
0.000
 41
0.000
 42
1.00000
  0
VERTEX
  5
E6
 100
AcDbEntity
  8
_BOARD
 100
AcDbVertex
 100
AcDb2dVertex
 10
-379.492
 20
-6.725
  0
VERTEX
  5
E7
 100
AcDbEntity
  8
_BOARD
 100
AcDbVertex
 100
AcDb2dVertex
 10
-379.492
 20
-6.725
 40
0.000
 41
0.000
 42
-1.00000
  0
VERTEX
  5
E8
 100
AcDbEntity
  8
_BOARD
 100
AcDbVertex
 100
AcDb2dVertex
 10
-379.492
 20
-6.725
  0
VERTEX
  5
E9
 100
AcDbEntity
  8
_BOARD
 100
AcDbVertex
 100
AcDb2dVertex
 10
-379.492
 20
-6.725
  0
VERTEX
  5
EA
 100
AcDbEntity
  8
_BOARD
 100
AcDbVertex
 100
AcDb2dVertex
 10
-379.492
 20
-6.725
 40
0.000
 41
0.000
 42
-0.41421
  0
VERTEX
  5
EB
 100
AcDbEntity
  8
_BOARD
 100
AcDbVertex
 100
AcDb2dVertex
 10
-378.492
 20
-7.725
 40
0.000
 41
0.000
  0
VERTEX
  5
EC
 100
AcDbEntity
  8
_BOARD
 100
AcDbVertex
 100
AcDb2dVertex
 10
-378.492
 20
-7.725
 40
0.000
 41
0.000
 42
-1.00000
  0
VERTEX
  5
ED
 100
AcDbEntity
  8
_BOARD
 100
AcDbVertex
 100
AcDb2dVertex
 10
-378.492
 20
-7.725
  0
VERTEX
  5
EE
 100
AcDbEntity
  8
_BOARD
 100
AcDbVertex
 100
AcDb2dVertex
 10
-378.492
 20
-7.725
 40
0.000
 41
0.000
 42
1.00000
  0
VERTEX
  5
EF
 100
AcDbEntity
  8
_BOARD
 100
AcDbVertex
 100
AcDb2dVertex
 10
-378.492
 20
-7.725
  0
VERTEX
  5
F0
 100
AcDbEntity
  8
_BOARD
 100
AcDbVertex
 100
AcDb2dVertex
 10
-378.492
 20
-7.725
  0
VERTEX
  5
F1
 100
AcDbEntity
  8
_BOARD
 100
AcDbVertex
 100
AcDb2dVertex
 10
-378.492
 20
-7.725
 40
0.000
 41
0.000
  0
VERTEX
  5
F2
 100
AcDbEntity
  8
_BOARD
 100
AcDbVertex
 100
AcDb2dVertex
 10
-378.492
 20
-9.500
 40
0.000
 41
0.000
  0
VERTEX
  5
F3
 100
AcDbEntity
  8
_BOARD
 100
AcDbVertex
 100
AcDb2dVertex
 10
-378.492
 20
-9.500
 40
0.000
 41
0.000
 42
1.00000
  0
VERTEX
  5
F4
 100
AcDbEntity
  8
_BOARD
 100
AcDbVertex
 100
AcDb2dVertex
 10
-378.492
 20
-9.500
  0
VERTEX
  5
F5
 100
AcDbEntity
  8
_BOARD
 100
AcDbVertex
 100
AcDb2dVertex
 10
-378.492
 20
-9.500
 40
0.000
 41
0.000
 42
1.00000
  0
VERTEX
  5
F6
 100
AcDbEntity
  8
_BOARD
 100
AcDbVertex
 100
AcDb2dVertex
 10
-378.492
 20
-9.500
  0
VERTEX
  5
F7
 100
AcDbEntity
  8
_BOARD
 100
AcDbVertex
 100
AcDb2dVertex
 10
-378.492
 20
-9.500
  0
VERTEX
  5
F8
 100
AcDbEntity
  8
_BOARD
 100
AcDbVertex
 100
AcDb2dVertex
 10
-378.492
 20
-9.500
 40
0.000
 41
0.000
 42
0.41421
  0
VERTEX
  5
F9
 100
AcDbEntity
  8
_BOARD
 100
AcDbVertex
 100
AcDb2dVertex
 10
-377.492
 20
-10.500
 40
0.000
 41
0.000
  0
VERTEX
  5
FA
 100
AcDbEntity
  8
_BOARD
 100
AcDbVertex
 100
AcDb2dVertex
 10
-377.492
 20
-10.500
 40
0.000
 41
0.000
 42
1.00000
  0
VERTEX
  5
FB
 100
AcDbEntity
  8
_BOARD
 100
AcDbVertex
 100
AcDb2dVertex
 10
-377.492
 20
-10.500
  0
VERTEX
  5
FC
 100
AcDbEntity
  8
_BOARD
 100
AcDbVertex
 100
AcDb2dVertex
 10
-377.492
 20
-10.500
 40
0.000
 41
0.000
 42
1.00000
  0
VERTEX
  5
FD
 100
AcDbEntity
  8
_BOARD
 100
AcDbVertex
 100
AcDb2dVertex
 10
-377.492
 20
-10.500
  0
VERTEX
  5
FE
 100
AcDbEntity
  8
_BOARD
 100
AcDbVertex
 100
AcDb2dVertex
 10
-377.492
 20
-10.500
  0
VERTEX
  5
FF
 100
AcDbEntity
  8
_BOARD
 100
AcDbVertex
 100
AcDb2dVertex
 10
-377.492
 20
-10.500
 40
0.000
 41
0.000
  0
VERTEX
  5
100
 100
AcDbEntity
  8
_BOARD
 100
AcDbVertex
 100
AcDb2dVertex
 10
-318.650
 20
-10.500
 40
0.000
 41
0.000
  0
VERTEX
  5
101
 100
AcDbEntity
  8
_BOARD
 100
AcDbVertex
 100
AcDb2dVertex
 10
-318.650
 20
-10.500
 40
0.000
 41
0.000
 42
1.00000
  0
VERTEX
  5
102
 100
AcDbEntity
  8
_BOARD
 100
AcDbVertex
 100
AcDb2dVertex
 10
-318.650
 20
-10.500
  0
VERTEX
  5
103
 100
AcDbEntity
  8
_BOARD
 100
AcDbVertex
 100
AcDb2dVertex
 10
-318.650
 20
-10.500
 40
0.000
 41
0.000
 42
-1.00000
  0
VERTEX
  5
104
 100
AcDbEntity
  8
_BOARD
 100
AcDbVertex
 100
AcDb2dVertex
 10
-318.650
 20
-10.500
  0
VERTEX
  5
105
 100
AcDbEntity
  8
_BOARD
 100
AcDbVertex
 100
AcDb2dVertex
 10
-318.650
 20
-10.500
  0
VERTEX
  5
106
 100
AcDbEntity
  8
_BOARD
 100
AcDbVertex
 100
AcDb2dVertex
 10
-318.650
 20
-10.500
 40
0.000
 41
0.000
 42
-1.00000
  0
VERTEX
  5
107
 100
AcDbEntity
  8
_BOARD
 100
AcDbVertex
 100
AcDb2dVertex
 10
-315.150
 20
-10.500
 40
0.000
 41
0.000
  0
VERTEX
  5
108
 100
AcDbEntity
  8
_BOARD
 100
AcDbVertex
 100
AcDb2dVertex
 10
-315.150
 20
-10.500
  0
VERTEX
  5
109
 100
AcDbEntity
  8
_BOARD
 100
AcDbVertex
 100
AcDb2dVertex
 10
-315.150
 20
-10.500
 40
0.000
 41
0.000
  0
VERTEX
  5
10A
 100
AcDbEntity
  8
_BOARD
 100
AcDbVertex
 100
AcDb2dVertex
 10
-315.150
 20
-10.500
 40
0.000
 41
0.000
 42
-1.00000
  0
VERTEX
  5
10B
 100
AcDbEntity
  8
_BOARD
 100
AcDbVertex
 100
AcDb2dVertex
 10
-315.150
 20
-10.500
  0
SEQEND
  5
10C
 100
AcDbEntity
  8
_BOARD
  0
POLYLINE
  5
10D
 100
AcDbEntity
  8
CUTOUTS
 100
AcDb2dPolyline
 66
     1
 10
0.000
 20
0.000
 70
     1
 40
0.000
 41
0.000
  0
VERTEX
  5
10E
 100
AcDbEntity
  8
CUTOUTS
 100
AcDbVertex
 100
AcDb2dVertex
 10
44.030
 20
-5.000
 40
0.000
 41
0.000
 42
1.00000
  0
VERTEX
  5
10F
 100
AcDbEntity
  8
CUTOUTS
 100
AcDbVertex
 100
AcDb2dVertex
 10
44.030
 20
-5.000
  0
VERTEX
  5
110
 100
AcDbEntity
  8
CUTOUTS
 100
AcDbVertex
 100
AcDb2dVertex
 10
44.030
 20
-5.000
  0
VERTEX
  5
111
 100
AcDbEntity
  8
CUTOUTS
 100
AcDbVertex
 100
AcDb2dVertex
 10
44.030
 20
-5.000
 40
0.000
 41
0.000
  0
VERTEX
  5
112
 100
AcDbEntity
  8
CUTOUTS
 100
AcDbVertex
 100
AcDb2dVertex
 10
63.030
 20
-5.000
 40
0.000
 41
0.000
  0
VERTEX
  5
113
 100
AcDbEntity
  8
CUTOUTS
 100
AcDbVertex
 100
AcDb2dVertex
 10
63.030
 20
-5.000
 40
0.000
 41
0.000
 42
1.00000
  0
VERTEX
  5
114
 100
AcDbEntity
  8
CUTOUTS
 100
AcDbVertex
 100
AcDb2dVertex
 10
63.030
 20
-5.000
  0
VERTEX
  5
115
 100
AcDbEntity
  8
CUTOUTS
 100
AcDbVertex
 100
AcDb2dVertex
 10
63.030
 20
-5.000
 40
0.000
 41
0.000
 42
1.00000
  0
VERTEX
  5
116
 100
AcDbEntity
  8
CUTOUTS
 100
AcDbVertex
 100
AcDb2dVertex
 10
63.030
 20
-5.000
  0
VERTEX
  5
117
 100
AcDbEntity
  8
CUTOUTS
 100
AcDbVertex
 100
AcDb2dVertex
 10
63.030
 20
-5.000
  0
VERTEX
  5
118
 100
AcDbEntity
  8
CUTOUTS
 100
AcDbVertex
 100
AcDb2dVertex
 10
63.030
 20
-5.000
 40
0.000
 41
0.000
  0
VERTEX
  5
119
 100
AcDbEntity
  8
CUTOUTS
 100
AcDbVertex
 100
AcDb2dVertex
 10
63.030
 20
6.000
 40
0.000
 41
0.000
  0
VERTEX
  5
11A
 100
AcDbEntity
  8
CUTOUTS
 100
AcDbVertex
 100
AcDb2dVertex
 10
63.030
 20
6.000
 40
0.000
 41
0.000
 42
1.00000
  0
VERTEX
  5
11B
 100
AcDbEntity
  8
CUTOUTS
 100
AcDbVertex
 100
AcDb2dVertex
 10
63.030
 20
6.000
  0
VERTEX
  5
11C
 100
AcDbEntity
  8
CUTOUTS
 100
AcDbVertex
 100
AcDb2dVertex
 10
63.030
 20
6.000
 40
0.000
 41
0.000
 42
1.00000
  0
VERTEX
  5
11D
 100
AcDbEntity
  8
CUTOUTS
 100
AcDbVertex
 100
AcDb2dVertex
 10
63.030
 20
6.000
  0
VERTEX
  5
11E
 100
AcDbEntity
  8
CUTOUTS
 100
AcDbVertex
 100
AcDb2dVertex
 10
63.030
 20
6.000
  0
VERTEX
  5
11F
 100
AcDbEntity
  8
CUTOUTS
 100
AcDbVertex
 100
AcDb2dVertex
 10
63.030
 20
6.000
 40
0.000
 41
0.000
  0
VERTEX
  5
120
 100
AcDbEntity
  8
CUTOUTS
 100
AcDbVertex
 100
AcDb2dVertex
 10
44.030
 20
6.000
 40
0.000
 41
0.000
  0
VERTEX
  5
121
 100
AcDbEntity
  8
CUTOUTS
 100
AcDbVertex
 100
AcDb2dVertex
 10
44.030
 20
6.000
 40
0.000
 41
0.000
 42
1.00000
  0
VERTEX
  5
122
 100
AcDbEntity
  8
CUTOUTS
 100
AcDbVertex
 100
AcDb2dVertex
 10
44.030
 20
6.000
  0
VERTEX
  5
123
 100
AcDbEntity
  8
CUTOUTS
 100
AcDbVertex
 100
AcDb2dVertex
 10
44.030
 20
6.000
 40
0.000
 41
0.000
 42
1.00000
  0
VERTEX
  5
124
 100
AcDbEntity
  8
CUTOUTS
 100
AcDbVertex
 100
AcDb2dVertex
 10
44.030
 20
6.000
  0
VERTEX
  5
125
 100
AcDbEntity
  8
CUTOUTS
 100
AcDbVertex
 100
AcDb2dVertex
 10
44.030
 20
6.000
  0
VERTEX
  5
126
 100
AcDbEntity
  8
CUTOUTS
 100
AcDbVertex
 100
AcDb2dVertex
 10
44.030
 20
6.000
 40
0.000
 41
0.000
  0
VERTEX
  5
127
 100
AcDbEntity
  8
CUTOUTS
 100
AcDbVertex
 100
AcDb2dVertex
 10
44.030
 20
-5.000
 40
0.000
 41
0.000
  0
VERTEX
  5
128
 100
AcDbEntity
  8
CUTOUTS
 100
AcDbVertex
 100
AcDb2dVertex
 10
44.030
 20
-5.000
  0
VERTEX
  5
129
 100
AcDbEntity
  8
CUTOUTS
 100
AcDbVertex
 100
AcDb2dVertex
 10
44.030
 20
-5.000
 40
0.000
 41
0.000
  0
VERTEX
  5
12A
 100
AcDbEntity
  8
CUTOUTS
 100
AcDbVertex
 100
AcDb2dVertex
 10
44.030
 20
-5.000
 40
0.000
 41
0.000
 42
1.00000
  0
VERTEX
  5
12B
 100
AcDbEntity
  8
CUTOUTS
 100
AcDbVertex
 100
AcDb2dVertex
 10
44.030
 20
-5.000
  0
SEQEND
  5
12C
 100
AcDbEntity
  8
CUTOUTS
  0
POLYLINE
  5
12D
 100
AcDbEntity
  8
CUTOUTS
 100
AcDb2dPolyline
 66
     1
 10
0.000
 20
0.000
 70
     1
 40
0.000
 41
0.000
  0
VERTEX
  5
12E
 100
AcDbEntity
  8
CUTOUTS
 100
AcDbVertex
 100
AcDb2dVertex
 10
4.900
 20
0.000
 40
0.000
 41
0.000
 42
1.00000
  0
VERTEX
  5
12F
 100
AcDbEntity
  8
CUTOUTS
 100
AcDbVertex
 100
AcDb2dVertex
 10
4.900
 20
0.000
  0
VERTEX
  5
130
 100
AcDbEntity
  8
CUTOUTS
 100
AcDbVertex
 100
AcDb2dVertex
 10
4.900
 20
0.000
  0
VERTEX
  5
131
 100
AcDbEntity
  8
CUTOUTS
 100
AcDbVertex
 100
AcDb2dVertex
 10
4.900
 20
0.000
 40
0.000
 41
0.000
 42
1.00000
  0
VERTEX
  5
132
 100
AcDbEntity
  8
CUTOUTS
 100
AcDbVertex
 100
AcDb2dVertex
 10
-4.900
 20
0.000
 40
0.000
 41
0.000
  0
VERTEX
  5
133
 100
AcDbEntity
  8
CUTOUTS
 100
AcDbVertex
 100
AcDb2dVertex
 10
-4.900
 20
0.000
 40
0.000
 41
0.000
 42
1.00000
  0
VERTEX
  5
134
 100
AcDbEntity
  8
CUTOUTS
 100
AcDbVertex
 100
AcDb2dVertex
 10
-4.900
 20
0.000
  0
VERTEX
  5
135
 100
AcDbEntity
  8
CUTOUTS
 100
AcDbVertex
 100
AcDb2dVertex
 10
-4.900
 20
0.000
 40
0.000
 41
0.000
 42
1.00000
  0
VERTEX
  5
136
 100
AcDbEntity
  8
CUTOUTS
 100
AcDbVertex
 100
AcDb2dVertex
 10
-4.900
 20
0.000
  0
VERTEX
  5
137
 100
AcDbEntity
  8
CUTOUTS
 100
AcDbVertex
 100
AcDb2dVertex
 10
-4.900
 20
0.000
  0
VERTEX
  5
138
 100
AcDbEntity
  8
CUTOUTS
 100
AcDbVertex
 100
AcDb2dVertex
 10
-4.900
 20
0.000
 40
0.000
 41
0.000
 42
1.00000
  0
VERTEX
  5
139
 100
AcDbEntity
  8
CUTOUTS
 100
AcDbVertex
 100
AcDb2dVertex
 10
4.900
 20
0.000
 40
0.000
 41
0.000
  0
VERTEX
  5
13A
 100
AcDbEntity
  8
CUTOUTS
 100
AcDbVertex
 100
AcDb2dVertex
 10
4.900
 20
0.000
  0
VERTEX
  5
13B
 100
AcDbEntity
  8
CUTOUTS
 100
AcDbVertex
 100
AcDb2dVertex
 10
4.900
 20
0.000
 40
0.000
 41
0.000
  0
VERTEX
  5
13C
 100
AcDbEntity
  8
CUTOUTS
 100
AcDbVertex
 100
AcDb2dVertex
 10
4.900
 20
0.000
 40
0.000
 41
0.000
 42
1.00000
  0
VERTEX
  5
13D
 100
AcDbEntity
  8
CUTOUTS
 100
AcDbVertex
 100
AcDb2dVertex
 10
4.900
 20
0.000
  0
SEQEND
  5
13E
 100
AcDbEntity
  8
CUTOUTS
  0
POLYLINE
  5
13F
 100
AcDbEntity
  8
CUTOUTS
 100
AcDb2dPolyline
 66
     1
 10
0.000
 20
0.000
 70
     1
 40
0.000
 41
0.000
  0
VERTEX
  5
140
 100
AcDbEntity
  8
CUTOUTS
 100
AcDbVertex
 100
AcDb2dVertex
 10
-37.060
 20
-6.200
 40
0.000
 41
0.000
 42
-1.00000
  0
VERTEX
  5
141
 100
AcDbEntity
  8
CUTOUTS
 100
AcDbVertex
 100
AcDb2dVertex
 10
-37.060
 20
-6.200
  0
VERTEX
  5
142
 100
AcDbEntity
  8
CUTOUTS
 100
AcDbVertex
 100
AcDb2dVertex
 10
-37.060
 20
-6.200
  0
VERTEX
  5
143
 100
AcDbEntity
  8
CUTOUTS
 100
AcDbVertex
 100
AcDb2dVertex
 10
-37.060
 20
-6.200
 40
0.000
 41
0.000
  0
VERTEX
  5
144
 100
AcDbEntity
  8
CUTOUTS
 100
AcDbVertex
 100
AcDb2dVertex
 10
-13.560
 20
-6.200
 40
0.000
 41
0.000
  0
VERTEX
  5
145
 100
AcDbEntity
  8
CUTOUTS
 100
AcDbVertex
 100
AcDb2dVertex
 10
-13.560
 20
-6.200
 40
0.000
 41
0.000
 42
-1.00000
  0
VERTEX
  5
146
 100
AcDbEntity
  8
CUTOUTS
 100
AcDbVertex
 100
AcDb2dVertex
 10
-13.560
 20
-6.200
  0
VERTEX
  5
147
 100
AcDbEntity
  8
CUTOUTS
 100
AcDbVertex
 100
AcDb2dVertex
 10
-13.560
 20
-6.200
 40
0.000
 41
0.000
 42
1.00000
  0
VERTEX
  5
148
 100
AcDbEntity
  8
CUTOUTS
 100
AcDbVertex
 100
AcDb2dVertex
 10
-13.560
 20
-6.200
  0
VERTEX
  5
149
 100
AcDbEntity
  8
CUTOUTS
 100
AcDbVertex
 100
AcDb2dVertex
 10
-13.560
 20
-6.200
  0
VERTEX
  5
14A
 100
AcDbEntity
  8
CUTOUTS
 100
AcDbVertex
 100
AcDb2dVertex
 10
-13.560
 20
-6.200
 40
0.000
 41
0.000
 42
0.46631
  0
VERTEX
  5
14B
 100
AcDbEntity
  8
CUTOUTS
 100
AcDbVertex
 100
AcDb2dVertex
 10
-11.837
 20
-4.146
 40
0.000
 41
0.000
  0
VERTEX
  5
14C
 100
AcDbEntity
  8
CUTOUTS
 100
AcDbVertex
 100
AcDb2dVertex
 10
-11.837
 20
-4.146
 40
0.000
 41
0.000
 42
1.00000
  0
VERTEX
  5
14D
 100
AcDbEntity
  8
CUTOUTS
 100
AcDbVertex
 100
AcDb2dVertex
 10
-11.837
 20
-4.146
  0
VERTEX
  5
14E
 100
AcDbEntity
  8
CUTOUTS
 100
AcDbVertex
 100
AcDb2dVertex
 10
-11.837
 20
-4.146
 40
0.000
 41
0.000
 42
1.00000
  0
VERTEX
  5
14F
 100
AcDbEntity
  8
CUTOUTS
 100
AcDbVertex
 100
AcDb2dVertex
 10
-11.837
 20
-4.146
  0
VERTEX
  5
150
 100
AcDbEntity
  8
CUTOUTS
 100
AcDbVertex
 100
AcDb2dVertex
 10
-11.837
 20
-4.146
  0
VERTEX
  5
151
 100
AcDbEntity
  8
CUTOUTS
 100
AcDbVertex
 100
AcDb2dVertex
 10
-11.837
 20
-4.146
 40
0.000
 41
0.000
  0
VERTEX
  5
152
 100
AcDbEntity
  8
CUTOUTS
 100
AcDbVertex
 100
AcDb2dVertex
 10
-13.090
 20
2.960
 40
0.000
 41
0.000
  0
VERTEX
  5
153
 100
AcDbEntity
  8
CUTOUTS
 100
AcDbVertex
 100
AcDb2dVertex
 10
-13.090
 20
2.960
 40
0.000
 41
0.000
 42
1.00000
  0
VERTEX
  5
154
 100
AcDbEntity
  8
CUTOUTS
 100
AcDbVertex
 100
AcDb2dVertex
 10
-13.090
 20
2.960
  0
VERTEX
  5
155
 100
AcDbEntity
  8
CUTOUTS
 100
AcDbVertex
 100
AcDb2dVertex
 10
-13.090
 20
2.960
 40
0.000
 41
0.000
 42
1.00000
  0
VERTEX
  5
156
 100
AcDbEntity
  8
CUTOUTS
 100
AcDbVertex
 100
AcDb2dVertex
 10
-13.090
 20
2.960
  0
VERTEX
  5
157
 100
AcDbEntity
  8
CUTOUTS
 100
AcDbVertex
 100
AcDb2dVertex
 10
-13.090
 20
2.960
  0
VERTEX
  5
158
 100
AcDbEntity
  8
CUTOUTS
 100
AcDbVertex
 100
AcDb2dVertex
 10
-13.090
 20
2.960
 40
0.000
 41
0.000
 42
0.36397
  0
VERTEX
  5
159
 100
AcDbEntity
  8
CUTOUTS
 100
AcDbVertex
 100
AcDb2dVertex
 10
-14.567
 20
4.200
 40
0.000
 41
0.000
  0
VERTEX
  5
15A
 100
AcDbEntity
  8
CUTOUTS
 100
AcDbVertex
 100
AcDb2dVertex
 10
-14.567
 20
4.200
 40
0.000
 41
0.000
 42
1.00000
  0
VERTEX
  5
15B
 100
AcDbEntity
  8
CUTOUTS
 100
AcDbVertex
 100
AcDb2dVertex
 10
-14.567
 20
4.200
  0
VERTEX
  5
15C
 100
AcDbEntity
  8
CUTOUTS
 100
AcDbVertex
 100
AcDb2dVertex
 10
-14.567
 20
4.200
 40
0.000
 41
0.000
 42
1.00000
  0
VERTEX
  5
15D
 100
AcDbEntity
  8
CUTOUTS
 100
AcDbVertex
 100
AcDb2dVertex
 10
-14.567
 20
4.200
  0
VERTEX
  5
15E
 100
AcDbEntity
  8
CUTOUTS
 100
AcDbVertex
 100
AcDb2dVertex
 10
-14.567
 20
4.200
  0
VERTEX
  5
15F
 100
AcDbEntity
  8
CUTOUTS
 100
AcDbVertex
 100
AcDb2dVertex
 10
-14.567
 20
4.200
 40
0.000
 41
0.000
  0
VERTEX
  5
160
 100
AcDbEntity
  8
CUTOUTS
 100
AcDbVertex
 100
AcDb2dVertex
 10
-36.053
 20
4.200
 40
0.000
 41
0.000
  0
VERTEX
  5
161
 100
AcDbEntity
  8
CUTOUTS
 100
AcDbVertex
 100
AcDb2dVertex
 10
-36.053
 20
4.200
 40
0.000
 41
0.000
 42
1.00000
  0
VERTEX
  5
162
 100
AcDbEntity
  8
CUTOUTS
 100
AcDbVertex
 100
AcDb2dVertex
 10
-36.053
 20
4.200
  0
VERTEX
  5
163
 100
AcDbEntity
  8
CUTOUTS
 100
AcDbVertex
 100
AcDb2dVertex
 10
-36.053
 20
4.200
 40
0.000
 41
0.000
 42
1.00000
  0
VERTEX
  5
164
 100
AcDbEntity
  8
CUTOUTS
 100
AcDbVertex
 100
AcDb2dVertex
 10
-36.053
 20
4.200
  0
VERTEX
  5
165
 100
AcDbEntity
  8
CUTOUTS
 100
AcDbVertex
 100
AcDb2dVertex
 10
-36.053
 20
4.200
  0
VERTEX
  5
166
 100
AcDbEntity
  8
CUTOUTS
 100
AcDbVertex
 100
AcDb2dVertex
 10
-36.053
 20
4.200
 40
0.000
 41
0.000
 42
0.36397
  0
VERTEX
  5
167
 100
AcDbEntity
  8
CUTOUTS
 100
AcDbVertex
 100
AcDb2dVertex
 10
-37.530
 20
2.960
 40
0.000
 41
0.000
  0
VERTEX
  5
168
 100
AcDbEntity
  8
CUTOUTS
 100
AcDbVertex
 100
AcDb2dVertex
 10
-37.530
 20
2.960
 40
0.000
 41
0.000
 42
1.00000
  0
VERTEX
  5
169
 100
AcDbEntity
  8
CUTOUTS
 100
AcDbVertex
 100
AcDb2dVertex
 10
-37.530
 20
2.960
  0
VERTEX
  5
16A
 100
AcDbEntity
  8
CUTOUTS
 100
AcDbVertex
 100
AcDb2dVertex
 10
-37.530
 20
2.960
 40
0.000
 41
0.000
 42
1.00000
  0
VERTEX
  5
16B
 100
AcDbEntity
  8
CUTOUTS
 100
AcDbVertex
 100
AcDb2dVertex
 10
-37.530
 20
2.960
  0
VERTEX
  5
16C
 100
AcDbEntity
  8
CUTOUTS
 100
AcDbVertex
 100
AcDb2dVertex
 10
-37.530
 20
2.960
  0
VERTEX
  5
16D
 100
AcDbEntity
  8
CUTOUTS
 100
AcDbVertex
 100
AcDb2dVertex
 10
-37.530
 20
2.960
 40
0.000
 41
0.000
  0
VERTEX
  5
16E
 100
AcDbEntity
  8
CUTOUTS
 100
AcDbVertex
 100
AcDb2dVertex
 10
-38.783
 20
-4.146
 40
0.000
 41
0.000
  0
VERTEX
  5
16F
 100
AcDbEntity
  8
CUTOUTS
 100
AcDbVertex
 100
AcDb2dVertex
 10
-38.783
 20
-4.146
 40
0.000
 41
0.000
 42
1.00000
  0
VERTEX
  5
170
 100
AcDbEntity
  8
CUTOUTS
 100
AcDbVertex
 100
AcDb2dVertex
 10
-38.783
 20
-4.146
  0
VERTEX
  5
171
 100
AcDbEntity
  8
CUTOUTS
 100
AcDbVertex
 100
AcDb2dVertex
 10
-38.783
 20
-4.146
 40
0.000
 41
0.000
 42
1.00000
  0
VERTEX
  5
172
 100
AcDbEntity
  8
CUTOUTS
 100
AcDbVertex
 100
AcDb2dVertex
 10
-38.783
 20
-4.146
  0
VERTEX
  5
173
 100
AcDbEntity
  8
CUTOUTS
 100
AcDbVertex
 100
AcDb2dVertex
 10
-38.783
 20
-4.146
  0
VERTEX
  5
174
 100
AcDbEntity
  8
CUTOUTS
 100
AcDbVertex
 100
AcDb2dVertex
 10
-38.783
 20
-4.146
 40
0.000
 41
0.000
 42
0.46631
  0
VERTEX
  5
175
 100
AcDbEntity
  8
CUTOUTS
 100
AcDbVertex
 100
AcDb2dVertex
 10
-37.060
 20
-6.200
 40
0.000
 41
0.000
  0
VERTEX
  5
176
 100
AcDbEntity
  8
CUTOUTS
 100
AcDbVertex
 100
AcDb2dVertex
 10
-37.060
 20
-6.200
  0
VERTEX
  5
177
 100
AcDbEntity
  8
CUTOUTS
 100
AcDbVertex
 100
AcDb2dVertex
 10
-37.060
 20
-6.200
 40
0.000
 41
0.000
  0
VERTEX
  5
178
 100
AcDbEntity
  8
CUTOUTS
 100
AcDbVertex
 100
AcDb2dVertex
 10
-37.060
 20
-6.200
 40
0.000
 41
0.000
 42
1.00000
  0
VERTEX
  5
179
 100
AcDbEntity
  8
CUTOUTS
 100
AcDbVertex
 100
AcDb2dVertex
 10
-37.060
 20
-6.200
  0
SEQEND
  5
17A
 100
AcDbEntity
  8
CUTOUTS
  0
POLYLINE
  5
17B
 100
AcDbEntity
  8
CUTOUTS
 100
AcDb2dPolyline
 66
     1
 10
0.000
 20
0.000
 70
     1
 40
0.000
 41
0.000
  0
VERTEX
  5
17C
 100
AcDbEntity
  8
CUTOUTS
 100
AcDbVertex
 100
AcDb2dVertex
 10
-59.900
 20
0.000
 40
0.000
 41
0.000
 42
1.00000
  0
VERTEX
  5
17D
 100
AcDbEntity
  8
CUTOUTS
 100
AcDbVertex
 100
AcDb2dVertex
 10
-59.900
 20
0.000
  0
VERTEX
  5
17E
 100
AcDbEntity
  8
CUTOUTS
 100
AcDbVertex
 100
AcDb2dVertex
 10
-59.900
 20
0.000
  0
VERTEX
  5
17F
 100
AcDbEntity
  8
CUTOUTS
 100
AcDbVertex
 100
AcDb2dVertex
 10
-59.900
 20
0.000
 40
0.000
 41
0.000
 42
1.00000
  0
VERTEX
  5
180
 100
AcDbEntity
  8
CUTOUTS
 100
AcDbVertex
 100
AcDb2dVertex
 10
-69.700
 20
0.000
 40
0.000
 41
0.000
  0
VERTEX
  5
181
 100
AcDbEntity
  8
CUTOUTS
 100
AcDbVertex
 100
AcDb2dVertex
 10
-69.700
 20
0.000
 40
0.000
 41
0.000
 42
1.00000
  0
VERTEX
  5
182
 100
AcDbEntity
  8
CUTOUTS
 100
AcDbVertex
 100
AcDb2dVertex
 10
-69.700
 20
0.000
  0
VERTEX
  5
183
 100
AcDbEntity
  8
CUTOUTS
 100
AcDbVertex
 100
AcDb2dVertex
 10
-69.700
 20
0.000
 40
0.000
 41
0.000
 42
1.00000
  0
VERTEX
  5
184
 100
AcDbEntity
  8
CUTOUTS
 100
AcDbVertex
 100
AcDb2dVertex
 10
-69.700
 20
0.000
  0
VERTEX
  5
185
 100
AcDbEntity
  8
CUTOUTS
 100
AcDbVertex
 100
AcDb2dVertex
 10
-69.700
 20
0.000
  0
VERTEX
  5
186
 100
AcDbEntity
  8
CUTOUTS
 100
AcDbVertex
 100
AcDb2dVertex
 10
-69.700
 20
0.000
 40
0.000
 41
0.000
 42
1.00000
  0
VERTEX
  5
187
 100
AcDbEntity
  8
CUTOUTS
 100
AcDbVertex
 100
AcDb2dVertex
 10
-59.900
 20
0.000
 40
0.000
 41
0.000
  0
VERTEX
  5
188
 100
AcDbEntity
  8
CUTOUTS
 100
AcDbVertex
 100
AcDb2dVertex
 10
-59.900
 20
0.000
  0
VERTEX
  5
189
 100
AcDbEntity
  8
CUTOUTS
 100
AcDbVertex
 100
AcDb2dVertex
 10
-59.900
 20
0.000
 40
0.000
 41
0.000
  0
VERTEX
  5
18A
 100
AcDbEntity
  8
CUTOUTS
 100
AcDbVertex
 100
AcDb2dVertex
 10
-59.900
 20
0.000
 40
0.000
 41
0.000
 42
1.00000
  0
VERTEX
  5
18B
 100
AcDbEntity
  8
CUTOUTS
 100
AcDbVertex
 100
AcDb2dVertex
 10
-59.900
 20
0.000
  0
SEQEND
  5
18C
 100
AcDbEntity
  8
CUTOUTS
  0
POLYLINE
  5
18D
 100
AcDbEntity
  8
CUTOUTS
 100
AcDb2dPolyline
 66
     1
 10
0.000
 20
0.000
 70
     1
 40
0.000
 41
0.000
  0
VERTEX
  5
18E
 100
AcDbEntity
  8
CUTOUTS
 100
AcDbVertex
 100
AcDb2dVertex
 10
-72.920
 20
0.000
 40
0.000
 41
0.000
 42
1.00000
  0
VERTEX
  5
18F
 100
AcDbEntity
  8
CUTOUTS
 100
AcDbVertex
 100
AcDb2dVertex
 10
-72.920
 20
0.000
  0
VERTEX
  5
190
 100
AcDbEntity
  8
CUTOUTS
 100
AcDbVertex
 100
AcDb2dVertex
 10
-72.920
 20
0.000
  0
VERTEX
  5
191
 100
AcDbEntity
  8
CUTOUTS
 100
AcDbVertex
 100
AcDb2dVertex
 10
-72.920
 20
0.000
 40
0.000
 41
0.000
 42
1.00000
  0
VERTEX
  5
192
 100
AcDbEntity
  8
CUTOUTS
 100
AcDbVertex
 100
AcDb2dVertex
 10
-82.720
 20
0.000
 40
0.000
 41
0.000
  0
VERTEX
  5
193
 100
AcDbEntity
  8
CUTOUTS
 100
AcDbVertex
 100
AcDb2dVertex
 10
-82.720
 20
0.000
 40
0.000
 41
0.000
 42
1.00000
  0
VERTEX
  5
194
 100
AcDbEntity
  8
CUTOUTS
 100
AcDbVertex
 100
AcDb2dVertex
 10
-82.720
 20
0.000
  0
VERTEX
  5
195
 100
AcDbEntity
  8
CUTOUTS
 100
AcDbVertex
 100
AcDb2dVertex
 10
-82.720
 20
0.000
 40
0.000
 41
0.000
 42
1.00000
  0
VERTEX
  5
196
 100
AcDbEntity
  8
CUTOUTS
 100
AcDbVertex
 100
AcDb2dVertex
 10
-82.720
 20
0.000
  0
VERTEX
  5
197
 100
AcDbEntity
  8
CUTOUTS
 100
AcDbVertex
 100
AcDb2dVertex
 10
-82.720
 20
0.000
  0
VERTEX
  5
198
 100
AcDbEntity
  8
CUTOUTS
 100
AcDbVertex
 100
AcDb2dVertex
 10
-82.720
 20
0.000
 40
0.000
 41
0.000
 42
1.00000
  0
VERTEX
  5
199
 100
AcDbEntity
  8
CUTOUTS
 100
AcDbVertex
 100
AcDb2dVertex
 10
-72.920
 20
0.000
 40
0.000
 41
0.000
  0
VERTEX
  5
19A
 100
AcDbEntity
  8
CUTOUTS
 100
AcDbVertex
 100
AcDb2dVertex
 10
-72.920
 20
0.000
  0
VERTEX
  5
19B
 100
AcDbEntity
  8
CUTOUTS
 100
AcDbVertex
 100
AcDb2dVertex
 10
-72.920
 20
0.000
 40
0.000
 41
0.000
  0
VERTEX
  5
19C
 100
AcDbEntity
  8
CUTOUTS
 100
AcDbVertex
 100
AcDb2dVertex
 10
-72.920
 20
0.000
 40
0.000
 41
0.000
 42
1.00000
  0
VERTEX
  5
19D
 100
AcDbEntity
  8
CUTOUTS
 100
AcDbVertex
 100
AcDb2dVertex
 10
-72.920
 20
0.000
  0
SEQEND
  5
19E
 100
AcDbEntity
  8
CUTOUTS
  0
POLYLINE
  5
19F
 100
AcDbEntity
  8
CUTOUTS
 100
AcDb2dPolyline
 66
     1
 10
0.000
 20
0.000
 70
     1
 40
0.000
 41
0.000
  0
VERTEX
  5
1A0
 100
AcDbEntity
  8
CUTOUTS
 100
AcDbVertex
 100
AcDb2dVertex
 10
-130.785
 20
-6.200
 40
0.000
 41
0.000
 42
-1.00000
  0
VERTEX
  5
1A1
 100
AcDbEntity
  8
CUTOUTS
 100
AcDbVertex
 100
AcDb2dVertex
 10
-130.785
 20
-6.200
  0
VERTEX
  5
1A2
 100
AcDbEntity
  8
CUTOUTS
 100
AcDbVertex
 100
AcDb2dVertex
 10
-130.785
 20
-6.200
  0
VERTEX
  5
1A3
 100
AcDbEntity
  8
CUTOUTS
 100
AcDbVertex
 100
AcDb2dVertex
 10
-130.785
 20
-6.200
 40
0.000
 41
0.000
  0
VERTEX
  5
1A4
 100
AcDbEntity
  8
CUTOUTS
 100
AcDbVertex
 100
AcDb2dVertex
 10
-93.955
 20
-6.200
 40
0.000
 41
0.000
  0
VERTEX
  5
1A5
 100
AcDbEntity
  8
CUTOUTS
 100
AcDbVertex
 100
AcDb2dVertex
 10
-93.955
 20
-6.200
 40
0.000
 41
0.000
 42
-1.00000
  0
VERTEX
  5
1A6
 100
AcDbEntity
  8
CUTOUTS
 100
AcDbVertex
 100
AcDb2dVertex
 10
-93.955
 20
-6.200
  0
VERTEX
  5
1A7
 100
AcDbEntity
  8
CUTOUTS
 100
AcDbVertex
 100
AcDb2dVertex
 10
-93.955
 20
-6.200
 40
0.000
 41
0.000
 42
1.00000
  0
VERTEX
  5
1A8
 100
AcDbEntity
  8
CUTOUTS
 100
AcDbVertex
 100
AcDb2dVertex
 10
-93.955
 20
-6.200
  0
VERTEX
  5
1A9
 100
AcDbEntity
  8
CUTOUTS
 100
AcDbVertex
 100
AcDb2dVertex
 10
-93.955
 20
-6.200
  0
VERTEX
  5
1AA
 100
AcDbEntity
  8
CUTOUTS
 100
AcDbVertex
 100
AcDb2dVertex
 10
-93.955
 20
-6.200
 40
0.000
 41
0.000
 42
0.36397
  0
VERTEX
  5
1AB
 100
AcDbEntity
  8
CUTOUTS
 100
AcDbVertex
 100
AcDb2dVertex
 10
-92.478
 20
-4.960
 40
0.000
 41
0.000
  0
VERTEX
  5
1AC
 100
AcDbEntity
  8
CUTOUTS
 100
AcDbVertex
 100
AcDb2dVertex
 10
-92.478
 20
-4.960
 40
0.000
 41
0.000
 42
1.00000
  0
VERTEX
  5
1AD
 100
AcDbEntity
  8
CUTOUTS
 100
AcDbVertex
 100
AcDb2dVertex
 10
-92.478
 20
-4.960
  0
VERTEX
  5
1AE
 100
AcDbEntity
  8
CUTOUTS
 100
AcDbVertex
 100
AcDb2dVertex
 10
-92.478
 20
-4.960
 40
0.000
 41
0.000
 42
1.00000
  0
VERTEX
  5
1AF
 100
AcDbEntity
  8
CUTOUTS
 100
AcDbVertex
 100
AcDb2dVertex
 10
-92.478
 20
-4.960
  0
VERTEX
  5
1B0
 100
AcDbEntity
  8
CUTOUTS
 100
AcDbVertex
 100
AcDb2dVertex
 10
-92.478
 20
-4.960
  0
VERTEX
  5
1B1
 100
AcDbEntity
  8
CUTOUTS
 100
AcDbVertex
 100
AcDb2dVertex
 10
-92.478
 20
-4.960
 40
0.000
 41
0.000
  0
VERTEX
  5
1B2
 100
AcDbEntity
  8
CUTOUTS
 100
AcDbVertex
 100
AcDb2dVertex
 10
-91.173
 20
2.440
 40
0.000
 41
0.000
  0
VERTEX
  5
1B3
 100
AcDbEntity
  8
CUTOUTS
 100
AcDbVertex
 100
AcDb2dVertex
 10
-91.173
 20
2.440
 40
0.000
 41
0.000
 42
1.00000
  0
VERTEX
  5
1B4
 100
AcDbEntity
  8
CUTOUTS
 100
AcDbVertex
 100
AcDb2dVertex
 10
-91.173
 20
2.440
  0
VERTEX
  5
1B5
 100
AcDbEntity
  8
CUTOUTS
 100
AcDbVertex
 100
AcDb2dVertex
 10
-91.173
 20
2.440
 40
0.000
 41
0.000
 42
1.00000
  0
VERTEX
  5
1B6
 100
AcDbEntity
  8
CUTOUTS
 100
AcDbVertex
 100
AcDb2dVertex
 10
-91.173
 20
2.440
  0
VERTEX
  5
1B7
 100
AcDbEntity
  8
CUTOUTS
 100
AcDbVertex
 100
AcDb2dVertex
 10
-91.173
 20
2.440
  0
VERTEX
  5
1B8
 100
AcDbEntity
  8
CUTOUTS
 100
AcDbVertex
 100
AcDb2dVertex
 10
-91.173
 20
2.440
 40
0.000
 41
0.000
 42
0.46631
  0
VERTEX
  5
1B9
 100
AcDbEntity
  8
CUTOUTS
 100
AcDbVertex
 100
AcDb2dVertex
 10
-92.650
 20
4.200
 40
0.000
 41
0.000
  0
VERTEX
  5
1BA
 100
AcDbEntity
  8
CUTOUTS
 100
AcDbVertex
 100
AcDb2dVertex
 10
-92.650
 20
4.200
 40
0.000
 41
0.000
 42
1.00000
  0
VERTEX
  5
1BB
 100
AcDbEntity
  8
CUTOUTS
 100
AcDbVertex
 100
AcDb2dVertex
 10
-92.650
 20
4.200
  0
VERTEX
  5
1BC
 100
AcDbEntity
  8
CUTOUTS
 100
AcDbVertex
 100
AcDb2dVertex
 10
-92.650
 20
4.200
 40
0.000
 41
0.000
 42
1.00000
  0
VERTEX
  5
1BD
 100
AcDbEntity
  8
CUTOUTS
 100
AcDbVertex
 100
AcDb2dVertex
 10
-92.650
 20
4.200
  0
VERTEX
  5
1BE
 100
AcDbEntity
  8
CUTOUTS
 100
AcDbVertex
 100
AcDb2dVertex
 10
-92.650
 20
4.200
  0
VERTEX
  5
1BF
 100
AcDbEntity
  8
CUTOUTS
 100
AcDbVertex
 100
AcDb2dVertex
 10
-92.650
 20
4.200
 40
0.000
 41
0.000
  0
VERTEX
  5
1C0
 100
AcDbEntity
  8
CUTOUTS
 100
AcDbVertex
 100
AcDb2dVertex
 10
-132.090
 20
4.200
 40
0.000
 41
0.000
  0
VERTEX
  5
1C1
 100
AcDbEntity
  8
CUTOUTS
 100
AcDbVertex
 100
AcDb2dVertex
 10
-132.090
 20
4.200
 40
0.000
 41
0.000
 42
1.00000
  0
VERTEX
  5
1C2
 100
AcDbEntity
  8
CUTOUTS
 100
AcDbVertex
 100
AcDb2dVertex
 10
-132.090
 20
4.200
  0
VERTEX
  5
1C3
 100
AcDbEntity
  8
CUTOUTS
 100
AcDbVertex
 100
AcDb2dVertex
 10
-132.090
 20
4.200
 40
0.000
 41
0.000
 42
1.00000
  0
VERTEX
  5
1C4
 100
AcDbEntity
  8
CUTOUTS
 100
AcDbVertex
 100
AcDb2dVertex
 10
-132.090
 20
4.200
  0
VERTEX
  5
1C5
 100
AcDbEntity
  8
CUTOUTS
 100
AcDbVertex
 100
AcDb2dVertex
 10
-132.090
 20
4.200
  0
VERTEX
  5
1C6
 100
AcDbEntity
  8
CUTOUTS
 100
AcDbVertex
 100
AcDb2dVertex
 10
-132.090
 20
4.200
 40
0.000
 41
0.000
 42
0.46631
  0
VERTEX
  5
1C7
 100
AcDbEntity
  8
CUTOUTS
 100
AcDbVertex
 100
AcDb2dVertex
 10
-133.567
 20
2.440
 40
0.000
 41
0.000
  0
VERTEX
  5
1C8
 100
AcDbEntity
  8
CUTOUTS
 100
AcDbVertex
 100
AcDb2dVertex
 10
-133.567
 20
2.440
 40
0.000
 41
0.000
 42
1.00000
  0
VERTEX
  5
1C9
 100
AcDbEntity
  8
CUTOUTS
 100
AcDbVertex
 100
AcDb2dVertex
 10
-133.567
 20
2.440
  0
VERTEX
  5
1CA
 100
AcDbEntity
  8
CUTOUTS
 100
AcDbVertex
 100
AcDb2dVertex
 10
-133.567
 20
2.440
 40
0.000
 41
0.000
 42
1.00000
  0
VERTEX
  5
1CB
 100
AcDbEntity
  8
CUTOUTS
 100
AcDbVertex
 100
AcDb2dVertex
 10
-133.567
 20
2.440
  0
VERTEX
  5
1CC
 100
AcDbEntity
  8
CUTOUTS
 100
AcDbVertex
 100
AcDb2dVertex
 10
-133.567
 20
2.440
  0
VERTEX
  5
1CD
 100
AcDbEntity
  8
CUTOUTS
 100
AcDbVertex
 100
AcDb2dVertex
 10
-133.567
 20
2.440
 40
0.000
 41
0.000
  0
VERTEX
  5
1CE
 100
AcDbEntity
  8
CUTOUTS
 100
AcDbVertex
 100
AcDb2dVertex
 10
-132.262
 20
-4.960
 40
0.000
 41
0.000
  0
VERTEX
  5
1CF
 100
AcDbEntity
  8
CUTOUTS
 100
AcDbVertex
 100
AcDb2dVertex
 10
-132.262
 20
-4.960
 40
0.000
 41
0.000
 42
1.00000
  0
VERTEX
  5
1D0
 100
AcDbEntity
  8
CUTOUTS
 100
AcDbVertex
 100
AcDb2dVertex
 10
-132.262
 20
-4.960
  0
VERTEX
  5
1D1
 100
AcDbEntity
  8
CUTOUTS
 100
AcDbVertex
 100
AcDb2dVertex
 10
-132.262
 20
-4.960
 40
0.000
 41
0.000
 42
1.00000
  0
VERTEX
  5
1D2
 100
AcDbEntity
  8
CUTOUTS
 100
AcDbVertex
 100
AcDb2dVertex
 10
-132.262
 20
-4.960
  0
VERTEX
  5
1D3
 100
AcDbEntity
  8
CUTOUTS
 100
AcDbVertex
 100
AcDb2dVertex
 10
-132.262
 20
-4.960
  0
VERTEX
  5
1D4
 100
AcDbEntity
  8
CUTOUTS
 100
AcDbVertex
 100
AcDb2dVertex
 10
-132.262
 20
-4.960
 40
0.000
 41
0.000
 42
0.36397
  0
VERTEX
  5
1D5
 100
AcDbEntity
  8
CUTOUTS
 100
AcDbVertex
 100
AcDb2dVertex
 10
-130.785
 20
-6.200
 40
0.000
 41
0.000
  0
VERTEX
  5
1D6
 100
AcDbEntity
  8
CUTOUTS
 100
AcDbVertex
 100
AcDb2dVertex
 10
-130.785
 20
-6.200
  0
VERTEX
  5
1D7
 100
AcDbEntity
  8
CUTOUTS
 100
AcDbVertex
 100
AcDb2dVertex
 10
-130.785
 20
-6.200
 40
0.000
 41
0.000
  0
VERTEX
  5
1D8
 100
AcDbEntity
  8
CUTOUTS
 100
AcDbVertex
 100
AcDb2dVertex
 10
-130.785
 20
-6.200
 40
0.000
 41
0.000
 42
1.00000
  0
VERTEX
  5
1D9
 100
AcDbEntity
  8
CUTOUTS
 100
AcDbVertex
 100
AcDb2dVertex
 10
-130.785
 20
-6.200
  0
SEQEND
  5
1DA
 100
AcDbEntity
  8
CUTOUTS
  0
POLYLINE
  5
1DB
 100
AcDbEntity
  8
CUTOUTS
 100
AcDb2dPolyline
 66
     1
 10
0.000
 20
0.000
 70
     1
 40
0.000
 41
0.000
  0
VERTEX
  5
1DC
 100
AcDbEntity
  8
CUTOUTS
 100
AcDbVertex
 100
AcDb2dVertex
 10
-189.462
 20
-4.960
 40
0.000
 41
0.000
 42
1.00000
  0
VERTEX
  5
1DD
 100
AcDbEntity
  8
CUTOUTS
 100
AcDbVertex
 100
AcDb2dVertex
 10
-189.462
 20
-4.960
  0
VERTEX
  5
1DE
 100
AcDbEntity
  8
CUTOUTS
 100
AcDbVertex
 100
AcDb2dVertex
 10
-189.462
 20
-4.960
  0
VERTEX
  5
1DF
 100
AcDbEntity
  8
CUTOUTS
 100
AcDbVertex
 100
AcDb2dVertex
 10
-189.462
 20
-4.960
 40
0.000
 41
0.000
 42
0.36397
  0
VERTEX
  5
1E0
 100
AcDbEntity
  8
CUTOUTS
 100
AcDbVertex
 100
AcDb2dVertex
 10
-187.985
 20
-6.200
 40
0.000
 41
0.000
  0
VERTEX
  5
1E1
 100
AcDbEntity
  8
CUTOUTS
 100
AcDbVertex
 100
AcDb2dVertex
 10
-187.985
 20
-6.200
 40
0.000
 41
0.000
 42
1.00000
  0
VERTEX
  5
1E2
 100
AcDbEntity
  8
CUTOUTS
 100
AcDbVertex
 100
AcDb2dVertex
 10
-187.985
 20
-6.200
  0
VERTEX
  5
1E3
 100
AcDbEntity
  8
CUTOUTS
 100
AcDbVertex
 100
AcDb2dVertex
 10
-187.985
 20
-6.200
 40
0.000
 41
0.000
 42
-1.00000
  0
VERTEX
  5
1E4
 100
AcDbEntity
  8
CUTOUTS
 100
AcDbVertex
 100
AcDb2dVertex
 10
-187.985
 20
-6.200
  0
VERTEX
  5
1E5
 100
AcDbEntity
  8
CUTOUTS
 100
AcDbVertex
 100
AcDb2dVertex
 10
-187.985
 20
-6.200
  0
VERTEX
  5
1E6
 100
AcDbEntity
  8
CUTOUTS
 100
AcDbVertex
 100
AcDb2dVertex
 10
-187.985
 20
-6.200
 40
0.000
 41
0.000
  0
VERTEX
  5
1E7
 100
AcDbEntity
  8
CUTOUTS
 100
AcDbVertex
 100
AcDb2dVertex
 10
-151.155
 20
-6.200
 40
0.000
 41
0.000
  0
VERTEX
  5
1E8
 100
AcDbEntity
  8
CUTOUTS
 100
AcDbVertex
 100
AcDb2dVertex
 10
-151.155
 20
-6.200
 40
0.000
 41
0.000
 42
-1.00000
  0
VERTEX
  5
1E9
 100
AcDbEntity
  8
CUTOUTS
 100
AcDbVertex
 100
AcDb2dVertex
 10
-151.155
 20
-6.200
  0
VERTEX
  5
1EA
 100
AcDbEntity
  8
CUTOUTS
 100
AcDbVertex
 100
AcDb2dVertex
 10
-151.155
 20
-6.200
 40
0.000
 41
0.000
 42
1.00000
  0
VERTEX
  5
1EB
 100
AcDbEntity
  8
CUTOUTS
 100
AcDbVertex
 100
AcDb2dVertex
 10
-151.155
 20
-6.200
  0
VERTEX
  5
1EC
 100
AcDbEntity
  8
CUTOUTS
 100
AcDbVertex
 100
AcDb2dVertex
 10
-151.155
 20
-6.200
  0
VERTEX
  5
1ED
 100
AcDbEntity
  8
CUTOUTS
 100
AcDbVertex
 100
AcDb2dVertex
 10
-151.155
 20
-6.200
 40
0.000
 41
0.000
 42
0.36397
  0
VERTEX
  5
1EE
 100
AcDbEntity
  8
CUTOUTS
 100
AcDbVertex
 100
AcDb2dVertex
 10
-149.678
 20
-4.960
 40
0.000
 41
0.000
  0
VERTEX
  5
1EF
 100
AcDbEntity
  8
CUTOUTS
 100
AcDbVertex
 100
AcDb2dVertex
 10
-149.678
 20
-4.960
 40
0.000
 41
0.000
 42
1.00000
  0
VERTEX
  5
1F0
 100
AcDbEntity
  8
CUTOUTS
 100
AcDbVertex
 100
AcDb2dVertex
 10
-149.678
 20
-4.960
  0
VERTEX
  5
1F1
 100
AcDbEntity
  8
CUTOUTS
 100
AcDbVertex
 100
AcDb2dVertex
 10
-149.678
 20
-4.960
 40
0.000
 41
0.000
 42
1.00000
  0
VERTEX
  5
1F2
 100
AcDbEntity
  8
CUTOUTS
 100
AcDbVertex
 100
AcDb2dVertex
 10
-149.678
 20
-4.960
  0
VERTEX
  5
1F3
 100
AcDbEntity
  8
CUTOUTS
 100
AcDbVertex
 100
AcDb2dVertex
 10
-149.678
 20
-4.960
  0
VERTEX
  5
1F4
 100
AcDbEntity
  8
CUTOUTS
 100
AcDbVertex
 100
AcDb2dVertex
 10
-149.678
 20
-4.960
 40
0.000
 41
0.000
  0
VERTEX
  5
1F5
 100
AcDbEntity
  8
CUTOUTS
 100
AcDbVertex
 100
AcDb2dVertex
 10
-148.373
 20
2.440
 40
0.000
 41
0.000
  0
VERTEX
  5
1F6
 100
AcDbEntity
  8
CUTOUTS
 100
AcDbVertex
 100
AcDb2dVertex
 10
-148.373
 20
2.440
 40
0.000
 41
0.000
 42
1.00000
  0
VERTEX
  5
1F7
 100
AcDbEntity
  8
CUTOUTS
 100
AcDbVertex
 100
AcDb2dVertex
 10
-148.373
 20
2.440
  0
VERTEX
  5
1F8
 100
AcDbEntity
  8
CUTOUTS
 100
AcDbVertex
 100
AcDb2dVertex
 10
-148.373
 20
2.440
 40
0.000
 41
0.000
 42
1.00000
  0
VERTEX
  5
1F9
 100
AcDbEntity
  8
CUTOUTS
 100
AcDbVertex
 100
AcDb2dVertex
 10
-148.373
 20
2.440
  0
VERTEX
  5
1FA
 100
AcDbEntity
  8
CUTOUTS
 100
AcDbVertex
 100
AcDb2dVertex
 10
-148.373
 20
2.440
  0
VERTEX
  5
1FB
 100
AcDbEntity
  8
CUTOUTS
 100
AcDbVertex
 100
AcDb2dVertex
 10
-148.373
 20
2.440
 40
0.000
 41
0.000
 42
0.46631
  0
VERTEX
  5
1FC
 100
AcDbEntity
  8
CUTOUTS
 100
AcDbVertex
 100
AcDb2dVertex
 10
-149.850
 20
4.200
 40
0.000
 41
0.000
  0
VERTEX
  5
1FD
 100
AcDbEntity
  8
CUTOUTS
 100
AcDbVertex
 100
AcDb2dVertex
 10
-149.850
 20
4.200
 40
0.000
 41
0.000
 42
1.00000
  0
VERTEX
  5
1FE
 100
AcDbEntity
  8
CUTOUTS
 100
AcDbVertex
 100
AcDb2dVertex
 10
-149.850
 20
4.200
  0
VERTEX
  5
1FF
 100
AcDbEntity
  8
CUTOUTS
 100
AcDbVertex
 100
AcDb2dVertex
 10
-149.850
 20
4.200
 40
0.000
 41
0.000
 42
1.00000
  0
VERTEX
  5
200
 100
AcDbEntity
  8
CUTOUTS
 100
AcDbVertex
 100
AcDb2dVertex
 10
-149.850
 20
4.200
  0
VERTEX
  5
201
 100
AcDbEntity
  8
CUTOUTS
 100
AcDbVertex
 100
AcDb2dVertex
 10
-149.850
 20
4.200
  0
VERTEX
  5
202
 100
AcDbEntity
  8
CUTOUTS
 100
AcDbVertex
 100
AcDb2dVertex
 10
-149.850
 20
4.200
 40
0.000
 41
0.000
  0
VERTEX
  5
203
 100
AcDbEntity
  8
CUTOUTS
 100
AcDbVertex
 100
AcDb2dVertex
 10
-189.290
 20
4.200
 40
0.000
 41
0.000
  0
VERTEX
  5
204
 100
AcDbEntity
  8
CUTOUTS
 100
AcDbVertex
 100
AcDb2dVertex
 10
-189.290
 20
4.200
 40
0.000
 41
0.000
 42
1.00000
  0
VERTEX
  5
205
 100
AcDbEntity
  8
CUTOUTS
 100
AcDbVertex
 100
AcDb2dVertex
 10
-189.290
 20
4.200
  0
VERTEX
  5
206
 100
AcDbEntity
  8
CUTOUTS
 100
AcDbVertex
 100
AcDb2dVertex
 10
-189.290
 20
4.200
 40
0.000
 41
0.000
 42
1.00000
  0
VERTEX
  5
207
 100
AcDbEntity
  8
CUTOUTS
 100
AcDbVertex
 100
AcDb2dVertex
 10
-189.290
 20
4.200
  0
VERTEX
  5
208
 100
AcDbEntity
  8
CUTOUTS
 100
AcDbVertex
 100
AcDb2dVertex
 10
-189.290
 20
4.200
  0
VERTEX
  5
209
 100
AcDbEntity
  8
CUTOUTS
 100
AcDbVertex
 100
AcDb2dVertex
 10
-189.290
 20
4.200
 40
0.000
 41
0.000
 42
0.46631
  0
VERTEX
  5
20A
 100
AcDbEntity
  8
CUTOUTS
 100
AcDbVertex
 100
AcDb2dVertex
 10
-190.767
 20
2.440
 40
0.000
 41
0.000
  0
VERTEX
  5
20B
 100
AcDbEntity
  8
CUTOUTS
 100
AcDbVertex
 100
AcDb2dVertex
 10
-190.767
 20
2.440
 40
0.000
 41
0.000
 42
1.00000
  0
VERTEX
  5
20C
 100
AcDbEntity
  8
CUTOUTS
 100
AcDbVertex
 100
AcDb2dVertex
 10
-190.767
 20
2.440
  0
VERTEX
  5
20D
 100
AcDbEntity
  8
CUTOUTS
 100
AcDbVertex
 100
AcDb2dVertex
 10
-190.767
 20
2.440
 40
0.000
 41
0.000
 42
1.00000
  0
VERTEX
  5
20E
 100
AcDbEntity
  8
CUTOUTS
 100
AcDbVertex
 100
AcDb2dVertex
 10
-190.767
 20
2.440
  0
VERTEX
  5
20F
 100
AcDbEntity
  8
CUTOUTS
 100
AcDbVertex
 100
AcDb2dVertex
 10
-190.767
 20
2.440
  0
VERTEX
  5
210
 100
AcDbEntity
  8
CUTOUTS
 100
AcDbVertex
 100
AcDb2dVertex
 10
-190.767
 20
2.440
 40
0.000
 41
0.000
  0
VERTEX
  5
211
 100
AcDbEntity
  8
CUTOUTS
 100
AcDbVertex
 100
AcDb2dVertex
 10
-189.462
 20
-4.960
 40
0.000
 41
0.000
  0
VERTEX
  5
212
 100
AcDbEntity
  8
CUTOUTS
 100
AcDbVertex
 100
AcDb2dVertex
 10
-189.462
 20
-4.960
  0
VERTEX
  5
213
 100
AcDbEntity
  8
CUTOUTS
 100
AcDbVertex
 100
AcDb2dVertex
 10
-189.462
 20
-4.960
 40
0.000
 41
0.000
  0
VERTEX
  5
214
 100
AcDbEntity
  8
CUTOUTS
 100
AcDbVertex
 100
AcDb2dVertex
 10
-189.462
 20
-4.960
 40
0.000
 41
0.000
 42
1.00000
  0
VERTEX
  5
215
 100
AcDbEntity
  8
CUTOUTS
 100
AcDbVertex
 100
AcDb2dVertex
 10
-189.462
 20
-4.960
  0
SEQEND
  5
216
 100
AcDbEntity
  8
CUTOUTS
  0
POLYLINE
  5
217
 100
AcDbEntity
  8
CUTOUTS
 100
AcDb2dPolyline
 66
     1
 10
0.000
 20
0.000
 70
     1
 40
0.000
 41
0.000
  0
VERTEX
  5
218
 100
AcDbEntity
  8
CUTOUTS
 100
AcDbVertex
 100
AcDb2dVertex
 10
-246.662
 20
-4.960
 40
0.000
 41
0.000
 42
-1.00000
  0
VERTEX
  5
219
 100
AcDbEntity
  8
CUTOUTS
 100
AcDbVertex
 100
AcDb2dVertex
 10
-246.662
 20
-4.960
  0
VERTEX
  5
21A
 100
AcDbEntity
  8
CUTOUTS
 100
AcDbVertex
 100
AcDb2dVertex
 10
-246.662
 20
-4.960
  0
VERTEX
  5
21B
 100
AcDbEntity
  8
CUTOUTS
 100
AcDbVertex
 100
AcDb2dVertex
 10
-246.662
 20
-4.960
 40
0.000
 41
0.000
  0
VERTEX
  5
21C
 100
AcDbEntity
  8
CUTOUTS
 100
AcDbVertex
 100
AcDb2dVertex
 10
-247.967
 20
2.440
 40
0.000
 41
0.000
  0
VERTEX
  5
21D
 100
AcDbEntity
  8
CUTOUTS
 100
AcDbVertex
 100
AcDb2dVertex
 10
-247.967
 20
2.440
 40
0.000
 41
0.000
 42
-1.00000
  0
VERTEX
  5
21E
 100
AcDbEntity
  8
CUTOUTS
 100
AcDbVertex
 100
AcDb2dVertex
 10
-247.967
 20
2.440
  0
VERTEX
  5
21F
 100
AcDbEntity
  8
CUTOUTS
 100
AcDbVertex
 100
AcDb2dVertex
 10
-247.967
 20
2.440
 40
0.000
 41
0.000
 42
-1.00000
  0
VERTEX
  5
220
 100
AcDbEntity
  8
CUTOUTS
 100
AcDbVertex
 100
AcDb2dVertex
 10
-247.967
 20
2.440
  0
VERTEX
  5
221
 100
AcDbEntity
  8
CUTOUTS
 100
AcDbVertex
 100
AcDb2dVertex
 10
-247.967
 20
2.440
  0
VERTEX
  5
222
 100
AcDbEntity
  8
CUTOUTS
 100
AcDbVertex
 100
AcDb2dVertex
 10
-247.967
 20
2.440
 40
0.000
 41
0.000
 42
-0.46631
  0
VERTEX
  5
223
 100
AcDbEntity
  8
CUTOUTS
 100
AcDbVertex
 100
AcDb2dVertex
 10
-246.490
 20
4.200
 40
0.000
 41
0.000
  0
VERTEX
  5
224
 100
AcDbEntity
  8
CUTOUTS
 100
AcDbVertex
 100
AcDb2dVertex
 10
-246.490
 20
4.200
 40
0.000
 41
0.000
 42
-1.00000
  0
VERTEX
  5
225
 100
AcDbEntity
  8
CUTOUTS
 100
AcDbVertex
 100
AcDb2dVertex
 10
-246.490
 20
4.200
  0
VERTEX
  5
226
 100
AcDbEntity
  8
CUTOUTS
 100
AcDbVertex
 100
AcDb2dVertex
 10
-246.490
 20
4.200
 40
0.000
 41
0.000
 42
-1.00000
  0
VERTEX
  5
227
 100
AcDbEntity
  8
CUTOUTS
 100
AcDbVertex
 100
AcDb2dVertex
 10
-246.490
 20
4.200
  0
VERTEX
  5
228
 100
AcDbEntity
  8
CUTOUTS
 100
AcDbVertex
 100
AcDb2dVertex
 10
-246.490
 20
4.200
  0
VERTEX
  5
229
 100
AcDbEntity
  8
CUTOUTS
 100
AcDbVertex
 100
AcDb2dVertex
 10
-246.490
 20
4.200
 40
0.000
 41
0.000
  0
VERTEX
  5
22A
 100
AcDbEntity
  8
CUTOUTS
 100
AcDbVertex
 100
AcDb2dVertex
 10
-207.050
 20
4.200
 40
0.000
 41
0.000
  0
VERTEX
  5
22B
 100
AcDbEntity
  8
CUTOUTS
 100
AcDbVertex
 100
AcDb2dVertex
 10
-207.050
 20
4.200
 40
0.000
 41
0.000
 42
-1.00000
  0
VERTEX
  5
22C
 100
AcDbEntity
  8
CUTOUTS
 100
AcDbVertex
 100
AcDb2dVertex
 10
-207.050
 20
4.200
  0
VERTEX
  5
22D
 100
AcDbEntity
  8
CUTOUTS
 100
AcDbVertex
 100
AcDb2dVertex
 10
-207.050
 20
4.200
 40
0.000
 41
0.000
 42
-1.00000
  0
VERTEX
  5
22E
 100
AcDbEntity
  8
CUTOUTS
 100
AcDbVertex
 100
AcDb2dVertex
 10
-207.050
 20
4.200
  0
VERTEX
  5
22F
 100
AcDbEntity
  8
CUTOUTS
 100
AcDbVertex
 100
AcDb2dVertex
 10
-207.050
 20
4.200
  0
VERTEX
  5
230
 100
AcDbEntity
  8
CUTOUTS
 100
AcDbVertex
 100
AcDb2dVertex
 10
-207.050
 20
4.200
 40
0.000
 41
0.000
 42
-0.46631
  0
VERTEX
  5
231
 100
AcDbEntity
  8
CUTOUTS
 100
AcDbVertex
 100
AcDb2dVertex
 10
-205.573
 20
2.440
 40
0.000
 41
0.000
  0
VERTEX
  5
232
 100
AcDbEntity
  8
CUTOUTS
 100
AcDbVertex
 100
AcDb2dVertex
 10
-205.573
 20
2.440
 40
0.000
 41
0.000
 42
-1.00000
  0
VERTEX
  5
233
 100
AcDbEntity
  8
CUTOUTS
 100
AcDbVertex
 100
AcDb2dVertex
 10
-205.573
 20
2.440
  0
VERTEX
  5
234
 100
AcDbEntity
  8
CUTOUTS
 100
AcDbVertex
 100
AcDb2dVertex
 10
-205.573
 20
2.440
 40
0.000
 41
0.000
 42
1.00000
  0
VERTEX
  5
235
 100
AcDbEntity
  8
CUTOUTS
 100
AcDbVertex
 100
AcDb2dVertex
 10
-205.573
 20
2.440
  0
VERTEX
  5
236
 100
AcDbEntity
  8
CUTOUTS
 100
AcDbVertex
 100
AcDb2dVertex
 10
-205.573
 20
2.440
  0
VERTEX
  5
237
 100
AcDbEntity
  8
CUTOUTS
 100
AcDbVertex
 100
AcDb2dVertex
 10
-205.573
 20
2.440
 40
0.000
 41
0.000
  0
VERTEX
  5
238
 100
AcDbEntity
  8
CUTOUTS
 100
AcDbVertex
 100
AcDb2dVertex
 10
-206.878
 20
-4.960
 40
0.000
 41
0.000
  0
VERTEX
  5
239
 100
AcDbEntity
  8
CUTOUTS
 100
AcDbVertex
 100
AcDb2dVertex
 10
-206.878
 20
-4.960
 40
0.000
 41
0.000
 42
1.00000
  0
VERTEX
  5
23A
 100
AcDbEntity
  8
CUTOUTS
 100
AcDbVertex
 100
AcDb2dVertex
 10
-206.878
 20
-4.960
  0
VERTEX
  5
23B
 100
AcDbEntity
  8
CUTOUTS
 100
AcDbVertex
 100
AcDb2dVertex
 10
-206.878
 20
-4.960
 40
0.000
 41
0.000
 42
-1.00000
  0
VERTEX
  5
23C
 100
AcDbEntity
  8
CUTOUTS
 100
AcDbVertex
 100
AcDb2dVertex
 10
-206.878
 20
-4.960
  0
VERTEX
  5
23D
 100
AcDbEntity
  8
CUTOUTS
 100
AcDbVertex
 100
AcDb2dVertex
 10
-206.878
 20
-4.960
  0
VERTEX
  5
23E
 100
AcDbEntity
  8
CUTOUTS
 100
AcDbVertex
 100
AcDb2dVertex
 10
-206.878
 20
-4.960
 40
0.000
 41
0.000
 42
-0.36397
  0
VERTEX
  5
23F
 100
AcDbEntity
  8
CUTOUTS
 100
AcDbVertex
 100
AcDb2dVertex
 10
-208.355
 20
-6.200
 40
0.000
 41
0.000
  0
VERTEX
  5
240
 100
AcDbEntity
  8
CUTOUTS
 100
AcDbVertex
 100
AcDb2dVertex
 10
-208.355
 20
-6.200
 40
0.000
 41
0.000
 42
-1.00000
  0
VERTEX
  5
241
 100
AcDbEntity
  8
CUTOUTS
 100
AcDbVertex
 100
AcDb2dVertex
 10
-208.355
 20
-6.200
  0
VERTEX
  5
242
 100
AcDbEntity
  8
CUTOUTS
 100
AcDbVertex
 100
AcDb2dVertex
 10
-208.355
 20
-6.200
 40
0.000
 41
0.000
 42
1.00000
  0
VERTEX
  5
243
 100
AcDbEntity
  8
CUTOUTS
 100
AcDbVertex
 100
AcDb2dVertex
 10
-208.355
 20
-6.200
  0
VERTEX
  5
244
 100
AcDbEntity
  8
CUTOUTS
 100
AcDbVertex
 100
AcDb2dVertex
 10
-208.355
 20
-6.200
  0
VERTEX
  5
245
 100
AcDbEntity
  8
CUTOUTS
 100
AcDbVertex
 100
AcDb2dVertex
 10
-208.355
 20
-6.200
 40
0.000
 41
0.000
  0
VERTEX
  5
246
 100
AcDbEntity
  8
CUTOUTS
 100
AcDbVertex
 100
AcDb2dVertex
 10
-245.185
 20
-6.200
 40
0.000
 41
0.000
  0
VERTEX
  5
247
 100
AcDbEntity
  8
CUTOUTS
 100
AcDbVertex
 100
AcDb2dVertex
 10
-245.185
 20
-6.200
 40
0.000
 41
0.000
 42
1.00000
  0
VERTEX
  5
248
 100
AcDbEntity
  8
CUTOUTS
 100
AcDbVertex
 100
AcDb2dVertex
 10
-245.185
 20
-6.200
  0
VERTEX
  5
249
 100
AcDbEntity
  8
CUTOUTS
 100
AcDbVertex
 100
AcDb2dVertex
 10
-245.185
 20
-6.200
 40
0.000
 41
0.000
 42
-1.00000
  0
VERTEX
  5
24A
 100
AcDbEntity
  8
CUTOUTS
 100
AcDbVertex
 100
AcDb2dVertex
 10
-245.185
 20
-6.200
  0
VERTEX
  5
24B
 100
AcDbEntity
  8
CUTOUTS
 100
AcDbVertex
 100
AcDb2dVertex
 10
-245.185
 20
-6.200
  0
VERTEX
  5
24C
 100
AcDbEntity
  8
CUTOUTS
 100
AcDbVertex
 100
AcDb2dVertex
 10
-245.185
 20
-6.200
 40
0.000
 41
0.000
 42
-0.36397
  0
VERTEX
  5
24D
 100
AcDbEntity
  8
CUTOUTS
 100
AcDbVertex
 100
AcDb2dVertex
 10
-246.662
 20
-4.960
 40
0.000
 41
0.000
  0
VERTEX
  5
24E
 100
AcDbEntity
  8
CUTOUTS
 100
AcDbVertex
 100
AcDb2dVertex
 10
-246.662
 20
-4.960
  0
VERTEX
  5
24F
 100
AcDbEntity
  8
CUTOUTS
 100
AcDbVertex
 100
AcDb2dVertex
 10
-246.662
 20
-4.960
 40
0.000
 41
0.000
  0
VERTEX
  5
250
 100
AcDbEntity
  8
CUTOUTS
 100
AcDbVertex
 100
AcDb2dVertex
 10
-246.662
 20
-4.960
 40
0.000
 41
0.000
 42
-1.00000
  0
VERTEX
  5
251
 100
AcDbEntity
  8
CUTOUTS
 100
AcDbVertex
 100
AcDb2dVertex
 10
-246.662
 20
-4.960
  0
SEQEND
  5
252
 100
AcDbEntity
  8
CUTOUTS
  0
POLYLINE
  5
253
 100
AcDbEntity
  8
CUTOUTS
 100
AcDb2dPolyline
 66
     1
 10
0.000
 20
0.000
 70
     1
 40
0.000
 41
0.000
  0
VERTEX
  5
254
 100
AcDbEntity
  8
CUTOUTS
 100
AcDbVertex
 100
AcDb2dVertex
 10
-279.172
 20
-4.960
 40
0.000
 41
0.000
 42
-1.00000
  0
VERTEX
  5
255
 100
AcDbEntity
  8
CUTOUTS
 100
AcDbVertex
 100
AcDb2dVertex
 10
-279.172
 20
-4.960
  0
VERTEX
  5
256
 100
AcDbEntity
  8
CUTOUTS
 100
AcDbVertex
 100
AcDb2dVertex
 10
-279.172
 20
-4.960
  0
VERTEX
  5
257
 100
AcDbEntity
  8
CUTOUTS
 100
AcDbVertex
 100
AcDb2dVertex
 10
-279.172
 20
-4.960
 40
0.000
 41
0.000
  0
VERTEX
  5
258
 100
AcDbEntity
  8
CUTOUTS
 100
AcDbVertex
 100
AcDb2dVertex
 10
-280.477
 20
2.440
 40
0.000
 41
0.000
  0
VERTEX
  5
259
 100
AcDbEntity
  8
CUTOUTS
 100
AcDbVertex
 100
AcDb2dVertex
 10
-280.477
 20
2.440
 40
0.000
 41
0.000
 42
-1.00000
  0
VERTEX
  5
25A
 100
AcDbEntity
  8
CUTOUTS
 100
AcDbVertex
 100
AcDb2dVertex
 10
-280.477
 20
2.440
  0
VERTEX
  5
25B
 100
AcDbEntity
  8
CUTOUTS
 100
AcDbVertex
 100
AcDb2dVertex
 10
-280.477
 20
2.440
 40
0.000
 41
0.000
 42
-1.00000
  0
VERTEX
  5
25C
 100
AcDbEntity
  8
CUTOUTS
 100
AcDbVertex
 100
AcDb2dVertex
 10
-280.477
 20
2.440
  0
VERTEX
  5
25D
 100
AcDbEntity
  8
CUTOUTS
 100
AcDbVertex
 100
AcDb2dVertex
 10
-280.477
 20
2.440
  0
VERTEX
  5
25E
 100
AcDbEntity
  8
CUTOUTS
 100
AcDbVertex
 100
AcDb2dVertex
 10
-280.477
 20
2.440
 40
0.000
 41
0.000
 42
-0.46631
  0
VERTEX
  5
25F
 100
AcDbEntity
  8
CUTOUTS
 100
AcDbVertex
 100
AcDb2dVertex
 10
-279.000
 20
4.200
 40
0.000
 41
0.000
  0
VERTEX
  5
260
 100
AcDbEntity
  8
CUTOUTS
 100
AcDbVertex
 100
AcDb2dVertex
 10
-279.000
 20
4.200
 40
0.000
 41
0.000
 42
-1.00000
  0
VERTEX
  5
261
 100
AcDbEntity
  8
CUTOUTS
 100
AcDbVertex
 100
AcDb2dVertex
 10
-279.000
 20
4.200
  0
VERTEX
  5
262
 100
AcDbEntity
  8
CUTOUTS
 100
AcDbVertex
 100
AcDb2dVertex
 10
-279.000
 20
4.200
 40
0.000
 41
0.000
 42
-1.00000
  0
VERTEX
  5
263
 100
AcDbEntity
  8
CUTOUTS
 100
AcDbVertex
 100
AcDb2dVertex
 10
-279.000
 20
4.200
  0
VERTEX
  5
264
 100
AcDbEntity
  8
CUTOUTS
 100
AcDbVertex
 100
AcDb2dVertex
 10
-279.000
 20
4.200
  0
VERTEX
  5
265
 100
AcDbEntity
  8
CUTOUTS
 100
AcDbVertex
 100
AcDb2dVertex
 10
-279.000
 20
4.200
 40
0.000
 41
0.000
  0
VERTEX
  5
266
 100
AcDbEntity
  8
CUTOUTS
 100
AcDbVertex
 100
AcDb2dVertex
 10
-261.500
 20
4.200
 40
0.000
 41
0.000
  0
VERTEX
  5
267
 100
AcDbEntity
  8
CUTOUTS
 100
AcDbVertex
 100
AcDb2dVertex
 10
-261.500
 20
4.200
 40
0.000
 41
0.000
 42
-1.00000
  0
VERTEX
  5
268
 100
AcDbEntity
  8
CUTOUTS
 100
AcDbVertex
 100
AcDb2dVertex
 10
-261.500
 20
4.200
  0
VERTEX
  5
269
 100
AcDbEntity
  8
CUTOUTS
 100
AcDbVertex
 100
AcDb2dVertex
 10
-261.500
 20
4.200
 40
0.000
 41
0.000
 42
-1.00000
  0
VERTEX
  5
26A
 100
AcDbEntity
  8
CUTOUTS
 100
AcDbVertex
 100
AcDb2dVertex
 10
-261.500
 20
4.200
  0
VERTEX
  5
26B
 100
AcDbEntity
  8
CUTOUTS
 100
AcDbVertex
 100
AcDb2dVertex
 10
-261.500
 20
4.200
  0
VERTEX
  5
26C
 100
AcDbEntity
  8
CUTOUTS
 100
AcDbVertex
 100
AcDb2dVertex
 10
-261.500
 20
4.200
 40
0.000
 41
0.000
 42
-0.46631
  0
VERTEX
  5
26D
 100
AcDbEntity
  8
CUTOUTS
 100
AcDbVertex
 100
AcDb2dVertex
 10
-260.023
 20
2.440
 40
0.000
 41
0.000
  0
VERTEX
  5
26E
 100
AcDbEntity
  8
CUTOUTS
 100
AcDbVertex
 100
AcDb2dVertex
 10
-260.023
 20
2.440
 40
0.000
 41
0.000
 42
-1.00000
  0
VERTEX
  5
26F
 100
AcDbEntity
  8
CUTOUTS
 100
AcDbVertex
 100
AcDb2dVertex
 10
-260.023
 20
2.440
  0
VERTEX
  5
270
 100
AcDbEntity
  8
CUTOUTS
 100
AcDbVertex
 100
AcDb2dVertex
 10
-260.023
 20
2.440
 40
0.000
 41
0.000
 42
1.00000
  0
VERTEX
  5
271
 100
AcDbEntity
  8
CUTOUTS
 100
AcDbVertex
 100
AcDb2dVertex
 10
-260.023
 20
2.440
  0
VERTEX
  5
272
 100
AcDbEntity
  8
CUTOUTS
 100
AcDbVertex
 100
AcDb2dVertex
 10
-260.023
 20
2.440
  0
VERTEX
  5
273
 100
AcDbEntity
  8
CUTOUTS
 100
AcDbVertex
 100
AcDb2dVertex
 10
-260.023
 20
2.440
 40
0.000
 41
0.000
  0
VERTEX
  5
274
 100
AcDbEntity
  8
CUTOUTS
 100
AcDbVertex
 100
AcDb2dVertex
 10
-261.328
 20
-4.960
 40
0.000
 41
0.000
  0
VERTEX
  5
275
 100
AcDbEntity
  8
CUTOUTS
 100
AcDbVertex
 100
AcDb2dVertex
 10
-261.328
 20
-4.960
 40
0.000
 41
0.000
 42
1.00000
  0
VERTEX
  5
276
 100
AcDbEntity
  8
CUTOUTS
 100
AcDbVertex
 100
AcDb2dVertex
 10
-261.328
 20
-4.960
  0
VERTEX
  5
277
 100
AcDbEntity
  8
CUTOUTS
 100
AcDbVertex
 100
AcDb2dVertex
 10
-261.328
 20
-4.960
 40
0.000
 41
0.000
 42
-1.00000
  0
VERTEX
  5
278
 100
AcDbEntity
  8
CUTOUTS
 100
AcDbVertex
 100
AcDb2dVertex
 10
-261.328
 20
-4.960
  0
VERTEX
  5
279
 100
AcDbEntity
  8
CUTOUTS
 100
AcDbVertex
 100
AcDb2dVertex
 10
-261.328
 20
-4.960
  0
VERTEX
  5
27A
 100
AcDbEntity
  8
CUTOUTS
 100
AcDbVertex
 100
AcDb2dVertex
 10
-261.328
 20
-4.960
 40
0.000
 41
0.000
 42
-0.36397
  0
VERTEX
  5
27B
 100
AcDbEntity
  8
CUTOUTS
 100
AcDbVertex
 100
AcDb2dVertex
 10
-262.805
 20
-6.200
 40
0.000
 41
0.000
  0
VERTEX
  5
27C
 100
AcDbEntity
  8
CUTOUTS
 100
AcDbVertex
 100
AcDb2dVertex
 10
-262.805
 20
-6.200
 40
0.000
 41
0.000
 42
-1.00000
  0
VERTEX
  5
27D
 100
AcDbEntity
  8
CUTOUTS
 100
AcDbVertex
 100
AcDb2dVertex
 10
-262.805
 20
-6.200
  0
VERTEX
  5
27E
 100
AcDbEntity
  8
CUTOUTS
 100
AcDbVertex
 100
AcDb2dVertex
 10
-262.805
 20
-6.200
 40
0.000
 41
0.000
 42
1.00000
  0
VERTEX
  5
27F
 100
AcDbEntity
  8
CUTOUTS
 100
AcDbVertex
 100
AcDb2dVertex
 10
-262.805
 20
-6.200
  0
VERTEX
  5
280
 100
AcDbEntity
  8
CUTOUTS
 100
AcDbVertex
 100
AcDb2dVertex
 10
-262.805
 20
-6.200
  0
VERTEX
  5
281
 100
AcDbEntity
  8
CUTOUTS
 100
AcDbVertex
 100
AcDb2dVertex
 10
-262.805
 20
-6.200
 40
0.000
 41
0.000
  0
VERTEX
  5
282
 100
AcDbEntity
  8
CUTOUTS
 100
AcDbVertex
 100
AcDb2dVertex
 10
-277.695
 20
-6.200
 40
0.000
 41
0.000
  0
VERTEX
  5
283
 100
AcDbEntity
  8
CUTOUTS
 100
AcDbVertex
 100
AcDb2dVertex
 10
-277.695
 20
-6.200
 40
0.000
 41
0.000
 42
1.00000
  0
VERTEX
  5
284
 100
AcDbEntity
  8
CUTOUTS
 100
AcDbVertex
 100
AcDb2dVertex
 10
-277.695
 20
-6.200
  0
VERTEX
  5
285
 100
AcDbEntity
  8
CUTOUTS
 100
AcDbVertex
 100
AcDb2dVertex
 10
-277.695
 20
-6.200
 40
0.000
 41
0.000
 42
-1.00000
  0
VERTEX
  5
286
 100
AcDbEntity
  8
CUTOUTS
 100
AcDbVertex
 100
AcDb2dVertex
 10
-277.695
 20
-6.200
  0
VERTEX
  5
287
 100
AcDbEntity
  8
CUTOUTS
 100
AcDbVertex
 100
AcDb2dVertex
 10
-277.695
 20
-6.200
  0
VERTEX
  5
288
 100
AcDbEntity
  8
CUTOUTS
 100
AcDbVertex
 100
AcDb2dVertex
 10
-277.695
 20
-6.200
 40
0.000
 41
0.000
 42
-0.36397
  0
VERTEX
  5
289
 100
AcDbEntity
  8
CUTOUTS
 100
AcDbVertex
 100
AcDb2dVertex
 10
-279.172
 20
-4.960
 40
0.000
 41
0.000
  0
VERTEX
  5
28A
 100
AcDbEntity
  8
CUTOUTS
 100
AcDbVertex
 100
AcDb2dVertex
 10
-279.172
 20
-4.960
  0
VERTEX
  5
28B
 100
AcDbEntity
  8
CUTOUTS
 100
AcDbVertex
 100
AcDb2dVertex
 10
-279.172
 20
-4.960
 40
0.000
 41
0.000
  0
VERTEX
  5
28C
 100
AcDbEntity
  8
CUTOUTS
 100
AcDbVertex
 100
AcDb2dVertex
 10
-279.172
 20
-4.960
 40
0.000
 41
0.000
 42
-1.00000
  0
VERTEX
  5
28D
 100
AcDbEntity
  8
CUTOUTS
 100
AcDbVertex
 100
AcDb2dVertex
 10
-279.172
 20
-4.960
  0
SEQEND
  5
28E
 100
AcDbEntity
  8
CUTOUTS
  0
POLYLINE
  5
28F
 100
AcDbEntity
  8
CUTOUTS
 100
AcDb2dPolyline
 66
     1
 10
0.000
 20
0.000
 70
     1
 40
0.000
 41
0.000
  0
VERTEX
  5
290
 100
AcDbEntity
  8
CUTOUTS
 100
AcDbVertex
 100
AcDb2dVertex
 10
-314.802
 20
-4.960
 40
0.000
 41
0.000
 42
-1.00000
  0
VERTEX
  5
291
 100
AcDbEntity
  8
CUTOUTS
 100
AcDbVertex
 100
AcDb2dVertex
 10
-314.802
 20
-4.960
  0
VERTEX
  5
292
 100
AcDbEntity
  8
CUTOUTS
 100
AcDbVertex
 100
AcDb2dVertex
 10
-314.802
 20
-4.960
  0
VERTEX
  5
293
 100
AcDbEntity
  8
CUTOUTS
 100
AcDbVertex
 100
AcDb2dVertex
 10
-314.802
 20
-4.960
 40
0.000
 41
0.000
  0
VERTEX
  5
294
 100
AcDbEntity
  8
CUTOUTS
 100
AcDbVertex
 100
AcDb2dVertex
 10
-316.107
 20
2.440
 40
0.000
 41
0.000
  0
VERTEX
  5
295
 100
AcDbEntity
  8
CUTOUTS
 100
AcDbVertex
 100
AcDb2dVertex
 10
-316.107
 20
2.440
 40
0.000
 41
0.000
 42
-1.00000
  0
VERTEX
  5
296
 100
AcDbEntity
  8
CUTOUTS
 100
AcDbVertex
 100
AcDb2dVertex
 10
-316.107
 20
2.440
  0
VERTEX
  5
297
 100
AcDbEntity
  8
CUTOUTS
 100
AcDbVertex
 100
AcDb2dVertex
 10
-316.107
 20
2.440
 40
0.000
 41
0.000
 42
-1.00000
  0
VERTEX
  5
298
 100
AcDbEntity
  8
CUTOUTS
 100
AcDbVertex
 100
AcDb2dVertex
 10
-316.107
 20
2.440
  0
VERTEX
  5
299
 100
AcDbEntity
  8
CUTOUTS
 100
AcDbVertex
 100
AcDb2dVertex
 10
-316.107
 20
2.440
  0
VERTEX
  5
29A
 100
AcDbEntity
  8
CUTOUTS
 100
AcDbVertex
 100
AcDb2dVertex
 10
-316.107
 20
2.440
 40
0.000
 41
0.000
 42
-0.46631
  0
VERTEX
  5
29B
 100
AcDbEntity
  8
CUTOUTS
 100
AcDbVertex
 100
AcDb2dVertex
 10
-314.630
 20
4.200
 40
0.000
 41
0.000
  0
VERTEX
  5
29C
 100
AcDbEntity
  8
CUTOUTS
 100
AcDbVertex
 100
AcDb2dVertex
 10
-314.630
 20
4.200
 40
0.000
 41
0.000
 42
-1.00000
  0
VERTEX
  5
29D
 100
AcDbEntity
  8
CUTOUTS
 100
AcDbVertex
 100
AcDb2dVertex
 10
-314.630
 20
4.200
  0
VERTEX
  5
29E
 100
AcDbEntity
  8
CUTOUTS
 100
AcDbVertex
 100
AcDb2dVertex
 10
-314.630
 20
4.200
 40
0.000
 41
0.000
 42
-1.00000
  0
VERTEX
  5
29F
 100
AcDbEntity
  8
CUTOUTS
 100
AcDbVertex
 100
AcDb2dVertex
 10
-314.630
 20
4.200
  0
VERTEX
  5
2A0
 100
AcDbEntity
  8
CUTOUTS
 100
AcDbVertex
 100
AcDb2dVertex
 10
-314.630
 20
4.200
  0
VERTEX
  5
2A1
 100
AcDbEntity
  8
CUTOUTS
 100
AcDbVertex
 100
AcDb2dVertex
 10
-314.630
 20
4.200
 40
0.000
 41
0.000
  0
VERTEX
  5
2A2
 100
AcDbEntity
  8
CUTOUTS
 100
AcDbVertex
 100
AcDb2dVertex
 10
-297.130
 20
4.200
 40
0.000
 41
0.000
  0
VERTEX
  5
2A3
 100
AcDbEntity
  8
CUTOUTS
 100
AcDbVertex
 100
AcDb2dVertex
 10
-297.130
 20
4.200
 40
0.000
 41
0.000
 42
-1.00000
  0
VERTEX
  5
2A4
 100
AcDbEntity
  8
CUTOUTS
 100
AcDbVertex
 100
AcDb2dVertex
 10
-297.130
 20
4.200
  0
VERTEX
  5
2A5
 100
AcDbEntity
  8
CUTOUTS
 100
AcDbVertex
 100
AcDb2dVertex
 10
-297.130
 20
4.200
 40
0.000
 41
0.000
 42
-1.00000
  0
VERTEX
  5
2A6
 100
AcDbEntity
  8
CUTOUTS
 100
AcDbVertex
 100
AcDb2dVertex
 10
-297.130
 20
4.200
  0
VERTEX
  5
2A7
 100
AcDbEntity
  8
CUTOUTS
 100
AcDbVertex
 100
AcDb2dVertex
 10
-297.130
 20
4.200
  0
VERTEX
  5
2A8
 100
AcDbEntity
  8
CUTOUTS
 100
AcDbVertex
 100
AcDb2dVertex
 10
-297.130
 20
4.200
 40
0.000
 41
0.000
 42
-0.46631
  0
VERTEX
  5
2A9
 100
AcDbEntity
  8
CUTOUTS
 100
AcDbVertex
 100
AcDb2dVertex
 10
-295.653
 20
2.440
 40
0.000
 41
0.000
  0
VERTEX
  5
2AA
 100
AcDbEntity
  8
CUTOUTS
 100
AcDbVertex
 100
AcDb2dVertex
 10
-295.653
 20
2.440
 40
0.000
 41
0.000
 42
-1.00000
  0
VERTEX
  5
2AB
 100
AcDbEntity
  8
CUTOUTS
 100
AcDbVertex
 100
AcDb2dVertex
 10
-295.653
 20
2.440
  0
VERTEX
  5
2AC
 100
AcDbEntity
  8
CUTOUTS
 100
AcDbVertex
 100
AcDb2dVertex
 10
-295.653
 20
2.440
 40
0.000
 41
0.000
 42
1.00000
  0
VERTEX
  5
2AD
 100
AcDbEntity
  8
CUTOUTS
 100
AcDbVertex
 100
AcDb2dVertex
 10
-295.653
 20
2.440
  0
VERTEX
  5
2AE
 100
AcDbEntity
  8
CUTOUTS
 100
AcDbVertex
 100
AcDb2dVertex
 10
-295.653
 20
2.440
  0
VERTEX
  5
2AF
 100
AcDbEntity
  8
CUTOUTS
 100
AcDbVertex
 100
AcDb2dVertex
 10
-295.653
 20
2.440
 40
0.000
 41
0.000
  0
VERTEX
  5
2B0
 100
AcDbEntity
  8
CUTOUTS
 100
AcDbVertex
 100
AcDb2dVertex
 10
-296.958
 20
-4.960
 40
0.000
 41
0.000
  0
VERTEX
  5
2B1
 100
AcDbEntity
  8
CUTOUTS
 100
AcDbVertex
 100
AcDb2dVertex
 10
-296.958
 20
-4.960
 40
0.000
 41
0.000
 42
1.00000
  0
VERTEX
  5
2B2
 100
AcDbEntity
  8
CUTOUTS
 100
AcDbVertex
 100
AcDb2dVertex
 10
-296.958
 20
-4.960
  0
VERTEX
  5
2B3
 100
AcDbEntity
  8
CUTOUTS
 100
AcDbVertex
 100
AcDb2dVertex
 10
-296.958
 20
-4.960
 40
0.000
 41
0.000
 42
-1.00000
  0
VERTEX
  5
2B4
 100
AcDbEntity
  8
CUTOUTS
 100
AcDbVertex
 100
AcDb2dVertex
 10
-296.958
 20
-4.960
  0
VERTEX
  5
2B5
 100
AcDbEntity
  8
CUTOUTS
 100
AcDbVertex
 100
AcDb2dVertex
 10
-296.958
 20
-4.960
  0
VERTEX
  5
2B6
 100
AcDbEntity
  8
CUTOUTS
 100
AcDbVertex
 100
AcDb2dVertex
 10
-296.958
 20
-4.960
 40
0.000
 41
0.000
 42
-0.36397
  0
VERTEX
  5
2B7
 100
AcDbEntity
  8
CUTOUTS
 100
AcDbVertex
 100
AcDb2dVertex
 10
-298.435
 20
-6.200
 40
0.000
 41
0.000
  0
VERTEX
  5
2B8
 100
AcDbEntity
  8
CUTOUTS
 100
AcDbVertex
 100
AcDb2dVertex
 10
-298.435
 20
-6.200
 40
0.000
 41
0.000
 42
-1.00000
  0
VERTEX
  5
2B9
 100
AcDbEntity
  8
CUTOUTS
 100
AcDbVertex
 100
AcDb2dVertex
 10
-298.435
 20
-6.200
  0
VERTEX
  5
2BA
 100
AcDbEntity
  8
CUTOUTS
 100
AcDbVertex
 100
AcDb2dVertex
 10
-298.435
 20
-6.200
 40
0.000
 41
0.000
 42
1.00000
  0
VERTEX
  5
2BB
 100
AcDbEntity
  8
CUTOUTS
 100
AcDbVertex
 100
AcDb2dVertex
 10
-298.435
 20
-6.200
  0
VERTEX
  5
2BC
 100
AcDbEntity
  8
CUTOUTS
 100
AcDbVertex
 100
AcDb2dVertex
 10
-298.435
 20
-6.200
  0
VERTEX
  5
2BD
 100
AcDbEntity
  8
CUTOUTS
 100
AcDbVertex
 100
AcDb2dVertex
 10
-298.435
 20
-6.200
 40
0.000
 41
0.000
  0
VERTEX
  5
2BE
 100
AcDbEntity
  8
CUTOUTS
 100
AcDbVertex
 100
AcDb2dVertex
 10
-313.325
 20
-6.200
 40
0.000
 41
0.000
  0
VERTEX
  5
2BF
 100
AcDbEntity
  8
CUTOUTS
 100
AcDbVertex
 100
AcDb2dVertex
 10
-313.325
 20
-6.200
 40
0.000
 41
0.000
 42
1.00000
  0
VERTEX
  5
2C0
 100
AcDbEntity
  8
CUTOUTS
 100
AcDbVertex
 100
AcDb2dVertex
 10
-313.325
 20
-6.200
  0
VERTEX
  5
2C1
 100
AcDbEntity
  8
CUTOUTS
 100
AcDbVertex
 100
AcDb2dVertex
 10
-313.325
 20
-6.200
 40
0.000
 41
0.000
 42
-1.00000
  0
VERTEX
  5
2C2
 100
AcDbEntity
  8
CUTOUTS
 100
AcDbVertex
 100
AcDb2dVertex
 10
-313.325
 20
-6.200
  0
VERTEX
  5
2C3
 100
AcDbEntity
  8
CUTOUTS
 100
AcDbVertex
 100
AcDb2dVertex
 10
-313.325
 20
-6.200
  0
VERTEX
  5
2C4
 100
AcDbEntity
  8
CUTOUTS
 100
AcDbVertex
 100
AcDb2dVertex
 10
-313.325
 20
-6.200
 40
0.000
 41
0.000
 42
-0.36397
  0
VERTEX
  5
2C5
 100
AcDbEntity
  8
CUTOUTS
 100
AcDbVertex
 100
AcDb2dVertex
 10
-314.802
 20
-4.960
 40
0.000
 41
0.000
  0
VERTEX
  5
2C6
 100
AcDbEntity
  8
CUTOUTS
 100
AcDbVertex
 100
AcDb2dVertex
 10
-314.802
 20
-4.960
  0
VERTEX
  5
2C7
 100
AcDbEntity
  8
CUTOUTS
 100
AcDbVertex
 100
AcDb2dVertex
 10
-314.802
 20
-4.960
 40
0.000
 41
0.000
  0
VERTEX
  5
2C8
 100
AcDbEntity
  8
CUTOUTS
 100
AcDbVertex
 100
AcDb2dVertex
 10
-314.802
 20
-4.960
 40
0.000
 41
0.000
 42
-1.00000
  0
VERTEX
  5
2C9
 100
AcDbEntity
  8
CUTOUTS
 100
AcDbVertex
 100
AcDb2dVertex
 10
-314.802
 20
-4.960
  0
SEQEND
  5
2CA
 100
AcDbEntity
  8
CUTOUTS
  0
POLYLINE
  5
2CB
 100
AcDbEntity
  8
CUTOUTS
 100
AcDb2dPolyline
 66
     1
 10
0.000
 20
0.000
 70
     1
 40
0.000
 41
0.000
  0
VERTEX
  5
2CC
 100
AcDbEntity
  8
CUTOUTS
 100
AcDbVertex
 100
AcDb2dVertex
 10
-330.460
 20
-7.200
 40
0.000
 41
0.000
 42
1.00000
  0
VERTEX
  5
2CD
 100
AcDbEntity
  8
CUTOUTS
 100
AcDbVertex
 100
AcDb2dVertex
 10
-330.460
 20
-7.200
  0
VERTEX
  5
2CE
 100
AcDbEntity
  8
CUTOUTS
 100
AcDbVertex
 100
AcDb2dVertex
 10
-330.460
 20
-7.200
  0
VERTEX
  5
2CF
 100
AcDbEntity
  8
CUTOUTS
 100
AcDbVertex
 100
AcDb2dVertex
 10
-330.460
 20
-7.200
 40
0.000
 41
0.000
  0
VERTEX
  5
2D0
 100
AcDbEntity
  8
CUTOUTS
 100
AcDbVertex
 100
AcDb2dVertex
 10
-330.460
 20
0.500
 40
0.000
 41
0.000
  0
VERTEX
  5
2D1
 100
AcDbEntity
  8
CUTOUTS
 100
AcDbVertex
 100
AcDb2dVertex
 10
-330.460
 20
0.500
 40
0.000
 41
0.000
 42
1.00000
  0
VERTEX
  5
2D2
 100
AcDbEntity
  8
CUTOUTS
 100
AcDbVertex
 100
AcDb2dVertex
 10
-330.460
 20
0.500
  0
VERTEX
  5
2D3
 100
AcDbEntity
  8
CUTOUTS
 100
AcDbVertex
 100
AcDb2dVertex
 10
-330.460
 20
0.500
 40
0.000
 41
0.000
 42
1.00000
  0
VERTEX
  5
2D4
 100
AcDbEntity
  8
CUTOUTS
 100
AcDbVertex
 100
AcDb2dVertex
 10
-330.460
 20
0.500
  0
VERTEX
  5
2D5
 100
AcDbEntity
  8
CUTOUTS
 100
AcDbVertex
 100
AcDb2dVertex
 10
-330.460
 20
0.500
  0
VERTEX
  5
2D6
 100
AcDbEntity
  8
CUTOUTS
 100
AcDbVertex
 100
AcDb2dVertex
 10
-330.460
 20
0.500
 40
0.000
 41
0.000
  0
VERTEX
  5
2D7
 100
AcDbEntity
  8
CUTOUTS
 100
AcDbVertex
 100
AcDb2dVertex
 10
-344.231
 20
0.500
 40
0.000
 41
0.000
  0
VERTEX
  5
2D8
 100
AcDbEntity
  8
CUTOUTS
 100
AcDbVertex
 100
AcDb2dVertex
 10
-344.231
 20
0.500
 40
0.000
 41
0.000
 42
1.00000
  0
VERTEX
  5
2D9
 100
AcDbEntity
  8
CUTOUTS
 100
AcDbVertex
 100
AcDb2dVertex
 10
-344.231
 20
0.500
  0
VERTEX
  5
2DA
 100
AcDbEntity
  8
CUTOUTS
 100
AcDbVertex
 100
AcDb2dVertex
 10
-344.231
 20
0.500
 40
0.000
 41
0.000
 42
1.00000
  0
VERTEX
  5
2DB
 100
AcDbEntity
  8
CUTOUTS
 100
AcDbVertex
 100
AcDb2dVertex
 10
-344.231
 20
0.500
  0
VERTEX
  5
2DC
 100
AcDbEntity
  8
CUTOUTS
 100
AcDbVertex
 100
AcDb2dVertex
 10
-344.231
 20
0.500
  0
VERTEX
  5
2DD
 100
AcDbEntity
  8
CUTOUTS
 100
AcDbVertex
 100
AcDb2dVertex
 10
-344.231
 20
0.500
 40
0.000
 41
0.000
  0
VERTEX
  5
2DE
 100
AcDbEntity
  8
CUTOUTS
 100
AcDbVertex
 100
AcDb2dVertex
 10
-344.231
 20
-7.200
 40
0.000
 41
0.000
  0
VERTEX
  5
2DF
 100
AcDbEntity
  8
CUTOUTS
 100
AcDbVertex
 100
AcDb2dVertex
 10
-344.231
 20
-7.200
 40
0.000
 41
0.000
 42
1.00000
  0
VERTEX
  5
2E0
 100
AcDbEntity
  8
CUTOUTS
 100
AcDbVertex
 100
AcDb2dVertex
 10
-344.231
 20
-7.200
  0
VERTEX
  5
2E1
 100
AcDbEntity
  8
CUTOUTS
 100
AcDbVertex
 100
AcDb2dVertex
 10
-344.231
 20
-7.200
 40
0.000
 41
0.000
 42
1.00000
  0
VERTEX
  5
2E2
 100
AcDbEntity
  8
CUTOUTS
 100
AcDbVertex
 100
AcDb2dVertex
 10
-344.231
 20
-7.200
  0
VERTEX
  5
2E3
 100
AcDbEntity
  8
CUTOUTS
 100
AcDbVertex
 100
AcDb2dVertex
 10
-344.231
 20
-7.200
  0
VERTEX
  5
2E4
 100
AcDbEntity
  8
CUTOUTS
 100
AcDbVertex
 100
AcDb2dVertex
 10
-344.231
 20
-7.200
 40
0.000
 41
0.000
  0
VERTEX
  5
2E5
 100
AcDbEntity
  8
CUTOUTS
 100
AcDbVertex
 100
AcDb2dVertex
 10
-330.460
 20
-7.200
 40
0.000
 41
0.000
  0
VERTEX
  5
2E6
 100
AcDbEntity
  8
CUTOUTS
 100
AcDbVertex
 100
AcDb2dVertex
 10
-330.460
 20
-7.200
  0
VERTEX
  5
2E7
 100
AcDbEntity
  8
CUTOUTS
 100
AcDbVertex
 100
AcDb2dVertex
 10
-330.460
 20
-7.200
 40
0.000
 41
0.000
  0
VERTEX
  5
2E8
 100
AcDbEntity
  8
CUTOUTS
 100
AcDbVertex
 100
AcDb2dVertex
 10
-330.460
 20
-7.200
 40
0.000
 41
0.000
 42
1.00000
  0
VERTEX
  5
2E9
 100
AcDbEntity
  8
CUTOUTS
 100
AcDbVertex
 100
AcDb2dVertex
 10
-330.460
 20
-7.200
  0
SEQEND
  5
2EA
 100
AcDbEntity
  8
CUTOUTS
  0
POLYLINE
  5
2EB
 100
AcDbEntity
  8
CUTOUTS
 100
AcDb2dPolyline
 66
     1
 10
0.000
 20
0.000
 70
     1
 40
0.000
 41
0.000
  0
VERTEX
  5
2EC
 100
AcDbEntity
  8
CUTOUTS
 100
AcDbVertex
 100
AcDb2dVertex
 10
-348.382
 20
-7.135
 40
0.000
 41
0.000
 42
1.00000
  0
VERTEX
  5
2ED
 100
AcDbEntity
  8
CUTOUTS
 100
AcDbVertex
 100
AcDb2dVertex
 10
-348.382
 20
-7.135
  0
VERTEX
  5
2EE
 100
AcDbEntity
  8
CUTOUTS
 100
AcDbVertex
 100
AcDb2dVertex
 10
-348.382
 20
-7.135
  0
VERTEX
  5
2EF
 100
AcDbEntity
  8
CUTOUTS
 100
AcDbVertex
 100
AcDb2dVertex
 10
-348.382
 20
-7.135
 40
0.000
 41
0.000
  0
VERTEX
  5
2F0
 100
AcDbEntity
  8
CUTOUTS
 100
AcDbVertex
 100
AcDb2dVertex
 10
-348.382
 20
7.500
 40
0.000
 41
0.000
  0
VERTEX
  5
2F1
 100
AcDbEntity
  8
CUTOUTS
 100
AcDbVertex
 100
AcDb2dVertex
 10
-348.382
 20
7.500
 40
0.000
 41
0.000
 42
1.00000
  0
VERTEX
  5
2F2
 100
AcDbEntity
  8
CUTOUTS
 100
AcDbVertex
 100
AcDb2dVertex
 10
-348.382
 20
7.500
  0
VERTEX
  5
2F3
 100
AcDbEntity
  8
CUTOUTS
 100
AcDbVertex
 100
AcDb2dVertex
 10
-348.382
 20
7.500
 40
0.000
 41
0.000
 42
1.00000
  0
VERTEX
  5
2F4
 100
AcDbEntity
  8
CUTOUTS
 100
AcDbVertex
 100
AcDb2dVertex
 10
-348.382
 20
7.500
  0
VERTEX
  5
2F5
 100
AcDbEntity
  8
CUTOUTS
 100
AcDbVertex
 100
AcDb2dVertex
 10
-348.382
 20
7.500
  0
VERTEX
  5
2F6
 100
AcDbEntity
  8
CUTOUTS
 100
AcDbVertex
 100
AcDb2dVertex
 10
-348.382
 20
7.500
 40
0.000
 41
0.000
  0
VERTEX
  5
2F7
 100
AcDbEntity
  8
CUTOUTS
 100
AcDbVertex
 100
AcDb2dVertex
 10
-364.380
 20
7.500
 40
0.000
 41
0.000
  0
VERTEX
  5
2F8
 100
AcDbEntity
  8
CUTOUTS
 100
AcDbVertex
 100
AcDb2dVertex
 10
-364.380
 20
7.500
 40
0.000
 41
0.000
 42
1.00000
  0
VERTEX
  5
2F9
 100
AcDbEntity
  8
CUTOUTS
 100
AcDbVertex
 100
AcDb2dVertex
 10
-364.380
 20
7.500
  0
VERTEX
  5
2FA
 100
AcDbEntity
  8
CUTOUTS
 100
AcDbVertex
 100
AcDb2dVertex
 10
-364.380
 20
7.500
 40
0.000
 41
0.000
 42
1.00000
  0
VERTEX
  5
2FB
 100
AcDbEntity
  8
CUTOUTS
 100
AcDbVertex
 100
AcDb2dVertex
 10
-364.380
 20
7.500
  0
VERTEX
  5
2FC
 100
AcDbEntity
  8
CUTOUTS
 100
AcDbVertex
 100
AcDb2dVertex
 10
-364.380
 20
7.500
  0
VERTEX
  5
2FD
 100
AcDbEntity
  8
CUTOUTS
 100
AcDbVertex
 100
AcDb2dVertex
 10
-364.380
 20
7.500
 40
0.000
 41
0.000
  0
VERTEX
  5
2FE
 100
AcDbEntity
  8
CUTOUTS
 100
AcDbVertex
 100
AcDb2dVertex
 10
-364.380
 20
-7.135
 40
0.000
 41
0.000
  0
VERTEX
  5
2FF
 100
AcDbEntity
  8
CUTOUTS
 100
AcDbVertex
 100
AcDb2dVertex
 10
-364.380
 20
-7.135
 40
0.000
 41
0.000
 42
1.00000
  0
VERTEX
  5
300
 100
AcDbEntity
  8
CUTOUTS
 100
AcDbVertex
 100
AcDb2dVertex
 10
-364.380
 20
-7.135
  0
VERTEX
  5
301
 100
AcDbEntity
  8
CUTOUTS
 100
AcDbVertex
 100
AcDb2dVertex
 10
-364.380
 20
-7.135
 40
0.000
 41
0.000
 42
1.00000
  0
VERTEX
  5
302
 100
AcDbEntity
  8
CUTOUTS
 100
AcDbVertex
 100
AcDb2dVertex
 10
-364.380
 20
-7.135
  0
VERTEX
  5
303
 100
AcDbEntity
  8
CUTOUTS
 100
AcDbVertex
 100
AcDb2dVertex
 10
-364.380
 20
-7.135
  0
VERTEX
  5
304
 100
AcDbEntity
  8
CUTOUTS
 100
AcDbVertex
 100
AcDb2dVertex
 10
-364.380
 20
-7.135
 40
0.000
 41
0.000
  0
VERTEX
  5
305
 100
AcDbEntity
  8
CUTOUTS
 100
AcDbVertex
 100
AcDb2dVertex
 10
-348.382
 20
-7.135
 40
0.000
 41
0.000
  0
VERTEX
  5
306
 100
AcDbEntity
  8
CUTOUTS
 100
AcDbVertex
 100
AcDb2dVertex
 10
-348.382
 20
-7.135
  0
VERTEX
  5
307
 100
AcDbEntity
  8
CUTOUTS
 100
AcDbVertex
 100
AcDb2dVertex
 10
-348.382
 20
-7.135
 40
0.000
 41
0.000
  0
VERTEX
  5
308
 100
AcDbEntity
  8
CUTOUTS
 100
AcDbVertex
 100
AcDb2dVertex
 10
-348.382
 20
-7.135
 40
0.000
 41
0.000
 42
1.00000
  0
VERTEX
  5
309
 100
AcDbEntity
  8
CUTOUTS
 100
AcDbVertex
 100
AcDb2dVertex
 10
-348.382
 20
-7.135
  0
SEQEND
  5
30A
 100
AcDbEntity
  8
CUTOUTS
  0
INSERT
  5
30B
 100
AcDbEntity
  8
_DRILL
 100
AcDbBlockReference
  2
_HOLE
 10
-8.650
 20
-1.000
 41
3.500
 42
3.500
 43
3.500
  0
INSERT
  5
30C
 100
AcDbEntity
  8
_DRILL
 100
AcDbBlockReference
  2
_HOLE
 10
-41.970
 20
-1.000
 41
3.500
 42
3.500
 43
3.500
  0
INSERT
  5
30D
 100
AcDbEntity
  8
_DRILL
 100
AcDbBlockReference
  2
_HOLE
 10
-88.850
 20
-1.000
 41
3.500
 42
3.500
 43
3.500
  0
INSERT
  5
30E
 100
AcDbEntity
  8
_DRILL
 100
AcDbBlockReference
  2
_HOLE
 10
-135.890
 20
-1.000
 41
3.500
 42
3.500
 43
3.500
  0
INSERT
  5
30F
 100
AcDbEntity
  8
_DRILL
 100
AcDbBlockReference
  2
_HOLE
 10
-146.150
 20
-1.000
 41
3.500
 42
3.500
 43
3.500
  0
INSERT
  5
310
 100
AcDbEntity
  8
_DRILL
 100
AcDbBlockReference
  2
_HOLE
 10
-193.190
 20
-1.000
 41
3.500
 42
3.500
 43
3.500
  0
INSERT
  5
311
 100
AcDbEntity
  8
_DRILL
 100
AcDbBlockReference
  2
_HOLE
 10
-203.150
 20
-1.000
 41
3.500
 42
3.500
 43
3.500
  0
INSERT
  5
312
 100
AcDbEntity
  8
_DRILL
 100
AcDbBlockReference
  2
_HOLE
 10
-250.190
 20
-1.000
 41
3.500
 42
3.500
 43
3.500
  0
INSERT
  5
313
 100
AcDbEntity
  8
_DRILL
 100
AcDbBlockReference
  2
_HOLE
 10
-257.750
 20
-1.000
 41
3.500
 42
3.500
 43
3.500
  0
INSERT
  5
314
 100
AcDbEntity
  8
_DRILL
 100
AcDbBlockReference
  2
_HOLE
 10
-282.750
 20
-1.000
 41
3.500
 42
3.500
 43
3.500
  0
INSERT
  5
315
 100
AcDbEntity
  8
_DRILL
 100
AcDbBlockReference
  2
_HOLE
 10
-293.350
 20
-1.000
 41
3.500
 42
3.500
 43
3.500
  0
INSERT
  5
316
 100
AcDbEntity
  8
_DRILL
 100
AcDbBlockReference
  2
_HOLE
 10
-318.350
 20
-1.000
 41
3.500
 42
3.500
 43
3.500
  0
POLYLINE
  5
317
 100
AcDbEntity
  8
_THROUGH_HOLE_DRILL_DRAWING_
 100
AcDb2dPolyline
 66
     1
 10
0.000
 20
0.000
 70
     1
 40
0.000
 41
0.000
  0
VERTEX
  5
318
 100
AcDbEntity
  8
_THROUGH_HOLE_DRILL_DRAWING_
 100
AcDbVertex
 100
AcDb2dVertex
 10
-320.100
 20
-1.000
 40
0.000
 41
0.000
 42
1.00000
  0
VERTEX
  5
319
 100
AcDbEntity
  8
_THROUGH_HOLE_DRILL_DRAWING_
 100
AcDbVertex
 100
AcDb2dVertex
 10
-320.100
 20
-1.000
  0
VERTEX
  5
31A
 100
AcDbEntity
  8
_THROUGH_HOLE_DRILL_DRAWING_
 100
AcDbVertex
 100
AcDb2dVertex
 10
-320.100
 20
-1.000
  0
VERTEX
  5
31B
 100
AcDbEntity
  8
_THROUGH_HOLE_DRILL_DRAWING_
 100
AcDbVertex
 100
AcDb2dVertex
 10
-320.100
 20
-1.000
 40
0.000
 41
0.000
 42
1.00000
  0
VERTEX
  5
31C
 100
AcDbEntity
  8
_THROUGH_HOLE_DRILL_DRAWING_
 100
AcDbVertex
 100
AcDb2dVertex
 10
-316.600
 20
-1.000
 40
0.000
 41
0.000
  0
VERTEX
  5
31D
 100
AcDbEntity
  8
_THROUGH_HOLE_DRILL_DRAWING_
 100
AcDbVertex
 100
AcDb2dVertex
 10
-316.600
 20
-1.000
 40
0.000
 41
0.000
 42
1.00000
  0
VERTEX
  5
31E
 100
AcDbEntity
  8
_THROUGH_HOLE_DRILL_DRAWING_
 100
AcDbVertex
 100
AcDb2dVertex
 10
-316.600
 20
-1.000
  0
VERTEX
  5
31F
 100
AcDbEntity
  8
_THROUGH_HOLE_DRILL_DRAWING_
 100
AcDbVertex
 100
AcDb2dVertex
 10
-316.600
 20
-1.000
 40
0.000
 41
0.000
 42
1.00000
  0
VERTEX
  5
320
 100
AcDbEntity
  8
_THROUGH_HOLE_DRILL_DRAWING_
 100
AcDbVertex
 100
AcDb2dVertex
 10
-316.600
 20
-1.000
  0
VERTEX
  5
321
 100
AcDbEntity
  8
_THROUGH_HOLE_DRILL_DRAWING_
 100
AcDbVertex
 100
AcDb2dVertex
 10
-316.600
 20
-1.000
  0
VERTEX
  5
322
 100
AcDbEntity
  8
_THROUGH_HOLE_DRILL_DRAWING_
 100
AcDbVertex
 100
AcDb2dVertex
 10
-316.600
 20
-1.000
 40
0.000
 41
0.000
 42
1.00000
  0
VERTEX
  5
323
 100
AcDbEntity
  8
_THROUGH_HOLE_DRILL_DRAWING_
 100
AcDbVertex
 100
AcDb2dVertex
 10
-320.100
 20
-1.000
 40
0.000
 41
0.000
  0
VERTEX
  5
324
 100
AcDbEntity
  8
_THROUGH_HOLE_DRILL_DRAWING_
 100
AcDbVertex
 100
AcDb2dVertex
 10
-320.100
 20
-1.000
  0
VERTEX
  5
325
 100
AcDbEntity
  8
_THROUGH_HOLE_DRILL_DRAWING_
 100
AcDbVertex
 100
AcDb2dVertex
 10
-320.100
 20
-1.000
 40
0.000
 41
0.000
  0
VERTEX
  5
326
 100
AcDbEntity
  8
_THROUGH_HOLE_DRILL_DRAWING_
 100
AcDbVertex
 100
AcDb2dVertex
 10
-320.100
 20
-1.000
 40
0.000
 41
0.000
 42
1.00000
  0
VERTEX
  5
327
 100
AcDbEntity
  8
_THROUGH_HOLE_DRILL_DRAWING_
 100
AcDbVertex
 100
AcDb2dVertex
 10
-320.100
 20
-1.000
  0
SEQEND
  5
328
 100
AcDbEntity
  8
_THROUGH_HOLE_DRILL_DRAWING_
  0
POLYLINE
  5
329
 100
AcDbEntity
  8
_THROUGH_HOLE_DRILL_DRAWING_
 100
AcDb2dPolyline
 66
     1
 10
0.000
 20
0.000
 40
0.000
 41
0.000
  0
VERTEX
  5
32A
 100
AcDbEntity
  8
_THROUGH_HOLE_DRILL_DRAWING_
 100
AcDbVertex
 100
AcDb2dVertex
 10
-316.505
 20
0.121
 40
0.064
 41
0.064
 42
1.00000
  0
VERTEX
  5
32B
 100
AcDbEntity
  8
_THROUGH_HOLE_DRILL_DRAWING_
 100
AcDbVertex
 100
AcDb2dVertex
 10
-316.568
 20
0.121
  0
VERTEX
  5
32C
 100
AcDbEntity
  8
_THROUGH_HOLE_DRILL_DRAWING_
 100
AcDbVertex
 100
AcDb2dVertex
 10
-316.536
 20
0.121
  0
VERTEX
  5
32D
 100
AcDbEntity
  8
_THROUGH_HOLE_DRILL_DRAWING_
 100
AcDbVertex
 100
AcDb2dVertex
 10
-316.536
 20
0.121
 40
0.127
 41
0.127
  0
VERTEX
  5
32E
 100
AcDbEntity
  8
_THROUGH_HOLE_DRILL_DRAWING_
 100
AcDbVertex
 100
AcDb2dVertex
 10
-316.536
 20
-0.776
 40
0.127
 41
0.127
  0
VERTEX
  5
32F
 100
AcDbEntity
  8
_THROUGH_HOLE_DRILL_DRAWING_
 100
AcDbVertex
 100
AcDb2dVertex
 10
-316.536
 20
-0.776
  0
VERTEX
  5
330
 100
AcDbEntity
  8
_THROUGH_HOLE_DRILL_DRAWING_
 100
AcDbVertex
 100
AcDb2dVertex
 10
-316.536
 20
-0.776
 40
0.064
 41
0.064
  0
VERTEX
  5
331
 100
AcDbEntity
  8
_THROUGH_HOLE_DRILL_DRAWING_
 100
AcDbVertex
 100
AcDb2dVertex
 10
-316.568
 20
-0.776
 40
0.064
 41
0.064
 42
1.00000
  0
VERTEX
  5
332
 100
AcDbEntity
  8
_THROUGH_HOLE_DRILL_DRAWING_
 100
AcDbVertex
 100
AcDb2dVertex
 10
-316.505
 20
-0.776
  0
SEQEND
  5
333
 100
AcDbEntity
  8
_THROUGH_HOLE_DRILL_DRAWING_
  0
POLYLINE
  5
334
 100
AcDbEntity
  8
_THROUGH_HOLE_DRILL_DRAWING_
 100
AcDb2dPolyline
 66
     1
 10
0.000
 20
0.000
 40
0.000
 41
0.000
  0
VERTEX
  5
335
 100
AcDbEntity
  8
_THROUGH_HOLE_DRILL_DRAWING_
 100
AcDbVertex
 100
AcDb2dVertex
 10
-316.536
 20
-0.744
 40
0.064
 41
0.064
 42
1.00000
  0
VERTEX
  5
336
 100
AcDbEntity
  8
_THROUGH_HOLE_DRILL_DRAWING_
 100
AcDbVertex
 100
AcDb2dVertex
 10
-316.536
 20
-0.808
  0
VERTEX
  5
337
 100
AcDbEntity
  8
_THROUGH_HOLE_DRILL_DRAWING_
 100
AcDbVertex
 100
AcDb2dVertex
 10
-316.536
 20
-0.776
  0
VERTEX
  5
338
 100
AcDbEntity
  8
_THROUGH_HOLE_DRILL_DRAWING_
 100
AcDbVertex
 100
AcDb2dVertex
 10
-316.536
 20
-0.776
 40
0.127
 41
0.127
  0
VERTEX
  5
339
 100
AcDbEntity
  8
_THROUGH_HOLE_DRILL_DRAWING_
 100
AcDbVertex
 100
AcDb2dVertex
 10
-315.789
 20
-0.776
 40
0.127
 41
0.127
  0
VERTEX
  5
33A
 100
AcDbEntity
  8
_THROUGH_HOLE_DRILL_DRAWING_
 100
AcDbVertex
 100
AcDb2dVertex
 10
-315.789
 20
-0.776
  0
VERTEX
  5
33B
 100
AcDbEntity
  8
_THROUGH_HOLE_DRILL_DRAWING_
 100
AcDbVertex
 100
AcDb2dVertex
 10
-315.789
 20
-0.776
 40
0.064
 41
0.064
  0
VERTEX
  5
33C
 100
AcDbEntity
  8
_THROUGH_HOLE_DRILL_DRAWING_
 100
AcDbVertex
 100
AcDb2dVertex
 10
-315.789
 20
-0.808
 40
0.064
 41
0.064
 42
1.00000
  0
VERTEX
  5
33D
 100
AcDbEntity
  8
_THROUGH_HOLE_DRILL_DRAWING_
 100
AcDbVertex
 100
AcDb2dVertex
 10
-315.789
 20
-0.744
  0
SEQEND
  5
33E
 100
AcDbEntity
  8
_THROUGH_HOLE_DRILL_DRAWING_
  0
POLYLINE
  5
33F
 100
AcDbEntity
  8
_THROUGH_HOLE_DRILL_DRAWING_
 100
AcDb2dPolyline
 66
     1
 10
0.000
 20
0.000
 70
     1
 40
0.000
 41
0.000
  0
VERTEX
  5
340
 100
AcDbEntity
  8
_THROUGH_HOLE_DRILL_DRAWING_
 100
AcDbVertex
 100
AcDb2dVertex
 10
-295.100
 20
-1.000
 40
0.000
 41
0.000
 42
1.00000
  0
VERTEX
  5
341
 100
AcDbEntity
  8
_THROUGH_HOLE_DRILL_DRAWING_
 100
AcDbVertex
 100
AcDb2dVertex
 10
-295.100
 20
-1.000
  0
VERTEX
  5
342
 100
AcDbEntity
  8
_THROUGH_HOLE_DRILL_DRAWING_
 100
AcDbVertex
 100
AcDb2dVertex
 10
-295.100
 20
-1.000
  0
VERTEX
  5
343
 100
AcDbEntity
  8
_THROUGH_HOLE_DRILL_DRAWING_
 100
AcDbVertex
 100
AcDb2dVertex
 10
-295.100
 20
-1.000
 40
0.000
 41
0.000
 42
1.00000
  0
VERTEX
  5
344
 100
AcDbEntity
  8
_THROUGH_HOLE_DRILL_DRAWING_
 100
AcDbVertex
 100
AcDb2dVertex
 10
-291.600
 20
-1.000
 40
0.000
 41
0.000
  0
VERTEX
  5
345
 100
AcDbEntity
  8
_THROUGH_HOLE_DRILL_DRAWING_
 100
AcDbVertex
 100
AcDb2dVertex
 10
-291.600
 20
-1.000
 40
0.000
 41
0.000
 42
1.00000
  0
VERTEX
  5
346
 100
AcDbEntity
  8
_THROUGH_HOLE_DRILL_DRAWING_
 100
AcDbVertex
 100
AcDb2dVertex
 10
-291.600
 20
-1.000
  0
VERTEX
  5
347
 100
AcDbEntity
  8
_THROUGH_HOLE_DRILL_DRAWING_
 100
AcDbVertex
 100
AcDb2dVertex
 10
-291.600
 20
-1.000
 40
0.000
 41
0.000
 42
1.00000
  0
VERTEX
  5
348
 100
AcDbEntity
  8
_THROUGH_HOLE_DRILL_DRAWING_
 100
AcDbVertex
 100
AcDb2dVertex
 10
-291.600
 20
-1.000
  0
VERTEX
  5
349
 100
AcDbEntity
  8
_THROUGH_HOLE_DRILL_DRAWING_
 100
AcDbVertex
 100
AcDb2dVertex
 10
-291.600
 20
-1.000
  0
VERTEX
  5
34A
 100
AcDbEntity
  8
_THROUGH_HOLE_DRILL_DRAWING_
 100
AcDbVertex
 100
AcDb2dVertex
 10
-291.600
 20
-1.000
 40
0.000
 41
0.000
 42
1.00000
  0
VERTEX
  5
34B
 100
AcDbEntity
  8
_THROUGH_HOLE_DRILL_DRAWING_
 100
AcDbVertex
 100
AcDb2dVertex
 10
-295.100
 20
-1.000
 40
0.000
 41
0.000
  0
VERTEX
  5
34C
 100
AcDbEntity
  8
_THROUGH_HOLE_DRILL_DRAWING_
 100
AcDbVertex
 100
AcDb2dVertex
 10
-295.100
 20
-1.000
  0
VERTEX
  5
34D
 100
AcDbEntity
  8
_THROUGH_HOLE_DRILL_DRAWING_
 100
AcDbVertex
 100
AcDb2dVertex
 10
-295.100
 20
-1.000
 40
0.000
 41
0.000
  0
VERTEX
  5
34E
 100
AcDbEntity
  8
_THROUGH_HOLE_DRILL_DRAWING_
 100
AcDbVertex
 100
AcDb2dVertex
 10
-295.100
 20
-1.000
 40
0.000
 41
0.000
 42
1.00000
  0
VERTEX
  5
34F
 100
AcDbEntity
  8
_THROUGH_HOLE_DRILL_DRAWING_
 100
AcDbVertex
 100
AcDb2dVertex
 10
-295.100
 20
-1.000
  0
SEQEND
  5
350
 100
AcDbEntity
  8
_THROUGH_HOLE_DRILL_DRAWING_
  0
POLYLINE
  5
351
 100
AcDbEntity
  8
_THROUGH_HOLE_DRILL_DRAWING_
 100
AcDb2dPolyline
 66
     1
 10
0.000
 20
0.000
 40
0.000
 41
0.000
  0
VERTEX
  5
352
 100
AcDbEntity
  8
_THROUGH_HOLE_DRILL_DRAWING_
 100
AcDbVertex
 100
AcDb2dVertex
 10
-291.505
 20
0.121
 40
0.064
 41
0.064
 42
1.00000
  0
VERTEX
  5
353
 100
AcDbEntity
  8
_THROUGH_HOLE_DRILL_DRAWING_
 100
AcDbVertex
 100
AcDb2dVertex
 10
-291.568
 20
0.121
  0
VERTEX
  5
354
 100
AcDbEntity
  8
_THROUGH_HOLE_DRILL_DRAWING_
 100
AcDbVertex
 100
AcDb2dVertex
 10
-291.536
 20
0.121
  0
VERTEX
  5
355
 100
AcDbEntity
  8
_THROUGH_HOLE_DRILL_DRAWING_
 100
AcDbVertex
 100
AcDb2dVertex
 10
-291.536
 20
0.121
 40
0.127
 41
0.127
  0
VERTEX
  5
356
 100
AcDbEntity
  8
_THROUGH_HOLE_DRILL_DRAWING_
 100
AcDbVertex
 100
AcDb2dVertex
 10
-291.536
 20
-0.776
 40
0.127
 41
0.127
  0
VERTEX
  5
357
 100
AcDbEntity
  8
_THROUGH_HOLE_DRILL_DRAWING_
 100
AcDbVertex
 100
AcDb2dVertex
 10
-291.536
 20
-0.776
  0
VERTEX
  5
358
 100
AcDbEntity
  8
_THROUGH_HOLE_DRILL_DRAWING_
 100
AcDbVertex
 100
AcDb2dVertex
 10
-291.536
 20
-0.776
 40
0.064
 41
0.064
  0
VERTEX
  5
359
 100
AcDbEntity
  8
_THROUGH_HOLE_DRILL_DRAWING_
 100
AcDbVertex
 100
AcDb2dVertex
 10
-291.568
 20
-0.776
 40
0.064
 41
0.064
 42
1.00000
  0
VERTEX
  5
35A
 100
AcDbEntity
  8
_THROUGH_HOLE_DRILL_DRAWING_
 100
AcDbVertex
 100
AcDb2dVertex
 10
-291.505
 20
-0.776
  0
SEQEND
  5
35B
 100
AcDbEntity
  8
_THROUGH_HOLE_DRILL_DRAWING_
  0
POLYLINE
  5
35C
 100
AcDbEntity
  8
_THROUGH_HOLE_DRILL_DRAWING_
 100
AcDb2dPolyline
 66
     1
 10
0.000
 20
0.000
 40
0.000
 41
0.000
  0
VERTEX
  5
35D
 100
AcDbEntity
  8
_THROUGH_HOLE_DRILL_DRAWING_
 100
AcDbVertex
 100
AcDb2dVertex
 10
-291.536
 20
-0.744
 40
0.064
 41
0.064
 42
1.00000
  0
VERTEX
  5
35E
 100
AcDbEntity
  8
_THROUGH_HOLE_DRILL_DRAWING_
 100
AcDbVertex
 100
AcDb2dVertex
 10
-291.536
 20
-0.808
  0
VERTEX
  5
35F
 100
AcDbEntity
  8
_THROUGH_HOLE_DRILL_DRAWING_
 100
AcDbVertex
 100
AcDb2dVertex
 10
-291.536
 20
-0.776
  0
VERTEX
  5
360
 100
AcDbEntity
  8
_THROUGH_HOLE_DRILL_DRAWING_
 100
AcDbVertex
 100
AcDb2dVertex
 10
-291.536
 20
-0.776
 40
0.127
 41
0.127
  0
VERTEX
  5
361
 100
AcDbEntity
  8
_THROUGH_HOLE_DRILL_DRAWING_
 100
AcDbVertex
 100
AcDb2dVertex
 10
-290.789
 20
-0.776
 40
0.127
 41
0.127
  0
VERTEX
  5
362
 100
AcDbEntity
  8
_THROUGH_HOLE_DRILL_DRAWING_
 100
AcDbVertex
 100
AcDb2dVertex
 10
-290.789
 20
-0.776
  0
VERTEX
  5
363
 100
AcDbEntity
  8
_THROUGH_HOLE_DRILL_DRAWING_
 100
AcDbVertex
 100
AcDb2dVertex
 10
-290.789
 20
-0.776
 40
0.064
 41
0.064
  0
VERTEX
  5
364
 100
AcDbEntity
  8
_THROUGH_HOLE_DRILL_DRAWING_
 100
AcDbVertex
 100
AcDb2dVertex
 10
-290.789
 20
-0.808
 40
0.064
 41
0.064
 42
1.00000
  0
VERTEX
  5
365
 100
AcDbEntity
  8
_THROUGH_HOLE_DRILL_DRAWING_
 100
AcDbVertex
 100
AcDb2dVertex
 10
-290.789
 20
-0.744
  0
SEQEND
  5
366
 100
AcDbEntity
  8
_THROUGH_HOLE_DRILL_DRAWING_
  0
POLYLINE
  5
367
 100
AcDbEntity
  8
_THROUGH_HOLE_DRILL_DRAWING_
 100
AcDb2dPolyline
 66
     1
 10
0.000
 20
0.000
 70
     1
 40
0.000
 41
0.000
  0
VERTEX
  5
368
 100
AcDbEntity
  8
_THROUGH_HOLE_DRILL_DRAWING_
 100
AcDbVertex
 100
AcDb2dVertex
 10
-284.500
 20
-1.000
 40
0.000
 41
0.000
 42
1.00000
  0
VERTEX
  5
369
 100
AcDbEntity
  8
_THROUGH_HOLE_DRILL_DRAWING_
 100
AcDbVertex
 100
AcDb2dVertex
 10
-284.500
 20
-1.000
  0
VERTEX
  5
36A
 100
AcDbEntity
  8
_THROUGH_HOLE_DRILL_DRAWING_
 100
AcDbVertex
 100
AcDb2dVertex
 10
-284.500
 20
-1.000
  0
VERTEX
  5
36B
 100
AcDbEntity
  8
_THROUGH_HOLE_DRILL_DRAWING_
 100
AcDbVertex
 100
AcDb2dVertex
 10
-284.500
 20
-1.000
 40
0.000
 41
0.000
 42
1.00000
  0
VERTEX
  5
36C
 100
AcDbEntity
  8
_THROUGH_HOLE_DRILL_DRAWING_
 100
AcDbVertex
 100
AcDb2dVertex
 10
-281.000
 20
-1.000
 40
0.000
 41
0.000
  0
VERTEX
  5
36D
 100
AcDbEntity
  8
_THROUGH_HOLE_DRILL_DRAWING_
 100
AcDbVertex
 100
AcDb2dVertex
 10
-281.000
 20
-1.000
 40
0.000
 41
0.000
 42
1.00000
  0
VERTEX
  5
36E
 100
AcDbEntity
  8
_THROUGH_HOLE_DRILL_DRAWING_
 100
AcDbVertex
 100
AcDb2dVertex
 10
-281.000
 20
-1.000
  0
VERTEX
  5
36F
 100
AcDbEntity
  8
_THROUGH_HOLE_DRILL_DRAWING_
 100
AcDbVertex
 100
AcDb2dVertex
 10
-281.000
 20
-1.000
 40
0.000
 41
0.000
 42
1.00000
  0
VERTEX
  5
370
 100
AcDbEntity
  8
_THROUGH_HOLE_DRILL_DRAWING_
 100
AcDbVertex
 100
AcDb2dVertex
 10
-281.000
 20
-1.000
  0
VERTEX
  5
371
 100
AcDbEntity
  8
_THROUGH_HOLE_DRILL_DRAWING_
 100
AcDbVertex
 100
AcDb2dVertex
 10
-281.000
 20
-1.000
  0
VERTEX
  5
372
 100
AcDbEntity
  8
_THROUGH_HOLE_DRILL_DRAWING_
 100
AcDbVertex
 100
AcDb2dVertex
 10
-281.000
 20
-1.000
 40
0.000
 41
0.000
 42
1.00000
  0
VERTEX
  5
373
 100
AcDbEntity
  8
_THROUGH_HOLE_DRILL_DRAWING_
 100
AcDbVertex
 100
AcDb2dVertex
 10
-284.500
 20
-1.000
 40
0.000
 41
0.000
  0
VERTEX
  5
374
 100
AcDbEntity
  8
_THROUGH_HOLE_DRILL_DRAWING_
 100
AcDbVertex
 100
AcDb2dVertex
 10
-284.500
 20
-1.000
  0
VERTEX
  5
375
 100
AcDbEntity
  8
_THROUGH_HOLE_DRILL_DRAWING_
 100
AcDbVertex
 100
AcDb2dVertex
 10
-284.500
 20
-1.000
 40
0.000
 41
0.000
  0
VERTEX
  5
376
 100
AcDbEntity
  8
_THROUGH_HOLE_DRILL_DRAWING_
 100
AcDbVertex
 100
AcDb2dVertex
 10
-284.500
 20
-1.000
 40
0.000
 41
0.000
 42
1.00000
  0
VERTEX
  5
377
 100
AcDbEntity
  8
_THROUGH_HOLE_DRILL_DRAWING_
 100
AcDbVertex
 100
AcDb2dVertex
 10
-284.500
 20
-1.000
  0
SEQEND
  5
378
 100
AcDbEntity
  8
_THROUGH_HOLE_DRILL_DRAWING_
  0
POLYLINE
  5
379
 100
AcDbEntity
  8
_THROUGH_HOLE_DRILL_DRAWING_
 100
AcDb2dPolyline
 66
     1
 10
0.000
 20
0.000
 40
0.000
 41
0.000
  0
VERTEX
  5
37A
 100
AcDbEntity
  8
_THROUGH_HOLE_DRILL_DRAWING_
 100
AcDbVertex
 100
AcDb2dVertex
 10
-280.905
 20
0.121
 40
0.064
 41
0.064
 42
1.00000
  0
VERTEX
  5
37B
 100
AcDbEntity
  8
_THROUGH_HOLE_DRILL_DRAWING_
 100
AcDbVertex
 100
AcDb2dVertex
 10
-280.968
 20
0.121
  0
VERTEX
  5
37C
 100
AcDbEntity
  8
_THROUGH_HOLE_DRILL_DRAWING_
 100
AcDbVertex
 100
AcDb2dVertex
 10
-280.937
 20
0.121
  0
VERTEX
  5
37D
 100
AcDbEntity
  8
_THROUGH_HOLE_DRILL_DRAWING_
 100
AcDbVertex
 100
AcDb2dVertex
 10
-280.937
 20
0.121
 40
0.127
 41
0.127
  0
VERTEX
  5
37E
 100
AcDbEntity
  8
_THROUGH_HOLE_DRILL_DRAWING_
 100
AcDbVertex
 100
AcDb2dVertex
 10
-280.937
 20
-0.776
 40
0.127
 41
0.127
  0
VERTEX
  5
37F
 100
AcDbEntity
  8
_THROUGH_HOLE_DRILL_DRAWING_
 100
AcDbVertex
 100
AcDb2dVertex
 10
-280.937
 20
-0.776
  0
VERTEX
  5
380
 100
AcDbEntity
  8
_THROUGH_HOLE_DRILL_DRAWING_
 100
AcDbVertex
 100
AcDb2dVertex
 10
-280.937
 20
-0.776
 40
0.064
 41
0.064
  0
VERTEX
  5
381
 100
AcDbEntity
  8
_THROUGH_HOLE_DRILL_DRAWING_
 100
AcDbVertex
 100
AcDb2dVertex
 10
-280.968
 20
-0.776
 40
0.064
 41
0.064
 42
1.00000
  0
VERTEX
  5
382
 100
AcDbEntity
  8
_THROUGH_HOLE_DRILL_DRAWING_
 100
AcDbVertex
 100
AcDb2dVertex
 10
-280.905
 20
-0.776
  0
SEQEND
  5
383
 100
AcDbEntity
  8
_THROUGH_HOLE_DRILL_DRAWING_
  0
POLYLINE
  5
384
 100
AcDbEntity
  8
_THROUGH_HOLE_DRILL_DRAWING_
 100
AcDb2dPolyline
 66
     1
 10
0.000
 20
0.000
 40
0.000
 41
0.000
  0
VERTEX
  5
385
 100
AcDbEntity
  8
_THROUGH_HOLE_DRILL_DRAWING_
 100
AcDbVertex
 100
AcDb2dVertex
 10
-280.937
 20
-0.744
 40
0.064
 41
0.064
 42
1.00000
  0
VERTEX
  5
386
 100
AcDbEntity
  8
_THROUGH_HOLE_DRILL_DRAWING_
 100
AcDbVertex
 100
AcDb2dVertex
 10
-280.937
 20
-0.808
  0
VERTEX
  5
387
 100
AcDbEntity
  8
_THROUGH_HOLE_DRILL_DRAWING_
 100
AcDbVertex
 100
AcDb2dVertex
 10
-280.937
 20
-0.776
  0
VERTEX
  5
388
 100
AcDbEntity
  8
_THROUGH_HOLE_DRILL_DRAWING_
 100
AcDbVertex
 100
AcDb2dVertex
 10
-280.937
 20
-0.776
 40
0.127
 41
0.127
  0
VERTEX
  5
389
 100
AcDbEntity
  8
_THROUGH_HOLE_DRILL_DRAWING_
 100
AcDbVertex
 100
AcDb2dVertex
 10
-280.189
 20
-0.776
 40
0.127
 41
0.127
  0
VERTEX
  5
38A
 100
AcDbEntity
  8
_THROUGH_HOLE_DRILL_DRAWING_
 100
AcDbVertex
 100
AcDb2dVertex
 10
-280.189
 20
-0.776
  0
VERTEX
  5
38B
 100
AcDbEntity
  8
_THROUGH_HOLE_DRILL_DRAWING_
 100
AcDbVertex
 100
AcDb2dVertex
 10
-280.189
 20
-0.776
 40
0.064
 41
0.064
  0
VERTEX
  5
38C
 100
AcDbEntity
  8
_THROUGH_HOLE_DRILL_DRAWING_
 100
AcDbVertex
 100
AcDb2dVertex
 10
-280.189
 20
-0.808
 40
0.064
 41
0.064
 42
1.00000
  0
VERTEX
  5
38D
 100
AcDbEntity
  8
_THROUGH_HOLE_DRILL_DRAWING_
 100
AcDbVertex
 100
AcDb2dVertex
 10
-280.189
 20
-0.744
  0
SEQEND
  5
38E
 100
AcDbEntity
  8
_THROUGH_HOLE_DRILL_DRAWING_
  0
POLYLINE
  5
38F
 100
AcDbEntity
  8
_THROUGH_HOLE_DRILL_DRAWING_
 100
AcDb2dPolyline
 66
     1
 10
0.000
 20
0.000
 70
     1
 40
0.000
 41
0.000
  0
VERTEX
  5
390
 100
AcDbEntity
  8
_THROUGH_HOLE_DRILL_DRAWING_
 100
AcDbVertex
 100
AcDb2dVertex
 10
-259.500
 20
-1.000
 40
0.000
 41
0.000
 42
1.00000
  0
VERTEX
  5
391
 100
AcDbEntity
  8
_THROUGH_HOLE_DRILL_DRAWING_
 100
AcDbVertex
 100
AcDb2dVertex
 10
-259.500
 20
-1.000
  0
VERTEX
  5
392
 100
AcDbEntity
  8
_THROUGH_HOLE_DRILL_DRAWING_
 100
AcDbVertex
 100
AcDb2dVertex
 10
-259.500
 20
-1.000
  0
VERTEX
  5
393
 100
AcDbEntity
  8
_THROUGH_HOLE_DRILL_DRAWING_
 100
AcDbVertex
 100
AcDb2dVertex
 10
-259.500
 20
-1.000
 40
0.000
 41
0.000
 42
1.00000
  0
VERTEX
  5
394
 100
AcDbEntity
  8
_THROUGH_HOLE_DRILL_DRAWING_
 100
AcDbVertex
 100
AcDb2dVertex
 10
-256.000
 20
-1.000
 40
0.000
 41
0.000
  0
VERTEX
  5
395
 100
AcDbEntity
  8
_THROUGH_HOLE_DRILL_DRAWING_
 100
AcDbVertex
 100
AcDb2dVertex
 10
-256.000
 20
-1.000
 40
0.000
 41
0.000
 42
1.00000
  0
VERTEX
  5
396
 100
AcDbEntity
  8
_THROUGH_HOLE_DRILL_DRAWING_
 100
AcDbVertex
 100
AcDb2dVertex
 10
-256.000
 20
-1.000
  0
VERTEX
  5
397
 100
AcDbEntity
  8
_THROUGH_HOLE_DRILL_DRAWING_
 100
AcDbVertex
 100
AcDb2dVertex
 10
-256.000
 20
-1.000
 40
0.000
 41
0.000
 42
1.00000
  0
VERTEX
  5
398
 100
AcDbEntity
  8
_THROUGH_HOLE_DRILL_DRAWING_
 100
AcDbVertex
 100
AcDb2dVertex
 10
-256.000
 20
-1.000
  0
VERTEX
  5
399
 100
AcDbEntity
  8
_THROUGH_HOLE_DRILL_DRAWING_
 100
AcDbVertex
 100
AcDb2dVertex
 10
-256.000
 20
-1.000
  0
VERTEX
  5
39A
 100
AcDbEntity
  8
_THROUGH_HOLE_DRILL_DRAWING_
 100
AcDbVertex
 100
AcDb2dVertex
 10
-256.000
 20
-1.000
 40
0.000
 41
0.000
 42
1.00000
  0
VERTEX
  5
39B
 100
AcDbEntity
  8
_THROUGH_HOLE_DRILL_DRAWING_
 100
AcDbVertex
 100
AcDb2dVertex
 10
-259.500
 20
-1.000
 40
0.000
 41
0.000
  0
VERTEX
  5
39C
 100
AcDbEntity
  8
_THROUGH_HOLE_DRILL_DRAWING_
 100
AcDbVertex
 100
AcDb2dVertex
 10
-259.500
 20
-1.000
  0
VERTEX
  5
39D
 100
AcDbEntity
  8
_THROUGH_HOLE_DRILL_DRAWING_
 100
AcDbVertex
 100
AcDb2dVertex
 10
-259.500
 20
-1.000
 40
0.000
 41
0.000
  0
VERTEX
  5
39E
 100
AcDbEntity
  8
_THROUGH_HOLE_DRILL_DRAWING_
 100
AcDbVertex
 100
AcDb2dVertex
 10
-259.500
 20
-1.000
 40
0.000
 41
0.000
 42
1.00000
  0
VERTEX
  5
39F
 100
AcDbEntity
  8
_THROUGH_HOLE_DRILL_DRAWING_
 100
AcDbVertex
 100
AcDb2dVertex
 10
-259.500
 20
-1.000
  0
SEQEND
  5
3A0
 100
AcDbEntity
  8
_THROUGH_HOLE_DRILL_DRAWING_
  0
POLYLINE
  5
3A1
 100
AcDbEntity
  8
_THROUGH_HOLE_DRILL_DRAWING_
 100
AcDb2dPolyline
 66
     1
 10
0.000
 20
0.000
 40
0.000
 41
0.000
  0
VERTEX
  5
3A2
 100
AcDbEntity
  8
_THROUGH_HOLE_DRILL_DRAWING_
 100
AcDbVertex
 100
AcDb2dVertex
 10
-255.905
 20
0.121
 40
0.064
 41
0.064
 42
1.00000
  0
VERTEX
  5
3A3
 100
AcDbEntity
  8
_THROUGH_HOLE_DRILL_DRAWING_
 100
AcDbVertex
 100
AcDb2dVertex
 10
-255.968
 20
0.121
  0
VERTEX
  5
3A4
 100
AcDbEntity
  8
_THROUGH_HOLE_DRILL_DRAWING_
 100
AcDbVertex
 100
AcDb2dVertex
 10
-255.936
 20
0.121
  0
VERTEX
  5
3A5
 100
AcDbEntity
  8
_THROUGH_HOLE_DRILL_DRAWING_
 100
AcDbVertex
 100
AcDb2dVertex
 10
-255.936
 20
0.121
 40
0.127
 41
0.127
  0
VERTEX
  5
3A6
 100
AcDbEntity
  8
_THROUGH_HOLE_DRILL_DRAWING_
 100
AcDbVertex
 100
AcDb2dVertex
 10
-255.936
 20
-0.776
 40
0.127
 41
0.127
  0
VERTEX
  5
3A7
 100
AcDbEntity
  8
_THROUGH_HOLE_DRILL_DRAWING_
 100
AcDbVertex
 100
AcDb2dVertex
 10
-255.936
 20
-0.776
  0
VERTEX
  5
3A8
 100
AcDbEntity
  8
_THROUGH_HOLE_DRILL_DRAWING_
 100
AcDbVertex
 100
AcDb2dVertex
 10
-255.936
 20
-0.776
 40
0.064
 41
0.064
  0
VERTEX
  5
3A9
 100
AcDbEntity
  8
_THROUGH_HOLE_DRILL_DRAWING_
 100
AcDbVertex
 100
AcDb2dVertex
 10
-255.968
 20
-0.776
 40
0.064
 41
0.064
 42
1.00000
  0
VERTEX
  5
3AA
 100
AcDbEntity
  8
_THROUGH_HOLE_DRILL_DRAWING_
 100
AcDbVertex
 100
AcDb2dVertex
 10
-255.905
 20
-0.776
  0
SEQEND
  5
3AB
 100
AcDbEntity
  8
_THROUGH_HOLE_DRILL_DRAWING_
  0
POLYLINE
  5
3AC
 100
AcDbEntity
  8
_THROUGH_HOLE_DRILL_DRAWING_
 100
AcDb2dPolyline
 66
     1
 10
0.000
 20
0.000
 40
0.000
 41
0.000
  0
VERTEX
  5
3AD
 100
AcDbEntity
  8
_THROUGH_HOLE_DRILL_DRAWING_
 100
AcDbVertex
 100
AcDb2dVertex
 10
-255.936
 20
-0.744
 40
0.064
 41
0.064
 42
1.00000
  0
VERTEX
  5
3AE
 100
AcDbEntity
  8
_THROUGH_HOLE_DRILL_DRAWING_
 100
AcDbVertex
 100
AcDb2dVertex
 10
-255.936
 20
-0.808
  0
VERTEX
  5
3AF
 100
AcDbEntity
  8
_THROUGH_HOLE_DRILL_DRAWING_
 100
AcDbVertex
 100
AcDb2dVertex
 10
-255.936
 20
-0.776
  0
VERTEX
  5
3B0
 100
AcDbEntity
  8
_THROUGH_HOLE_DRILL_DRAWING_
 100
AcDbVertex
 100
AcDb2dVertex
 10
-255.936
 20
-0.776
 40
0.127
 41
0.127
  0
VERTEX
  5
3B1
 100
AcDbEntity
  8
_THROUGH_HOLE_DRILL_DRAWING_
 100
AcDbVertex
 100
AcDb2dVertex
 10
-255.189
 20
-0.776
 40
0.127
 41
0.127
  0
VERTEX
  5
3B2
 100
AcDbEntity
  8
_THROUGH_HOLE_DRILL_DRAWING_
 100
AcDbVertex
 100
AcDb2dVertex
 10
-255.189
 20
-0.776
  0
VERTEX
  5
3B3
 100
AcDbEntity
  8
_THROUGH_HOLE_DRILL_DRAWING_
 100
AcDbVertex
 100
AcDb2dVertex
 10
-255.189
 20
-0.776
 40
0.064
 41
0.064
  0
VERTEX
  5
3B4
 100
AcDbEntity
  8
_THROUGH_HOLE_DRILL_DRAWING_
 100
AcDbVertex
 100
AcDb2dVertex
 10
-255.189
 20
-0.808
 40
0.064
 41
0.064
 42
1.00000
  0
VERTEX
  5
3B5
 100
AcDbEntity
  8
_THROUGH_HOLE_DRILL_DRAWING_
 100
AcDbVertex
 100
AcDb2dVertex
 10
-255.189
 20
-0.744
  0
SEQEND
  5
3B6
 100
AcDbEntity
  8
_THROUGH_HOLE_DRILL_DRAWING_
  0
POLYLINE
  5
3B7
 100
AcDbEntity
  8
_THROUGH_HOLE_DRILL_DRAWING_
 100
AcDb2dPolyline
 66
     1
 10
0.000
 20
0.000
 70
     1
 40
0.000
 41
0.000
  0
VERTEX
  5
3B8
 100
AcDbEntity
  8
_THROUGH_HOLE_DRILL_DRAWING_
 100
AcDbVertex
 100
AcDb2dVertex
 10
-251.940
 20
-1.000
 40
0.000
 41
0.000
 42
1.00000
  0
VERTEX
  5
3B9
 100
AcDbEntity
  8
_THROUGH_HOLE_DRILL_DRAWING_
 100
AcDbVertex
 100
AcDb2dVertex
 10
-251.940
 20
-1.000
  0
VERTEX
  5
3BA
 100
AcDbEntity
  8
_THROUGH_HOLE_DRILL_DRAWING_
 100
AcDbVertex
 100
AcDb2dVertex
 10
-251.940
 20
-1.000
  0
VERTEX
  5
3BB
 100
AcDbEntity
  8
_THROUGH_HOLE_DRILL_DRAWING_
 100
AcDbVertex
 100
AcDb2dVertex
 10
-251.940
 20
-1.000
 40
0.000
 41
0.000
 42
1.00000
  0
VERTEX
  5
3BC
 100
AcDbEntity
  8
_THROUGH_HOLE_DRILL_DRAWING_
 100
AcDbVertex
 100
AcDb2dVertex
 10
-248.440
 20
-1.000
 40
0.000
 41
0.000
  0
VERTEX
  5
3BD
 100
AcDbEntity
  8
_THROUGH_HOLE_DRILL_DRAWING_
 100
AcDbVertex
 100
AcDb2dVertex
 10
-248.440
 20
-1.000
 40
0.000
 41
0.000
 42
1.00000
  0
VERTEX
  5
3BE
 100
AcDbEntity
  8
_THROUGH_HOLE_DRILL_DRAWING_
 100
AcDbVertex
 100
AcDb2dVertex
 10
-248.440
 20
-1.000
  0
VERTEX
  5
3BF
 100
AcDbEntity
  8
_THROUGH_HOLE_DRILL_DRAWING_
 100
AcDbVertex
 100
AcDb2dVertex
 10
-248.440
 20
-1.000
 40
0.000
 41
0.000
 42
1.00000
  0
VERTEX
  5
3C0
 100
AcDbEntity
  8
_THROUGH_HOLE_DRILL_DRAWING_
 100
AcDbVertex
 100
AcDb2dVertex
 10
-248.440
 20
-1.000
  0
VERTEX
  5
3C1
 100
AcDbEntity
  8
_THROUGH_HOLE_DRILL_DRAWING_
 100
AcDbVertex
 100
AcDb2dVertex
 10
-248.440
 20
-1.000
  0
VERTEX
  5
3C2
 100
AcDbEntity
  8
_THROUGH_HOLE_DRILL_DRAWING_
 100
AcDbVertex
 100
AcDb2dVertex
 10
-248.440
 20
-1.000
 40
0.000
 41
0.000
 42
1.00000
  0
VERTEX
  5
3C3
 100
AcDbEntity
  8
_THROUGH_HOLE_DRILL_DRAWING_
 100
AcDbVertex
 100
AcDb2dVertex
 10
-251.940
 20
-1.000
 40
0.000
 41
0.000
  0
VERTEX
  5
3C4
 100
AcDbEntity
  8
_THROUGH_HOLE_DRILL_DRAWING_
 100
AcDbVertex
 100
AcDb2dVertex
 10
-251.940
 20
-1.000
  0
VERTEX
  5
3C5
 100
AcDbEntity
  8
_THROUGH_HOLE_DRILL_DRAWING_
 100
AcDbVertex
 100
AcDb2dVertex
 10
-251.940
 20
-1.000
 40
0.000
 41
0.000
  0
VERTEX
  5
3C6
 100
AcDbEntity
  8
_THROUGH_HOLE_DRILL_DRAWING_
 100
AcDbVertex
 100
AcDb2dVertex
 10
-251.940
 20
-1.000
 40
0.000
 41
0.000
 42
1.00000
  0
VERTEX
  5
3C7
 100
AcDbEntity
  8
_THROUGH_HOLE_DRILL_DRAWING_
 100
AcDbVertex
 100
AcDb2dVertex
 10
-251.940
 20
-1.000
  0
SEQEND
  5
3C8
 100
AcDbEntity
  8
_THROUGH_HOLE_DRILL_DRAWING_
  0
POLYLINE
  5
3C9
 100
AcDbEntity
  8
_THROUGH_HOLE_DRILL_DRAWING_
 100
AcDb2dPolyline
 66
     1
 10
0.000
 20
0.000
 40
0.000
 41
0.000
  0
VERTEX
  5
3CA
 100
AcDbEntity
  8
_THROUGH_HOLE_DRILL_DRAWING_
 100
AcDbVertex
 100
AcDb2dVertex
 10
-248.345
 20
0.121
 40
0.064
 41
0.064
 42
1.00000
  0
VERTEX
  5
3CB
 100
AcDbEntity
  8
_THROUGH_HOLE_DRILL_DRAWING_
 100
AcDbVertex
 100
AcDb2dVertex
 10
-248.408
 20
0.121
  0
VERTEX
  5
3CC
 100
AcDbEntity
  8
_THROUGH_HOLE_DRILL_DRAWING_
 100
AcDbVertex
 100
AcDb2dVertex
 10
-248.376
 20
0.121
  0
VERTEX
  5
3CD
 100
AcDbEntity
  8
_THROUGH_HOLE_DRILL_DRAWING_
 100
AcDbVertex
 100
AcDb2dVertex
 10
-248.376
 20
0.121
 40
0.127
 41
0.127
  0
VERTEX
  5
3CE
 100
AcDbEntity
  8
_THROUGH_HOLE_DRILL_DRAWING_
 100
AcDbVertex
 100
AcDb2dVertex
 10
-248.376
 20
-0.776
 40
0.127
 41
0.127
  0
VERTEX
  5
3CF
 100
AcDbEntity
  8
_THROUGH_HOLE_DRILL_DRAWING_
 100
AcDbVertex
 100
AcDb2dVertex
 10
-248.376
 20
-0.776
  0
VERTEX
  5
3D0
 100
AcDbEntity
  8
_THROUGH_HOLE_DRILL_DRAWING_
 100
AcDbVertex
 100
AcDb2dVertex
 10
-248.376
 20
-0.776
 40
0.064
 41
0.064
  0
VERTEX
  5
3D1
 100
AcDbEntity
  8
_THROUGH_HOLE_DRILL_DRAWING_
 100
AcDbVertex
 100
AcDb2dVertex
 10
-248.408
 20
-0.776
 40
0.064
 41
0.064
 42
1.00000
  0
VERTEX
  5
3D2
 100
AcDbEntity
  8
_THROUGH_HOLE_DRILL_DRAWING_
 100
AcDbVertex
 100
AcDb2dVertex
 10
-248.345
 20
-0.776
  0
SEQEND
  5
3D3
 100
AcDbEntity
  8
_THROUGH_HOLE_DRILL_DRAWING_
  0
POLYLINE
  5
3D4
 100
AcDbEntity
  8
_THROUGH_HOLE_DRILL_DRAWING_
 100
AcDb2dPolyline
 66
     1
 10
0.000
 20
0.000
 40
0.000
 41
0.000
  0
VERTEX
  5
3D5
 100
AcDbEntity
  8
_THROUGH_HOLE_DRILL_DRAWING_
 100
AcDbVertex
 100
AcDb2dVertex
 10
-248.376
 20
-0.744
 40
0.064
 41
0.064
 42
1.00000
  0
VERTEX
  5
3D6
 100
AcDbEntity
  8
_THROUGH_HOLE_DRILL_DRAWING_
 100
AcDbVertex
 100
AcDb2dVertex
 10
-248.376
 20
-0.808
  0
VERTEX
  5
3D7
 100
AcDbEntity
  8
_THROUGH_HOLE_DRILL_DRAWING_
 100
AcDbVertex
 100
AcDb2dVertex
 10
-248.376
 20
-0.776
  0
VERTEX
  5
3D8
 100
AcDbEntity
  8
_THROUGH_HOLE_DRILL_DRAWING_
 100
AcDbVertex
 100
AcDb2dVertex
 10
-248.376
 20
-0.776
 40
0.127
 41
0.127
  0
VERTEX
  5
3D9
 100
AcDbEntity
  8
_THROUGH_HOLE_DRILL_DRAWING_
 100
AcDbVertex
 100
AcDb2dVertex
 10
-247.629
 20
-0.776
 40
0.127
 41
0.127
  0
VERTEX
  5
3DA
 100
AcDbEntity
  8
_THROUGH_HOLE_DRILL_DRAWING_
 100
AcDbVertex
 100
AcDb2dVertex
 10
-247.629
 20
-0.776
  0
VERTEX
  5
3DB
 100
AcDbEntity
  8
_THROUGH_HOLE_DRILL_DRAWING_
 100
AcDbVertex
 100
AcDb2dVertex
 10
-247.629
 20
-0.776
 40
0.064
 41
0.064
  0
VERTEX
  5
3DC
 100
AcDbEntity
  8
_THROUGH_HOLE_DRILL_DRAWING_
 100
AcDbVertex
 100
AcDb2dVertex
 10
-247.629
 20
-0.808
 40
0.064
 41
0.064
 42
1.00000
  0
VERTEX
  5
3DD
 100
AcDbEntity
  8
_THROUGH_HOLE_DRILL_DRAWING_
 100
AcDbVertex
 100
AcDb2dVertex
 10
-247.629
 20
-0.744
  0
SEQEND
  5
3DE
 100
AcDbEntity
  8
_THROUGH_HOLE_DRILL_DRAWING_
  0
POLYLINE
  5
3DF
 100
AcDbEntity
  8
_THROUGH_HOLE_DRILL_DRAWING_
 100
AcDb2dPolyline
 66
     1
 10
0.000
 20
0.000
 70
     1
 40
0.000
 41
0.000
  0
VERTEX
  5
3E0
 100
AcDbEntity
  8
_THROUGH_HOLE_DRILL_DRAWING_
 100
AcDbVertex
 100
AcDb2dVertex
 10
-204.900
 20
-1.000
 40
0.000
 41
0.000
 42
1.00000
  0
VERTEX
  5
3E1
 100
AcDbEntity
  8
_THROUGH_HOLE_DRILL_DRAWING_
 100
AcDbVertex
 100
AcDb2dVertex
 10
-204.900
 20
-1.000
  0
VERTEX
  5
3E2
 100
AcDbEntity
  8
_THROUGH_HOLE_DRILL_DRAWING_
 100
AcDbVertex
 100
AcDb2dVertex
 10
-204.900
 20
-1.000
  0
VERTEX
  5
3E3
 100
AcDbEntity
  8
_THROUGH_HOLE_DRILL_DRAWING_
 100
AcDbVertex
 100
AcDb2dVertex
 10
-204.900
 20
-1.000
 40
0.000
 41
0.000
 42
1.00000
  0
VERTEX
  5
3E4
 100
AcDbEntity
  8
_THROUGH_HOLE_DRILL_DRAWING_
 100
AcDbVertex
 100
AcDb2dVertex
 10
-201.400
 20
-1.000
 40
0.000
 41
0.000
  0
VERTEX
  5
3E5
 100
AcDbEntity
  8
_THROUGH_HOLE_DRILL_DRAWING_
 100
AcDbVertex
 100
AcDb2dVertex
 10
-201.400
 20
-1.000
 40
0.000
 41
0.000
 42
1.00000
  0
VERTEX
  5
3E6
 100
AcDbEntity
  8
_THROUGH_HOLE_DRILL_DRAWING_
 100
AcDbVertex
 100
AcDb2dVertex
 10
-201.400
 20
-1.000
  0
VERTEX
  5
3E7
 100
AcDbEntity
  8
_THROUGH_HOLE_DRILL_DRAWING_
 100
AcDbVertex
 100
AcDb2dVertex
 10
-201.400
 20
-1.000
 40
0.000
 41
0.000
 42
1.00000
  0
VERTEX
  5
3E8
 100
AcDbEntity
  8
_THROUGH_HOLE_DRILL_DRAWING_
 100
AcDbVertex
 100
AcDb2dVertex
 10
-201.400
 20
-1.000
  0
VERTEX
  5
3E9
 100
AcDbEntity
  8
_THROUGH_HOLE_DRILL_DRAWING_
 100
AcDbVertex
 100
AcDb2dVertex
 10
-201.400
 20
-1.000
  0
VERTEX
  5
3EA
 100
AcDbEntity
  8
_THROUGH_HOLE_DRILL_DRAWING_
 100
AcDbVertex
 100
AcDb2dVertex
 10
-201.400
 20
-1.000
 40
0.000
 41
0.000
 42
1.00000
  0
VERTEX
  5
3EB
 100
AcDbEntity
  8
_THROUGH_HOLE_DRILL_DRAWING_
 100
AcDbVertex
 100
AcDb2dVertex
 10
-204.900
 20
-1.000
 40
0.000
 41
0.000
  0
VERTEX
  5
3EC
 100
AcDbEntity
  8
_THROUGH_HOLE_DRILL_DRAWING_
 100
AcDbVertex
 100
AcDb2dVertex
 10
-204.900
 20
-1.000
  0
VERTEX
  5
3ED
 100
AcDbEntity
  8
_THROUGH_HOLE_DRILL_DRAWING_
 100
AcDbVertex
 100
AcDb2dVertex
 10
-204.900
 20
-1.000
 40
0.000
 41
0.000
  0
VERTEX
  5
3EE
 100
AcDbEntity
  8
_THROUGH_HOLE_DRILL_DRAWING_
 100
AcDbVertex
 100
AcDb2dVertex
 10
-204.900
 20
-1.000
 40
0.000
 41
0.000
 42
1.00000
  0
VERTEX
  5
3EF
 100
AcDbEntity
  8
_THROUGH_HOLE_DRILL_DRAWING_
 100
AcDbVertex
 100
AcDb2dVertex
 10
-204.900
 20
-1.000
  0
SEQEND
  5
3F0
 100
AcDbEntity
  8
_THROUGH_HOLE_DRILL_DRAWING_
  0
POLYLINE
  5
3F1
 100
AcDbEntity
  8
_THROUGH_HOLE_DRILL_DRAWING_
 100
AcDb2dPolyline
 66
     1
 10
0.000
 20
0.000
 40
0.000
 41
0.000
  0
VERTEX
  5
3F2
 100
AcDbEntity
  8
_THROUGH_HOLE_DRILL_DRAWING_
 100
AcDbVertex
 100
AcDb2dVertex
 10
-201.305
 20
0.121
 40
0.064
 41
0.064
 42
1.00000
  0
VERTEX
  5
3F3
 100
AcDbEntity
  8
_THROUGH_HOLE_DRILL_DRAWING_
 100
AcDbVertex
 100
AcDb2dVertex
 10
-201.368
 20
0.121
  0
VERTEX
  5
3F4
 100
AcDbEntity
  8
_THROUGH_HOLE_DRILL_DRAWING_
 100
AcDbVertex
 100
AcDb2dVertex
 10
-201.337
 20
0.121
  0
VERTEX
  5
3F5
 100
AcDbEntity
  8
_THROUGH_HOLE_DRILL_DRAWING_
 100
AcDbVertex
 100
AcDb2dVertex
 10
-201.337
 20
0.121
 40
0.127
 41
0.127
  0
VERTEX
  5
3F6
 100
AcDbEntity
  8
_THROUGH_HOLE_DRILL_DRAWING_
 100
AcDbVertex
 100
AcDb2dVertex
 10
-201.337
 20
-0.776
 40
0.127
 41
0.127
  0
VERTEX
  5
3F7
 100
AcDbEntity
  8
_THROUGH_HOLE_DRILL_DRAWING_
 100
AcDbVertex
 100
AcDb2dVertex
 10
-201.337
 20
-0.776
  0
VERTEX
  5
3F8
 100
AcDbEntity
  8
_THROUGH_HOLE_DRILL_DRAWING_
 100
AcDbVertex
 100
AcDb2dVertex
 10
-201.337
 20
-0.776
 40
0.064
 41
0.064
  0
VERTEX
  5
3F9
 100
AcDbEntity
  8
_THROUGH_HOLE_DRILL_DRAWING_
 100
AcDbVertex
 100
AcDb2dVertex
 10
-201.368
 20
-0.776
 40
0.064
 41
0.064
 42
1.00000
  0
VERTEX
  5
3FA
 100
AcDbEntity
  8
_THROUGH_HOLE_DRILL_DRAWING_
 100
AcDbVertex
 100
AcDb2dVertex
 10
-201.305
 20
-0.776
  0
SEQEND
  5
3FB
 100
AcDbEntity
  8
_THROUGH_HOLE_DRILL_DRAWING_
  0
POLYLINE
  5
3FC
 100
AcDbEntity
  8
_THROUGH_HOLE_DRILL_DRAWING_
 100
AcDb2dPolyline
 66
     1
 10
0.000
 20
0.000
 40
0.000
 41
0.000
  0
VERTEX
  5
3FD
 100
AcDbEntity
  8
_THROUGH_HOLE_DRILL_DRAWING_
 100
AcDbVertex
 100
AcDb2dVertex
 10
-201.337
 20
-0.744
 40
0.064
 41
0.064
 42
1.00000
  0
VERTEX
  5
3FE
 100
AcDbEntity
  8
_THROUGH_HOLE_DRILL_DRAWING_
 100
AcDbVertex
 100
AcDb2dVertex
 10
-201.337
 20
-0.808
  0
VERTEX
  5
3FF
 100
AcDbEntity
  8
_THROUGH_HOLE_DRILL_DRAWING_
 100
AcDbVertex
 100
AcDb2dVertex
 10
-201.337
 20
-0.776
  0
VERTEX
  5
400
 100
AcDbEntity
  8
_THROUGH_HOLE_DRILL_DRAWING_
 100
AcDbVertex
 100
AcDb2dVertex
 10
-201.337
 20
-0.776
 40
0.127
 41
0.127
  0
VERTEX
  5
401
 100
AcDbEntity
  8
_THROUGH_HOLE_DRILL_DRAWING_
 100
AcDbVertex
 100
AcDb2dVertex
 10
-200.589
 20
-0.776
 40
0.127
 41
0.127
  0
VERTEX
  5
402
 100
AcDbEntity
  8
_THROUGH_HOLE_DRILL_DRAWING_
 100
AcDbVertex
 100
AcDb2dVertex
 10
-200.589
 20
-0.776
  0
VERTEX
  5
403
 100
AcDbEntity
  8
_THROUGH_HOLE_DRILL_DRAWING_
 100
AcDbVertex
 100
AcDb2dVertex
 10
-200.589
 20
-0.776
 40
0.064
 41
0.064
  0
VERTEX
  5
404
 100
AcDbEntity
  8
_THROUGH_HOLE_DRILL_DRAWING_
 100
AcDbVertex
 100
AcDb2dVertex
 10
-200.589
 20
-0.808
 40
0.064
 41
0.064
 42
1.00000
  0
VERTEX
  5
405
 100
AcDbEntity
  8
_THROUGH_HOLE_DRILL_DRAWING_
 100
AcDbVertex
 100
AcDb2dVertex
 10
-200.589
 20
-0.744
  0
SEQEND
  5
406
 100
AcDbEntity
  8
_THROUGH_HOLE_DRILL_DRAWING_
  0
POLYLINE
  5
407
 100
AcDbEntity
  8
_THROUGH_HOLE_DRILL_DRAWING_
 100
AcDb2dPolyline
 66
     1
 10
0.000
 20
0.000
 70
     1
 40
0.000
 41
0.000
  0
VERTEX
  5
408
 100
AcDbEntity
  8
_THROUGH_HOLE_DRILL_DRAWING_
 100
AcDbVertex
 100
AcDb2dVertex
 10
-194.940
 20
-1.000
 40
0.000
 41
0.000
 42
1.00000
  0
VERTEX
  5
409
 100
AcDbEntity
  8
_THROUGH_HOLE_DRILL_DRAWING_
 100
AcDbVertex
 100
AcDb2dVertex
 10
-194.940
 20
-1.000
  0
VERTEX
  5
40A
 100
AcDbEntity
  8
_THROUGH_HOLE_DRILL_DRAWING_
 100
AcDbVertex
 100
AcDb2dVertex
 10
-194.940
 20
-1.000
  0
VERTEX
  5
40B
 100
AcDbEntity
  8
_THROUGH_HOLE_DRILL_DRAWING_
 100
AcDbVertex
 100
AcDb2dVertex
 10
-194.940
 20
-1.000
 40
0.000
 41
0.000
 42
1.00000
  0
VERTEX
  5
40C
 100
AcDbEntity
  8
_THROUGH_HOLE_DRILL_DRAWING_
 100
AcDbVertex
 100
AcDb2dVertex
 10
-191.440
 20
-1.000
 40
0.000
 41
0.000
  0
VERTEX
  5
40D
 100
AcDbEntity
  8
_THROUGH_HOLE_DRILL_DRAWING_
 100
AcDbVertex
 100
AcDb2dVertex
 10
-191.440
 20
-1.000
 40
0.000
 41
0.000
 42
1.00000
  0
VERTEX
  5
40E
 100
AcDbEntity
  8
_THROUGH_HOLE_DRILL_DRAWING_
 100
AcDbVertex
 100
AcDb2dVertex
 10
-191.440
 20
-1.000
  0
VERTEX
  5
40F
 100
AcDbEntity
  8
_THROUGH_HOLE_DRILL_DRAWING_
 100
AcDbVertex
 100
AcDb2dVertex
 10
-191.440
 20
-1.000
 40
0.000
 41
0.000
 42
1.00000
  0
VERTEX
  5
410
 100
AcDbEntity
  8
_THROUGH_HOLE_DRILL_DRAWING_
 100
AcDbVertex
 100
AcDb2dVertex
 10
-191.440
 20
-1.000
  0
VERTEX
  5
411
 100
AcDbEntity
  8
_THROUGH_HOLE_DRILL_DRAWING_
 100
AcDbVertex
 100
AcDb2dVertex
 10
-191.440
 20
-1.000
  0
VERTEX
  5
412
 100
AcDbEntity
  8
_THROUGH_HOLE_DRILL_DRAWING_
 100
AcDbVertex
 100
AcDb2dVertex
 10
-191.440
 20
-1.000
 40
0.000
 41
0.000
 42
1.00000
  0
VERTEX
  5
413
 100
AcDbEntity
  8
_THROUGH_HOLE_DRILL_DRAWING_
 100
AcDbVertex
 100
AcDb2dVertex
 10
-194.940
 20
-1.000
 40
0.000
 41
0.000
  0
VERTEX
  5
414
 100
AcDbEntity
  8
_THROUGH_HOLE_DRILL_DRAWING_
 100
AcDbVertex
 100
AcDb2dVertex
 10
-194.940
 20
-1.000
  0
VERTEX
  5
415
 100
AcDbEntity
  8
_THROUGH_HOLE_DRILL_DRAWING_
 100
AcDbVertex
 100
AcDb2dVertex
 10
-194.940
 20
-1.000
 40
0.000
 41
0.000
  0
VERTEX
  5
416
 100
AcDbEntity
  8
_THROUGH_HOLE_DRILL_DRAWING_
 100
AcDbVertex
 100
AcDb2dVertex
 10
-194.940
 20
-1.000
 40
0.000
 41
0.000
 42
1.00000
  0
VERTEX
  5
417
 100
AcDbEntity
  8
_THROUGH_HOLE_DRILL_DRAWING_
 100
AcDbVertex
 100
AcDb2dVertex
 10
-194.940
 20
-1.000
  0
SEQEND
  5
418
 100
AcDbEntity
  8
_THROUGH_HOLE_DRILL_DRAWING_
  0
POLYLINE
  5
419
 100
AcDbEntity
  8
_THROUGH_HOLE_DRILL_DRAWING_
 100
AcDb2dPolyline
 66
     1
 10
0.000
 20
0.000
 40
0.000
 41
0.000
  0
VERTEX
  5
41A
 100
AcDbEntity
  8
_THROUGH_HOLE_DRILL_DRAWING_
 100
AcDbVertex
 100
AcDb2dVertex
 10
-191.345
 20
0.121
 40
0.064
 41
0.064
 42
1.00000
  0
VERTEX
  5
41B
 100
AcDbEntity
  8
_THROUGH_HOLE_DRILL_DRAWING_
 100
AcDbVertex
 100
AcDb2dVertex
 10
-191.408
 20
0.121
  0
VERTEX
  5
41C
 100
AcDbEntity
  8
_THROUGH_HOLE_DRILL_DRAWING_
 100
AcDbVertex
 100
AcDb2dVertex
 10
-191.376
 20
0.121
  0
VERTEX
  5
41D
 100
AcDbEntity
  8
_THROUGH_HOLE_DRILL_DRAWING_
 100
AcDbVertex
 100
AcDb2dVertex
 10
-191.376
 20
0.121
 40
0.127
 41
0.127
  0
VERTEX
  5
41E
 100
AcDbEntity
  8
_THROUGH_HOLE_DRILL_DRAWING_
 100
AcDbVertex
 100
AcDb2dVertex
 10
-191.376
 20
-0.776
 40
0.127
 41
0.127
  0
VERTEX
  5
41F
 100
AcDbEntity
  8
_THROUGH_HOLE_DRILL_DRAWING_
 100
AcDbVertex
 100
AcDb2dVertex
 10
-191.376
 20
-0.776
  0
VERTEX
  5
420
 100
AcDbEntity
  8
_THROUGH_HOLE_DRILL_DRAWING_
 100
AcDbVertex
 100
AcDb2dVertex
 10
-191.376
 20
-0.776
 40
0.064
 41
0.064
  0
VERTEX
  5
421
 100
AcDbEntity
  8
_THROUGH_HOLE_DRILL_DRAWING_
 100
AcDbVertex
 100
AcDb2dVertex
 10
-191.408
 20
-0.776
 40
0.064
 41
0.064
 42
1.00000
  0
VERTEX
  5
422
 100
AcDbEntity
  8
_THROUGH_HOLE_DRILL_DRAWING_
 100
AcDbVertex
 100
AcDb2dVertex
 10
-191.345
 20
-0.776
  0
SEQEND
  5
423
 100
AcDbEntity
  8
_THROUGH_HOLE_DRILL_DRAWING_
  0
POLYLINE
  5
424
 100
AcDbEntity
  8
_THROUGH_HOLE_DRILL_DRAWING_
 100
AcDb2dPolyline
 66
     1
 10
0.000
 20
0.000
 40
0.000
 41
0.000
  0
VERTEX
  5
425
 100
AcDbEntity
  8
_THROUGH_HOLE_DRILL_DRAWING_
 100
AcDbVertex
 100
AcDb2dVertex
 10
-191.376
 20
-0.744
 40
0.064
 41
0.064
 42
1.00000
  0
VERTEX
  5
426
 100
AcDbEntity
  8
_THROUGH_HOLE_DRILL_DRAWING_
 100
AcDbVertex
 100
AcDb2dVertex
 10
-191.376
 20
-0.808
  0
VERTEX
  5
427
 100
AcDbEntity
  8
_THROUGH_HOLE_DRILL_DRAWING_
 100
AcDbVertex
 100
AcDb2dVertex
 10
-191.376
 20
-0.776
  0
VERTEX
  5
428
 100
AcDbEntity
  8
_THROUGH_HOLE_DRILL_DRAWING_
 100
AcDbVertex
 100
AcDb2dVertex
 10
-191.376
 20
-0.776
 40
0.127
 41
0.127
  0
VERTEX
  5
429
 100
AcDbEntity
  8
_THROUGH_HOLE_DRILL_DRAWING_
 100
AcDbVertex
 100
AcDb2dVertex
 10
-190.629
 20
-0.776
 40
0.127
 41
0.127
  0
VERTEX
  5
42A
 100
AcDbEntity
  8
_THROUGH_HOLE_DRILL_DRAWING_
 100
AcDbVertex
 100
AcDb2dVertex
 10
-190.629
 20
-0.776
  0
VERTEX
  5
42B
 100
AcDbEntity
  8
_THROUGH_HOLE_DRILL_DRAWING_
 100
AcDbVertex
 100
AcDb2dVertex
 10
-190.629
 20
-0.776
 40
0.064
 41
0.064
  0
VERTEX
  5
42C
 100
AcDbEntity
  8
_THROUGH_HOLE_DRILL_DRAWING_
 100
AcDbVertex
 100
AcDb2dVertex
 10
-190.629
 20
-0.808
 40
0.064
 41
0.064
 42
1.00000
  0
VERTEX
  5
42D
 100
AcDbEntity
  8
_THROUGH_HOLE_DRILL_DRAWING_
 100
AcDbVertex
 100
AcDb2dVertex
 10
-190.629
 20
-0.744
  0
SEQEND
  5
42E
 100
AcDbEntity
  8
_THROUGH_HOLE_DRILL_DRAWING_
  0
POLYLINE
  5
42F
 100
AcDbEntity
  8
_THROUGH_HOLE_DRILL_DRAWING_
 100
AcDb2dPolyline
 66
     1
 10
0.000
 20
0.000
 70
     1
 40
0.000
 41
0.000
  0
VERTEX
  5
430
 100
AcDbEntity
  8
_THROUGH_HOLE_DRILL_DRAWING_
 100
AcDbVertex
 100
AcDb2dVertex
 10
-147.900
 20
-1.000
 40
0.000
 41
0.000
 42
1.00000
  0
VERTEX
  5
431
 100
AcDbEntity
  8
_THROUGH_HOLE_DRILL_DRAWING_
 100
AcDbVertex
 100
AcDb2dVertex
 10
-147.900
 20
-1.000
  0
VERTEX
  5
432
 100
AcDbEntity
  8
_THROUGH_HOLE_DRILL_DRAWING_
 100
AcDbVertex
 100
AcDb2dVertex
 10
-147.900
 20
-1.000
  0
VERTEX
  5
433
 100
AcDbEntity
  8
_THROUGH_HOLE_DRILL_DRAWING_
 100
AcDbVertex
 100
AcDb2dVertex
 10
-147.900
 20
-1.000
 40
0.000
 41
0.000
 42
1.00000
  0
VERTEX
  5
434
 100
AcDbEntity
  8
_THROUGH_HOLE_DRILL_DRAWING_
 100
AcDbVertex
 100
AcDb2dVertex
 10
-144.400
 20
-1.000
 40
0.000
 41
0.000
  0
VERTEX
  5
435
 100
AcDbEntity
  8
_THROUGH_HOLE_DRILL_DRAWING_
 100
AcDbVertex
 100
AcDb2dVertex
 10
-144.400
 20
-1.000
 40
0.000
 41
0.000
 42
1.00000
  0
VERTEX
  5
436
 100
AcDbEntity
  8
_THROUGH_HOLE_DRILL_DRAWING_
 100
AcDbVertex
 100
AcDb2dVertex
 10
-144.400
 20
-1.000
  0
VERTEX
  5
437
 100
AcDbEntity
  8
_THROUGH_HOLE_DRILL_DRAWING_
 100
AcDbVertex
 100
AcDb2dVertex
 10
-144.400
 20
-1.000
 40
0.000
 41
0.000
 42
1.00000
  0
VERTEX
  5
438
 100
AcDbEntity
  8
_THROUGH_HOLE_DRILL_DRAWING_
 100
AcDbVertex
 100
AcDb2dVertex
 10
-144.400
 20
-1.000
  0
VERTEX
  5
439
 100
AcDbEntity
  8
_THROUGH_HOLE_DRILL_DRAWING_
 100
AcDbVertex
 100
AcDb2dVertex
 10
-144.400
 20
-1.000
  0
VERTEX
  5
43A
 100
AcDbEntity
  8
_THROUGH_HOLE_DRILL_DRAWING_
 100
AcDbVertex
 100
AcDb2dVertex
 10
-144.400
 20
-1.000
 40
0.000
 41
0.000
 42
1.00000
  0
VERTEX
  5
43B
 100
AcDbEntity
  8
_THROUGH_HOLE_DRILL_DRAWING_
 100
AcDbVertex
 100
AcDb2dVertex
 10
-147.900
 20
-1.000
 40
0.000
 41
0.000
  0
VERTEX
  5
43C
 100
AcDbEntity
  8
_THROUGH_HOLE_DRILL_DRAWING_
 100
AcDbVertex
 100
AcDb2dVertex
 10
-147.900
 20
-1.000
  0
VERTEX
  5
43D
 100
AcDbEntity
  8
_THROUGH_HOLE_DRILL_DRAWING_
 100
AcDbVertex
 100
AcDb2dVertex
 10
-147.900
 20
-1.000
 40
0.000
 41
0.000
  0
VERTEX
  5
43E
 100
AcDbEntity
  8
_THROUGH_HOLE_DRILL_DRAWING_
 100
AcDbVertex
 100
AcDb2dVertex
 10
-147.900
 20
-1.000
 40
0.000
 41
0.000
 42
1.00000
  0
VERTEX
  5
43F
 100
AcDbEntity
  8
_THROUGH_HOLE_DRILL_DRAWING_
 100
AcDbVertex
 100
AcDb2dVertex
 10
-147.900
 20
-1.000
  0
SEQEND
  5
440
 100
AcDbEntity
  8
_THROUGH_HOLE_DRILL_DRAWING_
  0
POLYLINE
  5
441
 100
AcDbEntity
  8
_THROUGH_HOLE_DRILL_DRAWING_
 100
AcDb2dPolyline
 66
     1
 10
0.000
 20
0.000
 40
0.000
 41
0.000
  0
VERTEX
  5
442
 100
AcDbEntity
  8
_THROUGH_HOLE_DRILL_DRAWING_
 100
AcDbVertex
 100
AcDb2dVertex
 10
-144.305
 20
0.121
 40
0.064
 41
0.064
 42
1.00000
  0
VERTEX
  5
443
 100
AcDbEntity
  8
_THROUGH_HOLE_DRILL_DRAWING_
 100
AcDbVertex
 100
AcDb2dVertex
 10
-144.368
 20
0.121
  0
VERTEX
  5
444
 100
AcDbEntity
  8
_THROUGH_HOLE_DRILL_DRAWING_
 100
AcDbVertex
 100
AcDb2dVertex
 10
-144.337
 20
0.121
  0
VERTEX
  5
445
 100
AcDbEntity
  8
_THROUGH_HOLE_DRILL_DRAWING_
 100
AcDbVertex
 100
AcDb2dVertex
 10
-144.337
 20
0.121
 40
0.127
 41
0.127
  0
VERTEX
  5
446
 100
AcDbEntity
  8
_THROUGH_HOLE_DRILL_DRAWING_
 100
AcDbVertex
 100
AcDb2dVertex
 10
-144.337
 20
-0.776
 40
0.127
 41
0.127
  0
VERTEX
  5
447
 100
AcDbEntity
  8
_THROUGH_HOLE_DRILL_DRAWING_
 100
AcDbVertex
 100
AcDb2dVertex
 10
-144.337
 20
-0.776
  0
VERTEX
  5
448
 100
AcDbEntity
  8
_THROUGH_HOLE_DRILL_DRAWING_
 100
AcDbVertex
 100
AcDb2dVertex
 10
-144.337
 20
-0.776
 40
0.064
 41
0.064
  0
VERTEX
  5
449
 100
AcDbEntity
  8
_THROUGH_HOLE_DRILL_DRAWING_
 100
AcDbVertex
 100
AcDb2dVertex
 10
-144.368
 20
-0.776
 40
0.064
 41
0.064
 42
1.00000
  0
VERTEX
  5
44A
 100
AcDbEntity
  8
_THROUGH_HOLE_DRILL_DRAWING_
 100
AcDbVertex
 100
AcDb2dVertex
 10
-144.305
 20
-0.776
  0
SEQEND
  5
44B
 100
AcDbEntity
  8
_THROUGH_HOLE_DRILL_DRAWING_
  0
POLYLINE
  5
44C
 100
AcDbEntity
  8
_THROUGH_HOLE_DRILL_DRAWING_
 100
AcDb2dPolyline
 66
     1
 10
0.000
 20
0.000
 40
0.000
 41
0.000
  0
VERTEX
  5
44D
 100
AcDbEntity
  8
_THROUGH_HOLE_DRILL_DRAWING_
 100
AcDbVertex
 100
AcDb2dVertex
 10
-144.337
 20
-0.744
 40
0.064
 41
0.064
 42
1.00000
  0
VERTEX
  5
44E
 100
AcDbEntity
  8
_THROUGH_HOLE_DRILL_DRAWING_
 100
AcDbVertex
 100
AcDb2dVertex
 10
-144.337
 20
-0.808
  0
VERTEX
  5
44F
 100
AcDbEntity
  8
_THROUGH_HOLE_DRILL_DRAWING_
 100
AcDbVertex
 100
AcDb2dVertex
 10
-144.337
 20
-0.776
  0
VERTEX
  5
450
 100
AcDbEntity
  8
_THROUGH_HOLE_DRILL_DRAWING_
 100
AcDbVertex
 100
AcDb2dVertex
 10
-144.337
 20
-0.776
 40
0.127
 41
0.127
  0
VERTEX
  5
451
 100
AcDbEntity
  8
_THROUGH_HOLE_DRILL_DRAWING_
 100
AcDbVertex
 100
AcDb2dVertex
 10
-143.589
 20
-0.776
 40
0.127
 41
0.127
  0
VERTEX
  5
452
 100
AcDbEntity
  8
_THROUGH_HOLE_DRILL_DRAWING_
 100
AcDbVertex
 100
AcDb2dVertex
 10
-143.589
 20
-0.776
  0
VERTEX
  5
453
 100
AcDbEntity
  8
_THROUGH_HOLE_DRILL_DRAWING_
 100
AcDbVertex
 100
AcDb2dVertex
 10
-143.589
 20
-0.776
 40
0.064
 41
0.064
  0
VERTEX
  5
454
 100
AcDbEntity
  8
_THROUGH_HOLE_DRILL_DRAWING_
 100
AcDbVertex
 100
AcDb2dVertex
 10
-143.589
 20
-0.808
 40
0.064
 41
0.064
 42
1.00000
  0
VERTEX
  5
455
 100
AcDbEntity
  8
_THROUGH_HOLE_DRILL_DRAWING_
 100
AcDbVertex
 100
AcDb2dVertex
 10
-143.589
 20
-0.744
  0
SEQEND
  5
456
 100
AcDbEntity
  8
_THROUGH_HOLE_DRILL_DRAWING_
  0
POLYLINE
  5
457
 100
AcDbEntity
  8
_THROUGH_HOLE_DRILL_DRAWING_
 100
AcDb2dPolyline
 66
     1
 10
0.000
 20
0.000
 70
     1
 40
0.000
 41
0.000
  0
VERTEX
  5
458
 100
AcDbEntity
  8
_THROUGH_HOLE_DRILL_DRAWING_
 100
AcDbVertex
 100
AcDb2dVertex
 10
-137.640
 20
-1.000
 40
0.000
 41
0.000
 42
1.00000
  0
VERTEX
  5
459
 100
AcDbEntity
  8
_THROUGH_HOLE_DRILL_DRAWING_
 100
AcDbVertex
 100
AcDb2dVertex
 10
-137.640
 20
-1.000
  0
VERTEX
  5
45A
 100
AcDbEntity
  8
_THROUGH_HOLE_DRILL_DRAWING_
 100
AcDbVertex
 100
AcDb2dVertex
 10
-137.640
 20
-1.000
  0
VERTEX
  5
45B
 100
AcDbEntity
  8
_THROUGH_HOLE_DRILL_DRAWING_
 100
AcDbVertex
 100
AcDb2dVertex
 10
-137.640
 20
-1.000
 40
0.000
 41
0.000
 42
1.00000
  0
VERTEX
  5
45C
 100
AcDbEntity
  8
_THROUGH_HOLE_DRILL_DRAWING_
 100
AcDbVertex
 100
AcDb2dVertex
 10
-134.140
 20
-1.000
 40
0.000
 41
0.000
  0
VERTEX
  5
45D
 100
AcDbEntity
  8
_THROUGH_HOLE_DRILL_DRAWING_
 100
AcDbVertex
 100
AcDb2dVertex
 10
-134.140
 20
-1.000
 40
0.000
 41
0.000
 42
1.00000
  0
VERTEX
  5
45E
 100
AcDbEntity
  8
_THROUGH_HOLE_DRILL_DRAWING_
 100
AcDbVertex
 100
AcDb2dVertex
 10
-134.140
 20
-1.000
  0
VERTEX
  5
45F
 100
AcDbEntity
  8
_THROUGH_HOLE_DRILL_DRAWING_
 100
AcDbVertex
 100
AcDb2dVertex
 10
-134.140
 20
-1.000
 40
0.000
 41
0.000
 42
1.00000
  0
VERTEX
  5
460
 100
AcDbEntity
  8
_THROUGH_HOLE_DRILL_DRAWING_
 100
AcDbVertex
 100
AcDb2dVertex
 10
-134.140
 20
-1.000
  0
VERTEX
  5
461
 100
AcDbEntity
  8
_THROUGH_HOLE_DRILL_DRAWING_
 100
AcDbVertex
 100
AcDb2dVertex
 10
-134.140
 20
-1.000
  0
VERTEX
  5
462
 100
AcDbEntity
  8
_THROUGH_HOLE_DRILL_DRAWING_
 100
AcDbVertex
 100
AcDb2dVertex
 10
-134.140
 20
-1.000
 40
0.000
 41
0.000
 42
1.00000
  0
VERTEX
  5
463
 100
AcDbEntity
  8
_THROUGH_HOLE_DRILL_DRAWING_
 100
AcDbVertex
 100
AcDb2dVertex
 10
-137.640
 20
-1.000
 40
0.000
 41
0.000
  0
VERTEX
  5
464
 100
AcDbEntity
  8
_THROUGH_HOLE_DRILL_DRAWING_
 100
AcDbVertex
 100
AcDb2dVertex
 10
-137.640
 20
-1.000
  0
VERTEX
  5
465
 100
AcDbEntity
  8
_THROUGH_HOLE_DRILL_DRAWING_
 100
AcDbVertex
 100
AcDb2dVertex
 10
-137.640
 20
-1.000
 40
0.000
 41
0.000
  0
VERTEX
  5
466
 100
AcDbEntity
  8
_THROUGH_HOLE_DRILL_DRAWING_
 100
AcDbVertex
 100
AcDb2dVertex
 10
-137.640
 20
-1.000
 40
0.000
 41
0.000
 42
1.00000
  0
VERTEX
  5
467
 100
AcDbEntity
  8
_THROUGH_HOLE_DRILL_DRAWING_
 100
AcDbVertex
 100
AcDb2dVertex
 10
-137.640
 20
-1.000
  0
SEQEND
  5
468
 100
AcDbEntity
  8
_THROUGH_HOLE_DRILL_DRAWING_
  0
POLYLINE
  5
469
 100
AcDbEntity
  8
_THROUGH_HOLE_DRILL_DRAWING_
 100
AcDb2dPolyline
 66
     1
 10
0.000
 20
0.000
 40
0.000
 41
0.000
  0
VERTEX
  5
46A
 100
AcDbEntity
  8
_THROUGH_HOLE_DRILL_DRAWING_
 100
AcDbVertex
 100
AcDb2dVertex
 10
-134.045
 20
0.121
 40
0.064
 41
0.064
 42
1.00000
  0
VERTEX
  5
46B
 100
AcDbEntity
  8
_THROUGH_HOLE_DRILL_DRAWING_
 100
AcDbVertex
 100
AcDb2dVertex
 10
-134.108
 20
0.121
  0
VERTEX
  5
46C
 100
AcDbEntity
  8
_THROUGH_HOLE_DRILL_DRAWING_
 100
AcDbVertex
 100
AcDb2dVertex
 10
-134.077
 20
0.121
  0
VERTEX
  5
46D
 100
AcDbEntity
  8
_THROUGH_HOLE_DRILL_DRAWING_
 100
AcDbVertex
 100
AcDb2dVertex
 10
-134.077
 20
0.121
 40
0.127
 41
0.127
  0
VERTEX
  5
46E
 100
AcDbEntity
  8
_THROUGH_HOLE_DRILL_DRAWING_
 100
AcDbVertex
 100
AcDb2dVertex
 10
-134.077
 20
-0.776
 40
0.127
 41
0.127
  0
VERTEX
  5
46F
 100
AcDbEntity
  8
_THROUGH_HOLE_DRILL_DRAWING_
 100
AcDbVertex
 100
AcDb2dVertex
 10
-134.077
 20
-0.776
  0
VERTEX
  5
470
 100
AcDbEntity
  8
_THROUGH_HOLE_DRILL_DRAWING_
 100
AcDbVertex
 100
AcDb2dVertex
 10
-134.077
 20
-0.776
 40
0.064
 41
0.064
  0
VERTEX
  5
471
 100
AcDbEntity
  8
_THROUGH_HOLE_DRILL_DRAWING_
 100
AcDbVertex
 100
AcDb2dVertex
 10
-134.108
 20
-0.776
 40
0.064
 41
0.064
 42
1.00000
  0
VERTEX
  5
472
 100
AcDbEntity
  8
_THROUGH_HOLE_DRILL_DRAWING_
 100
AcDbVertex
 100
AcDb2dVertex
 10
-134.045
 20
-0.776
  0
SEQEND
  5
473
 100
AcDbEntity
  8
_THROUGH_HOLE_DRILL_DRAWING_
  0
POLYLINE
  5
474
 100
AcDbEntity
  8
_THROUGH_HOLE_DRILL_DRAWING_
 100
AcDb2dPolyline
 66
     1
 10
0.000
 20
0.000
 40
0.000
 41
0.000
  0
VERTEX
  5
475
 100
AcDbEntity
  8
_THROUGH_HOLE_DRILL_DRAWING_
 100
AcDbVertex
 100
AcDb2dVertex
 10
-134.077
 20
-0.744
 40
0.064
 41
0.064
 42
1.00000
  0
VERTEX
  5
476
 100
AcDbEntity
  8
_THROUGH_HOLE_DRILL_DRAWING_
 100
AcDbVertex
 100
AcDb2dVertex
 10
-134.077
 20
-0.808
  0
VERTEX
  5
477
 100
AcDbEntity
  8
_THROUGH_HOLE_DRILL_DRAWING_
 100
AcDbVertex
 100
AcDb2dVertex
 10
-134.077
 20
-0.776
  0
VERTEX
  5
478
 100
AcDbEntity
  8
_THROUGH_HOLE_DRILL_DRAWING_
 100
AcDbVertex
 100
AcDb2dVertex
 10
-134.077
 20
-0.776
 40
0.127
 41
0.127
  0
VERTEX
  5
479
 100
AcDbEntity
  8
_THROUGH_HOLE_DRILL_DRAWING_
 100
AcDbVertex
 100
AcDb2dVertex
 10
-133.329
 20
-0.776
 40
0.127
 41
0.127
  0
VERTEX
  5
47A
 100
AcDbEntity
  8
_THROUGH_HOLE_DRILL_DRAWING_
 100
AcDbVertex
 100
AcDb2dVertex
 10
-133.329
 20
-0.776
  0
VERTEX
  5
47B
 100
AcDbEntity
  8
_THROUGH_HOLE_DRILL_DRAWING_
 100
AcDbVertex
 100
AcDb2dVertex
 10
-133.329
 20
-0.776
 40
0.064
 41
0.064
  0
VERTEX
  5
47C
 100
AcDbEntity
  8
_THROUGH_HOLE_DRILL_DRAWING_
 100
AcDbVertex
 100
AcDb2dVertex
 10
-133.329
 20
-0.808
 40
0.064
 41
0.064
 42
1.00000
  0
VERTEX
  5
47D
 100
AcDbEntity
  8
_THROUGH_HOLE_DRILL_DRAWING_
 100
AcDbVertex
 100
AcDb2dVertex
 10
-133.329
 20
-0.744
  0
SEQEND
  5
47E
 100
AcDbEntity
  8
_THROUGH_HOLE_DRILL_DRAWING_
  0
POLYLINE
  5
47F
 100
AcDbEntity
  8
_THROUGH_HOLE_DRILL_DRAWING_
 100
AcDb2dPolyline
 66
     1
 10
0.000
 20
0.000
 70
     1
 40
0.000
 41
0.000
  0
VERTEX
  5
480
 100
AcDbEntity
  8
_THROUGH_HOLE_DRILL_DRAWING_
 100
AcDbVertex
 100
AcDb2dVertex
 10
-90.600
 20
-1.000
 40
0.000
 41
0.000
 42
1.00000
  0
VERTEX
  5
481
 100
AcDbEntity
  8
_THROUGH_HOLE_DRILL_DRAWING_
 100
AcDbVertex
 100
AcDb2dVertex
 10
-90.600
 20
-1.000
  0
VERTEX
  5
482
 100
AcDbEntity
  8
_THROUGH_HOLE_DRILL_DRAWING_
 100
AcDbVertex
 100
AcDb2dVertex
 10
-90.600
 20
-1.000
  0
VERTEX
  5
483
 100
AcDbEntity
  8
_THROUGH_HOLE_DRILL_DRAWING_
 100
AcDbVertex
 100
AcDb2dVertex
 10
-90.600
 20
-1.000
 40
0.000
 41
0.000
 42
1.00000
  0
VERTEX
  5
484
 100
AcDbEntity
  8
_THROUGH_HOLE_DRILL_DRAWING_
 100
AcDbVertex
 100
AcDb2dVertex
 10
-87.100
 20
-1.000
 40
0.000
 41
0.000
  0
VERTEX
  5
485
 100
AcDbEntity
  8
_THROUGH_HOLE_DRILL_DRAWING_
 100
AcDbVertex
 100
AcDb2dVertex
 10
-87.100
 20
-1.000
 40
0.000
 41
0.000
 42
1.00000
  0
VERTEX
  5
486
 100
AcDbEntity
  8
_THROUGH_HOLE_DRILL_DRAWING_
 100
AcDbVertex
 100
AcDb2dVertex
 10
-87.100
 20
-1.000
  0
VERTEX
  5
487
 100
AcDbEntity
  8
_THROUGH_HOLE_DRILL_DRAWING_
 100
AcDbVertex
 100
AcDb2dVertex
 10
-87.100
 20
-1.000
 40
0.000
 41
0.000
 42
1.00000
  0
VERTEX
  5
488
 100
AcDbEntity
  8
_THROUGH_HOLE_DRILL_DRAWING_
 100
AcDbVertex
 100
AcDb2dVertex
 10
-87.100
 20
-1.000
  0
VERTEX
  5
489
 100
AcDbEntity
  8
_THROUGH_HOLE_DRILL_DRAWING_
 100
AcDbVertex
 100
AcDb2dVertex
 10
-87.100
 20
-1.000
  0
VERTEX
  5
48A
 100
AcDbEntity
  8
_THROUGH_HOLE_DRILL_DRAWING_
 100
AcDbVertex
 100
AcDb2dVertex
 10
-87.100
 20
-1.000
 40
0.000
 41
0.000
 42
1.00000
  0
VERTEX
  5
48B
 100
AcDbEntity
  8
_THROUGH_HOLE_DRILL_DRAWING_
 100
AcDbVertex
 100
AcDb2dVertex
 10
-90.600
 20
-1.000
 40
0.000
 41
0.000
  0
VERTEX
  5
48C
 100
AcDbEntity
  8
_THROUGH_HOLE_DRILL_DRAWING_
 100
AcDbVertex
 100
AcDb2dVertex
 10
-90.600
 20
-1.000
  0
VERTEX
  5
48D
 100
AcDbEntity
  8
_THROUGH_HOLE_DRILL_DRAWING_
 100
AcDbVertex
 100
AcDb2dVertex
 10
-90.600
 20
-1.000
 40
0.000
 41
0.000
  0
VERTEX
  5
48E
 100
AcDbEntity
  8
_THROUGH_HOLE_DRILL_DRAWING_
 100
AcDbVertex
 100
AcDb2dVertex
 10
-90.600
 20
-1.000
 40
0.000
 41
0.000
 42
1.00000
  0
VERTEX
  5
48F
 100
AcDbEntity
  8
_THROUGH_HOLE_DRILL_DRAWING_
 100
AcDbVertex
 100
AcDb2dVertex
 10
-90.600
 20
-1.000
  0
SEQEND
  5
490
 100
AcDbEntity
  8
_THROUGH_HOLE_DRILL_DRAWING_
  0
POLYLINE
  5
491
 100
AcDbEntity
  8
_THROUGH_HOLE_DRILL_DRAWING_
 100
AcDb2dPolyline
 66
     1
 10
0.000
 20
0.000
 40
0.000
 41
0.000
  0
VERTEX
  5
492
 100
AcDbEntity
  8
_THROUGH_HOLE_DRILL_DRAWING_
 100
AcDbVertex
 100
AcDb2dVertex
 10
-87.005
 20
0.121
 40
0.064
 41
0.064
 42
1.00000
  0
VERTEX
  5
493
 100
AcDbEntity
  8
_THROUGH_HOLE_DRILL_DRAWING_
 100
AcDbVertex
 100
AcDb2dVertex
 10
-87.068
 20
0.121
  0
VERTEX
  5
494
 100
AcDbEntity
  8
_THROUGH_HOLE_DRILL_DRAWING_
 100
AcDbVertex
 100
AcDb2dVertex
 10
-87.037
 20
0.121
  0
VERTEX
  5
495
 100
AcDbEntity
  8
_THROUGH_HOLE_DRILL_DRAWING_
 100
AcDbVertex
 100
AcDb2dVertex
 10
-87.037
 20
0.121
 40
0.127
 41
0.127
  0
VERTEX
  5
496
 100
AcDbEntity
  8
_THROUGH_HOLE_DRILL_DRAWING_
 100
AcDbVertex
 100
AcDb2dVertex
 10
-87.037
 20
-0.776
 40
0.127
 41
0.127
  0
VERTEX
  5
497
 100
AcDbEntity
  8
_THROUGH_HOLE_DRILL_DRAWING_
 100
AcDbVertex
 100
AcDb2dVertex
 10
-87.037
 20
-0.776
  0
VERTEX
  5
498
 100
AcDbEntity
  8
_THROUGH_HOLE_DRILL_DRAWING_
 100
AcDbVertex
 100
AcDb2dVertex
 10
-87.037
 20
-0.776
 40
0.064
 41
0.064
  0
VERTEX
  5
499
 100
AcDbEntity
  8
_THROUGH_HOLE_DRILL_DRAWING_
 100
AcDbVertex
 100
AcDb2dVertex
 10
-87.068
 20
-0.776
 40
0.064
 41
0.064
 42
1.00000
  0
VERTEX
  5
49A
 100
AcDbEntity
  8
_THROUGH_HOLE_DRILL_DRAWING_
 100
AcDbVertex
 100
AcDb2dVertex
 10
-87.005
 20
-0.776
  0
SEQEND
  5
49B
 100
AcDbEntity
  8
_THROUGH_HOLE_DRILL_DRAWING_
  0
POLYLINE
  5
49C
 100
AcDbEntity
  8
_THROUGH_HOLE_DRILL_DRAWING_
 100
AcDb2dPolyline
 66
     1
 10
0.000
 20
0.000
 40
0.000
 41
0.000
  0
VERTEX
  5
49D
 100
AcDbEntity
  8
_THROUGH_HOLE_DRILL_DRAWING_
 100
AcDbVertex
 100
AcDb2dVertex
 10
-87.037
 20
-0.744
 40
0.064
 41
0.064
 42
1.00000
  0
VERTEX
  5
49E
 100
AcDbEntity
  8
_THROUGH_HOLE_DRILL_DRAWING_
 100
AcDbVertex
 100
AcDb2dVertex
 10
-87.037
 20
-0.808
  0
VERTEX
  5
49F
 100
AcDbEntity
  8
_THROUGH_HOLE_DRILL_DRAWING_
 100
AcDbVertex
 100
AcDb2dVertex
 10
-87.037
 20
-0.776
  0
VERTEX
  5
4A0
 100
AcDbEntity
  8
_THROUGH_HOLE_DRILL_DRAWING_
 100
AcDbVertex
 100
AcDb2dVertex
 10
-87.037
 20
-0.776
 40
0.127
 41
0.127
  0
VERTEX
  5
4A1
 100
AcDbEntity
  8
_THROUGH_HOLE_DRILL_DRAWING_
 100
AcDbVertex
 100
AcDb2dVertex
 10
-86.289
 20
-0.776
 40
0.127
 41
0.127
  0
VERTEX
  5
4A2
 100
AcDbEntity
  8
_THROUGH_HOLE_DRILL_DRAWING_
 100
AcDbVertex
 100
AcDb2dVertex
 10
-86.289
 20
-0.776
  0
VERTEX
  5
4A3
 100
AcDbEntity
  8
_THROUGH_HOLE_DRILL_DRAWING_
 100
AcDbVertex
 100
AcDb2dVertex
 10
-86.289
 20
-0.776
 40
0.064
 41
0.064
  0
VERTEX
  5
4A4
 100
AcDbEntity
  8
_THROUGH_HOLE_DRILL_DRAWING_
 100
AcDbVertex
 100
AcDb2dVertex
 10
-86.289
 20
-0.808
 40
0.064
 41
0.064
 42
1.00000
  0
VERTEX
  5
4A5
 100
AcDbEntity
  8
_THROUGH_HOLE_DRILL_DRAWING_
 100
AcDbVertex
 100
AcDb2dVertex
 10
-86.289
 20
-0.744
  0
SEQEND
  5
4A6
 100
AcDbEntity
  8
_THROUGH_HOLE_DRILL_DRAWING_
  0
POLYLINE
  5
4A7
 100
AcDbEntity
  8
_THROUGH_HOLE_DRILL_DRAWING_
 100
AcDb2dPolyline
 66
     1
 10
0.000
 20
0.000
 70
     1
 40
0.000
 41
0.000
  0
VERTEX
  5
4A8
 100
AcDbEntity
  8
_THROUGH_HOLE_DRILL_DRAWING_
 100
AcDbVertex
 100
AcDb2dVertex
 10
-43.720
 20
-1.000
 40
0.000
 41
0.000
 42
1.00000
  0
VERTEX
  5
4A9
 100
AcDbEntity
  8
_THROUGH_HOLE_DRILL_DRAWING_
 100
AcDbVertex
 100
AcDb2dVertex
 10
-43.720
 20
-1.000
  0
VERTEX
  5
4AA
 100
AcDbEntity
  8
_THROUGH_HOLE_DRILL_DRAWING_
 100
AcDbVertex
 100
AcDb2dVertex
 10
-43.720
 20
-1.000
  0
VERTEX
  5
4AB
 100
AcDbEntity
  8
_THROUGH_HOLE_DRILL_DRAWING_
 100
AcDbVertex
 100
AcDb2dVertex
 10
-43.720
 20
-1.000
 40
0.000
 41
0.000
 42
1.00000
  0
VERTEX
  5
4AC
 100
AcDbEntity
  8
_THROUGH_HOLE_DRILL_DRAWING_
 100
AcDbVertex
 100
AcDb2dVertex
 10
-40.220
 20
-1.000
 40
0.000
 41
0.000
  0
VERTEX
  5
4AD
 100
AcDbEntity
  8
_THROUGH_HOLE_DRILL_DRAWING_
 100
AcDbVertex
 100
AcDb2dVertex
 10
-40.220
 20
-1.000
 40
0.000
 41
0.000
 42
1.00000
  0
VERTEX
  5
4AE
 100
AcDbEntity
  8
_THROUGH_HOLE_DRILL_DRAWING_
 100
AcDbVertex
 100
AcDb2dVertex
 10
-40.220
 20
-1.000
  0
VERTEX
  5
4AF
 100
AcDbEntity
  8
_THROUGH_HOLE_DRILL_DRAWING_
 100
AcDbVertex
 100
AcDb2dVertex
 10
-40.220
 20
-1.000
 40
0.000
 41
0.000
 42
1.00000
  0
VERTEX
  5
4B0
 100
AcDbEntity
  8
_THROUGH_HOLE_DRILL_DRAWING_
 100
AcDbVertex
 100
AcDb2dVertex
 10
-40.220
 20
-1.000
  0
VERTEX
  5
4B1
 100
AcDbEntity
  8
_THROUGH_HOLE_DRILL_DRAWING_
 100
AcDbVertex
 100
AcDb2dVertex
 10
-40.220
 20
-1.000
  0
VERTEX
  5
4B2
 100
AcDbEntity
  8
_THROUGH_HOLE_DRILL_DRAWING_
 100
AcDbVertex
 100
AcDb2dVertex
 10
-40.220
 20
-1.000
 40
0.000
 41
0.000
 42
1.00000
  0
VERTEX
  5
4B3
 100
AcDbEntity
  8
_THROUGH_HOLE_DRILL_DRAWING_
 100
AcDbVertex
 100
AcDb2dVertex
 10
-43.720
 20
-1.000
 40
0.000
 41
0.000
  0
VERTEX
  5
4B4
 100
AcDbEntity
  8
_THROUGH_HOLE_DRILL_DRAWING_
 100
AcDbVertex
 100
AcDb2dVertex
 10
-43.720
 20
-1.000
  0
VERTEX
  5
4B5
 100
AcDbEntity
  8
_THROUGH_HOLE_DRILL_DRAWING_
 100
AcDbVertex
 100
AcDb2dVertex
 10
-43.720
 20
-1.000
 40
0.000
 41
0.000
  0
VERTEX
  5
4B6
 100
AcDbEntity
  8
_THROUGH_HOLE_DRILL_DRAWING_
 100
AcDbVertex
 100
AcDb2dVertex
 10
-43.720
 20
-1.000
 40
0.000
 41
0.000
 42
1.00000
  0
VERTEX
  5
4B7
 100
AcDbEntity
  8
_THROUGH_HOLE_DRILL_DRAWING_
 100
AcDbVertex
 100
AcDb2dVertex
 10
-43.720
 20
-1.000
  0
SEQEND
  5
4B8
 100
AcDbEntity
  8
_THROUGH_HOLE_DRILL_DRAWING_
  0
POLYLINE
  5
4B9
 100
AcDbEntity
  8
_THROUGH_HOLE_DRILL_DRAWING_
 100
AcDb2dPolyline
 66
     1
 10
0.000
 20
0.000
 40
0.000
 41
0.000
  0
VERTEX
  5
4BA
 100
AcDbEntity
  8
_THROUGH_HOLE_DRILL_DRAWING_
 100
AcDbVertex
 100
AcDb2dVertex
 10
-40.125
 20
0.121
 40
0.064
 41
0.064
 42
1.00000
  0
VERTEX
  5
4BB
 100
AcDbEntity
  8
_THROUGH_HOLE_DRILL_DRAWING_
 100
AcDbVertex
 100
AcDb2dVertex
 10
-40.188
 20
0.121
  0
VERTEX
  5
4BC
 100
AcDbEntity
  8
_THROUGH_HOLE_DRILL_DRAWING_
 100
AcDbVertex
 100
AcDb2dVertex
 10
-40.157
 20
0.121
  0
VERTEX
  5
4BD
 100
AcDbEntity
  8
_THROUGH_HOLE_DRILL_DRAWING_
 100
AcDbVertex
 100
AcDb2dVertex
 10
-40.157
 20
0.121
 40
0.127
 41
0.127
  0
VERTEX
  5
4BE
 100
AcDbEntity
  8
_THROUGH_HOLE_DRILL_DRAWING_
 100
AcDbVertex
 100
AcDb2dVertex
 10
-40.157
 20
-0.776
 40
0.127
 41
0.127
  0
VERTEX
  5
4BF
 100
AcDbEntity
  8
_THROUGH_HOLE_DRILL_DRAWING_
 100
AcDbVertex
 100
AcDb2dVertex
 10
-40.157
 20
-0.776
  0
VERTEX
  5
4C0
 100
AcDbEntity
  8
_THROUGH_HOLE_DRILL_DRAWING_
 100
AcDbVertex
 100
AcDb2dVertex
 10
-40.157
 20
-0.776
 40
0.064
 41
0.064
  0
VERTEX
  5
4C1
 100
AcDbEntity
  8
_THROUGH_HOLE_DRILL_DRAWING_
 100
AcDbVertex
 100
AcDb2dVertex
 10
-40.188
 20
-0.776
 40
0.064
 41
0.064
 42
1.00000
  0
VERTEX
  5
4C2
 100
AcDbEntity
  8
_THROUGH_HOLE_DRILL_DRAWING_
 100
AcDbVertex
 100
AcDb2dVertex
 10
-40.125
 20
-0.776
  0
SEQEND
  5
4C3
 100
AcDbEntity
  8
_THROUGH_HOLE_DRILL_DRAWING_
  0
POLYLINE
  5
4C4
 100
AcDbEntity
  8
_THROUGH_HOLE_DRILL_DRAWING_
 100
AcDb2dPolyline
 66
     1
 10
0.000
 20
0.000
 40
0.000
 41
0.000
  0
VERTEX
  5
4C5
 100
AcDbEntity
  8
_THROUGH_HOLE_DRILL_DRAWING_
 100
AcDbVertex
 100
AcDb2dVertex
 10
-40.157
 20
-0.744
 40
0.064
 41
0.064
 42
1.00000
  0
VERTEX
  5
4C6
 100
AcDbEntity
  8
_THROUGH_HOLE_DRILL_DRAWING_
 100
AcDbVertex
 100
AcDb2dVertex
 10
-40.157
 20
-0.808
  0
VERTEX
  5
4C7
 100
AcDbEntity
  8
_THROUGH_HOLE_DRILL_DRAWING_
 100
AcDbVertex
 100
AcDb2dVertex
 10
-40.157
 20
-0.776
  0
VERTEX
  5
4C8
 100
AcDbEntity
  8
_THROUGH_HOLE_DRILL_DRAWING_
 100
AcDbVertex
 100
AcDb2dVertex
 10
-40.157
 20
-0.776
 40
0.127
 41
0.127
  0
VERTEX
  5
4C9
 100
AcDbEntity
  8
_THROUGH_HOLE_DRILL_DRAWING_
 100
AcDbVertex
 100
AcDb2dVertex
 10
-39.409
 20
-0.776
 40
0.127
 41
0.127
  0
VERTEX
  5
4CA
 100
AcDbEntity
  8
_THROUGH_HOLE_DRILL_DRAWING_
 100
AcDbVertex
 100
AcDb2dVertex
 10
-39.409
 20
-0.776
  0
VERTEX
  5
4CB
 100
AcDbEntity
  8
_THROUGH_HOLE_DRILL_DRAWING_
 100
AcDbVertex
 100
AcDb2dVertex
 10
-39.409
 20
-0.776
 40
0.064
 41
0.064
  0
VERTEX
  5
4CC
 100
AcDbEntity
  8
_THROUGH_HOLE_DRILL_DRAWING_
 100
AcDbVertex
 100
AcDb2dVertex
 10
-39.409
 20
-0.808
 40
0.064
 41
0.064
 42
1.00000
  0
VERTEX
  5
4CD
 100
AcDbEntity
  8
_THROUGH_HOLE_DRILL_DRAWING_
 100
AcDbVertex
 100
AcDb2dVertex
 10
-39.409
 20
-0.744
  0
SEQEND
  5
4CE
 100
AcDbEntity
  8
_THROUGH_HOLE_DRILL_DRAWING_
  0
POLYLINE
  5
4CF
 100
AcDbEntity
  8
_THROUGH_HOLE_DRILL_DRAWING_
 100
AcDb2dPolyline
 66
     1
 10
0.000
 20
0.000
 70
     1
 40
0.000
 41
0.000
  0
VERTEX
  5
4D0
 100
AcDbEntity
  8
_THROUGH_HOLE_DRILL_DRAWING_
 100
AcDbVertex
 100
AcDb2dVertex
 10
-10.400
 20
-1.000
 40
0.000
 41
0.000
 42
1.00000
  0
VERTEX
  5
4D1
 100
AcDbEntity
  8
_THROUGH_HOLE_DRILL_DRAWING_
 100
AcDbVertex
 100
AcDb2dVertex
 10
-10.400
 20
-1.000
  0
VERTEX
  5
4D2
 100
AcDbEntity
  8
_THROUGH_HOLE_DRILL_DRAWING_
 100
AcDbVertex
 100
AcDb2dVertex
 10
-10.400
 20
-1.000
  0
VERTEX
  5
4D3
 100
AcDbEntity
  8
_THROUGH_HOLE_DRILL_DRAWING_
 100
AcDbVertex
 100
AcDb2dVertex
 10
-10.400
 20
-1.000
 40
0.000
 41
0.000
 42
1.00000
  0
VERTEX
  5
4D4
 100
AcDbEntity
  8
_THROUGH_HOLE_DRILL_DRAWING_
 100
AcDbVertex
 100
AcDb2dVertex
 10
-6.900
 20
-1.000
 40
0.000
 41
0.000
  0
VERTEX
  5
4D5
 100
AcDbEntity
  8
_THROUGH_HOLE_DRILL_DRAWING_
 100
AcDbVertex
 100
AcDb2dVertex
 10
-6.900
 20
-1.000
 40
0.000
 41
0.000
 42
1.00000
  0
VERTEX
  5
4D6
 100
AcDbEntity
  8
_THROUGH_HOLE_DRILL_DRAWING_
 100
AcDbVertex
 100
AcDb2dVertex
 10
-6.900
 20
-1.000
  0
VERTEX
  5
4D7
 100
AcDbEntity
  8
_THROUGH_HOLE_DRILL_DRAWING_
 100
AcDbVertex
 100
AcDb2dVertex
 10
-6.900
 20
-1.000
 40
0.000
 41
0.000
 42
1.00000
  0
VERTEX
  5
4D8
 100
AcDbEntity
  8
_THROUGH_HOLE_DRILL_DRAWING_
 100
AcDbVertex
 100
AcDb2dVertex
 10
-6.900
 20
-1.000
  0
VERTEX
  5
4D9
 100
AcDbEntity
  8
_THROUGH_HOLE_DRILL_DRAWING_
 100
AcDbVertex
 100
AcDb2dVertex
 10
-6.900
 20
-1.000
  0
VERTEX
  5
4DA
 100
AcDbEntity
  8
_THROUGH_HOLE_DRILL_DRAWING_
 100
AcDbVertex
 100
AcDb2dVertex
 10
-6.900
 20
-1.000
 40
0.000
 41
0.000
 42
1.00000
  0
VERTEX
  5
4DB
 100
AcDbEntity
  8
_THROUGH_HOLE_DRILL_DRAWING_
 100
AcDbVertex
 100
AcDb2dVertex
 10
-10.400
 20
-1.000
 40
0.000
 41
0.000
  0
VERTEX
  5
4DC
 100
AcDbEntity
  8
_THROUGH_HOLE_DRILL_DRAWING_
 100
AcDbVertex
 100
AcDb2dVertex
 10
-10.400
 20
-1.000
  0
VERTEX
  5
4DD
 100
AcDbEntity
  8
_THROUGH_HOLE_DRILL_DRAWING_
 100
AcDbVertex
 100
AcDb2dVertex
 10
-10.400
 20
-1.000
 40
0.000
 41
0.000
  0
VERTEX
  5
4DE
 100
AcDbEntity
  8
_THROUGH_HOLE_DRILL_DRAWING_
 100
AcDbVertex
 100
AcDb2dVertex
 10
-10.400
 20
-1.000
 40
0.000
 41
0.000
 42
1.00000
  0
VERTEX
  5
4DF
 100
AcDbEntity
  8
_THROUGH_HOLE_DRILL_DRAWING_
 100
AcDbVertex
 100
AcDb2dVertex
 10
-10.400
 20
-1.000
  0
SEQEND
  5
4E0
 100
AcDbEntity
  8
_THROUGH_HOLE_DRILL_DRAWING_
  0
POLYLINE
  5
4E1
 100
AcDbEntity
  8
_THROUGH_HOLE_DRILL_DRAWING_
 100
AcDb2dPolyline
 66
     1
 10
0.000
 20
0.000
 40
0.000
 41
0.000
  0
VERTEX
  5
4E2
 100
AcDbEntity
  8
_THROUGH_HOLE_DRILL_DRAWING_
 100
AcDbVertex
 100
AcDb2dVertex
 10
-6.805
 20
0.121
 40
0.064
 41
0.064
 42
1.00000
  0
VERTEX
  5
4E3
 100
AcDbEntity
  8
_THROUGH_HOLE_DRILL_DRAWING_
 100
AcDbVertex
 100
AcDb2dVertex
 10
-6.868
 20
0.121
  0
VERTEX
  5
4E4
 100
AcDbEntity
  8
_THROUGH_HOLE_DRILL_DRAWING_
 100
AcDbVertex
 100
AcDb2dVertex
 10
-6.837
 20
0.121
  0
VERTEX
  5
4E5
 100
AcDbEntity
  8
_THROUGH_HOLE_DRILL_DRAWING_
 100
AcDbVertex
 100
AcDb2dVertex
 10
-6.837
 20
0.121
 40
0.127
 41
0.127
  0
VERTEX
  5
4E6
 100
AcDbEntity
  8
_THROUGH_HOLE_DRILL_DRAWING_
 100
AcDbVertex
 100
AcDb2dVertex
 10
-6.837
 20
-0.776
 40
0.127
 41
0.127
  0
VERTEX
  5
4E7
 100
AcDbEntity
  8
_THROUGH_HOLE_DRILL_DRAWING_
 100
AcDbVertex
 100
AcDb2dVertex
 10
-6.837
 20
-0.776
  0
VERTEX
  5
4E8
 100
AcDbEntity
  8
_THROUGH_HOLE_DRILL_DRAWING_
 100
AcDbVertex
 100
AcDb2dVertex
 10
-6.837
 20
-0.776
 40
0.064
 41
0.064
  0
VERTEX
  5
4E9
 100
AcDbEntity
  8
_THROUGH_HOLE_DRILL_DRAWING_
 100
AcDbVertex
 100
AcDb2dVertex
 10
-6.868
 20
-0.776
 40
0.064
 41
0.064
 42
1.00000
  0
VERTEX
  5
4EA
 100
AcDbEntity
  8
_THROUGH_HOLE_DRILL_DRAWING_
 100
AcDbVertex
 100
AcDb2dVertex
 10
-6.805
 20
-0.776
  0
SEQEND
  5
4EB
 100
AcDbEntity
  8
_THROUGH_HOLE_DRILL_DRAWING_
  0
POLYLINE
  5
4EC
 100
AcDbEntity
  8
_THROUGH_HOLE_DRILL_DRAWING_
 100
AcDb2dPolyline
 66
     1
 10
0.000
 20
0.000
 40
0.000
 41
0.000
  0
VERTEX
  5
4ED
 100
AcDbEntity
  8
_THROUGH_HOLE_DRILL_DRAWING_
 100
AcDbVertex
 100
AcDb2dVertex
 10
-6.837
 20
-0.744
 40
0.064
 41
0.064
 42
1.00000
  0
VERTEX
  5
4EE
 100
AcDbEntity
  8
_THROUGH_HOLE_DRILL_DRAWING_
 100
AcDbVertex
 100
AcDb2dVertex
 10
-6.837
 20
-0.808
  0
VERTEX
  5
4EF
 100
AcDbEntity
  8
_THROUGH_HOLE_DRILL_DRAWING_
 100
AcDbVertex
 100
AcDb2dVertex
 10
-6.837
 20
-0.776
  0
VERTEX
  5
4F0
 100
AcDbEntity
  8
_THROUGH_HOLE_DRILL_DRAWING_
 100
AcDbVertex
 100
AcDb2dVertex
 10
-6.837
 20
-0.776
 40
0.127
 41
0.127
  0
VERTEX
  5
4F1
 100
AcDbEntity
  8
_THROUGH_HOLE_DRILL_DRAWING_
 100
AcDbVertex
 100
AcDb2dVertex
 10
-6.089
 20
-0.776
 40
0.127
 41
0.127
  0
VERTEX
  5
4F2
 100
AcDbEntity
  8
_THROUGH_HOLE_DRILL_DRAWING_
 100
AcDbVertex
 100
AcDb2dVertex
 10
-6.089
 20
-0.776
  0
VERTEX
  5
4F3
 100
AcDbEntity
  8
_THROUGH_HOLE_DRILL_DRAWING_
 100
AcDbVertex
 100
AcDb2dVertex
 10
-6.089
 20
-0.776
 40
0.064
 41
0.064
  0
VERTEX
  5
4F4
 100
AcDbEntity
  8
_THROUGH_HOLE_DRILL_DRAWING_
 100
AcDbVertex
 100
AcDb2dVertex
 10
-6.089
 20
-0.808
 40
0.064
 41
0.064
 42
1.00000
  0
VERTEX
  5
4F5
 100
AcDbEntity
  8
_THROUGH_HOLE_DRILL_DRAWING_
 100
AcDbVertex
 100
AcDb2dVertex
 10
-6.089
 20
-0.744
  0
SEQEND
  5
4F6
 100
AcDbEntity
  8
_THROUGH_HOLE_DRILL_DRAWING_
  0
ENDSEC
  0
SECTION
  2
OBJECTS
  0
DICTIONARY
  5
4F7
 100
AcDbDictionary
  3
ACAD_GROUP
 350
4F8
  3
ACAD_MLINESTYLE
 350
4F9
  0
DICTIONARY
  5
4F8
 102
{ACAD_REACTORS
 330
4F7
 102
}
 100
AcDbDictionary
  0
DICTIONARY
  5
4F9
 102
{ACAD_REACTORS
 330
4F7
 102
}
 100
AcDbDictionary
  3
STANDARD
 350
4FA
  0
MLINESTYLE
  5
4FA
 102
{ACAD_REACTORS
 330
4F9
 102
}
 100
AcDbMlineStyle
  2
STANDARD
 70
     0
  3

 62
    256
 51
90.00000
 52
90.00000
 71
     2
 49
0.50000
 62
    256
  6
BYLAYER
 49
-0.50000
 62
    256
  6
BYLAYER
  0
ENDSEC
  0
EOF
