G04 GENERATED BY PULSONIX 10.0 GERBER.DLL 7250*
G04 #@! TF.GenerationSoftware,Pulsonix,Pulsonix,10.0.7250*
G04 #@! TF.CreationDate,2019-09-12T07:48:15--1:00*
G04 #@! TF.Part,Single*
%FSLAX25Y25*%
%LPD*%
%MOIN*%
G04 #@! TF.FileFunction,Soldermask,Bot*
G04 #@! TF.FilePolarity,Negative*
G04 #@! TA.AperFunction,SMDPad*
%AMT71*0 Rounded Rectangle pad*4,1,36,0.01382,0.02760,-0.01382,0.02760,-0.01536,0.02745,-0.01683,0.02700,-0.01820,0.02627,-0.01939,0.02529,-0.02037,0.02410,-0.02110,0.02274,-0.02154,0.02126,-0.02170,0.01973,-0.02170,-0.01973,-0.02154,-0.02126,-0.02110,-0.02274,-0.02037,-0.02410,-0.01939,-0.02529,-0.01820,-0.02627,-0.01683,-0.02700,-0.01536,-0.02745,-0.01382,-0.02760,0.01382,-0.02760,0.01536,-0.02745,0.01683,-0.02700,0.01820,-0.02627,0.01939,-0.02529,0.02037,-0.02410,0.02110,-0.02274,0.02154,-0.02126,0.02169,-0.01973,0.02169,0.01973,0.02154,0.02126,0.02110,0.02274,0.02037,0.02410,0.01939,0.02529,0.01820,0.02627,0.01683,0.02700,0.01536,0.02745,0.01382,0.02760,0*%
%ADD71T71*%
G04 #@! TD.AperFunction*
%ADD86C,0.00500*%
%ADD94C,0.00001*%
G04 #@! TA.AperFunction,ComponentPad*
%ADD101C,0.07874X0.04331*%
%ADD112C,0.09449X0.04724*%
G04 #@! TA.AperFunction,NonMaterial*
%ADD120C,0.00100*%
G04 #@! TA.AperFunction,ComponentPad*
%ADD135C,0.05591X0.02795*%
%ADD136C,0.07087X0.03543*%
G04 #@! TA.AperFunction,WasherPad*
%ADD154C,0.23622X0.12205*%
G04 #@! TA.AperFunction,SMDPad*
%AMT156*0 Rounded Rectangle pad*4,1,48,-0.19685,0.00394,-0.19685,-0.00394,-0.19671,-0.00590,-0.19629,-0.00782,-0.19561,-0.00966,-0.19466,-0.01139,-0.19349,-0.01296,-0.19209,-0.01435,-0.19052,-0.01553,-0.18880,-0.01647,-0.18695,-0.01716,-0.18503,-0.01758,-0.18307,-0.01772,0.18307,-0.01772,0.18503,-0.01758,0.18695,-0.01716,0.18880,-0.01647,0.19052,-0.01553,0.19209,-0.01435,0.19349,-0.01296,0.19466,-0.01139,0.19561,-0.00966,0.19629,-0.00782,0.19671,-0.00590,0.19685,-0.00394,0.19685,0.00394,0.19671,0.00590,0.19629,0.00782,0.19561,0.00966,0.19466,0.01139,0.19349,0.01296,0.19209,0.01435,0.19052,0.01553,0.18880,0.01647,0.18695,0.01716,0.18503,0.01758,0.18307,0.01772,-0.18307,0.01772,-0.18503,0.01758,-0.18695,0.01716,-0.18880,0.01647,-0.19052,0.01553,-0.19209,0.01435,-0.19349,0.01296,-0.19466,0.01139,-0.19561,0.00966,-0.19629,0.00782,-0.19671,0.00590,-0.19685,0.00394,0*%
%ADD156T156*%
G04 #@! TA.AperFunction,ComponentPad*
%ADD157C,0.05910X0.03543*%
%ADD159C,0.06299X0.03150*%
%ADD160C,0.07874X0.03937*%
%ADD161C,0.07087X0.04291*%
%ADD162C,0.19291X0.12008*%
%ADD163C,0.07874X0.04016*%
%AMT168*0 Rounded Rectangle pad*4,1,76,0.00039,0.09055,-0.00039,0.09055,-0.00379,0.09040,-0.00716,0.08996,-0.01048,0.08922,-0.01372,0.08820,-0.01687,0.08690,-0.01988,0.08533,-0.02275,0.08350,-0.02545,0.08143,-0.02795,0.07914,-0.03025,0.07663,-0.03232,0.07393,-0.03415,0.07106,-0.03572,0.06805,-0.03702,0.06491,-0.03804,0.06166,-0.03878,0.05834,-0.03922,0.05497,-0.03937,0.05157,-0.03937,-0.05157,-0.03922,-0.05497,-0.03878,-0.05834,-0.03804,-0.06166,-0.03702,-0.06491,-0.03572,-0.06805,-0.03415,-0.07106,-0.03232,-0.07393,-0.03025,-0.07663,-0.02795,-0.07914,-0.02545,-0.08143,-0.02275,-0.08350,-0.01988,-0.08533,-0.01687,-0.08690,-0.01372,-0.08820,-0.01048,-0.08922,-0.00716,-0.08996,-0.00379,-0.09040,-0.00039,-0.09055,0.00039,-0.09055,0.00379,-0.09040,0.00716,-0.08996,0.01048,-0.08922,0.01372,-0.08820,0.01687,-0.08690,0.01988,-0.08533,0.02275,-0.08350,0.02545,-0.08143,0.02795,-0.07914,0.03025,-0.07663,0.03232,-0.07393,0.03415,-0.07106,0.03572,-0.06805,0.03702,-0.06491,0.03804,-0.06166,0.03878,-0.05834,0.03922,-0.05497,0.03937,-0.05157,0.03937,0.05157,0.03922,0.05497,0.03878,0.05834,0.03804,0.06166,0.03702,0.06491,0.03572,0.06805,0.03415,0.07106,0.03232,0.07393,0.03025,0.07663,0.02795,0.07914,0.02545,0.08143,0.02275,0.08350,0.01988,0.08533,0.01687,0.08690,0.01372,0.08820,0.01048,0.08922,0.00716,0.08996,0.00379,0.09040,0.00039,0.09055,0*%
%ADD168T168*%
%AMT169*0 Rounded Rectangle pad*4,1,48,-0.13386,0.03740,-0.13386,-0.03740,-0.13372,-0.03936,-0.13330,-0.04128,-0.13261,-0.04313,-0.13167,-0.04485,-0.13049,-0.04643,-0.12910,-0.04782,-0.12753,-0.04899,-0.12580,-0.04994,-0.12396,-0.05062,-0.12204,-0.05104,-0.12008,-0.05118,0.12008,-0.05118,0.12204,-0.05104,0.12396,-0.05062,0.12580,-0.04994,0.12753,-0.04899,0.12910,-0.04782,0.13049,-0.04643,0.13167,-0.04485,0.13261,-0.04313,0.13330,-0.04128,0.13372,-0.03936,0.13386,-0.03740,0.13386,0.03740,0.13372,0.03936,0.13330,0.04128,0.13261,0.04313,0.13167,0.04485,0.13049,0.04643,0.12910,0.04782,0.12753,0.04899,0.12580,0.04994,0.12396,0.05062,0.12204,0.05104,0.12008,0.05118,-0.12008,0.05118,-0.12204,0.05104,-0.12396,0.05062,-0.12580,0.04994,-0.12753,0.04899,-0.12910,0.04782,-0.13049,0.04643,-0.13167,0.04485,-0.13261,0.04313,-0.13330,0.04128,-0.13372,0.03936,-0.13386,0.03740,0*%
%ADD169T169*%
%AMT186*0 Rounded Rectangle pad*4,1,56,0.02756,0.10433,-0.02756,0.10433,-0.02993,0.10419,-0.03227,0.10376,-0.03454,0.10305,-0.03671,0.10208,-0.03874,0.10085,-0.04061,0.09938,-0.04229,0.09770,-0.04376,0.09583,-0.04499,0.09379,-0.04596,0.09163,-0.04667,0.08936,-0.04710,0.08702,-0.04724,0.08465,-0.04724,-0.08465,-0.04710,-0.08702,-0.04667,-0.08936,-0.04596,-0.09163,-0.04499,-0.09379,-0.04376,-0.09583,-0.04229,-0.09770,-0.04061,-0.09938,-0.03874,-0.10085,-0.03671,-0.10208,-0.03454,-0.10305,-0.03227,-0.10376,-0.02993,-0.10419,-0.02756,-0.10433,0.02756,-0.10433,0.02993,-0.10419,0.03227,-0.10376,0.03454,-0.10305,0.03671,-0.10208,0.03874,-0.10085,0.04061,-0.09938,0.04229,-0.09770,0.04376,-0.09583,0.04499,-0.09379,0.04596,-0.09163,0.04667,-0.08936,0.04710,-0.08702,0.04724,-0.08465,0.04724,0.08465,0.04710,0.08702,0.04667,0.08936,0.04596,0.09163,0.04499,0.09379,0.04376,0.09583,0.04229,0.09770,0.04061,0.09938,0.03874,0.10085,0.03671,0.10208,0.03454,0.10305,0.03227,0.10376,0.02993,0.10419,0.02756,0.10433,0*%
%ADD186T186*%
%ADD188C,0.11811X0.05906*%
%ADD190C,0.09055X0.04528*%
%ADD191C,0.11811X0.07283*%
%ADD192C,0.14764X0.07283*%
%ADD193C,0.05512X0.02756*%
G04 #@! TA.AperFunction,SMDPad*
%AMT215*0 Rounded Rectangle pad*4,1,36,-0.01382,-0.02760,0.01382,-0.02760,0.01536,-0.02745,0.01683,-0.02700,0.01820,-0.02627,0.01939,-0.02529,0.02037,-0.02410,0.02110,-0.02274,0.02154,-0.02126,0.02170,-0.01973,0.02170,0.01973,0.02154,0.02126,0.02110,0.02274,0.02037,0.02410,0.01939,0.02529,0.01820,0.02627,0.01683,0.02700,0.01536,0.02745,0.01382,0.02760,-0.01382,0.02760,-0.01536,0.02745,-0.01683,0.02700,-0.01820,0.02627,-0.01939,0.02529,-0.02037,0.02410,-0.02110,0.02274,-0.02154,0.02126,-0.02169,0.01973,-0.02169,-0.01973,-0.02154,-0.02126,-0.02110,-0.02274,-0.02037,-0.02410,-0.01939,-0.02529,-0.01820,-0.02627,-0.01683,-0.02700,-0.01536,-0.02745,-0.01382,-0.02760,0*%
%ADD215T215*%
%AMT217*0 Rounded Rectangle pad*4,1,36,0.01382,0.02760,-0.01382,0.02760,-0.01536,0.02745,-0.01683,0.02700,-0.01820,0.02627,-0.01939,0.02529,-0.02037,0.02410,-0.02110,0.02274,-0.02154,0.02126,-0.02170,0.01973,-0.02170,-0.01973,-0.02154,-0.02126,-0.02110,-0.02274,-0.02037,-0.02410,-0.01939,-0.02529,-0.01820,-0.02627,-0.01683,-0.02700,-0.01536,-0.02745,-0.01382,-0.02760,0.01382,-0.02760,0.01536,-0.02745,0.01683,-0.02700,0.01820,-0.02627,0.01939,-0.02529,0.02037,-0.02410,0.02110,-0.02274,0.02154,-0.02126,0.02169,-0.01973,0.02169,0.01973,0.02154,0.02126,0.02110,0.02274,0.02037,0.02410,0.01939,0.02529,0.01820,0.02627,0.01683,0.02700,0.01536,0.02745,0.01382,0.02760,0*%
%ADD217T217*%
G04 #@! TA.AperFunction,WasherPad*
%ADD255C,0.27559X0.13780*%
G04 #@! TA.AperFunction,ComponentPad*
%ADD270C,0.05906X0.02953*%
G04 #@! TA.AperFunction,SMDPad*
%AMT275*0 Rounded Rectangle pad*4,1,36,0.02760,-0.01382,0.02760,0.01382,0.02745,0.01536,0.02700,0.01683,0.02627,0.01820,0.02529,0.01939,0.02410,0.02037,0.02274,0.02110,0.02126,0.02154,0.01973,0.02170,-0.01973,0.02170,-0.02126,0.02154,-0.02274,0.02110,-0.02410,0.02037,-0.02529,0.01939,-0.02627,0.01820,-0.02700,0.01683,-0.02745,0.01536,-0.02760,0.01382,-0.02760,-0.01382,-0.02745,-0.01536,-0.02700,-0.01683,-0.02627,-0.01820,-0.02529,-0.01939,-0.02410,-0.02037,-0.02274,-0.02110,-0.02126,-0.02154,-0.01973,-0.02169,0.01973,-0.02169,0.02126,-0.02154,0.02274,-0.02110,0.02410,-0.02037,0.02529,-0.01939,0.02627,-0.01820,0.02700,-0.01683,0.02745,-0.01536,0.02760,-0.01382,0*%
%ADD275T275*%
%AMT276*0 Rounded Rectangle pad*4,1,36,-0.00974,0.02929,-0.02929,0.00974,-0.03027,0.00855,-0.03100,0.00719,-0.03144,0.00571,-0.03160,0.00417,-0.03144,0.00264,-0.03100,0.00116,-0.03027,-0.00020,-0.02929,-0.00139,-0.00139,-0.02929,-0.00020,-0.03027,0.00116,-0.03100,0.00264,-0.03144,0.00418,-0.03160,0.00571,-0.03144,0.00719,-0.03100,0.00855,-0.03027,0.00974,-0.02929,0.02929,-0.00974,0.03027,-0.00855,0.03100,-0.00719,0.03144,-0.00571,0.03159,-0.00418,0.03144,-0.00264,0.03100,-0.00116,0.03027,0.00020,0.02929,0.00139,0.00139,0.02929,0.00020,0.03027,-0.00116,0.03100,-0.00264,0.03144,-0.00418,0.03159,-0.00571,0.03144,-0.00719,0.03100,-0.00855,0.03027,-0.00974,0.02929,0*%
%ADD276T276*%
X0Y0D02*
D02*
D71*
X508103Y239952D03*
X514993D03*
X796491Y201785D03*
X797343Y271700D03*
X803381Y201785D03*
X804233Y271700D03*
D02*
D86*
X202745Y41763D02*
X202745Y39705D01*
X202451Y39411*
X201863*
X201569Y39705*
Y40587*
Y39705D02*
X201275Y39411D01*
X200686*
X200392Y39705*
Y41763*
X199345D02*
X199345Y39705D01*
X199051Y39411*
X198463*
X198169Y39705*
Y40587*
Y39705D02*
X197875Y39411D01*
X197286*
X196992Y39705*
Y41763*
X195945D02*
X195945Y39705D01*
X195651Y39411*
X195063*
X194769Y39705*
Y40587*
Y39705D02*
X194475Y39411D01*
X193886*
X193592Y39705*
Y41763*
X192251Y39411D02*
X191957Y39705D01*
X192251Y39999*
X192545Y39705*
X192251Y39411*
X190995Y41469D02*
X190407Y41763D01*
X189525*
X188936Y41469*
X188642Y40881*
Y39999*
X188936Y39705*
X189525Y39411*
X190113*
X190701Y39705*
X190995Y39999*
Y40293*
X190701Y40587*
X190113Y40881*
X189525*
X188936Y40587*
X188642Y40293*
Y39999D02*
X188642Y39411D01*
X187595D02*
X187595Y41763D01*
Y41469D02*
X187301Y41763D01*
X186713*
X186419Y41469*
Y40587*
Y41469D02*
X186125Y41763D01*
X185536*
X185242Y41469*
Y39411*
X184195D02*
X184195Y41763D01*
Y42646D02*
X184196Y42647D01*
X179692Y40881D02*
X179986Y41469D01*
X180575Y41763*
X181163*
X181751Y41469*
X182045Y40881*
Y40587*
X181751Y39999*
X181163Y39705*
X180575*
X179986Y39999*
X179692Y40587*
Y41763D02*
X179692Y39411D01*
X179986Y38822*
X180575Y38528*
X181457*
X182045Y38822*
X178645Y41469D02*
X178057Y41763D01*
X177175*
X176586Y41469*
X176292Y40881*
Y39999*
X176586Y39705*
X177175Y39411*
X177763*
X178351Y39705*
X178645Y39999*
Y40293*
X178351Y40587*
X177763Y40881*
X177175*
X176586Y40587*
X176292Y40293*
Y39999D02*
X176292Y39411D01*
X172892Y41469D02*
X173480Y41763D01*
X174363*
X174951Y41469*
X175245Y40881*
Y40293*
X174951Y39705*
X174363Y39411*
X173480*
X172892Y39705*
X171551Y39411D02*
X171845Y39411D01*
Y42940*
X170595Y41763D02*
X170595Y40293D01*
X170301Y39705*
X169713Y39411*
X169125*
X168536Y39705*
X168242Y40293*
Y41763D02*
X168242Y39411D01*
X167195Y40293D02*
X166901Y39705D01*
X166313Y39411*
X165725*
X165136Y39705*
X164842Y40293*
Y40881*
X165136Y41469*
X165725Y41763*
X166313*
X166901Y41469*
X167195Y40881*
Y39411D02*
X167195Y42940D01*
X163501Y39411D02*
X163207Y39705D01*
X163501Y39999*
X163795Y39705*
X163501Y39411*
X162245Y40293D02*
X161951Y39705D01*
X161363Y39411*
X160775*
X160186Y39705*
X159892Y40293*
Y40881*
X160186Y41469*
X160775Y41763*
X161363*
X161951Y41469*
X162245Y40881*
Y39411D02*
X162245Y42940D01*
X156492Y39705D02*
X156786Y39411D01*
X157375*
X157963*
X158551Y39705*
X158845Y40293*
Y41175*
X158551Y41469*
X157963Y41763*
X157375*
X156786Y41469*
X156492Y41175*
Y40881*
X156786Y40587*
X157375Y40293*
X157963*
X158551Y40587*
X158845Y40881*
D02*
D94*
X158846Y40882D02*
X275543Y281906D02*
G36*
X275558Y281775D01*
X275601Y281650D01*
X275672Y281538D01*
X275765Y281444D01*
X275877Y281374D01*
X276002Y281330D01*
X276133Y281315D01*
X276265Y281330D01*
X276390Y281374D01*
X276502Y281444D01*
X276595Y281538D01*
X276665Y281650D01*
X276709Y281775D01*
X276724Y281906D01*
X276709Y282037D01*
X276665Y282162D01*
X276595Y282274D01*
X276502Y282368D01*
X276390Y282438D01*
X276265Y282482D01*
X276133Y282497D01*
X276002Y282482D01*
X275877Y282438D01*
X275765Y282368D01*
X275672Y282274D01*
X275601Y282162D01*
X275558Y282037D01*
X275543Y281906D01*
G37*
X275544Y281907D02*
X462980Y68970D02*
G36*
X462995Y68838D01*
X463039Y68713D01*
X463109Y68601D01*
X463202Y68508D01*
X463314Y68438D01*
X463439Y68394D01*
X463571Y68379D01*
X463702Y68394D01*
X463827Y68437D01*
X463939Y68508D01*
X464032Y68601D01*
X464103Y68713D01*
X464146Y68838D01*
X464161Y68970D01*
X464146Y69101D01*
X464103Y69226D01*
X464032Y69338D01*
X463939Y69431D01*
X463827Y69502D01*
X463702Y69545D01*
X463571Y69560D01*
X463439Y69545D01*
X463314Y69502D01*
X463203Y69431D01*
X463109Y69338D01*
X463039Y69226D01*
X462995Y69101D01*
X462980Y68970D01*
G37*
X462981Y68971D02*
X463384Y126819D02*
G36*
X463399Y126688D01*
X463443Y126563D01*
X463513Y126451D01*
X463606Y126357D01*
X463718Y126287D01*
X463843Y126243D01*
X463975Y126229D01*
X464106Y126243D01*
X464231Y126287D01*
X464343Y126357D01*
X464436Y126451D01*
X464507Y126563D01*
X464550Y126688D01*
X464565Y126819D01*
X464550Y126951D01*
X464507Y127075D01*
X464436Y127187D01*
X464343Y127281D01*
X464231Y127351D01*
X464106Y127395D01*
X463975Y127410D01*
X463843Y127395D01*
X463719Y127351D01*
X463607Y127281D01*
X463513Y127187D01*
X463443Y127075D01*
X463399Y126951D01*
X463384Y126819D01*
G37*
X463385Y126820D02*
X464872Y209703D02*
G36*
X464887Y209572D01*
X464930Y209447D01*
X465001Y209335D01*
X465094Y209242D01*
X465206Y209171D01*
X465331Y209128D01*
X465462Y209113D01*
X465594Y209128D01*
X465718Y209171D01*
X465830Y209242D01*
X465924Y209335D01*
X465994Y209447D01*
X466038Y209572D01*
X466053Y209703D01*
X466038Y209835D01*
X465994Y209960D01*
X465924Y210072D01*
X465831Y210165D01*
X465719Y210236D01*
X465594Y210279D01*
X465462Y210294D01*
X465331Y210279D01*
X465206Y210236D01*
X465094Y210165D01*
X465001Y210072D01*
X464930Y209960D01*
X464887Y209835D01*
X464872Y209703D01*
G37*
X464873Y209704D02*
X466927Y347267D02*
G36*
X466942Y347136D01*
X466985Y347011D01*
X467056Y346899D01*
X467149Y346806D01*
X467261Y346735D01*
X467386Y346692D01*
X467517Y346677D01*
X467649Y346692D01*
X467774Y346735D01*
X467886Y346806D01*
X467979Y346899D01*
X468050Y347011D01*
X468093Y347136D01*
X468108Y347267D01*
X468093Y347399D01*
X468050Y347524D01*
X467979Y347636D01*
X467886Y347729D01*
X467774Y347799D01*
X467649Y347843D01*
X467518Y347858D01*
X467386Y347843D01*
X467261Y347799D01*
X467149Y347729D01*
X467056Y347636D01*
X466986Y347524D01*
X466942Y347399D01*
X466927Y347267D01*
G37*
X466928Y347268D02*
X468222Y422747D02*
G36*
X468237Y422616D01*
X468280Y422491D01*
X468351Y422379D01*
X468444Y422286D01*
X468556Y422215D01*
X468681Y422172D01*
X468812Y422157D01*
X468944Y422172D01*
X469068Y422215D01*
X469180Y422286D01*
X469274Y422379D01*
X469344Y422491D01*
X469388Y422616D01*
X469403Y422747D01*
X469388Y422879D01*
X469344Y423004D01*
X469274Y423115D01*
X469181Y423209D01*
X469069Y423279D01*
X468944Y423323D01*
X468812Y423338D01*
X468681Y423323D01*
X468556Y423279D01*
X468444Y423209D01*
X468351Y423116D01*
X468280Y423004D01*
X468237Y422879D01*
X468222Y422747D01*
G37*
X468223Y422748D02*
X569672Y578876D02*
G36*
X569687Y578744D01*
X569730Y578619D01*
X569801Y578507D01*
X569894Y578414D01*
X570006Y578343D01*
X570131Y578300D01*
X570263Y578285D01*
X570394Y578300D01*
X570519Y578343D01*
X570631Y578414D01*
X570724Y578507D01*
X570795Y578619D01*
X570838Y578744D01*
X570853Y578876D01*
X570838Y579007D01*
X570795Y579132D01*
X570724Y579244D01*
X570631Y579337D01*
X570519Y579408D01*
X570394Y579451D01*
X570263Y579466D01*
X570131Y579451D01*
X570006Y579408D01*
X569894Y579337D01*
X569801Y579244D01*
X569731Y579132D01*
X569687Y579007D01*
X569672Y578876D01*
G37*
X569673Y578877D02*
X582318Y492424D02*
G36*
X582333Y492292D01*
X582376Y492167D01*
X582447Y492055D01*
X582540Y491962D01*
X582652Y491891D01*
X582777Y491848D01*
X582908Y491833D01*
X583040Y491848D01*
X583165Y491891D01*
X583277Y491962D01*
X583370Y492055D01*
X583440Y492167D01*
X583484Y492292D01*
X583499Y492424D01*
X583484Y492555D01*
X583441Y492680D01*
X583370Y492792D01*
X583277Y492885D01*
X583165Y492956D01*
X583040Y492999D01*
X582908Y493014D01*
X582777Y492999D01*
X582652Y492956D01*
X582540Y492885D01*
X582447Y492792D01*
X582376Y492680D01*
X582333Y492555D01*
X582318Y492424D01*
G37*
X582319Y492425D02*
X589737Y301901D02*
G36*
X589752Y301770D01*
X589795Y301645D01*
X589866Y301533D01*
X589959Y301440D01*
X590071Y301369D01*
X590196Y301326D01*
X590328Y301311D01*
X590459Y301326D01*
X590584Y301369D01*
X590696Y301440D01*
X590789Y301533D01*
X590860Y301645D01*
X590903Y301770D01*
X590918Y301901D01*
X590903Y302033D01*
X590860Y302158D01*
X590789Y302270D01*
X590696Y302363D01*
X590584Y302434D01*
X590459Y302477D01*
X590328Y302492D01*
X590196Y302477D01*
X590071Y302434D01*
X589959Y302363D01*
X589866Y302270D01*
X589796Y302158D01*
X589752Y302033D01*
X589737Y301901D01*
G37*
X589738Y301902D02*
X607438Y578477D02*
G36*
X607453Y578345D01*
X607497Y578221D01*
X607567Y578109D01*
X607661Y578015D01*
X607773Y577945D01*
X607897Y577901D01*
X608029Y577886D01*
X608160Y577901D01*
X608285Y577945D01*
X608397Y578015D01*
X608491Y578109D01*
X608561Y578221D01*
X608605Y578345D01*
X608619Y578477D01*
X608605Y578608D01*
X608561Y578733D01*
X608491Y578845D01*
X608397Y578939D01*
X608285Y579009D01*
X608160Y579053D01*
X608029Y579067D01*
X607898Y579053D01*
X607773Y579009D01*
X607661Y578939D01*
X607567Y578845D01*
X607497Y578733D01*
X607453Y578608D01*
X607438Y578477D01*
G37*
X607439Y578478D02*
X614041Y400763D02*
G36*
X614055Y400631D01*
X614099Y400507D01*
X614169Y400395D01*
X614263Y400301D01*
X614375Y400231D01*
X614500Y400187D01*
X614631Y400172D01*
X614763Y400187D01*
X614887Y400231D01*
X614999Y400301D01*
X615093Y400395D01*
X615163Y400507D01*
X615207Y400631D01*
X615222Y400763D01*
X615207Y400894D01*
X615163Y401019D01*
X615093Y401131D01*
X614999Y401225D01*
X614887Y401295D01*
X614763Y401339D01*
X614631Y401353D01*
X614500Y401339D01*
X614375Y401295D01*
X614263Y401225D01*
X614169Y401131D01*
X614099Y401019D01*
X614055Y400894D01*
X614041Y400763D01*
G37*
X614042Y400764D02*
X614620Y325189D02*
G36*
X614635Y325058D01*
X614679Y324933D01*
X614749Y324821D01*
X614842Y324728D01*
X614954Y324657D01*
X615079Y324614D01*
X615211Y324599D01*
X615342Y324614D01*
X615467Y324657D01*
X615579Y324728D01*
X615672Y324821D01*
X615743Y324933D01*
X615786Y325058D01*
X615801Y325189D01*
X615786Y325321D01*
X615743Y325446D01*
X615672Y325557D01*
X615579Y325651D01*
X615467Y325721D01*
X615342Y325765D01*
X615211Y325780D01*
X615079Y325765D01*
X614955Y325721D01*
X614843Y325651D01*
X614749Y325558D01*
X614679Y325446D01*
X614635Y325321D01*
X614620Y325189D01*
G37*
X614621Y325190D02*
X696981Y382475D02*
G36*
X696996Y382344D01*
X697039Y382219D01*
X697110Y382107D01*
X697203Y382014D01*
X697315Y381943D01*
X697440Y381900D01*
X697571Y381885D01*
X697703Y381900D01*
X697828Y381943D01*
X697940Y382014D01*
X698033Y382107D01*
X698104Y382219D01*
X698147Y382344D01*
X698162Y382475D01*
X698147Y382607D01*
X698104Y382732D01*
X698033Y382844D01*
X697940Y382937D01*
X697828Y383007D01*
X697703Y383051D01*
X697572Y383066D01*
X697440Y383051D01*
X697315Y383007D01*
X697203Y382937D01*
X697110Y382844D01*
X697039Y382732D01*
X696996Y382607D01*
X696981Y382475D01*
G37*
X696982Y382476D02*
X848744Y420793D02*
G36*
X848758Y420662D01*
X848802Y420537D01*
X848872Y420425D01*
X848966Y420332D01*
X849078Y420261D01*
X849203Y420218D01*
X849334Y420203D01*
X849465Y420218D01*
X849590Y420261D01*
X849702Y420332D01*
X849796Y420425D01*
X849866Y420537D01*
X849910Y420662D01*
X849925Y420793D01*
X849910Y420925D01*
X849866Y421050D01*
X849796Y421161D01*
X849702Y421255D01*
X849590Y421325D01*
X849466Y421369D01*
X849334Y421384D01*
X849203Y421369D01*
X849078Y421325D01*
X848966Y421255D01*
X848872Y421162D01*
X848802Y421050D01*
X848758Y420925D01*
X848744Y420793D01*
G37*
X848745Y420794D02*
X900272Y619634D02*
G36*
X900287Y619503D01*
X900331Y619378D01*
X900401Y619266D01*
X900494Y619172D01*
X900606Y619102D01*
X900731Y619058D01*
X900863Y619044D01*
X900994Y619058D01*
X901119Y619102D01*
X901231Y619172D01*
X901324Y619266D01*
X901395Y619378D01*
X901438Y619503D01*
X901453Y619634D01*
X901438Y619766D01*
X901395Y619890D01*
X901324Y620002D01*
X901231Y620096D01*
X901119Y620166D01*
X900994Y620210D01*
X900863Y620225D01*
X900731Y620210D01*
X900606Y620166D01*
X900494Y620096D01*
X900401Y620002D01*
X900331Y619890D01*
X900287Y619766D01*
X900272Y619634D01*
G37*
X900273Y619635D02*
X1032033Y667664D02*
G36*
X1032048Y667533D01*
X1032092Y667408D01*
X1032162Y667296D01*
X1032256Y667203D01*
X1032368Y667132D01*
X1032492Y667089D01*
X1032624Y667074D01*
X1032755Y667089D01*
X1032880Y667132D01*
X1032992Y667203D01*
X1033086Y667296D01*
X1033156Y667408D01*
X1033200Y667533D01*
X1033214Y667664D01*
X1033200Y667796D01*
X1033156Y667920D01*
X1033086Y668032D01*
X1032992Y668126D01*
X1032880Y668196D01*
X1032755Y668240D01*
X1032624Y668255D01*
X1032493Y668240D01*
X1032368Y668196D01*
X1032256Y668126D01*
X1032162Y668032D01*
X1032092Y667921D01*
X1032048Y667796D01*
X1032033Y667664D01*
G37*
X1032034Y667665D02*
X1058623Y535565D02*
G36*
X1058637Y535433D01*
X1058681Y535308D01*
X1058751Y535196D01*
X1058845Y535103D01*
X1058957Y535033D01*
X1059082Y534989D01*
X1059213Y534974D01*
X1059345Y534989D01*
X1059469Y535033D01*
X1059581Y535103D01*
X1059675Y535196D01*
X1059745Y535308D01*
X1059789Y535433D01*
X1059804Y535565D01*
X1059789Y535696D01*
X1059745Y535821D01*
X1059675Y535933D01*
X1059581Y536026D01*
X1059469Y536097D01*
X1059345Y536140D01*
X1059213Y536155D01*
X1059082Y536140D01*
X1058957Y536097D01*
X1058845Y536026D01*
X1058752Y535933D01*
X1058681Y535821D01*
X1058638Y535696D01*
X1058623Y535565D01*
G37*
X1058624Y535566D02*
X1065634Y667630D02*
G36*
X1065649Y667499D01*
X1065692Y667374D01*
X1065763Y667262D01*
X1065856Y667168D01*
X1065968Y667098D01*
X1066093Y667054D01*
X1066224Y667040D01*
X1066356Y667054D01*
X1066481Y667098D01*
X1066593Y667168D01*
X1066686Y667262D01*
X1066756Y667374D01*
X1066800Y667499D01*
X1066815Y667630D01*
X1066800Y667761D01*
X1066757Y667886D01*
X1066686Y667998D01*
X1066593Y668092D01*
X1066481Y668162D01*
X1066356Y668206D01*
X1066225Y668221D01*
X1066093Y668206D01*
X1065968Y668162D01*
X1065856Y668092D01*
X1065763Y667998D01*
X1065692Y667886D01*
X1065649Y667762D01*
X1065634Y667630D01*
G37*
X1065635Y667631D02*
X1082605Y585646D02*
G36*
X1082620Y585514D01*
X1082663Y585389D01*
X1082734Y585277D01*
X1082827Y585184D01*
X1082939Y585113D01*
X1083064Y585070D01*
X1083195Y585055D01*
X1083327Y585070D01*
X1083452Y585113D01*
X1083564Y585184D01*
X1083657Y585277D01*
X1083727Y585389D01*
X1083771Y585514D01*
X1083786Y585646D01*
X1083771Y585777D01*
X1083728Y585902D01*
X1083657Y586014D01*
X1083564Y586107D01*
X1083452Y586178D01*
X1083327Y586221D01*
X1083196Y586236D01*
X1083064Y586221D01*
X1082939Y586178D01*
X1082827Y586107D01*
X1082734Y586014D01*
X1082663Y585902D01*
X1082620Y585777D01*
X1082605Y585646D01*
G37*
X1082606Y585647D02*
X1166802Y492837D02*
G36*
X1166817Y492706D01*
X1166860Y492581D01*
X1166931Y492469D01*
X1167024Y492375D01*
X1167136Y492305D01*
X1167261Y492261D01*
X1167392Y492246D01*
X1167524Y492261D01*
X1167649Y492305D01*
X1167761Y492375D01*
X1167854Y492469D01*
X1167924Y492581D01*
X1167968Y492706D01*
X1167983Y492837D01*
X1167968Y492968D01*
X1167925Y493093D01*
X1167854Y493205D01*
X1167761Y493299D01*
X1167649Y493369D01*
X1167524Y493413D01*
X1167393Y493428D01*
X1167261Y493413D01*
X1167136Y493369D01*
X1167024Y493299D01*
X1166931Y493205D01*
X1166860Y493093D01*
X1166817Y492968D01*
X1166802Y492837D01*
G37*
D02*
D101*
X95041Y90849D03*
X105041D03*
X115041D03*
X450783Y82053D03*
Y92053D03*
Y102053D03*
X579892Y118561D03*
X589892D03*
X599892D03*
X954443Y348825D03*
Y358825D03*
Y368825D03*
D02*
D112*
X837918Y146479D03*
Y226479D03*
X867918Y146479D03*
X877918Y226479D03*
X887918Y146479D03*
X917918Y226479D03*
D02*
D120*
X8921Y53665D02*
X36913D01*
Y60658*
X8921*
Y53665*
X8922Y53666D02*
X8921Y53665D02*
G36*
X36913D01*
Y60658D01*
X8921D01*
Y53665D01*
G37*
D02*
D135*
X176322Y129096D03*
Y136970D03*
Y144844D03*
Y152718D03*
Y160592D03*
Y168466D03*
Y176340D03*
Y184214D03*
Y192088D03*
Y199962D03*
Y207836D03*
Y215641D03*
Y223515D03*
Y231389D03*
Y239263D03*
Y247137D03*
Y255011D03*
Y262885D03*
Y270759D03*
Y278633D03*
Y286507D03*
Y294381D03*
X184196Y129096D03*
Y136970D03*
Y144844D03*
Y152718D03*
Y160592D03*
Y168466D03*
Y176340D03*
Y184214D03*
Y192088D03*
Y199962D03*
Y207836D03*
Y215641D03*
Y223515D03*
Y231389D03*
Y239263D03*
Y247137D03*
Y255011D03*
Y262885D03*
Y270759D03*
Y278633D03*
Y286507D03*
Y294381D03*
X771275Y309729D03*
Y317603D03*
X779149Y309729D03*
Y317603D03*
X787023Y309729D03*
Y317603D03*
X794897Y309729D03*
Y317603D03*
X802771Y309729D03*
Y317603D03*
X810645Y309729D03*
Y317603D03*
X818519Y309729D03*
Y317603D03*
X826393Y309729D03*
Y317603D03*
X834267Y309729D03*
Y317603D03*
X842141Y309729D03*
Y317603D03*
X850016Y309729D03*
Y317603D03*
D02*
D136*
X296988Y52363D03*
Y62363D03*
Y72363D03*
Y82363D03*
Y92363D03*
Y102363D03*
Y112363D03*
Y122363D03*
Y132363D03*
Y142363D03*
Y152363D03*
X303715Y216882D03*
Y226882D03*
Y236882D03*
Y246882D03*
Y256882D03*
Y266882D03*
Y276882D03*
Y286882D03*
Y296882D03*
Y306882D03*
Y316882D03*
X306988Y42363D03*
Y52363D03*
Y62363D03*
Y72363D03*
Y82363D03*
Y92363D03*
Y102363D03*
Y112363D03*
Y122363D03*
Y132363D03*
Y142363D03*
Y152363D03*
Y162363D03*
X307091Y410322D03*
Y420322D03*
Y430322D03*
Y440322D03*
Y450322D03*
Y460322D03*
Y470322D03*
Y480322D03*
Y490322D03*
Y500322D03*
Y510322D03*
X313715Y206882D03*
Y216882D03*
Y226882D03*
Y236882D03*
Y246882D03*
Y256882D03*
Y266882D03*
Y276882D03*
Y286882D03*
Y296882D03*
Y306882D03*
Y316882D03*
Y326882D03*
X316988Y42363D03*
Y52363D03*
Y152363D03*
Y162363D03*
X317091Y400322D03*
Y410322D03*
Y420322D03*
Y430322D03*
Y440322D03*
Y450322D03*
Y460322D03*
Y470322D03*
Y480322D03*
Y490322D03*
Y500322D03*
Y510322D03*
Y520322D03*
X323715Y206882D03*
Y216882D03*
Y316882D03*
Y326882D03*
X326988Y42363D03*
Y52363D03*
Y152363D03*
Y162363D03*
X327091Y400322D03*
Y410322D03*
Y510322D03*
Y520322D03*
X333715Y206882D03*
Y216882D03*
Y316882D03*
Y326882D03*
X336988Y42363D03*
Y52363D03*
Y152363D03*
Y162363D03*
X337091Y400322D03*
Y410322D03*
Y510322D03*
Y520322D03*
X343715Y206882D03*
Y216882D03*
Y316882D03*
Y326882D03*
X346988Y42363D03*
Y52363D03*
Y152363D03*
Y162363D03*
X347091Y400322D03*
Y410322D03*
Y510322D03*
Y520322D03*
X353715Y206882D03*
Y216882D03*
Y316882D03*
Y326882D03*
X356988Y42363D03*
Y52363D03*
Y152363D03*
Y162363D03*
X357091Y400322D03*
Y410322D03*
Y510322D03*
Y520322D03*
X363715Y206882D03*
Y216882D03*
Y316882D03*
Y326882D03*
X366988Y42363D03*
Y52363D03*
Y152363D03*
Y162363D03*
X367091Y400322D03*
Y410322D03*
Y510322D03*
Y520322D03*
X373715Y206882D03*
Y216882D03*
Y316882D03*
Y326882D03*
X376988Y42363D03*
Y52363D03*
Y152363D03*
Y162363D03*
X377091Y400322D03*
Y410322D03*
Y510322D03*
Y520322D03*
X383715Y206882D03*
Y216882D03*
Y316882D03*
Y326882D03*
X386988Y42363D03*
Y52363D03*
Y152363D03*
Y162363D03*
X387091Y400322D03*
Y410322D03*
Y510322D03*
Y520322D03*
X393715Y206882D03*
Y216882D03*
Y316882D03*
Y326882D03*
X396988Y42363D03*
Y52363D03*
Y152363D03*
Y162363D03*
X397091Y400322D03*
Y410322D03*
Y510322D03*
Y520322D03*
X403715Y206882D03*
Y216882D03*
Y316882D03*
Y326882D03*
X406988Y42363D03*
Y52363D03*
Y62363D03*
Y72363D03*
Y82363D03*
Y92363D03*
Y102363D03*
Y112363D03*
Y122363D03*
Y132363D03*
Y142363D03*
Y152363D03*
Y162363D03*
X407091Y400322D03*
Y410322D03*
Y510322D03*
Y520322D03*
X413715Y206882D03*
Y216882D03*
Y226882D03*
Y236882D03*
Y246882D03*
Y256882D03*
Y266882D03*
Y276882D03*
Y286882D03*
Y296882D03*
Y306882D03*
Y316882D03*
Y326882D03*
X416988Y52363D03*
Y62363D03*
Y72363D03*
Y82363D03*
Y92363D03*
Y102363D03*
Y112363D03*
Y122363D03*
Y132363D03*
Y142363D03*
Y152363D03*
X417091Y400322D03*
Y410322D03*
Y420322D03*
Y430322D03*
Y440322D03*
Y450322D03*
Y460322D03*
Y470322D03*
Y480322D03*
Y490322D03*
Y500322D03*
Y510322D03*
Y520322D03*
X423715Y216882D03*
Y226882D03*
Y236882D03*
Y246882D03*
Y256882D03*
Y266882D03*
Y276882D03*
Y286882D03*
Y296882D03*
Y306882D03*
Y316882D03*
X427091Y410322D03*
Y420322D03*
Y430322D03*
Y440322D03*
Y450322D03*
Y460322D03*
Y470322D03*
Y480322D03*
Y490322D03*
Y500322D03*
Y510322D03*
X648591Y330241D03*
Y340241D03*
Y350241D03*
X658591Y320241D03*
Y330241D03*
Y340241D03*
Y350241D03*
Y360241D03*
X668591Y320241D03*
Y330241D03*
Y350241D03*
Y360241D03*
X678591Y320241D03*
Y330241D03*
Y340241D03*
Y350241D03*
Y360241D03*
X688591Y330241D03*
Y340241D03*
Y350241D03*
X715048Y585776D03*
Y595776D03*
Y605776D03*
Y615776D03*
Y625776D03*
Y635776D03*
X725048Y575776D03*
Y585776D03*
Y595776D03*
Y605776D03*
Y615776D03*
Y625776D03*
Y635776D03*
Y645776D03*
X735048Y575776D03*
Y585776D03*
Y635776D03*
Y645776D03*
X745048Y575776D03*
Y585776D03*
Y635776D03*
Y645776D03*
X755048Y575776D03*
Y585776D03*
Y635776D03*
Y645776D03*
X765048Y575776D03*
Y585776D03*
Y635776D03*
Y645776D03*
X775048Y575776D03*
Y585776D03*
Y595776D03*
Y605776D03*
Y615776D03*
Y625776D03*
Y635776D03*
Y645776D03*
X785048Y585776D03*
Y595776D03*
Y605776D03*
Y615776D03*
Y625776D03*
Y635776D03*
X875732Y524456D03*
Y534456D03*
Y544456D03*
Y554456D03*
Y564456D03*
Y574456D03*
Y584456D03*
X885732Y514456D03*
Y524456D03*
Y534456D03*
Y544456D03*
Y554456D03*
Y564456D03*
Y574456D03*
Y584456D03*
Y594456D03*
X895732Y514456D03*
Y524456D03*
Y584456D03*
Y594456D03*
X905732Y514456D03*
Y524456D03*
Y584456D03*
Y594456D03*
X915732Y514456D03*
Y524456D03*
Y584456D03*
Y594456D03*
X925732Y514456D03*
Y524456D03*
Y584456D03*
Y594456D03*
X935732Y514456D03*
Y524456D03*
Y584456D03*
Y594456D03*
X945732Y514456D03*
Y524456D03*
Y534456D03*
Y544456D03*
Y554456D03*
Y564456D03*
Y574456D03*
Y584456D03*
Y594456D03*
X955732Y524456D03*
Y534456D03*
Y544456D03*
Y554456D03*
Y564456D03*
Y574456D03*
Y584456D03*
X1057076Y439321D03*
X1067076D03*
X1077076D03*
X1087076D03*
X1097076D03*
X1104486Y533232D03*
Y543232D03*
Y553232D03*
Y563232D03*
Y573232D03*
Y583232D03*
X1114486Y523232D03*
Y533232D03*
Y543232D03*
Y553232D03*
Y563232D03*
Y573232D03*
Y583232D03*
Y593232D03*
X1124486Y523232D03*
Y533232D03*
Y583232D03*
Y593232D03*
X1134486Y523232D03*
Y533232D03*
Y583232D03*
Y593232D03*
X1144486Y523232D03*
Y533232D03*
Y583232D03*
Y593232D03*
X1154486Y523232D03*
Y533232D03*
Y583232D03*
Y593232D03*
X1164486Y523232D03*
Y533232D03*
Y543232D03*
Y553232D03*
Y563232D03*
Y573232D03*
Y583232D03*
Y593232D03*
X1174486Y533232D03*
Y543232D03*
Y553232D03*
Y563232D03*
Y573232D03*
Y583232D03*
D02*
D154*
X776367Y458571D03*
D02*
D156*
X990757Y13548D03*
Y18548D03*
Y23548D03*
Y28548D03*
Y33548D03*
Y38548D03*
Y43548D03*
Y48548D03*
Y53548D03*
Y58548D03*
Y63548D03*
Y68548D03*
Y73548D03*
Y78548D03*
Y83548D03*
Y88548D03*
Y93548D03*
Y98548D03*
Y103548D03*
Y108548D03*
Y113548D03*
Y118548D03*
Y123548D03*
Y128548D03*
Y133548D03*
Y148548D03*
Y153548D03*
Y158548D03*
Y163548D03*
Y168548D03*
Y173548D03*
Y178548D03*
Y183548D03*
Y188548D03*
Y193548D03*
Y198548D03*
Y203548D03*
Y208548D03*
Y213548D03*
Y218548D03*
Y223548D03*
Y228548D03*
Y233548D03*
Y238548D03*
Y243548D03*
Y248548D03*
Y253548D03*
Y258548D03*
Y263548D03*
Y268548D03*
Y273548D03*
Y278548D03*
Y283548D03*
Y288548D03*
Y293548D03*
Y298548D03*
Y303548D03*
Y308548D03*
Y313548D03*
Y318548D03*
Y323548D03*
Y328548D03*
Y333548D03*
Y338548D03*
Y343548D03*
Y348548D03*
Y353548D03*
Y358548D03*
Y363548D03*
Y368548D03*
Y373548D03*
Y378548D03*
Y383548D03*
Y388548D03*
Y393548D03*
D02*
D157*
X589869Y211799D03*
Y271799D03*
X589920Y141875D03*
Y201875D03*
X599869Y211799D03*
Y271799D03*
X599920Y141875D03*
Y201875D03*
X609869Y211799D03*
Y271799D03*
X609920Y141875D03*
Y201875D03*
X619869Y211799D03*
Y271799D03*
X619920Y141875D03*
Y201875D03*
X629869Y211799D03*
Y271799D03*
X629920Y141875D03*
Y201875D03*
X639869Y211799D03*
Y271799D03*
X639920Y141875D03*
Y201875D03*
X649869Y211799D03*
Y271799D03*
X649920Y141875D03*
Y201875D03*
X659869Y211799D03*
Y271799D03*
X659920Y141875D03*
Y201875D03*
X669869Y211799D03*
Y271799D03*
X669920Y141875D03*
Y201875D03*
X679869Y211799D03*
Y271799D03*
X679920Y141875D03*
Y201875D03*
X689869Y211799D03*
Y271799D03*
X689920Y141875D03*
Y201875D03*
X699869Y211799D03*
Y271799D03*
X699920Y141875D03*
Y201875D03*
X709869Y211799D03*
Y271799D03*
X709920Y141875D03*
Y201875D03*
X719869Y211799D03*
Y271799D03*
X719920Y141875D03*
Y201875D03*
X729869Y211799D03*
Y271799D03*
X729920Y141875D03*
Y201875D03*
X739869Y211799D03*
Y271799D03*
X739920Y141875D03*
Y201875D03*
X749869Y211799D03*
Y271799D03*
X749920Y141875D03*
Y201875D03*
X759869Y211799D03*
Y271799D03*
X759920Y141875D03*
Y201875D03*
X769869Y211799D03*
Y271799D03*
X769920Y141875D03*
Y201875D03*
X779869Y211799D03*
Y271799D03*
X779920Y141875D03*
Y201875D03*
X789869Y211799D03*
Y271799D03*
X789920Y141875D03*
Y201875D03*
D02*
D159*
X528651Y625359D03*
X533572Y617485D03*
X538493Y625359D03*
X543414Y617485D03*
X548336Y625359D03*
X553257Y617485D03*
X558178Y625359D03*
X563099Y617485D03*
X568021Y625359D03*
X572942Y617485D03*
X577863Y625359D03*
X582784Y617485D03*
X587706Y625359D03*
X592627Y617485D03*
X597548Y625359D03*
X602470Y617485D03*
X607391Y625359D03*
X612312Y617485D03*
X617233Y625359D03*
X622155Y617485D03*
X627076Y625359D03*
X631997Y617485D03*
X636918Y625359D03*
X641840Y617485D03*
X646761Y625359D03*
X651682Y617485D03*
X656603Y625359D03*
X661525Y617485D03*
X666446Y625359D03*
X671367Y617485D03*
X676288Y625359D03*
D02*
D160*
X1062509Y457052D03*
X1062601Y480853D03*
X1072351Y457052D03*
X1072444Y480853D03*
X1082194Y457052D03*
X1082286Y480853D03*
X1092036Y457052D03*
X1092129Y480853D03*
X1126397Y445461D03*
X1136397D03*
X1146397D03*
X1170652Y445576D03*
X1180652D03*
X1190652D03*
D02*
D161*
X638755Y682765D03*
X644207Y693946D03*
X649660Y682765D03*
X655113Y693946D03*
X660566Y682765D03*
X666019Y693946D03*
X671471Y682765D03*
X676924Y693946D03*
X682377Y682765D03*
X687830Y693946D03*
X693282Y682765D03*
X698735Y693946D03*
X704188Y682765D03*
X709641Y693946D03*
X715093Y682765D03*
X720546Y693946D03*
X725999Y682765D03*
X731452Y693946D03*
X736904Y682765D03*
X742357Y693946D03*
X747810Y682765D03*
X753263Y693946D03*
X758715Y682765D03*
X764168Y693946D03*
X769621Y682765D03*
X864327Y682378D03*
X869780Y693560D03*
X875232Y682378D03*
X880685Y693560D03*
X886138Y682378D03*
X891591Y693560D03*
X897043Y682378D03*
X902496Y693560D03*
X907949Y682378D03*
X913402Y693560D03*
X918854Y682378D03*
X924307Y693560D03*
X929760Y682378D03*
X935213Y693560D03*
X940666Y682378D03*
X946118Y693560D03*
X951571Y682378D03*
X957024Y693560D03*
X962477Y682378D03*
X967929Y693560D03*
X973382Y682378D03*
X978835Y693560D03*
X984288Y682378D03*
X989740Y693560D03*
X995193Y682378D03*
X1088816Y682827D03*
X1094269Y694008D03*
X1099721Y682827D03*
X1105174Y694008D03*
X1110627Y682827D03*
X1116080Y694008D03*
X1121532Y682827D03*
X1126985Y694008D03*
X1132438Y682827D03*
X1137891Y694008D03*
X1143344Y682827D03*
X1148796Y694008D03*
X1154249Y682827D03*
X1159702Y694008D03*
X1165155Y682827D03*
X1170607Y694008D03*
X1176060Y682827D03*
X1181513Y694008D03*
X1186966Y682827D03*
X1192418Y694008D03*
X1197871Y682827D03*
X1203324Y694008D03*
X1208777Y682827D03*
D02*
D162*
X611589Y688355D03*
X796786D03*
X837162Y687969D03*
X1022358D03*
X1061651Y688418D03*
X1235942D03*
D02*
D163*
X1027923Y621311D03*
Y631311D03*
X1037923Y621311D03*
Y631311D03*
X1047923Y621311D03*
Y631311D03*
X1057923Y621311D03*
Y631311D03*
X1067923Y621311D03*
Y631311D03*
X1077923Y621311D03*
Y631311D03*
X1087923Y621311D03*
Y631311D03*
X1097923Y621311D03*
Y631311D03*
X1107923Y621311D03*
Y631311D03*
X1117923Y621311D03*
Y631311D03*
X1127923Y621311D03*
Y631311D03*
X1137923Y621311D03*
Y631311D03*
X1147923Y621311D03*
Y631311D03*
X1157923Y621311D03*
Y631311D03*
X1167923Y621311D03*
Y631311D03*
X1177923Y621311D03*
Y631311D03*
X1187923Y621311D03*
Y631311D03*
D02*
D168*
X1187924Y631312D02*
X512996Y674521D02*
G36*
X513011Y674181D01*
X513055Y673844D01*
X513129Y673512D01*
X513231Y673188D01*
X513361Y672874D01*
X513518Y672572D01*
X513701Y672285D01*
X513908Y672016D01*
X514137Y671765D01*
X514388Y671535D01*
X514658Y671328D01*
X514945Y671146D01*
X515246Y670989D01*
X515560Y670858D01*
X515885Y670756D01*
X516217Y670683D01*
X516554Y670638D01*
X516893Y670623D01*
X516972D01*
X517312Y670638D01*
X517649Y670683D01*
X517981Y670756D01*
X518305Y670858D01*
X518619Y670989D01*
X518921Y671146D01*
X519208Y671328D01*
X519477Y671535D01*
X519728Y671765D01*
X519958Y672016D01*
X520165Y672285D01*
X520348Y672572D01*
X520505Y672874D01*
X520635Y673188D01*
X520737Y673512D01*
X520811Y673844D01*
X520855Y674181D01*
X520870Y674521D01*
Y679679D01*
X518901D01*
Y677080D01*
X518887Y676848D01*
X518845Y676618D01*
X518776Y676396D01*
X518680Y676184D01*
X518560Y675984D01*
X518416Y675801D01*
X518251Y675636D01*
X518068Y675492D01*
X517869Y675372D01*
X517656Y675276D01*
X517434Y675207D01*
X517205Y675165D01*
X516972Y675151D01*
X516893D01*
X516661Y675165D01*
X516432Y675207D01*
X516209Y675276D01*
X515997Y675372D01*
X515798Y675492D01*
X515614Y675636D01*
X515449Y675801D01*
X515306Y675984D01*
X515185Y676184D01*
X515090Y676396D01*
X515020Y676618D01*
X514978Y676848D01*
X514964Y677080D01*
Y679679D01*
X512996D01*
Y674521D01*
G37*
Y684836D02*
G36*
Y679679D01*
X514964D01*
Y682277D01*
X514978Y682509D01*
X515020Y682739D01*
X515090Y682961D01*
X515185Y683173D01*
X515306Y683373D01*
X515449Y683556D01*
X515614Y683721D01*
X515797Y683865D01*
X515997Y683985D01*
X516209Y684081D01*
X516432Y684150D01*
X516661Y684192D01*
X516893Y684206D01*
X516972D01*
X517205Y684192D01*
X517434Y684150D01*
X517656Y684081D01*
X517869Y683985D01*
X518068Y683865D01*
X518251Y683721D01*
X518416Y683556D01*
X518560Y683373D01*
X518680Y683173D01*
X518776Y682961D01*
X518845Y682739D01*
X518887Y682509D01*
X518901Y682277D01*
Y679679D01*
X520870D01*
Y684836D01*
X520855Y685176D01*
X520811Y685513D01*
X520737Y685845D01*
X520635Y686169D01*
X520505Y686483D01*
X520348Y686785D01*
X520165Y687072D01*
X519958Y687341D01*
X519728Y687592D01*
X519477Y687822D01*
X519208Y688029D01*
X518921Y688211D01*
X518619Y688368D01*
X518305Y688499D01*
X517981Y688601D01*
X517649Y688674D01*
X517312Y688719D01*
X516972Y688734D01*
X516893D01*
X516554Y688719D01*
X516217Y688674D01*
X515885Y688601D01*
X515560Y688499D01*
X515246Y688368D01*
X514945Y688211D01*
X514658Y688029D01*
X514388Y687822D01*
X514137Y687592D01*
X513908Y687341D01*
X513701Y687072D01*
X513518Y686785D01*
X513361Y686483D01*
X513231Y686169D01*
X513129Y685845D01*
X513055Y685513D01*
X513011Y685176D01*
X512996Y684836D01*
G37*
X512997Y684837D02*
X564260Y674611D02*
G36*
X564275Y674271D01*
X564319Y673934D01*
X564393Y673602D01*
X564495Y673278D01*
X564625Y672964D01*
X564782Y672662D01*
X564965Y672375D01*
X565172Y672106D01*
X565402Y671855D01*
X565652Y671625D01*
X565922Y671418D01*
X566209Y671235D01*
X566510Y671078D01*
X566825Y670948D01*
X567149Y670846D01*
X567481Y670773D01*
X567818Y670728D01*
X568158Y670713D01*
X568236D01*
X568576Y670728D01*
X568913Y670773D01*
X569245Y670846D01*
X569569Y670948D01*
X569884Y671078D01*
X570185Y671235D01*
X570472Y671418D01*
X570742Y671625D01*
X570992Y671855D01*
X571222Y672106D01*
X571429Y672375D01*
X571612Y672662D01*
X571769Y672964D01*
X571899Y673278D01*
X572001Y673602D01*
X572075Y673934D01*
X572119Y674271D01*
X572134Y674611D01*
Y679768D01*
X570166D01*
Y677170D01*
X570151Y676937D01*
X570109Y676708D01*
X570040Y676486D01*
X569945Y676274D01*
X569824Y676074D01*
X569680Y675891D01*
X569516Y675726D01*
X569332Y675582D01*
X569133Y675462D01*
X568920Y675366D01*
X568698Y675297D01*
X568469Y675255D01*
X568236Y675241D01*
X568158D01*
X567925Y675255D01*
X567696Y675297D01*
X567474Y675366D01*
X567261Y675462D01*
X567062Y675582D01*
X566878Y675726D01*
X566714Y675891D01*
X566570Y676074D01*
X566449Y676273D01*
X566354Y676486D01*
X566285Y676708D01*
X566243Y676937D01*
X566229Y677170D01*
Y679768D01*
X564260D01*
Y674611D01*
G37*
Y684926D02*
G36*
Y679768D01*
X566229D01*
Y682367D01*
X566243Y682599D01*
X566285Y682829D01*
X566354Y683051D01*
X566449Y683263D01*
X566570Y683463D01*
X566714Y683646D01*
X566878Y683811D01*
X567062Y683954D01*
X567261Y684075D01*
X567474Y684171D01*
X567696Y684240D01*
X567925Y684282D01*
X568158Y684296D01*
X568236D01*
X568469Y684282D01*
X568698Y684240D01*
X568920Y684171D01*
X569133Y684075D01*
X569332Y683955D01*
X569516Y683811D01*
X569680Y683646D01*
X569824Y683463D01*
X569945Y683263D01*
X570040Y683051D01*
X570109Y682829D01*
X570151Y682599D01*
X570166Y682367D01*
Y679768D01*
X572134D01*
Y684926D01*
X572119Y685266D01*
X572075Y685603D01*
X572001Y685935D01*
X571899Y686259D01*
X571769Y686573D01*
X571612Y686875D01*
X571429Y687161D01*
X571222Y687431D01*
X570992Y687682D01*
X570742Y687912D01*
X570472Y688119D01*
X570185Y688301D01*
X569884Y688458D01*
X569569Y688589D01*
X569245Y688691D01*
X568913Y688764D01*
X568576Y688809D01*
X568236Y688824D01*
X568158D01*
X567818Y688809D01*
X567481Y688764D01*
X567149Y688691D01*
X566825Y688589D01*
X566510Y688458D01*
X566209Y688301D01*
X565922Y688119D01*
X565652Y687912D01*
X565402Y687682D01*
X565172Y687431D01*
X564965Y687161D01*
X564782Y686875D01*
X564625Y686573D01*
X564495Y686259D01*
X564393Y685935D01*
X564319Y685603D01*
X564275Y685266D01*
X564260Y684926D01*
G37*
D02*
D169*
X564261Y684927D02*
X503547Y693655D02*
G36*
X503561Y693459D01*
X503603Y693267D01*
X503671Y693082D01*
X503766Y692910D01*
X503883Y692752D01*
X504022Y692613D01*
X504180Y692496D01*
X504352Y692401D01*
X504537Y692333D01*
X504729Y692291D01*
X504925Y692277D01*
X528941D01*
X529137Y692291D01*
X529329Y692333D01*
X529513Y692401D01*
X529686Y692496D01*
X529843Y692613D01*
X529982Y692752D01*
X530100Y692910D01*
X530194Y693082D01*
X530263Y693267D01*
X530305Y693459D01*
X530319Y693655D01*
Y697395D01*
X523626D01*
Y697391D01*
X523612Y697124D01*
X523570Y696860D01*
X523501Y696601D01*
X523405Y696352D01*
X523283Y696114D01*
X523138Y695889D01*
X522969Y695681D01*
X522780Y695492D01*
X522572Y695324D01*
X522348Y695178D01*
X522110Y695057D01*
X521860Y694961D01*
X521602Y694892D01*
X521338Y694850D01*
X521071Y694836D01*
X512795D01*
X512528Y694850D01*
X512264Y694892D01*
X512005Y694961D01*
X511756Y695057D01*
X511517Y695178D01*
X511293Y695324D01*
X511085Y695492D01*
X510896Y695681D01*
X510728Y695889D01*
X510582Y696114D01*
X510461Y696352D01*
X510365Y696602D01*
X510296Y696860D01*
X510254Y697124D01*
X510240Y697391D01*
Y697395D01*
X503547D01*
Y693655D01*
G37*
Y701135D02*
G36*
Y697395D01*
X510240D01*
Y697399D01*
X510254Y697666D01*
X510296Y697930D01*
X510365Y698189D01*
X510461Y698438D01*
X510582Y698677D01*
X510728Y698901D01*
X510896Y699109D01*
X511085Y699298D01*
X511293Y699466D01*
X511517Y699612D01*
X511756Y699733D01*
X512005Y699829D01*
X512264Y699898D01*
X512528Y699940D01*
X512795Y699954D01*
X521071D01*
X521338Y699940D01*
X521602Y699898D01*
X521860Y699829D01*
X522110Y699733D01*
X522348Y699612D01*
X522572Y699466D01*
X522780Y699298D01*
X522969Y699109D01*
X523138Y698901D01*
X523283Y698676D01*
X523405Y698438D01*
X523501Y698189D01*
X523570Y697930D01*
X523612Y697666D01*
X523626Y697399D01*
Y697395D01*
X530319D01*
Y701135D01*
X530305Y701331D01*
X530263Y701523D01*
X530194Y701708D01*
X530100Y701880D01*
X529982Y702038D01*
X529843Y702177D01*
X529686Y702294D01*
X529513Y702389D01*
X529329Y702457D01*
X529137Y702499D01*
X528941Y702513D01*
X504925D01*
X504729Y702499D01*
X504537Y702457D01*
X504352Y702389D01*
X504180Y702294D01*
X504022Y702177D01*
X503883Y702038D01*
X503766Y701880D01*
X503671Y701708D01*
X503603Y701523D01*
X503561Y701331D01*
X503547Y701135D01*
G37*
X503548Y701136D02*
X554811Y693745D02*
G36*
X554825Y693549D01*
X554867Y693357D01*
X554936Y693172D01*
X555030Y693000D01*
X555148Y692842D01*
X555287Y692703D01*
X555444Y692586D01*
X555617Y692491D01*
X555801Y692423D01*
X555993Y692381D01*
X556189Y692367D01*
X580205D01*
X580401Y692381D01*
X580593Y692423D01*
X580777Y692491D01*
X580950Y692586D01*
X581107Y692703D01*
X581246Y692842D01*
X581364Y693000D01*
X581458Y693172D01*
X581527Y693357D01*
X581569Y693549D01*
X581583Y693745D01*
Y697485D01*
X574890D01*
Y697481D01*
X574876Y697214D01*
X574834Y696950D01*
X574765Y696691D01*
X574669Y696442D01*
X574548Y696203D01*
X574402Y695979D01*
X574234Y695771D01*
X574044Y695582D01*
X573837Y695414D01*
X573612Y695268D01*
X573374Y695147D01*
X573124Y695051D01*
X572866Y694982D01*
X572602Y694940D01*
X572335Y694926D01*
X564059D01*
X563792Y694940D01*
X563528Y694982D01*
X563270Y695051D01*
X563020Y695147D01*
X562782Y695268D01*
X562557Y695414D01*
X562349Y695582D01*
X562160Y695771D01*
X561992Y695979D01*
X561846Y696204D01*
X561725Y696442D01*
X561629Y696691D01*
X561560Y696950D01*
X561518Y697214D01*
X561504Y697481D01*
Y697485D01*
X554811D01*
Y693745D01*
G37*
Y701225D02*
G36*
Y697485D01*
X561504D01*
Y697489D01*
X561518Y697756D01*
X561560Y698020D01*
X561629Y698279D01*
X561725Y698528D01*
X561846Y698766D01*
X561992Y698991D01*
X562160Y699199D01*
X562350Y699388D01*
X562557Y699556D01*
X562782Y699702D01*
X563020Y699823D01*
X563270Y699919D01*
X563528Y699988D01*
X563792Y700030D01*
X564059Y700044D01*
X572335D01*
X572602Y700030D01*
X572866Y699988D01*
X573124Y699919D01*
X573374Y699823D01*
X573612Y699702D01*
X573837Y699556D01*
X574045Y699388D01*
X574234Y699199D01*
X574402Y698991D01*
X574548Y698766D01*
X574669Y698528D01*
X574765Y698278D01*
X574834Y698020D01*
X574876Y697756D01*
X574890Y697489D01*
Y697485D01*
X581583D01*
Y701225D01*
X581569Y701421D01*
X581527Y701613D01*
X581458Y701798D01*
X581364Y701970D01*
X581246Y702128D01*
X581107Y702267D01*
X580950Y702384D01*
X580777Y702479D01*
X580593Y702547D01*
X580401Y702589D01*
X580205Y702603D01*
X556189D01*
X555993Y702589D01*
X555801Y702547D01*
X555617Y702479D01*
X555444Y702384D01*
X555287Y702267D01*
X555148Y702128D01*
X555030Y701970D01*
X554936Y701798D01*
X554867Y701613D01*
X554825Y701421D01*
X554811Y701225D01*
G37*
D02*
D186*
X554812Y701226D02*
X35866Y673249D02*
G36*
Y664784D01*
X35880Y664547D01*
X35923Y664313D01*
X35994Y664086D01*
X36091Y663869D01*
X36214Y663666D01*
X36361Y663479D01*
X36529Y663311D01*
X36716Y663164D01*
X36919Y663041D01*
X37136Y662943D01*
X37363Y662873D01*
X37597Y662830D01*
X37834Y662816D01*
X43346D01*
X43583Y662830D01*
X43817Y662873D01*
X44044Y662943D01*
X44261Y663041D01*
X44464Y663164D01*
X44651Y663311D01*
X44820Y663479D01*
X44966Y663666D01*
X45089Y663869D01*
X45187Y664086D01*
X45257Y664313D01*
X45300Y664547D01*
X45315Y664784D01*
Y673249D01*
X42952D01*
Y670001D01*
X42938Y669763D01*
X42895Y669529D01*
X42824Y669303D01*
X42727Y669086D01*
X42604Y668882D01*
X42457Y668695D01*
X42289Y668527D01*
X42102Y668381D01*
X41899Y668258D01*
X41682Y668160D01*
X41455Y668089D01*
X41221Y668046D01*
X40984Y668032D01*
X40196D01*
X39959Y668046D01*
X39725Y668089D01*
X39498Y668160D01*
X39282Y668258D01*
X39078Y668381D01*
X38891Y668527D01*
X38723Y668695D01*
X38576Y668882D01*
X38453Y669086D01*
X38356Y669303D01*
X38285Y669529D01*
X38242Y669763D01*
X38228Y670001D01*
Y673249D01*
X35866D01*
G37*
Y681713D02*
G36*
Y673249D01*
X38228D01*
Y676497D01*
X38242Y676734D01*
X38285Y676968D01*
X38356Y677195D01*
X38453Y677411D01*
X38576Y677615D01*
X38723Y677802D01*
X38891Y677970D01*
X39078Y678117D01*
X39282Y678240D01*
X39498Y678337D01*
X39725Y678408D01*
X39959Y678451D01*
X40196Y678465D01*
X40984D01*
X41221Y678451D01*
X41455Y678408D01*
X41682Y678337D01*
X41899Y678240D01*
X42102Y678117D01*
X42289Y677970D01*
X42457Y677802D01*
X42604Y677615D01*
X42727Y677411D01*
X42824Y677195D01*
X42895Y676968D01*
X42938Y676734D01*
X42952Y676497D01*
Y673249D01*
X45315D01*
Y681713D01*
X45300Y681950D01*
X45257Y682184D01*
X45187Y682411D01*
X45089Y682628D01*
X44966Y682831D01*
X44820Y683019D01*
X44651Y683187D01*
X44464Y683333D01*
X44261Y683456D01*
X44044Y683554D01*
X43817Y683624D01*
X43583Y683667D01*
X43346Y683682D01*
X37834D01*
X37597Y683667D01*
X37363Y683624D01*
X37136Y683554D01*
X36919Y683456D01*
X36716Y683333D01*
X36529Y683187D01*
X36361Y683019D01*
X36214Y682831D01*
X36091Y682628D01*
X35994Y682411D01*
X35923Y682184D01*
X35880Y681950D01*
X35866Y681713D01*
G37*
X35867Y681714D02*
X71299Y673249D02*
G36*
Y664784D01*
X71313Y664547D01*
X71356Y664313D01*
X71427Y664086D01*
X71524Y663869D01*
X71647Y663666D01*
X71794Y663479D01*
X71962Y663311D01*
X72149Y663164D01*
X72353Y663041D01*
X72569Y662943D01*
X72796Y662873D01*
X73030Y662830D01*
X73267Y662816D01*
X78779D01*
X79016Y662830D01*
X79250Y662873D01*
X79477Y662943D01*
X79694Y663041D01*
X79897Y663164D01*
X80085Y663311D01*
X80253Y663479D01*
X80399Y663666D01*
X80522Y663869D01*
X80620Y664086D01*
X80690Y664313D01*
X80733Y664547D01*
X80748Y664784D01*
Y673249D01*
X78385D01*
Y670001D01*
X78371Y669763D01*
X78328Y669529D01*
X78258Y669303D01*
X78160Y669086D01*
X78037Y668882D01*
X77890Y668695D01*
X77722Y668527D01*
X77535Y668381D01*
X77332Y668258D01*
X77115Y668160D01*
X76888Y668089D01*
X76654Y668046D01*
X76417Y668032D01*
X75630D01*
X75392Y668046D01*
X75158Y668089D01*
X74932Y668160D01*
X74715Y668258D01*
X74511Y668381D01*
X74324Y668527D01*
X74156Y668695D01*
X74010Y668882D01*
X73887Y669086D01*
X73789Y669303D01*
X73718Y669529D01*
X73675Y669763D01*
X73661Y670001D01*
Y673249D01*
X71299D01*
G37*
Y681713D02*
G36*
Y673249D01*
X73661D01*
Y676497D01*
X73675Y676734D01*
X73718Y676968D01*
X73789Y677195D01*
X73887Y677411D01*
X74010Y677615D01*
X74156Y677802D01*
X74324Y677970D01*
X74511Y678117D01*
X74715Y678240D01*
X74932Y678337D01*
X75158Y678408D01*
X75392Y678451D01*
X75630Y678465D01*
X76417D01*
X76654Y678451D01*
X76888Y678408D01*
X77115Y678337D01*
X77332Y678240D01*
X77535Y678117D01*
X77722Y677970D01*
X77890Y677802D01*
X78037Y677615D01*
X78160Y677411D01*
X78258Y677195D01*
X78328Y676968D01*
X78371Y676734D01*
X78385Y676497D01*
Y673249D01*
X80748D01*
Y681713D01*
X80733Y681950D01*
X80690Y682184D01*
X80620Y682411D01*
X80522Y682628D01*
X80399Y682831D01*
X80253Y683019D01*
X80085Y683187D01*
X79897Y683333D01*
X79694Y683456D01*
X79477Y683554D01*
X79250Y683624D01*
X79016Y683667D01*
X78779Y683682D01*
X73267D01*
X73030Y683667D01*
X72796Y683624D01*
X72569Y683554D01*
X72353Y683456D01*
X72149Y683333D01*
X71962Y683187D01*
X71794Y683019D01*
X71647Y682831D01*
X71524Y682628D01*
X71427Y682411D01*
X71356Y682184D01*
X71313Y681950D01*
X71299Y681713D01*
G37*
D02*
D188*
X23195Y564038D03*
Y623093D03*
D02*
D190*
X24302Y465749D03*
Y487402D03*
X266428Y451969D03*
Y487402D03*
D02*
D191*
X261800Y630260D03*
Y645260D03*
Y660260D03*
D02*
D192*
X251800Y710260D03*
X271800D03*
D02*
D193*
X459619Y239850D03*
Y269850D03*
X519619Y239850D03*
Y269850D03*
D02*
D215*
X291280Y276759D03*
X294743Y500301D03*
X298170Y276759D03*
X301633Y500301D03*
X524257Y239940D03*
X531147D03*
X702787Y615762D03*
X709677D03*
X918965Y533159D03*
X925855D03*
X1092279Y563310D03*
X1099169D03*
D02*
D217*
X394724Y142205D03*
X401614D03*
X429155Y256773D03*
X432421Y500320D03*
X436045Y256773D03*
X439311Y500320D03*
D02*
D255*
X23612Y31518D03*
X893324Y31455D03*
D02*
D270*
X235182Y323158D03*
X254867D03*
X652652Y514456D03*
X672337D03*
X932468Y411548D03*
X946937Y254053D03*
Y273738D03*
X952153Y411548D03*
D02*
D275*
X316787Y57635D03*
Y64525D03*
X357104Y388020D03*
Y394910D03*
D02*
D276*
X669799Y341492D03*
X674671Y346364D03*
X0Y0D02*
M02*
