M48
FMAT,1
INCH
T01C00.00984
T02C00.01181
T03C00.02756
T04C00.02795
T05C00.02953
T06C00.03150
T07C00.03543
T08C00.03543
T09C00.03858
T10C00.03937
T11C00.04016
T12C00.04291
T13C00.04331
T14C00.04528
T15C00.04724
T16C00.05110
T17C00.05906
T18C00.07283
T19C00.12008
T20C00.12205
T21C00.13780
%
G81
M70
T01
X72273Y321985
X76289Y317583
X76426Y326022
X87784Y293942
X87784Y299060
X87784Y304178
X87784Y309296
X87784Y314414
X87784Y319532
X87784Y324650
X87784Y329768
X87784Y334886
X87784Y340005
X87784Y345123
X87784Y350241
X87784Y355359
X87784Y360477
X87784Y365595
X87784Y370713
X90344Y296501
X90344Y301619
X90344Y306737
X90344Y311855
X90344Y316973
X90344Y322091
X90344Y327209
X90344Y332327
X90344Y337445
X90344Y342564
X90344Y347682
X90344Y352800
X90344Y357918
X90344Y363036
X90344Y368154
X90344Y373272
X92903Y293942
X92903Y299060
X92903Y304178
X92903Y309296
X92903Y314414
X92903Y319532
X92903Y324650
X92903Y329768
X92903Y334886
X92903Y340005
X92903Y345123
X92903Y350241
X92903Y355359
X92903Y360477
X92903Y365595
X92903Y370713
X95462Y296501
X95462Y301619
X95462Y306737
X95462Y311855
X95462Y316973
X95462Y322091
X95462Y327209
X95462Y332327
X95462Y337445
X95462Y342564
X95462Y347682
X95462Y352800
X95462Y357918
X95462Y363036
X95462Y368154
X95462Y373272
X96879Y379197
X98021Y293942
X98021Y299060
X98021Y304178
X98021Y309296
X98021Y314414
X98021Y319532
X98021Y324650
X98021Y329768
X98021Y334886
X98021Y340005
X98021Y345123
X98021Y350241
X98021Y355359
X98021Y360477
X98021Y365595
X98021Y370713
X100580Y296501
X100580Y301619
X100580Y306737
X100580Y311855
X100580Y316973
X100580Y322091
X100580Y327209
X100580Y332327
X100580Y337445
X100580Y342564
X100580Y347682
X100580Y352800
X100580Y357918
X100580Y363036
X100580Y368154
X100580Y373272
X101407Y472032
X101407Y491520
X101407Y596835
X102281Y232967
X102293Y222967
X102293Y227967
X102324Y267967
X103139Y293942
X103139Y299060
X103139Y304178
X103139Y309296
X103139Y314414
X103139Y319532
X103139Y324650
X103139Y329768
X103139Y334886
X103139Y340005
X103139Y345123
X103139Y350241
X103139Y355359
X103139Y360477
X103139Y365595
X103139Y370713
X103178Y182977
X103225Y145467
X103336Y237386
X103477Y212967
X103477Y217967
X103477Y230467
X103516Y197967
X103516Y202967
X103658Y187967
X103658Y192967
X103690Y519434
X104005Y615969
X104005Y626638
X104241Y588961
X105265Y622701
X105698Y296501
X105698Y301619
X105698Y306737
X105698Y311855
X105698Y316973
X105698Y322091
X105698Y327209
X105698Y332327
X105698Y337445
X105698Y342564
X105698Y347682
X105698Y352800
X105698Y357918
X105698Y363036
X105698Y368154
X105698Y373272
X107155Y619119
X107823Y655871
X107863Y510339
X107863Y545654
X107863Y553489
X107863Y556638
X107863Y561599
X107863Y565300
X107863Y569237
X107863Y572386
X107863Y577111
X107863Y592859
X107863Y604670
X107863Y607819
X107941Y647997
X107941Y651934
X107965Y640123
X107965Y644060
X108035Y549571
X108159Y585005
X108257Y293942
X108257Y299060
X108257Y345123
X108257Y350241
X108257Y355359
X108257Y360477
X108257Y365595
X108257Y370713
X108288Y632249
X110816Y296501
X110816Y347682
X110816Y352800
X110816Y357918
X110816Y363036
X110816Y368154
X110816Y373272
X113375Y293942
X113375Y299060
X113375Y345123
X113375Y350241
X113375Y355359
X113375Y360477
X113375Y365595
X113375Y370713
X115068Y530772
X115934Y296501
X115934Y347682
X115934Y352800
X115934Y357918
X115934Y363036
X115934Y368154
X115934Y373272
X118493Y293942
X118493Y299060
X118493Y345123
X118493Y350241
X118493Y355359
X118493Y360477
X118493Y365595
X118493Y370713
X120895Y150497
X120895Y167977
X120895Y177977
X121052Y296501
X121052Y347682
X121052Y352800
X121052Y357918
X121052Y363036
X121052Y368154
X121052Y373272
X122548Y210851
X123139Y170457
X123139Y240457
X123139Y245457
X123139Y250457
X123611Y293942
X123611Y299060
X123611Y345123
X123611Y350241
X123611Y355359
X123611Y360477
X123611Y365595
X123611Y370713
X125501Y486993
X126170Y296501
X126170Y347682
X126170Y352800
X126170Y357918
X126170Y363036
X126170Y368154
X126170Y373272
X128060Y530772
X128729Y293942
X128729Y299060
X128729Y345123
X128729Y350241
X128729Y355359
X128729Y360477
X128729Y365595
X128729Y370713
X130311Y195703
X130311Y210551
X131288Y296501
X131288Y347682
X131288Y352800
X131288Y357918
X131288Y363036
X131288Y368154
X131288Y373272
X133847Y293942
X133847Y299060
X133847Y345123
X133847Y350241
X133847Y355359
X133847Y360477
X133847Y365595
X133847Y370713
X135023Y655871
X135079Y651934
X135236Y608627
X135245Y628312
X135265Y545615
X135265Y549552
X135265Y553489
X135265Y584906
X135283Y565319
X135331Y640123
X135340Y644060
X135340Y647997
X135374Y600753
X135383Y192071
X136407Y296501
X136407Y347682
X136407Y352800
X136407Y357918
X136407Y363036
X136407Y368154
X136407Y373272
X136643Y559709
X136643Y624355
X136721Y517150
X138034Y180989
X138234Y195703
X138234Y210512
X138966Y293942
X138966Y299060
X138966Y345123
X138966Y350241
X138966Y355359
X138966Y360477
X138966Y365595
X138966Y370713
X139832Y529001
X141446Y571520
X141525Y296501
X141525Y347682
X141525Y352800
X141525Y357918
X141525Y363036
X141525Y368154
X141525Y373272
X142155Y561993
X143017Y206041
X144084Y293942
X144084Y299060
X144084Y345123
X144084Y350241
X144084Y355359
X144084Y360477
X144084Y365595
X144084Y370713
X146643Y296501
X146643Y347682
X146643Y352800
X146643Y357918
X146643Y363036
X146643Y368154
X146643Y373272
X148741Y192098
X149202Y293942
X149202Y299060
X149202Y345123
X149202Y350241
X149202Y355359
X149202Y360477
X149202Y365595
X149202Y370713
X149438Y172977
X149477Y501245
X149477Y587190
X149711Y176302
X150777Y564276
X150816Y579394
X157115Y211638
X162745Y164591
X165540Y262780
X167824Y231796
X171682Y203922
X173414Y299079
X183847Y331638
X187509Y282426
X187509Y298174
X187981Y243686
X189792Y309709
X192076Y311953
X197115Y340024
X199359Y280142
X209849Y129043
X214714Y243686
X223139Y132347
X223139Y596796
X224402Y657158
X226288Y96914
X226288Y463686
X228572Y177819
X229044Y645142
X231328Y328016
X232981Y647347
X237644Y657028
X240501Y87780
X240501Y463686
X247824Y122347
X247824Y582071
X250934Y669434
X256525Y337819
X256997Y147819
X258808Y262347
X261643Y62347
X266170Y277190
X268414Y303607
X268414Y337819
X268591Y281906
X268591Y294983
X269195Y206844
X273139Y582071
X273139Y634867
X273336Y274316
X273964Y266853
X276288Y603174
X278178Y353016
X278178Y382898
X278178Y404867
X278178Y409394
X278572Y492623
X280462Y112347
X283375Y266875
X283611Y82347
X285895Y206835
X285895Y217071
X287115Y292032
X287115Y326914
X287130Y276759
X288493Y434945
X290862Y500301
X295304Y174276
X298572Y468056
X300855Y322308
X300855Y345930
X305068Y329197
X306997Y184631
X311643Y385536
X311643Y455772
X313808Y172032
X316787Y68443
X320540Y258686
X320540Y299670
X323729Y337819
X325304Y430339
X325304Y497150
X325973Y193056
X328454Y504906
X330540Y337819
X330580Y293686
X331643Y575182
X332430Y56914
X333926Y374945
X333926Y392583
X335973Y308686
X336328Y565339
X343887Y337819
X347115Y417623
X349281Y144631
X351643Y417150
X352659Y388020
X354281Y235851
X356013Y225064
X358926Y584906
X360540Y195733
X361918Y308686
X363690Y201442
X365973Y190536
X368021Y422623
X368021Y431008
X368257Y299670
X368257Y388016
X369399Y460339
X369910Y225575
X371525Y199394
X371564Y141481
X373808Y167780
X376210Y565339
X380540Y374945
X381525Y144631
X381643Y422623
X388257Y372662
X389359Y551205
X390501Y374945
X390936Y142205
X391643Y388016
X392863Y225064
X398257Y190536
X398257Y372662
X399359Y543016
X400540Y269158
X400580Y287977
X400580Y308686
X401918Y229119
X403729Y284867
X403729Y308686
X403887Y475772
X403926Y545300
X404674Y226875
X405147Y249158
X405147Y273725
X406170Y427308
X406170Y470339
X406170Y489945
X408454Y492229
X408887Y433016
X408887Y472583
X408926Y422623
X411918Y341402
X415068Y374749
X417351Y40103
X418218Y373371
X418257Y159197
X420580Y203922
X420580Y341166
X423099Y84631
X423729Y343686
X423887Y587190
X424438Y156914
X424596Y323686
X426328Y43292
X426879Y329158
X426879Y338882
X432509Y432623
X432509Y447150
X432509Y457819
X432509Y470339
X432509Y593961
X434674Y417229
X434674Y451756
X434792Y599906
X435147Y34158
X436958Y470024
X437430Y46914
X439241Y264394
X439708Y256773
X439714Y241717
X439714Y249079
X440934Y204316
X440934Y226875
X441485Y86914
X442830Y500320
X442863Y374788
X442863Y432623
X443218Y244001
X443375Y340615
X444005Y345969
X444044Y208292
X444071Y160114
X444989Y273686
X445107Y482583
X445107Y492583
X445383Y285654
X445462Y259040
X445855Y329158
X446367Y109276
X446879Y289158
X446879Y323686
X447391Y575497
X447745Y277780
X447784Y337819
X448865Y61490
X449327Y119448
X449635Y474867
X450068Y429394
X451092Y470024
X451283Y202283
X452351Y407150
X453375Y624394
X453572Y116284
X453572Y254119
X454714Y306914
X454753Y329158
X454753Y374749
X455794Y324619
X455855Y71835
X456092Y594985
X456485Y437938
X456485Y474867
X458060Y275772
X458139Y197111
X460147Y449473
X460344Y384276
X460344Y587977
X460352Y422747
X460383Y628331
X460540Y205142
X460927Y347267
X460934Y358961
X462627Y374749
X462627Y398016
X462627Y612701
X462863Y285969
X464910Y644867
X465147Y329316
X467155Y384197
X467155Y407150
X467155Y428371
X467155Y609197
X467155Y630615
X467548Y647977
X467666Y326875
X468533Y361245
X469241Y355300
X469241Y374749
X469438Y487150
X470274Y68970
X470304Y384197
X470431Y126819
X470619Y350733
X470619Y470615
X470777Y227071
X471682Y602190
X472043Y209703
X473218Y633095
X473414Y177819
X473454Y384197
X473454Y538331
X473690Y333961
X475234Y297800
X477784Y651953
X478887Y42308
X480580Y636205
X481013Y552544
X481013Y592701
X481013Y600772
X481052Y528134
X481052Y540733
X481389Y581068
X481485Y317977
X481879Y548686
X481879Y565536
X481879Y585221
X481879Y612583
X484005Y306796
X485698Y353016
X485698Y358961
X485698Y374749
X485698Y407150
X485698Y419001
X485698Y464867
X485814Y325223
X485833Y385065
X487076Y334709
X487981Y347347
X488762Y297242
X488847Y415851
X488887Y192819
X488887Y236127
X489084Y431442
X489084Y484276
X489084Y507623
X489084Y658922
X489399Y286914
X490265Y374749
X491131Y412623
X491603Y362111
X491721Y340615
X494950Y468331
X494989Y444355
X497233Y447465
X497233Y495260
X497666Y220772
X497981Y321835
X498887Y398016
X499556Y454788
X500895Y660418
X501170Y324119
X501800Y208016
X501800Y297505
X501800Y452505
X502036Y422741
X504084Y244001
X504084Y466993
X504202Y382938
X504202Y418134
X504311Y239940
X504359Y300064
X504753Y136914
X508454Y446560
X508493Y301008
X509281Y536875
X509281Y541717
X509281Y545457
X509281Y548607
X509281Y553489
X509281Y556638
X509281Y560418
X509281Y565812
X509281Y569237
X509281Y577190
X509281Y588961
X509281Y602505
X509281Y620457
X509281Y642505
X509281Y651953
X509281Y655890
X509321Y297149
X509421Y592879
X511603Y318174
X513808Y293725
X513887Y301678
X513887Y362150
X513966Y491560
X514359Y376127
X514753Y318174
X514792Y471560
X515344Y523016
X515708Y510729
X515855Y624394
X516564Y538843
X517076Y530064
X517784Y426166
X518139Y585182
X518139Y616481
X518847Y569237
X518847Y579434
X518887Y491560
X519005Y497544
X519635Y382898
X520225Y295969
X520698Y443843
X520934Y339237
X521170Y524040
X521328Y386048
X521446Y426127
X521603Y396087
X521682Y600221
X522509Y478371
X524238Y317977
X524238Y429853
X526407Y568095
X527017Y498060
X527351Y320221
X527351Y427623
X527430Y393804
X528218Y355930
X530383Y266127
X530501Y318174
X530501Y376993
X530501Y443371
X530939Y222362
X531159Y530578
X532784Y323686
X532784Y454040
X533651Y318174
X534358Y497990
X534942Y239952
X535973Y259158
X535973Y291442
X536800Y441875
X536840Y304079
X537903Y445024
X538178Y485654
X538552Y461363
X538611Y595142
X539044Y318174
X539123Y295103
X540147Y441875
X541367Y525497
X541387Y220772
X542132Y536574
X542419Y686428
X542430Y653213
X543651Y357505
X543887Y318174
X544477Y263686
X544792Y600221
X546446Y292819
X547745Y508646
X548336Y604749
X548493Y383843
X549438Y444749
X551288Y388371
X551288Y421048
X552548Y318174
X552585Y430045
X553139Y269788
X553257Y587898
X555698Y318174
X556013Y321402
X556013Y370221
X556879Y542111
X557076Y400300
X557981Y169158
X558178Y578961
X558847Y318174
X559123Y535575
X559123Y539001
X561603Y382977
X562033Y318214
X562666Y194749
X562666Y259158
X563651Y485812
X563651Y506953
X564320Y400694
X564596Y426756
X564910Y320457
X564950Y188253
X565147Y442386
X567076Y402977
X567430Y447229
X568336Y275772
X568690Y532859
X569320Y390654
X569438Y318174
X569438Y340103
X569753Y513804
X569753Y516993
X569771Y523222
X569950Y189985
X570263Y585613
X570619Y238371
X571446Y443371
X572036Y520103
X573099Y106993
X573428Y559734
X574596Y442386
X575757Y59178
X575973Y387544
X577745Y441875
X578021Y55260
X578099Y169158
X579359Y533764
X579359Y594394
X579727Y530578
X579989Y382938
X582908Y485692
X583296Y162386
X583493Y423331
X585580Y164631
X585777Y463331
X586026Y508819
X586407Y360615
X587233Y318174
X587233Y374749
X587784Y557190
X588257Y539237
X589005Y476993
X590328Y295296
X590344Y554945
X590380Y429871
X590619Y483056
X591879Y322741
X592627Y536048
X593139Y357505
X593139Y360772
X593533Y384197
X594910Y404040
X594910Y411678
X594950Y494631
X595068Y324985
X595186Y428804
X596131Y205851
X596288Y357308
X596643Y515851
X597194Y376323
X597194Y401796
X597338Y353569
X597430Y337819
X597430Y344119
X597430Y370221
X597430Y397662
X597430Y458449
X597439Y422861
X597548Y557938
X598218Y294867
X600501Y311914
X601092Y558646
X602076Y538331
X604044Y555615
X604044Y597544
X604924Y559770
X607470Y236008
X607470Y311914
X608029Y585613
X608847Y124394
X612036Y454709
X612036Y516127
X612155Y319867
X612155Y336953
X612155Y343449
X612155Y494119
X612627Y197032
X613887Y333804
X614320Y422859
X614714Y381953
X615884Y312014
X616879Y557859
X617233Y569040
X618375Y544631
X619123Y554749
X620659Y374749
X620659Y404631
X621170Y363056
X621407Y596914
X621603Y422859
X621621Y400763
X621682Y350851
X622146Y325189
X623887Y581717
X624359Y320260
X626643Y568095
X627627Y148607
X629359Y610103
X630265Y548292
X630816Y427426
X631170Y351993
X631170Y412032
X632509Y137426
X633454Y429709
X633654Y461061
X634178Y439974
X635186Y112386
X636092Y294867
X636446Y525497
X637470Y276638
X637627Y195733
X638729Y324985
X639556Y550851
X644123Y534985
X644910Y391048
X645934Y469276
X646131Y193292
X646288Y317977
X646761Y386481
X647470Y278922
X649385Y667088
X650596Y386496
X650855Y360300
X652273Y532268
X653887Y66284
X656092Y223292
X656092Y294394
X656092Y386481
X658628Y407465
X658887Y567268
X659231Y375871
X659871Y299434
X660265Y420339
X661446Y638882
X662548Y251835
X662824Y653213
X663178Y311953
X663768Y472630
X664477Y405969
X665068Y220772
X665107Y657741
X666721Y444276
X667076Y263843
X667351Y339040
X667627Y129119
X667702Y664436
X667942Y530930
X668021Y403686
X670225Y533213
X671800Y386481
X672194Y135969
X672292Y169768
X672903Y266127
X672942Y659631
X672942Y666914
X674950Y594394
X675186Y133686
X676288Y393568
X676288Y552229
X676497Y375936
X678572Y397662
X678572Y530890
X678847Y63095
X680422Y636599
X681052Y511953
X681052Y574040
X683533Y393253
X685383Y376402
X687784Y574316
X689399Y542662
X689871Y251835
X690038Y397778
X690068Y394512
X691879Y648134
X692273Y421638
X693139Y313371
X693887Y131402
X695186Y425142
X695186Y553371
X695422Y327071
X697470Y418922
X697509Y404552
X697571Y375936
X698972Y615762
X701249Y634001
X701603Y175812
X705265Y115457
X705265Y393016
X705816Y628056
X706131Y197426
X706131Y219394
X708414Y289197
X708414Y375536
X709416Y382262
X709748Y403251
X713099Y454709
X713887Y109276
X714927Y664650
X715354Y523271
X715354Y551082
X715934Y301796
X717509Y126402
X718218Y245418
X718533Y514473
X720540Y166914
X721564Y551008
X722194Y494119
X722903Y389985
X723808Y348449
X724477Y421638
X724753Y65339
X725501Y517701
X727430Y299434
X727588Y266796
X727784Y522229
X729005Y238371
X729202Y412032
X729241Y286914
X729714Y301717
X729714Y327071
X729871Y257780
X731485Y469827
X731800Y553371
X734044Y551008
X735265Y517386
X737312Y658528
X737548Y514237
X738976Y523318
X738976Y551034
X739635Y571914
X739635Y607544
X739871Y251835
X739910Y171520
X740225Y321875
X740304Y483056
X741561Y390701
X743414Y289197
X743887Y385123
X744825Y551650
X744872Y523934
X745895Y491127
X747036Y299434
X747312Y262268
X747616Y666976
X749556Y238292
X750698Y414394
X750787Y550845
X752194Y132190
X753651Y309631
X754714Y551008
X755265Y57190
X755383Y473449
X755934Y316087
X755934Y449316
X758178Y306914
X758493Y551008
X758611Y245418
X761249Y659867
X761288Y400930
X761643Y551008
X761840Y570064
X763887Y205300
X764950Y225575
X764950Y429670
X766471Y664721
X766525Y551008
X766721Y483568
X767391Y286914
X767391Y290733
X769044Y658016
X769635Y672426
X770472Y523914
X770472Y550845
X770540Y299591
X772155Y517701
X774438Y523607
X774438Y551008
X775068Y231442
X775068Y284631
X776449Y422634
X777588Y551008
X778375Y507426
X779871Y206717
X780973Y516756
X782312Y523607
X782312Y551008
X783808Y249079
X784123Y497190
X784123Y517701
X784635Y330969
X784635Y383213
X784635Y400457
X785934Y165851
X786249Y551008
X786879Y475733
X788336Y247701
X788423Y427382
X788887Y280772
X789359Y431599
X789871Y236008
X790029Y561284
X790186Y551008
X790540Y337071
X790816Y380930
X791170Y285300
X791643Y481678
X791643Y494945
X792509Y426638
X793060Y413213
X793060Y418922
X793336Y551363
X794084Y523607
X794399Y385733
X794399Y395300
X794714Y299591
X795462Y586678
X796131Y120812
X796131Y189985
X796407Y347071
X798060Y460694
X798060Y523607
X798060Y551008
X799517Y471166
X799989Y576087
X800344Y432386
X800344Y516717
X800973Y295260
X801721Y488095
X801997Y551008
X804123Y296638
X804556Y426481
X804906Y375714
X804910Y382780
X804910Y410733
X804910Y415733
X804910Y420733
X805501Y223213
X806721Y594867
X806840Y434867
X806918Y647977
X807150Y201785
X807155Y423095
X807194Y380497
X808534Y271700
X809202Y636993
X809596Y437190
X809871Y551008
X810304Y144434
X810304Y201875
X810816Y221796
X811016Y571981
X811721Y329355
X811721Y415497
X812745Y475733
X813769Y511953
X813769Y553292
X814123Y400300
X814438Y153568
X814438Y340497
X815356Y602287
X816052Y521284
X816107Y632331
X816407Y470418
X816721Y123961
X816721Y141875
X816721Y290733
X816721Y455694
X819005Y171520
X819005Y200182
X819005Y347071
X819005Y410733
X822312Y199237
X822312Y449473
X822706Y457977
X822841Y644412
X824596Y172150
X825580Y551008
X825619Y523607
X825973Y327071
X825973Y395536
X827745Y439512
X828756Y492676
X829556Y523607
X830186Y296638
X830186Y481678
X831052Y160969
X831328Y257780
X832337Y646641
X832903Y388292
X832903Y400300
X833493Y523607
X833493Y551008
X834616Y487284
X834616Y498267
X837401Y523686
X837401Y550901
X838257Y290733
X838493Y497308
X840777Y502819
X841328Y163568
X841958Y547662
X842903Y347071
X842903Y375694
X842903Y390694
X842903Y395694
X843060Y409670
X843060Y505103
X844438Y262819
X845186Y340497
X845186Y388016
X846131Y488804
X846800Y267386
X848060Y572190
X848414Y447190
X851407Y177386
X852981Y531284
X852981Y581284
X853375Y383371
X854438Y296638
X854517Y190930
X854517Y233725
X855225Y586678
X855265Y566717
X856052Y452583
X856442Y420793
X856761Y620103
X856800Y193292
X858375Y533568
X858887Y541284
X859910Y488804
X861288Y55812
X862863Y601284
X863084Y458401
X863414Y536520
X863966Y369631
X864832Y564434
X865344Y245418
X866249Y505103
X867115Y556717
X867627Y374158
X868179Y447483
X868179Y468965
X869195Y409666
X870934Y420260
X873060Y395733
X873578Y458401
X875186Y497701
X877430Y432386
X879714Y370221
X879714Y488804
X879714Y497229
X881092Y407898
X882863Y457977
X886201Y634719
X887076Y256402
X887706Y610615
X890265Y497701
X890895Y347071
X890895Y374749
X891170Y561284
X891643Y546717
X892548Y430142
X892817Y410665
X893460Y619634
X894910Y438410
X895312Y463623
X896682Y413016
X897155Y231284
X897155Y261008
X898575Y625099
X899438Y247544
X899556Y354788
X900942Y612864
X901840Y312977
X901840Y324788
X901926Y664178
X903021Y359945
X903375Y209473
X905422Y279119
X905737Y403568
X906131Y364473
X908375Y367583
X908533Y284493
X908572Y269591
X908980Y451130
X908980Y476498
X910344Y250930
X910659Y362308
X910816Y272111
X912161Y649568
X912903Y365064
X912903Y370103
X913336Y258725
X913493Y336127
X913635Y357779
X913887Y264950
X913929Y246413
X913938Y614175
X913938Y616734
X914299Y323830
X915029Y647308
X915104Y533159
X916564Y289434
X916959Y664173
X918493Y282071
X918808Y479394
X919241Y264001
X919438Y323016
X920029Y90733
X920186Y400300
X920265Y452032
X921867Y464132
X922036Y626599
X922036Y634355
X922312Y405851
X922548Y619001
X923424Y372443
X923447Y279208
X923651Y220654
X923656Y260748
X923862Y338230
X924162Y360024
X924320Y270182
X924596Y248646
X924596Y624355
X924753Y333253
X926840Y253449
X926840Y621835
X927140Y650469
X928021Y448016
X928526Y629491
X929084Y624394
X929701Y614175
X929701Y619293
X929792Y102032
X930777Y398016
X931170Y485339
X931367Y660260
X932470Y251560
X932470Y392977
X933351Y667978
X933966Y532662
X934753Y639985
X935068Y326245
X935068Y400300
X937351Y346442
X937375Y479920
X937641Y448095
X937903Y618174
X938218Y282229
X938690Y271245
X938690Y356048
X938690Y465260
X940265Y613646
X941761Y621835
X942548Y507386
X943218Y260812
X943218Y425339
X943572Y324316
X943572Y417977
X944950Y307386
X945540Y632426
X946222Y222146
X946367Y390969
X946367Y465733
X946643Y155851
X947233Y345457
X950265Y519001
X950855Y248568
X950855Y268568
X951721Y88016
X952548Y591284
X953178Y381953
X953189Y647246
X953769Y443804
X954281Y318489
X954753Y325379
X955422Y293174
X955422Y309867
X955580Y43568
X956328Y379079
X956367Y647229
X959359Y333253
X960265Y55812
X960619Y246245
X961204Y625183
X961564Y212780
X961682Y438410
X962548Y51284
X962903Y251717
X963414Y65339
X963533Y368548
X964408Y393548
X964832Y381323
X964872Y525871
X964896Y364218
X965147Y218548
X965186Y193548
X965265Y133548
X965265Y168548
X965265Y344079
X965303Y33548
X965303Y58548
X965303Y83548
X965303Y108548
X965501Y105142
X965659Y273548
X965934Y318548
X966052Y250969
X966092Y126245
X966144Y113165
X966288Y567505
X966643Y548607
X966682Y554355
X966682Y590379
X966980Y87199
X967259Y37008
X967288Y62040
X967548Y346323
X967621Y322395
X967627Y222146
X967627Y330890
X967704Y172155
X967824Y75930
X967844Y373548
X967872Y276998
X967964Y196916
X968112Y137778
X969477Y483253
X969477Y507544
X970304Y637859
X970501Y141638
X971288Y537542
X971328Y567505
X971328Y625694
X973651Y622544
X975186Y437859
X980048Y525871
X981840Y605930
X982351Y503016
X982351Y517623
X986637Y532693
X987666Y465733
X990055Y511611
X990462Y531284
X991997Y598095
X992904Y462674
X992942Y514788
X994281Y593056
X995816Y537071
X999832Y564473
X999832Y636245
X1000619Y677150
X1001273Y462626
X1006249Y502229
X1010762Y556127
X1011961Y465658
X1015698Y447347
X1018966Y465536
X1022076Y543804
X1022942Y657071
X1024796Y581029
X1025214Y525385
X1025901Y667664
X1026693Y465513
X1031525Y545497
X1031682Y593134
X1033808Y636245
X1034281Y455694
X1034556Y597819
X1034674Y570615
X1036918Y557819
X1036918Y568056
X1038690Y520812
X1039162Y575733
X1040186Y701520
X1040973Y531599
X1041233Y506866
X1041531Y465513
X1044817Y654283
X1046328Y530221
X1047923Y605417
X1049131Y481588
X1049320Y573134
X1049320Y583568
X1049320Y591087
X1050580Y647229
X1051603Y578449
X1052863Y670890
X1054044Y544394
X1056603Y519945
X1058544Y667664
X1058611Y565772
X1059153Y507159
X1059213Y542102
X1060147Y601402
X1061761Y565182
X1062863Y649512
X1065261Y576964
X1066201Y583410
X1070304Y530221
X1070631Y544127
X1072863Y626245
X1074123Y668607
X1074147Y527807
X1076288Y558095
X1076288Y562898
X1078572Y490339
X1078732Y654348
X1080816Y577780
X1085580Y560418
X1085580Y641678
X1086446Y668607
X1086643Y543213
X1088493Y663213
X1088649Y563310
X1088729Y643056
X1088729Y654827
X1089674Y637150
X1089693Y600120
X1089832Y585646
X1091678Y662970
X1096918Y661323
X1097942Y480733
X1099084Y512544
X1101603Y462859
X1102863Y677150
X1106997Y637150
X1110167Y662917
X1110462Y674709
X1111328Y477111
X1111328Y509434
X1111328Y601402
X1114477Y485260
X1115422Y664945
X1116721Y509473
X1120422Y433922
X1126761Y487544
X1126761Y510260
X1127745Y555300
X1129044Y505733
X1130895Y555497
X1135344Y553016
X1140540Y670103
X1141288Y541402
X1141328Y437111
X1142863Y635418
X1143063Y662651
X1146367Y662819
X1148296Y657583
X1149044Y462859
X1152863Y636245
X1155501Y560024
X1158847Y462859
X1159044Y555497
X1160917Y492837
X1161131Y437111
X1161210Y663331
X1166761Y601402
X1167814Y662055
X1169910Y523213
X1170973Y662386
X1172863Y653174
X1173651Y590812
X1174281Y479394
X1175934Y593095
X1184399Y498213
X1184438Y669749
X1184580Y479977
X1186974Y662245
X1189556Y669749
X1190737Y501048
X1192194Y661560
X1194792Y451363
X1198139Y618174
X1198769Y665615
X1202430Y638528
X1202430Y658843
X1203336Y510260
X1204596Y588095
X1205029Y608882
X1205068Y495103
X1206485Y528016
X1207391Y475733
X1208729Y438568
X1209320Y520733
X1210029Y585457
X1210107Y460733
X1210107Y492308
X1212115Y512544
X1213218Y485733
X1213917Y593850
X1213917Y598850
X1214023Y568850
X1214047Y563850
X1214323Y440713
X1214323Y445713
X1214359Y450733
X1214359Y465733
X1214359Y474394
X1214359Y480733
X1214359Y490733
X1214359Y505733
X1214359Y515733
X1214359Y525733
X1214359Y530733
X1214359Y628882
X1214359Y638882
X1214359Y653843
X1222036Y560379
X1222824Y539158
X1225383Y560379
X1225973Y539158
X1226220Y648850
X1226288Y446993
X1226288Y460733
X1226288Y465733
X1226288Y475733
X1226288Y478882
X1226288Y483016
X1226288Y487977
X1226288Y497977
X1226288Y505733
X1226288Y508882
X1226288Y593882
X1226288Y603095
X1226288Y623882
X1226288Y633882
X1226315Y643850
X1226328Y607741
X1226410Y653850
X1226528Y658850
X1228533Y514945
X1228572Y578882
X1228611Y609985
X1229438Y621127
X1230816Y465497
X1230816Y525733
X1231643Y656127
X1231721Y588882
X1232194Y495733
X1233099Y460260
X1233099Y563253
X1234005Y583882
X1234477Y520733
X1236288Y573882
X1236721Y455733
X1238670Y613850
T02
X276133Y281906
X463571Y68970
X463975Y126819
X465462Y209703
X467518Y347267
X468812Y422747
X570263Y578876
X582908Y492424
X590328Y301901
X608029Y578477
X614631Y400763
X615211Y325189
X697571Y382475
X849334Y420793
X900863Y619634
X1032624Y667664
X1059213Y535565
X1066224Y667630
X1083195Y585646
X1167392Y492837
T03
X459619Y239850
X459619Y269850
X519619Y239850
X519619Y269850
T04
X176322Y129096
X176322Y136970
X176322Y144844
X176322Y152718
X176322Y160592
X176322Y168466
X176322Y176340
X176322Y184214
X176322Y192088
X176322Y199962
X176322Y207836
X176322Y215641
X176322Y223515
X176322Y231389
X176322Y239263
X176322Y247137
X176322Y255011
X176322Y262885
X176322Y270759
X176322Y278633
X176322Y286507
X176322Y294381
X184196Y129096
X184196Y136970
X184196Y144844
X184196Y152718
X184196Y160592
X184196Y168466
X184196Y176340
X184196Y184214
X184196Y192088
X184196Y199962
X184196Y207836
X184196Y215641
X184196Y223515
X184196Y231389
X184196Y239263
X184196Y247137
X184196Y255011
X184196Y262885
X184196Y270759
X184196Y278633
X184196Y286507
X184196Y294381
X771275Y309729
X771275Y317603
X779149Y309729
X779149Y317603
X787023Y309729
X787023Y317603
X794897Y309729
X794897Y317603
X802771Y309729
X802771Y317603
X810645Y309729
X810645Y317603
X818519Y309729
X818519Y317603
X826393Y309729
X826393Y317603
X834267Y309729
X834267Y317603
X842141Y309729
X842141Y317603
X850016Y309729
X850016Y317603
T05
X235182Y323158
X254867Y323158
X652652Y514456
X672337Y514456
X932468Y411548
X946937Y254053
X946937Y273738
X952153Y411548
T06
X528651Y625359
X533572Y617485
X538493Y625359
X543414Y617485
X548336Y625359
X553257Y617485
X558178Y625359
X563099Y617485
X568021Y625359
X572942Y617485
X577863Y625359
X582784Y617485
X587706Y625359
X592627Y617485
X597548Y625359
X602470Y617485
X607391Y625359
X612312Y617485
X617233Y625359
X622155Y617485
X627076Y625359
X631997Y617485
X636918Y625359
X641840Y617485
X646761Y625359
X651682Y617485
X656603Y625359
X661525Y617485
X666446Y625359
X671367Y617485
X676288Y625359
T07
X589869Y211799
X589869Y271799
X589920Y141875
X589920Y201875
X599869Y211799
X599869Y271799
X599920Y141875
X599920Y201875
X609869Y211799
X609869Y271799
X609920Y141875
X609920Y201875
X619869Y211799
X619869Y271799
X619920Y141875
X619920Y201875
X629869Y211799
X629869Y271799
X629920Y141875
X629920Y201875
X639869Y211799
X639869Y271799
X639920Y141875
X639920Y201875
X649869Y211799
X649869Y271799
X649920Y141875
X649920Y201875
X659869Y211799
X659869Y271799
X659920Y141875
X659920Y201875
X669869Y211799
X669869Y271799
X669920Y141875
X669920Y201875
X679869Y211799
X679869Y271799
X679920Y141875
X679920Y201875
X689869Y211799
X689869Y271799
X689920Y141875
X689920Y201875
X699869Y211799
X699869Y271799
X699920Y141875
X699920Y201875
X709869Y211799
X709869Y271799
X709920Y141875
X709920Y201875
X719869Y211799
X719869Y271799
X719920Y141875
X719920Y201875
X729869Y211799
X729869Y271799
X729920Y141875
X729920Y201875
X739869Y211799
X739869Y271799
X739920Y141875
X739920Y201875
X749869Y211799
X749869Y271799
X749920Y141875
X749920Y201875
X759869Y211799
X759869Y271799
X759920Y141875
X759920Y201875
X769869Y211799
X769869Y271799
X769920Y141875
X769920Y201875
X779869Y211799
X779869Y271799
X779920Y141875
X779920Y201875
X789869Y211799
X789869Y271799
X789920Y141875
X789920Y201875
T08
X296988Y52363
X296988Y62363
X296988Y72363
X296988Y82363
X296988Y92363
X296988Y102363
X296988Y112363
X296988Y122363
X296988Y132363
X296988Y142363
X296988Y152363
X303715Y216882
X303715Y226882
X303715Y236882
X303715Y246882
X303715Y256882
X303715Y266882
X303715Y276882
X303715Y286882
X303715Y296882
X303715Y306882
X303715Y316882
X306988Y42363
X306988Y52363
X306988Y62363
X306988Y72363
X306988Y82363
X306988Y92363
X306988Y102363
X306988Y112363
X306988Y122363
X306988Y132363
X306988Y142363
X306988Y152363
X306988Y162363
X307091Y410322
X307091Y420322
X307091Y430322
X307091Y440322
X307091Y450322
X307091Y460322
X307091Y470322
X307091Y480322
X307091Y490322
X307091Y500322
X307091Y510322
X313715Y206882
X313715Y216882
X313715Y226882
X313715Y236882
X313715Y246882
X313715Y256882
X313715Y266882
X313715Y276882
X313715Y286882
X313715Y296882
X313715Y306882
X313715Y316882
X313715Y326882
X316988Y42363
X316988Y52363
X316988Y152363
X316988Y162363
X317091Y400322
X317091Y410322
X317091Y420322
X317091Y430322
X317091Y440322
X317091Y450322
X317091Y460322
X317091Y470322
X317091Y480322
X317091Y490322
X317091Y500322
X317091Y510322
X317091Y520322
X323715Y206882
X323715Y216882
X323715Y316882
X323715Y326882
X326988Y42363
X326988Y52363
X326988Y152363
X326988Y162363
X327091Y400322
X327091Y410322
X327091Y510322
X327091Y520322
X333715Y206882
X333715Y216882
X333715Y316882
X333715Y326882
X336988Y42363
X336988Y52363
X336988Y152363
X336988Y162363
X337091Y400322
X337091Y410322
X337091Y510322
X337091Y520322
X343715Y206882
X343715Y216882
X343715Y316882
X343715Y326882
X346988Y42363
X346988Y52363
X346988Y152363
X346988Y162363
X347091Y400322
X347091Y410322
X347091Y510322
X347091Y520322
X353715Y206882
X353715Y216882
X353715Y316882
X353715Y326882
X356988Y42363
X356988Y52363
X356988Y152363
X356988Y162363
X357091Y400322
X357091Y410322
X357091Y510322
X357091Y520322
X363715Y206882
X363715Y216882
X363715Y316882
X363715Y326882
X366988Y42363
X366988Y52363
X366988Y152363
X366988Y162363
X367091Y400322
X367091Y410322
X367091Y510322
X367091Y520322
X373715Y206882
X373715Y216882
X373715Y316882
X373715Y326882
X376988Y42363
X376988Y52363
X376988Y152363
X376988Y162363
X377091Y400322
X377091Y410322
X377091Y510322
X377091Y520322
X383715Y206882
X383715Y216882
X383715Y316882
X383715Y326882
X386988Y42363
X386988Y52363
X386988Y152363
X386988Y162363
X387091Y400322
X387091Y410322
X387091Y510322
X387091Y520322
X393715Y206882
X393715Y216882
X393715Y316882
X393715Y326882
X396988Y42363
X396988Y52363
X396988Y152363
X396988Y162363
X397091Y400322
X397091Y410322
X397091Y510322
X397091Y520322
X403715Y206882
X403715Y216882
X403715Y316882
X403715Y326882
X406988Y42363
X406988Y52363
X406988Y62363
X406988Y72363
X406988Y82363
X406988Y92363
X406988Y102363
X406988Y112363
X406988Y122363
X406988Y132363
X406988Y142363
X406988Y152363
X406988Y162363
X407091Y400322
X407091Y410322
X407091Y510322
X407091Y520322
X413715Y206882
X413715Y216882
X413715Y226882
X413715Y236882
X413715Y246882
X413715Y256882
X413715Y266882
X413715Y276882
X413715Y286882
X413715Y296882
X413715Y306882
X413715Y316882
X413715Y326882
X416988Y52363
X416988Y62363
X416988Y72363
X416988Y82363
X416988Y92363
X416988Y102363
X416988Y112363
X416988Y122363
X416988Y132363
X416988Y142363
X416988Y152363
X417091Y400322
X417091Y410322
X417091Y420322
X417091Y430322
X417091Y440322
X417091Y450322
X417091Y460322
X417091Y470322
X417091Y480322
X417091Y490322
X417091Y500322
X417091Y510322
X417091Y520322
X423715Y216882
X423715Y226882
X423715Y236882
X423715Y246882
X423715Y256882
X423715Y266882
X423715Y276882
X423715Y286882
X423715Y296882
X423715Y306882
X423715Y316882
X427091Y410322
X427091Y420322
X427091Y430322
X427091Y440322
X427091Y450322
X427091Y460322
X427091Y470322
X427091Y480322
X427091Y490322
X427091Y500322
X427091Y510322
X648591Y330241
X648591Y340241
X648591Y350241
X658591Y320241
X658591Y330241
X658591Y340241
X658591Y350241
X658591Y360241
X668591Y320241
X668591Y330241
X668591Y350241
X668591Y360241
X678591Y320241
X678591Y330241
X678591Y340241
X678591Y350241
X678591Y360241
X688591Y330241
X688591Y340241
X688591Y350241
X715048Y585776
X715048Y595776
X715048Y605776
X715048Y615776
X715048Y625776
X715048Y635776
X725048Y575776
X725048Y585776
X725048Y595776
X725048Y605776
X725048Y615776
X725048Y625776
X725048Y635776
X725048Y645776
X735048Y575776
X735048Y585776
X735048Y635776
X735048Y645776
X745048Y575776
X745048Y585776
X745048Y635776
X745048Y645776
X755048Y575776
X755048Y585776
X755048Y635776
X755048Y645776
X765048Y575776
X765048Y585776
X765048Y635776
X765048Y645776
X775048Y575776
X775048Y585776
X775048Y595776
X775048Y605776
X775048Y615776
X775048Y625776
X775048Y635776
X775048Y645776
X785048Y585776
X785048Y595776
X785048Y605776
X785048Y615776
X785048Y625776
X785048Y635776
X875732Y524456
X875732Y534456
X875732Y544456
X875732Y554456
X875732Y564456
X875732Y574456
X875732Y584456
X885732Y514456
X885732Y524456
X885732Y534456
X885732Y544456
X885732Y554456
X885732Y564456
X885732Y574456
X885732Y584456
X885732Y594456
X895732Y514456
X895732Y524456
X895732Y584456
X895732Y594456
X905732Y514456
X905732Y524456
X905732Y584456
X905732Y594456
X915732Y514456
X915732Y524456
X915732Y584456
X915732Y594456
X925732Y514456
X925732Y524456
X925732Y584456
X925732Y594456
X935732Y514456
X935732Y524456
X935732Y584456
X935732Y594456
X945732Y514456
X945732Y524456
X945732Y534456
X945732Y544456
X945732Y554456
X945732Y564456
X945732Y574456
X945732Y584456
X945732Y594456
X955732Y524456
X955732Y534456
X955732Y544456
X955732Y554456
X955732Y564456
X955732Y574456
X955732Y584456
X1057076Y439321
X1067076Y439321
X1077076Y439321
X1087076Y439321
X1097076Y439321
X1104486Y533232
X1104486Y543232
X1104486Y553232
X1104486Y563232
X1104486Y573232
X1104486Y583232
X1114486Y523232
X1114486Y533232
X1114486Y543232
X1114486Y553232
X1114486Y563232
X1114486Y573232
X1114486Y583232
X1114486Y593232
X1124486Y523232
X1124486Y533232
X1124486Y583232
X1124486Y593232
X1134486Y523232
X1134486Y533232
X1134486Y583232
X1134486Y593232
X1144486Y523232
X1144486Y533232
X1144486Y583232
X1144486Y593232
X1154486Y523232
X1154486Y533232
X1154486Y583232
X1154486Y593232
X1164486Y523232
X1164486Y533232
X1164486Y543232
X1164486Y553232
X1164486Y563232
X1164486Y573232
X1164486Y583232
X1164486Y593232
X1174486Y533232
X1174486Y543232
X1174486Y553232
X1174486Y563232
X1174486Y573232
X1174486Y583232
T10
X1062509Y457052
X1062601Y480853
X1072351Y457052
X1072444Y480853
X1082194Y457052
X1082286Y480853
X1092036Y457052
X1092129Y480853
X1126397Y445461
X1136397Y445461
X1146397Y445461
X1170652Y445576
X1180652Y445576
X1190652Y445576
T11
X1027923Y621311
X1027923Y631311
X1037923Y621311
X1037923Y631311
X1047923Y621311
X1047923Y631311
X1057923Y621311
X1057923Y631311
X1067923Y621311
X1067923Y631311
X1077923Y621311
X1077923Y631311
X1087923Y621311
X1087923Y631311
X1097923Y621311
X1097923Y631311
X1107923Y621311
X1107923Y631311
X1117923Y621311
X1117923Y631311
X1127923Y621311
X1127923Y631311
X1137923Y621311
X1137923Y631311
X1147923Y621311
X1147923Y631311
X1157923Y621311
X1157923Y631311
X1167923Y621311
X1167923Y631311
X1177923Y621311
X1177923Y631311
X1187923Y621311
X1187923Y631311
T12
X638755Y682765
X644207Y693946
X649660Y682765
X655113Y693946
X660566Y682765
X666019Y693946
X671471Y682765
X676924Y693946
X682377Y682765
X687830Y693946
X693282Y682765
X698735Y693946
X704188Y682765
X709641Y693946
X715093Y682765
X720546Y693946
X725999Y682765
X731452Y693946
X736904Y682765
X742357Y693946
X747810Y682765
X753263Y693946
X758715Y682765
X764168Y693946
X769621Y682765
X864327Y682378
X869780Y693560
X875232Y682378
X880685Y693560
X886138Y682378
X891591Y693560
X897043Y682378
X902496Y693560
X907949Y682378
X913402Y693560
X918854Y682378
X924307Y693560
X929760Y682378
X935213Y693560
X940666Y682378
X946118Y693560
X951571Y682378
X957024Y693560
X962477Y682378
X967929Y693560
X973382Y682378
X978835Y693560
X984288Y682378
X989740Y693560
X995193Y682378
X1088816Y682827
X1094269Y694008
X1099721Y682827
X1105174Y694008
X1110627Y682827
X1116080Y694008
X1121532Y682827
X1126985Y694008
X1132438Y682827
X1137891Y694008
X1143344Y682827
X1148796Y694008
X1154249Y682827
X1159702Y694008
X1165155Y682827
X1170607Y694008
X1176060Y682827
X1181513Y694008
X1186966Y682827
X1192418Y694008
X1197871Y682827
X1203324Y694008
X1208777Y682827
T13
X95041Y90849
X105041Y90849
X115041Y90849
X450783Y82053
X450783Y92053
X450783Y102053
X579892Y118561
X589892Y118561
X599892Y118561
X954443Y348825
X954443Y358825
X954443Y368825
T14
X24302Y465749
X24302Y487402
X266428Y451969
X266428Y487402
T15
X837918Y146479
X837918Y226479
X867918Y146479
X877918Y226479
X887918Y146479
X917918Y226479
T17
X23195Y564038
X23195Y623093
T18
X251800Y710260
X261800Y630260
X261800Y645260
X261800Y660260
X271800Y710260
T19
X611589Y688355
X796786Y688355
X837162Y687969
X1022358Y687969
X1061651Y688418
X1235942Y688418
T20
X776367Y458571
T21
X23612Y31518
X893324Y31455
T09
G00X516893Y677080
M15
G01X516893Y682277
X516972Y682277
X516972Y677080
X516893Y677080
M17
G00X568158Y677170
M15
G01X568158Y682367
X568236Y682367
X568236Y677170
X568158Y677170
M17
T10
G00X40984Y676497
M15
G01X40984Y670001
X40196Y670001
X40196Y676497
X40984Y676497
M17
G00X76417Y676497
M15
G01X76417Y670001
X75630Y670001
X75630Y676497
X76417Y676497
M17
T16
G00X521071Y697391
M15
G01X512795Y697391
X512795Y697399
X521071Y697399
X521071Y697391
M17
G00X572335Y697481
M15
G01X564059Y697481
X564059Y697489
X572335Y697489
X572335Y697481
M17
M30
