M48
FMAT,1
INCH
T01C00.02559
T02C00.03902
T03C00.05512
T04C00.06496
T05C00.06693
T06C00.08661
T07C00.09055
T08C00.09350
T09C00.09449
T10C00.10236
T11C00.11811
T12C00.12205
T13C00.23031
%
G81
M70
T01
X14317Y116146
X14317Y297248
T02
X526694Y524646
X530694Y504646
X534694Y524646
T03
X121564Y527131
X121564Y662564
X495580Y527131
X495580Y662564
X708661Y537311
X844094Y537311
T04
X1230698Y432012
X1230698Y544414
X1230698Y555149
X1230698Y667551
T05
X87116Y127662
X87116Y285772
T06
X500186Y711166
X533645Y711165
X551451Y711256
X584909Y711255
T07
X98927Y127662
X98927Y285772
T08
X520694Y504646
X520694Y517146
X540694Y504646
X540694Y517146
T09
X739988Y600749
X739988Y620822
X760125Y600749
X760125Y620840
X905860Y544643
X905860Y564337
X925459Y564337
X925588Y544643
X1129426Y548205
X1129426Y568278
X1149563Y548205
X1149563Y568296
T10
X23195Y593566
T11
X25433Y698839
X76614Y698839
T12
X122036Y698843
T13
X339518Y85738
X339518Y121413
X344665Y249412
X344970Y284687
X348041Y442852
X348346Y478127
X374793Y85738
X374793Y121108
X380340Y249412
X380340Y284687
X383716Y442852
X383716Y478127
M30
