G04 GENERATED BY PULSONIX 10.0 GERBER.DLL 7250*
G04 #@! TF.GenerationSoftware,Pulsonix,Pulsonix,10.0.7250*
G04 #@! TF.CreationDate,2019-09-06T07:02:10--1:00*
G04 #@! TF.Part,Single*
%FSLAX25Y25*%
%LPD*%
%MOIN*%
G04 #@! TF.FileFunction,Copper,L1,Top*
G04 #@! TF.FilePolarity,Positive*
G04 #@! TA.AperFunction,OtherCopper*
%ADD10C,0.00591*%
G04 #@! TA.AperFunction,WasherPad*
%ADD311C,0.19685X0.13780*%
X0Y0D02*
D02*
D10*
X233957Y-41339D02*
Y-44980D01*
X250338*
X250556Y-44966*
X250771Y-44923*
X250978Y-44853*
X251174Y-44756*
X251356Y-44635*
X251521Y-44490*
X259057Y-36954*
X259201Y-36789*
X259323Y-36607*
X259420Y-36411*
X259490Y-36204*
X259533Y-35989*
X259547Y-35771*
Y53150*
X259532Y53625*
X259487Y54099*
X259413Y54570*
X259309Y55034*
X259176Y55492*
X259015Y55939*
X258826Y56376*
X258610Y56801*
X258367Y57210*
X258100Y57604*
X257808Y57980*
X257493Y58338*
X257157Y58674*
X256799Y58989*
X256423Y59281*
X256029Y59548*
X255620Y59791*
X255195Y60007*
X254759Y60196*
X254311Y60357*
X253853Y60490*
X253389Y60594*
X252918Y60669*
X252444Y60713*
X251969Y60728*
X-1499968*
X-1500444Y60713*
X-1500918Y60669*
X-1501388Y60594*
X-1501853Y60490*
X-1502310Y60357*
X-1502758Y60196*
X-1503195Y60007*
X-1503619Y59791*
X-1504029Y59549*
X-1504423Y59281*
X-1504799Y58989*
X-1505156Y58674*
X-1505493Y58338*
X-1505807Y57981*
X-1506099Y57604*
X-1506367Y57211*
X-1506609Y56801*
X-1506825Y56377*
X-1507014Y55940*
X-1507176Y55492*
X-1507309Y55034*
X-1507412Y54570*
X-1507487Y54100*
X-1507532Y53626*
X-1507547Y53150*
Y-22541*
X-1507532Y-22759*
X-1507490Y-22974*
X-1507419Y-23181*
X-1507323Y-23378*
X-1507201Y-23560*
X-1507057Y-23724*
X-1506892Y-23869*
X-1506710Y-23990*
X-1506514Y-24087*
X-1506307Y-24157*
X-1506092Y-24200*
X-1505874Y-24214*
X-1494062*
X-1493639Y-24229*
X-1493218Y-24272*
X-1492801Y-24344*
X-1492390Y-24444*
X-1491986Y-24572*
X-1491592Y-24728*
X-1491210Y-24909*
X-1490841Y-25117*
X-1490487Y-25349*
X-1490149Y-25605*
X-1489830Y-25883*
X-1489531Y-26183*
X-1489252Y-26502*
X-1488997Y-26839*
X-1488764Y-27193*
X-1488557Y-27562*
X-1488375Y-27945*
X-1488220Y-28339*
X-1488092Y-28742*
X-1487991Y-29154*
X-1487919Y-29571*
X-1487876Y-29992*
X-1487862Y-30415*
Y-37402*
X-1487847Y-37620*
X-1487805Y-37835*
X-1487734Y-38042*
X-1487637Y-38238*
X-1487516Y-38420*
X-1487372Y-38585*
X-1487207Y-38729*
X-1487025Y-38851*
X-1486829Y-38947*
X-1486622Y-39018*
X-1486407Y-39060*
X-1486188Y-39075*
X-1256507*
X-1256361Y-38566*
X-1256186Y-38066*
X-1255983Y-37578*
X-1255752Y-37102*
X-1255493Y-36640*
X-1255209Y-36193*
X-1254899Y-35764*
X-1254564Y-35354*
X-1254207Y-34964*
X-1253827Y-34595*
X-1253427Y-34248*
X-1253008Y-33925*
X-1252570Y-33627*
X-1252116Y-33355*
X-1251647Y-33110*
X-1251165Y-32892*
X-1250671Y-32702*
X-1250166Y-32541*
X-1249654Y-32410*
X-1249134Y-32308*
X-1248610Y-32237*
X-1248082Y-32196*
X-1247553Y-32185*
X-1247024Y-32206*
X-1246497Y-32256*
X-1245974Y-32337*
X-1245456Y-32449*
X-1244946Y-32590*
X-1244445Y-32760*
X-1243954Y-32959*
X-1243476Y-33186*
X-1243012Y-33440*
X-1242563Y-33720*
X-1242131Y-34026*
X-1241718Y-34357*
X-1241324Y-34711*
X-1240952Y-35087*
X-1240601Y-35484*
X-1240275Y-35900*
X-1239973Y-36335*
X-1239696Y-36786*
X-1239447Y-37253*
X-1239224Y-37733*
X-1239030Y-38226*
X-1238864Y-38729*
X-1238728Y-39240*
X-1238622Y-39759*
X-1238545Y-40282*
X-1238499Y-40810*
X-1238484Y-41339*
Y-44980*
X-972343*
Y-41339*
X-972327Y-40806*
X-972281Y-40276*
X-972203Y-39749*
X-972096Y-39228*
X-971958Y-38713*
X-971791Y-38208*
X-971594Y-37713*
X-971369Y-37230*
X-971116Y-36762*
X-970837Y-36309*
X-970531Y-35872*
X-970201Y-35455*
X-969847Y-35057*
X-969471Y-34680*
X-969073Y-34326*
X-968655Y-33996*
X-968219Y-33691*
X-967766Y-33411*
X-967297Y-33159*
X-966815Y-32934*
X-966320Y-32737*
X-965814Y-32570*
X-965300Y-32432*
X-964778Y-32324*
X-964252Y-32247*
X-963721Y-32200*
X-963189Y-32185*
X-962657Y-32200*
X-962126Y-32247*
X-961599Y-32324*
X-961078Y-32432*
X-960564Y-32570*
X-960058Y-32737*
X-959563Y-32934*
X-959081Y-33159*
X-958612Y-33411*
X-958159Y-33691*
X-957723Y-33996*
X-957305Y-34326*
X-956907Y-34680*
X-956531Y-35057*
X-956177Y-35455*
X-955847Y-35872*
X-955541Y-36309*
X-955262Y-36762*
X-955009Y-37230*
X-954784Y-37713*
X-954587Y-38208*
X-954420Y-38713*
X-954282Y-39228*
X-954174Y-39749*
X-954097Y-40276*
X-954051Y-40806*
X-954035Y-41339*
Y-44980*
X-531398*
Y-41339*
X-531382Y-40806*
X-531336Y-40276*
X-531259Y-39749*
X-531151Y-39228*
X-531013Y-38713*
X-530846Y-38208*
X-530649Y-37713*
X-530424Y-37230*
X-530171Y-36762*
X-529892Y-36309*
X-529586Y-35872*
X-529256Y-35455*
X-528902Y-35057*
X-528526Y-34680*
X-528128Y-34326*
X-527710Y-33996*
X-527274Y-33691*
X-526821Y-33411*
X-526352Y-33159*
X-525870Y-32934*
X-525375Y-32737*
X-524869Y-32570*
X-524355Y-32432*
X-523834Y-32324*
X-523307Y-32247*
X-522776Y-32200*
X-522244Y-32185*
X-521712Y-32200*
X-521181Y-32247*
X-520655Y-32324*
X-520133Y-32432*
X-519619Y-32570*
X-519113Y-32737*
X-518618Y-32934*
X-518136Y-33159*
X-517667Y-33411*
X-517214Y-33691*
X-516778Y-33996*
X-516360Y-34326*
X-515962Y-34680*
X-515586Y-35057*
X-515232Y-35455*
X-514902Y-35872*
X-514596Y-36309*
X-514317Y-36762*
X-514064Y-37230*
X-513839Y-37713*
X-513642Y-38208*
X-513475Y-38713*
X-513337Y-39228*
X-513230Y-39749*
X-513152Y-40276*
X-513106Y-40806*
X-513091Y-41339*
Y-44980*
X-210531*
Y-41339*
X-210516Y-40806*
X-210470Y-40276*
X-210392Y-39749*
X-210285Y-39228*
X-210147Y-38713*
X-209979Y-38208*
X-209783Y-37713*
X-209558Y-37230*
X-209305Y-36762*
X-209026Y-36309*
X-208720Y-35872*
X-208390Y-35455*
X-208036Y-35057*
X-207660Y-34680*
X-207262Y-34326*
X-206844Y-33996*
X-206408Y-33691*
X-205955Y-33411*
X-205486Y-33159*
X-205004Y-32934*
X-204509Y-32737*
X-204003Y-32570*
X-203489Y-32432*
X-202967Y-32324*
X-202441Y-32247*
X-201910Y-32200*
X-201378Y-32185*
X-200846Y-32200*
X-200315Y-32247*
X-199788Y-32324*
X-199267Y-32432*
X-198753Y-32570*
X-198247Y-32737*
X-197752Y-32934*
X-197270Y-33159*
X-196801Y-33411*
X-196348Y-33691*
X-195912Y-33996*
X-195494Y-34326*
X-195096Y-34680*
X-194720Y-35057*
X-194366Y-35455*
X-194036Y-35872*
X-193730Y-36309*
X-193451Y-36762*
X-193198Y-37230*
X-192973Y-37713*
X-192776Y-38208*
X-192609Y-38713*
X-192471Y-39228*
X-192363Y-39749*
X-192286Y-40276*
X-192240Y-40806*
X-192224Y-41339*
Y-44980*
X215650*
Y-41339*
X215665Y-40806*
X215711Y-40276*
X215789Y-39749*
X215896Y-39228*
X216034Y-38713*
X216202Y-38208*
X216398Y-37713*
X216623Y-37230*
X216876Y-36762*
X217155Y-36309*
X217461Y-35872*
X217791Y-35455*
X218145Y-35057*
X218522Y-34680*
X218919Y-34326*
X219337Y-33996*
X219773Y-33691*
X220226Y-33411*
X220695Y-33159*
X221178Y-32934*
X221672Y-32737*
X222178Y-32570*
X222692Y-32432*
X223214Y-32324*
X223741Y-32247*
X224271Y-32200*
X224803Y-32185*
X225335Y-32200*
X225866Y-32247*
X226393Y-32324*
X226914Y-32432*
X227429Y-32570*
X227934Y-32737*
X228429Y-32934*
X228911Y-33159*
X229380Y-33411*
X229833Y-33691*
X230269Y-33996*
X230687Y-34326*
X231085Y-34680*
X231461Y-35057*
X231815Y-35455*
X232146Y-35872*
X232451Y-36309*
X232730Y-36762*
X232983Y-37230*
X233208Y-37713*
X233405Y-38208*
X233572Y-38713*
X233710Y-39228*
X233818Y-39749*
X233895Y-40276*
X233941Y-40806*
X233957Y-41339*
X233958Y-41340D02*
X233957Y-41339D02*
G36*
Y-44980D01*
X250338D01*
X250556Y-44966D01*
X250771Y-44923D01*
X250978Y-44853D01*
X251174Y-44756D01*
X251356Y-44635D01*
X251521Y-44490D01*
X259057Y-36954D01*
X259201Y-36789D01*
X259323Y-36607D01*
X259420Y-36411D01*
X259490Y-36204D01*
X259533Y-35989D01*
X259547Y-35771D01*
Y53150D01*
X259532Y53625D01*
X259487Y54099D01*
X259413Y54570D01*
X259309Y55034D01*
X259176Y55492D01*
X259015Y55939D01*
X258826Y56376D01*
X258610Y56801D01*
X258367Y57210D01*
X258100Y57604D01*
X257808Y57980D01*
X257493Y58338D01*
X257157Y58674D01*
X256799Y58989D01*
X256423Y59281D01*
X256029Y59548D01*
X255620Y59791D01*
X255195Y60007D01*
X254759Y60196D01*
X254311Y60357D01*
X253853Y60490D01*
X253389Y60594D01*
X252918Y60669D01*
X252444Y60713D01*
X251969Y60728D01*
X-1499968D01*
X-1500444Y60713D01*
X-1500918Y60669D01*
X-1501388Y60594D01*
X-1501853Y60490D01*
X-1502310Y60357D01*
X-1502758Y60196D01*
X-1503195Y60007D01*
X-1503619Y59791D01*
X-1504029Y59549D01*
X-1504423Y59281D01*
X-1504799Y58989D01*
X-1505156Y58674D01*
X-1505493Y58338D01*
X-1505807Y57981D01*
X-1506099Y57604D01*
X-1506367Y57211D01*
X-1506609Y56801D01*
X-1506825Y56377D01*
X-1507014Y55940D01*
X-1507176Y55492D01*
X-1507309Y55034D01*
X-1507412Y54570D01*
X-1507487Y54100D01*
X-1507532Y53626D01*
X-1507547Y53150D01*
Y-22541D01*
X-1507532Y-22759D01*
X-1507490Y-22974D01*
X-1507419Y-23181D01*
X-1507323Y-23378D01*
X-1507201Y-23560D01*
X-1507057Y-23724D01*
X-1506892Y-23869D01*
X-1506710Y-23990D01*
X-1506514Y-24087D01*
X-1506307Y-24157D01*
X-1506092Y-24200D01*
X-1505874Y-24214D01*
X-1494062D01*
X-1493639Y-24229D01*
X-1493218Y-24272D01*
X-1492801Y-24344D01*
X-1492390Y-24444D01*
X-1491986Y-24572D01*
X-1491592Y-24728D01*
X-1491210Y-24909D01*
X-1490841Y-25117D01*
X-1490487Y-25349D01*
X-1490149Y-25605D01*
X-1489830Y-25883D01*
X-1489531Y-26183D01*
X-1489252Y-26502D01*
X-1488997Y-26839D01*
X-1488764Y-27193D01*
X-1488557Y-27562D01*
X-1488375Y-27945D01*
X-1488220Y-28339D01*
X-1488092Y-28742D01*
X-1487991Y-29154D01*
X-1487919Y-29571D01*
X-1487876Y-29992D01*
X-1487862Y-30415D01*
Y-37402D01*
X-1487847Y-37620D01*
X-1487805Y-37835D01*
X-1487734Y-38042D01*
X-1487637Y-38238D01*
X-1487516Y-38420D01*
X-1487372Y-38585D01*
X-1487207Y-38729D01*
X-1487025Y-38851D01*
X-1486829Y-38947D01*
X-1486622Y-39018D01*
X-1486407Y-39060D01*
X-1486188Y-39075D01*
X-1256507D01*
X-1256361Y-38566D01*
X-1256186Y-38066D01*
X-1255983Y-37578D01*
X-1255752Y-37102D01*
X-1255493Y-36640D01*
X-1255209Y-36193D01*
X-1254899Y-35764D01*
X-1254564Y-35354D01*
X-1254207Y-34964D01*
X-1253827Y-34595D01*
X-1253427Y-34248D01*
X-1253008Y-33925D01*
X-1252570Y-33627D01*
X-1252116Y-33355D01*
X-1251647Y-33110D01*
X-1251165Y-32892D01*
X-1250671Y-32702D01*
X-1250166Y-32541D01*
X-1249654Y-32410D01*
X-1249134Y-32308D01*
X-1248610Y-32237D01*
X-1248082Y-32196D01*
X-1247553Y-32185D01*
X-1247024Y-32206D01*
X-1246497Y-32256D01*
X-1245974Y-32337D01*
X-1245456Y-32449D01*
X-1244946Y-32590D01*
X-1244445Y-32760D01*
X-1243954Y-32959D01*
X-1243476Y-33186D01*
X-1243012Y-33440D01*
X-1242563Y-33720D01*
X-1242131Y-34026D01*
X-1241718Y-34357D01*
X-1241324Y-34711D01*
X-1240952Y-35087D01*
X-1240601Y-35484D01*
X-1240275Y-35900D01*
X-1239973Y-36335D01*
X-1239696Y-36786D01*
X-1239447Y-37253D01*
X-1239224Y-37733D01*
X-1239030Y-38226D01*
X-1238864Y-38729D01*
X-1238728Y-39240D01*
X-1238622Y-39759D01*
X-1238545Y-40282D01*
X-1238499Y-40810D01*
X-1238484Y-41339D01*
Y-44980D01*
X-972343D01*
Y-41339D01*
X-972327Y-40806D01*
X-972281Y-40276D01*
X-972203Y-39749D01*
X-972096Y-39228D01*
X-971958Y-38713D01*
X-971791Y-38208D01*
X-971594Y-37713D01*
X-971369Y-37230D01*
X-971116Y-36762D01*
X-970837Y-36309D01*
X-970531Y-35872D01*
X-970201Y-35455D01*
X-969847Y-35057D01*
X-969471Y-34680D01*
X-969073Y-34326D01*
X-968655Y-33996D01*
X-968219Y-33691D01*
X-967766Y-33411D01*
X-967297Y-33159D01*
X-966815Y-32934D01*
X-966320Y-32737D01*
X-965814Y-32570D01*
X-965300Y-32432D01*
X-964778Y-32324D01*
X-964252Y-32247D01*
X-963721Y-32200D01*
X-963189Y-32185D01*
X-962657Y-32200D01*
X-962126Y-32247D01*
X-961599Y-32324D01*
X-961078Y-32432D01*
X-960564Y-32570D01*
X-960058Y-32737D01*
X-959563Y-32934D01*
X-959081Y-33159D01*
X-958612Y-33411D01*
X-958159Y-33691D01*
X-957723Y-33996D01*
X-957305Y-34326D01*
X-956907Y-34680D01*
X-956531Y-35057D01*
X-956177Y-35455D01*
X-955847Y-35872D01*
X-955541Y-36309D01*
X-955262Y-36762D01*
X-955009Y-37230D01*
X-954784Y-37713D01*
X-954587Y-38208D01*
X-954420Y-38713D01*
X-954282Y-39228D01*
X-954174Y-39749D01*
X-954097Y-40276D01*
X-954051Y-40806D01*
X-954035Y-41339D01*
Y-44980D01*
X-531398D01*
Y-41339D01*
X-531382Y-40806D01*
X-531336Y-40276D01*
X-531259Y-39749D01*
X-531151Y-39228D01*
X-531013Y-38713D01*
X-530846Y-38208D01*
X-530649Y-37713D01*
X-530424Y-37230D01*
X-530171Y-36762D01*
X-529892Y-36309D01*
X-529586Y-35872D01*
X-529256Y-35455D01*
X-528902Y-35057D01*
X-528526Y-34680D01*
X-528128Y-34326D01*
X-527710Y-33996D01*
X-527274Y-33691D01*
X-526821Y-33411D01*
X-526352Y-33159D01*
X-525870Y-32934D01*
X-525375Y-32737D01*
X-524869Y-32570D01*
X-524355Y-32432D01*
X-523834Y-32324D01*
X-523307Y-32247D01*
X-522776Y-32200D01*
X-522244Y-32185D01*
X-521712Y-32200D01*
X-521181Y-32247D01*
X-520655Y-32324D01*
X-520133Y-32432D01*
X-519619Y-32570D01*
X-519113Y-32737D01*
X-518618Y-32934D01*
X-518136Y-33159D01*
X-517667Y-33411D01*
X-517214Y-33691D01*
X-516778Y-33996D01*
X-516360Y-34326D01*
X-515962Y-34680D01*
X-515586Y-35057D01*
X-515232Y-35455D01*
X-514902Y-35872D01*
X-514596Y-36309D01*
X-514317Y-36762D01*
X-514064Y-37230D01*
X-513839Y-37713D01*
X-513642Y-38208D01*
X-513475Y-38713D01*
X-513337Y-39228D01*
X-513230Y-39749D01*
X-513152Y-40276D01*
X-513106Y-40806D01*
X-513091Y-41339D01*
Y-44980D01*
X-210531D01*
Y-41339D01*
X-210516Y-40806D01*
X-210470Y-40276D01*
X-210392Y-39749D01*
X-210285Y-39228D01*
X-210147Y-38713D01*
X-209979Y-38208D01*
X-209783Y-37713D01*
X-209558Y-37230D01*
X-209305Y-36762D01*
X-209026Y-36309D01*
X-208720Y-35872D01*
X-208390Y-35455D01*
X-208036Y-35057D01*
X-207660Y-34680D01*
X-207262Y-34326D01*
X-206844Y-33996D01*
X-206408Y-33691D01*
X-205955Y-33411D01*
X-205486Y-33159D01*
X-205004Y-32934D01*
X-204509Y-32737D01*
X-204003Y-32570D01*
X-203489Y-32432D01*
X-202967Y-32324D01*
X-202441Y-32247D01*
X-201910Y-32200D01*
X-201378Y-32185D01*
X-200846Y-32200D01*
X-200315Y-32247D01*
X-199788Y-32324D01*
X-199267Y-32432D01*
X-198753Y-32570D01*
X-198247Y-32737D01*
X-197752Y-32934D01*
X-197270Y-33159D01*
X-196801Y-33411D01*
X-196348Y-33691D01*
X-195912Y-33996D01*
X-195494Y-34326D01*
X-195096Y-34680D01*
X-194720Y-35057D01*
X-194366Y-35455D01*
X-194036Y-35872D01*
X-193730Y-36309D01*
X-193451Y-36762D01*
X-193198Y-37230D01*
X-192973Y-37713D01*
X-192776Y-38208D01*
X-192609Y-38713D01*
X-192471Y-39228D01*
X-192363Y-39749D01*
X-192286Y-40276D01*
X-192240Y-40806D01*
X-192224Y-41339D01*
Y-44980D01*
X215650D01*
Y-41339D01*
X215665Y-40806D01*
X215711Y-40276D01*
X215789Y-39749D01*
X215896Y-39228D01*
X216034Y-38713D01*
X216202Y-38208D01*
X216398Y-37713D01*
X216623Y-37230D01*
X216876Y-36762D01*
X217155Y-36309D01*
X217461Y-35872D01*
X217791Y-35455D01*
X218145Y-35057D01*
X218522Y-34680D01*
X218919Y-34326D01*
X219337Y-33996D01*
X219773Y-33691D01*
X220226Y-33411D01*
X220695Y-33159D01*
X221178Y-32934D01*
X221672Y-32737D01*
X222178Y-32570D01*
X222692Y-32432D01*
X223214Y-32324D01*
X223741Y-32247D01*
X224271Y-32200D01*
X224803Y-32185D01*
X225335Y-32200D01*
X225866Y-32247D01*
X226393Y-32324D01*
X226914Y-32432D01*
X227429Y-32570D01*
X227934Y-32737D01*
X228429Y-32934D01*
X228911Y-33159D01*
X229380Y-33411D01*
X229833Y-33691D01*
X230269Y-33996D01*
X230687Y-34326D01*
X231085Y-34680D01*
X231461Y-35057D01*
X231815Y-35455D01*
X232146Y-35872D01*
X232451Y-36309D01*
X232730Y-36762D01*
X232983Y-37230D01*
X233208Y-37713D01*
X233405Y-38208D01*
X233572Y-38713D01*
X233710Y-39228D01*
X233818Y-39749D01*
X233895Y-40276D01*
X233941Y-40806D01*
X233957Y-41339D01*
G37*
D02*
D311*
X-1253346Y-3937D03*
X-1154921D03*
X-1113189D03*
X-1014764D03*
X-985000D03*
X-799803D03*
X-760591D03*
X-575394D03*
X-535000D03*
X-349803D03*
X-165236D03*
X-34055D03*
X0Y0D02*
M02*
