G04 GENERATED BY PULSONIX 10.0 GERBER.DLL 7250*
G04 #@! TF.GenerationSoftware,Pulsonix,Pulsonix,10.0.7250*
G04 #@! TF.CreationDate,2019-09-22T12:23:25--1:00*
G04 #@! TF.Part,Single*
%FSLAX25Y25*%
%LPD*%
%MOIN*%
G04 #@! TF.FileFunction,Soldermask,Top*
G04 #@! TF.FilePolarity,Negative*
G04 #@! TA.AperFunction,SMDPad*
%AMT18*0 Rounded Rectangle pad*4,1,28,0.00787,0.01575,-0.00787,0.01575,-0.00889,0.01561,-0.00984,0.01522,-0.01066,0.01459,-0.01128,0.01378,-0.01168,0.01283,-0.01181,0.01181,-0.01181,-0.01181,-0.01168,-0.01283,-0.01128,-0.01378,-0.01066,-0.01459,-0.00984,-0.01522,-0.00889,-0.01561,-0.00787,-0.01575,0.00787,-0.01575,0.00889,-0.01561,0.00984,-0.01522,0.01066,-0.01459,0.01128,-0.01378,0.01168,-0.01283,0.01181,-0.01181,0.01181,0.01181,0.01168,0.01283,0.01128,0.01378,0.01066,0.01459,0.00984,0.01522,0.00889,0.01561,0.00787,0.01575,0*%
%ADD18T18*%
%AMT19*0 Rounded Rectangle pad*4,1,28,0.00787,0.01280,-0.00787,0.01280,-0.00889,0.01266,-0.00984,0.01227,-0.01066,0.01164,-0.01128,0.01083,-0.01168,0.00988,-0.01181,0.00886,-0.01181,-0.00886,-0.01168,-0.00988,-0.01128,-0.01083,-0.01066,-0.01164,-0.00984,-0.01227,-0.00889,-0.01266,-0.00787,-0.01280,0.00787,-0.01280,0.00889,-0.01266,0.00984,-0.01227,0.01066,-0.01164,0.01128,-0.01083,0.01168,-0.00988,0.01181,-0.00886,0.01181,0.00886,0.01168,0.00988,0.01128,0.01083,0.01066,0.01164,0.00984,0.01227,0.00889,0.01266,0.00787,0.01280,0*%
%ADD19T19*%
%AMT71*0 Rounded Rectangle pad*4,1,36,0.01382,0.02760,-0.01382,0.02760,-0.01536,0.02745,-0.01683,0.02700,-0.01820,0.02627,-0.01939,0.02529,-0.02037,0.02410,-0.02110,0.02274,-0.02154,0.02126,-0.02170,0.01973,-0.02170,-0.01973,-0.02154,-0.02126,-0.02110,-0.02274,-0.02037,-0.02410,-0.01939,-0.02529,-0.01820,-0.02627,-0.01683,-0.02700,-0.01536,-0.02745,-0.01382,-0.02760,0.01382,-0.02760,0.01536,-0.02745,0.01683,-0.02700,0.01820,-0.02627,0.01939,-0.02529,0.02037,-0.02410,0.02110,-0.02274,0.02154,-0.02126,0.02169,-0.01973,0.02169,0.01973,0.02154,0.02126,0.02110,0.02274,0.02037,0.02410,0.01939,0.02529,0.01820,0.02627,0.01683,0.02700,0.01536,0.02745,0.01382,0.02760,0*%
%ADD71T71*%
%AMT21*0 Rounded Rectangle pad*4,1,36,0.01181,0.02756,-0.01181,0.02756,-0.01335,0.02741,-0.01482,0.02696,-0.01619,0.02623,-0.01738,0.02525,-0.01836,0.02406,-0.01909,0.02270,-0.01953,0.02122,-0.01969,0.01969,-0.01969,-0.01969,-0.01953,-0.02122,-0.01909,-0.02270,-0.01836,-0.02406,-0.01738,-0.02525,-0.01619,-0.02623,-0.01482,-0.02696,-0.01335,-0.02741,-0.01181,-0.02756,0.01181,-0.02756,0.01335,-0.02741,0.01482,-0.02696,0.01619,-0.02623,0.01738,-0.02525,0.01836,-0.02406,0.01909,-0.02270,0.01953,-0.02122,0.01969,-0.01969,0.01969,0.01969,0.01953,0.02122,0.01909,0.02270,0.01836,0.02406,0.01738,0.02525,0.01619,0.02623,0.01482,0.02696,0.01335,0.02741,0.01181,0.02756,0*%
%ADD21T21*%
%AMT22*0 Rounded Rectangle pad*4,1,36,0.01382,0.02760,-0.01382,0.02760,-0.01536,0.02745,-0.01683,0.02700,-0.01820,0.02627,-0.01939,0.02529,-0.02037,0.02410,-0.02110,0.02274,-0.02154,0.02126,-0.02170,0.01973,-0.02170,-0.01973,-0.02154,-0.02126,-0.02110,-0.02274,-0.02037,-0.02410,-0.01939,-0.02529,-0.01820,-0.02627,-0.01683,-0.02700,-0.01536,-0.02745,-0.01382,-0.02760,0.01382,-0.02760,0.01536,-0.02745,0.01683,-0.02700,0.01820,-0.02627,0.01939,-0.02529,0.02037,-0.02410,0.02110,-0.02274,0.02154,-0.02126,0.02169,-0.01973,0.02169,0.01973,0.02154,0.02126,0.02110,0.02274,0.02037,0.02410,0.01939,0.02529,0.01820,0.02627,0.01683,0.02700,0.01536,0.02745,0.01382,0.02760,0*%
%ADD22T22*%
%AMT25*0 Rounded Rectangle pad*4,1,36,-0.02760,0.01382,-0.02760,-0.01382,-0.02745,-0.01536,-0.02700,-0.01683,-0.02627,-0.01820,-0.02529,-0.01939,-0.02410,-0.02037,-0.02274,-0.02110,-0.02126,-0.02154,-0.01973,-0.02170,0.01973,-0.02170,0.02126,-0.02154,0.02274,-0.02110,0.02410,-0.02037,0.02529,-0.01939,0.02627,-0.01820,0.02700,-0.01683,0.02745,-0.01536,0.02760,-0.01382,0.02760,0.01382,0.02745,0.01536,0.02700,0.01683,0.02627,0.01820,0.02529,0.01939,0.02410,0.02037,0.02274,0.02110,0.02126,0.02154,0.01973,0.02169,-0.01973,0.02169,-0.02126,0.02154,-0.02274,0.02110,-0.02410,0.02037,-0.02529,0.01939,-0.02627,0.01820,-0.02700,0.01683,-0.02745,0.01536,-0.02760,0.01382,0*%
%ADD25T25*%
%AMT77*0 Rounded Rectangle pad*4,1,36,-0.01382,-0.02760,0.01382,-0.02760,0.01536,-0.02745,0.01683,-0.02700,0.01820,-0.02627,0.01939,-0.02529,0.02037,-0.02410,0.02110,-0.02274,0.02154,-0.02126,0.02170,-0.01973,0.02170,0.01973,0.02154,0.02126,0.02110,0.02274,0.02037,0.02410,0.01939,0.02529,0.01820,0.02627,0.01683,0.02700,0.01536,0.02745,0.01382,0.02760,-0.01382,0.02760,-0.01536,0.02745,-0.01683,0.02700,-0.01820,0.02627,-0.01939,0.02529,-0.02037,0.02410,-0.02110,0.02274,-0.02154,0.02126,-0.02169,0.01973,-0.02169,-0.01973,-0.02154,-0.02126,-0.02110,-0.02274,-0.02037,-0.02410,-0.01939,-0.02529,-0.01820,-0.02627,-0.01683,-0.02700,-0.01536,-0.02745,-0.01382,-0.02760,0*%
%ADD77T77*%
%AMT78*0 Rounded Rectangle pad*4,1,36,0.02760,-0.01382,0.02760,0.01382,0.02745,0.01536,0.02700,0.01683,0.02627,0.01820,0.02529,0.01939,0.02410,0.02037,0.02274,0.02110,0.02126,0.02154,0.01973,0.02170,-0.01973,0.02170,-0.02126,0.02154,-0.02274,0.02110,-0.02410,0.02037,-0.02529,0.01939,-0.02627,0.01820,-0.02700,0.01683,-0.02745,0.01536,-0.02760,0.01382,-0.02760,-0.01382,-0.02745,-0.01536,-0.02700,-0.01683,-0.02627,-0.01820,-0.02529,-0.01939,-0.02410,-0.02037,-0.02274,-0.02110,-0.02126,-0.02154,-0.01973,-0.02169,0.01973,-0.02169,0.02126,-0.02154,0.02274,-0.02110,0.02410,-0.02037,0.02529,-0.01939,0.02627,-0.01820,0.02700,-0.01683,0.02745,-0.01536,0.02760,-0.01382,0*%
%ADD78T78*%
%AMT79*0 Rounded Rectangle pad*4,1,36,0.00787,0.02756,-0.00787,0.02756,-0.00941,0.02741,-0.01089,0.02696,-0.01225,0.02623,-0.01344,0.02525,-0.01442,0.02406,-0.01515,0.02270,-0.01560,0.02122,-0.01575,0.01969,-0.01575,-0.01969,-0.01560,-0.02122,-0.01515,-0.02270,-0.01442,-0.02406,-0.01344,-0.02525,-0.01225,-0.02623,-0.01089,-0.02696,-0.00941,-0.02741,-0.00787,-0.02756,0.00787,-0.02756,0.00941,-0.02741,0.01089,-0.02696,0.01225,-0.02623,0.01344,-0.02525,0.01442,-0.02406,0.01515,-0.02270,0.01560,-0.02122,0.01575,-0.01969,0.01575,0.01969,0.01560,0.02122,0.01515,0.02270,0.01442,0.02406,0.01344,0.02525,0.01225,0.02623,0.01089,0.02696,0.00941,0.02741,0.00787,0.02756,0*%
%ADD79T79*%
%ADD87C,0.03098*%
G04 #@! TD.AperFunction*
%ADD94C,0.00001*%
G04 #@! TA.AperFunction,SMDPad*
%AMT99*0 Rounded Rectangle pad*4,1,36,-0.02760,0.01382,-0.02760,-0.01382,-0.02745,-0.01536,-0.02700,-0.01683,-0.02627,-0.01820,-0.02529,-0.01939,-0.02410,-0.02037,-0.02274,-0.02110,-0.02126,-0.02154,-0.01973,-0.02170,0.01973,-0.02170,0.02126,-0.02154,0.02274,-0.02110,0.02410,-0.02037,0.02529,-0.01939,0.02627,-0.01820,0.02700,-0.01683,0.02745,-0.01536,0.02760,-0.01382,0.02760,0.01382,0.02745,0.01536,0.02700,0.01683,0.02627,0.01820,0.02529,0.01939,0.02410,0.02037,0.02274,0.02110,0.02126,0.02154,0.01973,0.02169,-0.01973,0.02169,-0.02126,0.02154,-0.02274,0.02110,-0.02410,0.02037,-0.02529,0.01939,-0.02627,0.01820,-0.02700,0.01683,-0.02745,0.01536,-0.02760,0.01382,0*%
%ADD99T99*%
G04 #@! TA.AperFunction,NonMaterial*
%ADD120C,0.00100*%
G04 #@! TA.AperFunction,SMDPad*
%AMT129*0 Rounded Rectangle pad*4,1,28,-0.01575,0.00787,-0.01575,-0.00787,-0.01561,-0.00889,-0.01522,-0.00984,-0.01459,-0.01066,-0.01378,-0.01128,-0.01283,-0.01168,-0.01181,-0.01181,0.01181,-0.01181,0.01283,-0.01168,0.01378,-0.01128,0.01459,-0.01066,0.01522,-0.00984,0.01561,-0.00889,0.01575,-0.00787,0.01575,0.00787,0.01561,0.00889,0.01522,0.00984,0.01459,0.01066,0.01378,0.01128,0.01283,0.01168,0.01181,0.01181,-0.01181,0.01181,-0.01283,0.01168,-0.01378,0.01128,-0.01459,0.01066,-0.01522,0.00984,-0.01561,0.00889,-0.01575,0.00787,0*%
%ADD129T129*%
%AMT130*0 Rounded Rectangle pad*4,1,28,-0.01280,0.00787,-0.01280,-0.00787,-0.01266,-0.00889,-0.01227,-0.00984,-0.01164,-0.01066,-0.01083,-0.01128,-0.00988,-0.01168,-0.00886,-0.01181,0.00886,-0.01181,0.00988,-0.01168,0.01083,-0.01128,0.01164,-0.01066,0.01227,-0.00984,0.01266,-0.00889,0.01280,-0.00787,0.01280,0.00787,0.01266,0.00889,0.01227,0.00984,0.01164,0.01066,0.01083,0.01128,0.00988,0.01168,0.00886,0.01181,-0.00886,0.01181,-0.00988,0.01168,-0.01083,0.01128,-0.01164,0.01066,-0.01227,0.00984,-0.01266,0.00889,-0.01280,0.00787,0*%
%ADD130T130*%
%AMT166*0 Rounded Rectangle pad*4,1,36,-0.02929,-0.00974,-0.00974,-0.02929,-0.00855,-0.03027,-0.00719,-0.03100,-0.00571,-0.03144,-0.00417,-0.03160,-0.00264,-0.03144,-0.00116,-0.03100,0.00020,-0.03027,0.00139,-0.02929,0.02929,-0.00139,0.03027,-0.00020,0.03100,0.00116,0.03144,0.00264,0.03160,0.00418,0.03144,0.00571,0.03100,0.00719,0.03027,0.00855,0.02929,0.00974,0.00974,0.02929,0.00855,0.03027,0.00719,0.03100,0.00571,0.03144,0.00418,0.03159,0.00264,0.03144,0.00116,0.03100,-0.00020,0.03027,-0.00139,0.02929,-0.02929,0.00139,-0.03027,0.00020,-0.03100,-0.00116,-0.03144,-0.00264,-0.03159,-0.00418,-0.03144,-0.00571,-0.03100,-0.00719,-0.03027,-0.00855,-0.02929,-0.00974,0*%
%ADD166T166*%
%AMT171*0 Rounded Rectangle pad*4,1,28,0.01181,0.01575,-0.01181,0.01575,-0.01283,0.01561,-0.01378,0.01522,-0.01459,0.01459,-0.01522,0.01378,-0.01561,0.01283,-0.01575,0.01181,-0.01575,-0.01181,-0.01561,-0.01283,-0.01522,-0.01378,-0.01459,-0.01459,-0.01378,-0.01522,-0.01283,-0.01561,-0.01181,-0.01575,0.01181,-0.01575,0.01283,-0.01561,0.01378,-0.01522,0.01459,-0.01459,0.01522,-0.01378,0.01561,-0.01283,0.01575,-0.01181,0.01575,0.01181,0.01561,0.01283,0.01522,0.01378,0.01459,0.01459,0.01378,0.01522,0.01283,0.01561,0.01181,0.01575,0*%
%ADD171T171*%
G04 #@! TD.AperFunction*
%ADD172C,0.06496*%
G04 #@! TA.AperFunction,SMDPad*
%AMT199*0 Rounded Rectangle pad*4,1,28,0.00591,0.01969,-0.00591,0.01969,-0.00692,0.01955,-0.00787,0.01916,-0.00869,0.01853,-0.00931,0.01772,-0.00971,0.01677,-0.00984,0.01575,-0.00984,-0.01575,-0.00971,-0.01677,-0.00931,-0.01772,-0.00869,-0.01853,-0.00787,-0.01916,-0.00692,-0.01955,-0.00591,-0.01969,0.00591,-0.01969,0.00692,-0.01955,0.00787,-0.01916,0.00869,-0.01853,0.00931,-0.01772,0.00971,-0.01677,0.00984,-0.01575,0.00984,0.01575,0.00971,0.01677,0.00931,0.01772,0.00869,0.01853,0.00787,0.01916,0.00692,0.01955,0.00591,0.01969,0*%
%ADD199T199*%
%AMT200*0 Rounded Rectangle pad*4,1,28,-0.01969,0.00591,-0.01969,-0.00591,-0.01955,-0.00692,-0.01916,-0.00787,-0.01853,-0.00869,-0.01772,-0.00931,-0.01677,-0.00971,-0.01575,-0.00984,0.01575,-0.00984,0.01677,-0.00971,0.01772,-0.00931,0.01853,-0.00869,0.01916,-0.00787,0.01955,-0.00692,0.01969,-0.00591,0.01969,0.00591,0.01955,0.00692,0.01916,0.00787,0.01853,0.00869,0.01772,0.00931,0.01677,0.00971,0.01575,0.00984,-0.01575,0.00984,-0.01677,0.00971,-0.01772,0.00931,-0.01853,0.00869,-0.01916,0.00787,-0.01955,0.00692,-0.01969,0.00591,0*%
%ADD200T200*%
G04 #@! TA.AperFunction,ComponentPad*
%ADD205C,0.23622X0.12008*%
G04 #@! TA.AperFunction,SMDPad*
%AMT213*0 Rounded Rectangle pad*4,1,28,0.00236,0.01575,-0.00236,0.01575,-0.00338,0.01561,-0.00433,0.01522,-0.00515,0.01459,-0.00577,0.01378,-0.00616,0.01283,-0.00630,0.01181,-0.00630,-0.01181,-0.00616,-0.01283,-0.00577,-0.01378,-0.00515,-0.01459,-0.00433,-0.01522,-0.00338,-0.01561,-0.00236,-0.01575,0.00236,-0.01575,0.00338,-0.01561,0.00433,-0.01522,0.00515,-0.01459,0.00577,-0.01378,0.00616,-0.01283,0.00630,-0.01181,0.00630,0.01181,0.00616,0.01283,0.00577,0.01378,0.00515,0.01459,0.00433,0.01522,0.00338,0.01561,0.00236,0.01575,0*%
%ADD213T213*%
%AMT214*0 Rounded Rectangle pad*4,1,28,-0.01575,0.00236,-0.01575,-0.00236,-0.01561,-0.00338,-0.01522,-0.00433,-0.01459,-0.00515,-0.01378,-0.00577,-0.01283,-0.00616,-0.01181,-0.00630,0.01181,-0.00630,0.01283,-0.00616,0.01378,-0.00577,0.01459,-0.00515,0.01522,-0.00433,0.01561,-0.00338,0.01575,-0.00236,0.01575,0.00236,0.01561,0.00338,0.01522,0.00433,0.01459,0.00515,0.01378,0.00577,0.01283,0.00616,0.01181,0.00630,-0.01181,0.00630,-0.01283,0.00616,-0.01378,0.00577,-0.01459,0.00515,-0.01522,0.00433,-0.01561,0.00338,-0.01575,0.00236,0*%
%ADD214T214*%
%AMT216*0 Rounded Rectangle pad*4,1,28,-0.02992,0.00315,-0.02992,-0.00315,-0.02979,-0.00417,-0.02939,-0.00512,-0.02877,-0.00593,-0.02795,-0.00656,-0.02700,-0.00695,-0.02598,-0.00709,0.02598,-0.00709,0.02700,-0.00695,0.02795,-0.00656,0.02877,-0.00593,0.02939,-0.00512,0.02979,-0.00417,0.02992,-0.00315,0.02992,0.00315,0.02979,0.00417,0.02939,0.00512,0.02877,0.00593,0.02795,0.00656,0.02700,0.00695,0.02598,0.00709,-0.02598,0.00709,-0.02700,0.00695,-0.02795,0.00656,-0.02877,0.00593,-0.02939,0.00512,-0.02979,0.00417,-0.02992,0.00315,0*%
%ADD216T216*%
%AMT219*0 Rounded Rectangle pad*4,1,28,0.00315,0.02992,-0.00315,0.02992,-0.00417,0.02979,-0.00512,0.02939,-0.00593,0.02877,-0.00656,0.02795,-0.00695,0.02700,-0.00709,0.02598,-0.00709,-0.02598,-0.00695,-0.02700,-0.00656,-0.02795,-0.00593,-0.02877,-0.00512,-0.02939,-0.00417,-0.02979,-0.00315,-0.02992,0.00315,-0.02992,0.00417,-0.02979,0.00512,-0.02939,0.00593,-0.02877,0.00656,-0.02795,0.00695,-0.02700,0.00709,-0.02598,0.00709,0.02598,0.00695,0.02700,0.00656,0.02795,0.00593,0.02877,0.00512,0.02939,0.00417,0.02979,0.00315,0.02992,0*%
%ADD219T219*%
%AMT222*0 Rounded Rectangle pad*4,1,44,-0.05315,0.01181,-0.05315,-0.01181,-0.05300,-0.01366,-0.05257,-0.01546,-0.05186,-0.01717,-0.05089,-0.01875,-0.04969,-0.02016,-0.04828,-0.02137,-0.04670,-0.02234,-0.04499,-0.02304,-0.04319,-0.02348,-0.04134,-0.02362,0.04134,-0.02362,0.04319,-0.02348,0.04499,-0.02304,0.04670,-0.02233,0.04828,-0.02137,0.04969,-0.02016,0.05089,-0.01875,0.05186,-0.01717,0.05257,-0.01546,0.05300,-0.01366,0.05315,-0.01181,0.05315,0.01181,0.05300,0.01366,0.05257,0.01546,0.05186,0.01717,0.05089,0.01875,0.04969,0.02016,0.04828,0.02137,0.04670,0.02234,0.04499,0.02304,0.04319,0.02348,0.04134,0.02362,-0.04134,0.02362,-0.04319,0.02348,-0.04499,0.02304,-0.04670,0.02233,-0.04828,0.02137,-0.04969,0.02016,-0.05089,0.01875,-0.05186,0.01717,-0.05257,0.01546,-0.05300,0.01366,-0.05315,0.01181,0*%
%ADD222T222*%
G04 #@! TA.AperFunction,ComponentPad*
%ADD223C,0.08661X0.04291*%
%ADD225C,0.11811X0.06299*%
%ADD226C,0.06299X0.04016*%
%ADD227C,0.06299X0.03504*%
%ADD228C,0.18110X0.09055*%
%ADD229C,0.06693X0.03622*%
G04 #@! TA.AperFunction,SMDPad*
%AMT230*0 Rounded Rectangle pad*4,1,36,-0.02756,0.00787,-0.02756,-0.00787,-0.02741,-0.00941,-0.02696,-0.01089,-0.02623,-0.01225,-0.02525,-0.01344,-0.02406,-0.01442,-0.02270,-0.01515,-0.02122,-0.01560,-0.01969,-0.01575,0.01969,-0.01575,0.02122,-0.01560,0.02270,-0.01515,0.02406,-0.01442,0.02525,-0.01344,0.02623,-0.01225,0.02696,-0.01089,0.02741,-0.00941,0.02756,-0.00787,0.02756,0.00787,0.02741,0.00941,0.02696,0.01089,0.02623,0.01225,0.02525,0.01344,0.02406,0.01442,0.02270,0.01515,0.02122,0.01560,0.01969,0.01575,-0.01969,0.01575,-0.02122,0.01560,-0.02270,0.01515,-0.02406,0.01442,-0.02525,0.01344,-0.02623,0.01225,-0.02696,0.01089,-0.02741,0.00941,-0.02756,0.00787,0*%
%ADD230T230*%
%AMT231*0 Rounded Rectangle pad*4,1,32,-0.02165,0.01181,-0.02165,-0.01181,-0.02151,-0.01312,-0.02107,-0.01437,-0.02037,-0.01549,-0.01943,-0.01643,-0.01831,-0.01713,-0.01706,-0.01757,-0.01575,-0.01771,0.01575,-0.01771,0.01706,-0.01757,0.01831,-0.01713,0.01943,-0.01643,0.02037,-0.01549,0.02107,-0.01437,0.02151,-0.01312,0.02166,-0.01181,0.02166,0.01181,0.02151,0.01312,0.02107,0.01437,0.02037,0.01549,0.01943,0.01643,0.01831,0.01713,0.01706,0.01757,0.01575,0.01771,-0.01575,0.01771,-0.01706,0.01757,-0.01831,0.01713,-0.01943,0.01643,-0.02037,0.01549,-0.02107,0.01437,-0.02151,0.01312,-0.02165,0.01181,0*%
%ADD231T231*%
G04 #@! TA.AperFunction,ComponentPad*
%ADD233C,0.07087X0.03543*%
G04 #@! TA.AperFunction,SMDPad*
%AMT234*0 Rounded Rectangle pad*4,1,28,-0.04330,0.00786,-0.04330,-0.00786,-0.04317,-0.00888,-0.04277,-0.00983,-0.04215,-0.01065,-0.04133,-0.01127,-0.04038,-0.01167,-0.03936,-0.01180,0.03936,-0.01180,0.04038,-0.01167,0.04133,-0.01127,0.04215,-0.01065,0.04277,-0.00983,0.04317,-0.00888,0.04330,-0.00786,0.04330,0.00786,0.04317,0.00888,0.04277,0.00983,0.04215,0.01065,0.04133,0.01127,0.04038,0.01167,0.03936,0.01180,-0.03936,0.01180,-0.04038,0.01167,-0.04133,0.01127,-0.04215,0.01065,-0.04277,0.00983,-0.04317,0.00888,-0.04330,0.00786,0*%
%ADD234T234*%
%AMT257*0 Rounded Rectangle pad*4,1,52,-0.03346,0.00984,-0.03346,-0.00984,-0.03333,-0.01190,-0.03293,-0.01392,-0.03227,-0.01587,-0.03135,-0.01772,-0.03021,-0.01943,-0.02885,-0.02098,-0.02730,-0.02234,-0.02559,-0.02348,-0.02374,-0.02439,-0.02179,-0.02505,-0.01977,-0.02546,-0.01772,-0.02559,0.01772,-0.02559,0.01977,-0.02546,0.02179,-0.02505,0.02374,-0.02439,0.02559,-0.02348,0.02730,-0.02234,0.02885,-0.02098,0.03021,-0.01943,0.03136,-0.01772,0.03227,-0.01587,0.03293,-0.01392,0.03333,-0.01190,0.03346,-0.00984,0.03346,0.00984,0.03333,0.01190,0.03293,0.01392,0.03227,0.01587,0.03135,0.01772,0.03021,0.01943,0.02885,0.02098,0.02730,0.02234,0.02559,0.02348,0.02374,0.02439,0.02179,0.02505,0.01977,0.02546,0.01772,0.02559,-0.01772,0.02559,-0.01977,0.02546,-0.02179,0.02505,-0.02374,0.02439,-0.02559,0.02348,-0.02730,0.02234,-0.02885,0.02098,-0.03021,0.01943,-0.03136,0.01772,-0.03227,0.01587,-0.03293,0.01392,-0.03333,0.01190,-0.03346,0.00984,0*%
%ADD257T257*%
%AMT258*0 Rounded Rectangle pad*4,1,76,-0.11220,0.06890,-0.11220,-0.06890,-0.11205,-0.07233,-0.11161,-0.07573,-0.11086,-0.07909,-0.10983,-0.08236,-0.10852,-0.08554,-0.10693,-0.08858,-0.10509,-0.09148,-0.10299,-0.09420,-0.10067,-0.09674,-0.09814,-0.09906,-0.09542,-0.10115,-0.09252,-0.10299,-0.08947,-0.10458,-0.08630,-0.10589,-0.08302,-0.10693,-0.07967,-0.10767,-0.07627,-0.10812,-0.07283,-0.10827,0.07283,-0.10827,0.07627,-0.10812,0.07967,-0.10767,0.08302,-0.10693,0.08630,-0.10589,0.08947,-0.10458,0.09252,-0.10299,0.09542,-0.10115,0.09814,-0.09906,0.10067,-0.09674,0.10299,-0.09420,0.10509,-0.09148,0.10693,-0.08858,0.10852,-0.08554,0.10983,-0.08236,0.11086,-0.07909,0.11161,-0.07573,0.11205,-0.07233,0.11220,-0.06890,0.11220,0.06890,0.11205,0.07233,0.11161,0.07573,0.11086,0.07909,0.10983,0.08236,0.10852,0.08554,0.10693,0.08858,0.10509,0.09148,0.10299,0.09420,0.10067,0.09674,0.09814,0.09906,0.09542,0.10115,0.09252,0.10299,0.08947,0.10458,0.08630,0.10589,0.08302,0.10693,0.07967,0.10767,0.07627,0.10812,0.07283,0.10827,-0.07283,0.10827,-0.07627,0.10812,-0.07967,0.10767,-0.08302,0.10693,-0.08630,0.10589,-0.08947,0.10458,-0.09252,0.10299,-0.09542,0.10115,-0.09814,0.09906,-0.10067,0.09674,-0.10299,0.09420,-0.10509,0.09148,-0.10693,0.08858,-0.10852,0.08554,-0.10983,0.08236,-0.11086,0.07909,-0.11161,0.07573,-0.11205,0.07233,-0.11220,0.06890,0*%
%ADD258T258*%
%AMT264*0 Rectangle Pad at angle 270*21,1,0.01969,0.02165,0,0,270*%
%ADD264T264*%
%ADD265R,0.02165X0.01654*%
%AMT266*0 Rectangle Pad at angle 90*21,1,0.01969,0.02165,0,0,90*%
%ADD266T266*%
%AMT267*0 Rounded Rectangle pad*4,1,32,0.00197,0.01673,-0.00197,0.01673,-0.00328,0.01658,-0.00453,0.01615,-0.00565,0.01544,-0.00659,0.01451,-0.00729,0.01339,-0.00773,0.01214,-0.00787,0.01083,-0.00787,-0.01083,-0.00773,-0.01214,-0.00729,-0.01339,-0.00659,-0.01451,-0.00565,-0.01544,-0.00453,-0.01615,-0.00328,-0.01658,-0.00197,-0.01673,0.00197,-0.01673,0.00328,-0.01658,0.00453,-0.01615,0.00565,-0.01544,0.00659,-0.01451,0.00729,-0.01339,0.00773,-0.01214,0.00787,-0.01083,0.00787,0.01083,0.00773,0.01214,0.00729,0.01339,0.00659,0.01451,0.00565,0.01544,0.00453,0.01615,0.00328,0.01658,0.00197,0.01673,0*%
%ADD267T267*%
%AMT279*0 Rounded Rectangle pad*4,1,36,-0.02854,0.02008,-0.02854,-0.02008,-0.02839,-0.02162,-0.02795,-0.02309,-0.02722,-0.02446,-0.02624,-0.02565,-0.02505,-0.02663,-0.02368,-0.02736,-0.02221,-0.02780,-0.02067,-0.02796,0.02067,-0.02796,0.02221,-0.02780,0.02368,-0.02736,0.02505,-0.02663,0.02624,-0.02565,0.02722,-0.02446,0.02795,-0.02309,0.02839,-0.02162,0.02855,-0.02008,0.02855,0.02008,0.02839,0.02162,0.02795,0.02309,0.02722,0.02446,0.02624,0.02565,0.02505,0.02663,0.02368,0.02736,0.02221,0.02780,0.02067,0.02795,-0.02067,0.02795,-0.02221,0.02780,-0.02368,0.02736,-0.02505,0.02663,-0.02624,0.02565,-0.02722,0.02446,-0.02795,0.02309,-0.02839,0.02162,-0.02854,0.02008,0*%
%ADD279T279*%
%ADD280O,0.06500X0.01300*%
%AMT281*0 Rounded Rectangle pad*4,1,28,-0.06299,0.01575,-0.06299,-0.01575,-0.06286,-0.01677,-0.06246,-0.01772,-0.06184,-0.01853,-0.06102,-0.01916,-0.06007,-0.01955,-0.05906,-0.01969,0.05906,-0.01969,0.06007,-0.01955,0.06102,-0.01916,0.06184,-0.01853,0.06246,-0.01772,0.06286,-0.01677,0.06299,-0.01575,0.06299,0.01575,0.06286,0.01677,0.06246,0.01772,0.06184,0.01853,0.06102,0.01916,0.06007,0.01955,0.05906,0.01969,-0.05906,0.01969,-0.06007,0.01955,-0.06102,0.01916,-0.06184,0.01853,-0.06246,0.01772,-0.06286,0.01677,-0.06299,0.01575,0*%
%ADD281T281*%
X0Y0D02*
D02*
D18*
X163780Y-68307D03*
X163976Y-101378D03*
X171654Y-68307D03*
X171850Y-101378D03*
X208465Y-145669D03*
X216339D03*
X233071Y-140748D03*
X240945D03*
X313780Y-124016D03*
X313976Y-161811D03*
X321654Y-124016D03*
X321850Y-161811D03*
X371063Y-110039D03*
X378937D03*
X388504Y-128720D03*
X393819Y-214350D03*
Y-201949D03*
X394606Y-119075D03*
X396378Y-128720D03*
X401693Y-214350D03*
Y-201949D03*
X402480Y-119075D03*
X404843Y-112382D03*
X412717D03*
X426693Y-112579D03*
X434567D03*
X434961Y-206673D03*
X440669Y-219665D03*
X442835Y-206673D03*
X448543Y-219665D03*
D02*
D19*
X167717Y-71063D03*
Y-65551D03*
X167913Y-104134D03*
Y-98622D03*
X212402Y-148425D03*
Y-142913D03*
X237008Y-143504D03*
Y-137992D03*
X317717Y-126772D03*
Y-121260D03*
X317913Y-164567D03*
Y-159055D03*
X375000Y-112795D03*
Y-107283D03*
X392441Y-131476D03*
Y-125965D03*
X397756Y-217106D03*
Y-211594D03*
Y-204705D03*
Y-199193D03*
X398543Y-121831D03*
Y-116319D03*
X408780Y-115138D03*
Y-109626D03*
X430630Y-115335D03*
Y-109823D03*
X438898Y-209429D03*
Y-203917D03*
X444606Y-222421D03*
Y-216909D03*
D02*
D71*
X224705Y-133465D03*
X231595D03*
X287894Y-99213D03*
X291240Y-108858D03*
X294784Y-99213D03*
X298130Y-108858D03*
X368524Y-76555D03*
X371476Y-98996D03*
X375414Y-76555D03*
X378366Y-98996D03*
X406122Y-99783D03*
X411437Y-91713D03*
X413012Y-99783D03*
X418327Y-91713D03*
X439193Y-162579D03*
X442146Y-132657D03*
X446083Y-162579D03*
X449036Y-132657D03*
D02*
D21*
X78464Y-180513D03*
X82204Y-171852D03*
X85944Y-180513D03*
X445592Y-241298D03*
X449332Y-249959D03*
X453072Y-241298D03*
D02*
D22*
X442047Y-140925D03*
X448248Y-87382D03*
X448543Y-112776D03*
X448937Y-140925D03*
X455138Y-87382D03*
X455433Y-112776D03*
D02*
D25*
X70197Y-180394D03*
Y-173504D03*
X343425Y-97520D03*
Y-90630D03*
X352677Y-97520D03*
Y-90630D03*
X455827Y-215827D03*
Y-208937D03*
D02*
D77*
X316240Y-132677D03*
X323130D03*
X371378Y-89744D03*
X372461Y-54311D03*
X378268Y-89744D03*
X379351Y-54311D03*
X396476Y-91713D03*
X403366D03*
D02*
D78*
X279921Y-109547D03*
Y-102657D03*
X376102Y-205591D03*
Y-198701D03*
X385551Y-240433D03*
Y-233543D03*
D02*
D79*
X199016Y-382677D03*
X206890D03*
D02*
D87*
X241594Y-100669D03*
Y-95669D03*
Y-90669D03*
X246594Y-100669D03*
Y-95669D03*
Y-90669D03*
D02*
D94*
X246595Y-90670D02*
X167126Y-68307D02*
G36*
X167141Y-68439D01*
X167184Y-68563D01*
X167255Y-68675D01*
X167348Y-68769D01*
X167460Y-68839D01*
X167585Y-68883D01*
X167716Y-68898D01*
X167848Y-68883D01*
X167973Y-68839D01*
X168085Y-68769D01*
X168178Y-68675D01*
X168249Y-68563D01*
X168292Y-68439D01*
X168307Y-68307D01*
X168292Y-68176D01*
X168249Y-68051D01*
X168178Y-67939D01*
X168085Y-67845D01*
X167973Y-67775D01*
X167848Y-67731D01*
X167717Y-67717D01*
X167585Y-67731D01*
X167460Y-67775D01*
X167348Y-67845D01*
X167255Y-67939D01*
X167185Y-68051D01*
X167141Y-68176D01*
X167126Y-68307D01*
G37*
X167127Y-68308D02*
X167323Y-101378D02*
G36*
X167338Y-101509D01*
X167381Y-101634D01*
X167452Y-101746D01*
X167545Y-101840D01*
X167657Y-101910D01*
X167782Y-101954D01*
X167913Y-101969D01*
X168045Y-101954D01*
X168170Y-101910D01*
X168282Y-101840D01*
X168375Y-101746D01*
X168445Y-101634D01*
X168489Y-101509D01*
X168504Y-101378D01*
X168489Y-101247D01*
X168445Y-101122D01*
X168375Y-101010D01*
X168282Y-100916D01*
X168170Y-100846D01*
X168045Y-100802D01*
X167913Y-100787D01*
X167782Y-100802D01*
X167657Y-100846D01*
X167545Y-100916D01*
X167452Y-101010D01*
X167381Y-101122D01*
X167338Y-101246D01*
X167323Y-101378D01*
G37*
X167324Y-101379D02*
X211811Y-145669D02*
G36*
X211826Y-145801D01*
X211869Y-145926D01*
X211940Y-146037D01*
X212033Y-146131D01*
X212145Y-146201D01*
X212270Y-146245D01*
X212402Y-146260D01*
X212533Y-146245D01*
X212658Y-146201D01*
X212770Y-146131D01*
X212863Y-146038D01*
X212934Y-145926D01*
X212977Y-145801D01*
X212992Y-145669D01*
X212977Y-145538D01*
X212934Y-145413D01*
X212863Y-145301D01*
X212770Y-145208D01*
X212658Y-145137D01*
X212533Y-145094D01*
X212402Y-145079D01*
X212270Y-145094D01*
X212145Y-145137D01*
X212033Y-145208D01*
X211940Y-145301D01*
X211870Y-145413D01*
X211826Y-145538D01*
X211811Y-145669D01*
G37*
X211812Y-145670D02*
X236417Y-140748D02*
G36*
X236432Y-140879D01*
X236476Y-141004D01*
X236546Y-141116D01*
X236640Y-141210D01*
X236752Y-141280D01*
X236876Y-141324D01*
X237008Y-141339D01*
X237139Y-141324D01*
X237264Y-141280D01*
X237376Y-141210D01*
X237470Y-141116D01*
X237540Y-141004D01*
X237584Y-140879D01*
X237598Y-140748D01*
X237584Y-140617D01*
X237540Y-140492D01*
X237470Y-140380D01*
X237376Y-140286D01*
X237264Y-140216D01*
X237139Y-140172D01*
X237008Y-140157D01*
X236876Y-140172D01*
X236752Y-140216D01*
X236640Y-140286D01*
X236546Y-140380D01*
X236476Y-140492D01*
X236432Y-140617D01*
X236417Y-140748D01*
G37*
X236418Y-140749D02*
X317126Y-124016D02*
G36*
X317141Y-124147D01*
X317184Y-124272D01*
X317255Y-124384D01*
X317348Y-124477D01*
X317460Y-124548D01*
X317585Y-124591D01*
X317716Y-124606D01*
X317848Y-124591D01*
X317973Y-124548D01*
X318085Y-124477D01*
X318178Y-124384D01*
X318249Y-124272D01*
X318292Y-124147D01*
X318307Y-124016D01*
X318292Y-123884D01*
X318249Y-123760D01*
X318178Y-123648D01*
X318085Y-123554D01*
X317973Y-123484D01*
X317848Y-123440D01*
X317717Y-123425D01*
X317585Y-123440D01*
X317460Y-123484D01*
X317348Y-123554D01*
X317255Y-123648D01*
X317185Y-123759D01*
X317141Y-123884D01*
X317126Y-124016D01*
G37*
X317127Y-124017D02*
X317323Y-161811D02*
G36*
X317338Y-161942D01*
X317381Y-162067D01*
X317452Y-162179D01*
X317545Y-162273D01*
X317657Y-162343D01*
X317782Y-162387D01*
X317913Y-162402D01*
X318045Y-162387D01*
X318170Y-162343D01*
X318282Y-162273D01*
X318375Y-162179D01*
X318445Y-162067D01*
X318489Y-161942D01*
X318504Y-161811D01*
X318489Y-161680D01*
X318445Y-161555D01*
X318375Y-161443D01*
X318282Y-161349D01*
X318170Y-161279D01*
X318045Y-161235D01*
X317913Y-161220D01*
X317782Y-161235D01*
X317657Y-161279D01*
X317545Y-161349D01*
X317452Y-161443D01*
X317381Y-161555D01*
X317338Y-161680D01*
X317323Y-161811D01*
G37*
X317324Y-161812D02*
X343425Y-161594D02*
G36*
X343440Y-161726D01*
X343484Y-161851D01*
X343554Y-161963D01*
X343648Y-162056D01*
X343759Y-162127D01*
X343884Y-162170D01*
X344016Y-162185D01*
X344147Y-162170D01*
X344272Y-162127D01*
X344384Y-162056D01*
X344477Y-161963D01*
X344548Y-161851D01*
X344591Y-161726D01*
X344606Y-161594D01*
X344591Y-161463D01*
X344548Y-161338D01*
X344477Y-161226D01*
X344384Y-161133D01*
X344272Y-161062D01*
X344147Y-161019D01*
X344016Y-161004D01*
X343884Y-161019D01*
X343760Y-161062D01*
X343648Y-161133D01*
X343554Y-161226D01*
X343484Y-161338D01*
X343440Y-161463D01*
X343425Y-161594D01*
G37*
X343426Y-161595D02*
X349134Y-121043D02*
G36*
X349149Y-121175D01*
X349192Y-121300D01*
X349263Y-121411D01*
X349356Y-121505D01*
X349468Y-121575D01*
X349593Y-121619D01*
X349724Y-121634D01*
X349856Y-121619D01*
X349981Y-121575D01*
X350093Y-121505D01*
X350186Y-121412D01*
X350256Y-121300D01*
X350300Y-121175D01*
X350315Y-121043D01*
X350300Y-120912D01*
X350256Y-120787D01*
X350186Y-120675D01*
X350093Y-120582D01*
X349981Y-120511D01*
X349856Y-120468D01*
X349724Y-120453D01*
X349593Y-120468D01*
X349468Y-120511D01*
X349356Y-120582D01*
X349263Y-120675D01*
X349192Y-120787D01*
X349149Y-120912D01*
X349134Y-121043D01*
G37*
X349135Y-121044D02*
X374409Y-110039D02*
G36*
X374424Y-110171D01*
X374468Y-110296D01*
X374538Y-110408D01*
X374632Y-110501D01*
X374744Y-110571D01*
X374869Y-110615D01*
X375000Y-110630D01*
X375131Y-110615D01*
X375256Y-110571D01*
X375368Y-110501D01*
X375462Y-110408D01*
X375532Y-110296D01*
X375576Y-110171D01*
X375591Y-110039D01*
X375576Y-109908D01*
X375532Y-109783D01*
X375462Y-109671D01*
X375368Y-109578D01*
X375256Y-109507D01*
X375131Y-109464D01*
X375000Y-109449D01*
X374869Y-109464D01*
X374744Y-109507D01*
X374632Y-109578D01*
X374538Y-109671D01*
X374468Y-109783D01*
X374424Y-109908D01*
X374409Y-110039D01*
G37*
X374410Y-110040D02*
X391850Y-128720D02*
G36*
X391865Y-128852D01*
X391909Y-128977D01*
X391979Y-129089D01*
X392073Y-129182D01*
X392185Y-129253D01*
X392309Y-129296D01*
X392441Y-129311D01*
X392572Y-129296D01*
X392697Y-129253D01*
X392809Y-129182D01*
X392903Y-129089D01*
X392973Y-128977D01*
X393017Y-128852D01*
X393031Y-128720D01*
X393017Y-128589D01*
X392973Y-128464D01*
X392903Y-128352D01*
X392809Y-128259D01*
X392697Y-128188D01*
X392572Y-128145D01*
X392441Y-128130D01*
X392310Y-128145D01*
X392185Y-128188D01*
X392073Y-128259D01*
X391979Y-128352D01*
X391909Y-128464D01*
X391865Y-128589D01*
X391850Y-128720D01*
G37*
X391851Y-128721D02*
X397165Y-214350D02*
G36*
X397180Y-214482D01*
X397224Y-214607D01*
X397294Y-214719D01*
X397388Y-214812D01*
X397500Y-214882D01*
X397624Y-214926D01*
X397756Y-214941D01*
X397887Y-214926D01*
X398012Y-214882D01*
X398124Y-214812D01*
X398218Y-214719D01*
X398288Y-214607D01*
X398332Y-214482D01*
X398346Y-214350D01*
X398332Y-214219D01*
X398288Y-214094D01*
X398218Y-213982D01*
X398124Y-213889D01*
X398012Y-213818D01*
X397887Y-213775D01*
X397756Y-213760D01*
X397625Y-213775D01*
X397500Y-213818D01*
X397388Y-213889D01*
X397294Y-213982D01*
X397224Y-214094D01*
X397180Y-214219D01*
X397165Y-214350D01*
G37*
X397166Y-214351D02*
X397165Y-201949D02*
G36*
X397180Y-202080D01*
X397224Y-202205D01*
X397294Y-202317D01*
X397388Y-202411D01*
X397500Y-202481D01*
X397624Y-202525D01*
X397756Y-202539D01*
X397887Y-202525D01*
X398012Y-202481D01*
X398124Y-202411D01*
X398218Y-202317D01*
X398288Y-202205D01*
X398332Y-202080D01*
X398346Y-201949D01*
X398332Y-201817D01*
X398288Y-201693D01*
X398218Y-201581D01*
X398124Y-201487D01*
X398012Y-201417D01*
X397887Y-201373D01*
X397756Y-201358D01*
X397625Y-201373D01*
X397500Y-201417D01*
X397388Y-201487D01*
X397294Y-201581D01*
X397224Y-201693D01*
X397180Y-201817D01*
X397165Y-201949D01*
G37*
X397166Y-201950D02*
X397953Y-119075D02*
G36*
X397968Y-119206D01*
X398011Y-119331D01*
X398082Y-119443D01*
X398175Y-119536D01*
X398287Y-119607D01*
X398412Y-119651D01*
X398543Y-119665D01*
X398675Y-119651D01*
X398799Y-119607D01*
X398911Y-119537D01*
X399005Y-119443D01*
X399075Y-119331D01*
X399119Y-119206D01*
X399134Y-119075D01*
X399119Y-118943D01*
X399075Y-118819D01*
X399005Y-118707D01*
X398912Y-118613D01*
X398800Y-118543D01*
X398675Y-118499D01*
X398543Y-118484D01*
X398412Y-118499D01*
X398287Y-118543D01*
X398175Y-118613D01*
X398082Y-118707D01*
X398011Y-118819D01*
X397968Y-118943D01*
X397953Y-119075D01*
G37*
X397954Y-119076D02*
X408189Y-112382D02*
G36*
X408204Y-112513D01*
X408247Y-112638D01*
X408318Y-112750D01*
X408411Y-112844D01*
X408523Y-112914D01*
X408648Y-112958D01*
X408779Y-112972D01*
X408911Y-112958D01*
X409036Y-112914D01*
X409148Y-112844D01*
X409241Y-112750D01*
X409312Y-112638D01*
X409355Y-112513D01*
X409370Y-112382D01*
X409355Y-112250D01*
X409312Y-112126D01*
X409241Y-112014D01*
X409148Y-111920D01*
X409036Y-111850D01*
X408911Y-111806D01*
X408780Y-111791D01*
X408648Y-111806D01*
X408523Y-111850D01*
X408411Y-111920D01*
X408318Y-112014D01*
X408248Y-112126D01*
X408204Y-112250D01*
X408189Y-112382D01*
G37*
X408190Y-112383D02*
X408386Y-160807D02*
G36*
X408401Y-160939D01*
X408444Y-161063D01*
X408515Y-161175D01*
X408608Y-161269D01*
X408720Y-161339D01*
X408845Y-161383D01*
X408976Y-161398D01*
X409108Y-161383D01*
X409233Y-161339D01*
X409345Y-161269D01*
X409438Y-161175D01*
X409508Y-161063D01*
X409552Y-160939D01*
X409567Y-160807D01*
X409552Y-160676D01*
X409508Y-160551D01*
X409438Y-160439D01*
X409345Y-160345D01*
X409233Y-160275D01*
X409108Y-160231D01*
X408976Y-160217D01*
X408845Y-160231D01*
X408720Y-160275D01*
X408608Y-160345D01*
X408515Y-160439D01*
X408444Y-160551D01*
X408401Y-160676D01*
X408386Y-160807D01*
G37*
X408387Y-160808D02*
X424134Y-160807D02*
G36*
X424149Y-160939D01*
X424192Y-161063D01*
X424263Y-161175D01*
X424356Y-161269D01*
X424468Y-161339D01*
X424593Y-161383D01*
X424724Y-161398D01*
X424856Y-161383D01*
X424981Y-161339D01*
X425093Y-161269D01*
X425186Y-161175D01*
X425256Y-161063D01*
X425300Y-160939D01*
X425315Y-160807D01*
X425300Y-160676D01*
X425256Y-160551D01*
X425186Y-160439D01*
X425093Y-160345D01*
X424981Y-160275D01*
X424856Y-160231D01*
X424724Y-160217D01*
X424593Y-160231D01*
X424468Y-160275D01*
X424356Y-160345D01*
X424263Y-160439D01*
X424192Y-160551D01*
X424149Y-160676D01*
X424134Y-160807D01*
G37*
X424135Y-160808D02*
X430039Y-112579D02*
G36*
X430054Y-112710D01*
X430098Y-112835D01*
X430168Y-112947D01*
X430262Y-113040D01*
X430374Y-113111D01*
X430498Y-113154D01*
X430630Y-113169D01*
X430761Y-113154D01*
X430886Y-113111D01*
X430998Y-113040D01*
X431092Y-112947D01*
X431162Y-112835D01*
X431206Y-112710D01*
X431220Y-112579D01*
X431206Y-112447D01*
X431162Y-112323D01*
X431092Y-112211D01*
X430998Y-112117D01*
X430886Y-112047D01*
X430761Y-112003D01*
X430630Y-111988D01*
X430499Y-112003D01*
X430374Y-112047D01*
X430262Y-112117D01*
X430168Y-112211D01*
X430098Y-112322D01*
X430054Y-112447D01*
X430039Y-112579D01*
G37*
X430040Y-112580D02*
X438307Y-206673D02*
G36*
X438322Y-206805D01*
X438366Y-206929D01*
X438436Y-207041D01*
X438529Y-207135D01*
X438641Y-207205D01*
X438766Y-207249D01*
X438898Y-207264D01*
X439029Y-207249D01*
X439154Y-207205D01*
X439266Y-207135D01*
X439359Y-207041D01*
X439430Y-206929D01*
X439473Y-206805D01*
X439488Y-206673D01*
X439473Y-206542D01*
X439430Y-206417D01*
X439359Y-206305D01*
X439266Y-206212D01*
X439154Y-206141D01*
X439029Y-206097D01*
X438898Y-206083D01*
X438766Y-206097D01*
X438641Y-206141D01*
X438529Y-206211D01*
X438436Y-206305D01*
X438366Y-206417D01*
X438322Y-206542D01*
X438307Y-206673D01*
G37*
X438308Y-206674D02*
X444016Y-219665D02*
G36*
X444031Y-219797D01*
X444074Y-219922D01*
X444145Y-220034D01*
X444238Y-220127D01*
X444350Y-220197D01*
X444475Y-220241D01*
X444606Y-220256D01*
X444738Y-220241D01*
X444862Y-220197D01*
X444974Y-220127D01*
X445068Y-220034D01*
X445138Y-219922D01*
X445182Y-219797D01*
X445197Y-219665D01*
X445182Y-219534D01*
X445138Y-219409D01*
X445068Y-219297D01*
X444975Y-219204D01*
X444863Y-219133D01*
X444738Y-219090D01*
X444606Y-219075D01*
X444475Y-219090D01*
X444350Y-219133D01*
X444238Y-219204D01*
X444145Y-219297D01*
X444074Y-219409D01*
X444031Y-219534D01*
X444016Y-219665D01*
G37*
D02*
D99*
X104134Y-140256D03*
Y-133366D03*
D02*
D120*
X7579Y-309949D02*
X26571D01*
Y-302949*
X7579*
Y-309949*
X7580Y-309950D02*
X7579Y-309949D02*
G36*
X26571D01*
Y-302949D01*
X7579D01*
Y-309949D01*
G37*
D02*
D129*
X344016Y-165531D03*
Y-157657D03*
X349724Y-124980D03*
Y-117106D03*
X408976Y-164744D03*
Y-156870D03*
X424724Y-164744D03*
Y-156870D03*
D02*
D130*
X341260Y-161594D03*
X346772D03*
X346969Y-121043D03*
X352480D03*
X406220Y-160807D03*
X411732D03*
X421969D03*
X427480D03*
D02*
D166*
X430556Y-91639D03*
X432328Y-82387D03*
X435428Y-96511D03*
X437200Y-87259D03*
D02*
D171*
X25386Y-280559D03*
Y-275559D03*
Y-270559D03*
Y-265559D03*
Y-260559D03*
Y-255559D03*
Y-250559D03*
Y-245559D03*
Y-240559D03*
Y-235559D03*
Y-230559D03*
Y-225559D03*
Y-220559D03*
Y-215559D03*
Y-210559D03*
Y-205559D03*
Y-200559D03*
Y-195559D03*
Y-190559D03*
Y-185559D03*
Y-157421D03*
Y-152421D03*
Y-147421D03*
Y-142421D03*
Y-137421D03*
Y-132421D03*
Y-127421D03*
Y-122421D03*
Y-117421D03*
Y-112421D03*
Y-107421D03*
Y-102421D03*
Y-97421D03*
Y-92421D03*
Y-87421D03*
Y-82421D03*
Y-77421D03*
Y-72421D03*
Y-67421D03*
Y-62421D03*
X30386Y-280559D03*
Y-275559D03*
Y-270559D03*
Y-265559D03*
Y-260559D03*
Y-255559D03*
Y-250559D03*
Y-245559D03*
Y-240559D03*
Y-235559D03*
Y-230559D03*
Y-225559D03*
Y-220559D03*
Y-215559D03*
Y-210559D03*
Y-205559D03*
Y-200559D03*
Y-195559D03*
Y-190559D03*
Y-185559D03*
Y-157421D03*
Y-152421D03*
Y-147421D03*
Y-142421D03*
Y-137421D03*
Y-132421D03*
Y-127421D03*
Y-122421D03*
Y-117421D03*
Y-112421D03*
Y-107421D03*
Y-102421D03*
Y-97421D03*
Y-92421D03*
Y-87421D03*
Y-82421D03*
Y-77421D03*
Y-72421D03*
Y-67421D03*
Y-62421D03*
D02*
D172*
X17512Y-289260D03*
Y-176858D03*
Y-166122D03*
Y-53720D03*
D02*
D199*
X253150Y-178445D03*
Y-116831D03*
X256300Y-178445D03*
Y-116831D03*
X259449Y-178445D03*
Y-116831D03*
X262599Y-178445D03*
Y-116831D03*
X265748Y-178445D03*
Y-116831D03*
X268898Y-178445D03*
Y-116831D03*
X272048Y-178445D03*
Y-116831D03*
X275197Y-178445D03*
Y-116831D03*
X278347Y-178445D03*
Y-116831D03*
X281496Y-178445D03*
Y-116831D03*
X284646Y-178445D03*
Y-116831D03*
X287796Y-178445D03*
Y-116831D03*
X290945Y-178445D03*
Y-116831D03*
X294095Y-178445D03*
Y-116831D03*
X297244Y-178445D03*
Y-116831D03*
X300394Y-178445D03*
Y-116831D03*
D02*
D200*
X245965Y-171260D03*
Y-168110D03*
Y-164961D03*
Y-161811D03*
Y-158662D03*
Y-155512D03*
Y-152362D03*
Y-149213D03*
Y-146063D03*
Y-142914D03*
Y-139764D03*
Y-136614D03*
Y-133465D03*
Y-130315D03*
Y-127166D03*
Y-124016D03*
X307579Y-171260D03*
Y-168110D03*
Y-164961D03*
Y-161811D03*
Y-158662D03*
Y-155512D03*
Y-152362D03*
Y-149213D03*
Y-146063D03*
Y-142914D03*
Y-139764D03*
Y-136614D03*
Y-133465D03*
Y-130315D03*
Y-127166D03*
Y-124016D03*
D02*
D205*
X28268Y-32854D03*
X126693D03*
X168425D03*
X266850D03*
D02*
D213*
X407008Y-152343D03*
Y-118878D03*
X408976Y-152343D03*
Y-118878D03*
X410945Y-152343D03*
Y-118878D03*
X412913Y-152343D03*
Y-118878D03*
X414882Y-152343D03*
Y-118878D03*
X416850Y-152343D03*
Y-118878D03*
X418819Y-152343D03*
Y-118878D03*
X420787Y-152343D03*
Y-118878D03*
X422756Y-152343D03*
Y-118878D03*
X424724Y-152343D03*
Y-118878D03*
X426693Y-152343D03*
Y-118878D03*
X428661Y-152343D03*
Y-118878D03*
D02*
D214*
X401102Y-146437D03*
Y-144469D03*
Y-142500D03*
Y-140531D03*
Y-138563D03*
Y-136594D03*
Y-134626D03*
Y-132657D03*
Y-130689D03*
Y-128720D03*
Y-126752D03*
Y-124783D03*
X434567Y-146437D03*
Y-144469D03*
Y-142500D03*
Y-140531D03*
Y-138563D03*
Y-136594D03*
Y-134626D03*
Y-132657D03*
Y-130689D03*
Y-128720D03*
Y-126752D03*
Y-124783D03*
D02*
D216*
X408622Y-201851D03*
Y-199292D03*
Y-196733D03*
Y-194174D03*
Y-191615D03*
Y-189056D03*
Y-186496D03*
Y-183937D03*
Y-181378D03*
Y-178819D03*
Y-176260D03*
Y-173701D03*
X409213Y-245355D03*
Y-242796D03*
Y-240237D03*
Y-237678D03*
Y-235119D03*
Y-232560D03*
Y-230000D03*
Y-227441D03*
Y-224882D03*
Y-222323D03*
Y-219764D03*
Y-217205D03*
X433346Y-201851D03*
Y-199292D03*
Y-196733D03*
Y-194174D03*
Y-191615D03*
Y-189056D03*
Y-186496D03*
Y-183937D03*
Y-181378D03*
Y-178819D03*
Y-176260D03*
Y-173701D03*
X433937Y-245355D03*
Y-242796D03*
Y-240237D03*
Y-237678D03*
Y-235119D03*
Y-232560D03*
Y-230000D03*
Y-227441D03*
Y-224882D03*
Y-222323D03*
Y-219764D03*
Y-217205D03*
D02*
D219*
X349626Y-156634D03*
Y-131910D03*
X352185Y-156634D03*
Y-131910D03*
X354744Y-156634D03*
Y-131910D03*
X357303Y-156634D03*
Y-131910D03*
X359862Y-156634D03*
Y-131910D03*
X362421Y-156634D03*
Y-131910D03*
X364981Y-156634D03*
Y-131910D03*
X367540Y-156634D03*
Y-131910D03*
X370099Y-156634D03*
Y-131910D03*
X372658Y-156634D03*
Y-131910D03*
X375217Y-156634D03*
Y-131910D03*
X377776Y-156634D03*
Y-131910D03*
D02*
D222*
X7866Y-290382D03*
Y-175736D03*
Y-167244D03*
Y-52598D03*
X27157Y-290382D03*
Y-175736D03*
Y-167244D03*
Y-52598D03*
D02*
D223*
X55669Y-38445D03*
X61122Y-27264D03*
X66575Y-38445D03*
X72028Y-27264D03*
X77480Y-38445D03*
X82933Y-27264D03*
X88386Y-38445D03*
X93839Y-27264D03*
X99291Y-38445D03*
X195827D03*
X201280Y-27264D03*
X206732Y-38445D03*
X212185Y-27264D03*
X217638Y-38445D03*
X223091Y-27264D03*
X228543Y-38445D03*
X233996Y-27264D03*
X239449Y-38445D03*
D02*
D225*
X385650Y-42106D03*
X447657D03*
D02*
D226*
X390177Y-20098D03*
Y-12106D03*
X443130Y-20098D03*
Y-12106D03*
D02*
D227*
X399154Y-65098D03*
X404154Y-55098D03*
X409154Y-65098D03*
X414154Y-55098D03*
X419154Y-65098D03*
X424154Y-55098D03*
X429154Y-65098D03*
X434154Y-55098D03*
D02*
D228*
X314409Y-27933D03*
X366142D03*
D02*
D229*
X326496Y-38563D03*
X336339D03*
X344213D03*
X354055D03*
D02*
D230*
X229449Y-60807D03*
Y-52933D03*
X306024Y-60807D03*
Y-52933D03*
D02*
D231*
X222048Y-150787D03*
Y-145669D03*
X228740Y-150787D03*
Y-145669D03*
X378937Y-122244D03*
Y-117126D03*
X385629Y-122244D03*
Y-117126D03*
D02*
D233*
X13307Y-375374D03*
X23307D03*
X33307D03*
X43307D03*
X53307D03*
X63307D03*
X73307D03*
X83307D03*
D02*
D234*
X104528Y-125177D03*
Y-120177D03*
Y-115177D03*
Y-110177D03*
Y-105177D03*
Y-100177D03*
Y-95177D03*
Y-90177D03*
X125000Y-125177D03*
Y-120177D03*
Y-115177D03*
Y-110177D03*
Y-105177D03*
Y-100177D03*
Y-95177D03*
Y-90177D03*
D02*
D257*
X376067Y-233189D03*
Y-215197D03*
D02*
D258*
X350713Y-224193D03*
D02*
D264*
X110453Y-62303D03*
X115768D03*
D02*
D265*
X110453Y-70020D03*
Y-67500D03*
Y-64980D03*
X115768Y-70020D03*
Y-67500D03*
Y-64980D03*
D02*
D266*
X110453Y-72697D03*
X115768D03*
D02*
D267*
X64882Y-59724D03*
Y-52441D03*
X67441Y-59724D03*
X70000D03*
Y-52441D03*
X87323Y-60315D03*
Y-53031D03*
X89882Y-60315D03*
X92441D03*
Y-53031D03*
X194016Y-56969D03*
Y-49685D03*
X196575Y-56969D03*
X199134D03*
Y-49685D03*
X211535Y-57165D03*
Y-49882D03*
X214094Y-57165D03*
X216654D03*
Y-49882D03*
D02*
D279*
X183858Y-382677D03*
Y-371654D03*
X191063Y-141909D03*
Y-130886D03*
D02*
D280*
X178579Y-119373D03*
Y-116813D03*
Y-114253D03*
Y-111693D03*
Y-109133D03*
Y-106573D03*
Y-104013D03*
Y-101453D03*
X178776Y-86499D03*
Y-83939D03*
Y-81379D03*
Y-78819D03*
Y-76259D03*
Y-73699D03*
Y-71139D03*
Y-68579D03*
X201579Y-119373D03*
Y-116813D03*
Y-114253D03*
Y-111693D03*
Y-109133D03*
Y-106573D03*
Y-104013D03*
Y-101453D03*
X201776Y-86499D03*
Y-83939D03*
Y-81379D03*
Y-78819D03*
Y-76259D03*
Y-73699D03*
Y-71139D03*
Y-68579D03*
D02*
D281*
X109370Y-384626D03*
Y-368878D03*
X136142Y-384626D03*
Y-368878D03*
X0Y0D02*
M02*
