M48
FMAT,1
INCH
T01C00.00984
T02C00.01181
T03C00.03504
T04C00.03543
T05C00.03622
T06C00.04016
T07C00.04291
T08C00.06299
T09C00.06496
T10C00.09055
T11C00.12008
%
G81
M70
T01
X13346Y-154921
X16063Y-264094
X17283Y-187047
X19094Y-116102
X19685Y-277165
X19685Y-274055
X22008Y-235591
X22008Y-227047
X22008Y-215591
X22008Y-207047
X22008Y-200551
X22008Y-195591
X22008Y-142441
X22008Y-132441
X22008Y-118228
X22008Y-112441
X22441Y-72421
X22520Y-77421
X22520Y-67421
X22559Y-180079
X22677Y-62421
X27874Y-180079
X33189Y-157421
X33307Y-152421
X33465Y-280559
X33465Y-275559
X33740Y-206063
X33740Y-202087
X33740Y-127421
X33740Y-67441
X33780Y-122421
X37047Y-201220
X43386Y-128504
X45039Y-77441
X46732Y-131457
X46732Y-112441
X58622Y-55039
X64882Y-63189
X67441Y-57126
X67441Y-52441
X70197Y-170079
X73898Y-46890
X74764Y-173504
X78465Y-175906
X82205Y-167323
X82205Y-139488
X83976Y-70000
X85944Y-184409
X87323Y-63780
X89882Y-57598
X91969Y-134488
X91969Y-131457
X91969Y-128504
X91969Y-125315
X91969Y-75866
X96142Y-134488
X96142Y-120157
X96142Y-81811
X98425Y-95157
X98425Y-66575
X98465Y-131535
X101693Y-384626
X101890Y-182323
X104134Y-143701
X104252Y-129016
X104646Y-87205
X107598Y-62087
X108386Y-74646
X110157Y-258386
X110630Y-112362
X113898Y-100157
X117835Y-60354
X118071Y-75472
X118780Y-90177
X118898Y-120197
X118898Y-110197
X119252Y-248307
X119331Y-125177
X121024Y-81378
X123425Y-79291
X132205Y-177992
X132323Y-95157
X134409Y-115157
X134409Y-88071
X137520Y-107717
X138031Y-91496
X138031Y-65394
X143937Y-384626
X150197Y-239606
X154488Y-79016
X161181Y-68307
X161260Y-101378
X170039Y-149488
X173740Y-76575
X174488Y-214173
X174606Y-66142
X176417Y-136969
X178622Y-174488
X181417Y-129606
X182756Y-94882
X183504Y-121181
X183622Y-117598
X183622Y-111693
X183622Y-108740
X183819Y-83939
X183858Y-366850
X185945Y-70472
X188386Y-94803
X191063Y-146772
X193425Y-149685
X194409Y-114252
X196535Y-128071
X196535Y-106181
X196575Y-54409
X196575Y-49685
X196693Y-101378
X197283Y-68579
X199134Y-60433
X205394Y-61850
X205394Y-47283
X205709Y-145669
X208976Y-58031
X208976Y-52283
X211339Y-76575
X211535Y-60630
X214094Y-54449
X217992Y-86496
X221063Y-133465
X222283Y-111693
X228740Y-153957
X229449Y-57598
X230591Y-140748
X234016Y-49567
X234783Y-84764
X237087Y-133465
X237126Y-77126
X241024Y-112756
X243976Y-112874
X249606Y-139764
X249724Y-144409
X251811Y-135551
X262598Y-174685
X265512Y-150630
X267598Y-173465
X267638Y-147717
X272087Y-182205
X274921Y-102657
X278347Y-120217
X284646Y-120098
X294095Y-120217
X303819Y-165630
X303898Y-127166
X304291Y-158662
X306024Y-57480
X324528Y-161811
X324764Y-124016
X327205Y-132677
X337598Y-212087
X337677Y-224193
X343425Y-101339
X344016Y-168110
X347362Y-170157
X347756Y-209961
X349724Y-114724
X350713Y-236772
X350713Y-212047
X352677Y-101260
X354724Y-117992
X357323Y-161417
X357323Y-143346
X362717Y-89744
X363386Y-76555
X363661Y-224140
X367520Y-98996
X367874Y-209961
X368268Y-54311
X368504Y-110039
X369567Y-218937
X370118Y-214173
X370591Y-257953
X371024Y-233107
X372677Y-194724
X376067Y-237205
X376067Y-229134
X376067Y-218976
X376067Y-211102
X376102Y-194961
X377776Y-152087
X377776Y-127598
X379370Y-76457
X380669Y-215197
X380709Y-237047
X380787Y-233543
X385551Y-243976
X385629Y-125098
X385984Y-128720
X390118Y-239291
X390118Y-230394
X390906Y-207717
X390945Y-214350
X391181Y-201949
X391890Y-119075
X391890Y-91713
X393268Y-196732
X395591Y-258386
X400827Y-221890
X404213Y-173701
X404409Y-219764
X404724Y-130689
X404724Y-126752
X407008Y-148740
X408976Y-167205
X410039Y-214409
X410945Y-148976
X410945Y-133543
X412913Y-171181
X412913Y-155709
X413858Y-245355
X413898Y-240197
X413898Y-235119
X415906Y-135630
X417992Y-189134
X418819Y-122402
X421063Y-172362
X421063Y-157835
X421969Y-218150
X423228Y-143150
X423898Y-193780
X424724Y-167244
X424764Y-224331
X425079Y-170197
X426024Y-196339
X426693Y-148976
X426850Y-217677
X428071Y-186850
X428071Y-157835
X428543Y-199291
X428661Y-122402
X428976Y-245355
X429134Y-228031
X429173Y-222323
X431063Y-134626
X431220Y-138543
X437874Y-248307
X437913Y-140551
X437953Y-132657
X438071Y-144449
X438110Y-189055
X438228Y-136575
X438425Y-173701
X440236Y-196732
X440236Y-191614
X441142Y-167244
X443661Y-202087
X444055Y-230000
X444331Y-126969
X444764Y-183425
X444882Y-213858
X445354Y-206673
X446457Y-124646
X447008Y-232559
X450945Y-219665
X452638Y-140925
X453071Y-236732
X455138Y-82205
X455551Y-117283
X455827Y-219665
X455827Y-204961
T02
X167717Y-68307
X167913Y-101378
X212402Y-145669
X237008Y-140748
X317717Y-124016
X317913Y-161811
X344016Y-161594
X349724Y-121043
X375000Y-110039
X392441Y-128720
X397756Y-214350
X397756Y-201949
X398543Y-119075
X408780Y-112382
X408976Y-160807
X424724Y-160807
X430630Y-112579
X438898Y-206673
X444606Y-219665
T03
X399154Y-65098
X404154Y-55098
X409154Y-65098
X414154Y-55098
X419154Y-65098
X424154Y-55098
X429154Y-65098
X434154Y-55098
T04
X13307Y-375374
X23307Y-375374
X33307Y-375374
X43307Y-375374
X53307Y-375374
X63307Y-375374
X73307Y-375374
X83307Y-375374
T05
X326496Y-38563
X336339Y-38563
X344213Y-38563
X354055Y-38563
T06
X390177Y-20098
X390177Y-12106
X443130Y-20098
X443130Y-12106
T07
X55669Y-38445
X61122Y-27264
X66575Y-38445
X72028Y-27264
X77480Y-38445
X82933Y-27264
X88386Y-38445
X93839Y-27264
X99291Y-38445
X195827Y-38445
X201280Y-27264
X206732Y-38445
X212185Y-27264
X217638Y-38445
X223091Y-27264
X228543Y-38445
X233996Y-27264
X239449Y-38445
T08
X385650Y-42106
X447657Y-42106
T09
X17512Y-289260
X17512Y-176858
X17512Y-166122
X17512Y-53720
T10
X314409Y-27933
X366142Y-27933
T11
X28268Y-32854
X126693Y-32854
X168425Y-32854
X266850Y-32854
M30
