M48
FMAT,1
INCH
T01C00.00984
T02C00.01181
T03C00.12205
%
G81
M70
T01
X-93858Y24409
X-91102Y154291
X-87638Y66142
X-86260Y104370
X-85472Y37992
X-81575Y-23819
X-80551Y106929
X-79606Y171142
X-77244Y35827
X-73898Y164370
X-72244Y157283
X-72244Y173425
X-70354Y134449
X-69921Y-3701
X-69921Y16181
X-67244Y39724
X-67244Y43268
X-67244Y106102
X-67244Y134449
X-66890Y139783
X-66614Y189980
X-66378Y12815
X-65079Y37008
X-62835Y20472
X-62244Y46850
X-62244Y185630
X-61024Y65079
X-61024Y92087
X-60709Y119252
X-60157Y157283
X-59803Y-20000
X-57323Y45236
X-57244Y62165
X-57244Y121339
X-57087Y65157
X-54685Y118425
X-54370Y-25984
X-54370Y128346
X-53150Y65157
X-52992Y28740
X-52520Y114646
X-51614Y22835
X-50827Y39724
X-50827Y53386
X-49370Y147480
X-47205Y96969
X-47205Y140945
X-45276Y-15984
X-45276Y167283
X-45039Y131339
X-43110Y177008
X-41575Y-3386
X-41339Y35630
X-40945Y144291
X-39961Y137992
X-37795Y121378
X-37402Y65157
X-37402Y105591
X-37244Y-31339
X-37244Y21102
X-37244Y145315
X-35079Y13583
X-35079Y41102
X-34409Y65157
X-32913Y20669
X-32244Y-19882
X-32244Y8465
X-32244Y158661
X-32047Y134449
X-30079Y191575
X-29921Y92520
X-29528Y63976
X-29370Y-4567
X-27244Y9252
X-27244Y107559
X-27244Y134449
X-27244Y140945
X-27244Y188661
X-25197Y92323
X-25079Y44685
X-24409Y41102
X-22835Y37205
X-22244Y92323
X-22244Y114646
X-22244Y118425
X-22244Y137992
X-22244Y167283
X-20079Y121378
X-19961Y140118
X-17717Y92323
X-17244Y-31339
X-17244Y20531
X-17244Y105748
X-17244Y111102
X-17244Y144882
X-17244Y185630
X-16535Y38031
X-15079Y-11378
X-15079Y9843
X-14370Y24882
X-14370Y33465
X-14370Y128386
X-13780Y64961
X-13780Y92323
X-12205Y19921
X-12205Y53583
X-10827Y102008
X-9843Y94488
X-9331Y115984
X-8661Y104173
X-8031Y40157
X-7756Y-24980
X-6890Y113031
X-6535Y92323
X-5866Y38031
X-5276Y63780
X-5197Y185630
X-3701Y22677
X-3524Y-29370
X-3524Y-20906
X-2953Y92323
X-2953Y120512
X-2638Y151024
X-2244Y167874
X-630Y156496
X-79Y165157
X236Y120512
X630Y13583
X1063Y54744
X1732Y126772
X1969Y58110
X1969Y92323
X3366Y-29370
X3366Y-20906
X3898Y133878
X5039Y151024
X5906Y65236
X5906Y92441
X6181Y139390
X6181Y188602
X6969Y13602
X7205Y-24980
X8858Y93819
X9724Y47165
X10000Y116142
X10000Y124055
X10472Y108268
X10472Y177795
X12638Y175630
X14055Y43543
X14055Y62244
X14370Y-25984
X15039Y-3740
X17717Y65157
X19409Y116142
X21535Y162992
X21575Y187795
X21654Y92323
X21969Y14213
X22047Y62598
X22244Y110433
X22244Y173425
X22992Y106102
X25039Y64764
X25197Y32874
X25197Y108268
X25591Y92441
X26575Y-11378
X27165Y8465
X27244Y173425
X27362Y110394
X27362Y114764
X29528Y65276
X29528Y92323
X32165Y163425
X32244Y32874
X32244Y40354
X32244Y185630
X33465Y65472
X33465Y92323
X34409Y35236
X34685Y-20000
X36575Y41732
X37165Y142677
X37244Y-10000
X37362Y35236
X37402Y65394
X37402Y92323
X38031Y-19882
X38780Y61220
X39331Y122441
X39409Y109646
X39409Y117559
X40709Y169055
X41339Y47520
X43071Y149488
X45276Y65157
X45276Y109646
X45394Y49685
X48268Y-31457
X48976Y156496
X49213Y65157
X50748Y8465
X52913Y19921
X52913Y36417
X53307Y-19882
X53701Y153543
X53819Y124606
X57087Y62992
X57244Y-31299
X57244Y20512
X57244Y41142
X57244Y94213
X57244Y134449
X57244Y145157
X57244Y162992
X58150Y116142
X59409Y16102
X61024Y65374
X61024Y92402
X62244Y-13543
X62244Y18661
X62244Y159449
X63661Y112598
X64409Y-3740
X64685Y20787
X65079Y62598
X66575Y-10906
X67244Y36417
X67244Y73622
X67362Y12835
X71457Y62598
X71457Y87323
X71811Y-10906
X71811Y-4252
X71811Y12835
X72244Y107559
X72244Y134449
X72244Y191575
X74331Y73622
X75984Y193268
X76575Y120394
X77244Y-31339
X77244Y-13071
X77244Y15630
X77244Y20472
X77244Y61220
X77244Y94213
X77244Y145157
X77244Y171220
X79409Y8465
X80118Y182047
X81063Y110433
X81575Y37205
X81575Y49685
X83740Y155709
X84449Y47520
X87402Y52913
X87520Y64173
X87520Y115906
X88307Y149488
X88701Y142677
X92047Y29173
X93228Y173425
X98189Y-15197
X98583Y187795
T02
X-81299Y66142
X-73307Y12815
X-73307Y139783
X-73307Y189980
X-9331Y122461
X8189Y54744
X13307Y13602
X13307Y139390
X13307Y188602
T03
X0Y0
M30
